<?xml version="1.0" standalone="no"?>
<!DOCTYPE svg PUBLIC "-//W3C//DTD SVG 1.1//EN" "http://www.w3.org/Graphics/SVG/1.1/DTD/svg11.dtd">
<svg xmlns="http://www.w3.org/2000/svg"><metadata>This SVG WebFont was generated by YouWorkForThem.
Copyright (c) 2018 by Ryan Martinson. All rights reserved.</metadata><defs><font horiz-adv-x="1669" id="ywftsvg"><font-face ascent="1638" bbox="-410 -1016 2900 2011" cap-height="1434" descent="-410" font-family="" font-stretch="normal" font-weight="600" panose-1="2 11 7 3 4 0 0 2 0 3" underline-position="0" underline-thickness="0" unicode-range="U+0020-FB04" units-per-em="2048" x-height="1036"/><missing-glyph d="M256 0v1434h879v-1434h-879zM455 193h481v1048h-481v-1048z" horiz-adv-x="1390"/><glyph d="M53 801v235h187v45q0 205 96 303.5t262 98.5q117 0 233 -47l-55 -207q-63 25 -123 24q-72 0 -110.5 -36.5t-38.5 -133.5v-47h317v-235h-317v-801h-264v801h-187zM799 -385l37 223q35 -10 65 -10q90 0 90 113v1095h266v-1116q0 -160 -83.5 -241.5t-231.5 -81.5 q-75 0 -143 18zM1124 1165q-70 0 -116.5 47.5t-46.5 115t47 114.5t116 47q68 0 116 -47t48 -114.5t-48 -115t-116 -47.5z" glyph-name="uniE200" horiz-adv-x="1404" unicode="fj"/><glyph d="M53 801v235h187v45q0 205 96 303.5t262 98.5q135 0 266 -56l-61 -202q-80 29 -150 28q-72 0 -110.5 -36.5t-38.5 -133.5v-47h303v-235h-303v-801h-264v801h-187zM903 801v235h172v45q0 205 96.5 303.5t262.5 98.5q117 0 233 -47l-57 -207q-63 25 -121 24 q-72 0 -111 -36.5t-39 -133.5v-47h318v-235h-318v-801h-264v801h-172zM1634 -385l37 223q35 -10 66 -10q90 0 90 113v1095h266v-1116q0 -160 -84 -241.5t-231 -81.5q-76 0 -144 18zM1960 1165q-70 0 -117 47.5t-47 115t47 114.5t117 47q68 0 116 -47t48 -114.5t-48 -115 t-116 -47.5z" glyph-name="uniE201" horiz-adv-x="2238" unicode="ffj"/><glyph d="M53 801v235h187v45q0 205 96 303.5t262 98.5q117 0 233 -47l-55 -207q-63 25 -123 24q-72 0 -110.5 -36.5t-38.5 -133.5v-47h317v-235h-317v-801h-264v801h-187zM1257 1434v-539q119 162 334 162q211 0 342 -153.5t131 -387.5q0 -231 -131 -385t-342 -154 q-215 0 -334 162v-139h-264v1434h264zM1251 516q0 -129 77 -215t195.5 -86t195.5 86t77 215q0 131 -77 217t-195.5 86t-195.5 -86t-77 -217z" glyph-name="uniE202" horiz-adv-x="2158" unicode="fb"/><glyph d="M53 801v235h187v45q0 205 96 303.5t262 98.5q135 0 266 -56l-61 -202q-80 29 -150 28q-72 0 -110.5 -36.5t-38.5 -133.5v-47h303v-235h-303v-801h-264v801h-187zM903 801v235h172v45q0 205 96.5 303.5t262.5 98.5q117 0 233 -47l-57 -207q-63 25 -121 24 q-72 0 -111 -36.5t-39 -133.5v-47h318v-235h-318v-801h-264v801h-172zM2093 1434v-539q119 162 334 162q211 0 342 -153.5t131 -387.5q0 -231 -131 -385t-342 -154q-215 0 -334 162v-139h-264v1434h264zM2087 516q0 -129 77 -215t195.5 -86t195.5 86t77 215q0 131 -77 217 t-195.5 86t-195.5 -86t-77 -217z" glyph-name="uniE203" horiz-adv-x="2994" unicode="ffb"/><glyph d="M53 801v235h187v45q0 205 96 303.5t262 98.5q117 0 233 -47l-55 -207q-63 25 -123 24q-72 0 -110.5 -36.5t-38.5 -133.5v-47h317v-235h-317v-801h-264v801h-187zM1698 0l-246 403h-195v-403h-264v1434h264v-801h191l225 403h287l-289 -510l326 -526h-299z" glyph-name="uniE204" horiz-adv-x="2031" unicode="fk"/><glyph d="M53 801v235h187v45q0 205 96 303.5t262 98.5q135 0 266 -56l-61 -202q-80 29 -150 28q-72 0 -110.5 -36.5t-38.5 -133.5v-47h303v-235h-303v-801h-264v801h-187zM903 801v235h172v45q0 205 96.5 303.5t262.5 98.5q117 0 233 -47l-57 -207q-63 25 -121 24 q-72 0 -111 -36.5t-39 -133.5v-47h318v-235h-318v-801h-264v801h-172zM2533 0l-245 403h-195v-403h-264v1434h264v-801h191l225 403h287l-289 -510l325 -526h-299z" glyph-name="uniE205" horiz-adv-x="2867" unicode="ffk"/><glyph d="M53 801v235h187v45q0 205 96 303.5t262 98.5q117 0 233 -47l-55 -207q-63 25 -123 24q-72 0 -110.5 -36.5t-38.5 -133.5v-47h317v-235h-317v-801h-264v801h-187zM1714 0v588q0 121 -54 176t-140 55q-115 0 -189 -84t-74 -194v-541h-264v1434h264v-545q115 168 340 168 q172 0 276.5 -106.5t104.5 -325.5v-625h-264z" glyph-name="uniE206" horiz-adv-x="2111" unicode="fh"/><glyph d="M53 801v235h187v45q0 205 96 303.5t262 98.5q135 0 266 -56l-61 -202q-80 29 -150 28q-72 0 -110.5 -36.5t-38.5 -133.5v-47h303v-235h-303v-801h-264v801h-187zM903 801v235h172v45q0 205 96.5 303.5t262.5 98.5q117 0 233 -47l-57 -207q-63 25 -121 24 q-72 0 -111 -36.5t-39 -133.5v-47h318v-235h-318v-801h-264v801h-172zM2550 0v588q0 121 -54.5 176t-140.5 55q-115 0 -188.5 -84t-73.5 -194v-541h-264v1434h264v-545q115 168 340 168q172 0 276.5 -106.5t104.5 -325.5v-625h-264z" glyph-name="uniE207" horiz-adv-x="2947" unicode="ffh"/><glyph d="M53 801v235h187v45q0 205 96 303.5t262 98.5q117 0 233 -47l-55 -207q-63 25 -123 24q-72 0 -110.5 -36.5t-38.5 -133.5v-47h303v-235h-303v-801h-264v801h-187zM903 801v235h172v271l264 88v-359h344v-235h-344v-414q0 -168 136 -168q66 0 170 57l88 -215 q-133 -84 -299 -84q-358 0 -359 426v398h-172z" glyph-name="uniE208" horiz-adv-x="1757" unicode="ft"/><glyph d="M53 801v235h187v45q0 205 96 303.5t262 98.5q135 0 266 -56l-61 -202q-80 29 -150 28q-72 0 -110.5 -36.5t-38.5 -133.5v-47h303v-235h-303v-801h-264v801h-187zM1739 801v235h170v271l266 88v-359h344v-235h-344v-414q0 -168 133 -168q68 0 172 57l88 -215 q-133 -84 -299 -84q-360 0 -360 426v398h-170zM903 801v235h172v45q0 205 96.5 303.5t262.5 98.5q117 0 233 -47l-57 -207q-63 25 -121 24q-72 0 -111 -36.5t-39 -133.5v-47h303v-235h-303v-801h-264v801h-172z" glyph-name="uniE209" horiz-adv-x="2590" unicode="fft"/><glyph d="M45 801v235h186v271l265 88v-359h331v-235h-331v-414q0 -168 133 -168q68 0 172 57l88 -215q-133 -84 -299 -84q-358 0 -359 426v398h-186zM942 801v235h174v271l264 88v-359h344v-235h-344v-414q0 -168 136 -168q66 0 170 57l88 -215q-133 -84 -299 -84q-358 0 -359 426 v398h-174z" glyph-name="uniE210" horiz-adv-x="1798" unicode="tt"/><glyph d="M53 801v235h187v45q0 205 96 303.5t262 98.5q135 0 266 -56l-61 -202q-80 29 -150 28q-72 0 -110.5 -36.5t-38.5 -133.5v-47h303v-235h-303v-801h-264v801h-187zM903 801v235h172v45q0 205 96.5 303.5t262.5 98.5q133 0 264 -56l-62 -202q-78 29 -147 28 q-72 0 -111 -36.5t-39 -133.5v-47h318v-235h-318v-801h-264v801h-172z" glyph-name="uniFB00" horiz-adv-x="1691" unicode="ff"/><glyph d="M53 801v235h187v45q0 205 96 303.5t262 98.5q117 0 233 -47l-55 -207q-63 25 -123 24q-72 0 -110.5 -36.5t-38.5 -133.5v-47h317v-235h-317v-801h-264v801h-187zM993 0v1036h264v-1036h-264zM1124.5 1165q-67.5 0 -115.5 47.5t-48 115t48 114.5t115.5 47t115.5 -47 t48 -114.5t-48 -115t-115.5 -47.5z" glyph-name="uniFB01" horiz-adv-x="1404" unicode="fi"/><glyph d="M53 801v235h187v45q0 205 96 303.5t262 98.5q117 0 233 -47l-55 -207q-63 25 -123 24q-72 0 -110.5 -36.5t-38.5 -133.5v-47h317v-235h-317v-801h-264v801h-187zM993 0v1434h264v-1434h-264z" glyph-name="uniFB02" horiz-adv-x="1404" unicode="fl"/><glyph d="M53 801v235h187v45q0 205 96 303.5t262 98.5q135 0 266 -56l-61 -202q-80 29 -150 28q-72 0 -110.5 -36.5t-38.5 -133.5v-47h303v-235h-303v-801h-264v801h-187zM901 801v235h172v45q0 205 97.5 303.5t261.5 98.5q117 0 235 -47l-57 -207q-63 25 -123 24 q-72 0 -111 -36.5t-39 -133.5v-47h318v-235h-318v-801h-264v801h-172zM1829 0v1036h264v-1036h-264zM1960 1165q-68 0 -116 47.5t-48 115t48 114.5t116 47t116 -47t48 -114.5t-48 -115t-116 -47.5z" glyph-name="uniFB03" horiz-adv-x="2238" unicode="ffi"/><glyph d="M53 801v235h187v45q0 205 96 303.5t262 98.5q135 0 266 -56l-61 -202q-80 29 -150 28q-72 0 -110.5 -36.5t-38.5 -133.5v-47h303v-235h-303v-801h-264v801h-187zM903 801v235h172v45q0 205 96.5 303.5t262.5 98.5q117 0 233 -47l-57 -207q-63 25 -121 24 q-72 0 -111 -36.5t-39 -133.5v-47h318v-235h-318v-801h-264v801h-172zM1829 0v1434h264v-1434h-264z" glyph-name="uniFB04" horiz-adv-x="2238" unicode="ffl"/><glyph d="M256 0v1434h879v-1434h-879zM455 193h481v1048h-481v-1048z" glyph-name=".notdef" horiz-adv-x="1390"/><glyph glyph-name="glyph1" horiz-adv-x="0"/><glyph glyph-name="glyph2" horiz-adv-x="681"/><glyph glyph-name="space" horiz-adv-x="512" unicode=" "/><glyph d="M145 1434h314l-66 -973h-182zM143 133.5q0 63.5 46.5 109.5t112 46t111.5 -46t46 -109.5t-46 -110t-111.5 -46.5t-112 46.5t-46.5 110z" glyph-name="exclam" horiz-adv-x="604" unicode="!"/><glyph d="M371 803h-213l-29 631h268zM795 803h-213l-29 631h268z" glyph-name="quotedbl" horiz-adv-x="952" unicode="&quot;"/><glyph d="M172 872v222h248l57 340h225l-57 -340h287l57 340h225l-57 -340h211v-222h-248l-53 -311h215v-221h-252l-55 -340h-225l55 340h-287l-55 -340h-223l55 340h-211v221h248l51 311h-211zM608 872l-53 -311h287l53 311h-287z" glyph-name="numbersign" horiz-adv-x="1452" unicode="#"/><glyph d="M477 -166v215q-164 27 -265 117t-120 244l250 65q20 -209 260 -209q106 0 163.5 38t57.5 106q0 49 -39 85.5t-77.5 52t-133.5 46.5q-29 10 -43 14q-203 68 -313.5 162t-110.5 260q0 150 99.5 246t271.5 117v209h223v-216q160 -33 256.5 -135t96.5 -264v-33h-254v17 q0 102 -62.5 152.5t-167.5 50.5q-92 0 -145 -39t-53 -105q0 -33 14 -59.5t31.5 -43t58.5 -36t64.5 -27.5t81.5 -26q236 -78 351 -168t115 -258q0 -154 -103 -250t-284 -117v-211h-223z" glyph-name="dollar" horiz-adv-x="1175" unicode="$"/><glyph d="M74 1099.5q0 147.5 104.5 252t253.5 104.5q152 0 256.5 -104.5t104.5 -252t-104.5 -251t-256.5 -103.5q-150 0 -254 103.5t-104 251zM287 1100q0 -63 41 -105.5t104.5 -42.5t105.5 42t42 105.5t-42 106.5t-105.5 43t-104.5 -41.5t-41 -107.5zM444 0h-247l1060 1434h248z M909 331.5q0 147.5 104.5 252t256 104.5t256 -104.5t104.5 -252t-104.5 -251t-256 -103.5t-256 103.5t-104.5 251zM1124 331.5q0 -63.5 41 -105.5t104.5 -42t105.5 42t42 105.5t-42 106.5t-105.5 43t-104.5 -43t-41 -106.5z" glyph-name="percent" horiz-adv-x="1703" unicode="%"/><glyph d="M1432 0h-353l-153 168q-227 -190 -453 -191q-176 0 -282.5 94.5t-106.5 247.5q0 139 82 237.5t237 195.5q-135 176 -135 333.5t115 264t287 106.5q168 0 276.5 -100.5t108.5 -245.5q0 -207 -279 -393l176 -193q90 94 203 240l188 -150q-98 -133 -229 -268zM500 203 q117 0 268 139l-213 238q-111 -68 -163 -119t-52 -117q0 -59 43 -100t117 -41zM524 1085q0 -82 103 -202q98 61 143 110t45 107q0 63 -39 100t-100 37q-68 0 -110 -43t-42 -109z" glyph-name="ampersand" horiz-adv-x="1439" unicode="&amp;"/><glyph d="M371 803h-213l-29 631h268z" glyph-name="quotesingle" horiz-adv-x="528" unicode="'"/><glyph d="M397 1509l217 -133q-229 -369 -229 -844q0 -473 229 -841l-217 -133q-295 436 -295 974q0 541 295 977z" glyph-name="parenleft" horiz-adv-x="677" unicode="("/><glyph d="M63 1376l218 133q295 -436 294 -977q0 -539 -294 -974l-218 133q229 369 230 841q-1 475 -230 844z" glyph-name="parenright" horiz-adv-x="677" unicode=")"/><glyph d="M604 1434l-26 -295l268 116l65 -194l-286 -66l194 -221l-166 -121l-151 250l-154 -250l-166 121l195 221l-287 66l66 194l268 -116l-27 295h207z" glyph-name="asterisk" horiz-adv-x="1001" unicode="*"/><glyph d="M98 786h287v304h231v-304h287v-231h-287v-303h-231v303h-287v231z" glyph-name="plus" horiz-adv-x="1001" unicode="+"/><glyph d="M274 -395l-122 106q162 158 161 273q-74 -23 -136 23t-62 126q0 68 47 118t125 50q84 0 146.5 -65.5t62.5 -188.5q0 -127 -66 -245.5t-156 -196.5z" glyph-name="comma" horiz-adv-x="591" unicode=","/><glyph d="M750 717v-238h-613v238h613z" glyph-name="hyphen" horiz-adv-x="886" unicode="-"/><glyph d="M109 143.5q0 67.5 50 115.5t117 48q70 0 119 -47t49 -116.5t-49 -118t-119 -48.5q-68 0 -117.5 49.5t-49.5 117z" glyph-name="period" horiz-adv-x="552" unicode="."/><glyph d="M696 1434h256l-639 -1434h-258z" glyph-name="slash" horiz-adv-x="1011" unicode="/"/><glyph d="M111 717q0 319 147.5 529t419.5 210q274 0 421.5 -210t147.5 -529q0 -207 -60.5 -371t-191.5 -266.5t-317 -102.5q-274 0 -420.5 211.5t-146.5 528.5zM387 717q0 -223 79 -354.5t212 -131.5q135 0 214 131.5t79 354.5t-80 354t-213 131t-212 -131t-79 -354z" glyph-name="zero" horiz-adv-x="1357" unicode="0"/><glyph d="M72 963v282l342 189h217v-1434h-271v1120z" glyph-name="one" horiz-adv-x="813" unicode="1"/><glyph d="M1104 250v-250h-995v211q420 332 563 509t143 290q0 90 -58.5 143t-148.5 53q-98 0 -162.5 -61.5t-64.5 -192.5v-22h-268v28q0 168 77.5 285t187 165t234.5 48q201 0 341.5 -121t140.5 -317q0 -170 -126 -348t-421 -420h557z" glyph-name="two" horiz-adv-x="1218" unicode="2"/><glyph d="M66 111l114 229q233 -115 383 -115q109 0 175.5 48.5t66.5 127.5q0 92 -104.5 146.5t-305.5 54.5v238q190 0 280.5 63.5t90.5 149.5q0 76 -57.5 118.5t-139.5 42.5q-86 0 -145 -46t-59 -119v-11h-267v31q0 176 139.5 281.5t329.5 105.5q193 0 333 -106.5t140 -282.5 q0 -229 -233 -338q274 -94 274 -342q0 -186 -142 -298t-374 -112q-253 1 -499 134z" glyph-name="three" horiz-adv-x="1191" unicode="3"/><glyph d="M1008 0h-265v285h-669v198l356 951h295l-352 -906h370v406l265 82v-488h198v-243h-198v-285z" glyph-name="four" horiz-adv-x="1273" unicode="4"/><glyph d="M80 111l115 229q225 -115 383 -115q115 0 177 52.5t62 142.5q0 100 -94 162.5t-303 62.5h-230v789h818v-250h-551v-297h53q289 0 437.5 -131t148.5 -338q0 -199 -135.5 -320t-380.5 -121q-254 1 -500 134z" glyph-name="five" horiz-adv-x="1191" unicode="5"/><glyph d="M977 1434l-361 -461q41 4 62 4q199 0 331 -135t132 -346q0 -221 -149.5 -370t-370.5 -149q-223 0 -374 146.5t-151 363.5q0 199 162 424l379 523h340zM621 752q-111 0 -183.5 -77t-72.5 -188q0 -113 71.5 -187.5t179.5 -74.5q111 0 183.5 75t72.5 187q0 115 -71 190 t-180 75z" glyph-name="six" horiz-adv-x="1228" unicode="6"/><glyph d="M68 1178v256h944v-217l-555 -1217h-314l559 1178h-634z" glyph-name="seven" horiz-adv-x="1073" unicode="7"/><glyph d="M1182 410q0 -201 -155 -317t-384 -116q-227 0 -382 116t-155 317q0 242 230 350q-176 98 -176 303q0 182 141 287.5t344 105.5t343 -105.5t140 -287.5q0 -205 -178 -303q232 -108 232 -350zM907 426q0 96 -74.5 158.5t-189.5 62.5t-188.5 -62.5t-73.5 -158.5 q0 -94 72.5 -153.5t189.5 -59.5q119 0 191.5 59.5t72.5 153.5zM864 1046.5q0 77.5 -60.5 128t-158.5 50.5q-100 0 -160.5 -50.5t-60.5 -128t62.5 -130t158.5 -52.5q94 0 156.5 52.5t62.5 130z" glyph-name="eight" horiz-adv-x="1288" unicode="8"/><glyph d="M252 0l360 461q-41 -4 -61 -4q-199 0 -331 135t-132 346q0 221 149.5 369.5t370.5 148.5q223 0 374 -146.5t151 -363.5q0 -199 -162 -424l-379 -522h-340zM608 682q111 0 183.5 77t72.5 187q0 113 -71.5 187.5t-180.5 74.5q-111 0 -183.5 -74.5t-72.5 -187.5 q0 -115 71.5 -189.5t180.5 -74.5z" glyph-name="nine" horiz-adv-x="1228" unicode="9"/><glyph d="M123 143.5q0 67.5 50 115.5t118 48q70 0 119 -47t49 -116.5t-49.5 -118t-118.5 -48.5q-68 0 -118 49.5t-50 117zM123 868.5q0 67.5 50 115.5t118 48q70 0 119 -47t49 -116.5t-49.5 -118t-118.5 -48.5q-68 0 -118 49.5t-50 117z" glyph-name="colon" horiz-adv-x="583" unicode=":"/><glyph d="M295 -395l-123 106q162 158 162 273q-74 -23 -136.5 23t-62.5 126q0 68 47 118t125 50q84 0 146.5 -65.5t62.5 -188.5q0 -127 -65.5 -245.5t-155.5 -196.5zM133 868.5q0 67.5 50 115.5t118 48q70 0 119 -47t49 -116.5t-49 -118t-119 -48.5q-68 0 -118 49.5t-50 117z" glyph-name="semicolon" horiz-adv-x="634" unicode=";"/><glyph d="M80 559v227l805 388v-273l-512 -229l512 -228v-272z" glyph-name="less" horiz-adv-x="1030" unicode="&lt;"/><glyph d="M150 782v230h806v-230h-806zM150 332v231h806v-231h-806z" glyph-name="equal" horiz-adv-x="1105" unicode="="/><glyph d="M950 784v-227l-805 -387v272l512 230l-512 227v272z" glyph-name="greater" horiz-adv-x="1030" unicode=">"/><glyph d="M322 135q0 63 47 109.5t112.5 46.5t112.5 -46t47 -110q0 -66 -47 -112t-112.5 -46t-112.5 46t-47 112zM606 453h-248v65q0 104 48.5 182t144.5 154q12 10 48 37t50.5 40t36 36.5t29.5 47t8 52.5q0 68 -51 110t-127 42q-92 0 -151.5 -56.5t-59.5 -150.5v-15h-264v31 q0 205 143 319.5t340 114.5q190 0 317 -105.5t127 -283.5q0 -123 -58 -202.5t-165 -159.5q-63 -47 -92 -73t-52.5 -64.5t-23.5 -81.5v-39z" glyph-name="question" horiz-adv-x="1077" unicode="?"/><glyph d="M852 934q137 0 233 -90v74h209v-465q0 -106 35 -155.5t88 -49.5q70 0 117 84t47 221q0 293 -185.5 482.5t-474 189.5t-478 -197t-189.5 -493q0 -295 190.5 -494t477.5 -199q238 0 411 140l84 -113q-215 -164 -497 -164q-350 0 -586 236.5t-236 593.5q0 358 234.5 596.5 t587.5 238.5q350 0 584.5 -234.5t234.5 -578.5q0 -223 -99.5 -341t-242.5 -118q-188 0 -269 170q-96 -133 -272 -133q-162 0 -264.5 112.5t-102.5 284.5q0 174 101.5 288t261.5 114zM1090 534.5q0 94.5 -55.5 157t-139.5 62.5t-138.5 -62.5t-54.5 -159.5q0 -92 54.5 -154.5 t138.5 -62.5t139.5 62.5t55.5 157z" glyph-name="at" horiz-adv-x="1847" unicode="@"/><glyph d="M610 1434h299l594 -1434h-293l-102 258h-698l-101 -258h-295zM760 1143l-254 -643h508z" glyph-name="A" horiz-adv-x="1519" unicode="A"/><glyph d="M184 0v1434h695q215 0 331.5 -110t116.5 -280q0 -215 -176 -307q115 -43 179.5 -131t64.5 -213q0 -176 -119 -284.5t-332 -108.5h-760zM911 616h-458v-378h460q94 0 148.5 52t54.5 132t-55.5 137t-149.5 57zM856 1196h-403v-350h428q74 0 121 51t47 127q0 74 -52.5 123 t-140.5 49z" glyph-name="B" horiz-adv-x="1499" unicode="B"/><glyph d="M1241 553l262 -84q-72 -219 -254 -355.5t-422 -136.5q-309 0 -517 212t-208 527.5t208 527.5t517 212q240 0 422.5 -137t253.5 -356l-262 -82q-47 143 -158.5 230t-255.5 87q-190 0 -316 -137t-126 -344t126 -344t316 -137q143 0 255 87t159 230z" glyph-name="C" horiz-adv-x="1576" unicode="C"/><glyph d="M184 0v1434h600q322 0 505.5 -197t183.5 -520.5t-184.5 -520t-504.5 -196.5h-600zM766 1184h-313v-934h313q211 0 318.5 125t107.5 342t-107.5 342t-318.5 125z" glyph-name="D" horiz-adv-x="1579" unicode="D"/><glyph d="M184 0v1434h1063v-250h-794v-344h643v-242h-643v-348h794v-250h-1063z" glyph-name="E" horiz-adv-x="1353" unicode="E"/><glyph d="M184 0v1434h1024v-254h-755v-410h686v-250h-686v-520h-269z" glyph-name="F" horiz-adv-x="1298" unicode="F"/><glyph d="M791 561v232h704v-793h-223v211q-150 -233 -467 -234q-307 0 -504 211t-197 529q0 315 208 527t517 212q195 0 351.5 -91t253.5 -247l-226 -143q-61 104 -159.5 164.5t-217.5 60.5q-190 0 -317 -138t-127 -345q0 -209 121 -346.5t313 -137.5q141 0 253 84t151 244h-434z " glyph-name="G" horiz-adv-x="1624" unicode="G"/><glyph d="M1202 1434h271v-1434h-271v592h-749v-592h-269v1434h269v-592h749v592z" glyph-name="H" horiz-adv-x="1654" unicode="H"/><glyph d="M184 1434h271v-1434h-271v1434z" glyph-name="I" horiz-adv-x="638" unicode="I"/><glyph d="M307 1180v254h881v-902q0 -244 -147.5 -399.5t-407.5 -155.5t-407.5 156t-147.5 399v170h268v-141q0 -154 76 -241t211 -87t210 87.5t75 240.5v619h-611z" glyph-name="J" horiz-adv-x="1353" unicode="J"/><glyph d="M1143 0l-398 592h-290v-592h-271v1434h271v-592h282l373 592h309l-446 -713l485 -721h-315z" glyph-name="K" horiz-adv-x="1474" unicode="K"/><glyph d="M184 0v1434h269v-1180h745v-254h-1014z" glyph-name="L" horiz-adv-x="1255" unicode="L"/><glyph d="M453 0h-269v1434h277l491 -918l494 918h278v-1434h-270v944l-399 -743h-201l-401 745v-946z" glyph-name="M" horiz-adv-x="1908" unicode="M"/><glyph d="M453 0h-269v1434h275l749 -1014v1014h269v-1434h-273l-751 1012v-1012z" glyph-name="N" horiz-adv-x="1660" unicode="N"/><glyph d="M102 716.5q0 317.5 209 528.5t525 211q313 0 522 -211t209 -528.5t-209 -528.5t-522 -211q-315 0 -524.5 211t-209.5 528.5zM385 717q0 -207 129 -345.5t321.5 -138.5t320.5 138.5t128 345.5t-128 344t-320.5 137t-321.5 -137t-129 -344z" glyph-name="O" unicode="O"/><glyph d="M184 0v1434h607q266 0 414.5 -152t148.5 -379q0 -229 -149.5 -380.5t-413.5 -151.5h-338v-371h-269zM453 618h282q340 0 340 285q0 283 -340 283h-282v-568z" glyph-name="P" horiz-adv-x="1441" unicode="P"/><glyph d="M102 717q0 317 209 528t525 211q313 0 522 -211t209 -528q0 -233 -117 -414.5t-315 -265.5q197 -176 368 -176q102 0 191 61l116 -217q-123 -94 -294 -94q-109 0 -214.5 35t-191.5 92t-147.5 109.5t-120.5 107.5l-25 25q-309 6 -512 215t-203 522zM385 717 q0 -207 129 -345.5t321.5 -138.5t320.5 138.5t128 345.5t-128 344t-320.5 137t-321.5 -137t-129 -344z" glyph-name="Q" unicode="Q"/><glyph d="M184 0v1434h643q248 0 387.5 -141.5t139.5 -352.5q0 -147 -71 -265t-200 -177l344 -498h-321l-305 446h-348v-446h-269zM453 692h329q147 0 219 65.5t72 182.5q0 115 -71.5 180.5t-219.5 65.5h-329v-494z" glyph-name="R" horiz-adv-x="1495" unicode="R"/><glyph d="M104 371l269 69q33 -227 342 -227q135 0 208.5 44t73.5 120q0 27 -9 50.5t-34.5 41.5t-44 31.5t-63.5 29t-65.5 22.5t-76 22.5t-71.5 19.5q-246 70 -379 172t-133 289q0 184 147.5 292.5t393.5 108.5q252 0 413.5 -114.5t161.5 -325.5v-31h-268v10q0 111 -83 167.5 t-227 56.5q-125 0 -192.5 -44.5t-67.5 -117.5q0 -37 18.5 -66.5t43 -49t74 -40t83 -32t101.5 -29.5q78 -23 127 -38.5t114.5 -41t105.5 -49t85 -58.5t68.5 -72.5t40 -89t16.5 -112.5q0 -193 -152.5 -297.5t-412.5 -104.5q-250 0 -416 100.5t-191 293.5z" glyph-name="S" horiz-adv-x="1378" unicode="S"/><glyph d="M57 1180v254h1205v-254h-467v-1180h-271v1180h-467z" glyph-name="T" horiz-adv-x="1318" unicode="T"/><glyph d="M1171 1434h271v-828q0 -276 -169 -452.5t-472 -176.5q-301 0 -469 176.5t-168 452.5v828h270v-803q0 -193 96.5 -295.5t270.5 -102.5q178 0 274 102.5t96 295.5v803z" glyph-name="U" horiz-adv-x="1605" unicode="U"/><glyph d="M891 0h-299l-572 1434h297l424 -1104l424 1104h297z" glyph-name="V" horiz-adv-x="1482" unicode="V"/><glyph d="M774 0h-313l-408 1434h289l289 -1051l307 1051h289l305 -1051l291 1051h288l-407 -1434h-315l-308 1055z" glyph-name="W" horiz-adv-x="2164" unicode="W"/><glyph d="M1419 1434l-491 -715l512 -719h-340l-371 539l-369 -539h-340l512 719l-491 715h336l352 -549l354 549h336z" glyph-name="X" horiz-adv-x="1460" unicode="X"/><glyph d="M336 1434l395 -660l395 660h328l-588 -934v-500h-270v500l-586 934h326z" glyph-name="Y" horiz-adv-x="1464" unicode="Y"/><glyph d="M113 1180v254h1157v-226l-815 -954h815v-254h-1182v225l815 955h-790z" glyph-name="Z" horiz-adv-x="1368" unicode="Z"/><glyph d="M721 -131v-236h-547v1801h547v-236h-283v-1329h283z" glyph-name="bracketleft" horiz-adv-x="794" unicode="["/><glyph d="M59 1434h256l641 -1434h-258z" glyph-name="backslash" horiz-adv-x="1011" unicode="\"/><glyph d="M74 -367v236h282v1329h-282v236h547v-1801h-547z" glyph-name="bracketright" horiz-adv-x="794" unicode="]"/><glyph d="M430 1434h229l342 -742h-266l-190 457l-191 -457h-264z" glyph-name="asciicircum" horiz-adv-x="1089" unicode="^"/><glyph d="M1022 -152v-221h-1022v221h1022z" glyph-name="underscore" horiz-adv-x="1021" unicode="_"/><glyph d="M461 1591l-191 -78l-280 312l194 155z" glyph-name="grave" horiz-adv-x="616" unicode="`"/><glyph d="M240 741l-107 201q188 115 420 115q481 0 481 -496v-561h-258v121q-139 -143 -323 -144q-166 0 -265.5 88.5t-99.5 243.5q0 164 109.5 256t291.5 92q145 0 287 -61q-8 236 -244 235q-130 0 -292 -90zM516 172q150 0 260 139v115q-111 53 -227 53q-92 0 -145.5 -42 t-53.5 -115q0 -72 47 -111t119 -39z" glyph-name="a" horiz-adv-x="1167" unicode="a"/><glyph d="M412 1434v-539q119 162 333 162q211 0 342.5 -153.5t131.5 -387.5q0 -231 -131.5 -385t-342.5 -154q-215 0 -333 162v-139h-265v1434h265zM406 516q0 -129 76.5 -215t195.5 -86t195.5 86t76.5 215q0 131 -76.5 217t-195.5 86t-195.5 -86t-76.5 -217z" glyph-name="b" horiz-adv-x="1312" unicode="b"/><glyph d="M877 412l243 -76q-55 -162 -187 -260.5t-308 -98.5q-229 0 -380 155t-151 384q0 231 150.5 386t380.5 155q176 0 308 -97.5t187 -259.5l-243 -75q-68 195 -252 194q-119 0 -193 -85t-74 -218q0 -131 74 -216t193 -85q90 0 155.5 52.5t96.5 144.5z" glyph-name="c" horiz-adv-x="1189" unicode="c"/><glyph d="M901 899v535h266v-1434h-266v135q-119 -158 -332 -158q-211 0 -342 154t-131 385q0 233 131 387t342 154q213 0 332 -158zM907 516q0 131 -76.5 217t-195.5 86t-194.5 -85t-75.5 -218q0 -129 76.5 -215t193.5 -86q119 0 195.5 86t76.5 215z" glyph-name="d" horiz-adv-x="1312" unicode="d"/><glyph d="M924 317l141 -174q-166 -166 -420 -166t-402.5 156t-148.5 385q0 231 147.5 385t370.5 154q227 0 367.5 -152.5t140.5 -349.5q0 -63 -12 -117h-741q23 -109 97.5 -171t192.5 -62q152 -1 267 112zM616.5 834q-94.5 0 -160 -56.5t-87.5 -152.5h485q-18 92 -80.5 150.5 t-157 58.5z" glyph-name="e" horiz-adv-x="1208" unicode="e"/><glyph d="M53 801v235h187v45q0 205 96 303.5t262 98.5q135 0 266 -56l-59 -206q-86 33 -154 32q-72 0 -109.5 -36.5t-37.5 -133.5v-47h317v-235h-317v-801h-264v801h-187z" glyph-name="f" horiz-adv-x="856" unicode="f"/><glyph d="M96 547q0 223 124 366.5t329 143.5q207 0 325 -156v135h267v-872q0 -299 -139.5 -435.5t-368.5 -136.5q-285 0 -500 183l135 200q190 -152 340 -151q266 0 266 305v61q-121 -154 -325.5 -153.5t-328.5 144t-124 366.5zM362 547q0 -119 73 -197t185.5 -78t186.5 77t74 198 t-74 197.5t-186.5 76.5t-185.5 -77.5t-73 -196.5z" glyph-name="g" horiz-adv-x="1286" unicode="g"/><glyph d="M868 0v588q0 121 -54 176t-140 55q-115 0 -188.5 -84t-73.5 -194v-541h-265v1434h265v-545q115 168 340 168q172 0 276.5 -106.5t104.5 -325.5v-625h-265z" glyph-name="h" horiz-adv-x="1265" unicode="h"/><glyph d="M147 0v1036h265v-1036h-265zM278.5 1165q-67.5 0 -115.5 47.5t-48 115t48 114.5t115.5 47t115.5 -47t48 -114.5t-48 -115t-115.5 -47.5z" glyph-name="i" horiz-adv-x="559" unicode="i"/><glyph d="M-33 -385l37 223q35 -10 66 -10q90 0 90 113v1095h266v-1116q0 -160 -84 -241.5t-231 -81.5q-76 0 -144 18zM293 1165q-70 0 -117 47.5t-47 115t47 114.5t117 47q68 0 116 -47t48 -114.5t-48 -115t-116 -47.5z" glyph-name="j" horiz-adv-x="571" unicode="j"/><glyph d="M852 0l-246 403h-194v-403h-265v1434h265v-801h190l225 403h287l-289 -510l326 -526h-299z" glyph-name="k" horiz-adv-x="1185" unicode="k"/><glyph d="M147 0v1434h265v-1434h-265z" glyph-name="l" horiz-adv-x="559" unicode="l"/><glyph d="M1501 0v606q0 111 -51 162t-129 51q-100 0 -167 -75.5t-67 -178.5v-565h-264v606q0 111 -51 162t-127 51q-102 0 -167.5 -76.5t-65.5 -177.5v-565h-265v1036h265v-159q96 180 319 180t311 -187q115 186 353 187q170 0 270 -103.5t100 -310.5v-643h-264z" glyph-name="m" horiz-adv-x="1900" unicode="m"/><glyph d="M868 0v588q0 121 -54 176t-140 55q-115 0 -188.5 -84t-73.5 -194v-541h-265v1036h265v-147q115 168 340 168q172 0 276.5 -106.5t104.5 -325.5v-625h-265z" glyph-name="n" horiz-adv-x="1265" unicode="n"/><glyph d="M94 516q0 231 153.5 386t385 155t385 -154.5t153.5 -386.5q0 -229 -153.5 -384t-385 -155t-385 155t-153.5 384zM358 516q0 -129 77 -215t198 -86t196.5 85t75.5 216q0 133 -75.5 218t-196.5 85t-197 -85t-78 -218z" glyph-name="o" horiz-adv-x="1265" unicode="o"/><glyph d="M412 139v-506h-265v1403h265v-141q119 162 333 162q211 0 342.5 -152.5t131.5 -386t-131.5 -387.5t-342.5 -154q-214 0 -333 162zM406 518q0 -131 76.5 -217t195.5 -86t195.5 86t76.5 217t-76.5 216t-195.5 85t-195.5 -85t-76.5 -216z" glyph-name="p" horiz-adv-x="1312" unicode="p"/><glyph d="M901 -367v502q-119 -158 -332 -158q-211 0 -342 154t-131 387.5t131 386t342 152.5q213 0 332 -158v137h266v-1403h-266zM907 518q0 131 -76.5 216t-195.5 85t-194.5 -85t-75.5 -216t75.5 -217t194.5 -86t195.5 86t76.5 217z" glyph-name="q" horiz-adv-x="1312" unicode="q"/><glyph d="M412 1036v-366q47 145 149.5 258.5t249.5 128.5v-309q-152 -23 -275.5 -138.5t-123.5 -261.5v-348h-265v1036h265z" glyph-name="r" horiz-adv-x="864" unicode="r"/><glyph d="M92 250l248 76q35 -141 221 -142q180 0 180 90q0 18 -8 35t-26.5 29t-36 21.5t-47 17.5t-50 13t-53.5 13.5t-49 12.5q-176 45 -273.5 120.5t-97.5 211.5q0 145 115 227t309 82q197 0 326 -86t129 -242v-12h-256v4q0 61 -51 95t-144 34q-80 0 -121.5 -26.5t-41.5 -67.5 q0 -14 4 -25.5t13 -22t18.5 -18.5t26.5 -15t31.5 -12.5t38 -12.5t40 -11t45 -11t45.5 -12q68 -18 112.5 -32.5t100 -42t88.5 -59t55.5 -82t22.5 -113.5q0 -152 -118 -231t-321 -79q-193 0 -318.5 70t-156.5 203z" glyph-name="s" horiz-adv-x="1097" unicode="s"/><glyph d="M45 801v235h186v271l265 88v-359h344v-235h-344v-414q0 -168 133 -168q68 0 172 57l88 -215q-133 -84 -299 -84q-358 0 -359 426v398h-186z" glyph-name="t" horiz-adv-x="911" unicode="t"/><glyph d="M399 1036v-587q0 -121 55.5 -177.5t139.5 -56.5q115 0 188.5 85t73.5 196v540h264v-1036h-264v147q-115 -170 -340 -170q-172 0 -276.5 108t-104.5 327v624h264z" glyph-name="u" horiz-adv-x="1265" unicode="u"/><glyph d="M731 0h-289l-409 1036h289l264 -745l266 745h289z" glyph-name="v" horiz-adv-x="1171" unicode="v"/><glyph d="M664 0h-316l-295 1036h283l182 -741l209 741h279l206 -741l185 741h282l-295 -1036h-315l-205 721z" glyph-name="w" horiz-adv-x="1732" unicode="w"/><glyph d="M1124 1036l-362 -518l375 -518h-322l-231 346l-232 -346h-323l379 518l-365 518h313l228 -344l227 344h313z" glyph-name="x" horiz-adv-x="1169" unicode="x"/><glyph d="M176 -426l-98 240q240 80 356 204l-401 1018h289l262 -741l268 741h289l-359 -897q-190 -479 -606 -565z" glyph-name="y" horiz-adv-x="1169" unicode="y"/><glyph d="M98 799v237h865v-184l-514 -616h514v-236h-865v182l512 617h-512z" glyph-name="z" horiz-adv-x="1058" unicode="z"/><glyph d="M49 416v233h60q94 0 137 51.5t43 159.5v252q0 143 85 232.5t251 89.5h166v-236h-95q-84 0 -113.5 -42t-29.5 -120v-170q0 -141 -28.5 -219t-123.5 -115q94 -35 123 -112.5t29 -218.5v-170q0 -80 29.5 -121t113.5 -41h95v-236h-166q-166 0 -251 88.5t-85 233.5v252 q0 109 -42 159t-138 50h-60z" glyph-name="braceleft" horiz-adv-x="866" unicode="{"/><glyph d="M176 1507h207v-1874h-207v1874z" glyph-name="bar" horiz-adv-x="559" unicode="|"/><glyph d="M817 649v-233h-59q-96 0 -138 -50.5t-42 -158.5v-252q0 -145 -85 -233.5t-251 -88.5h-166v236h94q84 0 113.5 41t29.5 121v170q0 141 29 219t123 112q-94 37 -123 115t-29 219v170q0 78 -29.5 120t-113.5 42h-94v236h166q166 0 251 -89.5t85 -232.5v-252q0 -109 43 -160 t137 -51h59z" glyph-name="braceright" horiz-adv-x="866" unicode="}"/><glyph d="M348 418h-209q-10 150 50.5 244t177.5 94q98 0 188 -94q12 -12 26.5 -30t22.5 -26t17.5 -15t17.5 -7q45 0 37 137h209q10 -150 -50.5 -244t-177.5 -94q-98 0 -188 94q-12 12 -26.5 29.5t-22.5 26t-17.5 15.5t-17.5 7q-45 0 -37 -137z" glyph-name="asciitilde" horiz-adv-x="1019" unicode="~"/><glyph glyph-name="uni00A0" horiz-adv-x="512" unicode=" "/><glyph d="M442 -397h-313l66 972h182zM444 903.5q0 -63.5 -46 -109.5t-111.5 -46t-111.5 46t-46 109.5t46 109.5t111.5 46t111.5 -46t46 -109.5z" glyph-name="exclamdown" horiz-adv-x="571" unicode="¡"/><glyph d="M489 0v221q-176 35 -284.5 172t-108.5 323.5t108.5 323t284.5 170.5v224h224v-224q127 -29 219 -113.5t135 -207.5l-236 -74q-27 82 -88 130t-145 48q-109 0 -176.5 -77.5t-67.5 -198.5t67.5 -199t176.5 -78q84 0 145.5 48.5t87.5 129.5l236 -73q-41 -125 -134 -210 t-220 -112v-223h-224z" glyph-name="cent" horiz-adv-x="1153" unicode="¢"/><glyph d="M141 0v193q164 133 164 327q0 6 -2 23h-192v225h133q-80 193 -80 301q0 176 119.5 281.5t300.5 105.5q184 0 312 -113.5t128 -318.5v-31h-254v19q0 104 -48 155.5t-124 51.5q-74 0 -121 -49.5t-47 -131.5q0 -31 8 -67.5t17.5 -61t29 -71.5t27.5 -70h330v-225h-283v-6 q0 -168 -108 -299h561v-238h-871z" glyph-name="sterling" horiz-adv-x="1130" unicode="£"/><glyph d="M121 377l145 149q-49 88 -49 191q0 100 49 188l-145 152l162 160l151 -158q84 39 174 39t172 -39l154 158l162 -160l-146 -150q51 -90 51 -190q0 -104 -51 -191l146 -149l-162 -160l-154 156q-76 -37 -172 -37q-94 0 -174 37l-151 -156zM453 716.5q0 -71.5 45 -119.5 t110 -48q68 0 112 48t44 119.5t-44 120t-112 48.5q-66 0 -110.5 -48.5t-44.5 -120z" glyph-name="currency" horiz-adv-x="1218" unicode="¤"/><glyph d="M633 817l272 617h293l-348 -719h246v-209h-330v-105h330v-208h-330v-193h-264v193h-332v208h332v105h-332v209h248l-348 719h292z" glyph-name="yen" horiz-adv-x="1267" unicode="¥"/><glyph d="M176 1507h207v-811h-207v811zM176 438h207v-805h-207v805z" glyph-name="brokenbar" horiz-adv-x="559" unicode="¦"/><glyph d="M119 731q0 133 114 215q-106 84 -106 215q0 137 109.5 216t293.5 79q188 0 311.5 -86t123.5 -242v-16h-238v12q0 68 -51 105t-137 37q-76 0 -119 -27t-43 -72q0 -29 14.5 -50t53 -38.5t60 -24.5t83.5 -24q10 -2 14 -4q68 -18 114 -32.5t102 -42t91 -59.5t58.5 -81 t23.5 -109q0 -133 -114 -215q106 -86 106 -215q0 -137 -109.5 -216t-293.5 -79q-172 0 -288 71t-140 208l233 63q8 -74 59.5 -112.5t126.5 -38.5q78 0 120 27.5t42 72.5q0 55 -51 82t-156 53q-12 2 -18 5q-84 20 -141.5 41.5t-120 58.5t-95 93t-32.5 130zM621 600l51 -14 q74 31 73 96q0 20 -7 38.5t-24.5 32t-32.5 22.5t-44 18.5t-47.5 14.5t-51 13t-49.5 13l-53 14q-72 -31 -71 -96q0 -25 12 -45.5t27.5 -32.5t47 -24.5t52 -18.5t61 -16.5t56.5 -14.5z" glyph-name="section" horiz-adv-x="1112" unicode="§"/><glyph d="M25 1694q0 61 42 103t105.5 42t105 -42t41.5 -103q0 -63 -41.5 -105.5t-105 -42.5t-105.5 42.5t-42 105.5zM414 1694q0 61 42 103t105 42q61 0 104.5 -42t43.5 -103q0 -63 -43 -105.5t-105 -42.5q-63 0 -105 42.5t-42 105.5z" glyph-name="dieresis" horiz-adv-x="755" unicode="¨"/><glyph d="M1020 645l151 -53q-37 -111 -126 -177.5t-207 -66.5q-156 0 -258.5 105.5t-102.5 263t102.5 263t258.5 105.5q119 0 208 -66.5t125 -176.5l-151 -54q-23 63 -70 100.5t-112 37.5q-84 0 -138.5 -60.5t-54.5 -148.5q0 -90 54.5 -149.5t138.5 -59.5q66 0 112.5 37t69.5 100z M100 717q0 309 212 524t515 215t514 -216t211 -523q0 -309 -211 -524.5t-514 -215.5t-515 215.5t-212 524.5zM254 717q0 -248 166 -420t407.5 -172t408.5 172t167 420t-167 420t-408.5 172t-407.5 -172t-166 -420z" glyph-name="copyright" horiz-adv-x="1654" unicode="©"/><glyph d="M215 1192l-82 160q133 82 299 82q342 0 342 -344v-388h-205v74q-92 -88 -219 -88q-109 0 -179.5 61.5t-70.5 170.5q0 113 78 176t209 63q92 0 180 -39q-14 133 -149 133q-94 0 -203 -61zM408 838q94 0 161 90v57q-70 37 -141 37q-125 0 -125 -94q0 -43 28 -66.5t77 -23.5 z" glyph-name="ordfeminine" horiz-adv-x="909" unicode="ª"/><glyph d="M371 532l204 -294l-182 -138l-315 432l315 435l182 -138zM862 532l205 -294l-182 -138l-316 432l316 435l182 -138z" glyph-name="guillemotleft" horiz-adv-x="1173" unicode="«"/><glyph d="M913 365v352h-788v229h1014v-581h-226z" glyph-name="logicalnot" horiz-adv-x="1290" unicode="¬"/><glyph d="M106 993.5q0 192.5 134.5 327.5t327 135t326.5 -135t134 -327.5t-135 -328t-325.5 -135.5t-326 135.5t-135.5 328zM211 993.5q0 -149.5 103.5 -253t253 -103.5t253 103.5t103.5 253t-103.5 253t-253 103.5t-253 -103.5t-103.5 -253zM397 1210h205q76 0 118 -43t42 -108 q0 -102 -86 -139l100 -140h-102l-90 127h-97v-127h-90v430zM596 1130h-109v-141h109q35 0 56.5 20.5t21.5 49.5q0 31 -21.5 51t-56.5 20z" glyph-name="registered" horiz-adv-x="1134" unicode="®"/><glyph d="M635 1802v-215h-590v215h590z" glyph-name="macron" horiz-adv-x="704" unicode="¯"/><glyph d="M88 1099.5q0 147.5 104.5 252t256 104.5t256 -104.5t104.5 -252t-104.5 -251t-256 -103.5t-256 103.5t-104.5 251zM303 1100q0 -63 41 -105.5t104.5 -42.5t105.5 42t42 105.5t-42 106.5t-105.5 43t-104.5 -41.5t-41 -107.5z" glyph-name="degree" horiz-adv-x="899" unicode="°"/><glyph d="M147 975h287v303h232v-303h286v-232h-286v-303h-232v303h-287v232zM952 326v-232h-805v232h805z" glyph-name="plusminus" horiz-adv-x="1099" unicode="±"/><glyph d="M672 782v-188h-590v149q381 289 381 424q0 43 -24.5 69t-61.5 26q-41 0 -71 -29t-30 -90v-15h-198v17q0 152 90 226.5t213 74.5q121 0 205 -71.5t84 -188.5q0 -186 -238 -404h240z" glyph-name="uni00B2" horiz-adv-x="755" unicode="²"/><glyph d="M61 662l89 167q123 -61 204 -61q111 0 111 74q0 92 -205 92v158q184 0 184 108q0 35 -22.5 54.5t-56.5 19.5q-90 0 -91 -82v-6h-196v20q0 113 85 176.5t201.5 63.5t200.5 -63.5t84 -174.5q0 -123 -114 -188q137 -57 137 -193q0 -111 -85 -178t-227 -67q-154 0 -299 80z " glyph-name="uni00B3" horiz-adv-x="747" unicode="³"/><glyph d="M322 1513l-193 78l277 389l194 -155z" glyph-name="acute" horiz-adv-x="610" unicode="´"/><glyph d="M436 1036v-583q0 -119 57.5 -177.5t145.5 -58.5q109 0 181.5 83t72.5 194v542h264v-1036h-264v145q-113 -168 -334 -168q-61 0 -123 17v-361h-264v1403h264z" glyph-name="uni00B5" horiz-adv-x="1327" unicode="µ"/><glyph d="M614 0v467h-36q-238 0 -370 138t-132 345q0 205 132 344.5t370 139.5h622v-1434h-235v1210h-115v-1210h-236zM322 950q0 -115 66.5 -187.5t193.5 -72.5h32v520h-32q-127 0 -193.5 -73.5t-66.5 -186.5z" glyph-name="paragraph" horiz-adv-x="1386" unicode="¶"/><glyph d="M117 598q0 68 50 116t118 48q70 0 119 -47t49 -117t-49.5 -118t-118.5 -48q-68 0 -118 49t-50 117z" glyph-name="periodcentered" horiz-adv-x="567" unicode="·"/><glyph d="M205 12h135l-39 -102q90 -16 138 -72.5t48 -136.5q0 -96 -68.5 -157.5t-191.5 -61.5q-121 0 -231 55l80 178q74 -43 135 -43q82 0 82 54q0 70 -123 61l-39 59z" glyph-name="cedilla" horiz-adv-x="503" unicode="¸"/><glyph d="M213 594v596l-152 -82v215l203 111h156v-840h-207z" glyph-name="uni00B9" horiz-adv-x="538" unicode="¹"/><glyph d="M90 1061q0 160 108.5 266.5t272.5 106.5t272.5 -106.5t108.5 -266.5t-108.5 -266.5t-272.5 -106.5t-272.5 106.5t-108.5 266.5zM301 1061q0 -82 48 -133t122 -51t122 51t48 133t-48 133t-122 51t-122 -51t-48 -133z" glyph-name="ordmasculine" horiz-adv-x="942" unicode="º"/><glyph d="M311 537l-205 294l183 138l315 -432l-315 -435l-183 138zM803 537l-205 294l182 138l316 -432l-316 -435l-182 138z" glyph-name="guillemotright" horiz-adv-x="1173" unicode="»"/><glyph d="M406 0h-199l938 1434h198zM233 594v596l-151 -82v215l203 111h155v-840h-207zM1538 0h-199v156h-374v145l196 539h217l-192 -500h153v203l199 55v-258h104v-184h-104v-156z" glyph-name="onequarter" horiz-adv-x="1703" unicode="¼"/><glyph d="M401 0h-198l938 1434h198zM227 594v596l-151 -82v215l203 111h155v-840h-207zM1593 188v-188h-589v150q381 289 380 423q0 43 -24.5 69t-61.5 26q-41 0 -70.5 -29t-29.5 -90v-14h-199v16q0 152 90.5 226.5t213.5 74.5q121 0 204.5 -71.5t83.5 -188.5q0 -186 -237 -404 h239z" glyph-name="onehalf" horiz-adv-x="1683" unicode="½"/><glyph d="M561 0h-199l938 1434h199zM1692 0h-199v156h-375v145l197 539h217l-193 -500h154v203l199 55v-258h104v-184h-104v-156zM82 662l88 167q123 -61 205 -61q111 0 110 74q0 92 -204 92v158q184 0 184 108q0 35 -22.5 54.5t-57.5 19.5q-90 0 -90 -82v-6h-197v20 q0 113 85 176.5t202 63.5t201 -63.5t84 -174.5q0 -123 -115 -188q137 -57 137 -193q0 -111 -85 -178t-226 -67q-154 0 -299 80z" glyph-name="threequarters" horiz-adv-x="1857" unicode="¾"/><glyph d="M745 901q0 -63 -47 -109.5t-112.5 -46.5t-112.5 46.5t-47 109.5q0 66 47 112t112.5 46t112.5 -46t47 -112zM461 584h248v-66q0 -104 -48.5 -182t-144.5 -154q-12 -10 -48 -36.5t-50.5 -40t-36 -37t-29.5 -47t-8 -52.5q0 -68 51 -109.5t127 -41.5q92 0 151.5 56t59.5 151 v14h264v-31q0 -205 -143 -319.5t-340 -114.5q-190 0 -317 105.5t-127 283.5q0 123 58 203t165 160q63 47 92 72.5t52.5 64.5t23.5 82v39z" glyph-name="questiondown" horiz-adv-x="1060" unicode="¿"/><glyph d="M610 1434h299l594 -1434h-293l-102 258h-698l-101 -258h-295zM760 1143l-254 -643h508zM938 1591l-190 -78l-281 312l195 155z" glyph-name="Agrave" horiz-adv-x="1519" unicode="À"/><glyph d="M610 1434h299l594 -1434h-293l-102 258h-698l-101 -258h-295zM760 1143l-254 -643h508zM776 1513l-192 78l276 389l195 -155z" glyph-name="Aacute" horiz-adv-x="1519" unicode="Á"/><glyph d="M610 1434h299l594 -1434h-293l-102 258h-698l-101 -258h-295zM760 1143l-254 -643h508zM1098 1679l-127 -157l-211 145l-211 -145l-129 157l340 242z" glyph-name="Acircumflex" horiz-adv-x="1519" unicode="Â"/><glyph d="M610 1434h299l594 -1434h-293l-102 258h-698l-101 -258h-295zM760 1143l-254 -643h508zM596 1573h-209q-10 150 50.5 244t176.5 94q98 0 189 -94q12 -12 26.5 -30t22.5 -26t17.5 -15t17.5 -7q45 0 37 137h209q10 -150 -50.5 -244t-177.5 -94q-98 0 -188 94 q-12 12 -26.5 29.5t-23 26t-17.5 15.5t-17 7q-45 0 -37 -137z" glyph-name="Atilde" horiz-adv-x="1519" unicode="Ã"/><glyph d="M610 1434h299l594 -1434h-293l-102 258h-698l-101 -258h-295zM760 1143l-254 -643h508zM418 1694q0 61 42 103t105.5 42t105.5 -42t42 -103q0 -63 -42 -105.5t-105.5 -42.5t-105.5 42.5t-42 105.5zM807 1694q0 61 42 103t105 42q61 0 104.5 -42t43.5 -103 q0 -63 -43 -105.5t-105 -42.5q-63 0 -105 42.5t-42 105.5z" glyph-name="Adieresis" horiz-adv-x="1519" unicode="Ä"/><glyph d="M610 1434h299l594 -1434h-293l-102 258h-698l-101 -258h-295zM760 1143l-254 -643h508zM506 1759.5q0 106.5 73.5 179t178.5 72.5q106 0 181 -72.5t75 -179t-74 -179.5t-182 -73q-106 0 -179 73t-73 179.5zM668 1759q0 -39 26.5 -65.5t63.5 -26.5q39 0 65.5 26.5 t26.5 65.5t-26.5 65.5t-65.5 26.5q-37 0 -63.5 -26.5t-26.5 -65.5z" glyph-name="Aring" horiz-adv-x="1519" unicode="Å"/><glyph d="M899 1434h1088v-250h-748v-344h596v-242h-596v-348h748v-250h-1012v272h-506l-166 -272h-315zM616 514h359v588z" glyph-name="AE" horiz-adv-x="2093" unicode="Æ"/><glyph d="M1241 553l262 -84q-68 -203 -231.5 -337t-380.5 -152l-27 -70q90 -16 138.5 -72.5t48.5 -136.5q0 -96 -69 -157.5t-191 -61.5q-121 0 -232 55l80 178q74 -43 135 -43q82 0 82 54q0 70 -123 61l-39 59l60 136q-283 25 -467.5 231.5t-184.5 503.5q0 315 208 527t517 212 q240 0 422.5 -137t253.5 -356l-262 -82q-47 143 -158.5 230t-255.5 87q-190 0 -316 -137t-126 -344t126 -344t316 -137q143 0 255 87t159 230z" glyph-name="Ccedilla" horiz-adv-x="1576" unicode="Ç"/><glyph d="M184 0v1434h1063v-250h-794v-344h643v-242h-643v-348h794v-250h-1063zM891 1591l-191 -78l-280 312l194 155z" glyph-name="Egrave" horiz-adv-x="1353" unicode="È"/><glyph d="M184 0v1434h1063v-250h-794v-344h643v-242h-643v-348h794v-250h-1063zM731 1513l-192 78l276 389l195 -155z" glyph-name="Eacute" horiz-adv-x="1353" unicode="É"/><glyph d="M184 0v1434h1063v-250h-794v-344h643v-242h-643v-348h794v-250h-1063zM1053 1679l-127 -157l-211 145l-211 -145l-129 157l340 242z" glyph-name="Ecircumflex" horiz-adv-x="1353" unicode="Ê"/><glyph d="M184 0v1434h1063v-250h-794v-344h643v-242h-643v-348h794v-250h-1063zM373 1694q0 61 42 103t105.5 42t105.5 -42t42 -103q0 -63 -42 -105.5t-105.5 -42.5t-105.5 42.5t-42 105.5zM762 1694q0 61 42 103t105 42q61 0 104.5 -42t43.5 -103q0 -63 -43 -105.5t-105 -42.5 q-63 0 -105 42.5t-42 105.5z" glyph-name="Edieresis" horiz-adv-x="1353" unicode="Ë"/><glyph d="M184 1434h271v-1434h-271v1434zM518 1591l-190 -78l-281 312l195 155z" glyph-name="Igrave" horiz-adv-x="638" unicode="Ì"/><glyph d="M184 1434h271v-1434h-271v1434zM311 1513l-192 78l276 389l195 -155z" glyph-name="Iacute" horiz-adv-x="638" unicode="Í"/><glyph d="M184 1434h271v-1434h-271v1434zM657 1679l-127 -157l-211 145l-210 -145l-129 157l339 242z" glyph-name="Icircumflex" horiz-adv-x="638" unicode="Î"/><glyph d="M184 1434h271v-1434h-271v1434zM-23 1694q0 61 42 103t105.5 42t105.5 -42t42 -103q0 -63 -42 -105.5t-105.5 -42.5t-105.5 42.5t-42 105.5zM367 1694q0 61 42 103t105 42q61 0 104.5 -42t43.5 -103q0 -63 -43.5 -105.5t-104.5 -42.5q-63 0 -105 42.5t-42 105.5z" glyph-name="Idieresis" horiz-adv-x="638" unicode="Ï"/><glyph d="M78 598v238h153v598h603q322 0 505 -197t183 -520.5t-184.5 -520t-503.5 -196.5h-603v598h-153zM885 598h-383v-348h313q211 0 318.5 125t107.5 342t-107.5 342t-318.5 125h-313v-348h383v-238z" glyph-name="Eth" horiz-adv-x="1628" unicode="Ð"/><glyph d="M453 0h-269v1434h275l749 -1014v1014h269v-1434h-273l-751 1012v-1012zM666 1573h-209q-10 150 50 244t177 94q98 0 188 -94q12 -12 26.5 -30t23 -26t17.5 -15t17 -7q45 0 37 137h209q10 -150 -50 -244t-177 -94q-98 0 -189 94q-12 12 -26.5 29.5t-22.5 26t-17 15.5 t-18 7q-44 0 -36 -137z" glyph-name="Ntilde" horiz-adv-x="1660" unicode="Ñ"/><glyph d="M102 716.5q0 317.5 209 528.5t525 211q313 0 522 -211t209 -528.5t-209 -528.5t-522 -211q-315 0 -524.5 211t-209.5 528.5zM385 717q0 -207 129 -345.5t321.5 -138.5t320.5 138.5t128 345.5t-128 344t-320.5 137t-321.5 -137t-129 -344zM1012 1591l-191 -78l-280 312 l194 155z" glyph-name="Ograve" unicode="Ò"/><glyph d="M102 716.5q0 317.5 209 528.5t525 211q313 0 522 -211t209 -528.5t-209 -528.5t-522 -211q-315 0 -524.5 211t-209.5 528.5zM385 717q0 -207 129 -345.5t321.5 -138.5t320.5 138.5t128 345.5t-128 344t-320.5 137t-321.5 -137t-129 -344zM850 1513l-193 78l277 389 l194 -155z" glyph-name="Oacute" unicode="Ó"/><glyph d="M102 716.5q0 317.5 209 528.5t525 211q313 0 522 -211t209 -528.5t-209 -528.5t-522 -211q-315 0 -524.5 211t-209.5 528.5zM385 717q0 -207 129 -345.5t321.5 -138.5t320.5 138.5t128 345.5t-128 344t-320.5 137t-321.5 -137t-129 -344zM1174 1679l-127 -157l-211 145 l-211 -145l-129 157l340 242z" glyph-name="Ocircumflex" unicode="Ô"/><glyph d="M102 716.5q0 317.5 209 528.5t525 211q313 0 522 -211t209 -528.5t-209 -528.5t-522 -211q-315 0 -524.5 211t-209.5 528.5zM385 717q0 -207 129 -345.5t321.5 -138.5t320.5 138.5t128 345.5t-128 344t-320.5 137t-321.5 -137t-129 -344zM672 1573h-209q-10 150 50 244 t177 94q98 0 189 -94q12 -12 26.5 -30t22.5 -26t17 -15t18 -7q45 0 36 137h209q10 -150 -50 -244t-177 -94q-98 0 -188 94q-12 12 -26.5 29.5t-23 26t-17.5 15.5t-17 7q-45 0 -37 -137z" glyph-name="Otilde" unicode="Õ"/><glyph d="M102 716.5q0 317.5 209 528.5t525 211q313 0 522 -211t209 -528.5t-209 -528.5t-522 -211q-315 0 -524.5 211t-209.5 528.5zM385 717q0 -207 129 -345.5t321.5 -138.5t320.5 138.5t128 345.5t-128 344t-320.5 137t-321.5 -137t-129 -344zM494 1694q0 61 42 103t105.5 42 t105 -42t41.5 -103q0 -63 -41.5 -105.5t-105 -42.5t-105.5 42.5t-42 105.5zM883 1694q0 61 42 103t105 42q61 0 104.5 -42t43.5 -103q0 -63 -43 -105.5t-105 -42.5q-63 0 -105 42.5t-42 105.5z" glyph-name="Odieresis" unicode="Ö"/><glyph d="M274 256l-163 162l254 256l-254 256l163 162l252 -254l252 254l164 -162l-254 -256l254 -256l-164 -162l-252 254z" glyph-name="multiply" horiz-adv-x="1052" unicode="×"/><glyph d="M109 717q0 317 207.5 528t523.5 211q209 0 381 -102l63 80h264l-168 -209q190 -207 191 -508q0 -317 -209 -528.5t-522 -211.5q-211 0 -381 101l-62 -78h-262l164 205q-190 211 -190 512zM389 717q0 -168 86 -293l578 721q-98 55 -213 55q-193 0 -322 -138t-129 -345z M1290 717q0 164 -86 289l-577 -719q96 -53 213 -54q193 0 321.5 138.5t128.5 345.5z" glyph-name="Oslash" horiz-adv-x="1679" unicode="Ø"/><glyph d="M1171 1434h271v-828q0 -276 -169 -452.5t-472 -176.5q-301 0 -469 176.5t-168 452.5v828h270v-803q0 -193 96.5 -295.5t270.5 -102.5q178 0 274 102.5t96 295.5v803zM977 1591l-191 -78l-280 312l194 155z" glyph-name="Ugrave" horiz-adv-x="1605" unicode="Ù"/><glyph d="M1171 1434h271v-828q0 -276 -169 -452.5t-472 -176.5q-301 0 -469 176.5t-168 452.5v828h270v-803q0 -193 96.5 -295.5t270.5 -102.5q178 0 274 102.5t96 295.5v803zM819 1513l-192 78l276 389l195 -155z" glyph-name="Uacute" horiz-adv-x="1605" unicode="Ú"/><glyph d="M1171 1434h271v-828q0 -276 -169 -452.5t-472 -176.5q-301 0 -469 176.5t-168 452.5v828h270v-803q0 -193 96.5 -295.5t270.5 -102.5q178 0 274 102.5t96 295.5v803zM1141 1679l-127 -157l-211 145l-211 -145l-129 157l340 242z" glyph-name="Ucircumflex" horiz-adv-x="1605" unicode="Û"/><glyph d="M1171 1434h271v-828q0 -276 -169 -452.5t-472 -176.5q-301 0 -469 176.5t-168 452.5v828h270v-803q0 -193 96.5 -295.5t270.5 -102.5q178 0 274 102.5t96 295.5v803zM461 1694q0 61 42 103t105.5 42t105.5 -42t42 -103q0 -63 -42 -105.5t-105.5 -42.5t-105.5 42.5 t-42 105.5zM850 1694q0 61 42 103t105 42q61 0 104.5 -42t43.5 -103q0 -63 -43 -105.5t-105 -42.5q-63 0 -105 42.5t-42 105.5z" glyph-name="Udieresis" horiz-adv-x="1605" unicode="Ü"/><glyph d="M336 1434l395 -660l395 660h328l-588 -934v-500h-270v500l-586 934h326zM748 1513l-193 78l276 389l195 -155z" glyph-name="Yacute" horiz-adv-x="1464" unicode="Ý"/><glyph d="M184 0v1434h269v-189h338q266 0 414.5 -150.5t148.5 -380t-149.5 -381t-413.5 -151.5h-338v-182h-269zM453 432h282q340 0 340 282.5t-340 282.5h-282v-565z" glyph-name="Thorn" horiz-adv-x="1454" unicode="Þ"/><glyph d="M496 31l69 229q80 -45 170 -45q88 0 143.5 47t55.5 133q0 109 -90 167.5t-256 58.5v219q131 0 208.5 59t77.5 158q0 90 -61 139t-154 49q-111 0 -179 -80t-68 -221v-944h-265v938q0 254 146.5 399.5t365.5 145.5q203 0 342.5 -117t139.5 -303q0 -217 -189 -322 q248 -109 248 -370q0 -182 -117.5 -288t-324.5 -106q-156 1 -262 54z" glyph-name="germandbls" horiz-adv-x="1292" unicode="ß"/><glyph d="M240 741l-107 201q188 115 420 115q481 0 481 -496v-561h-258v121q-139 -143 -323 -144q-166 0 -265.5 88.5t-99.5 243.5q0 164 109.5 256t291.5 92q145 0 287 -61q-8 236 -244 235q-130 0 -292 -90zM516 172q150 0 260 139v115q-111 53 -227 53q-92 0 -145.5 -42 t-53.5 -115q0 -72 47 -111t119 -39zM754 1210l-191 -77l-280 311l194 155z" glyph-name="agrave" horiz-adv-x="1167" unicode="à"/><glyph d="M240 741l-107 201q188 115 420 115q481 0 481 -496v-561h-258v121q-139 -143 -323 -144q-166 0 -265.5 88.5t-99.5 243.5q0 164 109.5 256t291.5 92q145 0 287 -61q-8 236 -244 235q-130 0 -292 -90zM516 172q150 0 260 139v115q-111 53 -227 53q-92 0 -145.5 -42 t-53.5 -115q0 -72 47 -111t119 -39zM598 1133l-192 77l276 389l195 -155z" glyph-name="aacute" horiz-adv-x="1167" unicode="á"/><glyph d="M240 741l-107 201q188 115 420 115q481 0 481 -496v-561h-258v121q-139 -143 -323 -144q-166 0 -265.5 88.5t-99.5 243.5q0 164 109.5 256t291.5 92q145 0 287 -61q-8 236 -244 235q-130 0 -292 -90zM516 172q150 0 260 139v115q-111 53 -227 53q-92 0 -145.5 -42 t-53.5 -115q0 -72 47 -111t119 -39zM920 1298l-127 -157l-211 145l-211 -145l-129 157l340 242z" glyph-name="acircumflex" horiz-adv-x="1167" unicode="â"/><glyph d="M240 741l-107 201q188 115 420 115q481 0 481 -496v-561h-258v121q-139 -143 -323 -144q-166 0 -265.5 88.5t-99.5 243.5q0 164 109.5 256t291.5 92q145 0 287 -61q-8 236 -244 235q-130 0 -292 -90zM516 172q150 0 260 139v115q-111 53 -227 53q-92 0 -145.5 -42 t-53.5 -115q0 -72 47 -111t119 -39zM418 1192h-209q-10 150 50 244t177 94q98 0 189 -94q12 -12 26.5 -29.5t22.5 -26t17 -15.5t18 -7q45 0 36 137h209q10 -150 -50 -244t-177 -94q-98 0 -188 94q-12 12 -26.5 29.5t-23 26t-17.5 15.5t-17 7q-45 0 -37 -137z" glyph-name="atilde" horiz-adv-x="1167" unicode="ã"/><glyph d="M240 741l-107 201q188 115 420 115q481 0 481 -496v-561h-258v121q-139 -143 -323 -144q-166 0 -265.5 88.5t-99.5 243.5q0 164 109.5 256t291.5 92q145 0 287 -61q-8 236 -244 235q-130 0 -292 -90zM516 172q150 0 260 139v115q-111 53 -227 53q-92 0 -145.5 -42 t-53.5 -115q0 -72 47 -111t119 -39zM240 1313q0 61 42 103t105.5 42t105.5 -42t42 -103q0 -63 -42 -105.5t-105.5 -42.5t-105.5 42.5t-42 105.5zM629 1313q0 61 42 103t105 42q61 0 104.5 -42t43.5 -103q0 -63 -43 -105.5t-105 -42.5q-63 0 -105 42.5t-42 105.5z" glyph-name="adieresis" horiz-adv-x="1167" unicode="ä"/><glyph d="M240 741l-107 201q188 115 420 115q481 0 481 -496v-561h-258v121q-139 -143 -323 -144q-166 0 -265.5 88.5t-99.5 243.5q0 164 109.5 256t291.5 92q145 0 287 -61q-8 236 -244 235q-130 0 -292 -90zM516 172q150 0 260 139v115q-111 53 -227 53q-92 0 -145.5 -42 t-53.5 -115q0 -72 47 -111t119 -39zM328 1378.5q0 106.5 73.5 179t178.5 72.5q106 0 181 -72.5t75 -179t-74 -179.5t-182 -73q-106 0 -179 73t-73 179.5zM489 1378q0 -39 27 -65.5t64 -26.5q39 0 65.5 26.5t26.5 65.5t-27 65.5t-65 26.5q-37 0 -64 -26.5t-27 -65.5z" glyph-name="aring" horiz-adv-x="1167" unicode="å"/><glyph d="M1602 317l141 -174q-162 -166 -420 -166q-268 0 -424 179q-205 -178 -434 -179q-170 0 -273.5 87.5t-103.5 244.5q0 164 109.5 256t291.5 92q145 0 287 -61q-8 236 -244 235q-131 0 -292 -90l-107 201q188 115 420 115q254 0 375 -146q150 145 362 146 q227 0 368.5 -152.5t141.5 -349.5q0 -53 -14 -117h-742q23 -109 98 -171t193 -62q152 -1 267 112zM520 172q78 0 157 40t130 103q-20 57 -29 109q-106 55 -229 55q-92 0 -145.5 -42t-53.5 -115q0 -72 47 -111t123 -39zM1294.5 834q-94.5 0 -160 -56.5t-87.5 -152.5h485 q-18 92 -80.5 150.5t-157 58.5z" glyph-name="ae" horiz-adv-x="1886" unicode="æ"/><glyph d="M877 412l243 -76q-49 -147 -163.5 -242.5t-268.5 -111.5l-26 -72q90 -16 138 -72.5t48 -136.5q0 -96 -68.5 -157.5t-191.5 -61.5q-121 0 -232 55l80 178q74 -43 135 -43q82 0 82 54q0 70 -123 61l-38 59l59 138q-201 25 -329 174t-128 358q0 231 150.5 386t380.5 155 q176 0 308 -97.5t187 -259.5l-243 -75q-68 195 -252 194q-119 0 -193 -85t-74 -218q0 -131 74 -216t193 -85q90 0 155.5 52.5t96.5 144.5z" glyph-name="ccedilla" horiz-adv-x="1189" unicode="ç"/><glyph d="M924 317l141 -174q-166 -166 -420 -166t-402.5 156t-148.5 385q0 231 147.5 385t370.5 154q227 0 367.5 -152.5t140.5 -349.5q0 -63 -12 -117h-741q23 -109 97.5 -171t192.5 -62q152 -1 267 112zM616.5 834q-94.5 0 -160 -56.5t-87.5 -152.5h485q-18 92 -80.5 150.5 t-157 58.5zM788 1210l-190 -77l-281 311l195 155z" glyph-name="egrave" horiz-adv-x="1208" unicode="è"/><glyph d="M924 317l141 -174q-166 -166 -420 -166t-402.5 156t-148.5 385q0 231 147.5 385t370.5 154q227 0 367.5 -152.5t140.5 -349.5q0 -63 -12 -117h-741q23 -109 97.5 -171t192.5 -62q152 -1 267 112zM616.5 834q-94.5 0 -160 -56.5t-87.5 -152.5h485q-18 92 -80.5 150.5 t-157 58.5zM629 1133l-193 77l277 389l194 -155z" glyph-name="eacute" horiz-adv-x="1208" unicode="é"/><glyph d="M924 317l141 -174q-166 -166 -420 -166t-402.5 156t-148.5 385q0 231 147.5 385t370.5 154q227 0 367.5 -152.5t140.5 -349.5q0 -63 -12 -117h-741q23 -109 97.5 -171t192.5 -62q152 -1 267 112zM616.5 834q-94.5 0 -160 -56.5t-87.5 -152.5h485q-18 92 -80.5 150.5 t-157 58.5zM952 1298l-127 -157l-211 145l-211 -145l-129 157l340 242z" glyph-name="ecircumflex" horiz-adv-x="1208" unicode="ê"/><glyph d="M924 317l141 -174q-166 -166 -420 -166t-402.5 156t-148.5 385q0 231 147.5 385t370.5 154q227 0 367.5 -152.5t140.5 -349.5q0 -63 -12 -117h-741q23 -109 97.5 -171t192.5 -62q152 -1 267 112zM616.5 834q-94.5 0 -160 -56.5t-87.5 -152.5h485q-18 92 -80.5 150.5 t-157 58.5zM270 1313q0 61 42 103t105.5 42t105.5 -42t42 -103q0 -63 -42 -105.5t-105.5 -42.5t-105.5 42.5t-42 105.5zM659 1313q0 61 42 103t106 42q61 0 104 -42t43 -103q0 -63 -43 -105.5t-104 -42.5q-63 0 -105.5 42.5t-42.5 105.5z" glyph-name="edieresis" horiz-adv-x="1208" unicode="ë"/><glyph d="M147 0v1036h265v-1036h-265zM477 1210l-190 -77l-281 311l195 155z" glyph-name="igrave" horiz-adv-x="559" unicode="ì"/><glyph d="M147 0v1036h265v-1036h-265zM272 1133l-192 77l276 389l195 -155z" glyph-name="iacute" horiz-adv-x="559" unicode="í"/><glyph d="M147 0v1036h265v-1036h-265zM618 1296l-126 -157l-211 145l-211 -145l-129 157l340 242z" glyph-name="icircumflex" horiz-adv-x="559" unicode="î"/><glyph d="M147 0v1036h265v-1036h-265zM-63 1311q0 61 41.5 103t105 42t105.5 -42t42 -103q0 -63 -42 -105.5t-105.5 -42.5t-105 42.5t-41.5 105.5zM326 1311q0 61 42 103t105 42q61 0 104.5 -42t43.5 -103q0 -63 -43 -105.5t-105 -42.5q-63 0 -105 42.5t-42 105.5z" glyph-name="idieresis" horiz-adv-x="559" unicode="ï"/><glyph d="M406 1241l-150 193h340l61 -86l197 84l80 -179l-160 -67l201 -275q162 -225 162 -424q0 -217 -150.5 -363.5t-374.5 -146.5q-221 0 -370.5 148.5t-149.5 370.5q0 211 132 346t331 135q20 0 61 -4l-88 110l-204 -86l-80 177zM612 752q-109 0 -180.5 -75t-71.5 -190 q0 -113 73 -187.5t183 -74.5q109 0 180.5 75t71.5 187q0 111 -72.5 188t-183.5 77z" glyph-name="eth" horiz-adv-x="1228" unicode="ð"/><glyph d="M868 0v588q0 121 -54 176t-140 55q-115 0 -188.5 -84t-73.5 -194v-541h-265v1036h265v-147q115 168 340 168q172 0 276.5 -106.5t104.5 -325.5v-625h-265zM475 1192h-209q-10 150 50.5 244t177.5 94q98 0 188 -94q12 -12 26.5 -29.5t22.5 -26t17.5 -15.5t17.5 -7 q45 0 37 137h209q10 -150 -50.5 -244t-177.5 -94q-98 0 -188 94q-12 12 -26.5 29.5t-22.5 26t-17.5 15.5t-17.5 7q-45 0 -37 -137z" glyph-name="ntilde" horiz-adv-x="1265" unicode="ñ"/><glyph d="M94 516q0 231 153.5 386t385 155t385 -154.5t153.5 -386.5q0 -229 -153.5 -384t-385 -155t-385 155t-153.5 384zM358 516q0 -129 77 -215t198 -86t196.5 85t75.5 216q0 133 -75.5 218t-196.5 85t-197 -85t-78 -218zM809 1210l-191 -77l-280 311l194 155z" glyph-name="ograve" horiz-adv-x="1265" unicode="ò"/><glyph d="M94 516q0 231 153.5 386t385 155t385 -154.5t153.5 -386.5q0 -229 -153.5 -384t-385 -155t-385 155t-153.5 384zM358 516q0 -129 77 -215t198 -86t196.5 85t75.5 216q0 133 -75.5 218t-196.5 85t-197 -85t-78 -218zM649 1133l-192 77l276 389l195 -155z" glyph-name="oacute" horiz-adv-x="1265" unicode="ó"/><glyph d="M94 516q0 231 153.5 386t385 155t385 -154.5t153.5 -386.5q0 -229 -153.5 -384t-385 -155t-385 155t-153.5 384zM358 516q0 -129 77 -215t198 -86t196.5 85t75.5 216q0 133 -75.5 218t-196.5 85t-197 -85t-78 -218zM971 1298l-127 -157l-211 145l-211 -145l-129 157 l340 242z" glyph-name="ocircumflex" horiz-adv-x="1265" unicode="ô"/><glyph d="M94 516q0 231 153.5 386t385 155t385 -154.5t153.5 -386.5q0 -229 -153.5 -384t-385 -155t-385 155t-153.5 384zM358 516q0 -129 77 -215t198 -86t196.5 85t75.5 216q0 133 -75.5 218t-196.5 85t-197 -85t-78 -218zM469 1192h-209q-10 150 50.5 244t176.5 94 q98 0 189 -94q12 -12 26.5 -29.5t22.5 -26t17.5 -15.5t17.5 -7q45 0 37 137h209q10 -150 -50.5 -244t-177.5 -94q-98 0 -188 94q-12 12 -26.5 29.5t-23 26t-17.5 15.5t-17 7q-45 0 -37 -137z" glyph-name="otilde" horiz-adv-x="1265" unicode="õ"/><glyph d="M94 516q0 231 153.5 386t385 155t385 -154.5t153.5 -386.5q0 -229 -153.5 -384t-385 -155t-385 155t-153.5 384zM358 516q0 -129 77 -215t198 -86t196.5 85t75.5 216q0 133 -75.5 218t-196.5 85t-197 -85t-78 -218zM291 1313q0 61 42 103t105.5 42t105.5 -42t42 -103 q0 -63 -42 -105.5t-105.5 -42.5t-105.5 42.5t-42 105.5zM680 1313q0 61 42 103t105 42q61 0 104.5 -42t43.5 -103q0 -63 -43 -105.5t-105 -42.5q-63 0 -105 42.5t-42 105.5z" glyph-name="odieresis" horiz-adv-x="1265" unicode="ö"/><glyph d="M928 786v-231h-805v231h805zM377 1059q0 61 42 103t105.5 42t105.5 -42t42 -103q0 -63 -42 -105.5t-105.5 -42.5t-105.5 42.5t-42 105.5zM377 283q0 63 42 105t105.5 42t105.5 -42t42 -105q0 -61 -42 -103.5t-105.5 -42.5t-105.5 42.5t-42 103.5z" glyph-name="divide" horiz-adv-x="1048" unicode="÷"/><glyph d="M96 516q0 231 153.5 386t385.5 155q139 0 258 -62l31 39h225l-115 -147q141 -152 142 -371q0 -229 -155 -384t-386 -155q-139 0 -258 62l-29 -39h-225l113 147q-140 150 -140 369zM354 516q0 -92 39 -166l352 455q-51 23 -110 22q-123 0 -201 -87t-80 -224zM915 516 q0 92 -38 166l-353 -453q47 -20 111 -20q123 0 201.5 87t78.5 220z" glyph-name="oslash" horiz-adv-x="1269" unicode="ø"/><glyph d="M399 1036v-587q0 -121 55.5 -177.5t139.5 -56.5q115 0 188.5 85t73.5 196v540h264v-1036h-264v147q-115 -170 -340 -170q-172 0 -276.5 108t-104.5 327v624h264zM803 1210l-191 -77l-280 311l194 155z" glyph-name="ugrave" horiz-adv-x="1265" unicode="ù"/><glyph d="M399 1036v-587q0 -121 55.5 -177.5t139.5 -56.5q115 0 188.5 85t73.5 196v540h264v-1036h-264v147q-115 -170 -340 -170q-172 0 -276.5 108t-104.5 327v624h264zM643 1133l-192 77l276 389l195 -155z" glyph-name="uacute" horiz-adv-x="1265" unicode="ú"/><glyph d="M399 1036v-587q0 -121 55.5 -177.5t139.5 -56.5q115 0 188.5 85t73.5 196v540h264v-1036h-264v147q-115 -170 -340 -170q-172 0 -276.5 108t-104.5 327v624h264zM967 1298l-127 -157l-211 145l-211 -145l-129 157l340 242z" glyph-name="ucircumflex" horiz-adv-x="1265" unicode="û"/><glyph d="M399 1036v-587q0 -121 55.5 -177.5t139.5 -56.5q115 0 188.5 85t73.5 196v540h264v-1036h-264v147q-115 -170 -340 -170q-172 0 -276.5 108t-104.5 327v624h264zM285 1313q0 61 42 103t105.5 42t105.5 -42t42 -103q0 -63 -42 -105.5t-105.5 -42.5t-105.5 42.5t-42 105.5z M674 1313q0 61 42 103t105 42q61 0 104.5 -42t43.5 -103q0 -63 -43 -105.5t-105 -42.5q-63 0 -105 42.5t-42 105.5z" glyph-name="udieresis" horiz-adv-x="1265" unicode="ü"/><glyph d="M176 -426l-98 240q240 80 356 204l-401 1018h289l262 -741l268 741h289l-359 -897q-190 -479 -606 -565zM606 1133l-192 77l276 389l195 -155z" glyph-name="yacute" horiz-adv-x="1169" unicode="ý"/><glyph d="M412 1434v-539q119 162 333 162q211 0 342.5 -152.5t131.5 -386t-131.5 -387.5t-342.5 -154q-215 0 -333 162v-506h-265v1801h265zM406 518q0 -131 76.5 -217t195.5 -86t195.5 86t76.5 217t-76.5 216t-195.5 85t-195.5 -85t-76.5 -216z" glyph-name="thorn" horiz-adv-x="1312" unicode="þ"/><glyph d="M176 -426l-98 240q240 80 356 204l-401 1018h289l262 -741l268 741h289l-359 -897q-190 -479 -606 -565zM246 1313q0 61 42 103t105.5 42t105.5 -42t42 -103q0 -63 -42 -105.5t-105.5 -42.5t-105.5 42.5t-42 105.5zM635 1313q0 61 42 103t105 42q61 0 104.5 -42 t43.5 -103q0 -63 -43 -105.5t-105 -42.5q-63 0 -105 42.5t-42 105.5z" glyph-name="ydieresis" horiz-adv-x="1169" unicode="ÿ"/><glyph d="M610 1434h299l594 -1434h-293l-102 258h-698l-101 -258h-295zM760 1143l-254 -643h508zM1055 1802v-215h-590v215h590z" glyph-name="Amacron" horiz-adv-x="1519" unicode="Ā"/><glyph d="M240 741l-107 201q188 115 420 115q481 0 481 -496v-561h-258v121q-139 -143 -323 -144q-166 0 -265.5 88.5t-99.5 243.5q0 164 109.5 256t291.5 92q145 0 287 -61q-8 236 -244 235q-130 0 -292 -90zM516 172q150 0 260 139v115q-111 53 -227 53q-92 0 -145.5 -42 t-53.5 -115q0 -72 47 -111t119 -39zM877 1421v-215h-590v215h590z" glyph-name="amacron" horiz-adv-x="1167" unicode="ā"/><glyph d="M610 1434h299l594 -1434h-293l-102 258h-698l-101 -258h-295zM760 1143l-254 -643h508zM915 1878l189 -78q-45 -123 -135 -194.5t-209 -71.5t-209 72.5t-135 193.5l190 78q57 -137 154 -137q98 0 155 137z" glyph-name="Abreve" horiz-adv-x="1519" unicode="Ă"/><glyph d="M240 741l-107 201q188 115 420 115q481 0 481 -496v-561h-258v121q-139 -143 -323 -144q-166 0 -265.5 88.5t-99.5 243.5q0 164 109.5 256t291.5 92q145 0 287 -61q-8 236 -244 235q-130 0 -292 -90zM516 172q150 0 260 139v115q-111 53 -227 53q-92 0 -145.5 -42 t-53.5 -115q0 -72 47 -111t119 -39zM737 1497l189 -78q-45 -123 -135.5 -194.5t-209 -71.5t-208.5 72.5t-135 193.5l190 78q57 -137 154 -137q98 0 155 137z" glyph-name="abreve" horiz-adv-x="1167" unicode="ă"/><glyph d="M610 1434h299l594 -1434q-166 -150 -166 -250q0 -68 76 -67q27 0 60 10l32 -197q-43 -16 -110 -16q-115 0 -184.5 54t-69.5 155q0 154 184 311h-115l-102 258h-698l-101 -258h-295zM760 1143l-254 -643h508z" glyph-name="Aogonek" horiz-adv-x="1519" unicode="Ą"/><glyph d="M240 741l-107 201q188 115 420 115q481 0 481 -496v-561q-166 -150 -166 -250q0 -68 76 -67q27 0 60 10l32 -197q-43 -16 -110 -16q-115 0 -184.5 54t-69.5 155q0 154 184 311h-80v121q-139 -143 -323 -144q-166 0 -265.5 88.5t-99.5 243.5q0 164 109.5 256t291.5 92 q145 0 287 -61q-8 236 -244 235q-130 0 -292 -90zM516 172q150 0 260 139v115q-111 53 -227 53q-92 0 -145.5 -42t-53.5 -115q0 -72 47 -111t119 -39z" glyph-name="aogonek" horiz-adv-x="1167" unicode="ą"/><glyph d="M1241 553l262 -84q-72 -219 -254 -355.5t-422 -136.5q-309 0 -517 212t-208 527.5t208 527.5t517 212q240 0 422.5 -137t253.5 -356l-262 -82q-47 143 -158.5 230t-255.5 87q-190 0 -316 -137t-126 -344t126 -344t316 -137q143 0 255 87t159 230zM844 1513l-193 78 l277 389l194 -155z" glyph-name="Cacute" horiz-adv-x="1576" unicode="Ć"/><glyph d="M877 412l243 -76q-55 -162 -187 -260.5t-308 -98.5q-229 0 -380 155t-151 384q0 231 150.5 386t380.5 155q176 0 308 -97.5t187 -259.5l-243 -75q-68 195 -252 194q-119 0 -193 -85t-74 -218q0 -131 74 -216t193 -85q90 0 155.5 52.5t96.5 144.5zM639 1133l-193 77 l277 389l195 -155z" glyph-name="cacute" horiz-adv-x="1189" unicode="ć"/><glyph d="M1241 553l262 -84q-72 -219 -254 -355.5t-422 -136.5q-309 0 -517 212t-208 527.5t208 527.5t517 212q240 0 422.5 -137t253.5 -356l-262 -82q-47 143 -158.5 230t-255.5 87q-190 0 -316 -137t-126 -344t126 -344t316 -137q143 0 255 87t159 230zM680 1694q0 61 42 103 t105 42q61 0 104.5 -42t43.5 -103q0 -63 -43 -105.5t-105 -42.5q-63 0 -105 42.5t-42 105.5z" glyph-name="Cdotaccent" horiz-adv-x="1576" unicode="Ċ"/><glyph d="M877 412l243 -76q-55 -162 -187 -260.5t-308 -98.5q-229 0 -380 155t-151 384q0 231 150.5 386t380.5 155q176 0 308 -97.5t187 -259.5l-243 -75q-68 195 -252 194q-119 0 -193 -85t-74 -218q0 -131 74 -216t193 -85q90 0 155.5 52.5t96.5 144.5zM477 1313q0 61 42 103 t106 42q61 0 104 -42t43 -103q0 -63 -43 -105.5t-104 -42.5q-63 0 -105.5 42.5t-42.5 105.5z" glyph-name="cdotaccent" horiz-adv-x="1189" unicode="ċ"/><glyph d="M1241 553l262 -84q-72 -219 -254 -355.5t-422 -136.5q-309 0 -517 212t-208 527.5t208 527.5t517 212q240 0 422.5 -137t253.5 -356l-262 -82q-47 143 -158.5 230t-255.5 87q-190 0 -316 -137t-126 -344t126 -344t316 -137q143 0 255 87t159 230zM1038 1915l127 -158 l-338 -244l-340 244l129 158l211 -148z" glyph-name="Ccaron" horiz-adv-x="1576" unicode="Č"/><glyph d="M877 412l243 -76q-55 -162 -187 -260.5t-308 -98.5q-229 0 -380 155t-151 384q0 231 150.5 386t380.5 155q176 0 308 -97.5t187 -259.5l-243 -75q-68 195 -252 194q-119 0 -193 -85t-74 -218q0 -131 74 -216t193 -85q90 0 155.5 52.5t96.5 144.5zM836 1534l127 -158 l-338 -243l-340 243l129 158l211 -148z" glyph-name="ccaron" horiz-adv-x="1189" unicode="č"/><glyph d="M184 0v1434h600q322 0 505.5 -197t183.5 -520.5t-184.5 -520t-504.5 -196.5h-600zM766 1184h-313v-934h313q211 0 318.5 125t107.5 342t-107.5 342t-318.5 125zM997 1915l127 -158l-338 -244l-340 244l129 158l211 -148z" glyph-name="Dcaron" horiz-adv-x="1579" unicode="Ď"/><glyph d="M901 1434h266v-1434h-266v135q-119 -158 -332 -158q-211 0 -342 154t-131 385q0 233 131 387t342 154q213 0 332 -158v535zM907 516q0 131 -76.5 217t-195.5 86t-194.5 -85t-75.5 -218q0 -129 76.5 -215t193.5 -86q119 0 195.5 86t76.5 215zM1372 924l-94 86q51 45 89 99 t38 93q-57 -14 -106.5 23t-49.5 98q0 53 38 92t102 39q68 0 112.5 -46t44.5 -140q0 -184 -174 -344z" glyph-name="dcaron" horiz-adv-x="1503" unicode="ď"/><glyph d="M78 598v238h153v598h603q322 0 505 -197t183 -520.5t-184.5 -520t-503.5 -196.5h-603v598h-153zM885 598h-383v-348h313q211 0 318.5 125t107.5 342t-107.5 342t-318.5 125h-313v-348h383v-238z" glyph-name="Dcroat" horiz-adv-x="1628" unicode="Đ"/><glyph d="M901 1327v107h266v-107h136v-199h-136v-1128h-266v135q-119 -158 -332 -158q-211 0 -342 154t-131 385q0 233 131 387t342 154q213 0 332 -158v229h-293v199h293zM907 516q0 131 -76.5 217t-195.5 86t-194.5 -85t-75.5 -218q0 -129 76.5 -215t193.5 -86q119 0 195.5 86 t76.5 215z" glyph-name="dcroat" horiz-adv-x="1331" unicode="đ"/><glyph d="M184 0v1434h1063v-250h-794v-344h643v-242h-643v-348h794v-250h-1063zM1010 1802v-215h-590v215h590z" glyph-name="Emacron" horiz-adv-x="1353" unicode="Ē"/><glyph d="M924 317l141 -174q-166 -166 -420 -166t-402.5 156t-148.5 385q0 231 147.5 385t370.5 154q227 0 367.5 -152.5t140.5 -349.5q0 -63 -12 -117h-741q23 -109 97.5 -171t192.5 -62q152 -1 267 112zM616.5 834q-94.5 0 -160 -56.5t-87.5 -152.5h485q-18 92 -80.5 150.5 t-157 58.5zM907 1421v-215h-590v215h590z" glyph-name="emacron" horiz-adv-x="1208" unicode="ē"/><glyph d="M184 0v1434h1063v-250h-794v-344h643v-242h-643v-348h794v-250h-1063zM567 1694q0 61 42 103t106 42q61 0 104 -42t43 -103q0 -63 -43 -105.5t-104 -42.5q-63 0 -105.5 42.5t-42.5 105.5z" glyph-name="Edotaccent" horiz-adv-x="1353" unicode="Ė"/><glyph d="M924 317l141 -174q-166 -166 -420 -166t-402.5 156t-148.5 385q0 231 147.5 385t370.5 154q227 0 367.5 -152.5t140.5 -349.5q0 -63 -12 -117h-741q23 -109 97.5 -171t192.5 -62q152 -1 267 112zM616.5 834q-94.5 0 -160 -56.5t-87.5 -152.5h485q-18 92 -80.5 150.5 t-157 58.5zM465 1313q0 61 42 103t105 42q61 0 104.5 -42t43.5 -103q0 -63 -43 -105.5t-105 -42.5q-63 0 -105 42.5t-42 105.5z" glyph-name="edotaccent" horiz-adv-x="1208" unicode="ė"/><glyph d="M184 0v1434h1063v-250h-794v-344h643v-242h-643v-348h794v-250q-166 -150 -166 -250q0 -68 76 -67q27 0 60 10l32 -197q-43 -16 -110 -16q-115 0 -184.5 54t-69.5 155q0 154 184 311h-885z" glyph-name="Eogonek" horiz-adv-x="1353" unicode="Ę"/><glyph d="M924 317l141 -174q-72 -72 -156 -110q-205 -170 -204 -283q0 -68 75 -67q27 0 60 10l32 -197q-45 -16 -110 -16q-115 0 -184.5 54t-69.5 155q0 145 158 288h-21q-254 0 -402.5 156t-148.5 385q0 231 147.5 385t370.5 154q227 0 367.5 -152.5t140.5 -349.5q0 -63 -12 -117 h-741q23 -109 97.5 -171t192.5 -62q152 -1 267 112zM616.5 834q-94.5 0 -160 -56.5t-87.5 -152.5h485q-18 92 -80.5 150.5t-157 58.5z" glyph-name="eogonek" horiz-adv-x="1208" unicode="ę"/><glyph d="M184 0v1434h1063v-250h-794v-344h643v-242h-643v-348h794v-250h-1063zM926 1915l127 -158l-338 -244l-340 244l129 158l211 -148z" glyph-name="Ecaron" horiz-adv-x="1353" unicode="Ě"/><glyph d="M924 317l141 -174q-166 -166 -420 -166t-402.5 156t-148.5 385q0 231 147.5 385t370.5 154q227 0 367.5 -152.5t140.5 -349.5q0 -63 -12 -117h-741q23 -109 97.5 -171t192.5 -62q152 -1 267 112zM616.5 834q-94.5 0 -160 -56.5t-87.5 -152.5h485q-18 92 -80.5 150.5 t-157 58.5zM825 1534l127 -158l-338 -243l-340 243l129 158l211 -148z" glyph-name="ecaron" horiz-adv-x="1208" unicode="ě"/><glyph d="M791 561v232h704v-793h-223v211q-150 -233 -467 -234q-307 0 -504 211t-197 529q0 315 208 527t517 212q195 0 351.5 -91t253.5 -247l-226 -143q-61 104 -159.5 164.5t-217.5 60.5q-190 0 -317 -138t-127 -345q0 -209 121 -346.5t313 -137.5q141 0 253 84t151 244h-434z M985 1878l189 -78q-45 -123 -135.5 -194.5t-209 -71.5t-209 72.5t-135.5 193.5l191 78q57 -137 153 -137q99 0 156 137z" glyph-name="Gbreve" horiz-adv-x="1624" unicode="Ğ"/><glyph d="M96 547q0 223 124 366.5t329 143.5q207 0 325 -156v135h267v-872q0 -299 -139.5 -435.5t-368.5 -136.5q-285 0 -500 183l135 200q190 -152 340 -151q266 0 266 305v61q-121 -154 -325.5 -153.5t-328.5 144t-124 366.5zM362 547q0 -119 73 -197t185.5 -78t186.5 77t74 198 t-74 197.5t-186.5 76.5t-185.5 -77.5t-73 -196.5zM793 1497l188 -78q-45 -123 -135 -194.5t-209 -71.5t-209 72.5t-135 193.5l190 78q57 -137 154 -137q99 0 156 137z" glyph-name="gbreve" horiz-adv-x="1286" unicode="ğ"/><glyph d="M791 561v232h704v-793h-223v211q-150 -233 -467 -234q-307 0 -504 211t-197 529q0 315 208 527t517 212q195 0 351.5 -91t253.5 -247l-226 -143q-61 104 -159.5 164.5t-217.5 60.5q-190 0 -317 -138t-127 -345q0 -209 121 -346.5t313 -137.5q141 0 253 84t151 244h-434z M684 1694q0 61 42 103t105 42q61 0 104.5 -42t43.5 -103q0 -63 -43 -105.5t-105 -42.5q-63 0 -105 42.5t-42 105.5z" glyph-name="Gdotaccent" horiz-adv-x="1624" unicode="Ġ"/><glyph d="M96 547q0 223 124 366.5t329 143.5q207 0 325 -156v135h267v-872q0 -299 -139.5 -435.5t-368.5 -136.5q-285 0 -500 183l135 200q190 -152 340 -151q266 0 266 305v61q-121 -154 -325.5 -153.5t-328.5 144t-124 366.5zM362 547q0 -119 73 -197t185.5 -78t186.5 77t74 198 t-74 197.5t-186.5 76.5t-185.5 -77.5t-73 -196.5zM489 1313q0 61 42 103t106 42q61 0 104 -42t43 -103q0 -63 -43 -105.5t-104 -42.5q-63 0 -105.5 42.5t-42.5 105.5z" glyph-name="gdotaccent" horiz-adv-x="1286" unicode="ġ"/><glyph d="M791 561v232h704v-793h-223v211q-150 -233 -467 -234q-307 0 -504 211t-197 529q0 315 208 527t517 212q195 0 351.5 -91t253.5 -247l-226 -143q-61 104 -159.5 164.5t-217.5 60.5q-190 0 -317 -138t-127 -345q0 -209 121 -346.5t313 -137.5q141 0 253 84t151 244h-434z M811 -645l-94 86q51 45 89 99t38 93q-57 -14 -106.5 23t-49.5 98q0 53 38 92t101 39q68 0 113 -46t45 -140q0 -184 -174 -344z" glyph-name="Gcommaaccent" horiz-adv-x="1624" unicode="Ģ"/><glyph d="M96 547q0 223 124 366.5t329 143.5q207 0 325 -156v135h267v-872q0 -299 -139.5 -435.5t-368.5 -136.5q-285 0 -500 183l135 200q190 -152 340 -151q266 0 266 305v61q-121 -154 -325.5 -153.5t-328.5 144t-124 366.5zM362 547q0 -119 73 -197t185.5 -78t186.5 77t74 198 t-74 197.5t-186.5 76.5t-185.5 -77.5t-73 -196.5zM637 -1016l-94 86q51 45 89 99.5t38 93.5q-55 -14 -105.5 23.5t-50.5 97.5q0 53 38 92t101 39q68 0 113 -46.5t45 -140.5q0 -184 -174 -344z" glyph-name="gcommaaccent" horiz-adv-x="1286" unicode="ģ"/><glyph d="M1214 1434h271v-195h108v-209h-108v-1030h-271v592h-749v-592h-268v1030h-113v209h113v195h268v-195h749v195zM465 842h749v188h-749v-188z" glyph-name="Hbar" horiz-adv-x="1677" unicode="Ħ"/><glyph d="M31 1128v199h135v107h264v-107h293v-199h-293v-239q115 168 340 168q172 0 276.5 -106.5t104.5 -325.5v-625h-264v588q0 121 -54.5 176t-140.5 55q-115 0 -188.5 -84t-73.5 -194v-541h-264v1128h-135z" glyph-name="hbar" horiz-adv-x="1286" unicode="ħ"/><glyph d="M184 1434h271v-1434h-271v1434zM156 1573h-209q-10 150 50 244t177 94q98 0 188 -94q12 -12 26.5 -30t23 -26t17.5 -15t17 -7q45 0 37 137h209q10 -150 -50 -244t-177 -94q-98 0 -189 94q-12 12 -26 29.5t-22.5 26t-17.5 15.5t-17 7q-45 0 -37 -137z" glyph-name="Itilde" horiz-adv-x="638" unicode="Ĩ"/><glyph d="M147 0v1036h265v-1036h-265zM115 1192h-209q-10 150 50 244t177 94q98 0 189 -94q12 -12 26 -29.5t22.5 -26t17.5 -15.5t18 -7q45 0 36 137h209q10 -150 -50 -244t-177 -94q-98 0 -188 94q-12 12 -26.5 29.5t-23 26t-17.5 15.5t-17 7q-45 0 -37 -137z" glyph-name="itilde" horiz-adv-x="559" unicode="ĩ"/><glyph d="M184 1434h271v-1434h-271v1434zM614 1802v-215h-589v215h589z" glyph-name="Imacron" horiz-adv-x="638" unicode="Ī"/><glyph d="M147 0v1036h265v-1036h-265zM573 1421v-215h-589v215h589z" glyph-name="imacron" horiz-adv-x="559" unicode="ī"/><glyph d="M184 1434h271v-1434h-271v1434zM473 1878l189 -78q-45 -123 -135.5 -194.5t-209 -71.5t-209 72.5t-135.5 193.5l191 78q57 -137 153 -137q99 0 156 137z" glyph-name="Ibreve" horiz-adv-x="638" unicode="Ĭ"/><glyph d="M147 0v1036h265v-1036h-265zM434 1497l189 -78q-45 -123 -135.5 -194.5t-209 -71.5t-208.5 72.5t-136 193.5l191 78q57 -137 154 -137q98 0 155 137z" glyph-name="ibreve" horiz-adv-x="559" unicode="ĭ"/><glyph d="M184 1434h271v-1434q-166 -150 -166 -250q0 -68 76 -67q27 0 59 10l33 -197q-43 -16 -111 -16q-115 0 -184.5 54t-69.5 155q0 154 184 311h-92v1434z" glyph-name="Iogonek" horiz-adv-x="638" unicode="Į"/><glyph d="M147 0v1036h265v-1036q-166 -150 -166 -250q0 -68 76 -67q27 0 59 10l33 -197q-43 -16 -111 -16q-115 0 -184.5 54t-69.5 155q0 154 184 311h-86zM278.5 1165q-67.5 0 -115.5 47.5t-48 115t48 114.5t115.5 47t115.5 -47t48 -114.5t-48 -115t-115.5 -47.5z" glyph-name="iogonek" horiz-adv-x="559" unicode="į"/><glyph d="M184 1434h271v-1434h-271v1434zM172 1694q0 61 42 103t105 42q61 0 104.5 -42t43.5 -103q0 -63 -43 -105.5t-105 -42.5q-63 0 -105 42.5t-42 105.5z" glyph-name="Idotaccent" horiz-adv-x="638" unicode="İ"/><glyph d="M147 0v1036h265v-1036h-265z" glyph-name="dotlessi" horiz-adv-x="559" unicode="ı"/><glyph d="M184 1434h271v-1434h-271v1434zM928 1180v254h880v-902q0 -244 -147.5 -399.5t-407.5 -155.5t-407.5 156t-147.5 399v170h269v-141q0 -154 75.5 -241t211 -87t210 87.5t74.5 240.5v619h-610z" glyph-name="IJ" horiz-adv-x="1974" unicode="Ĳ"/><glyph d="M147 0v1036h265v-1036h-265zM278.5 1165q-67.5 0 -115.5 47.5t-48 115t48 114.5t115.5 47t115.5 -47t48 -114.5t-48 -115t-115.5 -47.5zM512 -385l37 223q35 -10 65 -10q90 0 91 113v1095h266v-1116q0 -160 -84 -241.5t-232 -81.5q-75 0 -143 18zM838 1165 q-70 0 -117 47.5t-47 115t47 114.5t117 47q68 0 115.5 -47t47.5 -114.5t-47.5 -115t-115.5 -47.5z" glyph-name="ij" horiz-adv-x="1116" unicode="ĳ"/><glyph d="M307 1180v254h881v-902q0 -244 -147.5 -399.5t-407.5 -155.5t-407.5 156t-147.5 399v170h268v-141q0 -154 76 -241t211 -87t210 87.5t75 240.5v619h-611zM1085 1679l-127 -157l-210 145l-211 -145l-129 157l340 242z" glyph-name="Jcircumflex" horiz-adv-x="1353" unicode="Ĵ"/><glyph d="M-33 -385l37 223q35 -10 66 -10q90 0 90 113v1095h266v-1116q0 -160 -84 -241.5t-231 -81.5q-76 0 -144 18zM631 1298l-127 -157l-211 145l-211 -145l-129 157l340 242z" glyph-name="jcircumflex" horiz-adv-x="571" unicode="ĵ"/><glyph d="M1143 0l-398 592h-290v-592h-271v1434h271v-592h282l373 592h309l-446 -713l485 -721h-315zM745 -645l-94 86q51 45 89 99t38 93q-57 -14 -106 23t-49 98q0 53 37.5 92t101.5 39q68 0 113 -46t45 -140q-1 -184 -175 -344z" glyph-name="Kcommaaccent" horiz-adv-x="1474" unicode="Ķ"/><glyph d="M852 0l-246 403h-194v-403h-265v1434h265v-801h190l225 403h287l-289 -510l326 -526h-299zM588 -645l-94 86q51 45 89 99t38 93q-55 -14 -105.5 23t-50.5 98q0 53 38 92t101 39q68 0 113 -46t45 -140q0 -184 -174 -344z" glyph-name="kcommaaccent" horiz-adv-x="1185" unicode="ķ"/><glyph d="M184 0v1434h269v-1180h745v-254h-1014zM334 1513l-193 78l277 389l194 -155z" glyph-name="Lacute" horiz-adv-x="1255" unicode="Ĺ"/><glyph d="M147 0v1434h265v-1434h-265zM272 1513l-192 78l276 389l195 -155z" glyph-name="lacute" horiz-adv-x="559" unicode="ĺ"/><glyph d="M184 0v1434h269v-1180h745v-254h-1014zM666 -645l-95 86q51 45 89 99t38 93q-55 -14 -105 23t-50 98q0 53 37.5 92t101.5 39q68 0 113 -46t45 -140q0 -184 -174 -344z" glyph-name="Lcommaaccent" horiz-adv-x="1255" unicode="Ļ"/><glyph d="M260 -645l-94 86q51 45 89 99t38 93q-55 -14 -105.5 23t-50.5 98q0 53 38 92t101 39q68 0 113 -46t45 -140q0 -184 -174 -344zM147 0v1434h265v-1434h-265z" glyph-name="lcommaaccent" horiz-adv-x="559" unicode="ļ"/><glyph d="M184 0v1434h269v-1180h745v-254h-1014zM717 924l-94 86q51 45 89 99t38 93q-57 -14 -106.5 23t-49.5 98q0 53 38 92t101 39q68 0 113 -46t45 -140q0 -184 -174 -344z" glyph-name="Lcaron" horiz-adv-x="1257" unicode="Ľ"/><glyph d="M147 0v1434h265v-1434h-265zM616 924l-94 86q51 45 89 99t38 93q-55 -14 -105 23t-50 98q0 53 37.5 92t101.5 39q68 0 113 -46t45 -140q-1 -184 -175 -344z" glyph-name="lcaron" horiz-adv-x="747" unicode="ľ"/><glyph d="M184 0v1434h269v-1180h745v-254h-1014zM686 727q0 61 42 103t106 42q61 0 104 -42t43 -103q0 -63 -43 -105t-104 -42q-63 0 -105.5 42t-42.5 105z" glyph-name="Ldot" horiz-adv-x="1257" unicode="Ŀ"/><glyph d="M147 0v1434h265v-1434h-265zM479 725q0 61 42 103t106 42q61 0 104 -42t43 -103q0 -63 -43 -105t-104 -42q-63 0 -105.5 42t-42.5 105z" glyph-name="ldot" horiz-adv-x="763" unicode="ŀ"/><glyph d="M76 389v279l141 98v668h268v-482l271 191v-281l-271 -188v-420h746v-254h-1014v487z" glyph-name="Lslash" horiz-adv-x="1286" unicode="Ł"/><glyph d="M92 416v278l119 82v658h264v-471l117 81v-280l-117 -82v-682h-264v498z" glyph-name="lslash" horiz-adv-x="681" unicode="ł"/><glyph d="M453 0h-269v1434h275l749 -1014v1014h269v-1434h-273l-751 1012v-1012zM846 1513l-193 78l277 389l194 -155z" glyph-name="Nacute" horiz-adv-x="1660" unicode="Ń"/><glyph d="M868 0v588q0 121 -54 176t-140 55q-115 0 -188.5 -84t-73.5 -194v-541h-265v1036h265v-147q115 168 340 168q172 0 276.5 -106.5t104.5 -325.5v-625h-265zM655 1133l-192 77l276 389l195 -155z" glyph-name="nacute" horiz-adv-x="1265" unicode="ń"/><glyph d="M453 0h-269v1434h275l749 -1014v1014h269v-1434h-273l-751 1012v-1012zM807 -645l-94 86q51 45 89 99t38 93q-57 -14 -106.5 23t-49.5 98q0 53 38 92t101 39q68 0 113 -46t45 -140q0 -184 -174 -344z" glyph-name="Ncommaaccent" horiz-adv-x="1660" unicode="Ņ"/><glyph d="M868 0v588q0 121 -54 176t-140 55q-115 0 -188.5 -84t-73.5 -194v-541h-265v1036h265v-147q115 168 340 168q172 0 276.5 -106.5t104.5 -325.5v-625h-265zM623 -645l-95 86q51 45 89 99t38 93q-57 -14 -106 23t-49 98q0 53 37.5 92t101.5 39q68 0 113 -46t45 -140 q0 -184 -174 -344z" glyph-name="ncommaaccent" horiz-adv-x="1265" unicode="ņ"/><glyph d="M453 0h-269v1434h275l749 -1014v1014h269v-1434h-273l-751 1012v-1012zM1042 1915l127 -158l-338 -244l-339 244l129 158l210 -148z" glyph-name="Ncaron" horiz-adv-x="1660" unicode="Ň"/><glyph d="M868 0v588q0 121 -54 176t-140 55q-115 0 -188.5 -84t-73.5 -194v-541h-265v1036h265v-147q115 168 340 168q172 0 276.5 -106.5t104.5 -325.5v-625h-265zM852 1534l127 -158l-338 -243l-340 243l129 158l211 -148z" glyph-name="ncaron" horiz-adv-x="1265" unicode="ň"/><glyph d="M1221 0v588q0 121 -54.5 176t-140.5 55q-115 0 -188.5 -84t-73.5 -194v-541h-264v1036h264v-147q115 168 340 168q172 0 276.5 -106.5t104.5 -325.5v-625h-264zM213 780l-123 107q162 158 162 272q-74 -23 -136.5 23.5t-62.5 126.5q0 68 47 118t125 50q84 0 146.5 -65.5 t62.5 -188.5q0 -127 -65.5 -246t-155.5 -197z" glyph-name="napostrophe" horiz-adv-x="1619" unicode="ŉ"/><glyph d="M453 0h-269v1434h275l749 -1014v1014h269v-1514q0 -164 -88.5 -248t-241.5 -84q-98 0 -195 29l37 229q68 -18 115 -18q104 0 104 113v53l-755 1018v-1012z" glyph-name="Eng" horiz-adv-x="1660" unicode="Ŋ"/><glyph d="M674 -385l37 223q35 -10 65 -10q90 0 90 113v647q0 121 -54 176t-138 55q-115 0 -188.5 -84t-73.5 -194v-541h-265v1036h265v-147q115 168 340 168q172 0 276.5 -106.5t104.5 -325.5v-705q0 -160 -84 -241.5t-232 -81.5q-75 0 -143 18z" glyph-name="eng" horiz-adv-x="1265" unicode="ŋ"/><glyph d="M102 716.5q0 317.5 209 528.5t525 211q313 0 522 -211t209 -528.5t-209 -528.5t-522 -211q-315 0 -524.5 211t-209.5 528.5zM385 717q0 -207 129 -345.5t321.5 -138.5t320.5 138.5t128 345.5t-128 344t-320.5 137t-321.5 -137t-129 -344zM1130 1802v-215h-589v215h589z " glyph-name="Omacron" unicode="Ō"/><glyph d="M94 516q0 231 153.5 386t385 155t385 -154.5t153.5 -386.5q0 -229 -153.5 -384t-385 -155t-385 155t-153.5 384zM358 516q0 -129 77 -215t198 -86t196.5 85t75.5 216q0 133 -75.5 218t-196.5 85t-197 -85t-78 -218zM928 1421v-215h-590v215h590z" glyph-name="omacron" horiz-adv-x="1265" unicode="ō"/><glyph d="M102 716.5q0 317.5 209 528.5t525 211q313 0 522 -211t209 -528.5t-209 -528.5t-522 -211q-315 0 -524.5 211t-209.5 528.5zM385 717q0 -207 129 -345.5t321.5 -138.5t320.5 138.5t128 345.5t-128 344t-320.5 137t-321.5 -137t-129 -344zM991 1878l189 -78 q-45 -123 -135.5 -194.5t-209 -71.5t-208.5 72.5t-135 193.5l190 78q57 -137 154 -137q98 0 155 137z" glyph-name="Obreve" unicode="Ŏ"/><glyph d="M94 516q0 231 153.5 386t385 155t385 -154.5t153.5 -386.5q0 -229 -153.5 -384t-385 -155t-385 155t-153.5 384zM358 516q0 -129 77 -215t198 -86t196.5 85t75.5 216q0 133 -75.5 218t-196.5 85t-197 -85t-78 -218zM788 1497l189 -78q-45 -123 -135 -194.5t-209 -71.5 t-209 72.5t-135 193.5l190 78q57 -137 154 -137q98 0 155 137z" glyph-name="obreve" horiz-adv-x="1265" unicode="ŏ"/><glyph d="M102 716.5q0 317.5 209 528.5t525 211q313 0 522 -211t209 -528.5t-209 -528.5t-522 -211q-315 0 -524.5 211t-209.5 528.5zM385 717q0 -207 129 -345.5t321.5 -138.5t320.5 138.5t128 345.5t-128 344t-320.5 137t-321.5 -137t-129 -344zM670 1513l-191 78l275 389 l196 -155zM1102 1513l-191 78l275 389l196 -155z" glyph-name="Ohungarumlaut" unicode="Ő"/><glyph d="M94 516q0 231 153.5 386t385 155t385 -154.5t153.5 -386.5q0 -229 -153.5 -384t-385 -155t-385 155t-153.5 384zM358 516q0 -129 77 -215t198 -86t196.5 85t75.5 216q0 133 -75.5 218t-196.5 85t-197 -85t-78 -218zM467 1133l-191 77l275 389l197 -155zM899 1133l-190 77 l274 389l197 -155z" glyph-name="ohungarumlaut" horiz-adv-x="1265" unicode="ő"/><glyph d="M1972 0h-1054q-389 0 -602.5 196.5t-213.5 520t213 520.5t603 197h1054v-250h-749v-344h598v-242h-598v-348h749v-250zM891 250h61v934h-61q-240 0 -374 -127t-134 -340t134 -340t374 -127z" glyph-name="OE" horiz-adv-x="2078" unicode="Œ"/><glyph d="M94 516q0 231 153.5 386t385.5 155q248 0 403 -176q154 176 391 176q227 0 367.5 -152.5t140.5 -349.5q0 -63 -12 -117h-741q23 -109 97.5 -171t193.5 -62q156 0 264 110l143 -172q-166 -166 -420 -166q-266 0 -422 177q-160 -176 -405 -177q-231 0 -385 155t-154 384z M358 516q0 -129 77 -215t198 -86t196.5 85t75.5 216q0 133 -75.5 218t-196.5 85t-197 -85t-78 -218zM1431.5 834q-94.5 0 -160 -56.5t-87.5 -152.5h485q-18 92 -80.5 150.5t-157 58.5z" glyph-name="oe" horiz-adv-x="2023" unicode="œ"/><glyph d="M184 1434h643q248 0 387.5 -141.5t139.5 -352.5q0 -147 -71 -265t-200 -177l344 -498h-321l-305 446h-348v-446h-269v1434zM782 692q147 0 219 65.5t72 182.5q0 115 -71.5 180.5t-219.5 65.5h-329v-494h329zM778 1513l-192 78l276 389l195 -155z" glyph-name="Racute" horiz-adv-x="1495" unicode="Ŕ"/><glyph d="M412 1036v-366q47 145 149.5 258.5t249.5 128.5v-309q-152 -23 -275.5 -138.5t-123.5 -261.5v-348h-265v1036h265zM494 1133l-193 77l277 389l194 -155z" glyph-name="racute" horiz-adv-x="864" unicode="ŕ"/><glyph d="M184 0v1434h643q248 0 387.5 -141.5t139.5 -352.5q0 -147 -71 -265t-200 -177l344 -498h-321l-305 446h-348v-446h-269zM453 692h329q147 0 219 65.5t72 182.5q0 115 -71.5 180.5t-219.5 65.5h-329v-494zM723 -645l-94 86q51 45 89 99t38 93q-55 -14 -105.5 23t-50.5 98 q0 53 38 92t101 39q68 0 113 -46t45 -140q0 -184 -174 -344z" glyph-name="Rcommaaccent" horiz-adv-x="1495" unicode="Ŗ"/><glyph d="M412 1036v-366q47 145 149.5 258.5t249.5 128.5v-309q-152 -23 -275.5 -138.5t-123.5 -261.5v-348h-265v1036h265zM256 -645l-94 86q51 45 89 99t38 93q-55 -14 -105.5 23t-50.5 98q0 53 38 92t101 39q68 0 113 -46t45 -140q0 -184 -174 -344z" glyph-name="rcommaaccent" horiz-adv-x="864" unicode="ŗ"/><glyph d="M184 1434h643q248 0 387.5 -141.5t139.5 -352.5q0 -147 -71 -265t-200 -177l344 -498h-321l-305 446h-348v-446h-269v1434zM782 692q147 0 219 65.5t72 182.5q0 115 -71.5 180.5t-219.5 65.5h-329v-494h329zM977 1915l127 -158l-338 -244l-340 244l129 158l211 -148z" glyph-name="Rcaron" horiz-adv-x="1495" unicode="Ř"/><glyph d="M412 1036v-366q47 145 149.5 258.5t249.5 128.5v-309q-152 -23 -275.5 -138.5t-123.5 -261.5v-348h-265v1036h265zM690 1534l127 -158l-338 -243l-340 243l129 158l211 -148z" glyph-name="rcaron" horiz-adv-x="864" unicode="ř"/><glyph d="M104 371l269 69q33 -227 342 -227q135 0 208.5 44t73.5 120q0 27 -9 50.5t-34.5 41.5t-44 31.5t-63.5 29t-65.5 22.5t-76 22.5t-71.5 19.5q-246 70 -379 172t-133 289q0 184 147.5 292.5t393.5 108.5q252 0 413.5 -114.5t161.5 -325.5v-31h-268v10q0 111 -83 167.5 t-227 56.5q-125 0 -192.5 -44.5t-67.5 -117.5q0 -37 18.5 -66.5t43 -49t74 -40t83 -32t101.5 -29.5q78 -23 127 -38.5t114.5 -41t105.5 -49t85 -58.5t68.5 -72.5t40 -89t16.5 -112.5q0 -193 -152.5 -297.5t-412.5 -104.5q-250 0 -416 100.5t-191 293.5zM678 1513l-193 78 l277 389l194 -155z" glyph-name="Sacute" horiz-adv-x="1378" unicode="Ś"/><glyph d="M92 250l248 76q35 -141 221 -142q180 0 180 90q0 18 -8 35t-26.5 29t-36 21.5t-47 17.5t-50 13t-53.5 13.5t-49 12.5q-176 45 -273.5 120.5t-97.5 211.5q0 145 115 227t309 82q197 0 326 -86t129 -242v-12h-256v4q0 61 -51 95t-144 34q-80 0 -121.5 -26.5t-41.5 -67.5 q0 -14 4 -25.5t13 -22t18.5 -18.5t26.5 -15t31.5 -12.5t38 -12.5t40 -11t45 -11t45.5 -12q68 -18 112.5 -32.5t100 -42t88.5 -59t55.5 -82t22.5 -113.5q0 -152 -118 -231t-321 -79q-193 0 -318.5 70t-156.5 203zM543 1133l-193 77l277 389l194 -155z" glyph-name="sacute" horiz-adv-x="1097" unicode="ś"/><glyph d="M104 371l269 69q33 -227 342 -227q135 0 208.5 44t73.5 120q0 27 -9 50.5t-34.5 41.5t-44 31.5t-63.5 29t-65.5 22.5t-76 22.5t-71.5 19.5q-246 70 -379 172t-133 289q0 184 147.5 292.5t393.5 108.5q252 0 413.5 -114.5t161.5 -325.5v-31h-268v10q0 111 -83 167.5 t-227 56.5q-125 0 -192.5 -44.5t-67.5 -117.5q0 -37 18.5 -66.5t43 -49t74 -40t83 -32t101.5 -29.5q78 -23 127 -38.5t114.5 -41t105.5 -49t85 -58.5t68.5 -72.5t40 -89t16.5 -112.5q0 -193 -152.5 -297.5t-412.5 -104.5q-250 0 -416 100.5t-191 293.5zM999 1679l-127 -157 l-210 145l-211 -145l-129 157l340 242z" glyph-name="Scircumflex" horiz-adv-x="1378" unicode="Ŝ"/><glyph d="M92 250l248 76q35 -141 221 -142q180 0 180 90q0 18 -8 35t-26.5 29t-36 21.5t-47 17.5t-50 13t-53.5 13.5t-49 12.5q-176 45 -273.5 120.5t-97.5 211.5q0 145 115 227t309 82q197 0 326 -86t129 -242v-12h-256v4q0 61 -51 95t-144 34q-80 0 -121.5 -26.5t-41.5 -67.5 q0 -14 4 -25.5t13 -22t18.5 -18.5t26.5 -15t31.5 -12.5t38 -12.5t40 -11t45 -11t45.5 -12q68 -18 112.5 -32.5t100 -42t88.5 -59t55.5 -82t22.5 -113.5q0 -152 -118 -231t-321 -79q-193 0 -318.5 70t-156.5 203zM864 1298l-127 -157l-211 145l-211 -145l-129 157l340 242z " glyph-name="scircumflex" horiz-adv-x="1097" unicode="ŝ"/><glyph d="M104 371l269 69q33 -227 342 -227q135 0 208.5 44t73.5 120q0 27 -9 50.5t-34.5 41.5t-44 31.5t-63.5 29t-65.5 22.5t-76 22.5t-71.5 19.5q-246 70 -379 172t-133 289q0 184 147.5 292.5t393.5 108.5q252 0 413.5 -114.5t161.5 -325.5v-31h-268v10q0 111 -83 167.5 t-227 56.5q-125 0 -192.5 -44.5t-67.5 -117.5q0 -37 18.5 -66.5t43 -49t74 -40t83 -32t101.5 -29.5q78 -23 127 -38.5t114.5 -41t105.5 -49t85 -58.5t68.5 -72.5t40 -89t16.5 -112.5q0 -180 -135 -283.5t-367 -115.5l-26 -70q90 -16 138 -72.5t48 -136.5q0 -96 -68.5 -157.5 t-191.5 -61.5q-121 0 -232 55l80 178q74 -43 135 -43q82 0 82 54q0 70 -123 61l-38 59l59 134q-221 14 -365.5 114.5t-167.5 276.5z" glyph-name="Scedilla" horiz-adv-x="1378" unicode="Ş"/><glyph d="M92 250l248 76q35 -141 221 -142q180 0 180 90q0 18 -8 35t-26.5 29t-36 21.5t-47 17.5t-50 13t-53.5 13.5t-49 12.5q-176 45 -273.5 120.5t-97.5 211.5q0 145 115 227t309 82q197 0 326 -86t129 -242v-12h-256v4q0 61 -51 95t-144 34q-80 0 -121.5 -26.5t-41.5 -67.5 q0 -14 4 -25.5t13 -22t18.5 -18.5t26.5 -15t31.5 -12.5t38 -12.5t40 -11t45 -11t45.5 -12q68 -18 112.5 -32.5t100 -42t88.5 -59t55.5 -82t22.5 -113.5q0 -139 -99.5 -217t-275.5 -90l-27 -70q90 -16 138.5 -72.5t48.5 -136.5q0 -96 -69 -157.5t-192 -61.5q-121 0 -231 55 l80 178q74 -43 135 -43q82 0 82 54q0 70 -123 61l-39 59l60 134q-349 30 -402 270z" glyph-name="scedilla" horiz-adv-x="1097" unicode="ş"/><glyph d="M104 371l269 69q33 -227 342 -227q135 0 208.5 44t73.5 120q0 27 -9 50.5t-34.5 41.5t-44 31.5t-63.5 29t-65.5 22.5t-76 22.5t-71.5 19.5q-246 70 -379 172t-133 289q0 184 147.5 292.5t393.5 108.5q252 0 413.5 -114.5t161.5 -325.5v-31h-268v10q0 111 -83 167.5 t-227 56.5q-125 0 -192.5 -44.5t-67.5 -117.5q0 -37 18.5 -66.5t43 -49t74 -40t83 -32t101.5 -29.5q78 -23 127 -38.5t114.5 -41t105.5 -49t85 -58.5t68.5 -72.5t40 -89t16.5 -112.5q0 -193 -152.5 -297.5t-412.5 -104.5q-250 0 -416 100.5t-191 293.5zM872 1915l127 -158 l-337 -244l-340 244l129 158l211 -148z" glyph-name="Scaron" horiz-adv-x="1378" unicode="Š"/><glyph d="M92 250l248 76q35 -141 221 -142q180 0 180 90q0 18 -8 35t-26.5 29t-36 21.5t-47 17.5t-50 13t-53.5 13.5t-49 12.5q-176 45 -273.5 120.5t-97.5 211.5q0 145 115 227t309 82q197 0 326 -86t129 -242v-12h-256v4q0 61 -51 95t-144 34q-80 0 -121.5 -26.5t-41.5 -67.5 q0 -14 4 -25.5t13 -22t18.5 -18.5t26.5 -15t31.5 -12.5t38 -12.5t40 -11t45 -11t45.5 -12q68 -18 112.5 -32.5t100 -42t88.5 -59t55.5 -82t22.5 -113.5q0 -152 -118 -231t-321 -79q-193 0 -318.5 70t-156.5 203zM737 1534l127 -158l-338 -243l-340 243l129 158l211 -148z " glyph-name="scaron" horiz-adv-x="1097" unicode="š"/><glyph d="M57 1180v254h1205v-254h-467v-1180h-68l-16 -90q88 -16 136 -72.5t48 -136.5q0 -96 -68.5 -157.5t-191.5 -61.5q-121 0 -232 55l80 178q74 -43 135 -43q82 0 82 54q0 70 -122 61l-39 59l55 154h-70v1180h-467z" glyph-name="Tcommaaccent" horiz-adv-x="1318" unicode="Ţ"/><glyph d="M45 801v235h186v271l265 88v-359h344v-235h-344v-414q0 -168 133 -168q68 0 172 57l88 -215q-133 -84 -299 -84h-12l-25 -67q90 -16 138 -72.5t48 -136.5q0 -96 -68.5 -157.5t-191.5 -61.5q-121 0 -231 55l80 178q74 -43 135 -43q82 0 82 54q0 70 -123 61l-39 59l68 152 q-219 70 -220 405v398h-186z" glyph-name="tcommaaccent" horiz-adv-x="911" unicode="ţ"/><glyph d="M57 1180v254h1205v-254h-467v-1180h-271v1180h-467zM870 1915l127 -158l-338 -244l-340 244l130 158l210 -148z" glyph-name="Tcaron" horiz-adv-x="1318" unicode="Ť"/><glyph d="M45 801v235h186v271l265 88v-359h344v-235h-344v-414q0 -168 133 -168q68 0 172 57l88 -215q-133 -84 -299 -84q-358 0 -359 426v398h-186zM707 1120l-95 86q51 45 89 99.5t38 93.5q-55 -14 -105 22.5t-50 98.5q0 53 37.5 92t101.5 39q68 0 113 -46t45 -141 q0 -184 -174 -344z" glyph-name="tcaron" horiz-adv-x="911" unicode="ť"/><glyph d="M63 1180v254h1205v-254h-467v-371h225v-231h-225v-578h-271v578h-225v231h225v371h-467z" glyph-name="Tbar" horiz-adv-x="1333" unicode="Ŧ"/><glyph d="M51 801v235h187v271l264 88v-359h344v-235h-344v-139h260v-197h-260v-78q0 -168 133 -168q68 0 172 57l88 -215q-133 -84 -299 -84q-358 0 -358 426v62h-150v197h150v139h-187z" glyph-name="tbar" horiz-adv-x="921" unicode="ŧ"/><glyph d="M1171 1434h271v-828q0 -276 -169 -452.5t-472 -176.5q-301 0 -469 176.5t-168 452.5v828h270v-803q0 -193 96.5 -295.5t270.5 -102.5q178 0 274 102.5t96 295.5v803zM639 1573h-209q-10 150 50.5 244t176.5 94q98 0 189 -94q12 -12 26.5 -30t22.5 -26t17.5 -15t17.5 -7 q45 0 37 137h209q10 -150 -50.5 -244t-177.5 -94q-98 0 -188 94q-12 12 -26.5 29.5t-23 26t-17.5 15.5t-17 7q-45 0 -37 -137z" glyph-name="Utilde" horiz-adv-x="1605" unicode="Ũ"/><glyph d="M399 1036v-587q0 -121 55.5 -177.5t139.5 -56.5q115 0 188.5 85t73.5 196v540h264v-1036h-264v147q-115 -170 -340 -170q-172 0 -276.5 108t-104.5 327v624h264zM463 1192h-209q-10 150 50.5 244t176.5 94q98 0 189 -94q12 -12 26.5 -29.5t22.5 -26t17 -15.5t18 -7 q45 0 37 137h208q10 -150 -50 -244t-177 -94q-98 0 -188 94q-12 12 -26.5 29.5t-23 26t-17.5 15.5t-17 7q-45 0 -37 -137z" glyph-name="utilde" horiz-adv-x="1265" unicode="ũ"/><glyph d="M1171 1434h271v-828q0 -276 -169 -452.5t-472 -176.5q-301 0 -469 176.5t-168 452.5v828h270v-803q0 -193 96.5 -295.5t270.5 -102.5q178 0 274 102.5t96 295.5v803zM1096 1802v-215h-590v215h590z" glyph-name="Umacron" horiz-adv-x="1605" unicode="Ū"/><glyph d="M399 1036v-587q0 -121 55.5 -177.5t139.5 -56.5q115 0 188.5 85t73.5 196v540h264v-1036h-264v147q-115 -170 -340 -170q-172 0 -276.5 108t-104.5 327v624h264zM922 1421v-215h-590v215h590z" glyph-name="umacron" horiz-adv-x="1265" unicode="ū"/><glyph d="M1171 1434h271v-828q0 -276 -169 -452.5t-472 -176.5q-301 0 -469 176.5t-168 452.5v828h270v-803q0 -193 96.5 -295.5t270.5 -102.5q178 0 274 102.5t96 295.5v803zM956 1878l189 -78q-45 -123 -135 -194.5t-209 -71.5t-209 72.5t-135 193.5l190 78q57 -137 154 -137 q98 0 155 137z" glyph-name="Ubreve" horiz-adv-x="1605" unicode="Ŭ"/><glyph d="M399 1036v-587q0 -121 55.5 -177.5t139.5 -56.5q115 0 188.5 85t73.5 196v540h264v-1036h-264v147q-115 -170 -340 -170q-172 0 -276.5 108t-104.5 327v624h264zM782 1497l189 -78q-45 -123 -135.5 -194.5t-209 -71.5t-208.5 72.5t-135 193.5l190 78q57 -137 154 -137 q98 0 155 137z" glyph-name="ubreve" horiz-adv-x="1265" unicode="ŭ"/><glyph d="M1171 1434h271v-828q0 -276 -169 -452.5t-472 -176.5q-301 0 -469 176.5t-168 452.5v828h270v-803q0 -193 96.5 -295.5t270.5 -102.5q178 0 274 102.5t96 295.5v803zM549 1759.5q0 106.5 73.5 179t178.5 72.5q106 0 181 -72.5t75 -179t-74 -179.5t-182 -73 q-106 0 -179 73t-73 179.5zM711 1759q0 -39 26.5 -65.5t63.5 -26.5q39 0 65.5 26.5t26.5 65.5t-26.5 65.5t-65.5 26.5q-37 0 -63.5 -26.5t-26.5 -65.5z" glyph-name="Uring" horiz-adv-x="1605" unicode="Ů"/><glyph d="M399 1036v-587q0 -121 55.5 -177.5t139.5 -56.5q115 0 188.5 85t73.5 196v540h264v-1036h-264v147q-115 -170 -340 -170q-172 0 -276.5 108t-104.5 327v624h264zM375 1378.5q0 106.5 73.5 179t178.5 72.5q106 0 181 -72.5t75 -179t-74 -179.5t-182 -73q-106 0 -179 73 t-73 179.5zM537 1378q0 -39 26.5 -65.5t63.5 -26.5q39 0 65.5 26.5t26.5 65.5t-26.5 65.5t-65.5 26.5q-37 0 -63.5 -26.5t-26.5 -65.5z" glyph-name="uring" horiz-adv-x="1265" unicode="ů"/><glyph d="M1171 1434h271v-828q0 -276 -169 -452.5t-472 -176.5q-301 0 -469 176.5t-168 452.5v828h270v-803q0 -193 96.5 -295.5t270.5 -102.5q178 0 274 102.5t96 295.5v803zM637 1513l-191 78l275 389l197 -155zM1069 1513l-190 78l274 389l197 -155z" glyph-name="Uhungarumlaut" horiz-adv-x="1605" unicode="Ű"/><glyph d="M399 1036v-587q0 -121 55.5 -177.5t139.5 -56.5q115 0 188.5 85t73.5 196v540h264v-1036h-264v147q-115 -170 -340 -170q-172 0 -276.5 108t-104.5 327v624h264zM461 1133l-191 77l275 389l196 -155zM893 1133l-191 77l275 389l197 -155z" glyph-name="uhungarumlaut" horiz-adv-x="1265" unicode="ű"/><glyph d="M1171 1434h271v-828q0 -201 -92.5 -352.5t-262.5 -222.5q-201 -168 -200 -281q0 -68 76 -67q27 0 59 10l33 -197q-45 -16 -111 -16q-115 0 -184.5 54t-69.5 155q0 145 160 291q-16 -2 -49 -3q-301 0 -469 176.5t-168 452.5v828h270v-803q0 -193 96.5 -295.5t270.5 -102.5 q178 0 274 102.5t96 295.5v803z" glyph-name="Uogonek" horiz-adv-x="1605" unicode="Ų"/><glyph d="M399 1036v-587q0 -121 55.5 -177.5t139.5 -56.5q115 0 188.5 85t73.5 196v540h264v-1036q-166 -150 -166 -250q0 -68 76 -67q27 0 60 10l32 -197q-43 -16 -110 -16q-115 0 -184.5 54t-69.5 155q0 154 184 311h-86v147q-115 -170 -340 -170q-172 0 -276.5 108t-104.5 327 v624h264z" glyph-name="uogonek" horiz-adv-x="1265" unicode="ų"/><glyph d="M774 0h-313l-408 1434h289l289 -1051l307 1051h289l305 -1051l291 1051h288l-407 -1434h-315l-308 1055zM1421 1679l-127 -157l-211 145l-211 -145l-129 157l340 242z" glyph-name="Wcircumflex" horiz-adv-x="2164" unicode="Ŵ"/><glyph d="M664 0h-316l-295 1036h283l182 -741l209 741h279l206 -741l185 741h282l-295 -1036h-315l-205 721zM1206 1298l-127 -157l-211 145l-211 -145l-129 157l340 242z" glyph-name="wcircumflex" horiz-adv-x="1732" unicode="ŵ"/><glyph d="M336 1434l395 -660l395 660h328l-588 -934v-500h-270v500l-586 934h326zM1071 1679l-127 -157l-211 145l-211 -145l-129 157l340 242z" glyph-name="Ycircumflex" horiz-adv-x="1464" unicode="Ŷ"/><glyph d="M176 -426l-98 240q240 80 356 204l-401 1018h289l262 -741l268 741h289l-359 -897q-190 -479 -606 -565zM928 1298l-127 -157l-211 145l-211 -145l-129 157l340 242z" glyph-name="ycircumflex" horiz-adv-x="1169" unicode="ŷ"/><glyph d="M336 1434l395 -660l395 660h328l-588 -934v-500h-270v500l-586 934h326zM391 1694q0 61 42 103t105.5 42t105.5 -42t42 -103q0 -63 -42 -105.5t-105.5 -42.5t-105.5 42.5t-42 105.5zM780 1694q0 61 42 103t106 42q61 0 104 -42t43 -103q0 -63 -43 -105.5t-104 -42.5 q-63 0 -105.5 42.5t-42.5 105.5z" glyph-name="Ydieresis" horiz-adv-x="1464" unicode="Ÿ"/><glyph d="M113 1180v254h1157v-226l-815 -954h815v-254h-1182v225l815 955h-790zM709 1513l-193 78l277 389l194 -155z" glyph-name="Zacute" horiz-adv-x="1368" unicode="Ź"/><glyph d="M98 799v237h865v-184l-514 -616h514v-236h-865v182l512 617h-512zM547 1133l-193 77l277 389l194 -155z" glyph-name="zacute" horiz-adv-x="1058" unicode="ź"/><glyph d="M113 1180v254h1157v-226l-815 -954h815v-254h-1182v225l815 955h-790zM545 1694q0 61 42 103t105 42q61 0 104.5 -42t43.5 -103q0 -63 -43 -105.5t-105 -42.5q-63 0 -105 42.5t-42 105.5z" glyph-name="Zdotaccent" horiz-adv-x="1368" unicode="Ż"/><glyph d="M98 799v237h865v-184l-514 -616h514v-236h-865v182l512 617h-512zM383 1313q0 61 42 103t105 42q61 0 104.5 -42t43.5 -103q0 -63 -43 -105.5t-105 -42.5q-63 0 -105 42.5t-42 105.5z" glyph-name="zdotaccent" horiz-adv-x="1058" unicode="ż"/><glyph d="M113 1180v254h1157v-226l-815 -954h815v-254h-1182v225l815 955h-790zM903 1915l127 -158l-338 -244l-340 244l129 158l211 -148z" glyph-name="Zcaron" horiz-adv-x="1368" unicode="Ž"/><glyph d="M98 799v237h865v-184l-514 -616h514v-236h-865v182l512 617h-512zM741 1534l127 -158l-338 -243l-340 243l129 158l211 -148z" glyph-name="zcaron" horiz-adv-x="1058" unicode="ž"/><glyph d="M119 662l20 235h185l14 158q18 205 122.5 303t270.5 98q139 0 266 -57l-82 -215q-80 33 -149 33q-72 0 -115 -37t-49 -133l-12 -150h317l-20 -235h-318l-57 -676q-18 -205 -122.5 -302.5t-270.5 -97.5q-137 0 -260 56l82 213q82 -29 143 -29q72 0 115 37t49 131l55 668 h-184z" glyph-name="florin" horiz-adv-x="1034" unicode="ƒ"/><glyph d="M1458 1513l-192 78l276 389l195 -155zM899 1434h1088v-250h-748v-344h596v-242h-596v-348h748v-250h-1012v272h-506l-166 -272h-315zM616 514h359v588z" glyph-name="AEacute" horiz-adv-x="2093" unicode="Ǽ"/><glyph d="M1602 317l141 -174q-162 -166 -420 -166q-268 0 -424 179q-205 -178 -434 -179q-170 0 -273.5 87.5t-103.5 244.5q0 164 109.5 256t291.5 92q145 0 287 -61q-8 236 -244 235q-131 0 -292 -90l-107 201q188 115 420 115q254 0 375 -146q150 145 362 146 q227 0 368.5 -152.5t141.5 -349.5q0 -53 -14 -117h-742q23 -109 98 -171t193 -62q152 -1 267 112zM520 172q78 0 157 40t130 103q-20 57 -29 109q-106 55 -229 55q-92 0 -145.5 -42t-53.5 -115q0 -72 47 -111t123 -39zM1294.5 834q-94.5 0 -160 -56.5t-87.5 -152.5h485 q-18 92 -80.5 150.5t-157 58.5zM956 1133l-192 77l276 389l195 -155z" glyph-name="aeacute" horiz-adv-x="1886" unicode="ǽ"/><glyph d="M856 1513l-192 78l276 389l195 -155zM109 717q0 317 207.5 528t523.5 211q209 0 381 -102l63 80h264l-168 -209q190 -207 191 -508q0 -317 -209 -528.5t-522 -211.5q-211 0 -381 101l-62 -78h-262l164 205q-190 211 -190 512zM389 717q0 -168 86 -293l578 721 q-98 55 -213 55q-193 0 -322 -138t-129 -345zM1290 717q0 164 -86 289l-577 -719q96 -53 213 -54q193 0 321.5 138.5t128.5 345.5z" glyph-name="Oslashacute" horiz-adv-x="1679" unicode="Ǿ"/><glyph d="M96 516q0 231 153.5 386t385.5 155q139 0 258 -62l31 39h225l-115 -147q141 -152 142 -371q0 -229 -155 -384t-386 -155q-139 0 -258 62l-29 -39h-225l113 147q-140 150 -140 369zM354 516q0 -92 39 -166l352 455q-51 23 -110 22q-123 0 -201 -87t-80 -224zM915 516 q0 92 -38 166l-353 -453q47 -20 111 -20q123 0 201.5 87t78.5 220zM651 1133l-192 77l276 389l195 -155z" glyph-name="oslashacute" horiz-adv-x="1269" unicode="ǿ"/><glyph d="M104 371l269 69q33 -227 342 -227q135 0 208.5 44t73.5 120q0 27 -9 50.5t-34.5 41.5t-44 31.5t-63.5 29t-65.5 22.5t-76 22.5t-71.5 19.5q-246 70 -379 172t-133 289q0 184 147.5 292.5t393.5 108.5q252 0 413.5 -114.5t161.5 -325.5v-31h-268v10q0 111 -83 167.5 t-227 56.5q-125 0 -192.5 -44.5t-67.5 -117.5q0 -37 18.5 -66.5t43 -49t74 -40t83 -32t101.5 -29.5q78 -23 127 -38.5t114.5 -41t105.5 -49t85 -58.5t68.5 -72.5t40 -89t16.5 -112.5q0 -193 -152.5 -297.5t-412.5 -104.5q-250 0 -416 100.5t-191 293.5zM684 -645l-94 86 q51 45 89 99t38 93q-57 -14 -106.5 23t-49.5 98q0 53 38 92t101 39q68 0 113 -46t45 -140q0 -184 -174 -344z" glyph-name="Scommaaccent" horiz-adv-x="1378" unicode="Ș"/><glyph d="M92 250l248 76q35 -141 221 -142q180 0 180 90q0 18 -8 35t-26.5 29t-36 21.5t-47 17.5t-50 13t-53.5 13.5t-49 12.5q-176 45 -273.5 120.5t-97.5 211.5q0 145 115 227t309 82q197 0 326 -86t129 -242v-12h-256v4q0 61 -51 95t-144 34q-80 0 -121.5 -26.5t-41.5 -67.5 q0 -14 4 -25.5t13 -22t18.5 -18.5t26.5 -15t31.5 -12.5t38 -12.5t40 -11t45 -11t45.5 -12q68 -18 112.5 -32.5t100 -42t88.5 -59t55.5 -82t22.5 -113.5q0 -152 -118 -231t-321 -79q-193 0 -318.5 70t-156.5 203zM543 -645l-94 86q51 45 88.5 99t37.5 93q-55 -14 -105 23 t-50 98q0 53 38 92t101 39q68 0 113 -46t45 -140q0 -184 -174 -344z" glyph-name="scommaaccent" horiz-adv-x="1097" unicode="ș"/><glyph d="M57 1180v254h1205v-254h-467v-1180h-271v1180h-467zM637 -645l-94 86q51 45 89 99t38 93q-55 -14 -105.5 23t-50.5 98q0 53 38 92t101 39q68 0 113 -46t45 -140q0 -184 -174 -344z" glyph-name="uni021A" horiz-adv-x="1318" unicode="Ț"/><glyph d="M45 801v235h186v271l265 88v-359h344v-235h-344v-414q0 -168 133 -168q68 0 172 57l88 -215q-133 -84 -299 -84q-358 0 -359 426v398h-186zM528 -645l-94 86q51 45 89 99t38 93q-57 -14 -106 23t-49 98q0 53 37.5 92t101.5 39q68 0 112.5 -46t44.5 -140q0 -184 -174 -344 z" glyph-name="uni021B" horiz-adv-x="911" unicode="ț"/><glyph d="M700 1679l-127 -157l-211 145l-210 -145l-129 157l339 242z" glyph-name="circumflex" horiz-adv-x="735" unicode="ˆ"/><glyph d="M573 1915l127 -158l-338 -244l-339 244l129 158l210 -148z" glyph-name="caron" horiz-adv-x="735" unicode="ˇ"/><glyph d="M510 1878l188 -78q-45 -123 -135 -194.5t-208.5 -71.5t-209 72.5t-135.5 193.5l191 78q57 -137 153 -137q99 0 156 137z" glyph-name="breve" horiz-adv-x="743" unicode="˘"/><glyph d="M-8 1694q0 61 42 103t105 42q61 0 104.5 -42t43.5 -103q0 -63 -43 -105.5t-105 -42.5q-63 0 -105 42.5t-42 105.5z" glyph-name="dotaccent" horiz-adv-x="288" unicode="˙"/><glyph d="M-12 1759.5q0 106.5 73.5 179t178.5 72.5q106 0 181 -72.5t75 -179t-74 -179.5t-182 -73q-106 0 -179 73t-73 179.5zM150 1759q0 -39 26.5 -65.5t63.5 -26.5q39 0 65.5 26.5t26.5 65.5t-26.5 65.5t-65.5 26.5q-37 0 -63.5 -26.5t-26.5 -65.5z" glyph-name="ring" horiz-adv-x="323" unicode="˚"/><glyph d="M219 39l129 -39q-166 -150 -166 -250q0 -68 76 -67q27 0 59 10l33 -197q-43 -16 -110 -16q-115 0 -184.5 54t-69.5 155q0 172 233 350z" glyph-name="ogonek" horiz-adv-x="385" unicode="˛"/><glyph d="M207 1573h-209q-10 150 50.5 244t176.5 94q98 0 189 -94q12 -12 26.5 -30t22.5 -26t17 -15t18 -7q45 0 37 137h208q10 -150 -50 -244t-177 -94q-98 0 -188 94q-12 12 -26.5 29.5t-23 26t-17.5 15.5t-17 7q-45 0 -37 -137z" glyph-name="tilde" horiz-adv-x="761" unicode="˜"/><glyph d="M139 1513l-190 78l274 389l197 -155zM571 1513l-190 78l274 389l197 -155z" glyph-name="hungarumlaut" horiz-adv-x="843" unicode="˝"/><glyph d="M1532 250v-250h-567v250q141 47 230 175t89 292q0 203 -127 342t-315 139q-186 0 -315.5 -139t-129.5 -342q0 -164 89 -292t231 -175v-250h-565v250h157q-195 205 -194 495q0 305 208.5 508t518 203t517.5 -202.5t208 -508.5q0 -293 -197 -495h162z" glyph-name="Omega" horiz-adv-x="1681" unicode="Ω"/><glyph d="M1270 1036v-241h-164v-795h-260v795h-348v-795h-260v795h-166v241h1198z" glyph-name="pi" horiz-adv-x="1343" unicode="π"/><glyph d="M774 0h-313l-408 1434h289l289 -1051l307 1051h289l305 -1051l291 1051h288l-407 -1434h-315l-308 1055zM1257 1591l-190 -78l-281 312l195 155z" glyph-name="Wgrave" horiz-adv-x="2164" unicode="Ẁ"/><glyph d="M664 0h-316l-295 1036h283l182 -741l209 741h279l206 -741l185 741h282l-295 -1036h-315l-205 721zM1042 1210l-190 -77l-281 311l195 155z" glyph-name="wgrave" horiz-adv-x="1732" unicode="ẁ"/><glyph d="M774 0h-313l-408 1434h289l289 -1051l307 1051h289l305 -1051l291 1051h288l-407 -1434h-315l-308 1055zM1100 1513l-193 78l277 389l194 -155z" glyph-name="Wacute" horiz-adv-x="2164" unicode="Ẃ"/><glyph d="M664 0h-316l-295 1036h283l182 -741l209 741h279l206 -741l185 741h282l-295 -1036h-315l-205 721zM883 1133l-193 77l277 389l194 -155z" glyph-name="wacute" horiz-adv-x="1732" unicode="ẃ"/><glyph d="M774 0h-313l-408 1434h289l289 -1051l307 1051h289l305 -1051l291 1051h288l-407 -1434h-315l-308 1055zM741 1694q0 61 42 103t105.5 42t105.5 -42t42 -103q0 -63 -42 -105.5t-105.5 -42.5t-105.5 42.5t-42 105.5zM1130 1694q0 61 42 103t106 42q61 0 104 -42t43 -103 q0 -63 -43 -105.5t-104 -42.5q-63 0 -105.5 42.5t-42.5 105.5z" glyph-name="Wdieresis" horiz-adv-x="2164" unicode="Ẅ"/><glyph d="M664 0h-316l-295 1036h283l182 -741l209 741h279l206 -741l185 741h282l-295 -1036h-315l-205 721zM524 1313q0 61 42 103t105.5 42t105.5 -42t42 -103q0 -63 -42 -105.5t-105.5 -42.5t-105.5 42.5t-42 105.5zM913 1313q0 61 42 103t106 42q61 0 104 -42t43 -103 q0 -63 -43 -105.5t-104 -42.5q-63 0 -105.5 42.5t-42.5 105.5z" glyph-name="wdieresis" horiz-adv-x="1732" unicode="ẅ"/><glyph d="M582 145l135 209q174 -127 340 -127q117 0 186.5 59.5t69.5 157.5q0 100 -74 159t-199 59q-63 0 -151 -27l-94 166l393 352q-209 68 -375 66q-197 -2 -288 -96.5t-91 -260.5v-862h-268v899q0 242 160.5 405.5t476.5 163.5q307 0 680 -147v-223l-252 -230 q143 -27 247.5 -137t104.5 -293q0 -207 -137 -334t-365 -127q-268 0 -499 168z" glyph-name="uni1E9E" horiz-adv-x="1677" unicode="ẞ"/><glyph d="M336 1434l395 -660l395 660h328l-588 -934v-500h-270v500l-586 934h326zM907 1591l-190 -78l-281 312l195 155z" glyph-name="Ygrave" horiz-adv-x="1464" unicode="Ỳ"/><glyph d="M176 -426l-98 240q240 80 356 204l-401 1018h289l262 -741l268 741h289l-359 -897q-190 -479 -606 -565zM766 1210l-191 -77l-280 311l194 155z" glyph-name="ygrave" horiz-adv-x="1169" unicode="ỳ"/><glyph d="M1024 717v-238h-887v238h887z" glyph-name="endash" horiz-adv-x="1163" unicode="–"/><glyph d="M1305 717v-238h-1168v238h1168z" glyph-name="emdash" horiz-adv-x="1443" unicode="—"/><glyph d="M317 1507l123 -106q-162 -158 -161 -273q74 23 136 -23t62 -126q0 -68 -46 -118t-126 -50q-84 0 -146.5 65.5t-62.5 188.5q0 127 65.5 245.5t155.5 196.5z" glyph-name="quoteleft" horiz-adv-x="577" unicode="‘"/><glyph d="M256 780l-123 107q162 158 162 272q-74 -23 -136.5 23.5t-62.5 126.5q0 68 46 118t126 50q84 0 146.5 -65.5t62.5 -188.5q0 -127 -65.5 -246t-155.5 -197z" glyph-name="quoteright" horiz-adv-x="569" unicode="’"/><glyph d="M254 -395l-123 106q162 158 162 273q-74 -23 -136.5 23t-62.5 126q0 68 47 118t125 50q84 0 146.5 -65.5t62.5 -188.5q0 -127 -65.5 -245.5t-155.5 -196.5z" glyph-name="quotesinglbase" horiz-adv-x="571" unicode="‚"/><glyph d="M317 1507l123 -106q-162 -158 -161 -273q74 23 136 -23t62 -126q0 -68 -46 -118t-126 -50q-84 0 -146.5 65.5t-62.5 188.5q0 127 65.5 245.5t155.5 196.5zM778 1507l123 -106q-162 -158 -162 -273q74 23 136.5 -23t62.5 -126q0 -68 -47 -118t-125 -50q-84 0 -146.5 65.5 t-62.5 188.5q0 127 65.5 245.5t155.5 196.5z" glyph-name="quotedblleft" horiz-adv-x="1036" unicode="“"/><glyph d="M256 780l-123 107q162 158 162 272q-74 -23 -136.5 23.5t-62.5 126.5q0 68 46 118t126 50q84 0 146.5 -65.5t62.5 -188.5q0 -127 -65.5 -246t-155.5 -197zM715 780l-123 107q162 158 162 272q-74 -23 -136.5 23.5t-62.5 126.5q0 68 46 118t126 50q84 0 146.5 -65.5 t62.5 -188.5q0 -127 -65.5 -246t-155.5 -197z" glyph-name="quotedblright" horiz-adv-x="1028" unicode="”"/><glyph d="M254 -395l-123 106q162 158 162 273q-74 -23 -136.5 23t-62.5 126q0 68 47 118t125 50q84 0 146.5 -65.5t62.5 -188.5q0 -127 -65.5 -245.5t-155.5 -196.5zM713 -395l-123 106q162 158 162 273q-74 -23 -136.5 23t-62.5 126q0 68 47 118t125 50q84 0 146.5 -65.5 t62.5 -188.5q0 -127 -65.5 -245.5t-155.5 -196.5z" glyph-name="quotedblbase" horiz-adv-x="1030" unicode="„"/><glyph d="M909 1092v-224h-278v-868h-238v868h-278v224h278v342h238v-342h278z" glyph-name="dagger" horiz-adv-x="1024" unicode="†"/><glyph d="M909 1092v-224h-278v-303h278v-223h-278v-342h-238v342h-278v223h278v303h-278v224h278v342h238v-342h278z" glyph-name="daggerdbl" horiz-adv-x="1024" unicode="‡"/><glyph d="M154 598q0 96 70.5 166t168.5 70q96 0 167 -70t71 -166q0 -98 -69.5 -168t-168 -70t-169 70t-70.5 168z" glyph-name="bullet" horiz-adv-x="786" unicode="•"/><glyph d="M111 133q0 66 45 111t110.5 45t111.5 -45t46 -110.5t-46 -111t-111.5 -45.5t-110.5 46.5t-45 109.5zM573 133q0 66 46.5 111t109.5 45q66 0 111 -45t45 -110.5t-45 -111t-111 -45.5q-63 0 -109.5 46.5t-46.5 109.5zM1032 133.5q0 65.5 45 110.5t110.5 45t112 -45 t46.5 -110.5t-46.5 -111t-112 -45.5t-110.5 45.5t-45 111z" glyph-name="ellipsis" horiz-adv-x="1454" unicode="…"/><glyph d="M74 1099.5q0 147.5 104.5 252t253.5 104.5q152 0 256.5 -104.5t104.5 -252t-104.5 -251t-256.5 -103.5q-150 0 -254 103.5t-104 251zM287 1100q0 -63 41 -105.5t104.5 -42.5t105.5 42t42 105.5t-42 106.5t-105.5 43t-104.5 -41.5t-41 -107.5zM444 0h-247l1060 1434h248z M909 331.5q0 147.5 104.5 252t256 104.5t256 -104.5t104.5 -252t-104.5 -251t-256 -103.5t-256 103.5t-104.5 251zM1124 331.5q0 -63.5 41 -105.5t104.5 -42t105.5 42t42 105.5t-42 106.5t-105.5 43t-104.5 -43t-41 -106.5zM1712 331.5q0 147.5 104.5 252t256.5 104.5 q150 0 254 -104.5t104 -252t-104.5 -251t-253.5 -103.5q-152 0 -256.5 103.5t-104.5 251zM1925 331.5q0 -63.5 41 -105.5t104.5 -42t105.5 42t42 105.5t-42 106.5t-105.5 43t-104.5 -43t-41 -106.5z" glyph-name="perthousand" horiz-adv-x="2492" unicode="‰"/><glyph d="M371 532l204 -294l-182 -138l-315 432l315 435l182 -138z" glyph-name="guilsinglleft" horiz-adv-x="681" unicode="‹"/><glyph d="M311 537l-205 294l183 138l315 -432l-315 -435l-183 138z" glyph-name="guilsinglright" horiz-adv-x="681" unicode="›"/><glyph d="M-211 0h-199l938 1434h199z" glyph-name="fraction" horiz-adv-x="323" unicode="⁄"/><glyph d="M76 1013.5q0 188.5 91 310.5t259 122t259 -122t91 -310.5t-91 -310t-259 -121.5t-259 121.5t-91 310zM287 1013.5q0 -112.5 37.5 -178t101.5 -65.5q66 0 103.5 65.5t37.5 178.5q0 111 -37.5 177t-103.5 66t-102.5 -65.5t-36.5 -178z" glyph-name="uni2070" horiz-adv-x="851" unicode="⁰"/><glyph d="M631 594h-199v156h-375v145l197 539h217l-192 -500h153v203l199 55v-258h104v-184h-104v-156z" glyph-name="uni2074" horiz-adv-x="792" unicode="⁴"/><glyph d="M121 1434h497v-187h-299v-125h7q168 0 257 -76.5t89 -199.5q0 -119 -82 -191.5t-232 -72.5q-156 0 -301 80l93 159q127 -57 200 -57q115 0 115 84q0 104 -195 104h-149v482z" glyph-name="uni2075" horiz-adv-x="739" unicode="⁵"/><glyph d="M608 1434l-198 -263h16q121 0 198.5 -77.5t77.5 -202.5q0 -135 -91 -222t-226 -87t-227 88t-92 215q0 115 110 266l205 283h227zM383 1016q-51 0 -83 -37t-32 -90t33 -88t84 -35q49 0 83 36t34 89q0 55 -34 90t-85 35z" glyph-name="uni2076" horiz-adv-x="763" unicode="⁶"/><glyph d="M61 1243v191h555v-154l-299 -686h-223l295 649h-328z" glyph-name="uni2077" horiz-adv-x="667" unicode="⁷"/><glyph d="M731 836q0 -119 -96 -186.5t-233.5 -67.5t-232.5 67.5t-95 186.5q0 137 123 202q-92 57 -92.5 168t87 175.5t209.5 64.5q125 0 212 -63.5t87 -176.5q0 -111 -94 -168q125 -67 125 -202zM524 848q0 47 -32.5 74.5t-90.5 27.5q-55 0 -87.5 -27.5t-32.5 -74.5t31.5 -72.5 t89 -25.5t90 25.5t32.5 72.5zM502 1196q0 39 -25.5 63.5t-75.5 24.5q-45 0 -70.5 -24.5t-25.5 -63.5q0 -37 26.5 -62.5t69.5 -25.5q45 0 73 25.5t28 62.5z" glyph-name="uni2078" horiz-adv-x="804" unicode="⁸"/><glyph d="M156 594l198 262h-16q-121 0 -199 78t-78 203q0 135 91.5 222t226.5 87t227 -88t92 -215q0 -115 -110 -266l-205 -283h-227zM381 1012q51 0 83 36.5t32 90t-33 88.5t-84 35q-49 0 -83 -36t-34 -89q0 -55 34 -90t85 -35z" glyph-name="uni2079" horiz-adv-x="765" unicode="⁹"/><glyph d="M76 36.5q0 188.5 91 310.5t259 122t259 -122t91 -310.5t-91 -310t-259 -121.5t-259 121.5t-91 310zM287 37q0 -113 37.5 -178.5t101.5 -65.5q66 0 103.5 65.5t37.5 178.5q0 111 -37.5 177.5t-103.5 66.5t-102.5 -65.5t-36.5 -178.5z" glyph-name="uni2080" horiz-adv-x="851" unicode="₀"/><glyph d="M213 -383v596l-152 -82v215l203 111h156v-840h-207z" glyph-name="uni2081" horiz-adv-x="538" unicode="₁"/><glyph d="M672 -195v-188h-590v150q381 289 381 423q0 43 -24.5 69t-61.5 26q-41 0 -71 -29t-30 -90v-14h-198v16q0 152 90 226.5t213 74.5q121 0 205 -71.5t84 -188.5q0 -186 -238 -404h240z" glyph-name="uni2082" horiz-adv-x="755" unicode="₂"/><glyph d="M61 -315l89 168q123 -61 204 -62q111 0 111 74q0 92 -205 92v158q184 0 184 108q0 35 -22.5 54.5t-56.5 19.5q-90 0 -91 -82v-6h-196v20q0 113 85 176.5t201.5 63.5t200.5 -63.5t84 -174.5q0 -123 -114 -188q137 -57 137 -193q0 -111 -85 -178t-227 -67q-154 0 -299 80z " glyph-name="uni2083" horiz-adv-x="747" unicode="₃"/><glyph d="M631 -383h-199v156h-375v145l197 539h217l-192 -500h153v203l199 55v-258h104v-184h-104v-156z" glyph-name="uni2084" horiz-adv-x="792" unicode="₄"/><glyph d="M121 457h497v-187h-299v-125h7q168 0 257 -76.5t89 -199.5q0 -119 -82 -191.5t-232 -72.5q-156 0 -301 80l93 159q127 -57 200 -57q115 0 115 84q0 104 -195 104h-149v482z" glyph-name="uni2085" horiz-adv-x="739" unicode="₅"/><glyph d="M608 457l-198 -262h16q121 0 198.5 -78t77.5 -203q0 -135 -91 -222t-226 -87t-227 88t-92 215q0 115 110 266l205 283h227zM383 39q-51 0 -83 -37t-32 -90t33 -88t84 -35q49 0 83 36t34 89q0 55 -34 90t-85 35z" glyph-name="uni2086" horiz-adv-x="763" unicode="₆"/><glyph d="M61 266v191h555v-154l-299 -686h-223l295 649h-328z" glyph-name="uni2087" horiz-adv-x="667" unicode="₇"/><glyph d="M731 -141q0 -119 -96 -186.5t-233.5 -67.5t-232.5 67.5t-95 186.5q0 137 123 202q-92 57 -92.5 168t87 175.5t209.5 64.5q125 0 212 -63.5t87 -176.5q0 -111 -94 -168q125 -67 125 -202zM524 -129q0 47 -32.5 74.5t-90.5 27.5q-55 0 -87.5 -27.5t-32.5 -74.5t31.5 -72.5 t89 -25.5t90 25.5t32.5 72.5zM502 219q0 39 -25.5 63.5t-75.5 24.5q-45 0 -70.5 -24.5t-25.5 -63.5q0 -37 26.5 -62.5t69.5 -25.5q45 0 73 25.5t28 62.5z" glyph-name="uni2088" horiz-adv-x="804" unicode="₈"/><glyph d="M156 -383l198 262h-16q-121 0 -199 78t-78 203q0 135 91.5 222t226.5 87t227 -88t92 -215q0 -115 -110 -266l-205 -283h-227zM381 35q51 0 83 37t32 90t-33 88t-84 35q-49 0 -83 -36t-34 -89q0 -55 34 -90t85 -35z" glyph-name="uni2089" horiz-adv-x="765" unicode="₉"/><glyph d="M113 705v227l174 53v449h270v-367l487 147v-227l-487 -147v-82l487 149v-227l-487 -150v-284h145q246 0 287 272l262 -47q-39 -248 -172 -359.5t-411 -111.5h-381v449l-174 -54v228l174 53v82z" glyph-name="lira" horiz-adv-x="1320" unicode="₤"/><glyph d="M788 0h-325l-80 440h-277v228h236l-18 100h-218v227h177l-78 439h272l166 -1002l158 1002h301l158 -1002l165 1002h273l-80 -439h178v-227h-219l-18 -100h237v-228h-278l-78 -440h-326l-164 983z" glyph-name="uni20A9" horiz-adv-x="1902" unicode="₩"/><glyph d="M1133 647l-54 -196h-504q57 -104 152.5 -165t214.5 -61q170 0 293 119l170 -182q-199 -184 -465 -185q-229 0 -407.5 129.5t-251.5 344.5h-187v196h146q-2 23 -2 70q0 43 2 63h-146v197h185q74 217 252 348t409 131q268 0 465 -182l-168 -182q-123 117 -295 116 q-121 0 -218 -61.5t-153 -169.5h643l-53 -197h-647q-2 -20 -2 -63q0 -25 4 -70h617z" glyph-name="Euro" horiz-adv-x="1495" unicode="€"/><glyph d="M154 864v207h395q-63 137 -266 137h-129v226h909l-57 -207h-246q53 -68 74 -156h229l-57 -207h-160q-16 -145 -98 -247.5t-224 -145.5l424 -471h-338l-456 502v186h129q233 0 280 176h-409z" glyph-name="uni20B9" horiz-adv-x="1140" unicode="₹"/><glyph d="M115 223v219h121v82h-121v240h121v670h501q233 0 361.5 -130t128.5 -327t-129 -325t-363 -128h-237v-82h358v-219h-358v-223h-262v223h-121zM498 764h219q113 0 175 59.5t62 155.5q0 94 -62.5 154.5t-174.5 60.5h-219v-430z" glyph-name="uni20BD" horiz-adv-x="1302" unicode="₽"/><glyph d="M182 297l-116 182q133 86 190 127v514q0 209 95 317.5t251 108.5q141 0 232.5 -87t91.5 -255q0 -340 -408 -674v-151q0 -166 113 -166q76 0 149 137l191 -129q-137 -244 -361 -244q-156 0 -248 101.5t-104 267.5q-2 -2 -76 -49zM518 1171v-346q193 201 193 377 q0 125 -96.5 125t-96.5 -156z" glyph-name="afii61289" horiz-adv-x="1013" unicode="ℓ"/><glyph d="M1645 399v189h655v-189h-655zM453 0h-269v1434h275l749 -1014v1014h269v-1434h-273l-751 1012v-1012zM1589 1061q0 160 108.5 266.5t272.5 106.5t272.5 -106.5t108.5 -266.5t-108.5 -266.5t-272.5 -106.5t-272.5 106.5t-108.5 266.5zM1800 1061q0 -82 48 -133t122 -51 t122 51t48 133t-48 133t-122 51t-122 -51t-48 -133z" glyph-name="afii61352" horiz-adv-x="2439" unicode="№"/><glyph d="M1329 883h-158v309l-127 -244h-86l-124 242v-307h-158v551h166l159 -308l160 308h168v-551zM78 1282v152h520v-152h-180v-399h-158v399h-182z" glyph-name="trademark" horiz-adv-x="1482" unicode="™"/><glyph d="M1495 694h-1145v-440q193 -207 467 -207q178 0 329.5 94.5t235.5 249.5l56 -35q-94 -170 -260 -272t-361 -102q-293 0 -503 216t-210 519q0 305 204 520t490.5 215t491.5 -215t205 -518v-25zM799 1386q-262 0 -449 -198v-428h899v428q-186 198 -450 198z" glyph-name="estimated" horiz-adv-x="1576" unicode="℮"/><glyph d="M403 0h-198l938 1434h198zM231 594v596l-151 -82v215l203 111h155v-840h-207zM1645 242q0 -119 -96.5 -186.5t-233.5 -67.5t-232.5 67.5t-95.5 186.5q0 137 123 202q-92 57 -92 168t87 175.5t210 64.5q125 0 212 -63.5t87 -176.5q0 -111 -94 -168q125 -67 125 -202z M1438 254q0 47 -33 74.5t-90 27.5q-55 0 -88 -27.5t-33 -74.5t31.5 -72.5t89 -25.5t90.5 25.5t33 72.5zM1415 602q0 39 -25.5 63.5t-74.5 24.5q-45 0 -70.5 -24.5t-25.5 -63.5q0 -37 26.5 -62.5t69.5 -25.5q45 0 72.5 25.5t27.5 62.5z" glyph-name="oneeighth" horiz-adv-x="1722" unicode="⅛"/><glyph d="M573 0h-198l938 1434h198zM1815 242q0 -119 -96.5 -186.5t-233.5 -67.5t-232.5 67.5t-95.5 186.5q0 137 123 202q-92 57 -92 168t87 175.5t210 64.5q125 0 212 -63.5t87 -176.5q0 -111 -94 -168q125 -67 125 -202zM1608 254q0 47 -33 74.5t-90 27.5q-55 0 -88 -27.5 t-33 -74.5t31.5 -72.5t89 -25.5t90.5 25.5t33 72.5zM1585 602q0 39 -25.5 63.5t-74.5 24.5q-45 0 -70.5 -24.5t-25.5 -63.5q0 -37 26.5 -62.5t69.5 -25.5q45 0 72.5 25.5t27.5 62.5zM82 662l88 167q123 -61 205 -61q111 0 110 74q0 92 -204 92v158q184 0 184 108 q0 35 -22.5 54.5t-57.5 19.5q-90 0 -90 -82v-6h-197v20q0 113 85 176.5t202 63.5t201 -63.5t84 -174.5q0 -123 -115 -188q137 -57 137 -193q0 -111 -85 -178t-226 -67q-154 0 -299 80z" glyph-name="threeeighths" horiz-adv-x="1894" unicode="⅜"/><glyph d="M571 0h-198l938 1434h198zM143 1434h498v-187h-299v-125h6q168 0 257 -76.5t89 -199.5q0 -119 -82 -191.5t-231 -72.5q-156 0 -301 80l92 159q127 -57 201 -57q115 0 114 84q0 104 -194 104h-150v482zM1812 242q0 -119 -96 -186.5t-233 -67.5t-232.5 67.5t-95.5 186.5 q0 137 123 202q-92 57 -92 168t87 175.5t210 64.5q125 0 212 -63.5t87 -176.5q0 -111 -94 -168q124 -67 124 -202zM1606 254q0 47 -33 74.5t-90 27.5q-55 0 -88 -27.5t-33 -74.5t31.5 -72.5t89 -25.5t90.5 25.5t33 72.5zM1583 602q0 39 -25.5 63.5t-74.5 24.5 q-45 0 -71 -24.5t-26 -63.5q0 -37 27 -62.5t70 -25.5q45 0 72.5 25.5t27.5 62.5z" glyph-name="fiveeighths" horiz-adv-x="1892" unicode="⅝"/><glyph d="M391 0h-198l937 1434h199zM1632 242q0 -119 -96 -186.5t-233.5 -67.5t-232.5 67.5t-95 186.5q0 137 123 202q-92 57 -92 168t87 175.5t210 64.5q125 0 212 -63.5t87 -176.5q0 -111 -95 -168q125 -67 125 -202zM1425 254q0 47 -32.5 74.5t-89.5 27.5q-55 0 -88 -27.5 t-33 -74.5t31.5 -72.5t89 -25.5t90 25.5t32.5 72.5zM1403 602q0 39 -25.5 63.5t-74.5 24.5q-45 0 -71 -24.5t-26 -63.5q0 -37 27 -62.5t70 -25.5q45 0 72.5 25.5t27.5 62.5zM86 1243v191h555v-154l-299 -686h-223l295 649h-328z" glyph-name="seveneighths" horiz-adv-x="1710" unicode="⅞"/><glyph d="M862 121l-164 -162l-626 627l626 626l164 -161l-350 -349h805v-233h-805z" glyph-name="arrowleft" horiz-adv-x="1406" unicode="←"/><glyph d="M213 455l-162 163l627 627l627 -627l-162 -163l-348 350v-805h-234v803z" glyph-name="arrowup" horiz-adv-x="1357" unicode="↑"/><glyph d="M547 1051l164 161l626 -626l-628 -627l-162 162l348 348h-805v233h805z" glyph-name="arrowright" horiz-adv-x="1406" unicode="→"/><glyph d="M1143 768l162 -164l-629 -627l-625 627l162 164l348 -350v805h234v-803z" glyph-name="arrowdown" horiz-adv-x="1353" unicode="↓"/><glyph d="M379 98h-229v938h931v-231h-542l614 -615l-164 -163l-610 610v-539z" glyph-name="uni2196" horiz-adv-x="1259" unicode="↖"/><glyph d="M178 805v231h934v-938h-231v539l-611 -610l-164 163l615 615h-543z" glyph-name="uni2197" horiz-adv-x="1259" unicode="↗"/><glyph d="M883 936h231v-936h-932v229h541l-614 617l163 164l611 -611v537z" glyph-name="uni2198" horiz-adv-x="1263" unicode="↘"/><glyph d="M989 1010l166 -164l-614 -615h540v-231h-931v936h229v-539z" glyph-name="uni2199" horiz-adv-x="1261" unicode="↙"/><glyph d="M354 1315l181 180q272 -213 433.5 -468t161.5 -503q0 -244 -149.5 -395.5t-368.5 -151.5t-369.5 148.5t-150.5 370.5q0 207 133 341t328 134q100 0 180 -39q-111 172 -379 383zM606 758q-104 0 -176 -76t-72 -192.5t73 -194.5t181.5 -78t179 78t70.5 203v4 q0 117 -78 186.5t-178 69.5z" glyph-name="partialdiff" horiz-adv-x="1228" unicode="∂"/><glyph d="M831 1434l502 -1434h-1282l502 1434h278zM692 1090l-282 -846h565z" glyph-name="uni2206" horiz-adv-x="1384" unicode="∆"/><glyph d="M1423 1434v-254h-166v-1180h-266v1180h-473v-1180h-266v1180h-166v254h1337z" glyph-name="product" horiz-adv-x="1509" unicode="∏"/><glyph d="M88 -238v211l565 627l-565 623v211h1106v-244h-737l538 -590l-538 -598h737v-240h-1106z" glyph-name="summation" horiz-adv-x="1286" unicode="∑"/><glyph d="M926 786v-231h-781v231h781z" glyph-name="minus" horiz-adv-x="1071" unicode="−"/><glyph d="M426 659l188 -577l568 1352h284l-718 -1672h-283l-227 652h-199v245h387z" glyph-name="radical" horiz-adv-x="1445" unicode="√"/><glyph d="M1278 1042q168 0 272.5 -106.5t104.5 -263.5q0 -156 -104.5 -262.5t-272.5 -106.5q-184 0 -397 219q-211 -219 -396 -219q-168 0 -272 106.5t-104 262.5q0 158 104 264t272 106q96 0 186.5 -49t209.5 -170q117 121 208 170t189 49zM1280 522q66 0 109 43t43 106.5 t-43 107.5t-109 44q-111 0 -252 -151q139 -150 252 -150zM483 823q-66 0 -107.5 -44t-41.5 -107.5t42 -106.5t107 -43q115 0 250 150q-137 151 -250 151z" glyph-name="infinity" horiz-adv-x="1763" unicode="∞"/><glyph d="M-14 -373l63 215q86 -33 154 -32q74 0 112.5 37.5t38.5 134.5v1073q0 205 96.5 303t260.5 98q139 0 274 -57l-63 -215q-86 33 -154 33q-72 0 -111 -38t-39 -135v-1073q0 -205 -97 -303t-261 -98q-139 0 -274 57z" glyph-name="integral" horiz-adv-x="972" unicode="∫"/><glyph d="M319 686l-190 100q102 244 272 244q70 0 161 -46t116 -46q53 0 100 106l189 -98q-98 -246 -271 -246q-70 0 -161 46.5t-115 46.5q-56 -1 -101 -107zM319 299l-190 100q102 244 272 244q70 0 161 -46t116 -46q55 0 100 108l189 -100q-98 -244 -271 -244q-70 0 -161 45.5 t-115 45.5q-56 -1 -101 -107z" glyph-name="approxequal" horiz-adv-x="1093" unicode="≈"/><glyph d="M150 782v230h468l103 205l166 -80l-64 -125h133v-230h-247l-109 -219h356v-231h-473l-100 -203l-166 80l62 123h-129v231h243l111 219h-354z" glyph-name="notequal" horiz-adv-x="1105" unicode="≠"/><glyph d="M141 745v252l807 340v-260l-528 -205l528 -206v-260zM948 322v-232h-807v232h807z" glyph-name="lessequal" horiz-adv-x="1112" unicode="≤"/><glyph d="M971 997v-252l-807 -339v260l528 206l-528 205v260zM164 90v232h807v-232h-807z" glyph-name="greaterequal" horiz-adv-x="1112" unicode="≥"/><glyph d="M90 717q0 309 216 524t530 215q311 0 528 -215t217 -524t-217 -524.5t-528.5 -215.5t-528.5 215.5t-217 524.5zM309 717q0 -225 152.5 -381t374 -156t374 156t152.5 381t-152.5 380.5t-374 155.5t-374 -155.5t-152.5 -380.5zM639 797v166l182 92h127v-676h-166v491z" glyph-name="uni2460" unicode="①"/><glyph d="M90 717q0 309 216 524t530 215q311 0 528 -215t217 -524t-217 -524.5t-528.5 -215.5t-528.5 215.5t-217 524.5zM309 717q0 -225 152.5 -381t374 -156t374 156t152.5 381t-152.5 380.5t-374 155.5t-374 -155.5t-152.5 -380.5zM1094 563v-157h-508v129q334 209 334 329 q0 35 -21.5 56.5t-60.5 21.5q-88 0 -88 -100v-11h-164v15q0 123 76.5 185.5t179 62.5t174 -62.5t71.5 -161.5q0 -156 -194 -307h201z" glyph-name="uni2461" unicode="②"/><glyph d="M90 717q0 309 216 524t530 215q311 0 528 -215t217 -524t-217 -524.5t-528.5 -215.5t-528.5 215.5t-217 524.5zM309 717q0 -225 152.5 -381t374 -156t374 156t152.5 381t-152.5 380.5t-374 155.5t-374 -155.5t-152.5 -380.5zM578 453l79 137q98 -49 172 -49q94 0 95 55 q0 72 -176 72v133q86 0 123.5 24.5t37.5 57.5q0 27 -22.5 41t-52.5 14q-35 0 -58.5 -16.5t-23.5 -49.5v-4h-158v17q0 94 70.5 147t169 53t170 -53t71.5 -141q0 -98 -90 -152q111 -49 111 -155q0 -88 -73 -143.5t-189 -55.5q-133 0 -256 68z" glyph-name="uni2462" unicode="③"/><glyph d="M90 717q0 309 216 524t530 215q311 0 528 -215t217 -524t-217 -524.5t-528.5 -215.5t-528.5 215.5t-217 524.5zM309 717q0 -225 152.5 -381t374 -156t374 156t152.5 381t-152.5 380.5t-374 155.5t-374 -155.5t-152.5 -380.5zM1032 397h-164v125h-325v123l174 428h178 l-170 -397h143v145l164 51v-196h94v-154h-94v-125z" glyph-name="uni2463" unicode="④"/><glyph d="M90 717q0 309 216 524t530 215q311 0 528 -215t217 -524t-217 -524.5t-528.5 -215.5t-528.5 215.5t-217 524.5zM309 717q0 -225 152.5 -381t374 -156t374 156t152.5 381t-152.5 380.5t-374 155.5t-374 -155.5t-152.5 -380.5zM633 1057h418v-156h-256v-92h8 q143 0 217 -62.5t74 -162.5q0 -96 -69 -155.5t-191 -59.5q-135 0 -259 67l78 137q104 -49 174 -49q90 0 91 64q0 76 -158 76h-127v393z" glyph-name="uni2464" unicode="⑤"/><glyph d="M90 717q0 309 216 524t530 215q311 0 528 -215t217 -524t-217 -524.5t-528.5 -215.5t-528.5 215.5t-217 524.5zM309 717q0 -225 152.5 -381t374 -156t374 156t152.5 381t-152.5 380.5t-374 155.5t-374 -155.5t-152.5 -380.5zM1016 1071l-166 -201q106 -2 175 -66.5 t69 -164.5q0 -111 -78 -183.5t-190.5 -72.5t-191.5 72.5t-79 175.5q0 100 96 223l172 217h193zM823 739q-47 0 -78.5 -28.5t-31.5 -73.5t31.5 -73.5t78.5 -28.5t80 28.5t33 73.5t-33 73.5t-80 28.5z" glyph-name="uni2465" unicode="⑥"/><glyph d="M90 717q0 309 216 524t530 215q311 0 528 -215t217 -524t-217 -524.5t-528.5 -215.5t-528.5 215.5t-217 524.5zM309 717q0 -225 152.5 -381t374 -156t374 156t152.5 381t-152.5 380.5t-374 155.5t-374 -155.5t-152.5 -380.5zM621 889v158h483v-136l-266 -540h-187 l264 518h-294z" glyph-name="uni2466" unicode="⑦"/><glyph d="M90 717q0 309 216 524t530 215q311 0 528 -215t217 -524t-217 -524.5t-528.5 -215.5t-528.5 215.5t-217 524.5zM309 717q0 -225 152.5 -381t374 -156t374 156t152.5 381t-152.5 380.5t-374 155.5t-374 -155.5t-152.5 -380.5zM1114 588q0 -98 -81 -155.5t-195.5 -57.5 t-195.5 57t-81 156q0 106 94 160q-66 45 -65 133q0 90 72.5 142t177.5 52q102 0 173.5 -52t71.5 -142q0 -88 -65 -133q94 -54 94 -160zM948 596q0 35 -30.5 59.5t-80 24.5t-80 -24.5t-30.5 -59.5q0 -33 30.5 -57.5t80 -24.5t80 24.5t30.5 57.5zM930 874.5q0 28.5 -24.5 47 t-67.5 18.5t-68 -18.5t-25 -47t25 -49t68 -20.5t67.5 20.5t24.5 49z" glyph-name="uni2467" unicode="⑧"/><glyph d="M90 717q0 309 216 524t530 215q311 0 528 -215t217 -524t-217 -524.5t-528.5 -215.5t-528.5 215.5t-217 524.5zM309 717q0 -225 152.5 -381t374 -156t374 156t152.5 381t-152.5 380.5t-374 155.5t-374 -155.5t-152.5 -380.5zM655 379l166 201q-106 2 -174.5 66.5 t-68.5 164.5q0 111 77.5 183.5t190 72.5t191.5 -72.5t79 -175.5q0 -100 -96 -223l-172 -217h-193zM848 711q47 0 78.5 28.5t31.5 73.5t-31.5 73.5t-78.5 28.5t-80 -28.5t-33 -73.5t33 -73.5t80 -28.5z" glyph-name="uni2468" unicode="⑨"/><glyph d="M90 717q0 309 216 524t530 215q311 0 528 -215t217 -524t-217 -524.5t-528.5 -215.5t-528.5 215.5t-217 524.5zM309 717q0 -225 152.5 -381t374 -156t374 156t152.5 381t-152.5 380.5t-374 155.5t-374 -155.5t-152.5 -380.5zM541 716.5q0 153.5 75.5 252t221.5 98.5 q143 0 219 -98.5t76 -252t-76 -251.5t-219 -98q-145 0 -221 98t-76 251.5zM709 716.5q0 -196.5 129 -196.5q127 0 127 196.5t-127 196.5q-129 0 -129 -196.5z" glyph-name="uni24EA" unicode="⓪"/><glyph d="M90 717q0 309 216 524t530 215q311 0 528 -215t217 -524t-217 -524.5t-528.5 -215.5t-528.5 215.5t-217 524.5zM541 716.5q0 -153.5 75.5 -251.5t221.5 -98q143 0 219 98t76 251.5t-76 252t-219 98.5q-145 0 -221 -98.5t-76 -252zM709 716.5q0 196.5 129 196.5 q127 0 127 -196.5t-127 -196.5q-129 0 -129 196.5z" glyph-name="uni24FF" unicode="⓿"/><glyph d="M1149 717l-545 -740l-547 740l547 739zM604 371l260 346l-260 346l-260 -346z" glyph-name="lozenge" horiz-adv-x="1206" unicode="◊"/><glyph d="M90 717q0 309 216 524t530 215q311 0 528 -215t217 -524t-217 -524.5t-528.5 -215.5t-528.5 215.5t-217 524.5zM309 717q0 -225 152.5 -381t374 -156t374 156t152.5 381t-152.5 380.5t-374 155.5t-374 -155.5t-152.5 -380.5z" glyph-name="circle" unicode="○"/><glyph d="M90 717q0 309 216 524t530 215q311 0 528 -215t217 -524t-217 -524.5t-528.5 -215.5t-528.5 215.5t-217 524.5z" glyph-name="H18533" unicode="●"/><glyph d="M90 717q0 309 216 524t530 215q311 0 528 -215t217 -524t-217 -524.5t-528.5 -215.5t-528.5 215.5t-217 524.5zM639 963v-166l143 73v-491h166v676h-127z" glyph-name="uni2776" unicode="❶"/><glyph d="M90 717q0 309 216 524t530 215q311 0 528 -215t217 -524t-217 -524.5t-528.5 -215.5t-528.5 215.5t-217 524.5zM1094 406v157h-201q195 152 194 307q0 98 -71.5 161t-174 63t-179 -62.5t-76.5 -185.5v-15h164v11q0 100 88 100q39 0 60.5 -21.5t21.5 -56.5 q0 -121 -334 -329v-129h508z" glyph-name="uni2777" unicode="❷"/><glyph d="M90 717q0 309 216 524t530 215q311 0 528 -215t217 -524t-217 -524.5t-528.5 -215.5t-528.5 215.5t-217 524.5zM868 397h164v125h94v154h-94v196l-164 -51v-145h-143l170 397h-178l-174 -428v-123h325v-125z" glyph-name="uni2779" unicode="❹"/><glyph d="M90 717q0 309 216 524t530 215q311 0 528 -215t217 -524t-217 -524.5t-528.5 -215.5t-528.5 215.5t-217 524.5zM1051 1057h-418v-393h127q158 0 158 -76q0 -63 -91 -64q-70 0 -174 49l-78 -137q123 -68 259 -67q123 0 191.5 59t68.5 156q0 100 -74 162.5t-217 62.5h-8v92 h256v156z" glyph-name="uni2780" unicode="➀"/><glyph d="M90 717q0 309 216 524t530 215q311 0 528 -215t217 -524t-217 -524.5t-528.5 -215.5t-528.5 215.5t-217 524.5zM850 870l166 201h-193l-172 -217q-96 -123 -96 -223q0 -102 79 -175t191.5 -73t190.5 72.5t78 183.5q0 100 -69 164.5t-175 66.5zM823 739q47 0 80 -28.5 t33 -73.5t-33 -73.5t-80 -28.5t-78.5 28.5t-31.5 73.5t31.5 73.5t78.5 28.5z" glyph-name="uni2781" unicode="➁"/><glyph d="M90 717q0 309 216 524t530 215q311 0 528 -215t217 -524t-217 -524.5t-528.5 -215.5t-528.5 215.5t-217 524.5zM621 1047v-158h294l-264 -518h187l266 540v136h-483z" glyph-name="uni2782" unicode="➂"/><glyph d="M90 717q0 309 216 524t530 215q311 0 528 -215t217 -524t-217 -524.5t-528.5 -215.5t-528.5 215.5t-217 524.5zM1114 588q0 106 -94 160q66 45 65 133q0 90 -71.5 142t-173.5 52q-104 0 -177 -52t-73 -142q0 -88 65 -133q-94 -53 -94 -160q0 -98 81 -155.5t195.5 -57.5 t195.5 57.5t81 155.5zM948 596q0 -33 -30.5 -57.5t-80 -24.5t-80 24.5t-30.5 57.5q0 35 30.5 59.5t80 24.5t80 -24.5t30.5 -59.5zM930 874.5q0 -28.5 -24.5 -49t-67.5 -20.5t-68 20.5t-25 49t25 47t68 18.5t67.5 -18.5t24.5 -47z" glyph-name="uni2783" unicode="➃"/><glyph d="M90 717q0 309 216 524t530 215q311 0 528 -215t217 -524t-217 -524.5t-528.5 -215.5t-528.5 215.5t-217 524.5zM821 580l-166 -201h193l172 217q96 123 96 223q0 102 -79 175t-191.5 73t-190 -72.5t-77.5 -183.5q0 -100 68.5 -164.5t174.5 -66.5zM848 711q-47 0 -80 28.5 t-33 73.5t33 73.5t80 28.5t78.5 -28.5t31.5 -73.5t-31.5 -73.5t-78.5 -28.5z" glyph-name="uni2784" unicode="➄"/><glyph d="M90 717q0 309 216 524t530 215q311 0 528 -215t217 -524t-217 -524.5t-528.5 -215.5t-528.5 215.5t-217 524.5zM657 590l-79 -137q123 -68 256 -68q117 0 189.5 55.5t72.5 143.5q0 106 -111 155q90 53 90 152q0 88 -71.5 141t-170 53t-169 -53t-70.5 -147v-17h158v4 q0 33 23.5 49.5t58.5 16.5q31 0 53 -14.5t22 -40.5q0 -33 -37.5 -57.5t-123.5 -24.5v-133q176 0 176 -72q0 -55 -95 -55q-74 0 -172 49z" glyph-name="uni2786" unicode="➆"/><glyph d="M436 1434q125 0 211 -80v63h203v-715h-203v66q-84 -80 -211 -80q-152 0 -248 106.5t-96 266.5t96 266.5t248 106.5zM649 1061q0 84 -49 143.5t-125 59.5q-74 0 -123 -58.5t-49 -144.5t49 -144.5t123 -58.5q76 0 125 58.5t49 144.5z" glyph-name="uniE001" horiz-adv-x="997" unicode=""/><glyph d="M569 1057q213 0 332 -158v137h266v-1036h-266v135q-119 -158 -332 -158q-211 0 -342 154t-131 385q0 233 131 387t342 154zM907 516q0 131 -76.5 217t-195.5 86t-194.5 -85t-75.5 -218q0 -129 76.5 -215t193.5 -86q119 0 195.5 86t76.5 215z" glyph-name="uniE020" horiz-adv-x="1312" unicode=""/><glyph d="M705 276l90 -215q-137 -84 -301 -84q-358 0 -359 426v904l264 88v-359h346v-235h-346v-414q0 -168 136 -168q66 0 170 57z" glyph-name="uniE021" horiz-adv-x="817" unicode=""/><glyph d="M102 716.5q0 317.5 209 528.5t525 211q313 0 522 -211t209 -528q0 -193 -81 -350.5t-224 -257.5l378 -195l-118 -231l-561 305q-68 -10 -125 -11q-315 0 -524.5 211t-209.5 528.5zM385 717q0 -207 129 -345.5t321.5 -138.5t320.5 138.5t128 345.5t-128 344t-320.5 137 t-321.5 -137t-129 -344z" glyph-name="uniE022" unicode=""/><glyph d="M569 1057q213 0 332 -158v137h266v-1036h-266v135q-119 -158 -332 -158q-211 0 -342 154t-131 385q0 233 131 387t342 154zM907 516q0 131 -76.5 217t-195.5 86t-194.5 -85t-75.5 -218q0 -129 76.5 -215t193.5 -86q119 0 195.5 86t76.5 215zM823 1210l-190 -77l-281 311 l195 155z" glyph-name="uniE030" horiz-adv-x="1312" unicode=""/><glyph d="M569 1057q213 0 332 -158v137h266v-1036h-266v135q-119 -158 -332 -158q-211 0 -342 154t-131 385q0 233 131 387t342 154zM907 516q0 131 -76.5 217t-195.5 86t-194.5 -85t-75.5 -218q0 -129 76.5 -215t193.5 -86q119 0 195.5 86t76.5 215zM666 1133l-193 77l277 389 l194 -155z" glyph-name="uniE031" horiz-adv-x="1312" unicode=""/><glyph d="M569 1057q213 0 332 -158v137h266v-1036h-266v135q-119 -158 -332 -158q-211 0 -342 154t-131 385q0 233 131 387t342 154zM907 516q0 131 -76.5 217t-195.5 86t-194.5 -85t-75.5 -218q0 -129 76.5 -215t193.5 -86q119 0 195.5 86t76.5 215zM989 1298l-127 -157l-211 145 l-211 -145l-129 157l340 242z" glyph-name="uniE032" horiz-adv-x="1312" unicode=""/><glyph d="M569 1057q213 0 332 -158v137h266v-1036h-266v135q-119 -158 -332 -158q-211 0 -342 154t-131 385q0 233 131 387t342 154zM907 516q0 131 -76.5 217t-195.5 86t-194.5 -85t-75.5 -218q0 -129 76.5 -215t193.5 -86q119 0 195.5 86t76.5 215zM487 1192h-208 q-10 150 50 244t177 94q98 0 188 -94q12 -12 26.5 -29.5t23 -26t17.5 -15.5t17 -7q45 0 37 137h209q10 -150 -50.5 -244t-176.5 -94q-98 0 -189 94q-12 12 -26.5 29.5t-22.5 26t-17.5 15.5t-17.5 7q-45 0 -37 -137z" glyph-name="uniE033" horiz-adv-x="1312" unicode=""/><glyph d="M569 1057q213 0 332 -158v137h266v-1036h-266v135q-119 -158 -332 -158q-211 0 -342 154t-131 385q0 233 131 387t342 154zM907 516q0 131 -76.5 217t-195.5 86t-194.5 -85t-75.5 -218q0 -129 76.5 -215t193.5 -86q119 0 195.5 86t76.5 215zM309 1313q0 61 42 103 t105.5 42t105.5 -42t42 -103q0 -63 -42 -105.5t-105.5 -42.5t-105.5 42.5t-42 105.5zM698 1313q0 61 42 103t106 42q61 0 104 -42t43 -103q0 -63 -43 -105.5t-104 -42.5q-63 0 -105.5 42.5t-42.5 105.5z" glyph-name="uniE034" horiz-adv-x="1312" unicode=""/><glyph d="M569 1057q213 0 332 -158v137h266v-1036h-266v135q-119 -158 -332 -158q-211 0 -342 154t-131 385q0 233 131 387t342 154zM907 516q0 131 -76.5 217t-195.5 86t-194.5 -85t-75.5 -218q0 -129 76.5 -215t193.5 -86q119 0 195.5 86t76.5 215zM397 1378.5q0 106.5 74 179 t178 72.5q106 0 181 -72.5t75 -179t-73.5 -179.5t-182.5 -73q-106 0 -179 73t-73 179.5zM559 1378q0 -39 26.5 -65.5t63.5 -26.5q39 0 65.5 26.5t26.5 65.5t-26.5 65.5t-65.5 26.5q-37 0 -63.5 -26.5t-26.5 -65.5z" glyph-name="uniE035" horiz-adv-x="1312" unicode=""/><glyph d="M569 1057q213 0 332 -158v137h266v-1036h-266v135q-119 -158 -332 -158q-211 0 -342 154t-131 385q0 233 131 387t342 154zM907 516q0 131 -76.5 217t-195.5 86t-194.5 -85t-75.5 -218q0 -129 76.5 -215t193.5 -86q119 0 195.5 86t76.5 215zM946 1421v-215h-590v215h590z " glyph-name="uniE036" horiz-adv-x="1312" unicode=""/><glyph d="M569 1057q213 0 332 -158v137h266v-1036h-266v135q-119 -158 -332 -158q-211 0 -342 154t-131 385q0 233 131 387t342 154zM907 516q0 131 -76.5 217t-195.5 86t-194.5 -85t-75.5 -218q0 -129 76.5 -215t193.5 -86q119 0 195.5 86t76.5 215zM807 1497l188 -78 q-45 -123 -135 -194.5t-209 -71.5t-209 72.5t-135 193.5l191 78q57 -137 153 -137q99 0 156 137z" glyph-name="uniE037" horiz-adv-x="1312" unicode=""/><glyph d="M569 1057q213 0 332 -158v137h266v-1036q-166 -150 -166 -250q0 -68 76 -67q27 0 53 8l39 -195q-43 -16 -110 -16q-115 0 -184.5 54t-69.5 155q0 154 184 311h-88v135q-119 -158 -332 -158q-211 0 -342 154t-131 385q0 233 131 387t342 154zM907 516q0 131 -76.5 217 t-195.5 86t-194.5 -85t-75.5 -218q0 -129 76.5 -215t193.5 -86q119 0 195.5 86t76.5 215z" glyph-name="uniE038" horiz-adv-x="1312" unicode=""/><glyph d="M1845 317l142 -174q-166 -166 -420 -166q-279 0 -418 197v-174h-227v141q-121 -164 -351 -164q-213 0 -344 154t-131 385q0 233 131 387t344 154q229 0 351 -164v143h227v-180q141 201 395 201q223 0 360.5 -152.5t137.5 -351.5q0 -61 -12 -115h-742q23 -109 97.5 -171 t193.5 -62q151 -1 266 112zM907 516q0 131 -76.5 217t-195.5 86t-194.5 -86t-75.5 -217q0 -129 76.5 -215t193.5 -86q119 0 195.5 86t76.5 215zM1538 834q-94 0 -159.5 -56.5t-88.5 -152.5h486q-18 92 -81 150.5t-157 58.5z" glyph-name="uniE039" horiz-adv-x="2129" unicode=""/><glyph d="M1845 317l142 -174q-166 -166 -420 -166q-279 0 -418 197v-174h-227v141q-121 -164 -351 -164q-213 0 -344 154t-131 385q0 233 131 387t344 154q229 0 351 -164v143h227v-180q141 201 395 201q223 0 360.5 -152.5t137.5 -351.5q0 -61 -12 -115h-742q23 -109 97.5 -171 t193.5 -62q151 -1 266 112zM907 516q0 131 -76.5 217t-195.5 86t-194.5 -86t-75.5 -217q0 -129 76.5 -215t193.5 -86q119 0 195.5 86t76.5 215zM1538 834q-94 0 -159.5 -56.5t-88.5 -152.5h486q-18 92 -81 150.5t-157 58.5zM1083 1133l-192 77l276 389l195 -155z" glyph-name="uniE040" horiz-adv-x="2129" unicode=""/><glyph d="M1083 1237l119 -188q-106 -57 -178 -134q84 -90 84 -225q0 -170 -129 -268t-350 -98q-137 0 -238 36q-57 -23 -57 -69q0 -66 112 -66h334q229 0 325.5 -83t96.5 -212q0 -172 -156.5 -257t-418.5 -85q-244 0 -366 69t-122 191q0 106 94 177q-145 63 -145 211 q0 145 152 221q-88 94 -88 233q0 170 128 268.5t349 98.5q145 0 252 -43q85 168 202 223zM416 690q0 -76 57 -115.5t155.5 -39.5t157 39.5t58.5 115.5t-58.5 117t-157 41t-155.5 -41t-57 -117zM752 -4h-318q-55 -45 -55 -100q0 -96 258 -97q127 0 215 28t88 81q0 88 -188 88 z" glyph-name="uniE044" horiz-adv-x="1249" unicode=""/><glyph d="M1083 1237l119 -188q-106 -57 -178 -134q84 -90 84 -225q0 -170 -129 -268t-350 -98q-137 0 -238 36q-57 -23 -57 -69q0 -66 112 -66h334q229 0 325.5 -83t96.5 -212q0 -172 -156.5 -257t-418.5 -85q-244 0 -366 69t-122 191q0 106 94 177q-145 63 -145 211 q0 145 152 221q-88 94 -88 233q0 170 128 268.5t349 98.5q145 0 252 -43q85 168 202 223zM416 690q0 -76 57 -115.5t155.5 -39.5t157 39.5t58.5 115.5t-58.5 117t-157 41t-155.5 -41t-57 -117zM752 -4h-318q-55 -45 -55 -100q0 -96 258 -97q127 0 215 28t88 81q0 88 -188 88 zM784 1497l189 -78q-45 -123 -135 -194.5t-209 -71.5t-209 72.5t-135 193.5l190 78q57 -137 154 -137q98 0 155 137z" glyph-name="uniE045" horiz-adv-x="1249" unicode=""/><glyph d="M1083 1237l119 -188q-106 -57 -178 -134q84 -90 84 -225q0 -170 -129 -268t-350 -98q-137 0 -238 36q-57 -23 -57 -69q0 -66 112 -66h334q229 0 325.5 -83t96.5 -212q0 -172 -156.5 -257t-418.5 -85q-244 0 -366 69t-122 191q0 106 94 177q-145 63 -145 211 q0 145 152 221q-88 94 -88 233q0 170 128 268.5t349 98.5q145 0 252 -43q85 168 202 223zM416 690q0 -76 57 -115.5t155.5 -39.5t157 39.5t58.5 115.5t-58.5 117t-157 41t-155.5 -41t-57 -117zM752 -4h-318q-55 -45 -55 -100q0 -96 258 -97q127 0 215 28t88 81q0 88 -188 88 zM481 1313q0 61 42 103t106 42q61 0 104 -42t43 -103q0 -63 -43 -105.5t-104 -42.5q-63 0 -105.5 42.5t-42.5 105.5z" glyph-name="uniE046" horiz-adv-x="1249" unicode=""/><glyph d="M1083 1237l119 -188q-106 -57 -178 -134q84 -90 84 -225q0 -170 -129 -268t-350 -98q-137 0 -238 36q-57 -23 -57 -69q0 -66 112 -66h334q229 0 325.5 -83t96.5 -212q0 -172 -156.5 -257t-418.5 -85q-244 0 -366 69t-122 191q0 106 94 177q-145 63 -145 211 q0 145 152 221q-88 94 -88 233q0 170 128 268.5t349 98.5q145 0 252 -43q85 168 202 223zM416 690q0 -76 57 -115.5t155.5 -39.5t157 39.5t58.5 115.5t-58.5 117t-157 41t-155.5 -41t-57 -117zM752 -4h-318q-55 -45 -55 -100q0 -96 258 -97q127 0 215 28t88 81q0 88 -188 88 zM590 -1010l-94 86q51 45 89 99.5t38 93.5q-57 -14 -106.5 22.5t-49.5 98.5q0 53 38 92t101 39q68 0 113 -46t45 -141q0 -184 -174 -344z" glyph-name="uniE047" horiz-adv-x="1249" unicode=""/><glyph d="M705 276l90 -215q-137 -84 -301 -84q-358 0 -359 426v904l264 88v-359h346v-235h-346v-414q0 -168 136 -168q66 0 170 57zM434 -645l-94 86q51 45 89 99t38 93q-57 -14 -106.5 23t-49.5 98q0 53 38 92t102 39q68 0 112.5 -46t44.5 -140q0 -184 -174 -344z" glyph-name="uniE050" horiz-adv-x="817" unicode=""/><glyph d="M705 276l90 -215q-137 -84 -301 -84q-358 0 -359 426v904l264 88v-359h346v-235h-346v-414q0 -168 136 -168q66 0 170 57zM612 1120l-94 86q51 45 89 99.5t38 93.5q-55 -14 -105.5 22.5t-50.5 98.5q0 53 38 92t102 39q68 0 112.5 -46t44.5 -141q0 -184 -174 -344z" glyph-name="uniE051" horiz-adv-x="817" unicode=""/><glyph d="M705 276l90 -215q-137 -84 -301 -84h-13l-24 -67q90 -16 138 -72.5t48 -136.5q0 -96 -68.5 -157.5t-191.5 -61.5q-121 0 -231 55l79 178q74 -43 136 -43q82 0 82 54q0 70 -123 61l-39 59l67 152q-219 72 -219 405v904l264 88v-359h346v-235h-346v-414q0 -168 136 -168 q66 0 170 57z" glyph-name="uniE052" horiz-adv-x="817" unicode=""/><glyph d="M705 276l90 -215q-137 -84 -301 -84q-358 0 -359 426v904l264 88v-359h346v-235h-346v-139h260v-197h-260v-78q0 -168 136 -168q66 0 170 57z" glyph-name="uniE053" horiz-adv-x="819" unicode=""/><glyph d="M379 590q0 -164 74.5 -262.5t199.5 -98.5t201 98.5t76 262.5t-76 263t-201 99t-199.5 -99t-74.5 -263zM106 589.5q0 270.5 152 442.5t395.5 172t395 -172t151.5 -442.5t-152.5 -441.5t-394 -171t-394.5 171t-153 441.5z" glyph-name="uniE100" horiz-adv-x="1306" unicode=""/><glyph d="M78 711v282l342 189h215v-1182h-270v868z" glyph-name="uniE101" horiz-adv-x="800" unicode=""/><glyph d="M1092 246v-246h-981v203q221 109 363 194.5t211 153t92.5 117t23.5 104.5q0 82 -55.5 131t-143.5 49q-94 0 -156.5 -62.5t-62.5 -187.5v-18h-268v23q0 248 148.5 372.5t348.5 124.5q197 0 332 -115.5t135 -304.5q0 -158 -97 -285.5t-323 -252.5h433z" glyph-name="uniE102" horiz-adv-x="1204" unicode=""/><glyph d="M57 -141l115 229q233 -115 383 -115q109 0 175.5 48.5t66.5 128.5q0 92 -104.5 146t-305.5 54v238q190 0 280.5 63.5t90.5 149.5q0 76 -57.5 119t-139.5 43q-86 0 -145.5 -46.5t-59.5 -119.5v-11h-266v31q0 176 139.5 281.5t329.5 105.5q193 0 333 -106.5t140 -282.5 q0 -229 -233 -338q274 -94 274 -342q0 -186 -142.5 -297.5t-373.5 -111.5q-254 0 -500 133z" glyph-name="uniE103" horiz-adv-x="1175" unicode=""/><glyph d="M1016 -252h-264v285h-670v198l356 951h295l-352 -906h371v406l264 82v-488h198v-243h-198v-285z" glyph-name="uniE104" horiz-adv-x="1273" unicode=""/><glyph d="M72 -141l114 229q225 -115 383 -115q115 0 177.5 52.5t62.5 142.5q0 100 -94 162.5t-303 62.5h-230v789h817v-250h-550v-297h53q289 0 437 -131t148 -338q0 -199 -135 -319.5t-381 -120.5q-253 0 -499 133z" glyph-name="uniE105" horiz-adv-x="1177" unicode=""/><glyph d="M971 1434l-361 -461q41 4 62 4q199 0 331 -135t132 -346q0 -221 -149.5 -370t-371.5 -149q-223 0 -373.5 146.5t-150.5 363.5q0 199 162 424l379 523h340zM614 752q-111 0 -183.5 -77t-72.5 -188q0 -113 72 -187.5t180 -74.5q111 0 183.5 75t72.5 187q0 115 -71.5 190 t-180.5 75z" glyph-name="uniE106" horiz-adv-x="1216" unicode=""/><glyph d="M76 926v256h944v-217l-555 -1217h-313l559 1178h-635z" glyph-name="uniE107" horiz-adv-x="1077" unicode=""/><glyph d="M1176 410q0 -201 -155 -317t-384 -116q-227 0 -382 116t-155 317q0 242 230 350q-176 98 -176 303q0 182 141 287.5t344 105.5t343 -105.5t140 -287.5q0 -205 -178 -303q232 -108 232 -350zM901 426q0 96 -74.5 158.5t-189.5 62.5t-188.5 -62.5t-73.5 -158.5 q0 -94 72.5 -153.5t189.5 -59.5q119 0 191.5 59.5t72.5 153.5zM858 1046.5q0 77.5 -60.5 128t-158.5 50.5q-100 0 -160.5 -50.5t-60.5 -128t62.5 -130t158.5 -52.5q94 0 156.5 52.5t62.5 130z" glyph-name="uniE108" horiz-adv-x="1277" unicode=""/><glyph d="M246 -252l360 461q-41 -4 -61 -4q-199 0 -331 135t-132 346q0 221 149.5 369.5t370.5 148.5q223 0 373.5 -146.5t150.5 -363.5q0 -199 -161 -424l-379 -522h-340zM602 430q111 0 183.5 77t72.5 187q0 113 -71.5 187.5t-180.5 74.5q-111 0 -183.5 -74.5t-72.5 -187.5 q0 -115 71.5 -189.5t180.5 -74.5z" glyph-name="uniE109" horiz-adv-x="1216" unicode=""/><glyph d="M74 717q0 207 57 370.5t180 266t295 102.5q254 0 392.5 -211t138.5 -528q0 -205 -56.5 -369t-179.5 -267.5t-295 -103.5q-256 0 -394 211.5t-138 528.5zM350 717q0 -219 69.5 -352.5t186.5 -133.5t185.5 132.5t68.5 353.5t-69.5 353t-184.5 132q-117 0 -186.5 -132 t-69.5 -353z" glyph-name="uniE120" horiz-adv-x="1210" unicode=""/><glyph d="M172 963v282l391 189h213v-1180h338v-254h-942v254h334v872z" glyph-name="uniE121" horiz-adv-x="1210" unicode=""/><glyph d="M1100 250v-250h-996v211q420 332 563.5 509t143.5 290q0 90 -58.5 143t-148.5 53q-98 0 -162.5 -61.5t-64.5 -192.5v-22h-268v28q0 168 77.5 285t187 165t234.5 48q201 0 341.5 -121t140.5 -317q0 -170 -126 -348t-421 -420h557z" glyph-name="uniE122" horiz-adv-x="1210" unicode=""/><glyph d="M76 111l114 229q233 -115 383 -115q109 0 175.5 48.5t66.5 127.5q0 92 -104.5 146.5t-304.5 54.5v238q190 0 280 63.5t90 149.5q0 76 -57 118.5t-139 42.5q-86 0 -145.5 -46t-59.5 -119v-11h-266v31q0 176 139 281.5t330 105.5q193 0 333 -106.5t140 -282.5 q0 -229 -234 -338q274 -94 275 -342q0 -186 -142.5 -298t-374.5 -112q-253 1 -499 134z" glyph-name="uniE123" horiz-adv-x="1210" unicode=""/><glyph d="M961 0h-265v285h-633v198l334 951h293l-334 -906h340v406l265 82v-488h192v-243h-192v-285z" glyph-name="uniE124" horiz-adv-x="1210" unicode=""/><glyph d="M90 111l115 229q225 -115 383 -115q115 0 177 52.5t62 142.5q0 100 -94 162.5t-303 62.5h-229v789h817v-250h-551v-297h53q289 0 437.5 -131t148.5 -338q0 -199 -135 -320t-381 -121q-254 1 -500 134z" glyph-name="uniE125" horiz-adv-x="1210" unicode=""/><glyph d="M969 1434l-361 -461q41 4 62 4q199 0 331 -135t132 -346q0 -221 -149.5 -370t-371.5 -149q-223 0 -373.5 146.5t-150.5 363.5q0 199 162 424l379 523h340zM612 752q-111 0 -183.5 -77t-72.5 -188q0 -113 72 -187.5t180 -74.5q111 0 183.5 75t72.5 187q0 115 -71.5 190 t-180.5 75z" glyph-name="uniE126" horiz-adv-x="1210" unicode=""/><glyph d="M127 1178v256h965v-217l-566 -1217h-313l565 1178h-651z" glyph-name="uniE127" horiz-adv-x="1210" unicode=""/><glyph d="M1143 410q0 -201 -154.5 -317t-384.5 -116q-227 0 -381.5 116t-154.5 317q0 242 229 350q-176 98 -176 303q0 182 141 287.5t344 105.5t343.5 -105.5t140.5 -287.5q0 -205 -179 -303q232 -108 232 -350zM868 426q0 96 -74.5 158.5t-189.5 62.5t-188.5 -62.5t-73.5 -158.5 q0 -94 72.5 -153.5t189.5 -59.5q119 0 191.5 59.5t72.5 153.5zM825 1046.5q0 77.5 -60 128t-159 50.5q-100 0 -160.5 -50.5t-60.5 -128t62.5 -130t158.5 -52.5q94 0 156.5 52.5t62.5 130z" glyph-name="uniE128" horiz-adv-x="1210" unicode=""/><glyph d="M244 0l360 461q-41 -4 -61 -4q-199 0 -331 135t-132 346q0 221 149.5 369.5t370.5 148.5q223 0 373.5 -146.5t150.5 -363.5q0 -199 -161 -424l-379 -522h-340zM600 682q111 0 183.5 77t72.5 187q0 113 -71.5 187.5t-180.5 74.5q-111 0 -183.5 -74.5t-72.5 -187.5 q0 -115 71.5 -189.5t180.5 -74.5z" glyph-name="uniE129" horiz-adv-x="1210" unicode=""/><glyph d="M899 647l-53 -196h-381q84 -225 313 -226q150 0 240 103l170 -178q-172 -172 -416 -173q-229 0 -380.5 126t-209.5 348h-155v196h125q-2 23 -2 70q0 43 2 63h-125v197h153q57 223 210 351t382 128q244 0 416 -172l-170 -178q-90 102 -240 102q-229 0 -315 -231h520 l-55 -197h-502q-2 -20 -2 -63q0 -47 2 -70h473z" glyph-name="uniE140" horiz-adv-x="1210" unicode=""/><glyph d="M180 0v193q164 133 164 327q0 6 -2 23h-192v225h133q-80 193 -80 301q0 176 119.5 281.5t300.5 105.5q184 0 312 -113.5t128 -318.5v-31h-254v19q0 104 -48 155.5t-124 51.5q-74 0 -121 -49.5t-47 -131.5q0 -31 8 -67.5t17.5 -61t29 -71.5t27.5 -70h330v-225h-283v-6 q0 -168 -109 -299h562v-238h-871z" glyph-name="uniE141" horiz-adv-x="1210" unicode=""/><glyph d="M604 846l246 588h293l-326 -697h223v-209h-303v-104h303v-209h-303v-215h-264v215h-305v209h305v104h-305v209h225l-325 697h292z" glyph-name="uniE142" horiz-adv-x="1210" unicode=""/><glyph d="M494 -166v215q-164 27 -265.5 117t-119.5 244l249 65q20 -209 260 -209q106 0 164 38t58 106q0 49 -39 85.5t-78 52t-133 46.5q-29 10 -43 14q-203 68 -313.5 162t-110.5 260q0 150 99.5 246t271.5 117v209h223v-216q160 -33 256 -135t96 -264v-33h-254v17 q0 102 -62.5 152.5t-166.5 50.5q-92 0 -145.5 -39t-53.5 -105q0 -33 14.5 -59.5t32 -43t58 -36t64.5 -27.5t81 -26q236 -78 351.5 -168t115.5 -258q0 -154 -103.5 -250t-283.5 -117v-211h-223z" glyph-name="uniE143" horiz-adv-x="1210" unicode=""/><glyph d="M188 864v207h396q-63 137 -267 137h-129v226h910l-58 -207h-245q53 -68 73 -156h230l-58 -207h-159q-16 -145 -98.5 -247.5t-223.5 -145.5l424 -471h-338l-457 502v186h129q233 0 281 176h-410z" glyph-name="uniE144" horiz-adv-x="1210" unicode=""/><glyph d="M70 707v225l172 53v449h270v-367l463 143v-227l-463 -141v-82l463 143v-227l-463 -141v-283h119q242 0 282 266l261 -47q-39 -250 -166 -360.5t-404 -110.5h-362v451l-172 -52v226l172 53v80z" glyph-name="uniE145" horiz-adv-x="1210" unicode=""/><glyph d="M514 0h-278l-54 446h-170v216h146l-15 110h-131v215h107l-53 447h241l84 -883l86 883h256l86 -875l84 875h242l-53 -447h106v-215h-131l-14 -110h145v-216h-170l-53 -446h-277l-94 872z" glyph-name="uniE146" horiz-adv-x="1210" unicode=""/><glyph d="M104 223v219h117v82h-117v240h117v670h436q231 0 358.5 -130t127.5 -327t-129 -325t-361 -128h-172v-82h342v-219h-342v-223h-260v223h-117zM481 764h158q111 0 173 60.5t62 154.5t-62 154.5t-173 60.5h-158v-430z" glyph-name="uniE147" horiz-adv-x="1210" unicode=""/><glyph d="M401 1694l217 -133q-229 -369 -229 -844q0 -473 229 -842l-217 -133q-295 436 -295 975q0 541 295 977z" glyph-name="uniE300" horiz-adv-x="692" unicode=""/><glyph d="M74 1561l217 133q295 -436 295 -977q0 -539 -295 -975l-217 133q229 369 229 842q0 475 -229 844z" glyph-name="uniE301" horiz-adv-x="692" unicode=""/><glyph d="M756 834v-238h-613v238h613z" glyph-name="uniE302" horiz-adv-x="901" unicode=""/><glyph d="M1030 834v-238h-887v238h887z" glyph-name="uniE303" horiz-adv-x="1177" unicode=""/><glyph d="M1311 834v-238h-1168v238h1168z" glyph-name="uniE304" horiz-adv-x="1456" unicode=""/><glyph d="M731 53v-235h-547v1800h547v-236h-282v-1329h282z" glyph-name="uniE305" horiz-adv-x="811" unicode=""/><glyph d="M80 -182v235h282v1329h-282v236h547v-1800h-547z" glyph-name="uniE306" horiz-adv-x="811" unicode=""/><glyph d="M55 600v234h60q94 0 137 51t43 159v252q0 143 85 232.5t251 89.5h166v-236h-95q-84 0 -113.5 -42t-29.5 -119v-170q0 -141 -28.5 -219t-122.5 -115q94 -35 122.5 -113t28.5 -219v-170q0 -80 29.5 -121t113.5 -41h95v-235h-166q-166 0 -251 88t-85 233v252q0 109 -42 159 t-138 50h-60z" glyph-name="uniE307" horiz-adv-x="878" unicode=""/><glyph d="M823 834v-234h-59q-96 0 -138 -50t-42 -159v-252q0 -145 -85 -233t-251 -88h-166v235h94q84 0 113.5 41t29.5 121v170q0 141 29 219t123 113q-94 37 -123 114.5t-29 219.5v170q0 78 -29.5 119.5t-113.5 41.5h-94v236h166q166 0 251 -89t85 -233v-252q0 -109 43 -159.5 t137 -50.5h59z" glyph-name="uniE308" horiz-adv-x="878" unicode=""/><glyph d="M186 1655h207v-1874h-207v1874z" glyph-name="uniE309" horiz-adv-x="577" unicode=""/><glyph d="M186 1655h207v-811h-207v811zM186 586h207v-805h-207v805z" glyph-name="uniE310" horiz-adv-x="577" unicode=""/><glyph d="M379 717l205 -295l-183 -137l-315 432l315 434l183 -137z" glyph-name="uniE311" horiz-adv-x="702" unicode=""/><glyph d="M324 717l-205 295l182 137l315 -432l-315 -434l-182 137z" glyph-name="uniE312" horiz-adv-x="704" unicode=""/><glyph d="M379 717l205 -295l-183 -137l-315 432l315 434l183 -137zM870 717l205 -295l-182 -137l-315 432l315 434l182 -137z" glyph-name="uniE313" horiz-adv-x="1193" unicode=""/><glyph d="M324 717l-205 295l182 137l315 -432l-315 -434l-182 137zM815 717l-205 295l183 137l315 -432l-315 -434l-183 137z" glyph-name="uniE314" horiz-adv-x="1196" unicode=""/><glyph d="M152 719q0 96 70.5 165.5t168.5 69.5q96 0 167 -69.5t71 -165.5q0 -98 -70 -168t-168 -70t-168.5 70t-70.5 168z" glyph-name="uniE315" horiz-adv-x="780" unicode=""/><glyph d="M123 716.5q0 67.5 50 116t118 48.5q70 0 119 -47.5t49 -117t-49.5 -117.5t-118.5 -48q-68 0 -118 49t-50 116.5z" glyph-name="uniE316" horiz-adv-x="581" unicode=""/><glyph d="M862 252l-164 -162l-626 627l626 626l164 -161l-350 -348h805v-234h-805z" glyph-name="uniE330" horiz-adv-x="1409" unicode=""/><glyph d="M1145 885l162 -164l-629 -627l-625 627l162 164l348 -350v804h234v-802z" glyph-name="uniE331" horiz-adv-x="1357" unicode=""/><glyph d="M213 549l-162 164l627 626l627 -626l-162 -164l-348 350v-805h-234v803z" glyph-name="uniE332" horiz-adv-x="1355" unicode=""/><glyph d="M547 1182l164 161l626 -626l-628 -627l-162 162l348 348h-805v234h805z" glyph-name="uniE333" horiz-adv-x="1409" unicode=""/><glyph d="M377 496h-230v938h932v-232h-542l614 -614l-164 -164l-610 610v-538z" glyph-name="uniE334" horiz-adv-x="1265" unicode=""/><glyph d="M186 1202v232h934v-938h-231v538l-610 -610l-164 164l614 614h-543z" glyph-name="uniE335" horiz-adv-x="1265" unicode=""/><glyph d="M440 1118l158 316h231l-217 -385h152v-152h-219v-43h219v-154h-219v-106h-207v106h-221v154h221v43h-221v152h149l-215 385h234z" glyph-name="uniE400" horiz-adv-x="880" unicode=""/><glyph d="M119 1079v178h139l31 177h180l-31 -177h113l31 177h178l-31 -177h111v-178h-142l-22 -135h115v-178h-144l-29 -172h-178l29 172h-113l-28 -172h-181l29 172h-106v178h135l22 135h-108zM408 1079l-23 -135h113l22 135h-112z" glyph-name="uniE401" horiz-adv-x="909" unicode=""/><glyph d="M53 1222.5q0 94.5 67.5 159t164 64.5t163 -64.5t66.5 -159t-66.5 -158t-163 -63.5t-164 63.5t-67.5 158zM211 1223q0 -31 20.5 -52.5t53.5 -21.5q31 0 51 21.5t20 52.5q0 33 -20.5 54t-50.5 21q-33 0 -53.5 -21t-20.5 -54zM352 590h-184l616 844h187zM625 805 q0 92 66.5 157.5t162.5 65.5t163.5 -65.5t67.5 -157.5q0 -94 -67.5 -158.5t-163.5 -64.5t-162.5 64.5t-66.5 158.5zM782 805q0 -33 20.5 -54.5t51.5 -21.5t51.5 21.5t20.5 54.5q0 31 -20.5 52.5t-51.5 21.5t-51.5 -21.5t-20.5 -52.5z" glyph-name="uniE402" horiz-adv-x="1138" unicode=""/><glyph d="M98 594v149q76 57 88 144h-106v174h74q-43 98 -43 156q0 104 74.5 166.5t189.5 62.5q117 0 198.5 -68.5t81.5 -199.5v-21h-192v10q0 45 -22.5 71t-55.5 26q-29 0 -48.5 -19.5t-19.5 -58.5q0 -23 43 -125h183v-174h-160q-12 -63 -53 -113h315v-180h-547z" glyph-name="uniE403" horiz-adv-x="731" unicode=""/><glyph d="M664 985l-39 -135h-215q57 -82 165 -82q88 0 150 61l127 -133q-115 -115 -281 -114q-135 0 -239.5 72.5t-149.5 195.5h-112v135h84v45h-84v137h108q43 127 149.5 203t243.5 76q164 0 281 -113l-127 -135q-57 61 -150 62q-113 0 -172 -93h316l-39 -137h-318v-45h302z" glyph-name="uniE404" horiz-adv-x="915" unicode=""/><glyph d="M88 1094v133h215q-35 55 -113 55h-102v152h553l-33 -134h-127q23 -35 31 -73h129l-33 -133h-88q-20 -168 -174 -226l242 -274h-244l-256 291v133h102q94 0 121 76h-223z" glyph-name="uniE405" horiz-adv-x="702" unicode=""/><glyph d="M84 1022v168l104 31v213h197v-156l266 80v-166l-266 -80v-41l266 80v-166l-266 -80v-127h66q123 0 143 154l188 -33q-25 -160 -105.5 -232.5t-252.5 -72.5h-236v254l-104 -31v166l104 31v39z" glyph-name="uniE406" horiz-adv-x="835" unicode=""/><glyph d="M518 594h-237l-39 225h-162v172h131l-8 45h-123v170h94l-39 228h201l78 -519l75 519h220l73 -510l80 510h201l-39 -228h92v-170h-123l-8 -45h131v-172h-160l-38 -225h-244l-78 506z" glyph-name="uniE407" horiz-adv-x="1196" unicode=""/><glyph d="M82 686v164h94v45h-94v176h94v363h316q139 0 214.5 -77t75.5 -194q0 -115 -75.5 -191.5t-217.5 -76.5h-116v-45h190v-164h-190v-86h-197v86h-94zM373 1071h96q51 0 81 25.5t30 66.5t-30 66.5t-81 25.5h-96v-184z" glyph-name="uniE408" horiz-adv-x="835" unicode=""/><glyph d="M121 1061q0 160 108.5 266.5t270.5 106.5q164 0 272.5 -106.5t108.5 -266.5t-108.5 -266.5t-272.5 -106.5q-162 0 -270.5 106.5t-108.5 266.5zM330 1061q0 -80 48 -132t122 -52q76 0 123 51t47 133t-47.5 133t-122.5 51q-74 0 -122 -52t-48 -132zM174 399v189h655v-189 h-655z" glyph-name="uniE409" horiz-adv-x="1001" unicode=""/><glyph d="M162 399v189h639v-189h-639zM242 1192l-82 160q133 82 299 82q342 0 342 -344v-388h-205v74q-92 -88 -219 -88q-109 0 -179.5 61.5t-70.5 170.5q0 113 78 176t209 63q92 0 180 -39q-14 133 -150 133q-96 0 -202 -61zM434 838q94 0 162 90v57q-70 37 -141 37 q-125 0 -125 -94q0 -43 27.5 -66.5t76.5 -23.5z" glyph-name="uniE410" horiz-adv-x="950" unicode=""/><glyph d="M180 399v189h697v-189h-697zM463 1434q125 0 211 -80v63h203v-715h-203v66q-84 -80 -211 -80q-152 0 -248 106.5t-96 266.5t96 266.5t248 106.5zM676 1061q0 84 -49 143.5t-125 59.5q-74 0 -123 -58.5t-49 -144.5t49 -144.5t123 -58.5q76 0 125 58.5t49 144.5z" glyph-name="uniE411" horiz-adv-x="1034" unicode=""/><glyph d="M104 716.5q0 153.5 76 252t221 98.5q143 0 219 -98.5t76 -252t-75.5 -251.5t-219.5 -98q-145 0 -221 98t-76 251.5zM272 716.5q0 -196.5 129 -196.5q127 0 127 196.5t-127 196.5q-129 0 -129 -196.5z" glyph-name="uniE450" horiz-adv-x="798" unicode=""/><glyph d="M68 797v166l182 92h127v-676h-166v491z" glyph-name="uniE451" horiz-adv-x="499" unicode=""/><glyph d="M594 537v-158h-508v129q334 209 334 330q0 35 -21.5 56t-60.5 21q-88 0 -88 -100v-10h-164v14q0 123 77 185.5t179 62.5t174 -62.5t72 -160.5q0 -156 -195 -307h201z" glyph-name="uniE452" horiz-adv-x="681" unicode=""/><glyph d="M74 434l80 137q98 -49 172 -49q94 0 94 56q0 72 -176 71v133q86 0 124 24.5t38 57.5q0 27 -23 41.5t-53 14.5q-35 0 -58.5 -16.5t-23.5 -49.5v-4h-158v16q0 94 70.5 147.5t169 53.5t170 -53t71.5 -142q0 -98 -90 -151q111 -49 111 -156q0 -88 -73 -143t-189 -55 q-133 -1 -256 67z" glyph-name="uniE453" horiz-adv-x="671" unicode=""/><glyph d="M557 379h-164v125h-325v123l174 428h178l-170 -398h143v146l164 51v-197h94v-153h-94v-125z" glyph-name="uniE454" horiz-adv-x="722" unicode=""/><glyph d="M123 1055h418v-156h-256v-92h8q143 0 217 -62.5t74 -162.5q0 -96 -69 -155.5t-191 -59.5q-135 0 -258 67l77 137q104 -49 174 -49q90 0 91 64q0 76 -158 76h-127v393z" glyph-name="uniE455" horiz-adv-x="659" unicode=""/><glyph d="M537 1055l-166 -201q106 -2 174.5 -66.5t68.5 -164.5q0 -111 -77.5 -183.5t-190.5 -72.5t-191.5 72.5t-78.5 174.5q0 100 96 224l172 217h193zM344 723q-47 0 -79 -28.5t-32 -74t32 -74t79 -28.5t80 28.5t33 74t-33 74t-80 28.5z" glyph-name="uniE456" horiz-adv-x="686" unicode=""/><glyph d="M70 897v158h483v-135l-266 -541h-187l265 518h-295z" glyph-name="uniE457" horiz-adv-x="614" unicode=""/><glyph d="M633 580q0 -98 -81 -155.5t-195.5 -57.5t-195.5 57t-81 156q0 106 94 159q-66 45 -65 133q0 90 72.5 142.5t176.5 52.5q102 0 174 -52t72 -143q0 -88 -65 -133q94 -53 94 -159zM467 588q0 35 -30.5 59.5t-80 24.5t-80 -24.5t-30.5 -59.5q0 -33 30.5 -57.5t80 -24.5 t80 24.5t30.5 57.5zM449 866.5q0 28.5 -25 47t-68 18.5t-67.5 -18.5t-24.5 -47t24.5 -49t67.5 -20.5t68 20.5t25 49z" glyph-name="uniE458" horiz-adv-x="714" unicode=""/><glyph d="M150 379l165 201q-106 2 -174.5 66.5t-68.5 164.5q0 111 77.5 183.5t190.5 72.5t191.5 -72.5t78.5 -175.5q0 -100 -96 -223l-172 -217h-192zM342 711q47 0 79 28.5t32 73.5t-32 73.5t-79 28.5t-80 -28.5t-33 -73.5t33 -73.5t80 -28.5z" glyph-name="uniE459" horiz-adv-x="684" unicode=""/><glyph d="M76 421.5q0 188.5 91 310.5t259 122t259 -122t91 -310.5t-91 -310t-259 -121.5t-259 121.5t-91 310zM287 422q0 -113 37.5 -178.5t101.5 -65.5q66 0 103.5 65.5t37.5 178.5q0 111 -37.5 177.5t-103.5 66.5t-102.5 -65.5t-36.5 -178.5z" glyph-name="uniE500" horiz-adv-x="851" unicode=""/><glyph d="M213 0v596l-152 -82v215l203 111h156v-840h-207z" glyph-name="uniE501" horiz-adv-x="538" unicode=""/><glyph d="M672 188v-188h-590v150q381 289 381 423q0 43 -24.5 69t-61.5 26q-41 0 -71 -29t-30 -90v-14h-198v16q0 152 90 226.5t213 74.5q121 0 205 -71.5t84 -188.5q0 -186 -238 -404h240z" glyph-name="uniE502" horiz-adv-x="755" unicode=""/><glyph d="M61 70l89 168q123 -61 204 -62q111 0 111 74q0 92 -205 92v158q184 0 184 108q0 35 -22.5 54.5t-56.5 19.5q-90 0 -91 -82v-6h-196v20q0 113 85 176.5t201.5 63.5t200.5 -63.5t84 -174.5q0 -123 -114 -188q137 -57 137 -192q0 -111 -85 -178.5t-227 -67.5q-154 0 -299 80 z" glyph-name="uniE503" horiz-adv-x="747" unicode=""/><glyph d="M631 0h-199v156h-375v145l197 539h217l-192 -500h153v203l199 55v-258h104v-184h-104v-156z" glyph-name="uniE504" horiz-adv-x="792" unicode=""/><glyph d="M121 840h497v-187h-299v-125h7q168 0 257 -76.5t89 -199.5q0 -119 -82 -191.5t-232 -72.5q-156 0 -301 80l93 159q127 -57 200 -57q115 0 115 84q0 104 -195 104h-149v482z" glyph-name="uniE505" horiz-adv-x="739" unicode=""/><glyph d="M608 840l-198 -262h16q121 0 198.5 -78t77.5 -203q0 -135 -91 -222t-226 -87t-227 88t-92 215q0 115 110 266l205 283h227zM383 422q-51 0 -83 -37t-32 -90t33 -88t84 -35q49 0 83 36t34 89q0 55 -34 90t-85 35z" glyph-name="uniE506" horiz-adv-x="763" unicode=""/><glyph d="M61 649v191h555v-154l-299 -686h-223l295 649h-328z" glyph-name="uniE507" horiz-adv-x="667" unicode=""/><glyph d="M731 244q0 -119 -96 -186.5t-233.5 -67.5t-232.5 67.5t-95 186.5q0 137 123 202q-92 57 -92.5 168t87 175.5t209.5 64.5q125 0 212 -63.5t87 -176.5q0 -111 -94 -168q125 -67 125 -202zM524 256q0 47 -32.5 74.5t-90.5 27.5q-55 0 -87.5 -27.5t-32.5 -74.5t31.5 -72.5 t89 -25.5t90 25.5t32.5 72.5zM502 604q0 39 -25.5 63.5t-75.5 24.5q-45 0 -70.5 -24.5t-25.5 -63.5q0 -37 26.5 -62.5t69.5 -25.5q45 0 73 25.5t28 62.5z" glyph-name="uniE508" horiz-adv-x="804" unicode=""/><glyph d="M156 0l198 262h-16q-121 0 -199 78t-78 203q0 135 91.5 222t226.5 87t227 -88t92 -215q0 -115 -110 -266l-205 -283h-227zM381 418q51 0 83 37t32 90t-33 88t-84 35q-49 0 -83 -36t-34 -89q0 -55 34 -90t85 -35z" glyph-name="uniE509" horiz-adv-x="765" unicode=""/><glyph d="M76 1286.5q0 188.5 91 310t259 121.5t259 -121.5t91 -310t-91 -310.5t-259 -122t-259 122t-91 310.5zM287 1286.5q0 -112.5 37.5 -178.5t101.5 -66q66 0 103.5 66t37.5 178q0 111 -37.5 177.5t-103.5 66.5t-102.5 -65.5t-36.5 -178z" glyph-name="uniE520" horiz-adv-x="851" unicode=""/><glyph d="M213 866v596l-152 -82v215l203 111h156v-840h-207z" glyph-name="uniE521" horiz-adv-x="538" unicode=""/><glyph d="M672 1055v-189h-590v150q381 289 381 424q0 43 -24.5 68.5t-61.5 25.5q-41 0 -71 -28.5t-30 -90.5v-14h-198v16q0 152 90 226.5t213 74.5q121 0 205 -71.5t84 -188.5q0 -186 -238 -403h240z" glyph-name="uniE522" horiz-adv-x="755" unicode=""/><glyph d="M61 934l89 168q123 -61 204 -62q111 0 111 74q0 92 -205 92v158q184 0 184 109q0 35 -22.5 54t-56.5 19q-90 0 -91 -82v-6h-196v21q0 113 85 176t201.5 63t200.5 -63.5t84 -173.5q0 -123 -114 -189q137 -57 137 -192q0 -111 -85 -178.5t-227 -67.5q-154 0 -299 80z" glyph-name="uniE523" horiz-adv-x="747" unicode=""/><glyph d="M631 866h-199v156h-375v145l197 539h217l-192 -500h153v203l199 55v-258h104v-184h-104v-156z" glyph-name="uniE524" horiz-adv-x="792" unicode=""/><glyph d="M121 1706h497v-186h-299v-125h7q168 0 257 -77t89 -200q0 -119 -82 -191.5t-232 -72.5q-156 0 -301 80l93 160q127 -57 200 -58q115 0 115 84q0 104 -195 105h-149v481z" glyph-name="uniE525" horiz-adv-x="739" unicode=""/><glyph d="M608 1706l-198 -262h16q121 0 198.5 -78t77.5 -203q0 -135 -91 -222t-226 -87t-227 88t-92 215q0 115 110 266l205 283h227zM383 1288q-51 0 -83 -37t-32 -90t33 -88t84 -35q49 0 83 36t34 89q0 55 -34 90t-85 35z" glyph-name="uniE526" horiz-adv-x="763" unicode=""/><glyph d="M61 1516v190h555v-154l-299 -686h-223l295 650h-328z" glyph-name="uniE527" horiz-adv-x="667" unicode=""/><glyph d="M731 1108q0 -119 -96 -186.5t-233.5 -67.5t-232.5 67.5t-95 186.5q0 137 123 203q-92 57 -92.5 167.5t87 175t209.5 64.5q125 0 212 -63.5t87 -175.5q0 -111 -94 -168q125 -68 125 -203zM524 1120q0 47 -32.5 75t-90.5 28q-55 0 -87.5 -28t-32.5 -75t31.5 -72.5t89 -25.5 t90 25.5t32.5 72.5zM502 1468q0 39 -25.5 63.5t-75.5 24.5q-45 0 -70.5 -24.5t-25.5 -63.5q0 -37 26.5 -62.5t69.5 -25.5q45 0 73 25.5t28 62.5z" glyph-name="uniE528" horiz-adv-x="804" unicode=""/><glyph d="M156 866l198 262h-16q-121 0 -199 78t-78 203q0 135 91.5 222t226.5 87t227 -88t92 -215q0 -115 -110 -266l-205 -283h-227zM381 1284q51 0 83 37t32 90t-33 88t-84 35q-49 0 -83 -36t-34 -89q0 -55 34 -90t85 -35z" glyph-name="uniE529" horiz-adv-x="765" unicode=""/><glyph d="M96 250l146 149q-49 88 -49 191q0 100 49 188l-146 152l162 160l152 -158q84 39 174 39t172 -39l153 158l162 -160l-145 -150q51 -90 51 -190q0 -104 -51 -191l145 -149l-162 -160l-153 156q-76 -37 -172 -37q-94 0 -174 37l-152 -156zM428 590q0 -72 45 -120t111 -48 q68 0 111.5 48t43.5 120t-44 120t-111 48q-66 0 -111 -48t-45 -120z" glyph-name="uniE600" horiz-adv-x="1169" unicode=""/><glyph d="M162 702v218h192l45 262h217l-45 -262h215l45 262h218l-45 -262h157v-218h-192l-37 -223h160v-217h-197l-43 -262h-219l43 262h-213l-43 -262h-219l43 262h-154v217h191l38 223h-157zM537 702l-37 -223h213l39 223h-215z" glyph-name="uniE601" horiz-adv-x="1251" unicode=""/><glyph d="M418 -133v174q-137 23 -224.5 96.5t-101.5 196.5l238 57q14 -150 207 -149q168 0 168 84q0 74 -203 145q-25 10 -37 14q-174 63 -266.5 142.5t-92.5 216.5q0 123 83 200.5t229 96.5v174h217v-182q133 -27 212 -110t79 -214v-31h-238v13q0 147 -184 147q-147 0 -148 -90 q0 -49 48.5 -79t148.5 -64q98 -35 153.5 -59.5t122 -69t97 -103.5t30.5 -137q0 -123 -86 -201t-235 -96v-172h-217z" glyph-name="uniE602" horiz-adv-x="1044" unicode=""/><glyph d="M76 891q0 131 91 221t224 90q135 0 226.5 -90t91.5 -221t-91.5 -221t-226.5 -90q-133 0 -224 90t-91 221zM276 891q0 -51 33 -85t82 -34q51 0 84 34t33 85t-33 84t-84 33q-49 0 -82 -33t-33 -84zM473 0h-235l876 1182h236zM879 291q0 131 92 222t225 91t224 -91t91 -222 t-91 -221t-224 -90t-225 90t-92 221zM1079 291q0 -51 33 -84t84 -33q49 0 82 33t33 84t-33 85t-82 34q-51 0 -84 -34t-33 -85z" glyph-name="uniE603" horiz-adv-x="1589" unicode=""/><glyph d="M414 0v172q-143 35 -231.5 149.5t-88.5 270.5q0 154 88 267.5t232 148.5v174h217v-174q104 -27 180 -100.5t111 -174.5l-232 -76q-18 63 -63 101.5t-107 38.5q-78 0 -127 -57.5t-49 -147.5q0 -92 49 -149.5t127 -57.5q61 0 106.5 38t63.5 101l232 -75q-35 -102 -111 -176 t-180 -101v-172h-217z" glyph-name="uniE604" horiz-adv-x="1001" unicode=""/><glyph d="M137 0v176q129 111 135 252h-161v207h116q-2 4 -13 30.5t-14 35t-12.5 32t-12.5 36.5t-8 33.5t-7 41t-2 41.5q0 145 101 232t257 87q158 0 267.5 -95t109.5 -269v-27h-236v14q0 76 -36.5 115t-94.5 39q-53 0 -90 -37t-37 -96q0 -31 9.5 -61.5t33 -81t31.5 -70.5h266v-207 h-233q-6 -109 -68 -195h445v-233h-746z" glyph-name="uniE605" horiz-adv-x="1001" unicode=""/><glyph d="M612 696l246 486h293l-315 -559h221v-205h-314v-58h314v-202h-314v-158h-260v158h-315v202h315v58h-315v205h221l-313 559h291z" glyph-name="uniE606" horiz-adv-x="1226" unicode=""/><glyph d="M76 891q0 131 91 221t224 90q135 0 226.5 -90t91.5 -221t-91.5 -221t-226.5 -90q-133 0 -224 90t-91 221zM276 891q0 -51 33 -85t82 -34q51 0 84 34t33 85t-33 84t-84 33q-49 0 -82 -33t-33 -84zM473 0h-235l876 1182h236zM879 291q0 131 92 222t225 91t224 -91t91 -222 t-91 -221t-224 -90t-225 90t-92 221zM1079 291q0 -51 33 -84t84 -33q49 0 82 33t33 84t-33 85t-82 34q-51 0 -84 -34t-33 -85zM1569 291q0 131 92 222t225 91t225.5 -91t92.5 -222t-92.5 -221t-225.5 -90t-225 90t-92 221zM1769 291q0 -51 33 -84t84 -33q49 0 82 33t33 84 t-33 85t-82 34q-51 0 -84 -34t-33 -85z" glyph-name="uniE607" horiz-adv-x="2263" unicode=""/><glyph d="M938 539l-49 -183h-350q92 -139 256 -139q131 0 217 90l164 -172q-162 -158 -383 -158q-186 0 -332 103.5t-211 275.5h-160v183h121q-2 16 -2 51v45h-119v184h158q61 174 208.5 279.5t336.5 105.5q221 0 383 -157l-164 -173q-90 90 -217 91q-168 0 -260 -146h471 l-50 -184h-481q-2 -14 -2 -45q0 -35 2 -51h463z" glyph-name="uniE608" horiz-adv-x="1271" unicode=""/><glyph d="M127 705v190h301q-51 78 -170 78h-131v209h762l-55 -191h-185q33 -45 47 -96h195l-57 -190h-125q-33 -231 -250 -308l338 -397h-318l-352 418v172h131q150 0 191 115h-322z" glyph-name="uniE609" horiz-adv-x="978" unicode=""/><glyph d="M713 0h-312l-63 344h-232v215h193l-12 66h-181v213h142l-64 344h265l122 -762l111 762h285l108 -764l127 764h262l-63 -344h143v-213h-182l-12 -66h194v-215h-233l-64 -344h-309l-115 778z" glyph-name="uniE610" horiz-adv-x="1648" unicode=""/><glyph d="M115 147v209h96v64h-96v225h96v537h432q195 0 300.5 -108.5t105.5 -272.5q0 -166 -105.5 -273.5t-300.5 -107.5h-180v-64h274v-209h-274v-147h-252v147h-96zM463 645h151q84 0 130.5 44t46.5 111.5t-46.5 111.5t-130.5 44h-151v-311z" glyph-name="uniE611" horiz-adv-x="1124" unicode=""/><glyph d="M113 598v215l143 43v326h258v-248l387 117v-215l-387 -117v-66l387 119v-215l-387 -119v-202h102q188 0 224 217l247 -56q-35 -209 -149.5 -303t-353.5 -94h-328v360l-143 -43v215l143 43v66z" glyph-name="uniE612" horiz-adv-x="1157" unicode=""/><glyph d="M1114 346l318 -346h-353l-153 166q-229 -188 -453 -189q-176 0 -282.5 94.5t-106.5 247.5q0 139 83 238.5t234 194.5q-133 172 -133 333q0 158 115 264.5t287 106.5q168 0 276.5 -100.5t108.5 -245.5q0 -76 -32 -143.5t-97.5 -128t-120.5 -100.5t-143 -95 q-16 -10 -52.5 -31.5t-51.5 -31t-45 -27.5t-43 -28.5t-35.5 -27t-34 -28.5t-25 -28.5t-19.5 -31t-11 -31t-5 -34.5q0 -59 43 -100t117 -41q80 0 161.5 54t194.5 167q109 109 299 340l188 -150q-98 -133 -229 -268zM815 1100q0 63 -39 100t-100 37q-68 0 -110 -43t-42 -109 q0 -84 103 -202q98 61 143 110.5t45 106.5z" glyph-name="uniE650" horiz-adv-x="1441" unicode=""/><glyph d="M670 922l-76 -222q-94 25 -166 91q-80 -96 -80 -228q0 -150 103.5 -250t253 -100t254 100.5t104.5 249.5q0 92 -45 170l-60 -43q-82 -57 -81 -129q0 -55 45 -90l-154 -145q-113 96 -113 245q0 174 166 293l314 232q86 61 86 133q0 63 -62 106l158 166q139 -106 139 -276 q0 -180 -170 -299l-63 -45q92 -139 92 -318q0 -252 -177 -422t-433 -170t-433.5 170t-177.5 422q0 283 215 451q-4 20 -4 59q0 166 117 277.5t283 111.5q119 0 217 -61.5t145 -163.5l-215 -107q-16 43 -55 70t-86 27q-66 0 -112 -45t-46 -111q0 -55 33 -95t84 -54z" glyph-name="uniE651" horiz-adv-x="1542" unicode=""/><glyph d="M260 70l131 -33q-209 -174 -209 -287q0 -68 76 -67q27 0 59 10l33 -197q-45 -16 -110 -16q-115 0 -184.5 54t-69.5 155q0 182 274 381z" glyph-name="uniE700" horiz-adv-x="385" unicode=""/><glyph d="M152 -645l-95 86q51 45 89 99t38 93q-57 -14 -106 23t-49 98q0 53 37.5 92t101.5 39q68 0 113 -46t45 -140q0 -184 -174 -344z" glyph-name="uniF6C3" horiz-adv-x="327" unicode=""/><glyph d="M299 594v119q-104 27 -167.5 108.5t-63.5 192.5q0 109 64.5 191.5t166.5 109.5v119h168v-119q160 -45 211 -205l-182 -57q-33 90 -113 90q-51 0 -83 -36t-32 -93.5t32 -93t83 -35.5q80 0 113 90l182 -57q-25 -76 -80 -130.5t-131 -74.5v-119h-168z" glyph-name="uniF6E0" horiz-adv-x="737" unicode=""/><glyph d="M297 502v125q-205 35 -231 204l188 50q16 -98 137 -99q102 0 103 56q0 31 -33 49t-99 43q-16 6 -24 8q-129 49 -195.5 103.5t-66.5 152.5q0 86 58.5 140.5t162.5 70.5v121h168v-127q96 -18 153.5 -78.5t57.5 -155.5v-22h-195v10q0 92 -110 92q-92 0 -92 -53 q0 -47 122 -92q74 -27 116 -46.5t89 -51t68.5 -73.5t21.5 -95q0 -88 -62.5 -142.5t-168.5 -68.5v-121h-168z" glyph-name="uniF6E4" horiz-adv-x="759" unicode=""/><glyph d="M1255 674q-12 -4 -17 -11.5t-2 -15.5t13 -14l51 -37q16 -10 14.5 -20.5t-20.5 -12.5l-61 -12q-18 -2 -21.5 -14.5t7.5 -24.5l43 -45q14 -12 11 -22.5t-24 -8.5l-63 2q-18 0 -24.5 -10t3.5 -27l33 -53q8 -16 3 -24.5t-21 -1.5l-62 14q-16 4 -25.5 -5t-2.5 -26l20 -59 q6 -16 -1 -23.5t-24 0.5l-57 27q-35 16 -35 -25l11 -61q2 -18 -6.5 -23.5t-22.5 4.5l-51 41q-14 10 -25.5 5t-13.5 -23l-2 -64q-6 -37 -33 -10l-41 49q-27 29 -41 -8l-18 -61q-4 -18 -14.5 -19.5t-18.5 15.5l-31 55q-20 37 -43 0l-27 -55q-6 -10 -13 -14.5t-13 0.5t-8 18 l-19 61q-12 39 -39 8l-43 -49q-27 -31 -30 10l-5 64q-4 41 -40 18l-50 -41q-14 -10 -22 -5t-4 24l8 61q2 18 -9.5 25.5t-27.5 -0.5l-55 -27q-16 -8 -23.5 -1t-1.5 24l21 59q6 16 -2.5 25.5t-24.5 5.5l-63 -14q-16 -6 -22.5 3t3.5 23l35 53q8 16 2 26.5t-23 10.5l-65 -2 q-18 -2 -22.5 8.5t8.5 22.5l47 45q12 12 7 24.5t-24 14.5l-61 12q-18 2 -20.5 12.5t14.5 20.5l51 37q10 6 12 10q18 10 33 -12l29 -53q6 -12 12 -15.5t11 0.5t9 17l17 57q6 20 18.5 23.5t22.5 -13.5l43 -47q10 -14 19 -10t11 22l5 62q8 43 41 16l49 -37q14 -12 22 -7t4 24 l-6 61q-2 18 7.5 25.5t25.5 -0.5l57 -27q16 -8 23.5 -1t-0.5 24l-19 61q-6 16 2.5 24.5t24.5 6.5l35 -10q51 -66 84 -194t33 -206q-12 -14 -42 -24.5t-56.5 -4t-26.5 32.5q0 35 -23.5 60.5t-64.5 25.5q-35 0 -60.5 -26.5t-25.5 -63.5q0 -51 43 -85t114 -34q139 0 277 115 q98 84 156.5 203t58.5 215q0 70 -32 108.5t-83 38.5q-43 0 -72.5 -30.5t-29.5 -73.5t29.5 -75t70.5 -32q-23 -115 -84 -196q0 119 -40 226.5t-109 152.5q-4 4 -5 8l-45 43q-29 29 13 41l63 10q10 2 15.5 7t3.5 12.5t-13 13.5l-53 37q-35 25 4 41l58 26q18 4 18 14.5 t-18 18.5l-58 25q-23 2 -18 24q12 6 14 15l31 55q4 10 11 14t13.5 -1t8.5 -15l18 -62q14 -41 41 -10l41 51q27 27 33 -12l2 -61q2 -20 13 -24.5t26 5.5l51 39q14 10 22.5 5t6.5 -23l-11 -62q0 -41 35 -24l57 28q16 8 23.5 1t1.5 -25l-20 -60q-6 -16 3 -25.5t25 -4.5l62 14 q16 6 21 -1t-3 -24l-33 -53q-20 -39 21 -39l63 4q20 2 23.5 -9t-10.5 -23l-43 -46q-10 -12 -7.5 -24t21.5 -14l61 -11q18 -4 20.5 -14t-14.5 -18l-51 -37q-10 -6 -13 -15.5t2 -16.5t17 -11l58 -23q31 -16 0 -35z" glyph-name="uniF8FF" horiz-adv-x="1361" unicode=""/><glyph glyph-name="glyph580" horiz-adv-x="0"/></font>
</defs>
</svg>
