<?xml version="1.0" standalone="no"?>
<!DOCTYPE svg PUBLIC "-//W3C//DTD SVG 1.1//EN" "http://www.w3.org/Graphics/SVG/1.1/DTD/svg11.dtd">
<svg xmlns="http://www.w3.org/2000/svg"><metadata>This SVG WebFont was generated by YouWorkForThem.
Copyright (c) 2018 by Ryan Martinson. All rights reserved.</metadata><defs><font horiz-adv-x="1300" id="ywftsvg"><font-face ascent="1638" bbox="-514 -1090 3060 2023" cap-height="1434" descent="-410" font-family="" font-stretch="normal" font-weight="925" panose-1="2 11 10 3 4 0 0 2 0 3" underline-position="0" underline-thickness="0" unicode-range="U+0020-FB04" units-per-em="2048" x-height="1067"/><missing-glyph d="M115 0l252 1434h974l-251 -1434h-975zM416 258h465l161 918h-464z" horiz-adv-x="1390"/><glyph d="M82 723l61 344h172l2 12q37 221 157 322.5t286 101.5q129 0 274 -55l-102 -283q-55 16 -105 17q-82 0 -96 -101l-2 -14h250l-59 -344h-252l-133 -760q-37 -217 -157 -317.5t-286 -100.5q-152 0 -301 62l105 284q63 -25 129 -24q78 0 96 98l133 758h-172zM1100 1337 q0 100 76.5 174t183.5 74q92 0 154.5 -62.5t62.5 -152.5q0 -100 -77 -174t-183 -74q-92 0 -154.5 62.5t-62.5 152.5zM668 -381l108 303q31 -10 53 -10q51 0 60 57l194 1098h414l-201 -1139q-31 -176 -139 -263t-268 -87q-112 0 -221 41z" glyph-name="uniE200" horiz-adv-x="1501" unicode="fj"/><glyph d="M82 723l61 344h172l2 12q37 221 157 322.5t286 101.5q147 0 323 -73l-108 -279q-76 31 -148 31q-82 0 -96 -101l-2 -14h225l-61 -344h-225l-133 -760q-37 -217 -157 -317.5t-286 -100.5q-152 0 -301 62l105 284q63 -25 129 -24q78 0 96 98l133 758h-172zM983 723l59 344 h148l2 12q37 221 156.5 322.5t285.5 101.5q129 0 275 -55l-103 -283q-55 16 -104 17q-82 0 -96 -101l-2 -14h249l-61 -344h-250l-133 -760q-37 -217 -156.5 -317.5t-285.5 -100.5q-152 0 -301 62l104 284q66 -25 129 -24q78 0 96 98l133 758h-145zM1972 1337q0 100 77 174 t183 74q92 0 154.5 -62.5t62.5 -152.5q0 -100 -76.5 -174t-183.5 -74q-92 0 -154.5 62.5t-62.5 152.5zM1540 -381l109 303q31 -10 53 -10q51 0 59 57l195 1098h414l-201 -1139q-31 -176 -139.5 -263t-268.5 -87q-112 0 -221 41z" glyph-name="uniE201" horiz-adv-x="2373" unicode="ffj"/><glyph d="M82 723l61 344h172l2 12q37 221 157 322.5t286 101.5q129 0 274 -55l-102 -283q-55 16 -105 17q-82 0 -96 -101l-2 -14h250l-59 -344h-252l-133 -760q-37 -217 -157 -317.5t-286 -100.5q-152 0 -301 62l105 284q63 -25 129 -24q78 0 96 98l133 758h-172zM1563 1434 l-84 -484q106 141 274 142q178 0 281.5 -130.5t103.5 -332.5q0 -154 -54 -299.5t-173 -250t-277 -104.5q-223 0 -299 162l-24 -137h-414l252 1434h414zM1583 733q-88 0 -142.5 -69.5t-54.5 -167.5q0 -72 38 -117t112 -45q88 0 143.5 69.5t55.5 165.5q0 72 -39 118t-113 46z " glyph-name="uniE202" horiz-adv-x="2197" unicode="fb"/><glyph d="M82 723l61 344h172l2 12q37 221 157 322.5t286 101.5q147 0 323 -73l-108 -279q-76 31 -148 31q-82 0 -96 -101l-2 -14h225l-61 -344h-225l-133 -760q-37 -217 -157 -317.5t-286 -100.5q-152 0 -301 62l105 284q63 -25 129 -24q78 0 96 98l133 758h-172zM983 723l59 344 h148l2 12q37 221 156.5 322.5t285.5 101.5q129 0 275 -55l-103 -283q-55 16 -104 17q-82 0 -96 -101l-2 -14h249l-61 -344h-250l-133 -760q-37 -217 -156.5 -317.5t-285.5 -100.5q-152 0 -301 62l104 284q66 -25 129 -24q78 0 96 98l133 758h-145zM2435 1434l-84 -484 q106 141 275 142q178 0 281.5 -130.5t103.5 -332.5q0 -154 -54.5 -299.5t-173.5 -250t-276 -104.5q-223 0 -299 162l-25 -137h-414l252 1434h414zM2456 733q-88 0 -142.5 -69.5t-54.5 -167.5q0 -72 38 -117t111 -45q88 0 143.5 69.5t55.5 165.5q0 72 -38.5 118t-112.5 46z " glyph-name="uniE203" horiz-adv-x="3069" unicode="ffb"/><glyph d="M82 723l61 344h172l2 12q37 221 157 322.5t286 101.5q129 0 274 -55l-102 -283q-55 16 -105 17q-82 0 -96 -101l-2 -14h250l-59 -344h-252l-133 -760q-37 -217 -157 -317.5t-286 -100.5q-152 0 -301 62l105 284q63 -25 129 -24q78 0 96 98l133 758h-172zM1591 0l-127 369 h-92l-63 -369h-414l252 1434h414l-131 -738h67l223 371h465l-354 -551l192 -516h-432z" glyph-name="uniE204" horiz-adv-x="2127" unicode="fk"/><glyph d="M82 723l61 344h172l2 12q37 221 157 322.5t286 101.5q147 0 323 -73l-108 -279q-76 31 -148 31q-82 0 -96 -101l-2 -14h225l-61 -344h-225l-133 -760q-37 -217 -157 -317.5t-286 -100.5q-152 0 -301 62l105 284q63 -25 129 -24q78 0 96 98l133 758h-172zM983 723l59 344 h148l2 12q37 221 156.5 322.5t285.5 101.5q129 0 275 -55l-103 -283q-55 16 -104 17q-82 0 -96 -101l-2 -14h249l-61 -344h-250l-133 -760q-37 -217 -156.5 -317.5t-285.5 -100.5q-152 0 -301 62l104 284q66 -25 129 -24q78 0 96 98l133 758h-145zM2466 0l-127 369h-92 l-64 -369h-414l252 1434h414l-131 -738h68l223 371h465l-355 -551l193 -516h-432z" glyph-name="uniE205" horiz-adv-x="3000" unicode="ffk"/><glyph d="M82 723l61 344h172l2 12q37 221 157 322.5t286 101.5q129 0 274 -55l-102 -283q-55 16 -105 17q-82 0 -96 -101l-2 -14h250l-59 -344h-252l-133 -760q-37 -217 -157 -317.5t-286 -100.5q-152 0 -301 62l105 284q63 -25 129 -24q78 0 96 98l133 758h-172zM1567 0l104 592 q4 29 4 51q0 55 -27.5 80t-66.5 25q-57 0 -106.5 -43t-57.5 -91l-108 -614h-414l252 1434h414l-88 -506q113 164 319 164q147 0 229 -85t82 -249q0 -66 -14 -144l-109 -614h-413z" glyph-name="uniE206" horiz-adv-x="2162" unicode="fh"/><glyph d="M82 723l61 344h172l2 12q37 221 157 322.5t286 101.5q147 0 323 -73l-108 -279q-76 31 -148 31q-82 0 -96 -101l-2 -14h225l-61 -344h-225l-133 -760q-37 -217 -157 -317.5t-286 -100.5q-152 0 -301 62l105 284q63 -25 129 -24q78 0 96 98l133 758h-172zM983 723l59 344 h148l2 12q37 221 156.5 322.5t285.5 101.5q129 0 275 -55l-103 -283q-55 16 -104 17q-82 0 -96 -101l-2 -14h249l-61 -344h-250l-133 -760q-37 -217 -156.5 -317.5t-285.5 -100.5q-152 0 -301 62l104 284q66 -25 129 -24q78 0 96 98l133 758h-145zM2441 0l105 592q4 29 4 51 q0 55 -28 80t-66 25q-57 0 -106.5 -43t-57.5 -91l-109 -614h-414l252 1434h414l-88 -506q113 164 319 164q147 0 229.5 -85t82.5 -249q0 -66 -15 -144l-108 -614h-414z" glyph-name="uniE207" horiz-adv-x="3037" unicode="ffh"/><glyph d="M82 723l61 344h172l2 12q37 221 157 322.5t286 101.5q129 0 274 -55l-102 -283q-55 16 -105 17q-82 0 -96 -101l-2 -14h225l-59 -344h-227l-133 -760q-37 -217 -157 -317.5t-286 -100.5q-152 0 -301 62l105 284q63 -25 129 -24q78 0 96 98l133 758h-172zM983 723l61 344 h146l37 211l438 139l-61 -350h284l-61 -344h-285l-47 -274q-4 -25 -4 -35q0 -74 86 -74q49 0 129 27l78 -324q-164 -68 -309 -68q-397 0 -398 375q0 78 15 158l36 215h-145z" glyph-name="uniE208" horiz-adv-x="1873" unicode="ft"/><glyph d="M82 723l61 344h172l2 12q37 221 157 322.5t286 101.5q147 0 323 -73l-108 -279q-76 31 -148 31q-82 0 -96 -101l-2 -14h225l-61 -344h-225l-133 -760q-37 -217 -157 -317.5t-286 -100.5q-152 0 -301 62l105 284q63 -25 129 -24q78 0 96 98l133 758h-172zM983 723l59 344 h148l2 12q37 221 156.5 322.5t285.5 101.5q129 0 275 -55l-103 -283q-55 16 -104 17q-82 0 -96 -101l-2 -14h225l-62 -344h-225l-133 -760q-37 -217 -156.5 -317.5t-285.5 -100.5q-152 0 -301 62l104 284q66 -25 129 -24q78 0 96 98l133 758h-145zM1858 723l61 344h145 l37 211l439 139l-62 -350h285l-62 -344h-284l-47 -274q-4 -25 -5 -35q0 -74 86 -74q49 0 129 27l78 -324q-164 -68 -309 -68q-397 0 -397 375q0 78 14 158l37 215h-145z" glyph-name="uniE209" horiz-adv-x="2746" unicode="fft"/><glyph d="M59 723l62 344h170l39 213l436 137l-64 -350h273l-62 -344h-270l-49 -274q-18 -109 84 -109q49 0 129 27l78 -324q-164 -68 -310 -68q-475 0 -382 533l36 215h-170zM1012 723l59 344h148l36 213l437 137l-64 -350h287l-60 -344h-286l-49 -274q-18 -109 84 -109 q49 0 129 27l77 -324q-164 -68 -307 -68q-479 0 -383 533l37 215h-145z" glyph-name="uniE210" horiz-adv-x="1898" unicode="tt"/><glyph d="M82 723l61 344h172l2 12q37 221 157 322.5t286 101.5q147 0 323 -73l-108 -279q-76 31 -148 31q-82 0 -96 -101l-2 -14h225l-61 -344h-225l-133 -760q-37 -217 -157 -317.5t-286 -100.5q-152 0 -301 62l105 284q63 -25 129 -24q78 0 96 98l133 758h-172zM983 723l59 344 h148l2 12q37 221 156.5 322.5t285.5 101.5q147 0 324 -73l-111 -279q-76 31 -145 31q-82 0 -96 -101l-2 -14h249l-61 -344h-250l-133 -760q-37 -217 -156.5 -317.5t-285.5 -100.5q-152 0 -301 62l104 284q66 -25 129 -24q78 0 96 98l133 758h-145z" glyph-name="uniFB00" horiz-adv-x="1785" unicode="ff"/><glyph d="M82 723l61 344h172l2 12q37 221 157 322.5t286 101.5q129 0 274 -55l-102 -283q-55 16 -105 17q-82 0 -96 -101l-2 -14h250l-59 -344h-252l-133 -760q-37 -217 -157 -317.5t-286 -100.5q-152 0 -301 62l105 284q63 -25 129 -24q78 0 96 98l133 758h-172zM1100 1337 q0 100 77.5 174t182.5 74q94 0 156.5 -62.5t62.5 -152.5q0 -100 -78 -174t-182 -74q-94 0 -156.5 62.5t-62.5 152.5zM895 0l188 1067h414l-188 -1067h-414z" glyph-name="uniFB01" horiz-adv-x="1501" unicode="fi"/><glyph d="M82 723l61 344h172l2 12q37 221 157 322.5t286 101.5q129 0 274 -55l-102 -283q-55 16 -105 17q-82 0 -96 -101l-2 -14h250l-59 -344h-252l-133 -760q-37 -217 -157 -317.5t-286 -100.5q-152 0 -301 62l105 284q63 -25 129 -24q78 0 96 98l133 758h-172zM895 0l252 1434 h414l-252 -1434h-414z" glyph-name="uniFB02" horiz-adv-x="1501" unicode="fl"/><glyph d="M82 723l61 344h172l2 12q37 221 157 322.5t286 101.5q147 0 323 -73l-108 -279q-76 31 -148 31q-82 0 -96 -101l-2 -14h225l-61 -344h-225l-133 -760q-37 -217 -157 -317.5t-286 -100.5q-152 0 -301 62l105 284q63 -25 129 -24q78 0 96 98l133 758h-172zM983 723l59 344 h148l2 12q37 221 156.5 322.5t285.5 101.5q129 0 275 -55l-103 -283q-55 16 -104 17q-82 0 -96 -101l-2 -14h249l-61 -344h-250l-133 -760q-37 -217 -156.5 -317.5t-285.5 -100.5q-152 0 -301 62l104 284q66 -25 129 -24q78 0 96 98l133 758h-145zM1974 1337q0 100 78 174 t182 74q94 0 157 -62.5t63 -152.5q0 -100 -78 -174t-183 -74q-94 0 -156.5 62.5t-62.5 152.5zM1769 0l189 1067h414l-189 -1067h-414z" glyph-name="uniFB03" horiz-adv-x="2373" unicode="ffi"/><glyph d="M82 723l61 344h172l2 12q37 221 157 322.5t286 101.5q147 0 323 -73l-108 -279q-76 31 -148 31q-82 0 -96 -101l-2 -14h225l-61 -344h-225l-133 -760q-37 -217 -157 -317.5t-286 -100.5q-152 0 -301 62l105 284q63 -25 129 -24q78 0 96 98l133 758h-172zM983 723l59 344 h148l2 12q37 221 156.5 322.5t285.5 101.5q129 0 275 -55l-103 -283q-55 16 -104 17q-82 0 -96 -101l-2 -14h249l-61 -344h-250l-133 -760q-37 -217 -156.5 -317.5t-285.5 -100.5q-152 0 -301 62l104 284q66 -25 129 -24q78 0 96 98l133 758h-145zM1769 0l252 1434h414 l-252 -1434h-414z" glyph-name="uniFB04" horiz-adv-x="2373" unicode="ffl"/><glyph d="M115 0l252 1434h974l-251 -1434h-975zM416 258h465l161 918h-464z" glyph-name=".notdef" horiz-adv-x="1390"/><glyph glyph-name="glyph1" horiz-adv-x="0"/><glyph glyph-name="glyph2" horiz-adv-x="681"/><glyph glyph-name="space" horiz-adv-x="405" unicode=" "/><glyph d="M33 178q0 96 74.5 165t173.5 69q90 0 149 -59.5t59 -145.5q0 -96 -73.5 -164t-173.5 -68q-90 0 -149.5 58.5t-59.5 144.5zM233 1434h492l-270 -922h-275z" glyph-name="exclam" horiz-adv-x="641" unicode="!"/><glyph d="M451 756h-293l86 678h362zM883 756h-293l86 678h362z" glyph-name="quotedbl" horiz-adv-x="966" unicode="&quot;"/><glyph d="M203 842l51 291h250l104 301h293l-104 -301h211l104 301h293l-105 -301h201l-51 -291h-248l-86 -250h207l-51 -291h-254l-103 -301h-292l102 301h-211l-102 -301h-293l102 301h-198l51 291h245l87 250h-203zM698 842l-86 -250h211l86 250h-211z" glyph-name="numbersign" horiz-adv-x="1458" unicode="#"/><glyph d="M307 -145l37 213q-139 41 -219 131t-84 217l375 78v-19q0 -70 42 -108.5t117 -38.5q47 0 84 20.5t37 65.5q0 12 -4 23.5t-14 22.5t-20.5 18t-30 18.5t-32.5 18.5t-41 20.5t-44 21.5q-352 180 -352 432q0 174 114.5 278.5t305.5 123.5l34 190h308l-39 -223 q268 -98 268 -412v-10h-371v14q0 70 -32.5 112t-94.5 42q-45 0 -76.5 -22.5t-31.5 -65.5q0 -41 35.5 -73t111.5 -73q82 -43 124 -67.5t102.5 -67.5t90 -81t52 -93t22.5 -119q0 -166 -111.5 -278.5t-322.5 -124.5l-33 -184h-307z" glyph-name="dollar" horiz-adv-x="1163" unicode="$"/><glyph d="M432 0h-313l1290 1434h311zM147 1055q0 164 120 283.5t288 119.5q158 0 254 -100.5t96 -241.5q0 -164 -119.5 -283.5t-287.5 -119.5q-158 0 -254.5 100.5t-96.5 241.5zM537 1208q-55 0 -91 -37.5t-36 -95.5q0 -49 28.5 -80.5t77.5 -31.5q55 0 91 37.5t36 95.5 q0 49 -28.5 80.5t-77.5 31.5zM934 315q0 164 120 284t287 120q158 0 254.5 -100.5t96.5 -241.5q0 -164 -120 -284t-288 -120q-158 0 -254 100.5t-96 241.5zM1323 469q-55 0 -91 -38t-36 -95q0 -49 28.5 -81t78.5 -32q55 0 91 38t36 95q0 49 -29 81t-78 32z" glyph-name="percent" horiz-adv-x="1775" unicode="%"/><glyph d="M1376 0h-473l-63 88q-215 -113 -396 -113q-203 0 -312 93.5t-109 243t88 256t274 192.5q-63 133 -63 256q0 193 139 318.5t340 125.5q197 0 309.5 -106.5t112.5 -253.5q0 -238 -332 -412l92 -129q166 123 231 180l207 -239q-100 -92 -254 -205zM492 270q70 0 174 66 l-129 182q-145 -78 -146 -160q0 -37 26 -62.5t75 -25.5zM801 1178q-53 0 -87 -39t-34 -101q0 -51 53 -129q158 84 158 181q0 41 -24.5 64.5t-65.5 23.5z" glyph-name="ampersand" horiz-adv-x="1452" unicode="&amp;"/><glyph d="M451 756h-293l86 678h362z" glyph-name="quotesingle" horiz-adv-x="536" unicode="'"/><glyph d="M557 1530l277 -215q-172 -229 -266.5 -522t-94.5 -590q0 -283 80 -506l-346 -162q-164 324 -164 709q0 344 132 687t382 599z" glyph-name="parenleft" horiz-adv-x="739" unicode="("/><glyph d="M180 -465l-276 215q172 229 266 522t94 590q0 283 -80 506l346 162q164 -324 164 -709q0 -344 -132 -687t-382 -599z" glyph-name="parenright" horiz-adv-x="737" unicode=")"/><glyph d="M799 1419l-78 -278l266 96l41 -274l-278 -35l149 -221l-254 -146l-92 252l-180 -229l-193 188l221 186l-260 82l131 263l230 -142l16 283z" glyph-name="asterisk" horiz-adv-x="1005" unicode="*"/><glyph d="M129 838h246l47 268h336l-47 -268h247l-57 -330h-250l-47 -270h-336l47 270h-245z" glyph-name="plus" horiz-adv-x="980" unicode="+"/><glyph d="M98 -416l-118 160q193 125 227 231q-90 0 -146.5 59.5t-56.5 139.5q0 94 75 161.5t175 67.5q102 0 167.5 -66.5t65.5 -176.5q0 -164 -111.5 -317t-277.5 -259z" glyph-name="comma" horiz-adv-x="614" unicode=","/><glyph d="M791 776l-62 -352h-645l63 352h644z" glyph-name="hyphen" horiz-adv-x="851" unicode="-"/><glyph d="M2 193q0 102 79 174.5t185 72.5q96 0 159.5 -62.5t63.5 -154.5q0 -102 -78.5 -175t-185.5 -73q-96 0 -159.5 63t-63.5 155z" glyph-name="period" horiz-adv-x="602" unicode="."/><glyph d="M807 1434h399l-856 -1434h-401z" glyph-name="slash" horiz-adv-x="1093" unicode="/"/><glyph d="M98 563q0 152 40 302.5t119 286.5t215 221t310 85q145 0 254 -47t171.5 -130t93 -185.5t30.5 -225.5q0 -152 -40 -302t-118.5 -286.5t-215 -221.5t-310.5 -85q-145 0 -253.5 47.5t-171 130.5t-93.5 185t-31 225zM766 1075q-66 0 -117 -55t-77.5 -138t-41 -162t-14.5 -142 q0 -106 38 -163t108 -57q66 0 117.5 55.5t78.5 138.5t41 162t14 142q0 106 -37.5 162.5t-109.5 56.5z" glyph-name="zero" horiz-adv-x="1361" unicode="0"/><glyph d="M113 795l77 440l392 199h336l-252 -1434h-420l166 942z" glyph-name="one" horiz-adv-x="886" unicode="1"/><glyph d="M1116 373l-65 -373h-1053l57 326q356 215 547 385q199 176 199 290q0 41 -24.5 67t-69.5 26q-119 0 -146 -209h-411q33 293 197.5 433t387.5 140q217 0 352.5 -120.5t135.5 -307.5q0 -303 -367 -567q-78 -55 -137 -90h397z" glyph-name="two" horiz-adv-x="1239" unicode="2"/><glyph d="M-33 166l230 301q217 -135 360 -135q125 0 125 92q0 123 -293 123l57 315q166 0 243 49.5t77 126.5q0 39 -25.5 61.5t-66.5 22.5q-111 0 -125 -137h-402q2 123 51.5 217t129.5 148.5t172 81t190 26.5q211 0 352.5 -109.5t141.5 -285.5q0 -272 -289 -367q211 -94 211 -293 q0 -205 -154.5 -316.5t-392.5 -111.5q-313 1 -592 191z" glyph-name="three" horiz-adv-x="1206" unicode="3"/><glyph d="M989 0h-395l43 252h-627l56 311l471 871h469l-498 -848h188l56 309l419 129l-77 -438h161l-59 -334h-162z" glyph-name="four" horiz-adv-x="1296" unicode="4"/><glyph d="M326 1434h872l-65 -373h-467l-27 -152q252 -27 368.5 -145.5t116.5 -288.5q0 -231 -148.5 -365.5t-408.5 -134.5q-305 0 -592 191l230 301q217 -135 352 -135q55 0 96 27.5t41 86.5q0 139 -332 140h-186z" glyph-name="five" horiz-adv-x="1210" unicode="5"/><glyph d="M1239 1434l-453 -461q168 -4 278 -126t110 -300q0 -240 -165 -406t-425 -166q-238 0 -381.5 143.5t-143.5 348.5q0 156 79 291t222 282l381 394h498zM637 682q-82 0 -139.5 -57.5t-57.5 -139.5q0 -68 43 -110.5t119 -42.5q78 0 135.5 57t57.5 139q0 66 -43 110t-115 44z " glyph-name="six" horiz-adv-x="1243" unicode="6"/><glyph d="M150 1038l69 396h991l-57 -334l-655 -1100h-498l651 1038h-501z" glyph-name="seven" horiz-adv-x="1116" unicode="7"/><glyph d="M1194 430q0 -207 -155.5 -331t-405.5 -124q-258 0 -422 117t-164 303q0 139 79 243.5t226 152.5q-127 94 -127 247q0 186 140.5 303t369.5 117q233 0 380 -104.5t147 -276.5q0 -121 -63.5 -218t-178.5 -142q174 -105 174 -287zM618 303q90 0 134.5 51.5t44.5 120.5 q0 61 -40 99t-114 38q-86 0 -134 -51t-48 -119q0 -61 41.5 -100t115.5 -39zM731.5 887q63.5 0 105.5 43t42 104q0 49 -37 79t-103 30q-61 0 -103 -38t-42 -104q0 -51 37 -82.5t100.5 -31.5z" glyph-name="eight" horiz-adv-x="1292" unicode="8"/><glyph d="M70 0l452 461q-168 4 -277.5 126t-109.5 300q0 240 165 405.5t425 165.5q238 0 381 -143.5t143 -347.5q0 -156 -78.5 -291t-222.5 -283l-381 -393h-497zM672 752q82 0 139 57t57 139q0 68 -43 111t-118 43q-78 0 -135.5 -57.5t-57.5 -139.5q0 -66 43 -109.5t115 -43.5z " glyph-name="nine" horiz-adv-x="1245" unicode="9"/><glyph d="M23 193q0 102 78.5 174.5t185.5 72.5q96 0 159.5 -62.5t63.5 -154.5q0 -102 -79 -175t-185 -73q-96 0 -159.5 63t-63.5 155zM133 817q0 102 79 175t185 73q96 0 160 -62.5t64 -154.5q0 -102 -79 -175t-186 -73q-96 0 -159.5 62.5t-63.5 154.5z" glyph-name="colon" horiz-adv-x="649" unicode=":"/><glyph d="M117 -416l-119 160q193 125 227 231q-90 0 -146 59.5t-56 139.5q0 94 74.5 161.5t174.5 67.5q102 0 168 -66.5t66 -176.5q0 -164 -111.5 -317t-277.5 -259zM133 817q0 102 79 175t185 73q96 0 160 -62.5t64 -154.5q0 -102 -79 -175t-186 -73q-96 0 -159.5 62.5 t-63.5 154.5z" glyph-name="semicolon" horiz-adv-x="657" unicode=";"/><glyph d="M51 504l60 338l901 411l-78 -434l-426 -168l366 -168l-67 -391z" glyph-name="less" horiz-adv-x="1003" unicode="&lt;"/><glyph d="M145 725l58 328h831l-57 -328h-832zM70 295l57 326h831l-57 -326h-831z" glyph-name="equal" horiz-adv-x="1056" unicode="="/><glyph d="M1001 840l-59 -338l-901 -412l78 434l426 168l-367 168l68 391z" glyph-name="greater" horiz-adv-x="1005" unicode=">"/><glyph d="M686 500h-360l14 82q31 188 240 321q10 6 42.5 26.5t47 30t35 28t28.5 35.5t8 38q0 33 -23.5 49t-53.5 16q-113 0 -138 -178h-397q18 260 176 391t375 131q211 0 339 -101t128 -269q0 -145 -69.5 -231.5t-215.5 -178.5q-59 -37 -86.5 -57.5t-53.5 -55t-36 -77.5zM221 178 q0 96 75 165t173 69q90 0 149.5 -59.5t59.5 -145.5q0 -96 -74 -164t-174 -68q-88 0 -148.5 59.5t-60.5 143.5z" glyph-name="question" horiz-adv-x="1112" unicode="?"/><glyph d="M846 967q158 0 237 -117l19 102h307l-98 -565q-6 -39 -6 -68q0 -92 65 -92q72 0 136.5 122t64.5 294q0 244 -158 405.5t-440 161.5q-293 0 -491.5 -224t-198.5 -537q0 -254 156.5 -421t439.5 -167q178 0 342 94l86 -166q-188 -119 -437 -119q-373 0 -590 223.5 t-217 552.5q0 252 118 472.5t332 354.5t474 134q246 0 432.5 -109.5t277.5 -281.5t91 -375q0 -252 -127 -438.5t-328 -186.5q-113 0 -190.5 51.5t-110.5 149.5q-102 -119 -252 -119q-166 0 -257 103.5t-91 261.5q0 190 118 347t296 157zM874 362q70 0 114 56.5t44 132.5 q0 61 -34.5 99t-98.5 38q-66 0 -111 -57.5t-45 -126.5q0 -61 35 -101.5t96 -40.5z" glyph-name="at" horiz-adv-x="1849" unicode="@"/><glyph d="M690 1434h465l293 -1434h-444l-31 199h-502l-98 -199h-482zM858 979l-219 -440h285z" glyph-name="A" horiz-adv-x="1525" unicode="A"/><glyph d="M35 0l252 1434h696q227 0 343 -99.5t116 -257.5q0 -276 -238 -356q197 -86 197 -291q0 -184 -126 -307t-386 -123h-854zM846 586h-291l-45 -258h319q59 0 100.5 41t41.5 98q0 53 -32 86t-93 33zM924 1106h-277l-41 -223h281q55 0 90 36.5t35 94.5q0 41 -24.5 66.5 t-63.5 25.5z" glyph-name="B" horiz-adv-x="1486" unicode="B"/><glyph d="M1118 623l410 -121q-90 -248 -293 -387.5t-449 -139.5q-317 0 -502.5 190.5t-185.5 471.5q0 211 96.5 397.5t282 305t416.5 118.5q279 0 456 -149.5t218 -388.5l-428 -115q-12 113 -84 183.5t-187 70.5q-141 0 -236 -116t-95 -269q0 -129 72.5 -214t199.5 -85 q100 0 186 66.5t123 181.5z" glyph-name="C" horiz-adv-x="1560" unicode="C"/><glyph d="M35 0l252 1434h590q324 0 497.5 -169t173.5 -446q0 -344 -202.5 -581.5t-565.5 -237.5h-745zM862 1065h-221l-123 -696h258q162 0 249 126t87 298q0 125 -63.5 198.5t-186.5 73.5z" glyph-name="D" horiz-adv-x="1583" unicode="D"/><glyph d="M35 0l252 1434h1140l-63 -371h-723l-31 -176h578l-62 -336h-575l-31 -180h721l-65 -371h-1141z" glyph-name="E" horiz-adv-x="1361" unicode="E"/><glyph d="M35 0l252 1434h1106l-68 -387h-686l-39 -222h614l-63 -370h-616l-80 -455h-420z" glyph-name="F" horiz-adv-x="1314" unicode="F"/><glyph d="M766 541l51 295h750l-148 -836h-282l34 203q-143 -227 -428 -228q-297 0 -471 197t-174 471q0 340 227.5 577.5t579.5 237.5q209 0 378 -93t265 -247l-334 -227q-125 180 -309 180q-162 0 -266 -115.5t-104 -291.5q0 -127 68.5 -212t201.5 -85q184 0 276 174h-315z" glyph-name="G" horiz-adv-x="1607" unicode="G"/><glyph d="M1243 1434h420l-252 -1434h-420l94 535h-536l-94 -535h-420l252 1434h420l-95 -533h537z" glyph-name="H" horiz-adv-x="1632" unicode="H"/><glyph d="M287 1434h426l-252 -1434h-426z" glyph-name="I" horiz-adv-x="679" unicode="I"/><glyph d="M362 1047l68 387h965l-162 -920q-45 -248 -213 -393.5t-404 -145.5q-276 0 -422.5 146.5t-146.5 370.5q0 51 10 112l23 129h420l-19 -104q-8 -43 -8 -90q0 -172 154 -172q162 0 200 225l80 455h-545z" glyph-name="J" horiz-adv-x="1349" unicode="J"/><glyph d="M987 0l-239 535h-199l-94 -535h-420l252 1434h420l-95 -533h156l418 533h487l-553 -709l326 -725h-459z" glyph-name="K" horiz-adv-x="1527" unicode="K"/><glyph d="M35 0l252 1434h420l-185 -1045h676l-68 -389h-1095z" glyph-name="L" horiz-adv-x="1263" unicode="L"/><glyph d="M455 0h-420l252 1434h438l217 -816l539 816h438l-252 -1434h-420l125 711l-371 -574h-256l-159 608z" glyph-name="M" horiz-adv-x="1886" unicode="M"/><glyph d="M455 0h-420l252 1434h424l391 -803l141 803h420l-252 -1434h-426l-391 793z" glyph-name="N" horiz-adv-x="1632" unicode="N"/><glyph d="M96 639q0 338 231.5 578.5t575.5 240.5q322 0 510.5 -191.5t188.5 -471.5q0 -338 -231.5 -579t-575.5 -241q-322 0 -510.5 191.5t-188.5 472.5zM881 1059q-147 0 -246.5 -116t-99.5 -273q0 -127 75.5 -211t208.5 -84q145 0 244.5 115.5t99.5 273.5q0 127 -75.5 211 t-206.5 84z" glyph-name="O" horiz-adv-x="1636" unicode="O"/><glyph d="M35 0l252 1434h608q276 0 419.5 -143.5t143.5 -358.5q0 -272 -167 -452.5t-476 -180.5h-307l-53 -299h-420zM571 662h199q127 0 189.5 66.5t62.5 178.5q0 78 -50 121t-149 43h-180z" glyph-name="P" horiz-adv-x="1452" unicode="P"/><glyph d="M1542 -4l123 -334q-117 -76 -293 -76q-104 0 -203.5 35t-182.5 98.5t-143.5 123t-123.5 137.5q-289 25 -456 210t-167 449q0 338 231.5 578.5t575.5 240.5q322 0 510.5 -191.5t188.5 -471.5q0 -223 -110 -417t-310 -306q100 -104 237 -105q68 0 123 29zM881 1059 q-147 0 -246.5 -116t-99.5 -273q0 -127 75.5 -211t208.5 -84q145 0 244.5 115.5t99.5 273.5q0 127 -75.5 211t-206.5 84z" glyph-name="Q" horiz-adv-x="1636" unicode="Q"/><glyph d="M35 0l252 1434h637q270 0 405 -132.5t135 -334.5q0 -172 -83 -317.5t-228 -217.5l219 -432h-444l-172 373h-236l-65 -373h-420zM584 731h229q123 0 170 61.5t47 141.5q0 66 -41 102.5t-117 36.5h-229z" glyph-name="R" horiz-adv-x="1501" unicode="R"/><glyph d="M45 426l420 86v-10q0 -201 252 -201q145 0 145 80q0 10 -3 20.5t-12 19.5t-17.5 17t-23.5 17.5t-27.5 15.5t-35 16.5t-37 16.5t-43 18.5t-45.5 18.5q-227 96 -336.5 200.5t-109.5 259.5q0 217 163 337t413 120q272 0 443 -123t171 -366v-33h-414v20q0 84 -52 130.5 t-151 46.5q-63 0 -100 -25t-37 -66t46 -71.5t155 -77.5q100 -43 155.5 -70.5t128 -72.5t109.5 -87t64.5 -103.5t27.5 -133.5q0 -223 -164.5 -337t-418.5 -114q-121 0 -235 26t-213 77t-158.5 141t-59.5 207z" glyph-name="S" horiz-adv-x="1388" unicode="S"/><glyph d="M135 1047l68 387h1253l-67 -387h-418l-185 -1047h-419l184 1047h-416z" glyph-name="T" horiz-adv-x="1341" unicode="T"/><glyph d="M1198 1434h420l-145 -828q-51 -291 -243 -461t-466 -170q-313 0 -477 168t-164 430q0 82 14 156l123 705h420l-123 -705q-10 -51 -10 -115q0 -244 239 -243q225 0 281 317z" glyph-name="U" horiz-adv-x="1570" unicode="U"/><glyph d="M885 0h-471l-267 1434h451l131 -889l440 889h484z" glyph-name="V" horiz-adv-x="1484" unicode="V"/><glyph d="M782 0h-469l-118 1434h440l49 -801l367 801h428l67 -787l324 787h467l-627 -1434h-469l-72 840z" glyph-name="W" horiz-adv-x="2211" unicode="W"/><glyph d="M1683 1434l-565 -719l338 -715h-485l-178 428l-328 -428h-571l591 715l-311 719h481l166 -451l320 451h542z" glyph-name="X" horiz-adv-x="1540" unicode="X"/><glyph d="M612 1434l176 -514l357 514h536l-729 -932l-88 -502h-420l88 498l-397 936h477z" glyph-name="Y" horiz-adv-x="1495" unicode="Y"/><glyph d="M195 1047l67 387h1239l-61 -351l-772 -696h649l-68 -387h-1257l61 350l770 697h-628z" glyph-name="Z" horiz-adv-x="1437" unicode="Z"/><glyph d="M641 -61l-53 -306h-627l318 1801h626l-55 -306h-234l-206 -1189h231z" glyph-name="bracketleft" horiz-adv-x="811" unicode="["/><glyph d="M190 1434h353l379 -1434h-355z" glyph-name="backslash" horiz-adv-x="1044" unicode="\"/><glyph d="M170 1128l53 306h627l-318 -1801h-626l55 306h234l206 1189h-231z" glyph-name="bracketright" horiz-adv-x="811" unicode="]"/><glyph d="M569 1434h340l217 -791h-362l-76 383l-203 -383h-411z" glyph-name="asciicircum" horiz-adv-x="1157" unicode="^"/><glyph d="M956 -137l-51 -287h-1075l51 287h1075z" glyph-name="underscore" horiz-adv-x="1075" unicode="_"/><glyph d="M793 1575l-269 -82l-225 313l295 193z" glyph-name="grave" horiz-adv-x="688" unicode="`"/><glyph d="M694 0l21 117q-106 -141 -275 -142q-178 0 -281.5 130.5t-103.5 332.5q0 154 54.5 299.5t173 250t276.5 104.5q223 0 299 -162l25 137h413l-188 -1067h-414zM610 334q88 0 142.5 69.5t54.5 167.5q0 72 -38 117t-112 45q-88 0 -143 -69.5t-55 -165.5q0 -72 38.5 -118 t112.5 -46z" glyph-name="a" unicode="a"/><glyph d="M668 1434l-84 -484q106 141 274 142q178 0 281.5 -130.5t103.5 -332.5q0 -154 -54 -299.5t-173 -250t-277 -104.5q-223 0 -299 162l-24 -137h-414l252 1434h414zM688 733q-88 0 -142 -69.5t-54 -167.5q0 -72 37.5 -117t111.5 -45q88 0 143.5 69.5t55.5 165.5 q0 72 -39 118t-113 46z" glyph-name="b" horiz-adv-x="1302" unicode="b"/><glyph d="M782 483l355 -108q-66 -186 -217.5 -293t-331.5 -107q-248 0 -390.5 143.5t-142.5 356.5q0 250 168 433.5t422 183.5q219 0 356.5 -114t165.5 -296l-372 -100q-10 152 -154 151q-86 0 -138 -71.5t-52 -169.5q0 -72 37.5 -115t113.5 -43q61 0 109 38.5t71 110.5z" glyph-name="c" horiz-adv-x="1196" unicode="c"/><glyph d="M694 0l21 117q-106 -141 -275 -142q-178 0 -281.5 130.5t-103.5 332.5q0 154 54.5 299.5t173 250t276.5 104.5q223 0 299 -162l88 504h414l-252 -1434h-414zM610 334q88 0 142.5 69.5t54.5 167.5q0 72 -38 117t-112 45q-88 0 -143 -69.5t-55 -165.5q0 -72 38.5 -118 t112.5 -46z" glyph-name="d" unicode="d"/><glyph d="M915 356l136 -252q-186 -129 -433 -129q-272 0 -417.5 142.5t-145.5 355.5q0 258 174 438.5t455 180.5q221 0 346 -99.5t125 -251.5q0 -160 -141.5 -261t-413.5 -101h-131q47 -98 203 -98q120 -1 243 75zM666 797q-63 0 -117.5 -47.5t-79.5 -131.5h41q250 0 250 107 q0 72 -94 72z" glyph-name="e" horiz-adv-x="1185" unicode="e"/><glyph d="M82 723l61 344h172l2 12q37 221 157 322.5t286 101.5q147 0 323 -73l-108 -279q-76 31 -148 31q-82 0 -96 -101l-2 -14h250l-59 -344h-252l-133 -760q-37 -217 -157 -317.5t-286 -100.5q-152 0 -301 62l105 284q63 -25 129 -24q78 0 96 98l133 758h-172z" glyph-name="f" horiz-adv-x="911" unicode="f"/><glyph d="M63 477q0 141 50.5 277.5t164 237t265.5 100.5q209 0 295 -164l24 139h414l-162 -915q-100 -571 -586 -572q-170 0 -321.5 60.5t-251.5 156.5l217 269q182 -152 326 -152q160 0 196 201l8 47q-100 -117 -251 -117q-182 0 -285 122t-103 310zM647 745q-78 0 -129 -60 t-51 -136q0 -66 40 -111t109 -45q74 0 127.5 57.5t53.5 139.5q0 66 -40 110.5t-110 44.5z" glyph-name="g" horiz-adv-x="1282" unicode="g"/><glyph d="M674 0l104 592q4 29 4 51q0 55 -27.5 80t-66.5 25q-57 0 -106.5 -43t-57.5 -91l-108 -614h-414l252 1434h414l-88 -506q113 164 319 164q147 0 229 -85t82 -249q0 -66 -14 -144l-109 -614h-413z" glyph-name="h" horiz-adv-x="1269" unicode="h"/><glyph d="M207 1337q0 100 77.5 174t182.5 74q94 0 156.5 -62.5t62.5 -152.5q0 -100 -78 -174t-182 -74q-94 0 -156.5 62.5t-62.5 152.5zM2 0l188 1067h414l-188 -1067h-414z" glyph-name="i" horiz-adv-x="606" unicode="i"/><glyph d="M221 1337q0 100 77 174t183 74q92 0 154.5 -62.5t62.5 -152.5q0 -100 -76.5 -174t-183.5 -74q-92 0 -154.5 62.5t-62.5 152.5zM-211 -381l109 303q31 -10 53 -10q51 0 59 57l195 1098h413l-200 -1139q-31 -176 -139.5 -263t-268.5 -87q-112 0 -221 41z" glyph-name="j" horiz-adv-x="620" unicode="j"/><glyph d="M698 0l-127 369h-92l-63 -369h-414l252 1434h414l-131 -738h67l223 371h465l-354 -551l192 -516h-432z" glyph-name="k" horiz-adv-x="1234" unicode="k"/><glyph d="M2 0l252 1434h414l-252 -1434h-414z" glyph-name="l" horiz-adv-x="608" unicode="l"/><glyph d="M1305 0l108 614q4 29 4 39q0 51 -26.5 74t-63.5 23q-55 0 -98 -40t-53 -96l-109 -614h-414l109 616q4 29 4 37q0 96 -90 97q-53 0 -97 -39t-53 -84l-110 -627h-414l188 1067h414l-22 -123q102 147 295 148q223 0 290 -181q113 180 344 181q160 0 245 -86t85 -248 q0 -61 -12 -131l-111 -627h-413z" glyph-name="m" horiz-adv-x="1898" unicode="m"/><glyph d="M674 0l104 592q4 29 4 51q0 55 -27.5 80t-66.5 25q-57 0 -106.5 -43t-57.5 -91l-108 -614h-414l188 1067h414l-24 -139q113 164 319 164q147 0 229 -85t82 -249q0 -66 -14 -144l-109 -614h-413z" glyph-name="n" horiz-adv-x="1269" unicode="n"/><glyph d="M55 477q0 244 169 429.5t427 185.5q250 0 393.5 -144.5t143.5 -357.5q0 -244 -169 -429.5t-427 -185.5q-250 0 -393.5 144.5t-143.5 357.5zM641 733q-86 0 -138 -71.5t-52 -169.5q0 -72 38.5 -115t112.5 -43q86 0 138.5 71.5t52.5 169.5q0 72 -39 115t-113 43z" glyph-name="o" horiz-adv-x="1245" unicode="o"/><glyph d="M604 1067l-20 -117q106 141 274 142q178 0 281.5 -130.5t103.5 -332.5q0 -154 -54 -299.5t-173 -250t-277 -104.5q-223 0 -299 162l-88 -504h-413l251 1434h414zM688 733q-88 0 -142 -69.5t-54 -167.5q0 -72 37.5 -117t111.5 -45q88 0 143.5 69.5t55.5 165.5 q0 72 -39 118t-113 46z" glyph-name="p" horiz-adv-x="1302" unicode="p"/><glyph d="M631 -367l84 484q-106 -141 -275 -142q-178 0 -281.5 130.5t-103.5 332.5q0 154 54.5 299.5t173 250t276.5 104.5q223 0 299 -162l25 137h413l-252 -1434h-413zM610 334q88 0 142.5 69.5t54.5 167.5q0 72 -38 117t-112 45q-88 0 -143 -69.5t-55 -165.5q0 -72 38.5 -118 t112.5 -46z" glyph-name="q" unicode="q"/><glyph d="M604 1067l-63 -362q127 387 438 387l-88 -498q-160 -2 -278.5 -81t-145.5 -224l-51 -289h-414l188 1067h414z" glyph-name="r" horiz-adv-x="935" unicode="r"/><glyph d="M14 291l357 88q8 -61 57 -98t115 -37q80 0 80 45q0 14 -11.5 27.5t-36 26.5t-42 21.5t-53.5 21.5t-48 17q-160 66 -241.5 147t-81.5 195q0 168 126.5 257.5t331.5 89.5q211 0 355.5 -91.5t144.5 -273.5v-16h-371v14q0 39 -29.5 68.5t-84.5 29.5q-78 0 -78 -49 q0 -25 35.5 -46t117.5 -56q20 -8 31 -13q164 -70 247 -142.5t83 -192.5q0 -162 -122 -255.5t-345 -93.5q-209 0 -366 81t-171 235z" glyph-name="s" horiz-adv-x="1116" unicode="s"/><glyph d="M59 723l62 344h170l37 211l438 139l-61 -350h284l-61 -344h-285l-47 -274q-4 -25 -4 -35q0 -74 86 -74q49 0 129 27l78 -324q-164 -68 -310 -68q-397 0 -397 375q0 78 15 158l36 215h-170z" glyph-name="t" horiz-adv-x="972" unicode="t"/><glyph d="M594 1067l-105 -592q-4 -29 -4 -51q0 -55 28 -80t67 -25q57 0 106 43.5t57 90.5l109 614h414l-189 -1067h-413l24 139q-113 -164 -319 -164q-147 0 -229.5 85t-82.5 249q0 66 15 144l108 614h414z" glyph-name="u" horiz-adv-x="1267" unicode="u"/><glyph d="M723 0h-444l-187 1067h420l57 -600l267 600h452z" glyph-name="v" horiz-adv-x="1193" unicode="v"/><glyph d="M664 0h-455l-82 1067h428l-2 -567l233 567h375l35 -567l195 567h458l-456 -1067h-457l-37 578z" glyph-name="w" horiz-adv-x="1787" unicode="w"/><glyph d="M1317 1067l-418 -535l248 -532h-451l-94 276l-188 -276h-512l442 532l-233 535h430l100 -289l197 289h479z" glyph-name="x" horiz-adv-x="1241" unicode="x"/><glyph d="M29 -459l-103 361q227 63 344 137l-178 1028h420l55 -596l269 596h452l-485 -909q-57 -106 -117.5 -192.5t-108 -144t-114 -104.5t-104 -70.5t-111.5 -47t-105.5 -32t-113.5 -26.5z" glyph-name="y" horiz-adv-x="1193" unicode="y"/><glyph d="M117 717l61 350h930l-51 -281l-469 -438h395l-63 -348h-930l51 281l467 436h-391z" glyph-name="z" horiz-adv-x="1097" unicode="z"/><glyph d="M12 385l51 295h58q35 0 54.5 3t48 17.5t47 50t28.5 93.5l49 282q29 156 127 232t291 76h227l-53 -306h-88q-61 0 -90 -29.5t-41 -97.5l-16 -100q-10 -63 -16.5 -94t-19 -78t-25.5 -68.5t-36.5 -50t-54.5 -42t-75 -26t-101 -16.5q113 -25 162 -82t49 -153q0 -53 -13 -121 l-18 -98q-4 -29 -4 -41q0 -92 98 -92h80l-55 -306h-146q-182 0 -283.5 75t-101.5 218q0 37 7 78l34 203q6 31 7 53q0 125 -142 125h-39z" glyph-name="braceleft" horiz-adv-x="903" unicode="{"/><glyph d="M291 1507h295l-330 -1874h-295z" glyph-name="bar" horiz-adv-x="534" unicode="|"/><glyph d="M891 682l-51 -295h-58q-35 0 -54 -3t-48 -17.5t-47.5 -50t-28.5 -93.5l-49 -282q-29 -156 -127 -232t-291 -76h-227l53 306h88q61 0 90 29.5t41 97.5l17 100q10 63 16 94t18.5 78t25.5 68.5t36.5 50t54.5 42t75 26t101 16.5q-113 25 -162 82t-49 153q0 53 13 121l18 98 q4 29 4 41q0 92 -98 92h-80l55 306h146q182 0 283.5 -75t101.5 -218q0 -39 -6 -78l-35 -203q-6 -31 -6 -53q0 -125 141 -125h39z" glyph-name="braceright" horiz-adv-x="903" unicode="}"/><glyph d="M336 391h-258q16 178 96 284.5t203 106.5q109 0 172 -98q6 -8 13 -20.5t11.5 -19.5t10.5 -15t10 -11.5t8 -3.5q27 0 35 127h258q-16 -178 -96 -285.5t-203 -107.5q-104 0 -172 101q-6 8 -13.5 19t-11.5 18.5t-10 14.5t-10 11t-8 4q-27 0 -35 -125z" glyph-name="asciitilde" horiz-adv-x="958" unicode="~"/><glyph glyph-name="uni00A0" horiz-adv-x="405" unicode=" "/><glyph d="M602 889q0 -96 -74.5 -165t-173.5 -69q-90 0 -149.5 59.5t-59.5 145.5q0 96 74 164t174 68q90 0 149.5 -58.5t59.5 -144.5zM401 -367h-491l270 922h275z" glyph-name="exclamdown" horiz-adv-x="628" unicode="¡"/><glyph d="M813 670l305 -107q-59 -156 -176 -249t-252 -117l-33 -197h-295l37 221q-143 51 -221 170t-78 268q0 213 130 375t350 201l34 199h295l-41 -228q111 -45 181.5 -135t95.5 -201l-326 -106q-10 70 -55 112t-115 42q-84 0 -138 -73t-54 -165q0 -74 41 -120t116 -46 q136 0 199 156z" glyph-name="cent" horiz-adv-x="1167" unicode="¢"/><glyph d="M23 0l49 297q123 80 178 207h-168l51 303h135q-41 160 -41 223q0 193 135.5 310.5t333.5 117.5q182 0 322.5 -104.5t140.5 -311.5q0 -45 -10 -110h-373q8 35 8 69q0 100 -75 101q-96 0 -97 -123q0 -49 29 -172h291l-51 -303h-256q-35 -88 -97 -152h492l-59 -352h-938z " glyph-name="sterling" horiz-adv-x="1146" unicode="£"/><glyph d="M51 436l187 150q-12 45 -13 96q0 106 60 213l-123 162l266 207l127 -166q61 14 109 14q66 0 131 -20l211 172l211 -267l-187 -149q12 -45 12 -96q0 -106 -59 -213l123 -162l-266 -207l-127 166q-61 -14 -109 -14q-66 0 -131 20l-211 -172zM647 860q-61 0 -102 -45 t-41 -117q0 -53 30.5 -89t86.5 -36q61 0 102 45.5t41 116.5q0 53 -31 89t-86 36z" glyph-name="currency" horiz-adv-x="1206" unicode="¤"/><glyph d="M711 993l237 441h455l-412 -656h201l-41 -233h-301l-14 -84h299l-39 -236h-301l-39 -225h-404l39 225h-297l39 236h299l14 84h-296l40 233h199l-176 656h414z" glyph-name="yen" horiz-adv-x="1298" unicode="¥"/><glyph d="M291 1507h295l-142 -811h-294zM102 438h295l-141 -805h-295z" glyph-name="brokenbar" horiz-adv-x="534" unicode="¦"/><glyph d="M1059 733q0 -168 -162 -256q72 -78 72 -178q0 -141 -109.5 -232.5t-306.5 -91.5q-184 0 -314 68t-159 207l334 82q4 -51 34.5 -83t79.5 -32q29 0 55.5 15.5t26.5 48t-35.5 55t-111.5 51.5q-166 61 -257 130t-91 183q0 176 159 256q-72 72 -71 177q0 156 117.5 240.5 t297.5 84.5q199 0 338.5 -85t141.5 -238q0 -14 -2 -33h-338q2 10 2 18q0 41 -32 69t-79 28q-88 0 -88 -64q0 -33 36 -55.5t112 -50.5q63 -25 106 -43.5t93 -47t80 -59.5t50.5 -73t20.5 -91zM672 614q47 25 47 66q0 12 -6 24.5t-19.5 23.5t-26 19.5t-37 18.5t-40 16t-46 17.5 t-46.5 17.5q-45 -20 -45 -63q0 -18 10 -33.5t37.5 -31t45 -24t64 -27t62.5 -24.5z" glyph-name="section" horiz-adv-x="1107" unicode="§"/><glyph d="M326 1673q0 78 61.5 135.5t142.5 57.5q74 0 123 -49.5t49 -120.5q0 -78 -60 -134.5t-144 -56.5q-74 0 -123 48t-49 120zM745 1673q0 78 61.5 135.5t143.5 57.5q74 0 123 -49.5t49 -120.5q0 -78 -61.5 -134.5t-142.5 -56.5q-74 0 -123.5 48t-49.5 120z" glyph-name="dieresis" horiz-adv-x="878" unicode="¨"/><glyph d="M965 684l204 -76q-49 -123 -146 -191.5t-214 -68.5q-152 0 -243 95.5t-91 234.5q0 162 112.5 284.5t278.5 122.5q131 0 216 -70.5t108 -189.5l-221 -75q-16 113 -115 112q-57 0 -99 -49t-42 -117q0 -55 29.5 -90t82.5 -35q91 0 140 113zM98 651q0 217 116 405.5t298 295 t379 106.5q299 0 485.5 -200.5t186.5 -477.5q0 -217 -116 -404.5t-298 -294t-379 -106.5q-299 0 -485.5 200t-186.5 476zM879 1282q-233 0 -413.5 -184.5t-180.5 -433.5q0 -211 137 -361.5t360 -150.5q233 0 413.5 184t180.5 434q0 211 -137 361.5t-360 150.5z" glyph-name="copyright" horiz-adv-x="1595" unicode="©"/><glyph d="M508 1434q158 0 223 -103l17 84h278l-133 -753h-279l9 53q-74 -70 -179 -70q-150 0 -226.5 90t-76.5 232q0 182 102.5 324.5t264.5 142.5zM543 893q70 0 107.5 56.5t37.5 113.5q0 53 -30.5 88t-88.5 35q-63 0 -104 -52.5t-41 -111.5q0 -53 33 -91t86 -38z" glyph-name="ordfeminine" horiz-adv-x="980" unicode="ª"/><glyph d="M432 510l127 -287l-268 -151l-244 473l410 477l229 -191zM952 510l127 -287l-268 -151l-244 473l410 477l229 -191z" glyph-name="guillemotleft" horiz-adv-x="1212" unicode="«"/><glyph d="M735 352l51 295h-694l62 336h1020l-111 -631h-328z" glyph-name="logicalnot" horiz-adv-x="1210" unicode="¬"/><glyph d="M156 940q0 213 158.5 365.5t359.5 152.5q197 0 316.5 -130t119.5 -310q0 -213 -158.5 -365.5t-359.5 -152.5q-197 0 -316.5 130t-119.5 310zM655.5 1313q-139.5 0 -245 -110.5t-105.5 -256.5q0 -127 82 -214t223 -87q139 0 245 110.5t106 256.5q0 127 -83 214t-222.5 87z M494 1200h192q82 0 123 -39t41 -100q0 -123 -94 -170l61 -125h-131l-51 104h-82l-18 -104h-119zM672 1094h-80l-21 -117h88q74 0 74 67q0 50 -61 50z" glyph-name="registered" horiz-adv-x="1107" unicode="®"/><glyph d="M989 1835l-53 -295h-612l53 295h612z" glyph-name="macron" horiz-adv-x="739" unicode="¯"/><glyph d="M143 1059q0 168 125 283.5t287 115.5q158 0 254 -101.5t96 -244.5q0 -168 -125 -283.5t-288 -115.5q-156 0 -252.5 101.5t-96.5 244.5zM537 1212q-53 0 -94.5 -38.5t-41.5 -98.5q0 -49 30 -83t81 -34q53 0 94 38t41 100q0 49 -29.5 82.5t-80.5 33.5z" glyph-name="degree" horiz-adv-x="858" unicode="°"/><glyph d="M903 358l-59 -338h-834l62 338h831zM195 1044h245l47 269h336l-47 -269h248l-57 -329h-250l-47 -271h-336l47 271h-246z" glyph-name="plusminus" horiz-adv-x="1036" unicode="±"/><glyph d="M754 805l-43 -244h-641l36 209q252 164 357 272q72 76 72 123q0 45 -41 45q-59 0 -76 -123h-262q12 109 53 186t97 111.5t105.5 49t96.5 14.5q137 0 220 -72.5t83 -185.5q0 -162 -166 -311q-47 -41 -94 -74h203z" glyph-name="uni00B2" horiz-adv-x="765" unicode="²"/><glyph d="M313 899l31 182q190 0 191 99q0 23 -14.5 37t-35.5 14q-59 0 -67 -82h-252q4 90 41 153.5t92 93t103.5 41t95.5 11.5q125 0 212 -69.5t87 -176.5q0 -158 -144 -221q96 -57 97 -160q0 -119 -90.5 -196.5t-245.5 -77.5q-197 0 -355 115l168 198q111 -76 183 -76q70 0 69 52 q0 63 -166 63z" glyph-name="uni00B3" horiz-adv-x="753" unicode="³"/><glyph d="M668 1493l-240 125l344 381l223 -240z" glyph-name="acute" horiz-adv-x="692" unicode="´"/><glyph d="M696 0l25 139q-104 -152 -287 -162l-59 -344h-414l252 1434h414l-105 -592q-4 -29 -4 -51q0 -55 27.5 -80t66.5 -25q57 0 106.5 43.5t57.5 90.5l109 614h413l-188 -1067h-414z" glyph-name="uni00B5" horiz-adv-x="1323" unicode="µ"/><glyph d="M494 0l71 408q-219 12 -330.5 140t-111.5 312q0 233 152.5 403.5t406.5 170.5h762l-252 -1434h-277l203 1163h-147l-203 -1163h-274zM696 1163h-12q-127 0 -199.5 -78.5t-72.5 -205.5q0 -88 50 -143.5t150 -57.5z" glyph-name="paragraph" horiz-adv-x="1417" unicode="¶"/><glyph d="M72 573q0 102 78.5 175t185.5 73q96 0 159.5 -62.5t63.5 -154.5q0 -102 -79 -175t-185 -73q-96 0 -159.5 62.5t-63.5 154.5z" glyph-name="periodcentered" horiz-adv-x="616" unicode="·"/><glyph d="M227 16h162l-53 -106q137 -53 137 -191q0 -113 -77 -183.5t-203 -70.5q-135 0 -271 82l123 189q96 -57 148 -58q61 0 61 58q0 27 -25.5 43t-64.5 16l-39 66z" glyph-name="cedilla" horiz-adv-x="542" unicode="¸"/><glyph d="M203 561l92 526l-168 -83l55 311l242 119h227l-153 -873h-295z" glyph-name="uni00B9" horiz-adv-x="575" unicode="¹"/><glyph d="M135 1004q0 180 128 305t302 125q172 0 271.5 -104.5t99.5 -254.5q0 -180 -128 -305t-302 -125q-172 0 -271.5 104.5t-99.5 254.5zM551 1178q-57 0 -94 -49.5t-37 -116.5q0 -49 26.5 -80t73.5 -31q57 0 94 49t37 117q0 49 -26.5 80t-73.5 31z" glyph-name="ordmasculine" horiz-adv-x="899" unicode="º"/><glyph d="M262 586l-127 286l268 152l244 -473l-409 -477l-230 190zM782 586l-127 286l269 152l243 -473l-409 -477l-230 190z" glyph-name="guillemotright" horiz-adv-x="1210" unicode="»"/><glyph d="M406 0h-261l1158 1434h258zM221 561l92 526l-168 -83l56 311l241 119h228l-154 -873h-295zM1536 4h-254l25 143h-385l34 205l277 525h301l-277 -490h91l28 168l271 78l-43 -246h90l-43 -240h-90z" glyph-name="onequarter" horiz-adv-x="1769" unicode="¼"/><glyph d="M399 0h-260l1157 1434h258zM213 561l92 526l-168 -83l56 311l241 119h228l-154 -873h-295zM1624 248l-43 -244h-641l37 209q252 164 356 272q72 76 72 123q0 45 -41 45q-59 0 -76 -123h-262q12 109 53 186t97.5 111.5t105.5 49t96 14.5q137 0 220 -73t83 -185 q0 -162 -165 -311q-47 -41 -95 -74h203z" glyph-name="onehalf" horiz-adv-x="1734" unicode="½"/><glyph d="M543 0h-260l1157 1434h258zM1671 4h-254l25 143h-385l35 205l276 525h301l-276 -490h90l28 168l271 78l-43 -246h90l-43 -240h-90zM332 899l30 182q190 0 191 99q0 23 -14.5 37t-34.5 14q-59 0 -68 -82h-252q4 90 41 153.5t92.5 93t103.5 41t95 11.5q125 0 212 -69.5 t87 -176.5q0 -158 -143 -221q96 -57 96 -160q0 -119 -90 -196.5t-246 -77.5q-197 0 -354 115l168 198q111 -76 182 -76q70 0 70 52q0 63 -166 63z" glyph-name="threequarters" horiz-adv-x="1904" unicode="¾"/><glyph d="M420 567h360l-14 -82q-31 -188 -240 -321q-10 -6 -42.5 -26.5t-47 -30t-35 -28t-28.5 -35.5t-8 -38q0 -33 23.5 -49t53.5 -16q113 0 138 178h397q-18 -260 -176 -391t-375 -131q-211 0 -339 101t-128 269q0 145 69.5 231.5t215.5 178.5q59 37 86.5 57.5t53.5 55t36 77.5z M885 889q0 -96 -75 -165t-173 -69q-90 0 -149.5 59.5t-59.5 145.5q0 96 73.5 164t174.5 68q88 0 148.5 -59.5t60.5 -143.5z" glyph-name="questiondown" horiz-adv-x="1099" unicode="¿"/><glyph d="M690 1434h465l293 -1434h-444l-31 199h-502l-98 -199h-482zM858 979l-219 -440h285zM1149 1575l-268 -82l-226 313l295 193z" glyph-name="Agrave" horiz-adv-x="1525" unicode="À"/><glyph d="M690 1434h465l293 -1434h-444l-31 199h-502l-98 -199h-482zM858 979l-219 -440h285zM1010 1493l-240 125l344 381l223 -240z" glyph-name="Aacute" horiz-adv-x="1525" unicode="Á"/><glyph d="M690 1434h465l293 -1434h-444l-31 199h-502l-98 -199h-482zM858 979l-219 -440h285zM977 1620l-203 -123l-151 201l383 237l315 -239l-172 -199z" glyph-name="Acircumflex" horiz-adv-x="1525" unicode="Â"/><glyph d="M690 1434h465l293 -1434h-444l-31 199h-502l-98 -199h-482zM858 979l-219 -440h285zM825 1542h-258q16 178 96 284.5t203 106.5q109 0 172 -98q6 -8 13.5 -20.5t11.5 -19.5t10 -15t10 -11.5t9 -3.5q27 0 34 127h258q-16 -178 -96 -285.5t-203 -107.5q-104 0 -172 100 q-6 8 -13 19.5t-11 19t-10.5 14.5t-10.5 11t-8 4q-27 0 -35 -125z" glyph-name="Atilde" horiz-adv-x="1525" unicode="Ã"/><glyph d="M690 1434h465l293 -1434h-444l-31 199h-502l-98 -199h-482zM858 979l-219 -440h285zM571 1673q0 78 61.5 135.5t143.5 57.5q74 0 123 -49.5t49 -120.5q0 -78 -60.5 -134.5t-144.5 -56.5q-74 0 -123 48t-49 120zM991 1673q0 78 61.5 135.5t143.5 57.5q74 0 123 -49.5 t49 -120.5q0 -78 -61.5 -134.5t-143.5 -56.5q-74 0 -123 48t-49 120z" glyph-name="Adieresis" horiz-adv-x="1525" unicode="Ä"/><glyph d="M690 1434h465l293 -1434h-444l-31 199h-502l-98 -199h-482zM858 979l-219 -440h285zM717 1735q0 119 85 203.5t208 84.5q109 0 178 -71.5t69 -171.5q0 -119 -85 -204t-207 -85q-109 0 -178.5 72t-69.5 172zM991 1837q-33 0 -57.5 -25.5t-24.5 -60.5q0 -31 20.5 -52.5 t53.5 -21.5t57.5 26t24.5 60q0 31 -20.5 52.5t-53.5 21.5z" glyph-name="Aring" horiz-adv-x="1525" unicode="Å"/><glyph d="M946 1434h1184l-66 -371h-634l-31 -176h485l-59 -336h-486l-30 -180h633l-64 -371h-1036l35 201h-351l-135 -201h-518zM754 539h182l63 366z" glyph-name="AE" horiz-adv-x="2064" unicode="Æ"/><glyph d="M1118 623l410 -121q-90 -248 -291 -386.5t-444 -140.5l-33 -65q137 -53 137 -191q0 -113 -77 -183.5t-204 -70.5q-135 0 -270 82l123 189q96 -57 147 -58q61 0 62 58q0 27 -25.5 43t-64.5 16l-39 66l84 129q-250 45 -392.5 224t-142.5 423q0 211 96.5 397.5t282 305 t416.5 118.5q279 0 456 -149.5t218 -388.5l-428 -115q-12 113 -84 183.5t-187 70.5q-141 0 -236 -116t-95 -269q0 -129 72.5 -214t199.5 -85q100 0 186 66.5t123 181.5z" glyph-name="Ccedilla" horiz-adv-x="1560" unicode="Ç"/><glyph d="M1079 1575l-268 -82l-225 313l295 193zM35 0l252 1434h1140l-63 -371h-723l-31 -176h578l-62 -336h-575l-31 -180h721l-65 -371h-1141z" glyph-name="Egrave" horiz-adv-x="1361" unicode="È"/><glyph d="M944 1493l-239 125l344 381l223 -240zM35 0l252 1434h1140l-63 -371h-723l-31 -176h578l-62 -336h-575l-31 -180h721l-65 -371h-1141z" glyph-name="Eacute" horiz-adv-x="1361" unicode="É"/><glyph d="M35 0l252 1434h1140l-63 -371h-723l-31 -176h578l-62 -336h-575l-31 -180h721l-65 -371h-1141zM897 1620l-203 -123l-151 201l383 237l315 -239l-172 -199z" glyph-name="Ecircumflex" horiz-adv-x="1361" unicode="Ê"/><glyph d="M506 1673q0 78 61.5 135.5t143.5 57.5q74 0 123 -49.5t49 -120.5q0 -78 -60.5 -134.5t-144.5 -56.5q-74 0 -123 48t-49 120zM926 1673q0 78 61.5 135.5t142.5 57.5q74 0 123.5 -49.5t49.5 -120.5q0 -78 -61.5 -134.5t-143.5 -56.5q-74 0 -123 48t-49 120zM35 0l252 1434 h1140l-63 -371h-723l-31 -176h578l-62 -336h-575l-31 -180h721l-65 -371h-1141z" glyph-name="Edieresis" horiz-adv-x="1361" unicode="Ë"/><glyph d="M287 1434h426l-252 -1434h-426zM758 1575l-269 -82l-225 313l295 193z" glyph-name="Igrave" horiz-adv-x="679" unicode="Ì"/><glyph d="M287 1434h426l-252 -1434h-426zM541 1493l-240 125l344 381l223 -240z" glyph-name="Iacute" horiz-adv-x="679" unicode="Í"/><glyph d="M287 1434h426l-252 -1434h-426zM549 1620l-203 -123l-151 201l383 237l315 -239l-172 -199z" glyph-name="Icircumflex" horiz-adv-x="679" unicode="Î"/><glyph d="M287 1434h426l-252 -1434h-426zM141 1673q0 78 61.5 135.5t143.5 57.5q74 0 123 -49.5t49 -120.5q0 -78 -60.5 -134.5t-144.5 -56.5q-74 0 -123 48t-49 120zM561 1673q0 78 61.5 135.5t143.5 57.5q74 0 123 -49.5t49 -120.5q0 -78 -61.5 -134.5t-143.5 -56.5 q-74 0 -123 48t-49 120z" glyph-name="Idieresis" horiz-adv-x="679" unicode="Ï"/><glyph d="M55 557l58 320h137l98 557h590q324 0 498 -169t174 -446q0 -344 -203 -581.5t-565 -237.5h-746l99 557h-140zM877 557h-265l-32 -188h258q162 0 249 126t87 298q0 125 -65 198.5t-187 73.5h-220l-32 -188h264z" glyph-name="Eth" horiz-adv-x="1646" unicode="Ð"/><glyph d="M455 0h-420l252 1434h424l391 -803l141 803h420l-252 -1434h-426l-391 793zM879 1542h-258q16 178 96 284.5t203 106.5q109 0 172 -98q6 -8 13 -20.5t11 -19.5t10.5 -15t10.5 -11.5t8 -3.5q27 0 35 127h258q-16 -178 -96 -285.5t-203 -107.5q-104 0 -172 100 q-6 8 -13.5 19.5t-11.5 19t-10 14.5t-10 11t-9 4q-26 0 -34 -125z" glyph-name="Ntilde" horiz-adv-x="1632" unicode="Ñ"/><glyph d="M96 639q0 338 231.5 578.5t575.5 240.5q322 0 510.5 -191.5t188.5 -471.5q0 -338 -231.5 -579t-575.5 -241q-322 0 -510.5 191.5t-188.5 472.5zM881 1059q-147 0 -246.5 -116t-99.5 -273q0 -127 75.5 -211t208.5 -84q145 0 244.5 115.5t99.5 273.5q0 127 -75.5 211 t-206.5 84zM1202 1575l-268 -82l-225 313l295 193z" glyph-name="Ograve" horiz-adv-x="1636" unicode="Ò"/><glyph d="M96 639q0 338 231.5 578.5t575.5 240.5q322 0 510.5 -191.5t188.5 -471.5q0 -338 -231.5 -579t-575.5 -241q-322 0 -510.5 191.5t-188.5 472.5zM881 1059q-147 0 -246.5 -116t-99.5 -273q0 -127 75.5 -211t208.5 -84q145 0 244.5 115.5t99.5 273.5q0 127 -75.5 211 t-206.5 84zM1063 1493l-240 125l344 381l224 -240z" glyph-name="Oacute" horiz-adv-x="1636" unicode="Ó"/><glyph d="M96 639q0 338 231.5 578.5t575.5 240.5q322 0 510.5 -191.5t188.5 -471.5q0 -338 -231.5 -579t-575.5 -241q-322 0 -510.5 191.5t-188.5 472.5zM881 1059q-147 0 -246.5 -116t-99.5 -273q0 -127 75.5 -211t208.5 -84q145 0 244.5 115.5t99.5 273.5q0 127 -75.5 211 t-206.5 84zM1024 1620l-203 -123l-151 201l383 237l315 -239l-172 -199z" glyph-name="Ocircumflex" horiz-adv-x="1636" unicode="Ô"/><glyph d="M96 639q0 338 231.5 578.5t575.5 240.5q322 0 510.5 -191.5t188.5 -471.5q0 -338 -231.5 -579t-575.5 -241q-322 0 -510.5 191.5t-188.5 472.5zM881 1059q-147 0 -246.5 -116t-99.5 -273q0 -127 75.5 -211t208.5 -84q145 0 244.5 115.5t99.5 273.5q0 127 -75.5 211 t-206.5 84zM883 1542h-258q16 178 96 284.5t203 106.5q109 0 172 -98q6 -8 13 -20.5t11 -19.5t10.5 -15t10.5 -11.5t8 -3.5q27 0 35 127h258q-16 -178 -96 -285.5t-203 -107.5q-104 0 -172 100q-6 8 -13.5 19.5t-11.5 19t-10 14.5t-10 11t-8 4q-27 0 -35 -125z" glyph-name="Otilde" horiz-adv-x="1636" unicode="Õ"/><glyph d="M96 639q0 338 231.5 578.5t575.5 240.5q322 0 510.5 -191.5t188.5 -471.5q0 -338 -231.5 -579t-575.5 -241q-322 0 -510.5 191.5t-188.5 472.5zM881 1059q-147 0 -246.5 -116t-99.5 -273q0 -127 75.5 -211t208.5 -84q145 0 244.5 115.5t99.5 273.5q0 127 -75.5 211 t-206.5 84zM627 1673q0 78 61.5 135.5t142.5 57.5q74 0 123.5 -49.5t49.5 -120.5q0 -78 -60.5 -134.5t-144.5 -56.5q-74 0 -123 48t-49 120zM1047 1673q0 78 61 135.5t143 57.5q74 0 123 -49.5t49 -120.5q0 -78 -61.5 -134.5t-142.5 -56.5q-74 0 -123 48t-49 120z" glyph-name="Odieresis" horiz-adv-x="1636" unicode="Ö"/><glyph d="M268 223l-211 246l256 221l-178 223l250 209l174 -217l252 217l209 -245l-258 -224l178 -221l-252 -209l-172 215z" glyph-name="multiply" horiz-adv-x="1028" unicode="×"/><glyph d="M98 637q0 338 231.5 579.5t575.5 241.5q227 0 402 -104l75 80h299l-213 -226q135 -172 136 -417q0 -217 -101.5 -402.5t-289 -299.5t-416.5 -114q-225 0 -398 103l-73 -78h-299l209 221q-138 174 -138 416zM881 1059q-143 0 -240.5 -117t-97.5 -274q0 -51 16 -105 l445 469q-60 27 -123 27zM821 375q147 0 242.5 117.5t95.5 273.5q0 57 -14 100l-443 -469q56 -22 119 -22z" glyph-name="Oslash" horiz-adv-x="1636" unicode="Ø"/><glyph d="M1198 1434h420l-145 -828q-51 -291 -243 -461t-466 -170q-313 0 -477 168t-164 430q0 82 14 156l123 705h420l-123 -705q-10 -51 -10 -115q0 -244 239 -243q225 0 281 317zM1163 1575l-268 -82l-225 313l295 193z" glyph-name="Ugrave" horiz-adv-x="1570" unicode="Ù"/><glyph d="M1198 1434h420l-145 -828q-51 -291 -243 -461t-466 -170q-313 0 -477 168t-164 430q0 82 14 156l123 705h420l-123 -705q-10 -51 -10 -115q0 -244 239 -243q225 0 281 317zM1028 1493l-240 125l345 381l223 -240z" glyph-name="Uacute" horiz-adv-x="1570" unicode="Ú"/><glyph d="M1198 1434h420l-145 -828q-51 -291 -243 -461t-466 -170q-313 0 -477 168t-164 430q0 82 14 156l123 705h420l-123 -705q-10 -51 -10 -115q0 -244 239 -243q225 0 281 317zM993 1620l-202 -123l-152 201l383 237l315 -239l-172 -199z" glyph-name="Ucircumflex" horiz-adv-x="1570" unicode="Û"/><glyph d="M1198 1434h420l-145 -828q-51 -291 -243 -461t-466 -170q-313 0 -477 168t-164 430q0 82 14 156l123 705h420l-123 -705q-10 -51 -10 -115q0 -244 239 -243q225 0 281 317zM590 1673q0 78 61.5 135.5t143.5 57.5q74 0 123 -49.5t49 -120.5q0 -78 -60.5 -134.5 t-144.5 -56.5q-74 0 -123 48t-49 120zM1010 1673q0 78 61.5 135.5t142.5 57.5q74 0 123 -49.5t49 -120.5q0 -78 -61 -134.5t-143 -56.5q-74 0 -123 48t-49 120z" glyph-name="Udieresis" horiz-adv-x="1570" unicode="Ü"/><glyph d="M612 1434l176 -514l357 514h536l-729 -932l-88 -502h-420l88 498l-397 936h477zM997 1493l-239 125l344 381l223 -240z" glyph-name="Yacute" horiz-adv-x="1495" unicode="Ý"/><glyph d="M35 0l252 1434h418l-27 -154h190q276 0 420 -143.5t144 -358.5q0 -272 -167 -452.5t-477 -180.5h-311l-24 -145h-418zM543 508h200q127 0 189.5 66.5t62.5 179.5q0 78 -50 121t-148 43h-183z" glyph-name="Thorn" horiz-adv-x="1460" unicode="Þ"/><glyph d="M618 649l41 230q123 -2 183.5 45t60.5 123q0 45 -34.5 76.5t-92.5 31.5q-61 0 -115.5 -43t-74.5 -156l-170 -956h-414l170 969q20 117 68.5 211t110 153.5t137 99.5t149.5 56t147 16q215 0 359.5 -126t144.5 -306q0 -111 -56 -206t-159 -148q152 -111 152 -299 q0 -182 -116 -313.5t-333 -131.5q-172 0 -299 66l121 330q74 -35 125 -35q55 0 87 30.5t32 79.5q0 125 -236 125z" glyph-name="germandbls" horiz-adv-x="1314" unicode="ß"/><glyph d="M694 0l21 117q-106 -141 -275 -142q-178 0 -281.5 130.5t-103.5 332.5q0 154 54.5 299.5t173 250t276.5 104.5q223 0 299 -162l25 137h413l-188 -1067h-414zM610 334q88 0 142.5 69.5t54.5 167.5q0 72 -38 117t-112 45q-88 0 -143 -69.5t-55 -165.5q0 -72 38.5 -118 t112.5 -46zM971 1208l-269 -82l-225 314l295 192z" glyph-name="agrave" unicode="à"/><glyph d="M694 0l21 117q-106 -141 -275 -142q-178 0 -281.5 130.5t-103.5 332.5q0 154 54.5 299.5t173 250t276.5 104.5q223 0 299 -162l25 137h413l-188 -1067h-414zM610 334q88 0 142.5 69.5t54.5 167.5q0 72 -38 117t-112 45q-88 0 -143 -69.5t-55 -165.5q0 -72 38.5 -118 t112.5 -46zM825 1126l-239 125l344 381l223 -239z" glyph-name="aacute" unicode="á"/><glyph d="M694 0l21 117q-106 -141 -275 -142q-178 0 -281.5 130.5t-103.5 332.5q0 154 54.5 299.5t173 250t276.5 104.5q223 0 299 -162l25 137h413l-188 -1067h-414zM610 334q88 0 142.5 69.5t54.5 167.5q0 72 -38 117t-112 45q-88 0 -143 -69.5t-55 -165.5q0 -72 38.5 -118 t112.5 -46zM813 1253l-203 -123l-151 201l383 238l315 -240l-172 -199z" glyph-name="acircumflex" unicode="â"/><glyph d="M694 0l21 117q-106 -141 -275 -142q-178 0 -281.5 130.5t-103.5 332.5q0 154 54.5 299.5t173 250t276.5 104.5q223 0 299 -162l25 137h413l-188 -1067h-414zM610 334q88 0 142.5 69.5t54.5 167.5q0 72 -38 117t-112 45q-88 0 -143 -69.5t-55 -165.5q0 -72 38.5 -118 t112.5 -46zM649 1176h-258q16 178 96 284.5t203 106.5q109 0 172 -99q6 -8 13.5 -20t11.5 -19.5t10 -15.5t10 -11t8 -3q27 0 35 127h258q-16 -178 -96 -285.5t-203 -107.5q-104 0 -172 100q-6 8 -13 19.5t-11 18.5t-10.5 14t-10.5 11t-8 4q-27 1 -35 -124z" glyph-name="atilde" unicode="ã"/><glyph d="M694 0l21 117q-106 -141 -275 -142q-178 0 -281.5 130.5t-103.5 332.5q0 154 54.5 299.5t173 250t276.5 104.5q223 0 299 -162l25 137h413l-188 -1067h-414zM610 334q88 0 142.5 69.5t54.5 167.5q0 72 -38 117t-112 45q-88 0 -143 -69.5t-55 -165.5q0 -72 38.5 -118 t112.5 -46zM395 1307q0 78 61.5 135t143.5 57q74 0 123 -49t49 -121q0 -78 -60.5 -134t-144.5 -56q-74 0 -123 48t-49 120zM815 1307q0 78 61.5 135t143.5 57q74 0 123 -49t49 -121q0 -78 -61.5 -134t-143.5 -56q-74 0 -123 48t-49 120z" glyph-name="adieresis" unicode="ä"/><glyph d="M694 0l21 117q-106 -141 -275 -142q-178 0 -281.5 130.5t-103.5 332.5q0 154 54.5 299.5t173 250t276.5 104.5q223 0 299 -162l25 137h413l-188 -1067h-414zM610 334q88 0 142.5 69.5t54.5 167.5q0 72 -38 117t-112 45q-88 0 -143 -69.5t-55 -165.5q0 -72 38.5 -118 t112.5 -46zM541 1368q0 119 85 204t208 85q109 0 178 -72t69 -172q0 -119 -85 -204t-208 -85q-109 0 -178 72t-69 172zM815 1470q-33 0 -57.5 -25.5t-24.5 -60.5q0 -31 20.5 -52t53.5 -21t57.5 25.5t24.5 60.5q0 31 -20.5 52t-53.5 21z" glyph-name="aring" unicode="å"/><glyph d="M1907 356l135 -252q-186 -129 -432 -129q-190 0 -315.5 74t-182.5 201l-43 -250h-330l23 137q-131 -162 -322 -162q-178 0 -281.5 130.5t-103.5 332.5q0 154 54.5 299.5t173 250t276.5 104.5q240 0 338 -177l29 152h329l-30 -170q172 195 452 195q219 0 344 -99.5 t125 -249.5q0 -162 -141 -263t-414 -101h-131q47 -98 203 -98q121 -1 244 75zM610 334q88 0 142.5 69.5t54.5 167.5q0 72 -38 117t-112 45q-88 0 -143 -69.5t-55 -165.5q0 -72 38.5 -118t112.5 -46zM1657 797q-66 0 -119 -46t-78 -133h41q250 0 250 107q0 72 -94 72z" glyph-name="ae" horiz-adv-x="2177" unicode="æ"/><glyph d="M782 483l355 -108q-63 -184 -211 -289.5t-324 -110.5l-33 -65q137 -53 138 -191q0 -113 -77 -183.5t-204 -70.5q-135 0 -270 82l123 189q96 -57 147 -58q61 0 61 58q0 27 -25.5 43t-64.5 16l-39 66l84 129q-184 39 -285.5 172t-101.5 313q0 250 168 433.5t422 183.5 q219 0 356.5 -114t165.5 -296l-372 -100q-10 152 -154 151q-86 0 -138 -71.5t-52 -169.5q0 -72 37.5 -115t113.5 -43q61 0 109 38.5t71 110.5z" glyph-name="ccedilla" horiz-adv-x="1196" unicode="ç"/><glyph d="M915 356l136 -252q-186 -129 -433 -129q-272 0 -417.5 142.5t-145.5 355.5q0 258 174 438.5t455 180.5q221 0 346 -99.5t125 -251.5q0 -160 -141.5 -261t-413.5 -101h-131q47 -98 203 -98q120 -1 243 75zM666 797q-63 0 -117.5 -47.5t-79.5 -131.5h41q250 0 250 107 q0 72 -94 72zM940 1208l-268 -82l-226 314l295 192z" glyph-name="egrave" horiz-adv-x="1185" unicode="è"/><glyph d="M915 356l136 -252q-186 -129 -433 -129q-272 0 -417.5 142.5t-145.5 355.5q0 258 174 438.5t455 180.5q221 0 346 -99.5t125 -251.5q0 -160 -141.5 -261t-413.5 -101h-131q47 -98 203 -98q120 -1 243 75zM666 797q-63 0 -117.5 -47.5t-79.5 -131.5h41q250 0 250 107 q0 72 -94 72zM803 1126l-240 125l344 381l223 -239z" glyph-name="eacute" horiz-adv-x="1185" unicode="é"/><glyph d="M915 356l136 -252q-186 -129 -433 -129q-272 0 -417.5 142.5t-145.5 355.5q0 258 174 438.5t455 180.5q221 0 346 -99.5t125 -251.5q0 -160 -141.5 -261t-413.5 -101h-131q47 -98 203 -98q120 -1 243 75zM666 797q-63 0 -117.5 -47.5t-79.5 -131.5h41q250 0 250 107 q0 72 -94 72zM762 1253l-203 -123l-151 201l383 238l315 -240l-172 -199z" glyph-name="ecircumflex" horiz-adv-x="1185" unicode="ê"/><glyph d="M915 356l136 -252q-186 -129 -433 -129q-272 0 -417.5 142.5t-145.5 355.5q0 258 174 438.5t455 180.5q221 0 346 -99.5t125 -251.5q0 -160 -141.5 -261t-413.5 -101h-131q47 -98 203 -98q120 -1 243 75zM666 797q-63 0 -117.5 -47.5t-79.5 -131.5h41q250 0 250 107 q0 72 -94 72zM330 1307q0 78 61.5 135t143.5 57q74 0 123 -49t49 -121q0 -78 -60.5 -134t-144.5 -56q-74 0 -123 48t-49 120zM750 1307q0 78 61 135t143 57q74 0 123 -49t49 -121q0 -78 -61 -134t-143 -56q-74 0 -123 48t-49 120z" glyph-name="edieresis" horiz-adv-x="1185" unicode="ë"/><glyph d="M2 0l188 1067h412l-188 -1067h-412zM655 1208l-268 -82l-225 314l295 192z" glyph-name="igrave" horiz-adv-x="606" unicode="ì"/><glyph d="M2 0l188 1067h412l-188 -1067h-412zM436 1126l-239 125l344 381l223 -239z" glyph-name="iacute" horiz-adv-x="606" unicode="í"/><glyph d="M2 0l188 1067h412l-188 -1067h-412zM440 1253l-202 -123l-152 201l383 238l315 -240l-172 -199z" glyph-name="icircumflex" horiz-adv-x="606" unicode="î"/><glyph d="M2 0l188 1067h412l-188 -1067h-412zM37 1307q0 78 61.5 135t143.5 57q74 0 123 -49t49 -121q0 -78 -60.5 -134t-144.5 -56q-74 0 -123 48t-49 120zM457 1307q0 78 61.5 135t143.5 57q74 0 123 -49t49 -121q0 -78 -61.5 -134t-143.5 -56q-74 0 -123 48t-49 120z" glyph-name="idieresis" horiz-adv-x="606" unicode="ï"/><glyph d="M1038 1405l33 -186l-139 -35l110 -211q106 -199 107 -398q0 -258 -164 -429t-424 -171q-223 0 -365.5 138.5t-142.5 345.5q0 221 140.5 378.5t345.5 157.5q27 0 59 -4l-53 96l-189 -45l-32 183l127 32l-97 177h449l39 -78zM616 680q-84 0 -133 -56.5t-49 -134.5 q0 -70 43 -114.5t117 -44.5q78 0 131 59.5t53 130.5q0 74 -44 117t-118 43z" glyph-name="eth" horiz-adv-x="1212" unicode="ð"/><glyph d="M674 0l104 592q4 29 4 51q0 55 -27.5 80t-66.5 25q-57 0 -106.5 -43t-57.5 -91l-108 -614h-414l188 1067h414l-24 -139q113 164 319 164q147 0 229 -85t82 -249q0 -66 -14 -144l-109 -614h-413zM631 1176h-258q16 178 96 284.5t203 106.5q109 0 172 -99q6 -8 13 -20 t11 -19.5t10.5 -15.5t10.5 -11t8 -3q27 0 35 127h258q-16 -178 -96 -285.5t-203 -107.5q-104 0 -172 100q-6 8 -13.5 19.5t-11.5 18.5t-10 14t-10 11t-8 4q-27 1 -35 -124z" glyph-name="ntilde" horiz-adv-x="1269" unicode="ñ"/><glyph d="M55 477q0 244 169 429.5t427 185.5q250 0 393.5 -144.5t143.5 -357.5q0 -244 -169 -429.5t-427 -185.5q-250 0 -393.5 144.5t-143.5 357.5zM641 733q-86 0 -138 -71.5t-52 -169.5q0 -72 38.5 -115t112.5 -43q86 0 138.5 71.5t52.5 169.5q0 72 -39 115t-113 43zM940 1208 l-268 -82l-226 314l295 192z" glyph-name="ograve" horiz-adv-x="1245" unicode="ò"/><glyph d="M55 477q0 244 169 429.5t427 185.5q250 0 393.5 -144.5t143.5 -357.5q0 -244 -169 -429.5t-427 -185.5q-250 0 -393.5 144.5t-143.5 357.5zM641 733q-86 0 -138 -71.5t-52 -169.5q0 -72 38.5 -115t112.5 -43q86 0 138.5 71.5t52.5 169.5q0 72 -39 115t-113 43zM803 1126 l-240 125l344 381l223 -239z" glyph-name="oacute" horiz-adv-x="1245" unicode="ó"/><glyph d="M55 477q0 244 169 429.5t427 185.5q250 0 393.5 -144.5t143.5 -357.5q0 -244 -169 -429.5t-427 -185.5q-250 0 -393.5 144.5t-143.5 357.5zM641 733q-86 0 -138 -71.5t-52 -169.5q0 -72 38.5 -115t112.5 -43q86 0 138.5 71.5t52.5 169.5q0 72 -39 115t-113 43zM762 1253 l-203 -123l-151 201l383 238l315 -240l-172 -199z" glyph-name="ocircumflex" horiz-adv-x="1245" unicode="ô"/><glyph d="M55 477q0 244 169 429.5t427 185.5q250 0 393.5 -144.5t143.5 -357.5q0 -244 -169 -429.5t-427 -185.5q-250 0 -393.5 144.5t-143.5 357.5zM641 733q-86 0 -138 -71.5t-52 -169.5q0 -72 38.5 -115t112.5 -43q86 0 138.5 71.5t52.5 169.5q0 72 -39 115t-113 43zM618 1176 h-258q16 178 96.5 284.5t202.5 106.5q109 0 172 -99q6 -8 13.5 -20t11.5 -19.5t10 -15.5t10.5 -11t8.5 -3q27 0 35 127h258q-16 -178 -96.5 -285.5t-202.5 -107.5q-104 0 -172 100q-6 8 -13.5 19.5t-11.5 18.5t-10 14t-10.5 11t-8.5 4q-27 1 -35 -124z" glyph-name="otilde" horiz-adv-x="1245" unicode="õ"/><glyph d="M55 477q0 244 169 429.5t427 185.5q250 0 393.5 -144.5t143.5 -357.5q0 -244 -169 -429.5t-427 -185.5q-250 0 -393.5 144.5t-143.5 357.5zM641 733q-86 0 -138 -71.5t-52 -169.5q0 -72 38.5 -115t112.5 -43q86 0 138.5 71.5t52.5 169.5q0 72 -39 115t-113 43zM362 1307 q0 78 61.5 135t143.5 57q74 0 123 -49t49 -121q0 -78 -60.5 -134t-143.5 -56q-74 0 -123.5 48t-49.5 120zM782 1307q0 78 61.5 135t143.5 57q74 0 123 -49t49 -121q0 -78 -61.5 -134t-143.5 -56q-74 0 -123 48t-49 120z" glyph-name="odieresis" horiz-adv-x="1245" unicode="ö"/><glyph d="M958 842l-61 -338h-829l61 338h829zM250 252q0 78 61.5 134t143.5 56q76 0 125 -49t49 -121q0 -78 -61.5 -134t-143.5 -56q-76 0 -125 49t-49 121zM395 1069q0 80 61.5 136.5t143.5 56.5q76 0 124 -49.5t48 -120.5q0 -78 -61.5 -134.5t-143.5 -56.5q-74 0 -123 48 t-49 120z" glyph-name="divide" horiz-adv-x="972" unicode="÷"/><glyph d="M57 473q0 252 170 435.5t426 183.5q182 0 318 -86l59 61h221l-161 -168q102 -131 102 -309q0 -250 -171 -432.5t-425 -182.5q-182 0 -317 82l-56 -57h-219l156 164q-103 131 -103 309zM645 762q-98 0 -159.5 -81t-61.5 -192q0 -16 4 -49l295 308q-39 14 -78 14zM602 305 q102 0 162.5 83t60.5 187q0 25 -4 46l-293 -304q31 -12 74 -12z" glyph-name="oslash" horiz-adv-x="1247" unicode="ø"/><glyph d="M594 1067l-105 -592q-4 -29 -4 -51q0 -55 28 -80t67 -25q57 0 106 43.5t57 90.5l109 614h414l-189 -1067h-413l24 139q-113 -164 -319 -164q-147 0 -229.5 85t-82.5 249q0 66 15 144l108 614h414zM944 1208l-268 -82l-225 314l294 192z" glyph-name="ugrave" horiz-adv-x="1267" unicode="ù"/><glyph d="M594 1067l-105 -592q-4 -29 -4 -51q0 -55 28 -80t67 -25q57 0 106 43.5t57 90.5l109 614h414l-189 -1067h-413l24 139q-113 -164 -319 -164q-147 0 -229.5 85t-82.5 249q0 66 15 144l108 614h414zM807 1126l-240 125l344 381l224 -239z" glyph-name="uacute" horiz-adv-x="1267" unicode="ú"/><glyph d="M594 1067l-105 -592q-4 -29 -4 -51q0 -55 28 -80t67 -25q57 0 106 43.5t57 90.5l109 614h414l-189 -1067h-413l24 139q-113 -164 -319 -164q-147 0 -229.5 85t-82.5 249q0 66 15 144l108 614h414zM768 1253l-203 -123l-151 201l383 238l315 -240l-172 -199z" glyph-name="ucircumflex" horiz-adv-x="1267" unicode="û"/><glyph d="M594 1067l-105 -592q-4 -29 -4 -51q0 -55 28 -80t67 -25q57 0 106 43.5t57 90.5l109 614h414l-189 -1067h-413l24 139q-113 -164 -319 -164q-147 0 -229.5 85t-82.5 249q0 66 15 144l108 614h414zM369 1307q0 78 61.5 135t142.5 57q74 0 123 -49t49 -121q0 -78 -60 -134 t-144 -56q-74 0 -123 48t-49 120zM788 1307q0 78 61.5 135t143.5 57q74 0 123 -49t49 -121q0 -78 -61.5 -134t-142.5 -56q-74 0 -123.5 48t-49.5 120z" glyph-name="udieresis" horiz-adv-x="1267" unicode="ü"/><glyph d="M29 -459l-103 361q227 63 344 137l-178 1028h420l55 -596l269 596h452l-485 -909q-57 -106 -117.5 -192.5t-108 -144t-114 -104.5t-104 -70.5t-111.5 -47t-105.5 -32t-113.5 -26.5zM780 1126l-239 125l344 381l223 -239z" glyph-name="yacute" horiz-adv-x="1193" unicode="ý"/><glyph d="M668 1434l-84 -484q106 141 274 142q178 0 281.5 -130.5t103.5 -332.5q0 -154 -54 -299.5t-173 -250t-277 -104.5q-223 0 -299 162l-88 -504h-413l315 1801h414zM688 733q-88 0 -142 -69.5t-54 -167.5q0 -72 37.5 -117t111.5 -45q88 0 143.5 69.5t55.5 165.5 q0 72 -39 118t-113 46z" glyph-name="thorn" unicode="þ"/><glyph d="M29 -459l-103 361q227 63 344 137l-178 1028h420l55 -596l269 596h452l-485 -909q-57 -106 -117.5 -192.5t-108 -144t-114 -104.5t-104 -70.5t-111.5 -47t-105.5 -32t-113.5 -26.5zM340 1307q0 78 61.5 135t143.5 57q74 0 123 -49t49 -121q0 -78 -60.5 -134t-144.5 -56 q-74 0 -123 48t-49 120zM760 1307q0 78 61.5 135t143.5 57q74 0 123 -49t49 -121q0 -78 -61.5 -134t-143.5 -56q-74 0 -123 48t-49 120z" glyph-name="ydieresis" horiz-adv-x="1193" unicode="ÿ"/><glyph d="M690 1434h465l293 -1434h-444l-31 199h-502l-98 -199h-482zM858 979l-219 -440h285zM1309 1835l-54 -295h-612l53 295h613z" glyph-name="Amacron" horiz-adv-x="1525" unicode="Ā"/><glyph d="M694 0l21 117q-106 -141 -275 -142q-178 0 -281.5 130.5t-103.5 332.5q0 154 54.5 299.5t173 250t276.5 104.5q223 0 299 -162l25 137h413l-188 -1067h-414zM610 334q88 0 142.5 69.5t54.5 167.5q0 72 -38 117t-112 45q-88 0 -143 -69.5t-55 -165.5q0 -72 38.5 -118 t112.5 -46zM1133 1468l-54 -294h-612l53 294h613z" glyph-name="amacron" unicode="ā"/><glyph d="M690 1434h465l293 -1434h-444l-31 199h-502l-98 -199h-482zM858 979l-219 -440h285zM1092 1886l241 -63q-111 -309 -360 -310q-139 0 -219 89.5t-86 220.5l250 63q0 -109 71 -108q68 -1 103 108z" glyph-name="Abreve" horiz-adv-x="1525" unicode="Ă"/><glyph d="M694 0l21 117q-106 -141 -275 -142q-178 0 -281.5 130.5t-103.5 332.5q0 154 54.5 299.5t173 250t276.5 104.5q223 0 299 -162l25 137h413l-188 -1067h-414zM610 334q88 0 142.5 69.5t54.5 167.5q0 72 -38 117t-112 45q-88 0 -143 -69.5t-55 -165.5q0 -72 38.5 -118 t112.5 -46zM918 1520l241 -64q-111 -309 -360 -309q-139 0 -219 89t-86 220l249 64q0 -109 72 -109q68 0 103 109z" glyph-name="abreve" unicode="ă"/><glyph d="M690 1434h465l293 -1434q-215 -145 -215 -238q0 -51 59 -51q23 0 47 6l9 -247q-49 -10 -93 -11q-123 0 -194.5 58.5t-71.5 150.5q0 186 260 332h-245l-31 199h-502l-98 -199h-482zM858 979l-219 -440h285z" glyph-name="Aogonek" horiz-adv-x="1525" unicode="Ą"/><glyph d="M694 0l21 117q-106 -141 -275 -142q-178 0 -281.5 130.5t-103.5 332.5q0 154 54.5 299.5t173 250t276.5 104.5q223 0 299 -162l25 137h413l-188 -1067q-215 -145 -215 -238q0 -51 59 -51q23 0 47 6l9 -247q-49 -10 -93 -11q-123 0 -194.5 58.5t-71.5 150.5q0 186 260 332 h-215zM610 334q88 0 142.5 69.5t54.5 167.5q0 72 -38 117t-112 45q-88 0 -143 -69.5t-55 -165.5q0 -72 38.5 -118t112.5 -46z" glyph-name="aogonek" unicode="ą"/><glyph d="M1118 623l410 -121q-90 -248 -293 -387.5t-449 -139.5q-317 0 -502.5 190.5t-185.5 471.5q0 211 96.5 397.5t282 305t416.5 118.5q279 0 456 -149.5t218 -388.5l-428 -115q-12 113 -84 183.5t-187 70.5q-141 0 -236 -116t-95 -269q0 -129 72.5 -214t199.5 -85 q100 0 186 66.5t123 181.5zM1057 1493l-240 125l344 381l223 -240z" glyph-name="Cacute" horiz-adv-x="1560" unicode="Ć"/><glyph d="M782 483l355 -108q-66 -186 -217.5 -293t-331.5 -107q-248 0 -390.5 143.5t-142.5 356.5q0 250 168 433.5t422 183.5q219 0 356.5 -114t165.5 -296l-372 -100q-10 152 -154 151q-86 0 -138 -71.5t-52 -169.5q0 -72 37.5 -115t113.5 -43q61 0 109 38.5t71 110.5zM797 1126 l-240 125l344 381l223 -239z" glyph-name="cacute" horiz-adv-x="1196" unicode="ć"/><glyph d="M1118 623l410 -121q-90 -248 -293 -387.5t-449 -139.5q-317 0 -502.5 190.5t-185.5 471.5q0 211 96.5 397.5t282 305t416.5 118.5q279 0 456 -149.5t218 -388.5l-428 -115q-12 113 -84 183.5t-187 70.5q-141 0 -236 -116t-95 -269q0 -129 72.5 -214t199.5 -85 q100 0 186 66.5t123 181.5zM831 1673q0 78 61.5 135.5t143.5 57.5q74 0 123 -49.5t49 -120.5q0 -78 -61.5 -134.5t-142.5 -56.5q-74 0 -123.5 48t-49.5 120z" glyph-name="Cdotaccent" horiz-adv-x="1560" unicode="Ċ"/><glyph d="M782 483l355 -108q-66 -186 -217.5 -293t-331.5 -107q-248 0 -390.5 143.5t-142.5 356.5q0 250 168 433.5t422 183.5q219 0 356.5 -114t165.5 -296l-372 -100q-10 152 -154 151q-86 0 -138 -71.5t-52 -169.5q0 -72 37.5 -115t113.5 -43q61 0 109 38.5t71 110.5zM575 1307 q0 78 61.5 135t143.5 57q74 0 123 -49t49 -121q0 -78 -61.5 -134t-142.5 -56q-74 0 -123.5 48t-49.5 120z" glyph-name="cdotaccent" horiz-adv-x="1196" unicode="ċ"/><glyph d="M1118 623l410 -121q-90 -248 -293 -387.5t-449 -139.5q-317 0 -502.5 190.5t-185.5 471.5q0 211 96.5 397.5t282 305t416.5 118.5q279 0 456 -149.5t218 -388.5l-428 -115q-12 113 -84 183.5t-187 70.5q-141 0 -236 -116t-95 -269q0 -129 72.5 -214t199.5 -85 q100 0 186 66.5t123 181.5zM1014 1810l203 123l151 -202l-383 -238l-315 240l172 200z" glyph-name="Ccaron" horiz-adv-x="1560" unicode="Č"/><glyph d="M782 483l355 -108q-66 -186 -217.5 -293t-331.5 -107q-248 0 -390.5 143.5t-142.5 356.5q0 250 168 433.5t422 183.5q219 0 356.5 -114t165.5 -296l-372 -100q-10 152 -154 151q-86 0 -138 -71.5t-52 -169.5q0 -72 37.5 -115t113.5 -43q61 0 109 38.5t71 110.5zM764 1444 l203 123l151 -203l-383 -238l-315 240l172 201z" glyph-name="ccaron" horiz-adv-x="1196" unicode="č"/><glyph d="M35 0l252 1434h590q324 0 497.5 -169t173.5 -446q0 -344 -202.5 -581.5t-565.5 -237.5h-745zM862 1065h-221l-123 -696h258q162 0 249 126t87 298q0 125 -63.5 198.5t-186.5 73.5zM979 1810l203 123l151 -202l-383 -238l-315 240l172 200z" glyph-name="Dcaron" horiz-adv-x="1583" unicode="Ď"/><glyph d="M694 0l21 117q-106 -141 -275 -142q-178 0 -281.5 130.5t-103.5 332.5q0 154 54.5 299.5t173 250t276.5 104.5q223 0 299 -162l88 504h414l-252 -1434h-414zM610 334q88 0 142.5 69.5t54.5 167.5q0 72 -38 117t-112 45q-88 0 -143 -69.5t-55 -165.5q0 -72 38.5 -118 t112.5 -46zM1493 834l-94 127q137 90 166 169q-66 0 -107 45.5t-41 106.5q0 70 55.5 121t124.5 51q82 0 130.5 -49t48.5 -135q0 -125 -80 -240.5t-203 -195.5z" glyph-name="dcaron" horiz-adv-x="1630" unicode="ď"/><glyph d="M55 557l58 320h137l98 557h590q324 0 498 -169t174 -446q0 -344 -203 -581.5t-565 -237.5h-746l99 557h-140zM877 557h-265l-32 -188h258q162 0 249 126t87 298q0 125 -65 198.5t-187 73.5h-220l-32 -188h264z" glyph-name="Dcroat" horiz-adv-x="1646" unicode="Đ"/><glyph d="M694 0l21 117q-106 -141 -275 -142q-178 0 -281.5 130.5t-103.5 332.5q0 154 54.5 299.5t173 250t276.5 104.5q223 0 299 -162l35 203h-205l37 206h205l16 95h414l-17 -95h134l-35 -206h-135l-199 -1133h-414zM610 334q88 0 142.5 69.5t54.5 167.5q0 72 -38 117t-112 45 q-88 0 -143 -69.5t-55 -165.5q0 -72 38.5 -118t112.5 -46z" glyph-name="dcroat" unicode="đ"/><glyph d="M35 0l252 1434h1140l-63 -371h-723l-31 -176h578l-62 -336h-575l-31 -180h721l-65 -371h-1141zM1245 1835l-53 -295h-612l53 295h612z" glyph-name="Emacron" horiz-adv-x="1361" unicode="Ē"/><glyph d="M915 356l136 -252q-186 -129 -433 -129q-272 0 -417.5 142.5t-145.5 355.5q0 258 174 438.5t455 180.5q221 0 346 -99.5t125 -251.5q0 -160 -141.5 -261t-413.5 -101h-131q47 -98 203 -98q120 -1 243 75zM666 797q-63 0 -117.5 -47.5t-79.5 -131.5h41q250 0 250 107 q0 72 -94 72zM1102 1468l-53 -294h-613l53 294h613z" glyph-name="emacron" horiz-adv-x="1185" unicode="ē"/><glyph d="M35 0l252 1434h1140l-63 -371h-723l-31 -176h578l-62 -336h-575l-31 -180h721l-65 -371h-1141zM719 1673q0 78 61.5 135.5t143.5 57.5q74 0 123 -49.5t49 -120.5q0 -78 -61.5 -134.5t-143.5 -56.5q-74 0 -123 48t-49 120z" glyph-name="Edotaccent" horiz-adv-x="1361" unicode="Ė"/><glyph d="M915 356l136 -252q-186 -129 -433 -129q-272 0 -417.5 142.5t-145.5 355.5q0 258 174 438.5t455 180.5q221 0 346 -99.5t125 -251.5q0 -160 -141.5 -261t-413.5 -101h-131q47 -98 203 -98q120 -1 243 75zM666 797q-63 0 -117.5 -47.5t-79.5 -131.5h41q250 0 250 107 q0 72 -94 72zM575 1307q0 78 61.5 135t143.5 57q74 0 123 -49t49 -121q0 -78 -61.5 -134t-142.5 -56q-74 0 -123.5 48t-49.5 120z" glyph-name="edotaccent" horiz-adv-x="1185" unicode="ė"/><glyph d="M35 0l252 1434h1140l-63 -371h-723l-31 -176h578l-62 -336h-575l-31 -180h721l-65 -371q-215 -145 -215 -238q0 -51 59 -51q23 0 47 6l8 -247q-49 -10 -92 -11q-123 0 -194.5 58.5t-71.5 150.5q0 186 260 332h-942z" glyph-name="Eogonek" horiz-adv-x="1361" unicode="Ę"/><glyph d="M915 356l136 -252q-61 -43 -136 -73q-262 -166 -262 -269q0 -51 60 -51q23 0 47 6l8 -247q-49 -10 -92 -11q-123 0 -194.5 58.5t-71.5 150.5q0 170 219 307h-11q-272 0 -417.5 142.5t-145.5 355.5q0 258 174 438.5t455 180.5q221 0 346 -99.5t125 -251.5 q0 -160 -141.5 -261t-413.5 -101h-131q47 -98 203 -98q120 -1 243 75zM666 797q-63 0 -117.5 -47.5t-79.5 -131.5h41q250 0 250 107q0 72 -94 72z" glyph-name="eogonek" horiz-adv-x="1185" unicode="ę"/><glyph d="M35 0l252 1434h1140l-63 -371h-723l-31 -176h578l-62 -336h-575l-31 -180h721l-65 -371h-1141zM903 1810l203 123l151 -202l-383 -238l-315 240l172 200z" glyph-name="Ecaron" horiz-adv-x="1361" unicode="Ě"/><glyph d="M915 356l136 -252q-186 -129 -433 -129q-272 0 -417.5 142.5t-145.5 355.5q0 258 174 438.5t455 180.5q221 0 346 -99.5t125 -251.5q0 -160 -141.5 -261t-413.5 -101h-131q47 -98 203 -98q120 -1 243 75zM666 797q-63 0 -117.5 -47.5t-79.5 -131.5h41q250 0 250 107 q0 72 -94 72zM774 1444l203 123l151 -203l-383 -238l-315 240l172 201z" glyph-name="ecaron" horiz-adv-x="1185" unicode="ě"/><glyph d="M766 541l51 295h750l-148 -836h-282l34 203q-143 -227 -428 -228q-297 0 -471 197t-174 471q0 340 227.5 577.5t579.5 237.5q209 0 378 -93t265 -247l-334 -227q-125 180 -309 180q-162 0 -266 -115.5t-104 -291.5q0 -127 68.5 -212t201.5 -85q184 0 276 174h-315z M1145 1886l241 -63q-111 -309 -360 -310q-139 0 -219 89.5t-86 220.5l250 63q0 -109 71 -108q68 -1 103 108z" glyph-name="Gbreve" horiz-adv-x="1607" unicode="Ğ"/><glyph d="M63 477q0 141 50.5 277.5t164 237t265.5 100.5q209 0 295 -164l24 139h414l-162 -915q-100 -571 -586 -572q-170 0 -321.5 60.5t-251.5 156.5l217 269q182 -152 326 -152q160 0 196 201l8 47q-100 -117 -251 -117q-182 0 -285 122t-103 310zM647 745q-78 0 -129 -60 t-51 -136q0 -66 40 -111t109 -45q74 0 127.5 57.5t53.5 139.5q0 66 -40 110.5t-110 44.5zM909 1520l242 -64q-111 -309 -360 -309q-139 0 -219 89t-87 220l250 64q0 -109 72 -109q67 0 102 109z" glyph-name="gbreve" horiz-adv-x="1282" unicode="ğ"/><glyph d="M766 541l51 295h750l-148 -836h-282l34 203q-143 -227 -428 -228q-297 0 -471 197t-174 471q0 340 227.5 577.5t579.5 237.5q209 0 378 -93t265 -247l-334 -227q-125 180 -309 180q-162 0 -266 -115.5t-104 -291.5q0 -127 68.5 -212t201.5 -85q184 0 276 174h-315z M840 1673q0 78 61.5 135.5t142.5 57.5q74 0 123.5 -49.5t49.5 -120.5q0 -78 -61.5 -134.5t-143.5 -56.5q-74 0 -123 48t-49 120z" glyph-name="Gdotaccent" horiz-adv-x="1607" unicode="Ġ"/><glyph d="M63 477q0 141 50.5 277.5t164 237t265.5 100.5q209 0 295 -164l24 139h414l-162 -915q-100 -571 -586 -572q-170 0 -321.5 60.5t-251.5 156.5l217 269q182 -152 326 -152q160 0 196 201l8 47q-100 -117 -251 -117q-182 0 -285 122t-103 310zM647 745q-78 0 -129 -60 t-51 -136q0 -66 40 -111t109 -45q74 0 127.5 57.5t53.5 139.5q0 66 -40 110.5t-110 44.5zM602 1307q0 78 61.5 135t143.5 57q74 0 123 -49t49 -121q0 -78 -61.5 -134t-143.5 -56q-74 0 -123 48t-49 120z" glyph-name="gdotaccent" horiz-adv-x="1282" unicode="ġ"/><glyph d="M766 541l51 295h750l-148 -836h-282l34 203q-143 -227 -428 -228q-297 0 -471 197t-174 471q0 340 227.5 577.5t579.5 237.5q209 0 378 -93t265 -247l-334 -227q-125 180 -309 180q-162 0 -266 -115.5t-104 -291.5q0 -127 68.5 -212t201.5 -85q184 0 276 174h-315z M575 -707l-94 127q137 90 166 170q-66 0 -106.5 45.5t-40.5 106.5q0 70 55 121t125 51q82 0 130 -49t48 -135q0 -125 -80 -241t-203 -196z" glyph-name="Gcommaaccent" horiz-adv-x="1607" unicode="Ģ"/><glyph d="M63 477q0 141 50.5 277.5t164 237t265.5 100.5q209 0 295 -164l24 139h414l-162 -915q-100 -571 -586 -572q-170 0 -321.5 60.5t-251.5 156.5l217 269q182 -152 326 -152q160 0 196 201l8 47q-100 -117 -251 -117q-182 0 -285 122t-103 310zM647 745q-78 0 -129 -60 t-51 -136q0 -66 40 -111t109 -45q74 0 127.5 57.5t53.5 139.5q0 66 -40 110.5t-110 44.5zM358 -1090l-94 127q137 90 166 170q-66 0 -106.5 45.5t-40.5 106.5q0 70 55 121t125 51q82 0 130 -49t48 -135q0 -125 -80 -241t-203 -196z" glyph-name="gcommaaccent" horiz-adv-x="1282" unicode="ģ"/><glyph d="M1257 1434h420l-26 -148h88l-43 -237h-86l-185 -1049h-419l94 535h-537l-94 -535h-420l184 1049h-92l43 237h90l27 148h420l-27 -148h537zM627 901h536l25 148h-537z" glyph-name="Hbar" horiz-adv-x="1658" unicode="Ħ"/><glyph d="M78 1133l37 206h123l16 95h414l-17 -95h215l-35 -206h-217l-34 -205q113 164 319 164q147 0 229 -85t82 -249q0 -66 -14 -144l-109 -614h-413l104 592q4 29 4 51q0 55 -27.5 80t-66.5 25q-57 0 -106.5 -43t-57.5 -91l-108 -614h-414l199 1133h-123z" glyph-name="hbar" horiz-adv-x="1269" unicode="ħ"/><glyph d="M287 1434h426l-252 -1434h-426zM397 1542h-258q16 178 96 284.5t203 106.5q109 0 172 -98q6 -8 13.5 -20.5t11.5 -19.5t10 -15t10 -11.5t9 -3.5q27 0 34 127h258q-16 -178 -96 -285.5t-203 -107.5q-104 0 -172 100q-6 8 -13 19.5t-11 19t-10.5 14.5t-10.5 11t-8 4 q-27 0 -35 -125z" glyph-name="Itilde" horiz-adv-x="679" unicode="Ĩ"/><glyph d="M2 0l188 1067h412l-188 -1067h-412zM293 1176h-258q16 178 96 284.5t203 106.5q109 0 172 -99q6 -8 13 -20t11.5 -19.5t10.5 -15.5t10 -11t8 -3q27 0 35 127h258q-16 -178 -96 -285.5t-203 -107.5q-104 0 -172 100q-6 8 -13.5 19.5t-11.5 18.5t-10 14t-10 11t-8 4 q-27 1 -35 -124z" glyph-name="itilde" horiz-adv-x="606" unicode="ĩ"/><glyph d="M287 1434h426l-252 -1434h-426zM877 1835l-54 -295h-612l53 295h613z" glyph-name="Imacron" horiz-adv-x="679" unicode="Ī"/><glyph d="M2 0l188 1067h412l-188 -1067h-412zM774 1468l-53 -294h-612l53 294h612z" glyph-name="imacron" horiz-adv-x="606" unicode="ī"/><glyph d="M287 1434h426l-252 -1434h-426zM662 1886l241 -63q-111 -309 -360 -310q-139 0 -219 89.5t-86 220.5l249 63q0 -109 72 -108q68 -1 103 108z" glyph-name="Ibreve" horiz-adv-x="679" unicode="Ĭ"/><glyph d="M2 0l188 1067h412l-188 -1067h-412zM559 1520l242 -64q-111 -309 -361 -309q-139 0 -219 89t-86 220l250 64q0 -109 72 -109q67 0 102 109z" glyph-name="ibreve" horiz-adv-x="606" unicode="ĭ"/><glyph d="M287 1434h426l-252 -1434q-215 -145 -215 -238q0 -51 59 -51q23 0 47 6l8 -247q-49 -10 -92 -11q-123 0 -194.5 58.5t-71.5 150.5q0 186 260 332h-227z" glyph-name="Iogonek" horiz-adv-x="679" unicode="Į"/><glyph d="M2 0l188 1067h414l-188 -1067q-215 -145 -215 -238q0 -51 59 -51q23 0 47 6l8 -247q-49 -10 -92 -11q-123 0 -194.5 58.5t-71.5 150.5q0 186 260 332h-215zM207 1337q0 100 77.5 174t182.5 74q94 0 156.5 -62.5t62.5 -152.5q0 -100 -78 -174t-182 -74q-94 0 -156.5 62.5 t-62.5 152.5z" glyph-name="iogonek" horiz-adv-x="606" unicode="į"/><glyph d="M287 1434h426l-252 -1434h-426zM356 1673q0 78 61.5 135.5t143.5 57.5q74 0 123 -49.5t49 -120.5q0 -78 -61.5 -134.5t-143.5 -56.5q-74 0 -123 48t-49 120z" glyph-name="Idotaccent" horiz-adv-x="679" unicode="İ"/><glyph d="M2 0l188 1067h412l-188 -1067h-412z" glyph-name="dotlessi" horiz-adv-x="606" unicode="ı"/><glyph d="M287 1434h426l-252 -1434h-426zM1028 1047l68 387h964l-162 -920q-45 -248 -212.5 -393.5t-403.5 -145.5q-276 0 -422.5 146.5t-146.5 370.5q0 51 10 112l22 129h420l-18 -104q-8 -43 -8 -90q0 -172 153 -172q162 0 201 225l80 455h-545z" glyph-name="IJ" horiz-adv-x="2013" unicode="Ĳ"/><glyph d="M207 1337q0 100 77.5 174t182.5 74q94 0 156.5 -62.5t62.5 -152.5q0 -100 -78 -174t-182 -74q-94 0 -156.5 62.5t-62.5 152.5zM2 0l188 1067h414l-188 -1067h-414zM815 1337q0 100 77 174t183 74q92 0 154.5 -62.5t62.5 -152.5q0 -100 -76.5 -174t-183.5 -74 q-92 0 -154.5 62.5t-62.5 152.5zM383 -381l109 303q31 -10 53 -10q51 0 59 57l195 1098h413l-200 -1139q-31 -176 -139.5 -263t-268.5 -87q-112 0 -221 41z" glyph-name="ij" horiz-adv-x="1214" unicode="ĳ"/><glyph d="M362 1047l68 387h965l-162 -920q-45 -248 -213 -393.5t-404 -145.5q-276 0 -422.5 146.5t-146.5 370.5q0 51 10 112l23 129h420l-19 -104q-8 -43 -8 -90q0 -172 154 -172q162 0 200 225l80 455h-545zM965 1620l-203 -123l-152 201l383 237l316 -239l-172 -199z" glyph-name="Jcircumflex" horiz-adv-x="1349" unicode="Ĵ"/><glyph d="M-211 -381l109 303q31 -10 53 -10q51 0 59 57l195 1098h413l-200 -1139q-31 -176 -139.5 -263t-268.5 -87q-112 0 -221 41zM453 1253l-203 -123l-152 201l383 238l316 -240l-172 -199z" glyph-name="jcircumflex" horiz-adv-x="618" unicode="ĵ"/><glyph d="M987 0l-239 535h-199l-94 -535h-420l252 1434h420l-95 -533h156l418 533h487l-553 -709l326 -725h-459zM553 -707l-94 127q135 90 166 170q-66 0 -107 45.5t-41 106.5q0 70 55.5 121t124.5 51q82 0 130.5 -49t48.5 -135q0 -125 -80 -241t-203 -196z" glyph-name="Kcommaaccent" horiz-adv-x="1527" unicode="Ķ"/><glyph d="M698 0l-127 369h-92l-63 -369h-414l252 1434h414l-131 -738h67l223 371h465l-354 -551l192 -516h-432zM403 -707l-94 127q137 90 166 170q-66 0 -106.5 45.5t-40.5 106.5q0 70 55 121t125 51q82 0 130 -49t48 -135q0 -125 -80 -241t-203 -196z" glyph-name="kcommaaccent" horiz-adv-x="1234" unicode="ķ"/><glyph d="M35 0l252 1434h420l-185 -1045h676l-68 -389h-1095zM578 1493l-240 125l344 381l223 -240z" glyph-name="Lacute" horiz-adv-x="1263" unicode="Ĺ"/><glyph d="M2 0l252 1434h414l-252 -1434h-414zM502 1493l-240 125l344 381l223 -240z" glyph-name="lacute" horiz-adv-x="608" unicode="ĺ"/><glyph d="M35 0l252 1434h420l-185 -1045h676l-68 -389h-1095zM440 -707l-94 127q137 90 166 170q-66 0 -106.5 45.5t-40.5 106.5q0 70 55 121t125 51q82 0 130 -49t48 -135q0 -125 -80 -241t-203 -196z" glyph-name="Lcommaaccent" horiz-adv-x="1263" unicode="Ļ"/><glyph d="M63 -707l-94 127q137 90 166 170q-66 0 -106.5 45.5t-40.5 106.5q0 70 55 121t125 51q82 0 130 -49t48 -135q0 -125 -80 -241t-203 -196zM2 0l252 1434h414l-252 -1434h-414z" glyph-name="lcommaaccent" horiz-adv-x="608" unicode="ļ"/><glyph d="M35 0l252 1434h420l-185 -1045h676l-68 -389h-1095zM872 834l-94 127q135 90 166 169q-66 0 -106.5 45.5t-40.5 106.5q0 70 55 121t125 51q82 0 130 -49t48 -135q0 -125 -80 -240.5t-203 -195.5z" glyph-name="Lcaron" horiz-adv-x="1269" unicode="Ľ"/><glyph d="M2 0l252 1434h414l-252 -1434h-414zM788 834l-94 127q137 90 166 169q-66 0 -106.5 45.5t-40.5 106.5q0 70 55 121t125 51q82 0 130 -49t48 -135q0 -125 -80 -240.5t-203 -195.5z" glyph-name="lcaron" horiz-adv-x="925" unicode="ľ"/><glyph d="M35 0l252 1434h420l-185 -1045h676l-68 -389h-1095zM700 705q0 78 61.5 135t143.5 57q74 0 123 -49t49 -121q0 -78 -61.5 -134t-143.5 -56q-74 0 -123 48t-49 120z" glyph-name="Ldot" horiz-adv-x="1265" unicode="Ŀ"/><glyph d="M2 0l252 1434h414l-252 -1434h-414zM608 705q0 78 61.5 135t143.5 57q74 0 123 -49t49 -121q0 -78 -61.5 -134t-143.5 -56q-74 0 -123 48t-49 120z" glyph-name="ldot" horiz-adv-x="940" unicode="ŀ"/><glyph d="M18 322l70 389l121 75l115 648h419l-61 -353l229 146l-69 -389l-230 -144l-53 -305h676l-68 -389h-1095l69 399z" glyph-name="Lslash" unicode="Ł"/><glyph d="M16 229l70 392l119 73l131 740h414l-80 -449l116 72l-67 -391l-117 -74l-104 -592h-414l53 303z" glyph-name="lslash" horiz-adv-x="763" unicode="ł"/><glyph d="M455 0h-420l252 1434h424l391 -803l141 803h420l-252 -1434h-426l-391 793zM1063 1493l-240 125l344 381l224 -240z" glyph-name="Nacute" horiz-adv-x="1632" unicode="Ń"/><glyph d="M674 0l104 592q4 29 4 51q0 55 -27.5 80t-66.5 25q-57 0 -106.5 -43t-57.5 -91l-108 -614h-414l188 1067h414l-24 -139q113 164 319 164q147 0 229 -85t82 -249q0 -66 -14 -144l-109 -614h-413zM815 1126l-240 125l345 381l223 -239z" glyph-name="nacute" horiz-adv-x="1269" unicode="ń"/><glyph d="M455 0h-420l252 1434h424l391 -803l141 803h420l-252 -1434h-426l-391 793zM584 -707l-95 127q137 90 166 170q-66 0 -106.5 45.5t-40.5 106.5q0 70 55 121t125 51q82 0 130 -49t48 -135q0 -125 -79.5 -241t-202.5 -196z" glyph-name="Ncommaaccent" horiz-adv-x="1632" unicode="Ņ"/><glyph d="M674 0l104 592q4 29 4 51q0 55 -27.5 80t-66.5 25q-57 0 -106.5 -43t-57.5 -91l-108 -614h-414l188 1067h414l-24 -139q113 164 319 164q147 0 229 -85t82 -249q0 -66 -14 -144l-109 -614h-413zM410 -707l-95 127q135 90 166 170q-66 0 -106.5 45.5t-40.5 106.5 q0 70 55 121t125 51q82 0 130 -49t48 -135q0 -125 -79.5 -241t-202.5 -196z" glyph-name="ncommaaccent" horiz-adv-x="1269" unicode="ņ"/><glyph d="M455 0h-420l252 1434h424l391 -803l141 803h420l-252 -1434h-426l-391 793zM1024 1810l203 123l151 -202l-383 -238l-315 240l172 200z" glyph-name="Ncaron" horiz-adv-x="1632" unicode="Ň"/><glyph d="M674 0l104 592q4 29 4 51q0 55 -27.5 80t-66.5 25q-57 0 -106.5 -43t-57.5 -91l-108 -614h-414l188 1067h414l-24 -139q113 164 319 164q147 0 229 -85t82 -249q0 -66 -14 -144l-109 -614h-413zM788 1444l203 123l152 -203l-383 -238l-316 240l172 201z" glyph-name="ncaron" horiz-adv-x="1269" unicode="ň"/><glyph d="M1135 0l104 592q4 29 4 51q0 55 -27.5 80t-66.5 25q-57 0 -106.5 -43t-57.5 -91l-108 -614h-414l188 1067h414l-25 -139q113 164 320 164q147 0 229 -85t82 -249q0 -66 -14 -144l-109 -614h-413zM238 657l-119 160q193 125 227 232q-90 0 -146.5 59t-56.5 139 q0 94 75 162t175 68q102 0 168 -67t66 -177q0 -164 -111.5 -317t-277.5 -259z" glyph-name="napostrophe" horiz-adv-x="1730" unicode="ŉ"/><glyph d="M453 0h-418l252 1434h424l395 -795l139 795h418l-264 -1506q-31 -176 -145.5 -263t-284.5 -87q-129 0 -267 41l84 309q70 -16 111 -16q82 0 92 61l4 27l-399 801z" glyph-name="Eng" horiz-adv-x="1632" unicode="Ŋ"/><glyph d="M446 -381l109 303q31 -10 53 -10q49 0 60 57l110 623q4 29 4 51q0 55 -27.5 80t-66.5 25q-57 0 -106.5 -43t-57.5 -91l-108 -614h-414l188 1067h414l-24 -139q113 164 319 164q147 0 229 -85t82 -249q0 -66 -14 -144l-121 -686q-31 -176 -139.5 -263t-267.5 -87 q-113 0 -222 41z" glyph-name="eng" horiz-adv-x="1269" unicode="ŋ"/><glyph d="M96 639q0 338 231.5 578.5t575.5 240.5q322 0 510.5 -191.5t188.5 -471.5q0 -338 -231.5 -579t-575.5 -241q-322 0 -510.5 191.5t-188.5 472.5zM881 1059q-147 0 -246.5 -116t-99.5 -273q0 -127 75.5 -211t208.5 -84q145 0 244.5 115.5t99.5 273.5q0 127 -75.5 211 t-206.5 84zM1364 1835l-53 -295h-613l54 295h612z" glyph-name="Omacron" horiz-adv-x="1636" unicode="Ō"/><glyph d="M55 477q0 244 169 429.5t427 185.5q250 0 393.5 -144.5t143.5 -357.5q0 -244 -169 -429.5t-427 -185.5q-250 0 -393.5 144.5t-143.5 357.5zM641 733q-86 0 -138 -71.5t-52 -169.5q0 -72 38.5 -115t112.5 -43q86 0 138.5 71.5t52.5 169.5q0 72 -39 115t-113 43zM1102 1468 l-53 -294h-613l53 294h613z" glyph-name="omacron" horiz-adv-x="1245" unicode="ō"/><glyph d="M96 639q0 338 231.5 578.5t575.5 240.5q322 0 510.5 -191.5t188.5 -471.5q0 -338 -231.5 -579t-575.5 -241q-322 0 -510.5 191.5t-188.5 472.5zM881 1059q-147 0 -246.5 -116t-99.5 -273q0 -127 75.5 -211t208.5 -84q145 0 244.5 115.5t99.5 273.5q0 127 -75.5 211 t-206.5 84zM1147 1886l242 -63q-111 -309 -361 -310q-139 0 -219 89.5t-86 220.5l250 63q0 -109 71 -108q68 -1 103 108z" glyph-name="Obreve" horiz-adv-x="1636" unicode="Ŏ"/><glyph d="M55 477q0 244 169 429.5t427 185.5q250 0 393.5 -144.5t143.5 -357.5q0 -244 -169 -429.5t-427 -185.5q-250 0 -393.5 144.5t-143.5 357.5zM641 733q-86 0 -138 -71.5t-52 -169.5q0 -72 38.5 -115t112.5 -43q86 0 138.5 71.5t52.5 169.5q0 72 -39 115t-113 43zM885 1520 l241 -64q-111 -309 -360 -309q-139 0 -219 89t-86 220l250 64q0 -109 71 -109q68 0 103 109z" glyph-name="obreve" horiz-adv-x="1245" unicode="ŏ"/><glyph d="M96 639q0 338 231.5 578.5t575.5 240.5q322 0 510.5 -191.5t188.5 -471.5q0 -338 -231.5 -579t-575.5 -241q-322 0 -510.5 191.5t-188.5 472.5zM881 1059q-147 0 -246.5 -116t-99.5 -273q0 -127 75.5 -211t208.5 -84q145 0 244.5 115.5t99.5 273.5q0 127 -75.5 211 t-206.5 84zM1311 1493l-236 100l344 406l223 -211zM840 1493l-234 100l340 406l225 -211z" glyph-name="Ohungarumlaut" horiz-adv-x="1636" unicode="Ő"/><glyph d="M55 477q0 244 169 429.5t427 185.5q250 0 393.5 -144.5t143.5 -357.5q0 -244 -169 -429.5t-427 -185.5q-250 0 -393.5 144.5t-143.5 357.5zM641 733q-86 0 -138 -71.5t-52 -169.5q0 -72 38.5 -115t112.5 -43q86 0 138.5 71.5t52.5 169.5q0 72 -39 115t-113 43zM1047 1126 l-236 101l344 405l223 -211zM575 1126l-233 101l340 405l225 -211z" glyph-name="ohungarumlaut" horiz-adv-x="1245" unicode="ő"/><glyph d="M940 1434h1167l-63 -371h-649l-31 -176h504l-62 -336h-501l-31 -180h647l-66 -371h-960q-397 0 -597 177t-200 460q0 156 51.5 296t149.5 253.5t264 180.5t377 67zM977 1069h-43q-195 0 -299.5 -111.5t-104.5 -291.5q0 -135 83 -214t241 -81z" glyph-name="OE" horiz-adv-x="2041" unicode="Œ"/><glyph d="M55 477q0 244 169 429.5t427 185.5q227 0 375 -127q168 127 393 127q221 0 346 -99.5t125 -251.5q0 -160 -141 -261t-414 -101h-131q47 -98 203 -98q121 0 244 75l135 -252q-186 -129 -432 -129q-252 0 -400 125q-158 -125 -362 -125q-250 0 -393.5 144.5t-143.5 357.5z M641 733q-86 0 -138 -71.5t-52 -169.5q0 -72 38.5 -115t112.5 -43q86 0 138.5 71.5t52.5 169.5q0 72 -39 115t-113 43zM1401 797q-63 0 -117.5 -47.5t-79.5 -131.5h41q250 0 250 107q0 72 -94 72z" glyph-name="oe" horiz-adv-x="1921" unicode="œ"/><glyph d="M287 1434h637q270 0 405 -132.5t135 -334.5q0 -172 -83 -317.5t-228 -217.5l219 -432h-444l-172 373h-236l-65 -373h-420zM813 731q123 0 170 61.5t47 141.5q0 66 -41 102.5t-117 36.5h-229l-59 -342h229zM993 1493l-239 125l344 381l223 -240z" glyph-name="Racute" horiz-adv-x="1501" unicode="Ŕ"/><glyph d="M604 1067l-63 -362q127 387 438 387l-88 -498q-160 -2 -278.5 -81t-145.5 -224l-51 -289h-414l188 1067h414zM666 1126l-240 125l344 381l223 -239z" glyph-name="racute" horiz-adv-x="935" unicode="ŕ"/><glyph d="M35 0l252 1434h637q270 0 405 -132.5t135 -334.5q0 -172 -83 -317.5t-228 -217.5l219 -432h-444l-172 373h-236l-65 -373h-420zM584 731h229q123 0 170 61.5t47 141.5q0 66 -41 102.5t-117 36.5h-229zM518 -707l-94 127q137 90 166 170q-66 0 -107 45.5t-41 106.5 q0 70 55.5 121t125.5 51q82 0 130 -49t48 -135q0 -125 -80 -241t-203 -196z" glyph-name="Rcommaaccent" horiz-adv-x="1501" unicode="Ŗ"/><glyph d="M604 1067l-63 -362q127 387 438 387l-88 -498q-160 -2 -278.5 -81t-145.5 -224l-51 -289h-414l188 1067h414zM61 -707l-94 127q135 90 166 170q-66 0 -106.5 45.5t-40.5 106.5q0 70 55 121t125 51q82 0 130 -49t48 -135q0 -125 -80 -241t-203 -196z" glyph-name="rcommaaccent" horiz-adv-x="935" unicode="ŗ"/><glyph d="M287 1434h637q270 0 405 -132.5t135 -334.5q0 -172 -83 -317.5t-228 -217.5l219 -432h-444l-172 373h-236l-65 -373h-420zM813 731q123 0 170 61.5t47 141.5q0 66 -41 102.5t-117 36.5h-229l-59 -342h229zM971 1810l203 123l151 -202l-383 -238l-315 240l172 200z" glyph-name="Rcaron" horiz-adv-x="1501" unicode="Ř"/><glyph d="M604 1067l-63 -362q127 387 438 387l-88 -498q-160 -2 -278.5 -81t-145.5 -224l-51 -289h-414l188 1067h414zM639 1444l203 123l151 -203l-383 -238l-315 240l172 201z" glyph-name="rcaron" horiz-adv-x="935" unicode="ř"/><glyph d="M45 426l420 86v-10q0 -201 252 -201q145 0 145 80q0 10 -3 20.5t-12 19.5t-17.5 17t-23.5 17.5t-27.5 15.5t-35 16.5t-37 16.5t-43 18.5t-45.5 18.5q-227 96 -336.5 200.5t-109.5 259.5q0 217 163 337t413 120q272 0 443 -123t171 -366v-33h-414v20q0 84 -52 130.5 t-151 46.5q-63 0 -100 -25t-37 -66t46 -71.5t155 -77.5q100 -43 155.5 -70.5t128 -72.5t109.5 -87t64.5 -103.5t27.5 -133.5q0 -223 -164.5 -337t-418.5 -114q-121 0 -235 26t-213 77t-158.5 141t-59.5 207zM909 1493l-239 125l344 381l223 -240z" glyph-name="Sacute" horiz-adv-x="1388" unicode="Ś"/><glyph d="M14 291l357 88q8 -61 57 -98t115 -37q80 0 80 45q0 14 -11.5 27.5t-36 26.5t-42 21.5t-53.5 21.5t-48 17q-160 66 -241.5 147t-81.5 195q0 168 126.5 257.5t331.5 89.5q211 0 355.5 -91.5t144.5 -273.5v-16h-371v14q0 39 -29.5 68.5t-84.5 29.5q-78 0 -78 -49 q0 -25 35.5 -46t117.5 -56q20 -8 31 -13q164 -70 247 -142.5t83 -192.5q0 -162 -122 -255.5t-345 -93.5q-209 0 -366 81t-171 235zM709 1126l-240 125l344 381l223 -239z" glyph-name="sacute" horiz-adv-x="1116" unicode="ś"/><glyph d="M45 426l420 86v-10q0 -201 252 -201q145 0 145 80q0 10 -3 20.5t-12 19.5t-17.5 17t-23.5 17.5t-27.5 15.5t-35 16.5t-37 16.5t-43 18.5t-45.5 18.5q-227 96 -336.5 200.5t-109.5 259.5q0 217 163 337t413 120q272 0 443 -123t171 -366v-33h-414v20q0 84 -52 130.5 t-151 46.5q-63 0 -100 -25t-37 -66t46 -71.5t155 -77.5q100 -43 155.5 -70.5t128 -72.5t109.5 -87t64.5 -103.5t27.5 -133.5q0 -223 -164.5 -337t-418.5 -114q-121 0 -235 26t-213 77t-158.5 141t-59.5 207zM874 1620l-202 -123l-152 201l383 237l316 -239l-172 -199z" glyph-name="Scircumflex" horiz-adv-x="1388" unicode="Ŝ"/><glyph d="M14 291l357 88q8 -61 57 -98t115 -37q80 0 80 45q0 14 -11.5 27.5t-36 26.5t-42 21.5t-53.5 21.5t-48 17q-160 66 -241.5 147t-81.5 195q0 168 126.5 257.5t331.5 89.5q211 0 355.5 -91.5t144.5 -273.5v-16h-371v14q0 39 -29.5 68.5t-84.5 29.5q-78 0 -78 -49 q0 -25 35.5 -46t117.5 -56q20 -8 31 -13q164 -70 247 -142.5t83 -192.5q0 -162 -122 -255.5t-345 -93.5q-209 0 -366 81t-171 235zM674 1253l-203 -123l-152 201l383 238l316 -240l-172 -199z" glyph-name="scircumflex" horiz-adv-x="1116" unicode="ŝ"/><glyph d="M45 426l420 86v-10q0 -201 252 -201q145 0 145 80q0 10 -3 20.5t-12 19.5t-17.5 17t-23.5 17.5t-27.5 15.5t-35 16.5t-37 16.5t-43 18.5t-45.5 18.5q-227 96 -336.5 200.5t-109.5 259.5q0 217 163 337t413 120q272 0 443 -123t171 -366v-33h-414v20q0 84 -52 130.5 t-151 46.5q-63 0 -100 -25t-37 -66t46 -71.5t155 -77.5q100 -43 155.5 -70.5t128 -72.5t109.5 -87t64.5 -103.5t27.5 -133.5q0 -223 -164.5 -337t-418.5 -114h-11l-32 -65q137 -53 137 -191q0 -113 -77 -183.5t-204 -70.5q-135 0 -270 82l123 189q96 -57 147 -58q61 0 62 58 q0 27 -25.5 43t-64.5 16l-39 66l84 127q-213 33 -354.5 142.5t-141.5 295.5z" glyph-name="Scedilla" horiz-adv-x="1388" unicode="Ş"/><glyph d="M14 291l357 88q8 -61 57 -98t115 -37q80 0 80 45q0 14 -11.5 27.5t-36 26.5t-42 21.5t-53.5 21.5t-48 17q-160 66 -241.5 147t-81.5 195q0 168 126.5 257.5t331.5 89.5q211 0 355.5 -91.5t144.5 -273.5v-16h-371v14q0 39 -29.5 68.5t-84.5 29.5q-78 0 -78 -49 q0 -25 35.5 -46t117.5 -56q20 -8 31 -13q164 -70 247 -142.5t83 -192.5q0 -162 -119 -254.5t-338 -94.5l-33 -65q137 -53 138 -191q0 -113 -77 -183.5t-204 -70.5q-135 0 -270 82l123 189q96 -57 147 -58q61 0 61 58q0 27 -25.5 43t-64.5 16l-39 66l82 127 q-160 25 -266.5 101.5t-118.5 201.5z" glyph-name="scedilla" horiz-adv-x="1116" unicode="ş"/><glyph d="M45 426l420 86v-10q0 -201 252 -201q145 0 145 80q0 10 -3 20.5t-12 19.5t-17.5 17t-23.5 17.5t-27.5 15.5t-35 16.5t-37 16.5t-43 18.5t-45.5 18.5q-227 96 -336.5 200.5t-109.5 259.5q0 217 163 337t413 120q272 0 443 -123t171 -366v-33h-414v20q0 84 -52 130.5 t-151 46.5q-63 0 -100 -25t-37 -66t46 -71.5t155 -77.5q100 -43 155.5 -70.5t128 -72.5t109.5 -87t64.5 -103.5t27.5 -133.5q0 -223 -164.5 -337t-418.5 -114q-121 0 -235 26t-213 77t-158.5 141t-59.5 207zM885 1810l202 123l152 -202l-383 -238l-315 240l172 200z" glyph-name="Scaron" horiz-adv-x="1388" unicode="Š"/><glyph d="M14 291l357 88q8 -61 57 -98t115 -37q80 0 80 45q0 14 -11.5 27.5t-36 26.5t-42 21.5t-53.5 21.5t-48 17q-160 66 -241.5 147t-81.5 195q0 168 126.5 257.5t331.5 89.5q211 0 355.5 -91.5t144.5 -273.5v-16h-371v14q0 39 -29.5 68.5t-84.5 29.5q-78 0 -78 -49 q0 -25 35.5 -46t117.5 -56q20 -8 31 -13q164 -70 247 -142.5t83 -192.5q0 -162 -122 -255.5t-345 -93.5q-209 0 -366 81t-171 235zM702 1444l203 123l152 -203l-383 -238l-316 240l172 201z" glyph-name="scaron" horiz-adv-x="1116" unicode="š"/><glyph d="M135 1047l68 387h1253l-67 -387h-418l-185 -1047h-120l-25 -90q137 -53 137 -191q0 -113 -76.5 -183.5t-203.5 -70.5q-135 0 -271 82l123 189q96 -57 148 -58q61 0 61 58q0 27 -25.5 43t-64.5 16l-39 66l74 139h-137l184 1047h-416z" glyph-name="Tcommaaccent" horiz-adv-x="1341" unicode="Ţ"/><glyph d="M61 723l62 344h170l37 211l438 139l-61 -350h284l-61 -344h-285l-47 -274q-4 -25 -4 -35q0 -74 86 -74q49 0 129 27l78 -324q-164 -68 -309 -68q-35 0 -58 2l-33 -67q137 -53 138 -191q0 -113 -77 -183.5t-204 -70.5q-135 0 -270 82l123 189q96 -57 147 -58q61 0 62 58 q0 27 -26 43t-65 16l-39 66l99 149q-195 80 -195 340q0 78 15 158l36 215h-170z" glyph-name="tcommaaccent" horiz-adv-x="974" unicode="ţ"/><glyph d="M135 1047l68 387h1253l-67 -387h-418l-185 -1047h-419l184 1047h-416zM891 1810l203 123l151 -202l-383 -238l-315 240l172 200z" glyph-name="Tcaron" horiz-adv-x="1341" unicode="Ť"/><glyph d="M59 723l62 344h170l37 211l438 139l-61 -350h284l-61 -344h-285l-47 -274q-4 -25 -4 -35q0 -74 86 -74q49 0 129 27l78 -324q-164 -68 -310 -68q-397 0 -397 375q0 78 15 158l36 215h-170zM924 1147l-95 127q137 90 166 170q-66 0 -106.5 45t-40.5 106q0 70 55 121 t125 51q82 0 130 -49t48 -135q0 -125 -79.5 -240.5t-202.5 -195.5z" glyph-name="tcaron" horiz-adv-x="972" unicode="ť"/><glyph d="M139 1047l68 387h1253l-67 -387h-418l-39 -213h211l-60 -338h-210l-86 -496h-420l86 496h-193l60 338h192l39 213h-416z" glyph-name="Tbar" horiz-adv-x="1353" unicode="Ŧ"/><glyph d="M66 723l61 344h170l37 211l438 139l-61 -350h284l-61 -344h-285l-14 -78h205l-33 -182h-203l-2 -14q-4 -25 -4 -35q0 -74 86 -74q49 0 129 27l78 -324q-164 -68 -309 -68q-397 0 -398 375q0 51 6 113h-133l31 182h133l15 78h-170z" glyph-name="tbar" horiz-adv-x="978" unicode="ŧ"/><glyph d="M1198 1434h420l-145 -828q-51 -291 -243 -461t-466 -170q-313 0 -477 168t-164 430q0 82 14 156l123 705h420l-123 -705q-10 -51 -10 -115q0 -244 239 -243q225 0 281 317zM846 1542h-258q16 178 96 284.5t203 106.5q109 0 172 -98q6 -8 13 -20.5t11 -19.5t10.5 -15 t10.5 -11.5t8 -3.5q27 0 35 127h258q-16 -178 -96 -285.5t-203 -107.5q-104 0 -172 100q-6 8 -13.5 19.5t-11.5 19t-10 14.5t-10 11t-8 4q-27 0 -35 -125z" glyph-name="Utilde" horiz-adv-x="1570" unicode="Ũ"/><glyph d="M594 1067l-105 -592q-4 -29 -4 -51q0 -55 28 -80t67 -25q57 0 106 43.5t57 90.5l109 614h414l-189 -1067h-413l24 139q-113 -164 -319 -164q-147 0 -229.5 85t-82.5 249q0 66 15 144l108 614h414zM623 1176h-258q16 178 96 284.5t203 106.5q109 0 172 -99q6 -8 13 -20 t11 -19.5t10.5 -15.5t10.5 -11t8 -3q27 0 35 127h258q-16 -178 -96 -285.5t-203 -107.5q-104 0 -172 100q-6 8 -13.5 19.5t-11.5 18.5t-10 14t-10 11t-9 4q-26 1 -34 -124z" glyph-name="utilde" horiz-adv-x="1267" unicode="ũ"/><glyph d="M1198 1434h420l-145 -828q-51 -291 -243 -461t-466 -170q-313 0 -477 168t-164 430q0 82 14 156l123 705h420l-123 -705q-10 -51 -10 -115q0 -244 239 -243q225 0 281 317zM1327 1835l-53 -295h-612l53 295h612z" glyph-name="Umacron" horiz-adv-x="1570" unicode="Ū"/><glyph d="M594 1067l-105 -592q-4 -29 -4 -51q0 -55 28 -80t67 -25q57 0 106 43.5t57 90.5l109 614h414l-189 -1067h-413l24 139q-113 -164 -319 -164q-147 0 -229.5 85t-82.5 249q0 66 15 144l108 614h414zM1106 1468l-53 -294h-613l54 294h612z" glyph-name="umacron" horiz-adv-x="1267" unicode="ū"/><glyph d="M1198 1434h420l-145 -828q-51 -291 -243 -461t-466 -170q-313 0 -477 168t-164 430q0 82 14 156l123 705h420l-123 -705q-10 -51 -10 -115q0 -244 239 -243q225 0 281 317zM1110 1886l242 -63q-111 -309 -361 -310q-139 0 -219 89.5t-86 220.5l250 63q0 -109 72 -108 q67 -1 102 108z" glyph-name="Ubreve" horiz-adv-x="1570" unicode="Ŭ"/><glyph d="M594 1067l-105 -592q-4 -29 -4 -51q0 -55 28 -80t67 -25q57 0 106 43.5t57 90.5l109 614h414l-189 -1067h-413l24 139q-113 -164 -319 -164q-147 0 -229.5 85t-82.5 249q0 66 15 144l108 614h414zM891 1520l242 -64q-111 -309 -361 -309q-139 0 -219 89t-86 220l250 64 q0 -109 71 -109q68 0 103 109z" glyph-name="ubreve" horiz-adv-x="1267" unicode="ŭ"/><glyph d="M1198 1434h420l-145 -828q-51 -291 -243 -461t-466 -170q-313 0 -477 168t-164 430q0 82 14 156l123 705h420l-123 -705q-10 -51 -10 -115q0 -244 239 -243q225 0 281 317zM735 1735q0 119 85 203.5t208 84.5q109 0 178.5 -71.5t69.5 -171.5q0 -119 -85 -204t-208 -85 q-109 0 -178.5 72t-69.5 172zM1009.5 1837q-32.5 0 -57 -25.5t-24.5 -60.5q0 -31 20.5 -52.5t53 -21.5t57 26t24.5 60q0 31 -20.5 52.5t-53 21.5z" glyph-name="Uring" horiz-adv-x="1570" unicode="Ů"/><glyph d="M594 1067l-105 -592q-4 -29 -4 -51q0 -55 28 -80t67 -25q57 0 106 43.5t57 90.5l109 614h414l-189 -1067h-413l24 139q-113 -164 -319 -164q-147 0 -229.5 85t-82.5 249q0 66 15 144l108 614h414zM514 1368q0 119 85 204t208 85q109 0 178.5 -72t69.5 -172 q0 -119 -85 -204t-208 -85q-109 0 -178.5 72t-69.5 172zM788.5 1470q-32.5 0 -57 -25.5t-24.5 -60.5q0 -31 20.5 -52t53 -21t57 25.5t24.5 60.5q0 31 -20.5 52t-53 21z" glyph-name="uring" horiz-adv-x="1267" unicode="ů"/><glyph d="M1198 1434h420l-145 -828q-51 -291 -243 -461t-466 -170q-313 0 -477 168t-164 430q0 82 14 156l123 705h420l-123 -705q-10 -51 -10 -115q0 -244 239 -243q225 0 281 317zM1272 1493l-236 100l344 406l224 -211zM801 1493l-234 100l340 406l226 -211z" glyph-name="Uhungarumlaut" horiz-adv-x="1570" unicode="Ű"/><glyph d="M594 1067l-105 -592q-4 -29 -4 -51q0 -55 28 -80t67 -25q57 0 106 43.5t57 90.5l109 614h414l-189 -1067h-413l24 139q-113 -164 -319 -164q-147 0 -229.5 85t-82.5 249q0 66 15 144l108 614h414zM1051 1126l-236 101l344 405l223 -211zM580 1126l-234 101l340 405 l225 -211z" glyph-name="uhungarumlaut" horiz-adv-x="1267" unicode="ű"/><glyph d="M1198 1434h420l-145 -828q-37 -211 -152 -362.5t-287 -218.5q-252 -158 -252 -263q0 -51 60 -51q23 0 47 6l8 -247q-49 -10 -92 -11q-123 0 -194.5 58.5t-71.5 150.5q0 170 219 307q-309 2 -472 169t-163 429q0 82 14 156l123 705h420l-123 -705q-10 -51 -10 -115 q0 -244 239 -243q225 0 281 317z" glyph-name="Uogonek" horiz-adv-x="1570" unicode="Ų"/><glyph d="M594 1067l-105 -592q-4 -29 -4 -51q0 -55 28 -80t67 -25q57 0 106 43.5t57 90.5l109 614h414l-189 -1067q-215 -145 -215 -238q0 -51 60 -51q23 0 47 6l8 -247q-49 -10 -92 -11q-123 0 -195 58.5t-72 150.5q0 186 261 332h-215l24 139q-113 -164 -319 -164 q-147 0 -229.5 85t-82.5 249q0 66 15 144l108 614h414z" glyph-name="uogonek" horiz-adv-x="1267" unicode="ų"/><glyph d="M782 0h-469l-118 1434h440l49 -801l367 801h428l67 -787l324 787h467l-627 -1434h-469l-72 840zM1325 1620l-203 -123l-151 201l383 237l315 -239l-172 -199z" glyph-name="Wcircumflex" horiz-adv-x="2211" unicode="Ŵ"/><glyph d="M664 0h-455l-82 1067h428l-2 -567l233 567h375l35 -567l195 567h458l-456 -1067h-457l-37 578zM1044 1253l-202 -123l-152 201l383 238l316 -240l-172 -199z" glyph-name="wcircumflex" horiz-adv-x="1787" unicode="ŵ"/><glyph d="M612 1434l176 -514l357 514h536l-729 -932l-88 -502h-420l88 498l-397 936h477zM963 1620l-203 -123l-152 201l383 237l316 -239l-172 -199z" glyph-name="Ycircumflex" horiz-adv-x="1495" unicode="Ŷ"/><glyph d="M29 -459l-103 361q227 63 344 137l-178 1028h420l55 -596l269 596h452l-485 -909q-57 -106 -117.5 -192.5t-108 -144t-114 -104.5t-104 -70.5t-111.5 -47t-105.5 -32t-113.5 -26.5zM745 1253l-202 -123l-152 201l383 238l316 -240l-172 -199z" glyph-name="ycircumflex" horiz-adv-x="1193" unicode="ŷ"/><glyph d="M612 1434l176 -514l357 514h536l-729 -932l-88 -502h-420l88 498l-397 936h477zM559 1673q0 78 61.5 135.5t143.5 57.5q74 0 123 -49.5t49 -120.5q0 -78 -60.5 -134.5t-144.5 -56.5q-74 0 -123 48t-49 120zM979 1673q0 78 61.5 135.5t143.5 57.5q74 0 123 -49.5 t49 -120.5q0 -78 -61.5 -134.5t-143.5 -56.5q-74 0 -123 48t-49 120z" glyph-name="Ydieresis" horiz-adv-x="1495" unicode="Ÿ"/><glyph d="M195 1047l67 387h1239l-61 -351l-772 -696h649l-68 -387h-1257l61 350l770 697h-628zM971 1493l-240 125l344 381l223 -240z" glyph-name="Zacute" horiz-adv-x="1437" unicode="Ź"/><glyph d="M117 717l61 350h930l-51 -281l-469 -438h395l-63 -348h-930l51 281l467 436h-391zM725 1126l-240 125l344 381l224 -239z" glyph-name="zacute" horiz-adv-x="1097" unicode="ź"/><glyph d="M195 1047l67 387h1239l-61 -351l-772 -696h649l-68 -387h-1257l61 350l770 697h-628zM745 1673q0 78 61.5 135.5t143.5 57.5q74 0 123 -49.5t49 -120.5q0 -78 -61.5 -134.5t-142.5 -56.5q-74 0 -123.5 48t-49.5 120z" glyph-name="Zdotaccent" horiz-adv-x="1437" unicode="Ż"/><glyph d="M117 717l61 350h930l-51 -281l-469 -438h395l-63 -348h-930l51 281l467 436h-391zM500 1307q0 78 61.5 135t143.5 57q74 0 123 -49t49 -121q0 -78 -61.5 -134t-143.5 -56q-74 0 -123 48t-49 120z" glyph-name="zdotaccent" horiz-adv-x="1097" unicode="ż"/><glyph d="M195 1047l67 387h1239l-61 -351l-772 -696h649l-68 -387h-1257l61 350l770 697h-628zM928 1810l202 123l152 -202l-383 -238l-315 240l172 200z" glyph-name="Zcaron" horiz-adv-x="1437" unicode="Ž"/><glyph d="M117 717l61 350h930l-51 -281l-469 -438h395l-63 -348h-930l51 281l467 436h-391zM686 1444l203 123l151 -203l-383 -238l-315 240l172 201z" glyph-name="zcaron" horiz-adv-x="1097" unicode="ž"/><glyph d="M90 563l90 344h174l33 129q57 221 184 321.5t291 100.5q152 0 320 -72l-148 -327q-70 29 -141 28q-39 0 -65.5 -19t-43.5 -79l-22 -82h254l-90 -344h-252l-148 -567q-59 -223 -184 -324.5t-289 -101.5q-143 0 -293 63l142 324q55 -20 121 -20q80 0 106 98l135 528h-174z " glyph-name="florin" horiz-adv-x="1058" unicode="ƒ"/><glyph d="M1636 1493l-239 125l344 381l223 -240zM946 1434h1184l-66 -371h-634l-31 -176h485l-59 -336h-486l-30 -180h633l-64 -371h-1036l35 201h-351l-135 -201h-518zM754 539h182l63 366z" glyph-name="AEacute" horiz-adv-x="2064" unicode="Ǽ"/><glyph d="M1907 356l135 -252q-186 -129 -432 -129q-190 0 -315.5 74t-182.5 201l-43 -250h-330l23 137q-131 -162 -322 -162q-178 0 -281.5 130.5t-103.5 332.5q0 154 54.5 299.5t173 250t276.5 104.5q240 0 338 -177l29 152h329l-30 -170q172 195 452 195q219 0 344 -99.5 t125 -249.5q0 -162 -141 -263t-414 -101h-131q47 -98 203 -98q121 -1 244 75zM610 334q88 0 142.5 69.5t54.5 167.5q0 72 -38 117t-112 45q-88 0 -143 -69.5t-55 -165.5q0 -72 38.5 -118t112.5 -46zM1657 797q-66 0 -119 -46t-78 -133h41q250 0 250 107q0 72 -94 72z M1255 1126l-239 125l344 381l223 -239z" glyph-name="aeacute" horiz-adv-x="2177" unicode="ǽ"/><glyph d="M1069 1493l-240 125l345 381l223 -240zM98 637q0 338 231.5 579.5t575.5 241.5q227 0 402 -104l75 80h299l-213 -226q135 -172 136 -417q0 -217 -101.5 -402.5t-289 -299.5t-416.5 -114q-225 0 -398 103l-73 -78h-299l209 221q-138 174 -138 416zM881 1059 q-143 0 -240.5 -117t-97.5 -274q0 -51 16 -105l445 469q-60 27 -123 27zM821 375q147 0 242.5 117.5t95.5 273.5q0 57 -14 100l-443 -469q56 -22 119 -22z" glyph-name="Oslashacute" horiz-adv-x="1636" unicode="Ǿ"/><glyph d="M57 473q0 252 170 435.5t426 183.5q182 0 318 -86l59 61h221l-161 -168q102 -131 102 -309q0 -250 -171 -432.5t-425 -182.5q-182 0 -317 82l-56 -57h-219l156 164q-103 131 -103 309zM645 762q-98 0 -159.5 -81t-61.5 -192q0 -16 4 -49l295 308q-39 14 -78 14zM602 305 q102 0 162.5 83t60.5 187q0 25 -4 46l-293 -304q31 -12 74 -12zM805 1126l-240 125l344 381l224 -239z" glyph-name="oslashacute" horiz-adv-x="1247" unicode="ǿ"/><glyph d="M45 426l420 86v-10q0 -201 252 -201q145 0 145 80q0 10 -3 20.5t-12 19.5t-17.5 17t-23.5 17.5t-27.5 15.5t-35 16.5t-37 16.5t-43 18.5t-45.5 18.5q-227 96 -336.5 200.5t-109.5 259.5q0 217 163 337t413 120q272 0 443 -123t171 -366v-33h-414v20q0 84 -52 130.5 t-151 46.5q-63 0 -100 -25t-37 -66t46 -71.5t155 -77.5q100 -43 155.5 -70.5t128 -72.5t109.5 -87t64.5 -103.5t27.5 -133.5q0 -223 -164.5 -337t-418.5 -114q-121 0 -235 26t-213 77t-158.5 141t-59.5 207zM485 -707l-94 127q137 90 166 170q-66 0 -106.5 45.5t-40.5 106.5 q0 70 55 121t125 51q82 0 130 -49t48 -135q0 -125 -80 -241t-203 -196z" glyph-name="Scommaaccent" horiz-adv-x="1388" unicode="Ș"/><glyph d="M14 291l357 88q8 -61 57 -98t115 -37q80 0 80 45q0 14 -11.5 27.5t-36 26.5t-42 21.5t-53.5 21.5t-48 17q-160 66 -241.5 147t-81.5 195q0 168 126.5 257.5t331.5 89.5q211 0 355.5 -91.5t144.5 -273.5v-16h-371v14q0 39 -29.5 68.5t-84.5 29.5q-78 0 -78 -49 q0 -25 35.5 -46t117.5 -56q20 -8 31 -13q164 -70 247 -142.5t83 -192.5q0 -162 -122 -255.5t-345 -93.5q-209 0 -366 81t-171 235zM342 -707l-94 127q137 90 166 170q-66 0 -107 45.5t-41 106.5q0 70 55.5 121t124.5 51q82 0 130.5 -49t48.5 -135q0 -125 -80 -241t-203 -196 z" glyph-name="scommaaccent" horiz-adv-x="1116" unicode="ș"/><glyph d="M135 1047l68 387h1253l-67 -387h-418l-185 -1047h-419l184 1047h-416zM436 -707l-94 127q137 90 166 170q-66 0 -107 45.5t-41 106.5q0 70 55.5 121t125.5 51q82 0 130 -49t48 -135q0 -125 -80 -241t-203 -196z" glyph-name="uni021A" horiz-adv-x="1341" unicode="Ț"/><glyph d="M59 723l62 344h170l37 211l438 139l-61 -350h284l-61 -344h-285l-47 -274q-4 -25 -4 -35q0 -74 86 -74q49 0 129 27l78 -324q-164 -68 -310 -68q-397 0 -397 375q0 78 15 158l36 215h-170zM348 -707l-94 127q135 90 166 170q-66 0 -107 45.5t-41 106.5q0 70 55.5 121 t125.5 51q82 0 130 -49t48 -135q0 -125 -80 -241t-203 -196z" glyph-name="uni021B" horiz-adv-x="972" unicode="ț"/><glyph d="M715 1620l-203 -123l-152 201l383 237l316 -239l-172 -199z" glyph-name="circumflex" horiz-adv-x="825" unicode="ˆ"/><glyph d="M705 1810l202 123l152 -202l-383 -238l-316 240l172 200z" glyph-name="caron" horiz-adv-x="825" unicode="ˇ"/><glyph d="M809 1886l242 -63q-111 -309 -361 -310q-139 0 -219 89.5t-86 220.5l250 63q0 -109 72 -108q67 -1 102 108z" glyph-name="breve" horiz-adv-x="829" unicode="˘"/><glyph d="M299 1673q0 78 61.5 135.5t143.5 57.5q74 0 123 -49.5t49 -120.5q0 -78 -61.5 -134.5t-143.5 -56.5q-74 0 -123 48t-49 120z" glyph-name="dotaccent" horiz-adv-x="399" unicode="˙"/><glyph d="M301 1735q0 119 85 203.5t208 84.5q109 0 178.5 -71.5t69.5 -171.5q0 -119 -85 -204t-208 -85q-109 0 -178.5 72t-69.5 172zM575.5 1837q-32.5 0 -57 -25.5t-24.5 -60.5q0 -31 20.5 -52.5t53 -21.5t57 26t24.5 60q0 31 -20.5 52.5t-53 21.5z" glyph-name="ring" horiz-adv-x="546" unicode="˚"/><glyph d="M295 45l106 -45q-215 -145 -215 -238q0 -51 60 -51q23 0 47 6l8 -247q-49 -10 -92 -11q-123 0 -194.5 58.5t-71.5 150.5q0 121 102.5 217.5t249.5 159.5z" glyph-name="ogonek" horiz-adv-x="454" unicode="˛"/><glyph d="M541 1542h-258q16 178 96 284.5t203 106.5q109 0 172 -98q6 -8 13 -20.5t11 -19.5t10.5 -15t10.5 -11.5t8 -3.5q27 0 35 127h258q-16 -178 -96 -285.5t-203 -107.5q-104 0 -172 100q-6 8 -13.5 19.5t-11.5 19t-10 14.5t-10 11t-9 4q-26 0 -34 -125z" glyph-name="tilde" horiz-adv-x="794" unicode="˜"/><glyph d="M926 1493l-236 100l344 406l223 -211zM455 1493l-234 100l340 406l225 -211z" glyph-name="hungarumlaut" horiz-adv-x="921" unicode="˝"/><glyph d="M1468 367l-65 -367h-592l63 367q119 37 195 150.5t76 246.5q0 127 -70.5 209t-195.5 82q-143 0 -236.5 -121t-93.5 -277q0 -94 40 -171.5t107 -118.5l-63 -367h-594l65 367h148q-129 168 -129 378q0 297 221 505t544.5 208t516 -173t192.5 -435q0 -281 -196 -483h67z" glyph-name="Omega" horiz-adv-x="1632" unicode="Ω"/><glyph d="M1448 1067l-66 -367h-157l-123 -700h-395l122 700h-182l-125 -700h-393l123 700h-160l66 367h1290z" glyph-name="pi" horiz-adv-x="1415" unicode="π"/><glyph d="M782 0h-469l-118 1434h440l49 -801l367 801h428l67 -787l324 787h467l-627 -1434h-469l-72 840zM1497 1575l-268 -82l-225 313l294 193z" glyph-name="Wgrave" horiz-adv-x="2211" unicode="Ẁ"/><glyph d="M664 0h-455l-82 1067h428l-2 -567l233 567h375l35 -567l195 567h458l-456 -1067h-457l-37 578zM1219 1208l-269 -82l-225 314l295 192z" glyph-name="wgrave" horiz-adv-x="1787" unicode="ẁ"/><glyph d="M782 0h-469l-118 1434h440l49 -801l367 801h428l67 -787l324 787h467l-627 -1434h-469l-72 840zM1364 1493l-240 125l344 381l224 -240z" glyph-name="Wacute" horiz-adv-x="2211" unicode="Ẃ"/><glyph d="M664 0h-455l-82 1067h428l-2 -567l233 567h375l35 -567l195 567h458l-456 -1067h-457l-37 578zM1081 1126l-239 125l344 381l223 -239z" glyph-name="wacute" horiz-adv-x="1787" unicode="ẃ"/><glyph d="M782 0h-469l-118 1434h440l49 -801l367 801h428l67 -787l324 787h467l-627 -1434h-469l-72 840zM924 1673q0 78 61.5 135.5t142.5 57.5q74 0 123 -49.5t49 -120.5q0 -78 -60 -134.5t-144 -56.5q-74 0 -123 48t-49 120zM1343 1673q0 78 61.5 135.5t143.5 57.5 q74 0 123 -49.5t49 -120.5q0 -78 -61.5 -134.5t-142.5 -56.5q-74 0 -123.5 48t-49.5 120z" glyph-name="Wdieresis" horiz-adv-x="2211" unicode="Ẅ"/><glyph d="M664 0h-455l-82 1067h428l-2 -567l233 567h375l35 -567l195 567h458l-456 -1067h-457l-37 578zM641 1307q0 78 61.5 135t143.5 57q74 0 123 -49t49 -121q0 -78 -60.5 -134t-144.5 -56q-74 0 -123 48t-49 120zM1061 1307q0 78 61.5 135t143.5 57q74 0 123 -49t49 -121 q0 -78 -61.5 -134t-143.5 -56q-74 0 -123 48t-49 120z" glyph-name="wdieresis" horiz-adv-x="1787" unicode="ẅ"/><glyph d="M526 182l244 285q49 -55 121 -90t135 -35q78 0 115 40t37 93q0 57 -49.5 91t-135.5 34q-61 0 -143 -20l-94 227l393 254q-162 49 -270 49q-121 0 -191 -57.5t-94 -190.5l-152 -862h-419l170 961q41 229 209.5 371.5t451.5 142.5q336 0 754 -189l-56 -307l-227 -156 q94 -33 165 -119t71 -223q0 -203 -137.5 -354.5t-391.5 -151.5q-299 0 -506 207z" glyph-name="uni1E9E" horiz-adv-x="1640" unicode="ẞ"/><glyph d="M612 1434l176 -514l357 514h536l-729 -932l-88 -502h-420l88 498l-397 936h477zM1133 1575l-269 -82l-225 313l295 193z" glyph-name="Ygrave" horiz-adv-x="1495" unicode="Ỳ"/><glyph d="M29 -459l-103 361q227 63 344 137l-178 1028h420l55 -596l269 596h452l-485 -909q-57 -106 -117.5 -192.5t-108 -144t-114 -104.5t-104 -70.5t-111.5 -47t-105.5 -32t-113.5 -26.5zM918 1208l-269 -82l-225 314l295 192z" glyph-name="ygrave" horiz-adv-x="1193" unicode="ỳ"/><glyph d="M1085 776l-61 -352h-940l63 352h938z" glyph-name="endash" horiz-adv-x="1146" unicode="–"/><glyph d="M1360 776l-62 -352h-1214l63 352h1213z" glyph-name="emdash" horiz-adv-x="1421" unicode="—"/><glyph d="M518 1520l119 -160q-193 -125 -227 -232q90 0 146 -59t56 -139q0 -94 -74.5 -162t-175.5 -68q-102 0 -167.5 67t-65.5 177q0 164 111.5 317t277.5 259z" glyph-name="quoteleft" horiz-adv-x="598" unicode="‘"/><glyph d="M268 662l-118 159q193 125 227 232q-90 0 -146.5 59t-56.5 139q0 94 75 162t175 68q102 0 167.5 -66.5t65.5 -177.5q0 -164 -111.5 -316.5t-277.5 -258.5z" glyph-name="quoteright" horiz-adv-x="589" unicode="’"/><glyph d="M98 -416l-118 160q193 125 227 231q-90 0 -146.5 59.5t-56.5 139.5q0 94 75 161.5t175 67.5q102 0 167.5 -66.5t65.5 -176.5q0 -164 -111.5 -317t-277.5 -259z" glyph-name="quotesinglbase" horiz-adv-x="614" unicode="‚"/><glyph d="M518 1520l119 -160q-193 -125 -227 -232q90 0 146 -59t56 -139q0 -94 -74.5 -162t-175.5 -68q-102 0 -167.5 67t-65.5 177q0 164 111.5 317t277.5 259zM1096 1520l118 -160q-193 -125 -227 -232q90 0 146.5 -59t56.5 -139q0 -94 -75 -162t-175 -68q-102 0 -167.5 67 t-65.5 177q0 164 111.5 317t277.5 259z" glyph-name="quotedblleft" horiz-adv-x="1175" unicode="“"/><glyph d="M268 662l-118 159q193 125 227 232q-90 0 -146.5 59t-56.5 139q0 94 75 162t175 68q102 0 167.5 -66.5t65.5 -177.5q0 -164 -111.5 -316.5t-277.5 -258.5zM842 662l-119 159q193 125 227 232q-90 0 -146 59t-56 139q0 94 74.5 162t174.5 68q102 0 168 -66.5t66 -177.5 q0 -164 -111.5 -316.5t-277.5 -258.5z" glyph-name="quotedblright" horiz-adv-x="1165" unicode="”"/><glyph d="M98 -416l-118 160q193 125 227 231q-90 0 -146.5 59.5t-56.5 139.5q0 94 75 161.5t175 67.5q102 0 167.5 -66.5t65.5 -176.5q0 -164 -111.5 -317t-277.5 -259zM674 -416l-119 160q193 125 227 231q-90 0 -146 59.5t-56 139.5q0 94 74.5 161.5t174.5 67.5q102 0 168 -66.5 t66 -176.5q0 -164 -111.5 -317t-277.5 -259z" glyph-name="quotedblbase" horiz-adv-x="1187" unicode="„"/><glyph d="M1067 1122l-53 -295h-260l-146 -827h-358l147 827h-260l53 295h259l53 312h358l-53 -312h260z" glyph-name="dagger" horiz-adv-x="1048" unicode="†"/><glyph d="M1065 1122l-53 -295h-258l-39 -223h260l-53 -293h-260l-56 -311h-356l57 311h-260l53 293h258l39 223h-260l53 295h259l55 312h356l-55 -312h260z" glyph-name="daggerdbl" horiz-adv-x="1048" unicode="‡"/><glyph d="M115 571q0 117 86 203t209 86q111 0 181.5 -71.5t70.5 -172.5q0 -117 -86.5 -202.5t-208.5 -85.5q-111 0 -181.5 71.5t-70.5 171.5z" glyph-name="bullet" horiz-adv-x="757" unicode="•"/><glyph d="M0 178q0 96 75 165t175 69q88 0 147.5 -59.5t59.5 -145.5q0 -96 -74 -164t-174 -68q-90 0 -149.5 58.5t-59.5 144.5zM520 178q0 96 75 165t175 69q88 0 147.5 -59.5t59.5 -145.5q0 -96 -74 -164t-174 -68q-88 0 -148.5 59.5t-60.5 143.5zM1040 178q0 96 74 165t172 69 q90 0 149.5 -58.5t59.5 -146.5q0 -96 -73.5 -164t-174.5 -68q-90 0 -148.5 58.5t-58.5 144.5z" glyph-name="ellipsis" horiz-adv-x="1609" unicode="…"/><glyph d="M432 0h-313l1290 1434h311zM147 1055q0 164 120 283.5t288 119.5q158 0 254 -100.5t96 -241.5q0 -164 -119.5 -283.5t-287.5 -119.5q-158 0 -254.5 100.5t-96.5 241.5zM537 1208q-55 0 -91 -37.5t-36 -95.5q0 -49 28.5 -80.5t77.5 -31.5q55 0 91 37.5t36 95.5 q0 49 -28.5 80.5t-77.5 31.5zM934 315q0 164 120 284t287 120q158 0 254.5 -100.5t96.5 -241.5q0 -164 -120 -284t-288 -120q-158 0 -254 100.5t-96 241.5zM1323 469q-55 0 -91 -38t-36 -95q0 -49 28.5 -81t78.5 -32q55 0 91 38t36 95q0 49 -29 81t-78 32zM1726 315 q0 164 120 284t288 120q158 0 254 -100.5t96 -241.5q0 -164 -119.5 -284t-287.5 -120q-158 0 -254.5 100.5t-96.5 241.5zM2116 469q-55 0 -91 -38t-36 -95q0 -49 28.5 -81t77.5 -32q55 0 91 38t36 95q0 49 -28.5 81t-77.5 32z" glyph-name="perthousand" horiz-adv-x="2564" unicode="‰"/><glyph d="M432 510l127 -287l-268 -151l-244 473l410 477l229 -191z" glyph-name="guilsinglleft" horiz-adv-x="690" unicode="‹"/><glyph d="M262 586l-127 286l268 152l244 -473l-409 -477l-230 190z" glyph-name="guilsinglright" horiz-adv-x="690" unicode="›"/><glyph d="M-254 0h-260l1157 1434h258z" glyph-name="fraction" horiz-adv-x="327" unicode="⁄"/><glyph d="M125 905q0 80 21.5 167t66.5 175t132 144.5t200 56.5q176 0 261 -100.5t85 -257.5q0 -80 -21.5 -167t-66.5 -175.5t-132 -144.5t-200 -56q-176 0 -261 100t-85 258zM537 1196q-63 0 -98.5 -98.5t-35.5 -184.5q0 -115 76 -114q63 0 98 98t35 182q1 117 -75 117z" glyph-name="uni2070" horiz-adv-x="851" unicode="⁰"/><glyph d="M684 561h-254l25 144h-385l34 204l277 525h301l-276 -490h90l28 168l271 78l-43 -246h90l-43 -239h-90z" glyph-name="uni2074" horiz-adv-x="804" unicode="⁴"/><glyph d="M260 1434h543l-43 -242h-291l-14 -76q150 -12 224.5 -86t74.5 -178q0 -131 -88 -218t-254 -87q-199 0 -359 115l154 188q111 -80 203 -80q76 0 75 66q0 78 -163 77h-156z" glyph-name="uni2075" horiz-adv-x="747" unicode="⁵"/><glyph d="M821 1434l-268 -289q104 -6 167.5 -72.5t63.5 -169.5q0 -141 -102 -248.5t-251.5 -107.5t-238 89t-88.5 214q0 164 185 348l229 236h303zM453 973q-41 0 -69 -32t-28 -77q0 -35 21.5 -59.5t60.5 -24.5q35 0 64.5 32t29.5 81q0 33 -21 56.5t-58 23.5z" glyph-name="uni2076" horiz-adv-x="757" unicode="⁶"/><glyph d="M156 1178l45 256h596l-39 -217l-371 -656h-315l370 617h-286z" glyph-name="uni2077" horiz-adv-x="673" unicode="⁷"/><glyph d="M809 807q0 -125 -98.5 -192.5t-241.5 -67.5q-166 0 -269.5 67.5t-103.5 180.5q0 84 50.5 147.5t140.5 93.5q-88 55 -88 150q0 115 93 188.5t224 73.5q143 0 237.5 -68.5t94.5 -175.5q0 -156 -152 -209q113 -71 113 -188zM457 752q39 0 65.5 25.5t26.5 66.5 q0 33 -22.5 57.5t-59.5 24.5q-41 0 -68.5 -28t-27.5 -69q0 -33 22.5 -55t63.5 -22zM516 1108q31 0 55.5 22.5t24.5 57.5q0 25 -19.5 42t-52.5 17q-31 0 -55.5 -21.5t-24.5 -56.5q0 -27 18.5 -44t53.5 -17z" glyph-name="uni2078" horiz-adv-x="811" unicode="⁸"/><glyph d="M102 561l269 289q-104 6 -168 72.5t-64 169.5q0 141 102.5 248.5t252 107.5t237.5 -89t88 -214q0 -164 -184 -348l-229 -236h-304zM471 1022q41 0 68.5 31.5t27.5 76.5q0 35 -21.5 59.5t-60.5 24.5q-35 0 -64.5 -31.5t-29.5 -80.5q0 -33 21.5 -56.5t58.5 -23.5z" glyph-name="uni2079" horiz-adv-x="757" unicode="⁹"/><glyph d="M-45 -53q0 80 21.5 167t66.5 175t132 144t200 56q176 0 261 -100t85 -258q0 -80 -21.5 -167t-66.5 -175t-132 -144.5t-200 -56.5q-176 0 -261 100.5t-85 258.5zM367 238q-63 0 -98.5 -98.5t-35.5 -184.5q0 -115 76 -115q63 0 98 98.5t35 182.5q1 117 -75 117z" glyph-name="uni2080" horiz-adv-x="851" unicode="₀"/><glyph d="M35 -397l92 526l-168 -84l55 311l242 119h227l-153 -872h-295z" glyph-name="uni2081" horiz-adv-x="575" unicode="₁"/><glyph d="M584 -154l-43 -243h-641l37 209q252 164 356 272q72 76 72 123q0 45 -41 45q-59 0 -76 -123h-262q12 109 53 185.5t97.5 111.5t105.5 49t96 14q137 0 220 -72.5t83 -185.5q0 -162 -166 -311q-47 -41 -94 -74h203z" glyph-name="uni2082" horiz-adv-x="765" unicode="₂"/><glyph d="M145 -59l31 182q190 0 191 98q0 23 -14.5 37t-35.5 14q-59 0 -67 -82h-252q4 90 41 154t92 93.5t103.5 40.5t95.5 11q125 0 212 -69.5t87 -175.5q0 -158 -144 -221q96 -57 97 -160q0 -119 -90.5 -197t-245.5 -78q-197 0 -355 115l168 199q111 -76 183 -76q70 0 69 51 q0 64 -166 64z" glyph-name="uni2083" horiz-adv-x="753" unicode="₃"/><glyph d="M516 -397h-254l25 143h-385l35 205l276 524h301l-276 -489h90l28 168l271 77l-43 -245h90l-43 -240h-90z" glyph-name="uni2084" horiz-adv-x="804" unicode="₄"/><glyph d="M92 475h543l-43 -242h-291l-14 -75q150 -12 224.5 -86t74.5 -178q0 -131 -88 -218.5t-254 -87.5q-199 0 -359 115l154 188q111 -80 203 -79q76 0 75 65q0 78 -163 78h-156z" glyph-name="uni2085" horiz-adv-x="747" unicode="₅"/><glyph d="M651 475l-268 -289q104 -6 167.5 -72.5t63.5 -168.5q0 -141 -102 -249t-251.5 -108t-238 89.5t-88.5 213.5q0 164 185 349l229 235h303zM283 14q-41 0 -69 -31.5t-28 -76.5q0 -35 21.5 -59.5t60.5 -24.5q35 0 64.5 31.5t29.5 80.5q0 33 -21 56.5t-58 23.5z" glyph-name="uni2086" horiz-adv-x="757" unicode="₆"/><glyph d="M-14 219l45 256h596l-39 -217l-371 -655h-315l370 616h-286z" glyph-name="uni2087" horiz-adv-x="673" unicode="₇"/><glyph d="M639 -152q0 -125 -98.5 -192.5t-241.5 -67.5q-166 0 -269.5 68t-103.5 180q0 84 50.5 147.5t140.5 94.5q-88 55 -88 149q0 115 93 188.5t224 73.5q143 0 237.5 -68.5t94.5 -174.5q0 -156 -152 -209q113 -72 113 -189zM287 -207q41 0 66.5 25.5t25.5 66.5q0 33 -22.5 57.5 t-59.5 24.5q-41 0 -68.5 -27.5t-27.5 -68.5q0 -33 22.5 -55.5t63.5 -22.5zM346 150q31 0 55.5 22.5t24.5 56.5q0 25 -19.5 42.5t-52.5 17.5q-31 0 -55.5 -21.5t-24.5 -56.5q0 -27 18.5 -44t53.5 -17z" glyph-name="uni2088" horiz-adv-x="811" unicode="₈"/><glyph d="M-68 -397l269 288q-104 6 -168 73t-64 169q0 141 102.5 248.5t252 107.5t237.5 -89t88 -214q0 -164 -184 -348l-229 -235h-304zM301 63q41 0 68.5 32t27.5 77q0 35 -21.5 59.5t-60.5 24.5q-35 0 -64.5 -31.5t-29.5 -81.5q0 -33 21.5 -56.5t58.5 -23.5z" glyph-name="uni2089" horiz-adv-x="757" unicode="₉"/><glyph d="M133 756l41 243l172 50l68 385h422l-45 -254l397 116l-43 -239l-397 -119l-15 -80l397 119l-40 -242l-400 -119l-45 -260h39q51 0 85 15.5t57.5 56.5t35.5 74t33 104l408 -74q-96 -313 -233.5 -422.5t-418.5 -109.5h-489l86 485l-172 -49l43 242l170 49l14 80z" glyph-name="lira" horiz-adv-x="1355" unicode="₤"/><glyph d="M735 0h-416v381h-260l50 276h213v86h-199l51 281h148l2 410h397l-43 -826l264 826h342l-35 -797l238 797h416l-144 -410h152l-49 -281h-199l-31 -86h213l-47 -276h-262l-131 -381h-418l19 803z" glyph-name="uni20A9" horiz-adv-x="1910" unicode="₩"/><glyph d="M1114 403l184 -280q-203 -147 -430 -148q-250 0 -421 137.5t-224 356.5h-172l35 197h119q0 41 6 84h-111l35 198h131q92 229 289 369.5t434 140.5q150 0 285 -56t221 -167l-274 -242q-90 104 -252 105q-154 0 -264 -150h503l-92 -198h-495q-8 -43 -9 -84h467l-92 -197 h-332q78 -135 238 -135q125 -1 221 69z" glyph-name="Euro" horiz-adv-x="1421" unicode="€"/><glyph d="M186 856l33 188h326q-25 123 -156 123h-147l47 267h950l-84 -187h-283q63 -86 82 -203h215l-84 -188h-135q-29 -154 -111.5 -265.5t-213.5 -166.5l260 -424h-473l-289 489l41 240h162q139 0 192 127h-332z" glyph-name="uni20B9" horiz-adv-x="1136" unicode="₹"/><glyph d="M37 178l43 246h102l13 68h-103l58 323h102l108 619h484q246 0 365.5 -114t119.5 -294q0 -221 -139 -377.5t-391 -156.5h-211l-13 -68h293l-45 -246h-291l-30 -178h-393l30 178h-102zM645 815h107q98 0 137 57.5t39 120.5q0 53 -32 85t-93 32h-107z" glyph-name="uni20BD" horiz-adv-x="1306" unicode="₽"/><glyph d="M131 297l-94 238q49 25 93 45t64.5 30.5t34.5 18.5l88 493q43 229 170 340t297 111q162 0 265.5 -91t103.5 -251q0 -109 -45 -210t-127 -187t-167 -152t-196 -135l-24 -135q-2 -12 -2 -27q0 -68 55 -68q59 0 160 119l209 -211q-195 -250 -438 -250q-172 0 -268.5 99.5 t-110.5 253.5zM727 1174l-47 -273q211 174 211 313q0 80 -74 80q-70 1 -90 -120z" glyph-name="afii61289" horiz-adv-x="1081" unicode="ℓ"/><glyph d="M1632 326l43 252h692l-45 -252h-690zM455 0h-420l252 1434h424l391 -803l141 803h420l-252 -1434h-426l-391 793zM1702 1004q0 180 128 305t302 125q172 0 271.5 -104.5t99.5 -254.5q0 -180 -128 -305t-302 -125q-172 0 -271.5 104.5t-99.5 254.5zM2118 1178 q-57 0 -94 -49.5t-37 -116.5q0 -49 26.5 -80t73.5 -31q57 0 94 49t37 117q0 49 -26.5 80t-73.5 31z" glyph-name="afii61352" horiz-adv-x="2469" unicode="№"/><glyph d="M1458 850h-211l47 276l-147 -213h-88l-70 236l-51 -299h-209l100 584h230l80 -277l190 277h232zM178 1227l37 207h559l-37 -207h-172l-65 -377h-211l65 377h-176z" glyph-name="trademark" horiz-adv-x="1519" unicode="™"/><glyph d="M1495 694h-1110l-76 -434q162 -209 439 -209q354 0 600 350l61 -45q-135 -199 -308 -290t-353 -91q-283 0 -463.5 198t-180.5 472q0 205 103.5 393.5t282 304t382.5 115.5q283 0 456 -195.5t173 -467.5q0 -52 -6 -101zM872 1380q-209 0 -389 -139l-84 -469h826l71 408 q-160 200 -424 200z" glyph-name="estimated" horiz-adv-x="1519" unicode="℮"/><glyph d="M403 0h-260l1157 1434h259zM219 561l92 526l-168 -83l56 311l241 119h228l-154 -873h-295zM1704 250q0 -125 -98.5 -192.5t-241.5 -67.5q-166 0 -269.5 67.5t-103.5 180.5q0 84 50.5 147.5t140.5 93.5q-88 55 -88 150q0 115 93 188.5t224 73.5q143 0 237.5 -68.5 t94.5 -175.5q0 -156 -152 -209q113 -71 113 -188zM1352 195q41 0 66.5 25.5t25.5 66.5q0 33 -22.5 57.5t-59.5 24.5q-41 0 -68.5 -28t-27.5 -69q0 -33 22.5 -55t63.5 -22zM1411 551q31 0 55.5 22.5t24.5 57.5q0 25 -19.5 42t-52.5 17q-31 0 -55.5 -21.5t-24.5 -56.5 q0 -27 18.5 -44t53.5 -17z" glyph-name="oneeighth" horiz-adv-x="1808" unicode="⅛"/><glyph d="M565 0h-260l1157 1434h258zM1868 250q0 -125 -98.5 -192.5t-241.5 -67.5q-166 0 -269.5 67.5t-103.5 180.5q0 84 50 147.5t141 93.5q-88 55 -89 150q0 115 93.5 188.5t224.5 73.5q143 0 237.5 -68.5t94.5 -175.5q0 -156 -152 -209q113 -71 113 -188zM1515.5 195 q40.5 0 66.5 25.5t26 66.5q0 33 -22.5 57.5t-59.5 24.5q-41 0 -68.5 -28t-27.5 -69q0 -33 22.5 -55t63 -22zM1575 551q31 0 55.5 22.5t24.5 57.5q0 25 -19.5 42t-52.5 17q-31 0 -55.5 -21.5t-24.5 -56.5q0 -27 18.5 -44t53.5 -17zM330 899l30 182q190 0 191 99 q0 23 -14.5 37t-34.5 14q-59 0 -68 -82h-252q4 90 41 153.5t92.5 93t103.5 41t95 11.5q125 0 212 -69.5t87 -176.5q0 -158 -143 -221q96 -57 96 -160q0 -119 -90 -196.5t-246 -77.5q-197 0 -354 115l168 198q111 -76 182 -76q70 0 70 52q0 63 -166 63z" glyph-name="threeeighths" horiz-adv-x="1972" unicode="⅜"/><glyph d="M547 0h-260l1157 1434h258zM281 1434h542l-43 -242h-291l-14 -76q150 -12 224.5 -86t74.5 -178q0 -131 -88 -218t-254 -87q-199 0 -358 115l153 188q111 -80 203 -80q76 0 76 66q0 78 -164 77h-156zM1845 250q0 -125 -98 -192.5t-242 -67.5q-166 0 -269 67.5t-103 180.5 q0 84 50 147.5t140 93.5q-88 55 -88 150q0 115 93 188.5t224 73.5q143 0 237.5 -68.5t94.5 -175.5q0 -156 -151 -209q112 -71 112 -188zM1493 195q39 0 65.5 25.5t26.5 66.5q0 33 -22.5 57.5t-59.5 24.5q-41 0 -68.5 -28t-27.5 -69q0 -33 22.5 -55t63.5 -22zM1552 551 q31 0 55.5 22.5t24.5 57.5q0 25 -19.5 42t-51.5 17q-31 0 -55.5 -21.5t-24.5 -56.5q0 -27 18 -44t53 -17z" glyph-name="fiveeighths" horiz-adv-x="1953" unicode="⅝"/><glyph d="M369 0h-260l1157 1434h258zM1673 250q0 -125 -98 -192.5t-242 -67.5q-166 0 -269 67.5t-103 180.5q0 84 50 147.5t140 93.5q-88 55 -88 150q0 115 93 188.5t224 73.5q143 0 237.5 -68.5t94.5 -175.5q0 -156 -151 -209q112 -71 112 -188zM1321 195q39 0 65.5 25.5 t26.5 66.5q0 33 -22.5 57.5t-59.5 24.5q-41 0 -68.5 -28t-27.5 -69q0 -33 22.5 -55t63.5 -22zM1380 551q31 0 55.5 22.5t24.5 57.5q0 25 -19.5 42t-51.5 17q-31 0 -55.5 -21.5t-24.5 -56.5q0 -27 18 -44t53 -17zM182 1178l45 256h596l-39 -217l-370 -656h-316l371 617h-287z " glyph-name="seveneighths" horiz-adv-x="1777" unicode="⅞"/><glyph d="M846 135l-244 -203l-543 672l781 670l204 -242l-299 -258h621l-61 -340h-703z" glyph-name="arrowleft" horiz-adv-x="1390" unicode="←"/><glyph d="M254 377l-201 252l778 669l545 -669l-243 -211l-236 293l-125 -711h-338l111 629z" glyph-name="arrowup" horiz-adv-x="1394" unicode="↑"/><glyph d="M569 1071l244 203l543 -672l-781 -670l-204 242l299 258h-621l60 340h704z" glyph-name="arrowright" horiz-adv-x="1386" unicode="→"/><glyph d="M1176 895l200 -252l-778 -670l-545 670l244 211l235 -293l125 711h338l-110 -629z" glyph-name="arrowdown" horiz-adv-x="1392" unicode="↓"/><glyph d="M344 63h-324l177 1004h979l-56 -324h-452l444 -553l-260 -208l-428 534z" glyph-name="uni2196" horiz-adv-x="1234" unicode="↖"/><glyph d="M188 743l58 324h981l-176 -1004h-322l74 416l-572 -497l-217 251l586 510h-412z" glyph-name="uni2197" horiz-adv-x="1236" unicode="↗"/><glyph d="M893 1004h324l-177 -1004h-979l58 324h450l-442 553l258 208l428 -534z" glyph-name="uni2198" horiz-adv-x="1236" unicode="↘"/><glyph d="M1004 1085l219 -251l-588 -510h412l-58 -324h-981l176 1004h324l-74 -414z" glyph-name="uni2199" horiz-adv-x="1236" unicode="↙"/><glyph d="M438 1294l312 230q401 -449 401 -875q0 -283 -162 -478.5t-424 -195.5q-236 0 -376 136.5t-140 339.5q0 217 143.5 372.5t339.5 155.5q96 0 179 -41q-76 135 -273 356zM750 524q0 61 -38 103.5t-104 42.5q-76 0 -123 -57.5t-47 -133.5q0 -61 38 -103t104 -42q74 0 122 59 t48 131z" glyph-name="partialdiff" horiz-adv-x="1204" unicode="∂"/><glyph d="M678 1434h412l223 -1434h-1366zM815 948l-280 -602h352z" glyph-name="uni2206" horiz-adv-x="1445" unicode="∆"/><glyph d="M1630 1434l-65 -383h-160l-184 -1051h-406l184 1051h-276l-184 -1051h-404l184 1051h-157l67 383h1401z" glyph-name="product" horiz-adv-x="1544" unicode="∏"/><glyph d="M-47 -238l55 324l547 514l-367 510l60 324h1132l-63 -367h-623l359 -504l-459 -434h557l-66 -367h-1132z" glyph-name="summation" horiz-adv-x="1302" unicode="∑"/><glyph d="M954 842l-61 -338h-789l62 338h788z" glyph-name="minus" horiz-adv-x="1011" unicode="−"/><glyph d="M508 707l41 -453l620 1180h443l-936 -1672h-418l-74 588h-198l63 357h459z" glyph-name="radical" horiz-adv-x="1419" unicode="√"/><glyph d="M1313 1065q166 0 261 -103.5t95 -252.5q0 -178 -119.5 -304t-314.5 -126q-209 0 -367 192q-199 -193 -419 -192q-166 0 -261.5 103t-95.5 253q0 178 120 304t314 126q207 0 369 -193q199 193 418 193zM1243 555q61 0 103.5 37t42.5 92q0 43 -29 72.5t-78 29.5 q-102 0 -225 -120q100 -111 186 -111zM518 788q-61 0 -103 -36.5t-42 -92.5q0 -43 28.5 -72.5t77.5 -29.5q102 0 226 121q-101 110 -187 110z" glyph-name="infinity" horiz-adv-x="1716" unicode="∞"/><glyph d="M-170 -393l104 280q68 -20 127 -20q82 0 101 98l190 1071q39 221 157 321.5t282 100.5q154 0 325 -72l-110 -278q-70 29 -146 29q-39 0 -63.5 -20.5t-34.5 -78.5l-191 -1071q-41 -221 -158.5 -321.5t-281.5 -100.5q-151 1 -301 62z" glyph-name="integral" horiz-adv-x="948" unicode="∫"/><glyph d="M334 692l-207 107q61 137 136 212.5t183 75.5q57 0 143.5 -41.5t106.5 -41.5q47 0 97 86l206 -105q-61 -137 -136 -213t-183 -76q-57 0 -143 42t-107 42q-47 0 -96 -88zM256 254l-207 104q61 137 136 213t184 76q57 0 143 -42t106 -42q47 0 97 88l207 -106 q-61 -137 -136 -213t-184 -76q-57 0 -143 42t-107 42q-47 0 -96 -86z" glyph-name="approxequal" horiz-adv-x="999" unicode="≈"/><glyph d="M145 725l58 328h454l144 227l196 -115l-71 -112h108l-57 -328h-258l-68 -104h307l-57 -326h-455l-143 -227l-197 114l72 113h-108l57 326h256l66 104h-304z" glyph-name="notequal" horiz-adv-x="1056" unicode="≠"/><glyph d="M125 696l65 377l885 316l-65 -381l-441 -131l392 -140l-62 -358zM891 340l-60 -332h-827l57 332h830z" glyph-name="lessequal" horiz-adv-x="1042" unicode="≤"/><glyph d="M1040 1073l-65 -377l-885 -317l68 383l438 131l-391 139l63 357zM909 340l-57 -332h-827l57 332h827z" glyph-name="greaterequal" horiz-adv-x="1038" unicode="≥"/><glyph d="M125 651q0 205 106.5 390.5t293 300t401.5 114.5q299 0 484 -197.5t185 -476.5q0 -205 -106.5 -390t-292.5 -300t-401 -115q-299 0 -484.5 197.5t-185.5 476.5zM909 1251q-227 0 -399 -174t-172 -409q0 -201 130 -343.5t343 -142.5q227 0 399 174t172 410q0 201 -130 343 t-343 142zM676 760l37 198l200 93h150l-119 -668h-192l77 446z" glyph-name="uni2460" horiz-adv-x="1654" unicode="①"/><glyph d="M125 651q0 205 106.5 390.5t293 300t401.5 114.5q299 0 484 -197.5t185 -476.5q0 -205 -106.5 -390t-292.5 -300t-401 -115q-299 0 -484.5 197.5t-185.5 476.5zM909 1251q-227 0 -399 -174t-172 -409q0 -201 130 -343.5t343 -142.5q227 0 399 174t172 410q0 201 -130 343 t-343 142zM1118 592l-33 -182h-528l27 149q381 217 381 305q0 23 -16.5 39.5t-43.5 16.5q-66 0 -82 -99h-192q14 139 97 205t189.5 66t176 -59.5t69.5 -149.5q0 -164 -229 -291h184z" glyph-name="uni2461" horiz-adv-x="1654" unicode="②"/><glyph d="M125 651q0 205 106.5 390.5t293 300t401.5 114.5q299 0 484 -197.5t185 -476.5q0 -205 -106.5 -390t-292.5 -300t-401 -115q-299 0 -484.5 197.5t-185.5 476.5zM909 1251q-227 0 -399 -174t-172 -409q0 -201 130 -343.5t343 -142.5q227 0 399 174t172 410q0 201 -130 343 t-343 142zM555 481l121 148q113 -61 168 -62q70 0 69 39q0 27 -36.5 43.5t-112.5 14.5l24 133q158 0 158 73q0 20 -15.5 35t-39.5 15q-55 0 -66 -64h-188q4 66 32.5 114t70.5 70.5t80 32.5t75 10q109 0 181.5 -53t72.5 -135q0 -115 -121 -174q88 -45 88 -131 q0 -90 -72.5 -146.5t-199.5 -56.5q-156 0 -289 94z" glyph-name="uni2462" horiz-adv-x="1654" unicode="③"/><glyph d="M125 651q0 205 106.5 390.5t293 300t401.5 114.5q299 0 484 -197.5t185 -476.5q0 -205 -106.5 -390t-292.5 -300t-401 -115q-299 0 -484.5 197.5t-185.5 476.5zM909 1251q-227 0 -399 -174t-172 -409q0 -201 130 -343.5t343 -142.5q227 0 399 174t172 410q0 201 -130 343 t-343 142zM1026 401h-195l21 117h-317l24 144l240 407h221l-234 -381h95l22 125l205 57l-33 -182h92l-30 -170h-90z" glyph-name="uni2463" horiz-adv-x="1654" unicode="④"/><glyph d="M125 651q0 205 106.5 390.5t293 300t401.5 114.5q299 0 484 -197.5t185 -476.5q0 -205 -106.5 -390t-292.5 -300t-401 -115q-299 0 -484.5 197.5t-185.5 476.5zM909 1251q-227 0 -399 -174t-172 -409q0 -201 130 -343.5t343 -142.5q227 0 399 174t172 410q0 201 -130 343 t-343 142zM721 1051h438l-31 -174h-251l-13 -68q129 -8 191.5 -64.5t62.5 -140.5q0 -92 -66.5 -163.5t-207.5 -71.5q-156 0 -289 94l119 147q113 -61 166 -61q74 0 73 49q0 61 -149 61h-113z" glyph-name="uni2464" horiz-adv-x="1654" unicode="⑤"/><glyph d="M125 651q0 205 106.5 390.5t293 300t401.5 114.5q299 0 484 -197.5t185 -476.5q0 -205 -106.5 -390t-292.5 -300t-401 -115q-299 0 -484.5 197.5t-185.5 476.5zM909 1251q-227 0 -399 -174t-172 -409q0 -201 130 -343.5t343 -142.5q227 0 399 174t172 410q0 201 -130 343 t-343 142zM1128 1063l-196 -199q84 -12 134 -71.5t50 -137.5q0 -115 -82 -194.5t-205 -79.5q-115 0 -186.5 68.5t-71.5 162.5q0 125 127 248l207 203h223zM850 725q-41 0 -68.5 -26.5t-27.5 -65.5q0 -33 22.5 -56.5t59.5 -23.5q49 0 72.5 28.5t23.5 63.5q0 33 -22.5 56.5 t-59.5 23.5z" glyph-name="uni2465" horiz-adv-x="1654" unicode="⑥"/><glyph d="M125 651q0 205 106.5 390.5t293 300t401.5 114.5q299 0 484 -197.5t185 -476.5q0 -205 -106.5 -390t-292.5 -300t-401 -115q-299 0 -484.5 197.5t-185.5 476.5zM909 1251q-227 0 -399 -174t-172 -409q0 -201 130 -343.5t343 -142.5q227 0 399 174t172 410q0 201 -130 343 t-343 142zM676 858l31 184h495l-26 -157l-330 -510h-232l324 483h-262z" glyph-name="uni2466" horiz-adv-x="1654" unicode="⑦"/><glyph d="M125 651q0 205 106.5 390.5t293 300t401.5 114.5q299 0 484 -197.5t185 -476.5q0 -205 -106.5 -390t-292.5 -300t-401 -115q-299 0 -484.5 197.5t-185.5 476.5zM909 1251q-227 0 -399 -174t-172 -409q0 -201 130 -343.5t343 -142.5q227 0 399 174t172 410q0 201 -130 343 t-343 142zM1130 594q0 -78 -49 -129t-108.5 -69.5t-120.5 -18.5q-125 0 -206 58.5t-81 144.5q0 63 37 110t100 70q-59 47 -59 112q0 94 79 147.5t179 53.5q111 0 182.5 -52t71.5 -130q0 -115 -102 -162q77 -47 77 -135zM848 530q39 0 65.5 22.5t26.5 55.5q0 29 -21.5 48.5 t-66.5 19.5q-35 0 -60.5 -20.5t-25.5 -55.5q0 -27 21.5 -48.5t60.5 -21.5zM897 809q35 0 54.5 20.5t19.5 40.5q0 57 -70 58q-37 0 -55.5 -19.5t-18.5 -44.5q0 -23 17.5 -39t52.5 -16z" glyph-name="uni2467" horiz-adv-x="1654" unicode="⑧"/><glyph d="M125 651q0 205 106.5 390.5t293 300t401.5 114.5q299 0 484 -197.5t185 -476.5q0 -205 -106.5 -390t-292.5 -300t-401 -115q-299 0 -484.5 197.5t-185.5 476.5zM909 1251q-227 0 -399 -174t-172 -409q0 -201 130 -343.5t343 -142.5q227 0 399 174t172 410q0 201 -130 343 t-343 142zM610 383l197 199q-84 12 -134 71.5t-50 137.5q0 115 81.5 194.5t204.5 79.5q115 0 186.5 -68.5t71.5 -162.5q0 -125 -127 -248l-206 -203h-224zM889 721q41 0 68.5 26.5t27.5 65.5q0 33 -22.5 56.5t-59.5 23.5q-49 0 -72.5 -28.5t-23.5 -63.5q0 -33 22.5 -56.5 t59.5 -23.5z" glyph-name="uni2468" horiz-adv-x="1654" unicode="⑨"/><glyph d="M125 651q0 205 106.5 390.5t293 300t401.5 114.5q299 0 484 -197.5t185 -476.5q0 -205 -106.5 -390t-292.5 -300t-401 -115q-299 0 -484.5 197.5t-185.5 476.5zM909 1251q-227 0 -399 -174t-172 -409q0 -201 130 -343.5t343 -142.5q227 0 399 174t172 410q0 201 -130 343 t-343 142zM555 655q0 166 89 288t249 122q147 0 217 -80t70 -207q0 -166 -89.5 -287.5t-248.5 -121.5q-147 0 -217 79.5t-70 206.5zM889 885q-72 0 -105.5 -72t-33.5 -149q0 -115 96 -115q72 0 105.5 71.5t33.5 149.5q0 115 -96 115z" glyph-name="uni24EA" horiz-adv-x="1654" unicode="⓪"/><glyph d="M125 651q0 205 106.5 390.5t293 300t401.5 114.5q299 0 484 -197.5t185 -476.5q0 -205 -106.5 -390t-292.5 -300t-401 -115q-299 0 -484.5 197.5t-185.5 476.5zM555 655q0 -127 69.5 -206.5t217.5 -79.5q160 0 249 121.5t89 287.5q0 127 -70 207t-217 80 q-160 0 -249 -122t-89 -288zM889 885q96 0 96 -115q0 -78 -33.5 -149.5t-105.5 -71.5q-96 0 -96 115q0 78 33.5 149.5t105.5 71.5z" glyph-name="uni24FF" horiz-adv-x="1654" unicode="⓿"/><glyph d="M1034 717l-606 -742l-346 742l608 741zM492 477l227 279l-94 200l-228 -278z" glyph-name="lozenge" horiz-adv-x="1052" unicode="◊"/><glyph d="M125 651q0 205 106.5 390.5t293 300t401.5 114.5q299 0 484 -197.5t185 -476.5q0 -205 -106.5 -390t-292.5 -300t-401 -115q-299 0 -484.5 197.5t-185.5 476.5zM909 1251q-227 0 -399 -174t-172 -409q0 -201 130 -343.5t343 -142.5q227 0 399 174t172 410q0 201 -130 343 t-343 142z" glyph-name="circle" horiz-adv-x="1654" unicode="○"/><glyph d="M125 651q0 205 106.5 390.5t293 300t401.5 114.5q299 0 484 -197.5t185 -476.5q0 -205 -106.5 -390t-292.5 -300t-401 -115q-299 0 -484.5 197.5t-185.5 476.5z" glyph-name="H18533" horiz-adv-x="1654" unicode="●"/><glyph d="M125 651q0 205 106.5 390.5t293 300t401.5 114.5q299 0 484 -197.5t185 -476.5q0 -205 -106.5 -390t-292.5 -300t-401 -115q-299 0 -484.5 197.5t-185.5 476.5zM713 958l-37 -198l153 69l-77 -446h192l119 668h-150z" glyph-name="uni2776" horiz-adv-x="1654" unicode="❶"/><glyph d="M125 651q0 205 106.5 390.5t293 300t401.5 114.5q299 0 484 -197.5t185 -476.5q0 -205 -106.5 -390t-292.5 -300t-401 -115q-299 0 -484.5 197.5t-185.5 476.5zM1085 410l33 182h-184q229 127 229 291q0 90 -69.5 149.5t-176 59.5t-189.5 -65.5t-97 -205.5h192 q16 98 82 99q27 0 43.5 -16.5t16.5 -39.5q0 -88 -381 -305l-27 -149h528z" glyph-name="uni2777" horiz-adv-x="1654" unicode="❷"/><glyph d="M125 651q0 205 106.5 390.5t293 300t401.5 114.5q299 0 484 -197.5t185 -476.5q0 -205 -106.5 -390t-292.5 -300t-401 -115q-299 0 -484.5 197.5t-185.5 476.5zM831 401h195l21 117h90l30 170h-92l33 182l-205 -57l-22 -125h-95l234 381h-221l-240 -407l-24 -144h317z " glyph-name="uni2779" horiz-adv-x="1654" unicode="❹"/><glyph d="M125 651q0 205 106.5 390.5t293 300t401.5 114.5q299 0 484 -197.5t185 -476.5q0 -205 -106.5 -390t-292.5 -300t-401 -115q-299 0 -484.5 197.5t-185.5 476.5zM1159 1051h-438l-70 -392h113q150 0 149 -61q0 -49 -73 -49q-53 0 -166 61l-119 -147q133 -94 289 -94 q141 0 207.5 71.5t66.5 163.5q0 84 -62.5 140.5t-191.5 64.5l13 68h251z" glyph-name="uni2780" horiz-adv-x="1654" unicode="➀"/><glyph d="M125 651q0 205 106.5 390.5t293 300t401.5 114.5q299 0 484 -197.5t185 -476.5q0 -205 -106.5 -390t-292.5 -300t-401 -115q-299 0 -484.5 197.5t-185.5 476.5zM932 864l196 199h-223l-207 -203q-127 -123 -127 -248q0 -94 72 -162.5t186 -68.5q123 0 205 80t82 194 q0 78 -50 137.5t-134 71.5zM850 725q37 0 59.5 -23.5t22.5 -56.5q0 -35 -23.5 -63.5t-72.5 -28.5q-37 0 -59.5 23.5t-22.5 56.5q0 39 27.5 65.5t68.5 26.5z" glyph-name="uni2781" horiz-adv-x="1654" unicode="➁"/><glyph d="M125 651q0 205 106.5 390.5t293 300t401.5 114.5q299 0 484 -197.5t185 -476.5q0 -205 -106.5 -390t-292.5 -300t-401 -115q-299 0 -484.5 197.5t-185.5 476.5zM707 1042l-31 -184h262l-324 -483h232l330 510l26 157h-495z" glyph-name="uni2782" horiz-adv-x="1654" unicode="➂"/><glyph d="M125 651q0 205 106.5 390.5t293 300t401.5 114.5q299 0 484 -197.5t185 -476.5q0 -205 -106.5 -390t-292.5 -300t-401 -115q-299 0 -484.5 197.5t-185.5 476.5zM1130 594q0 88 -77 135q102 47 102 162q0 78 -71.5 130t-182.5 52q-100 0 -179 -53t-79 -148q0 -66 59 -112 q-63 -23 -100 -70t-37 -110q0 -86 81 -144.5t206 -58.5q61 0 120.5 18.5t108.5 69.5t49 129zM848 530q-39 0 -60.5 21.5t-21.5 48.5q0 35 25.5 55.5t60.5 20.5q45 0 66.5 -19.5t21.5 -48.5q0 -33 -26.5 -55.5t-65.5 -22.5zM897 809q-35 0 -52.5 16.5t-17.5 38.5 q0 25 18.5 44.5t55.5 19.5q70 0 70 -58q0 -20 -19.5 -40.5t-54.5 -20.5z" glyph-name="uni2783" horiz-adv-x="1654" unicode="➃"/><glyph d="M125 651q0 205 106.5 390.5t293 300t401.5 114.5q299 0 484 -197.5t185 -476.5q0 -205 -106.5 -390t-292.5 -300t-401 -115q-299 0 -484.5 197.5t-185.5 476.5zM807 582l-197 -199h224l206 203q127 123 127 248q0 94 -71.5 162.5t-186.5 68.5q-123 0 -204.5 -80 t-81.5 -194q0 -78 50 -137.5t134 -71.5zM889 721q-37 0 -59.5 23.5t-22.5 56.5q0 35 23.5 63.5t72.5 28.5q37 0 59.5 -23.5t22.5 -56.5q0 -39 -27.5 -65.5t-68.5 -26.5z" glyph-name="uni2784" horiz-adv-x="1654" unicode="➄"/><glyph d="M125 651q0 205 106.5 390.5t293 300t401.5 114.5q299 0 484 -197.5t185 -476.5q0 -205 -106.5 -390t-292.5 -300t-401 -115q-299 0 -484.5 197.5t-185.5 476.5zM676 629l-121 -148q133 -94 289 -94q127 0 199.5 56.5t72.5 146.5q0 86 -88 131q121 59 121 174 q0 82 -72.5 135t-181.5 53q-37 0 -75 -10t-80 -32.5t-70.5 -70.5t-32.5 -114h188q10 63 66 64q25 0 40 -14.5t15 -35.5q0 -74 -158 -73l-24 -133q76 2 112.5 -14.5t36.5 -43.5q0 -39 -69 -39q-55 1 -168 62z" glyph-name="uni2786" horiz-adv-x="1654" unicode="➆"/><glyph d="M508 1434q158 0 223 -103l17 84h278l-133 -753h-279l9 53q-74 -70 -179 -70q-150 0 -226.5 90t-76.5 232q0 182 102.5 324.5t264.5 142.5zM543 893q70 0 107.5 56.5t37.5 113.5q0 53 -30.5 88t-88.5 35q-63 0 -104 -52.5t-41 -111.5q0 -53 33 -91t86 -38z" glyph-name="uniE001" horiz-adv-x="980" unicode=""/><glyph d="M694 0l21 117q-106 -141 -275 -142q-178 0 -281.5 130.5t-103.5 332.5q0 154 54.5 299.5t173 250t276.5 104.5q223 0 299 -162l25 137h413l-188 -1067h-414zM610 334q88 0 142.5 69.5t54.5 167.5q0 72 -38 117t-112 45q-88 0 -143 -69.5t-55 -165.5q0 -72 38.5 -118 t112.5 -46z" glyph-name="uniE020" unicode=""/><glyph d="M78 508l137 772l436 137l-63 -350h286l-61 -344h-285l-49 -274q-4 -25 -4 -35q0 -74 88 -74q49 0 129 27l78 -324q-164 -68 -309 -68q-397 0 -398 375q1 78 15 158z" glyph-name="uniE021" horiz-adv-x="858" unicode=""/><glyph d="M1530 -25l-225 -327l-592 391l209 291zM96 639q0 338 231.5 578.5t575.5 240.5q322 0 510.5 -191.5t188.5 -471.5q0 -338 -231.5 -579t-575.5 -241q-322 0 -510.5 191.5t-188.5 472.5zM881 1059q-147 0 -246.5 -116t-99.5 -273q0 -127 75.5 -211t208.5 -84 q145 0 244.5 115.5t99.5 273.5q0 127 -75.5 211t-206.5 84z" glyph-name="uniE022" horiz-adv-x="1636" unicode=""/><glyph d="M694 0l21 117q-106 -141 -275 -142q-178 0 -281.5 130.5t-103.5 332.5q0 154 54.5 299.5t173 250t276.5 104.5q223 0 299 -162l25 137h413l-188 -1067h-414zM610 334q88 0 142.5 69.5t54.5 167.5q0 72 -38 117t-112 45q-88 0 -143 -69.5t-55 -165.5q0 -72 38.5 -118 t112.5 -46zM971 1208l-269 -82l-225 314l295 192z" glyph-name="uniE030" unicode=""/><glyph d="M694 0l21 117q-106 -141 -275 -142q-178 0 -281.5 130.5t-103.5 332.5q0 154 54.5 299.5t173 250t276.5 104.5q223 0 299 -162l25 137h413l-188 -1067h-414zM610 334q88 0 142.5 69.5t54.5 167.5q0 72 -38 117t-112 45q-88 0 -143 -69.5t-55 -165.5q0 -72 38.5 -118 t112.5 -46zM825 1126l-239 125l344 381l223 -239z" glyph-name="uniE031" unicode=""/><glyph d="M694 0l21 117q-106 -141 -275 -142q-178 0 -281.5 130.5t-103.5 332.5q0 154 54.5 299.5t173 250t276.5 104.5q223 0 299 -162l25 137h413l-188 -1067h-414zM610 334q88 0 142.5 69.5t54.5 167.5q0 72 -38 117t-112 45q-88 0 -143 -69.5t-55 -165.5q0 -72 38.5 -118 t112.5 -46zM813 1253l-203 -123l-151 201l383 238l315 -240l-172 -199z" glyph-name="uniE032" unicode=""/><glyph d="M694 0l21 117q-106 -141 -275 -142q-178 0 -281.5 130.5t-103.5 332.5q0 154 54.5 299.5t173 250t276.5 104.5q223 0 299 -162l25 137h413l-188 -1067h-414zM610 334q88 0 142.5 69.5t54.5 167.5q0 72 -38 117t-112 45q-88 0 -143 -69.5t-55 -165.5q0 -72 38.5 -118 t112.5 -46zM649 1176h-258q16 178 96 284.5t203 106.5q109 0 172 -99q6 -8 13.5 -20t11.5 -19.5t10 -15.5t10 -11t8 -3q27 0 35 127h258q-16 -178 -96 -285.5t-203 -107.5q-104 0 -172 100q-6 8 -13 19.5t-11 18.5t-10.5 14t-10.5 11t-8 4q-27 1 -35 -124z" glyph-name="uniE033" unicode=""/><glyph d="M694 0l21 117q-106 -141 -275 -142q-178 0 -281.5 130.5t-103.5 332.5q0 154 54.5 299.5t173 250t276.5 104.5q223 0 299 -162l25 137h413l-188 -1067h-414zM610 334q88 0 142.5 69.5t54.5 167.5q0 72 -38 117t-112 45q-88 0 -143 -69.5t-55 -165.5q0 -72 38.5 -118 t112.5 -46zM395 1307q0 78 61.5 135t143.5 57q74 0 123 -49t49 -121q0 -78 -60.5 -134t-144.5 -56q-74 0 -123 48t-49 120zM815 1307q0 78 61.5 135t143.5 57q74 0 123 -49t49 -121q0 -78 -61.5 -134t-143.5 -56q-74 0 -123 48t-49 120z" glyph-name="uniE034" unicode=""/><glyph d="M694 0l21 117q-106 -141 -275 -142q-178 0 -281.5 130.5t-103.5 332.5q0 154 54.5 299.5t173 250t276.5 104.5q223 0 299 -162l25 137h413l-188 -1067h-414zM610 334q88 0 142.5 69.5t54.5 167.5q0 72 -38 117t-112 45q-88 0 -143 -69.5t-55 -165.5q0 -72 38.5 -118 t112.5 -46zM541 1368q0 119 85 204t208 85q109 0 178 -72t69 -172q0 -119 -85 -204t-208 -85q-109 0 -178 72t-69 172zM815 1470q-33 0 -57.5 -25.5t-24.5 -60.5q0 -31 20.5 -52t53.5 -21t57.5 25.5t24.5 60.5q0 31 -20.5 52t-53.5 21z" glyph-name="uniE035" unicode=""/><glyph d="M694 0l21 117q-106 -141 -275 -142q-178 0 -281.5 130.5t-103.5 332.5q0 154 54.5 299.5t173 250t276.5 104.5q223 0 299 -162l25 137h413l-188 -1067h-414zM610 334q88 0 142.5 69.5t54.5 167.5q0 72 -38 117t-112 45q-88 0 -143 -69.5t-55 -165.5q0 -72 38.5 -118 t112.5 -46zM1133 1468l-54 -294h-612l53 294h613z" glyph-name="uniE036" unicode=""/><glyph d="M694 0l21 117q-106 -141 -275 -142q-178 0 -281.5 130.5t-103.5 332.5q0 154 54.5 299.5t173 250t276.5 104.5q223 0 299 -162l25 137h413l-188 -1067h-414zM610 334q88 0 142.5 69.5t54.5 167.5q0 72 -38 117t-112 45q-88 0 -143 -69.5t-55 -165.5q0 -72 38.5 -118 t112.5 -46zM918 1520l241 -64q-111 -309 -360 -309q-139 0 -219 89t-86 220l249 64q0 -109 72 -109q68 0 103 109z" glyph-name="uniE037" unicode=""/><glyph d="M694 0l21 117q-106 -141 -275 -142q-178 0 -281.5 130.5t-103.5 332.5q0 154 54.5 299.5t173 250t276.5 104.5q223 0 299 -162l25 137h413l-188 -1067q-215 -145 -215 -238q0 -51 59 -51q23 0 47 6l9 -247q-49 -10 -93 -11q-123 0 -194.5 58.5t-71.5 150.5q0 186 260 332 h-215zM610 334q88 0 142.5 69.5t54.5 167.5q0 72 -38 117t-112 45q-88 0 -143 -69.5t-55 -165.5q0 -72 38.5 -118t112.5 -46z" glyph-name="uniE038" unicode=""/><glyph d="M1907 356l135 -252q-186 -129 -432 -129q-190 0 -315.5 74t-182.5 201l-43 -250h-330l23 137q-131 -162 -322 -162q-178 0 -281.5 130.5t-103.5 332.5q0 154 54.5 299.5t173 250t276.5 104.5q240 0 338 -177l29 152h329l-30 -170q172 195 452 195q219 0 344 -99.5 t125 -249.5q0 -162 -141 -263t-414 -101h-131q47 -98 203 -98q121 -1 244 75zM610 334q88 0 142.5 69.5t54.5 167.5q0 72 -38 117t-112 45q-88 0 -143 -69.5t-55 -165.5q0 -72 38.5 -118t112.5 -46zM1657 797q-66 0 -119 -46t-78 -133h41q250 0 250 107q0 72 -94 72z" glyph-name="uniE039" horiz-adv-x="2177" unicode=""/><glyph d="M1907 356l135 -252q-186 -129 -432 -129q-190 0 -315.5 74t-182.5 201l-43 -250h-330l23 137q-131 -162 -322 -162q-178 0 -281.5 130.5t-103.5 332.5q0 154 54.5 299.5t173 250t276.5 104.5q240 0 338 -177l29 152h329l-30 -170q172 195 452 195q219 0 344 -99.5 t125 -249.5q0 -162 -141 -263t-414 -101h-131q47 -98 203 -98q121 -1 244 75zM610 334q88 0 142.5 69.5t54.5 167.5q0 72 -38 117t-112 45q-88 0 -143 -69.5t-55 -165.5q0 -72 38.5 -118t112.5 -46zM1657 797q-66 0 -119 -46t-78 -133h41q250 0 250 107q0 72 -94 72z M1255 1126l-239 125l344 381l223 -239z" glyph-name="uniE040" horiz-adv-x="2177" unicode=""/><glyph d="M1194 1276l129 -236q-123 -70 -193 -131q49 -74 50 -172q0 -190 -142.5 -296.5t-359.5 -106.5q-150 0 -254 31q-55 -6 -55 -48q0 -49 102 -49h197q254 0 362.5 -91t108.5 -222q0 -106 -54.5 -184t-148.5 -119t-198.5 -59.5t-225.5 -18.5q-264 0 -397 75t-133 189 q0 133 127 201q-104 70 -105 190q0 90 57.5 159t151.5 106q-63 78 -63 190q0 190 140 299t359 109q174 0 301 -50q113 201 244 234zM669.5 819q-55.5 0 -92 -30.5t-36.5 -86.5q0 -96 116 -96q55 0 92 31t37 88q0 43 -30.5 68.5t-86 25.5zM655 -43h-180q-33 0 -90 4 q-39 -18 -39 -57q0 -70 197 -70q190 0 190 78q0 45 -78 45z" glyph-name="uniE044" horiz-adv-x="1255" unicode=""/><glyph d="M1194 1276l129 -236q-123 -70 -193 -131q49 -74 50 -172q0 -190 -142.5 -296.5t-359.5 -106.5q-150 0 -254 31q-55 -6 -55 -48q0 -49 102 -49h197q254 0 362.5 -91t108.5 -222q0 -106 -54.5 -184t-148.5 -119t-198.5 -59.5t-225.5 -18.5q-264 0 -397 75t-133 189 q0 133 127 201q-104 70 -105 190q0 90 57.5 159t151.5 106q-63 78 -63 190q0 190 140 299t359 109q174 0 301 -50q113 201 244 234zM669.5 819q-55.5 0 -92 -30.5t-36.5 -86.5q0 -96 116 -96q55 0 92 31t37 88q0 43 -30.5 68.5t-86 25.5zM655 -43h-180q-33 0 -90 4 q-39 -18 -39 -57q0 -70 197 -70q190 0 190 78q0 45 -78 45zM885 1520l241 -64q-111 -309 -360 -309q-139 0 -219 89t-86 220l250 64q0 -109 71 -109q68 0 103 109z" glyph-name="uniE045" horiz-adv-x="1255" unicode=""/><glyph d="M1194 1276l129 -236q-123 -70 -193 -131q49 -74 50 -172q0 -190 -142.5 -296.5t-359.5 -106.5q-150 0 -254 31q-55 -6 -55 -48q0 -49 102 -49h197q254 0 362.5 -91t108.5 -222q0 -106 -54.5 -184t-148.5 -119t-198.5 -59.5t-225.5 -18.5q-264 0 -397 75t-133 189 q0 133 127 201q-104 70 -105 190q0 90 57.5 159t151.5 106q-63 78 -63 190q0 190 140 299t359 109q174 0 301 -50q113 201 244 234zM669.5 819q-55.5 0 -92 -30.5t-36.5 -86.5q0 -96 116 -96q55 0 92 31t37 88q0 43 -30.5 68.5t-86 25.5zM655 -43h-180q-33 0 -90 4 q-39 -18 -39 -57q0 -70 197 -70q190 0 190 78q0 45 -78 45zM590 1307q0 78 61.5 135t143.5 57q74 0 123 -49t49 -121q0 -78 -61.5 -134t-143.5 -56q-74 0 -123 48t-49 120z" glyph-name="uniE046" horiz-adv-x="1255" unicode=""/><glyph d="M1194 1276l129 -236q-123 -70 -193 -131q49 -74 50 -172q0 -190 -142.5 -296.5t-359.5 -106.5q-150 0 -254 31q-55 -6 -55 -48q0 -49 102 -49h197q254 0 362.5 -91t108.5 -222q0 -106 -54.5 -184t-148.5 -119t-198.5 -59.5t-225.5 -18.5q-264 0 -397 75t-133 189 q0 133 127 201q-104 70 -105 190q0 90 57.5 159t151.5 106q-63 78 -63 190q0 190 140 299t359 109q174 0 301 -50q113 201 244 234zM669.5 819q-55.5 0 -92 -30.5t-36.5 -86.5q0 -96 116 -96q55 0 92 31t37 88q0 43 -30.5 68.5t-86 25.5zM655 -43h-180q-33 0 -90 4 q-39 -18 -39 -57q0 -70 197 -70q190 0 190 78q0 45 -78 45zM311 -1079l-94 127q135 90 166 170q-66 0 -106.5 45t-40.5 106q0 70 55 121t125 51q82 0 130 -49t48 -135q0 -125 -80 -240.5t-203 -195.5z" glyph-name="uniE047" horiz-adv-x="1255" unicode=""/><glyph d="M78 508l137 772l436 137l-63 -350h286l-61 -344h-285l-49 -274q-4 -25 -4 -35q0 -74 88 -74q49 0 129 27l78 -324q-164 -68 -309 -68q-397 0 -398 375q1 78 15 158zM231 -707l-94 127q137 90 166 170q-66 0 -106.5 45.5t-40.5 106.5q0 70 55 121t125 51q82 0 130 -49 t48 -135q0 -125 -80 -241t-203 -196z" glyph-name="uniE050" horiz-adv-x="858" unicode=""/><glyph d="M78 508l137 772l436 137l-63 -350h286l-61 -344h-285l-49 -274q-4 -25 -4 -35q0 -74 88 -74q49 0 129 27l78 -324q-164 -68 -309 -68q-397 0 -398 375q1 78 15 158zM807 1147l-94 127q135 90 166 170q-66 0 -107 45t-41 106q0 70 55.5 121t124.5 51q82 0 130.5 -49 t48.5 -135q0 -125 -80 -240.5t-203 -195.5z" glyph-name="uniE051" horiz-adv-x="858" unicode=""/><glyph d="M78 508l137 772l436 137l-63 -350h286l-61 -344h-285l-49 -274q-4 -25 -4 -35q0 -74 88 -74q49 0 129 27l78 -324q-164 -68 -309 -68q-41 0 -62 2l-32 -67q137 -53 137 -191q0 -113 -77 -183.5t-204 -70.5q-135 0 -270 82l123 189q96 -57 147 -58q61 0 62 58q0 27 -26 43 t-64 16l-39 66l98 149q-190 82 -191 340q1 78 15 158z" glyph-name="uniE052" horiz-adv-x="858" unicode=""/><glyph d="M78 508l137 772l436 137l-63 -350h286l-61 -344h-285l-14 -78h205l-31 -182h-207l-2 -14q-4 -25 -4 -35q0 -74 88 -74q49 0 129 27l78 -324q-164 -68 -309 -68q-397 0 -398 375q1 78 15 158z" glyph-name="uniE053" horiz-adv-x="858" unicode=""/><glyph d="M676 834q-96 0 -150.5 -97.5t-54.5 -206.5q0 -82 38 -132t112 -50q96 0 150 97.5t54 205.5q0 82 -37.5 132.5t-111.5 50.5zM76 504q0 279 172 490.5t448 211.5q248 0 386.5 -149.5t138.5 -378.5q0 -279 -172 -491t-449 -212q-248 0 -386 150t-138 379z" glyph-name="uniE100" horiz-adv-x="1275" unicode=""/><glyph d="M66 543l77 440l392 199h335l-208 -1182h-420l120 690z" glyph-name="uniE101" horiz-adv-x="864" unicode=""/><glyph d="M1085 350l-59 -350h-1026l51 297q342 156 490 248q37 23 57 37t56 43.5t53.5 61.5t17.5 63q0 80 -82 79q-96 0 -121 -180h-418q14 133 62.5 235.5t110 162t137 97.5t138 50t120.5 12q213 0 350 -116.5t137 -288.5q0 -285 -352 -451h278z" glyph-name="uniE102" horiz-adv-x="1208" unicode=""/><glyph d="M-90 -86l229 301q217 -135 361 -135q125 0 125 92q0 123 -293 123l57 315q166 0 243 49.5t77 126.5q0 39 -26 61.5t-67 22.5q-111 0 -124 -137h-402q2 123 51 217t129 148.5t172.5 81t190.5 26.5q211 0 352 -109.5t141 -285.5q0 -272 -288 -367q211 -94 211 -292 q0 -205 -155 -316.5t-392 -111.5q-313 0 -592 190z" glyph-name="uniE103" horiz-adv-x="1189" unicode=""/><glyph d="M950 -252h-395l43 252h-627l56 311l471 871h469l-498 -848h188l56 309l420 129l-78 -438h162l-60 -334h-162z" glyph-name="uniE104" horiz-adv-x="1286" unicode=""/><glyph d="M272 1182h873l-66 -373h-467l-26 -152q252 -27 368.5 -145.5t116.5 -288.5q0 -231 -148.5 -365t-408.5 -134q-307 0 -592 190l230 301q217 -135 352 -135q55 0 96 27.5t41 87.5q0 139 -332 139h-186z" glyph-name="uniE105" horiz-adv-x="1185" unicode=""/><glyph d="M1235 1434l-453 -461q168 -4 277.5 -126t109.5 -300q0 -240 -164.5 -406t-424.5 -166q-238 0 -381.5 143.5t-143.5 348.5q0 156 79 291t222 282l381 394h498zM633 682q-82 0 -139.5 -57.5t-57.5 -139.5q0 -68 43 -110.5t119 -42.5q78 0 135.5 57t57.5 139q0 66 -43 110 t-115 44z" glyph-name="uniE106" horiz-adv-x="1230" unicode=""/><glyph d="M90 786l70 396h991l-57 -334l-656 -1100h-497l651 1038h-502z" glyph-name="uniE107" horiz-adv-x="1079" unicode=""/><glyph d="M1188 430q0 -207 -155.5 -331t-405.5 -124q-258 0 -422 117t-164 303q0 139 79 243.5t226 152.5q-127 94 -127 247q0 186 140.5 303t369.5 117q233 0 379.5 -104.5t146.5 -276.5q0 -121 -63.5 -218t-177.5 -142q174 -105 174 -287zM612 303q90 0 134.5 51.5t44.5 120.5 q0 61 -40 99t-114 38q-86 0 -134 -51t-48 -119q0 -61 41.5 -100t115.5 -39zM725 887q63 0 105 43t42 104q0 49 -36.5 79t-102.5 30q-61 0 -103 -38t-42 -104q0 -51 37 -82.5t100 -31.5z" glyph-name="uniE108" horiz-adv-x="1277" unicode=""/><glyph d="M14 -252l453 461q-168 4 -277.5 126t-109.5 300q0 240 165 405.5t425 165.5q238 0 381 -143t143 -348q0 -156 -79 -291t-222 -283l-381 -393h-498zM616 500q82 0 139.5 57t57.5 139q0 68 -43 111t-119 43q-78 0 -135 -57.5t-57 -139.5q0 -66 42.5 -109.5t114.5 -43.5z " glyph-name="uniE109" horiz-adv-x="1228" unicode=""/><glyph d="M51 545q0 113 22.5 232.5t74 242.5t124 220t185 157.5t245.5 60.5q260 0 384 -158.5t124 -410.5q0 -113 -22.5 -232.5t-73.5 -242.5t-123.5 -220.5t-185.5 -158t-246 -60.5q-260 0 -384 159t-124 411zM688 1075q-63 0 -115.5 -93t-78 -213t-25.5 -226q0 -184 104 -185 q63 0 115.5 93.5t78.5 213t26 226.5q-1 184 -105 184z" glyph-name="uniE120" horiz-adv-x="1198" unicode=""/><glyph d="M184 795l80 440l400 199h333l-186 -1051h289l-68 -383h-987l68 383h278l101 563z" glyph-name="uniE121" horiz-adv-x="1198" unicode=""/><glyph d="M1096 373l-66 -373h-1053l58 326q356 215 547 385q199 176 198 290q0 41 -24.5 67t-69.5 26q-119 0 -145 -209h-412q33 293 198 433t388 140q217 0 352 -120.5t135 -307.5q0 -303 -366 -567q-78 -55 -138 -90h398z" glyph-name="uniE122" horiz-adv-x="1198" unicode=""/><glyph d="M-39 166l229 301q217 -135 361 -135q125 0 125 92q0 123 -293 123l57 315q166 0 243 49.5t77 126.5q0 39 -25.5 61.5t-66.5 22.5q-111 0 -125 -137h-402q2 123 51.5 217t129 148.5t172 81t190.5 26.5q211 0 352.5 -109.5t141.5 -285.5q0 -272 -289 -367q211 -94 211 -293 q0 -205 -154.5 -316.5t-392.5 -111.5q-313 1 -592 191z" glyph-name="uniE123" horiz-adv-x="1198" unicode=""/><glyph d="M932 0h-393l45 252h-580l53 311l416 871h469l-457 -848h158l55 309l416 129l-78 -438h125l-59 -334h-125z" glyph-name="uniE124" horiz-adv-x="1198" unicode=""/><glyph d="M322 1434h872l-66 -373h-466l-27 -152q252 -27 368.5 -145.5t116.5 -288.5q0 -231 -148.5 -365.5t-408.5 -134.5q-307 0 -592 191l230 301q217 -135 352 -135q55 0 96 27.5t41 86.5q0 139 -332 140h-186z" glyph-name="uniE125" horiz-adv-x="1198" unicode=""/><glyph d="M1214 1434l-452 -461q168 -4 277.5 -126t109.5 -300q0 -240 -165 -406t-425 -166q-238 0 -381 143.5t-143 348.5q0 156 79 291t222 282l381 394h497zM612 682q-82 0 -139 -57.5t-57 -139.5q0 -68 43 -110.5t119 -42.5q78 0 135 57t57 139q0 66 -43 110t-115 44z" glyph-name="uniE126" horiz-adv-x="1198" unicode=""/><glyph d="M190 1038l70 396h995l-57 -334l-661 -1100h-494l653 1038h-506z" glyph-name="uniE127" horiz-adv-x="1198" unicode=""/><glyph d="M1149 430q0 -207 -155.5 -331t-405.5 -124q-258 0 -422 117t-164 303q0 139 79 243.5t226 152.5q-127 94 -127 247q0 186 140.5 303t369.5 117q233 0 380 -104.5t147 -276.5q0 -121 -63.5 -218t-178.5 -142q174 -105 174 -287zM573 303q90 0 134.5 51.5t44.5 120.5 q0 61 -40 99t-114 38q-86 0 -134 -51t-48 -119q0 -61 41.5 -100t115.5 -39zM686.5 887q63.5 0 105.5 43t42 104q0 49 -37 79t-103 30q-61 0 -103 -38t-42 -104q0 -51 37 -82.5t100.5 -31.5z" glyph-name="uniE128" horiz-adv-x="1198" unicode=""/><glyph d="M45 0l453 461q-168 4 -277.5 126t-109.5 300q0 240 164.5 405.5t424.5 165.5q238 0 381.5 -143.5t143.5 -347.5q0 -156 -79 -291t-222 -283l-381 -393h-498zM647 752q82 0 139.5 57t57.5 139q0 68 -43 111t-119 43q-78 0 -135.5 -57.5t-57.5 -139.5q0 -66 43 -109.5 t115 -43.5z" glyph-name="uniE129" horiz-adv-x="1198" unicode=""/><glyph d="M930 393l203 -270q-195 -147 -402 -148q-254 0 -407.5 134.5t-186.5 359.5h-143l33 197h104q4 57 8 84h-98l35 198h114q88 246 264.5 378t401.5 132q317 0 487 -235l-296 -222q-70 94 -195 95q-150 0 -234 -148h408l-88 -198h-389q-10 -51 -12 -84h366l-92 -197h-256 q51 -131 217 -131q86 0 158 55z" glyph-name="uniE140" horiz-adv-x="1198" unicode=""/><glyph d="M47 0l49 297q123 80 178 207h-168l52 303h135q-41 160 -41 223q0 193 135 310.5t334 117.5q182 0 322.5 -104.5t140.5 -311.5q0 -45 -10 -110h-373q8 35 8 69q0 100 -76 101q-96 0 -96 -123q0 -49 29 -172h290l-51 -303h-256q-35 -88 -96 -152h491l-59 -352h-938z" glyph-name="uniE141" horiz-adv-x="1198" unicode=""/><glyph d="M662 989l225 445h448l-399 -654h186l-41 -233h-280l-15 -84h281l-41 -234h-281l-40 -229h-400l39 229h-283l41 234h283l14 84h-282l41 233h188l-164 654h412z" glyph-name="uniE142" horiz-adv-x="1198" unicode=""/><glyph d="M324 -145l36 213q-139 41 -219 131t-84 217l375 78v-19q0 -70 42 -108.5t118 -38.5q47 0 84 20.5t37 65.5q0 12 -4 23.5t-14.5 22.5t-20.5 18t-29.5 18.5t-33 18.5t-41 20.5t-44.5 21.5q-352 180 -352 432q0 174 114.5 278.5t305.5 123.5l35 190h307l-39 -223 q268 -98 268 -412v-10h-370v14q0 70 -33 112t-94 42q-45 0 -77 -22.5t-32 -65.5q0 -41 36 -73t112 -73q82 -43 123.5 -67.5t102 -67.5t90.5 -81t52.5 -93t22.5 -119q0 -166 -112 -278.5t-322 -124.5l-33 -184h-307z" glyph-name="uniE143" horiz-adv-x="1198" unicode=""/><glyph d="M217 856l33 188h325q-25 123 -155 123h-148l47 267h951l-84 -187h-283q63 -86 82 -203h215l-84 -188h-135q-29 -154 -112 -265.5t-214 -166.5l260 -424h-473l-288 489l41 240h161q139 0 193 127h-332z" glyph-name="uniE144" horiz-adv-x="1198" unicode=""/><glyph d="M74 758l41 243l172 52l67 381h420l-43 -248l354 106l-43 -241l-354 -109l-14 -80l356 107l-43 -242l-356 -106l-43 -248h8q80 0 113.5 51t72.5 182l398 -74q-78 -295 -207 -413.5t-389 -118.5h-482l86 487l-172 -51l43 242l170 51l15 80z" glyph-name="uniE145" horiz-adv-x="1198" unicode=""/><glyph d="M428 0h-274l8 383h-172l47 279h131l2 75h-117l47 281h76l10 416h308l-54 -734l193 734h254l-70 -711l197 711h317l-137 -416h74l-47 -281h-121l-25 -75h129l-47 -279h-174l-125 -383h-274l67 813z" glyph-name="uniE146" horiz-adv-x="1198" unicode=""/><glyph d="M10 178l45 246h103l12 68h-102l57 323h102l109 619h409q254 0 376 -116t122 -296q0 -231 -141 -380.5t-377 -149.5h-180l-13 -68h259l-46 -246h-256l-30 -178h-375l31 178h-105zM600 815h100q70 0 115 47t45 123q0 55 -36 90t-105 35h-68z" glyph-name="uniE147" horiz-adv-x="1198" unicode=""/><glyph d="M596 1714l276 -215q-172 -229 -266 -522t-94 -590q0 -283 80 -506l-346 -162q-164 324 -164 709q0 344 132 687t382 599z" glyph-name="uniE300" horiz-adv-x="751" unicode=""/><glyph d="M221 -281l-276 215q172 229 266 522.5t94 590.5q0 283 -80 505l346 162q164 -324 164 -708q0 -344 -132 -687.5t-382 -599.5z" glyph-name="uniE301" horiz-adv-x="751" unicode=""/><glyph d="M817 893l-61 -352h-645l63 352h643z" glyph-name="uniE302" horiz-adv-x="866" unicode=""/><glyph d="M1112 893l-61 -352h-940l63 352h938z" glyph-name="uniE303" horiz-adv-x="1161" unicode=""/><glyph d="M1386 893l-61 -352h-1214l63 352h1212z" glyph-name="uniE304" horiz-adv-x="1435" unicode=""/><glyph d="M682 123l-53 -305h-627l317 1800h627l-55 -305h-234l-206 -1190h231z" glyph-name="uniE305" horiz-adv-x="829" unicode=""/><glyph d="M213 1313l53 305h627l-318 -1800h-626l55 305h234l206 1190h-231z" glyph-name="uniE306" horiz-adv-x="829" unicode=""/><glyph d="M57 569l52 295h57q35 0 54.5 3t48 17.5t47 50.5t28.5 93l49 283q29 156 127 231.5t291 75.5h227l-53 -305h-88q-61 0 -90 -30t-41 -97l-16 -101q-10 -63 -16.5 -93.5t-19 -78t-25.5 -69t-36.5 -50t-54.5 -42t-75 -25.5t-101 -16q113 -25 162 -82.5t49 -153.5 q0 -53 -12 -121l-19 -98q-4 -29 -4 -41q0 -92 98 -92h80l-55 -305h-146q-182 0 -283.5 74.5t-101.5 218.5q0 37 7 77l34 203q6 31 7 53q0 125 -142 125h-39z" glyph-name="uniE307" horiz-adv-x="927" unicode=""/><glyph d="M934 866l-51 -295h-58q-35 0 -54 -3t-48 -17t-47.5 -50t-28.5 -93l-49 -283q-29 -156 -127 -231.5t-291 -75.5h-227l53 305h88q61 0 90 29.5t41 97.5l17 100q10 63 16 94t18.5 78t25.5 68.5t36.5 50.5t54.5 42t75 25.5t101 16.5q-113 25 -162 82t-49 154q0 53 13 120 l18 99q4 29 4 41q0 92 -98 92h-80l55 305h146q182 0 283.5 -75t101.5 -218q0 -39 -6 -78l-35 -203q-6 -31 -6 -53q0 -125 141 -125h39z" glyph-name="uniE308" horiz-adv-x="925" unicode=""/><glyph d="M326 1655h295l-330 -1874h-295z" glyph-name="uniE309" horiz-adv-x="552" unicode=""/><glyph d="M326 1655h295l-142 -811h-295zM137 586h295l-141 -805h-295z" glyph-name="uniE310" horiz-adv-x="552" unicode=""/><glyph d="M473 680l127 -287l-268 -151l-244 473l410 477l229 -191z" glyph-name="uniE311" horiz-adv-x="714" unicode=""/><glyph d="M309 754l-127 286l269 152l243 -473l-409 -477l-230 190z" glyph-name="uniE312" horiz-adv-x="716" unicode=""/><glyph d="M473 680l127 -287l-268 -151l-244 473l410 477l229 -191zM995 680l127 -287l-268 -151l-244 473l410 477l229 -191z" glyph-name="uniE313" horiz-adv-x="1236" unicode=""/><glyph d="M309 754l-127 286l269 152l243 -473l-409 -477l-230 190zM831 754l-126 286l268 152l244 -473l-410 -477l-229 190z" glyph-name="uniE314" horiz-adv-x="1239" unicode=""/><glyph d="M131 694q0 117 86 203t209 86q111 0 181.5 -71.5t70.5 -172.5q0 -117 -86 -202.5t-209 -85.5q-111 0 -181.5 71.5t-70.5 171.5z" glyph-name="uniE315" horiz-adv-x="753" unicode=""/><glyph d="M100 692q0 102 79 175t186 73q96 0 159.5 -62.5t63.5 -154.5q0 -102 -79 -175t-185 -73q-96 0 -160 62.5t-64 154.5z" glyph-name="uniE316" horiz-adv-x="632" unicode=""/><glyph d="M866 246l-243 -203l-543 672l780 669l205 -241l-299 -258h620l-61 -340h-702z" glyph-name="uniE330" horiz-adv-x="1392" unicode=""/><glyph d="M1192 985l201 -252l-779 -670l-544 670l243 211l236 -293l125 711h338l-111 -629z" glyph-name="uniE331" horiz-adv-x="1392" unicode=""/><glyph d="M264 440l-201 252l779 670l544 -670l-243 -211l-236 293l-125 -711h-338l111 629z" glyph-name="uniE332" horiz-adv-x="1392" unicode=""/><glyph d="M590 1182l244 202l542 -671l-780 -670l-205 242l299 258h-620l59 340h705z" glyph-name="uniE333" horiz-adv-x="1392" unicode=""/><glyph d="M416 430h-324l176 1004h979l-55 -324h-453l445 -553l-260 -209l-428 535z" glyph-name="uniE334" horiz-adv-x="1251" unicode=""/><glyph d="M258 1110l57 324h981l-176 -1004h-321l73 416l-571 -498l-217 252l586 510h-412z" glyph-name="uniE335" horiz-adv-x="1247" unicode=""/><glyph d="M553 1163l154 271h335l-264 -373h133l-28 -160h-213l-13 -63h213l-28 -158h-211l-21 -119h-295l21 119h-213l29 158h210l13 63h-213l28 160h132l-132 373h299z" glyph-name="uniE400" horiz-adv-x="917" unicode=""/><glyph d="M193 1061l34 207h144l57 166h213l-57 -166h106l58 166h213l-58 -166h107l-35 -207h-144l-43 -127h111l-35 -207h-145l-57 -166h-213l57 166h-107l-57 -166h-211l55 166h-104l37 207h139l43 127h-108zM512 1061l-43 -127h106l43 127h-106z" glyph-name="uniE401" horiz-adv-x="927" unicode=""/><glyph d="M406 561h-224l779 873h223zM152 1192q0 106 74.5 181t183.5 75q100 0 160.5 -61.5t60.5 -149.5q0 -106 -75 -181t-183 -75q-100 0 -160.5 61.5t-60.5 149.5zM399 1284q-31 0 -52 -22.5t-21 -57.5q0 -27 15 -43t42 -16q31 0 52.5 22.5t21.5 57.5q0 27 -15.5 43t-42.5 16z M735 772q0 106 75 181t183 75q100 0 160.5 -61.5t60.5 -149.5q0 -106 -74.5 -181t-183.5 -75q-100 0 -160.5 61.5t-60.5 149.5zM983 864q-31 0 -52.5 -22.5t-21.5 -57.5q0 -27 15.5 -43t42.5 -16q31 0 52 22.5t21 57.5q0 27 -15 43t-42 16z" glyph-name="uniE402" horiz-adv-x="1204" unicode=""/><glyph d="M82 561l31 187q72 43 104 116h-100l33 191h86q-29 104 -29 135q0 111 83 184.5t206 73.5q119 0 210 -62.5t91 -191.5q0 -33 -6 -70h-238q2 23 2 37q0 63 -51 64q-25 0 -40 -20.5t-15 -51.5q0 -23 22 -98h182l-32 -191h-170q-23 -47 -62 -84h324l-39 -219h-592z" glyph-name="uniE403" horiz-adv-x="731" unicode=""/><glyph d="M709 965l-50 -107h-172q37 -72 127 -72q68 0 115 45l141 -184q-123 -102 -272 -102q-156 0 -260.5 87t-132.5 226h-111l19 107h84l4 47h-80l20 108h86q53 152 176 240t267 88q199 0 315 -154l-203 -153q-37 63 -127 63t-143 -84h270l-51 -108h-258l-6 -47h242z" glyph-name="uniE404" horiz-adv-x="884" unicode=""/><glyph d="M164 1081l20 117h222q-16 63 -93 64h-118l30 172h598l-53 -115h-162q39 -59 45 -121h129l-55 -117h-76q-18 -92 -76.5 -158.5t-146.5 -95.5l176 -266h-291l-188 295l-2 2l29 154h124q80 0 115 69h-227z" glyph-name="uniE405" horiz-adv-x="702" unicode=""/><glyph d="M154 1042l28 162l111 33l35 197h247l-20 -119l244 71l-29 -163l-244 -72l-10 -53l246 71l-29 -159l-246 -72l-24 -147h26q61 0 87 30.5t49 106.5l239 -41q-59 -193 -144 -259.5t-263 -66.5h-283l51 299l-108 -33l26 164l111 31l10 53z" glyph-name="uniE406" horiz-adv-x="835" unicode=""/><glyph d="M539 561h-285l2 223h-154l31 179h125l2 49h-117l31 176h88l4 246h248l-25 -529l168 529h242l-41 -553l170 553h260l-82 -246h90l-30 -176h-119l-17 -49h125l-30 -179h-154l-74 -223h-311l27 510z" glyph-name="uniE407" horiz-adv-x="1239" unicode=""/><glyph d="M90 680l31 174h96l8 49h-94l33 203h96l59 328h312q147 0 219 -67t72 -171q0 -127 -83 -210t-231 -83h-131l-8 -49h180l-31 -174h-180l-20 -119h-252l20 119h-96zM512 1106h84q72 0 72 63q0 57 -70 58h-63z" glyph-name="uniE408" horiz-adv-x="841" unicode=""/><glyph d="M94 326l43 252h692l-45 -252h-690zM164 1004q0 180 128 305t302 125q172 0 271.5 -104.5t99.5 -254.5q0 -180 -128 -305t-302 -125q-172 0 -271.5 104.5t-99.5 254.5zM580 1178q-57 0 -94 -49.5t-37 -116.5q0 -49 26.5 -80t73.5 -31q57 0 94 49t37 117q0 49 -26.5 80 t-73.5 31z" glyph-name="uniE409" horiz-adv-x="948" unicode=""/><glyph d="M106 326l44 252h747l-45 -252h-746zM528 1434q158 0 224 -103l16 84h279l-134 -753h-278l8 53q-74 -70 -178 -70q-150 0 -226.5 90t-76.5 232q0 182 102 324.5t264 142.5zM563 893q70 0 108 56.5t38 113.5q0 53 -31 88t-88 35q-63 0 -104.5 -52.5t-41.5 -111.5 q0 -53 33 -91t86 -38z" glyph-name="uniE410" horiz-adv-x="1009" unicode=""/><glyph d="M109 326l43 252h747l-45 -252h-745zM528 1434q158 0 224 -103l16 84h279l-134 -753h-278l8 53q-74 -70 -178 -70q-150 0 -226.5 90t-76.5 232q0 182 102 324.5t264 142.5zM563 893q70 0 108 56.5t38 113.5q0 53 -31 88t-88 35q-63 0 -104.5 -52.5t-41.5 -111.5 q0 -53 33 -91t86 -38z" glyph-name="uniE411" horiz-adv-x="1009" unicode=""/><glyph d="M184 655q0 166 89 288t249 122q147 0 217 -80t70 -207q0 -166 -89 -287.5t-249 -121.5q-147 0 -217 79.5t-70 206.5zM518 885q-72 0 -105.5 -72t-33.5 -149q0 -115 96 -115q72 0 105.5 71.5t33.5 149.5q0 115 -96 115z" glyph-name="uniE450" horiz-adv-x="743" unicode=""/><glyph d="M84 760l37 198l201 93h149l-119 -668h-192l78 446z" glyph-name="uniE451" horiz-adv-x="460" unicode=""/><glyph d="M598 565l-33 -182h-528l26 149q381 217 381 306q0 23 -16 39t-43 16q-66 0 -82 -98h-192q14 139 97 204.5t189.5 65.5t176 -59.5t69.5 -149.5q0 -164 -229 -291h184z" glyph-name="uniE452" horiz-adv-x="655" unicode=""/><glyph d="M33 463l121 147q113 -61 168 -61q70 0 69 39q0 27 -37 43t-112 14l24 133q158 0 158 74q0 20 -15.5 34.5t-39.5 14.5q-55 0 -66 -63h-188q4 66 32.5 113.5t70.5 70t80 33t75 10.5q109 0 181.5 -53.5t72.5 -134.5q0 -115 -121 -175q88 -45 88 -131q0 -90 -72.5 -146 t-199.5 -56q-156 0 -289 94z" glyph-name="uniE453" horiz-adv-x="645" unicode=""/><glyph d="M530 383h-194l20 117h-317l24 143l240 408h221l-233 -381h94l23 125l204 57l-32 -182h92l-31 -170h-90z" glyph-name="uniE454" horiz-adv-x="686" unicode=""/><glyph d="M190 1051h439l-31 -174h-252l-12 -68q129 -8 191.5 -64.5t62.5 -140.5q0 -92 -66.5 -163.5t-208.5 -71.5q-156 0 -288 94l118 147q113 -61 166 -61q74 0 74 49q0 61 -150 61h-112z" glyph-name="uniE455" horiz-adv-x="630" unicode=""/><glyph d="M621 1051l-197 -199q84 -12 134 -71.5t50 -137.5q0 -115 -82 -194.5t-204 -79.5q-115 0 -187 68.5t-72 162.5q0 125 127 248l207 203h224zM342 713q-41 0 -68.5 -27t-27.5 -65q0 -33 22.5 -56.5t59.5 -23.5q49 0 72.5 28.5t23.5 63.5q0 33 -22.5 56.5t-59.5 23.5z" glyph-name="uniE456" horiz-adv-x="638" unicode=""/><glyph d="M106 866l31 185h496l-27 -158l-330 -510h-231l324 483h-263z" glyph-name="uniE457" horiz-adv-x="585" unicode=""/><glyph d="M627 586q0 -78 -49.5 -129t-108.5 -69.5t-121 -18.5q-125 0 -206 58t-81 144q0 63 37 110.5t101 70.5q-59 47 -60 112q0 94 79 147.5t179 53.5q111 0 182.5 -52t71.5 -130q0 -115 -102 -162q78 -47 78 -135zM344 522q39 0 65.5 22.5t26.5 55.5q0 29 -21.5 48.5 t-66.5 19.5q-35 0 -60.5 -20.5t-25.5 -55.5q0 -27 21.5 -48.5t60.5 -21.5zM393 801q35 0 54.5 20.5t19.5 40.5q0 57 -70 58q-37 0 -55 -19.5t-18 -44.5q0 -23 17 -39t52 -16z" glyph-name="uniE458" horiz-adv-x="673" unicode=""/><glyph d="M84 383l197 199q-84 12 -134.5 71.5t-50.5 137.5q0 115 82 194.5t205 79.5q115 0 186.5 -68.5t71.5 -162.5q0 -125 -127 -248l-207 -203h-223zM362 721q41 0 69 26.5t28 65.5q0 33 -22.5 56.5t-59.5 23.5q-49 0 -72.5 -28.5t-23.5 -63.5q0 -33 22 -56.5t59 -23.5z" glyph-name="uniE459" horiz-adv-x="641" unicode=""/><glyph d="M27 350q0 80 21.5 167t66.5 175t132 144.5t199 56.5q176 0 261.5 -100.5t85.5 -257.5q0 -80 -21.5 -167t-67 -175.5t-132.5 -144.5t-199 -56q-176 0 -261 100t-85 258zM438 641q-63 0 -98 -98.5t-35 -184.5q0 -115 76 -114q63 0 98 98t35 182q0 117 -76 117z" glyph-name="uniE500" horiz-adv-x="851" unicode=""/><glyph d="M104 6l93 526l-168 -83l55 311l242 119h227l-154 -873h-295z" glyph-name="uniE501" horiz-adv-x="575" unicode=""/><glyph d="M655 250l-43 -244h-641l37 209q252 164 357 272q72 78 71.5 123t-41.5 45q-59 0 -76 -123h-262q12 109 53.5 186t97.5 111.5t105 49t97 14.5q137 0 220 -72.5t83 -185.5q0 -162 -166 -311q-47 -41 -94 -74h202z" glyph-name="uniE502" horiz-adv-x="765" unicode=""/><glyph d="M215 344l31 182q190 0 190 99q0 23 -14 37t-35 14q-59 0 -68 -82h-251q4 90 40.5 153.5t92 93t103.5 41t95 11.5q125 0 212 -69.5t87 -176.5q0 -158 -143 -221q96 -57 96 -160q0 -119 -90 -196.5t-246 -77.5q-197 0 -354 114l168 199q111 -76 182 -76q70 0 70 52 q0 63 -166 63z" glyph-name="uniE503" horiz-adv-x="753" unicode=""/><glyph d="M586 6h-254l24 144h-385l35 204l277 525h301l-277 -490h90l29 168l270 78l-43 -246h90l-43 -239h-90z" glyph-name="uniE504" horiz-adv-x="804" unicode=""/><glyph d="M162 877h543l-43 -242h-291l-15 -76q150 -12 224.5 -86t74.5 -178q0 -131 -88 -218t-254 -87q-199 0 -358 114l154 189q111 -80 202 -80q76 0 76 66q0 78 -164 77h-155z" glyph-name="uniE505" horiz-adv-x="747" unicode=""/><glyph d="M723 877l-268 -289q104 -6 167.5 -72.5t63.5 -169.5q0 -141 -102.5 -248.5t-252 -107.5t-237.5 89t-88 214q0 164 184 348l230 236h303zM354 416q-41 0 -68.5 -32t-27.5 -77q0 -35 21.5 -59.5t60.5 -24.5q35 0 64.5 32t29.5 81q0 33 -21.5 56.5t-58.5 23.5z" glyph-name="uniE506" horiz-adv-x="757" unicode=""/><glyph d="M57 623l45 256h596l-39 -217l-370 -656h-316l371 617h-287z" glyph-name="uniE507" horiz-adv-x="673" unicode=""/><glyph d="M711 252q0 -125 -98.5 -192.5t-241.5 -67.5q-166 0 -269.5 67.5t-103.5 180.5q0 84 50 147.5t140 93.5q-88 55 -88 150q0 115 93.5 188.5t224.5 73.5q143 0 237.5 -68.5t94.5 -175.5q0 -156 -152 -209q113 -71 113 -188zM358 197q39 0 66 26.5t27 65.5q0 33 -22.5 57.5 t-59.5 24.5q-41 0 -69 -28t-28 -69q0 -33 22.5 -55t63.5 -22zM418 553q31 0 55.5 22.5t24.5 57.5q0 25 -19.5 42t-52.5 17q-31 0 -55.5 -21.5t-24.5 -56.5q0 -27 18.5 -44t53.5 -17z" glyph-name="uniE508" horiz-adv-x="811" unicode=""/><glyph d="M4 6l268 289q-104 6 -167.5 72.5t-63.5 169.5q0 141 102.5 248.5t252 107.5t237.5 -89t88 -214q0 -164 -184 -348l-230 -236h-303zM373 467q41 0 68.5 31.5t27.5 76.5q0 35 -21.5 59.5t-60.5 24.5q-35 0 -64.5 -31.5t-29.5 -80.5q0 -33 21.5 -56.5t58.5 -23.5z" glyph-name="uniE509" horiz-adv-x="757" unicode=""/><glyph d="M176 1196q0 80 21.5 167t66.5 175t132 144.5t200 56.5q176 0 261 -100.5t85 -258.5q0 -80 -21.5 -167t-66.5 -175t-132 -144t-200 -56q-176 0 -261 100t-85 258zM588 1487q-63 0 -98 -98.5t-35 -184.5q0 -115 75 -114q63 0 98.5 98t35.5 182q0 117 -76 117z" glyph-name="uniE520" horiz-adv-x="851" unicode=""/><glyph d="M254 854l92 526l-168 -84l55 312l242 118h227l-153 -872h-295z" glyph-name="uniE521" horiz-adv-x="575" unicode=""/><glyph d="M805 1098l-43 -244h-641l37 209q252 164 356 272q72 78 72 123t-41 45q-59 0 -76 -123h-262q12 109 53 185.5t97.5 111.5t105.5 49.5t96 14.5q137 0 220 -73t83 -185q0 -162 -166 -312q-47 -41 -94 -73h203z" glyph-name="uniE522" horiz-adv-x="765" unicode=""/><glyph d="M365 1190l30 182q190 0 191 98q0 23 -14.5 37.5t-34.5 14.5q-59 0 -68 -82h-252q4 90 41 153.5t92.5 93t103.5 41t95 11.5q125 0 212 -70t87 -176q0 -158 -143 -221q96 -57 96 -160q0 -119 -90 -196.5t-246 -77.5q-197 0 -354 114l168 199q111 -76 182 -76q70 0 69 51 q1 64 -165 64z" glyph-name="uniE523" horiz-adv-x="753" unicode=""/><glyph d="M735 854h-254l25 143h-385l35 205l276 524h301l-276 -489h90l28 168l271 78l-43 -246h90l-43 -240h-90z" glyph-name="uniE524" horiz-adv-x="804" unicode=""/><glyph d="M311 1724h543l-43 -241h-291l-14 -76q150 -12 224.5 -86t74.5 -178q0 -131 -88 -218t-254 -87q-199 0 -359 114l154 189q111 -80 203 -80q76 0 76 65q0 78 -164 78h-156z" glyph-name="uniE525" horiz-adv-x="747" unicode=""/><glyph d="M872 1726l-268 -288q104 -6 168 -73t64 -169q0 -141 -102.5 -248.5t-252 -107.5t-237.5 89t-88 214q0 164 184 348l229 235h303zM504 1266q-41 0 -68.5 -32t-27.5 -77q0 -35 21.5 -59.5t59.5 -24.5q35 0 65 32t30 81q0 33 -21.5 56.5t-58.5 23.5z" glyph-name="uniE526" horiz-adv-x="757" unicode=""/><glyph d="M207 1470l45 256h596l-39 -217l-371 -655h-315l371 616h-287z" glyph-name="uniE527" horiz-adv-x="673" unicode=""/><glyph d="M860 1100q0 -125 -98 -192.5t-242 -67.5q-166 0 -269.5 67.5t-103.5 179.5q0 84 50.5 147.5t140.5 94.5q-88 55 -88 150q0 115 93 188.5t224 73.5q143 0 237.5 -68.5t94.5 -175.5q0 -156 -151 -209q112 -71 112 -188zM508 1044q41 0 66.5 27t25.5 66q0 33 -22.5 57.5 t-59.5 24.5q-41 0 -68.5 -28t-27.5 -69q0 -33 22.5 -55.5t63.5 -22.5zM567 1401q31 0 55.5 22.5t24.5 57.5q0 25 -19.5 42t-52.5 17q-31 0 -55 -21.5t-24 -56.5q0 -27 18 -44t53 -17z" glyph-name="uniE528" horiz-adv-x="811" unicode=""/><glyph d="M154 854l268 289q-104 6 -168 72.5t-64 168.5q0 141 102.5 249t252 108t237.5 -89t88 -214q0 -164 -184 -348l-229 -236h-303zM522 1315q41 0 68.5 31.5t27.5 76.5q0 35 -21.5 59.5t-59.5 24.5q-35 0 -65 -31.5t-30 -80.5q0 -33 21.5 -56.5t58.5 -23.5z" glyph-name="uniE529" horiz-adv-x="757" unicode=""/><glyph d="M14 309l187 150q-12 45 -13 96q0 106 60 213l-123 162l266 207l127 -166q61 14 109 14q66 0 131 -20l211 172l211 -267l-187 -149q12 -45 13 -96q0 -106 -60 -213l123 -162l-266 -207l-127 166q-61 -14 -109 -14q-66 0 -131 20l-211 -172zM610 733q-61 0 -102 -45 t-41 -117q0 -53 30.5 -89t86.5 -36q61 0 102 45.5t41 116.5q0 53 -31 89t-86 36z" glyph-name="uniE600" horiz-adv-x="1173" unicode=""/><glyph d="M158 684l49 264h194l80 234h275l-80 -234h155l80 234h275l-80 -234h149l-47 -264h-192l-64 -186h154l-47 -265h-197l-80 -233h-274l80 233h-156l-80 -233h-272l78 233h-148l47 265h191l63 186h-153zM586 684l-64 -186h156l63 186h-155z" glyph-name="uniE601" horiz-adv-x="1243" unicode=""/><glyph d="M268 -117l31 174q-125 37 -194.5 116t-73.5 181l321 49q0 -123 158 -122q86 0 86 61q0 14 -8 25.5t-26.5 21.5t-36 18.5t-50.5 22.5t-55 27q-145 70 -222 150.5t-77 199.5q0 139 99 234.5t272 107.5l26 149h270l-32 -186q231 -82 231 -315v-25h-319v8q0 119 -123 119 q-88 0 -88 -61q0 -31 25.5 -50.5t107.5 -58.5q72 -35 111.5 -56.5t92 -56t78 -66.5t45 -77t19.5 -98q0 -152 -100.5 -242t-270.5 -100l-26 -150h-271z" glyph-name="uniE602" horiz-adv-x="1030" unicode=""/><glyph d="M111 864q0 139 103 240.5t247 101.5q131 0 211 -85t80 -203q0 -139 -102.5 -241t-246.5 -102q-133 0 -212.5 84t-79.5 205zM440 983q-37 0 -65.5 -30.5t-28.5 -69.5q0 -37 20.5 -60.5t55.5 -23.5q37 0 65.5 30.5t28.5 69.5q0 37 -20.5 60.5t-55.5 23.5zM377 0h-275 l1067 1182h275zM791 264q0 139 103 240.5t247 101.5q131 0 211 -85t80 -204q0 -139 -102.5 -240.5t-246.5 -101.5q-133 0 -212.5 84t-79.5 205zM1120 383q-37 0 -65.5 -30.5t-28.5 -69.5q0 -37 20.5 -60.5t55.5 -23.5q37 0 65.5 30.5t28.5 69.5q0 37 -20.5 60.5t-55.5 23.5z " glyph-name="uniE603" horiz-adv-x="1523" unicode=""/><glyph d="M307 0l27 162q-123 47 -190.5 151.5t-67.5 235.5q0 180 115.5 320.5t297.5 172.5l25 140h268l-28 -164q96 -39 157.5 -114t81.5 -167l-307 -102q-8 49 -41 81t-88 32q-59 0 -105 -51.5t-46 -127.5q0 -61 31.5 -98t94.5 -37q92 0 146 113l291 -103q-53 -121 -150.5 -202.5 t-220.5 -104.5l-23 -137h-268z" glyph-name="uniE604" horiz-adv-x="1026" unicode=""/><glyph d="M16 0l45 258q88 63 132 152h-134l43 243h123q-4 20 -16 58.5t-19.5 72t-7.5 66.5q0 156 112 256t284 100t282.5 -92t110.5 -258q0 -41 -8 -92h-320q6 31 6 53q0 82 -63 82q-33 0 -53.5 -26.5t-20.5 -71.5q0 -20 4 -45t12.5 -55.5t12.5 -47.5h235l-43 -243h-219 q-25 -53 -72 -107h418l-53 -303h-791z" glyph-name="uniE605" horiz-adv-x="993" unicode=""/><glyph d="M641 788l248 394h407l-364 -516h180l-37 -213h-289l-12 -70h291l-39 -213h-289l-28 -170h-381l28 170h-286l39 213h284l13 70h-287l37 213h184l-182 516h372z" glyph-name="uniE606" horiz-adv-x="1226" unicode=""/><glyph d="M111 864q0 139 103 240.5t247 101.5q131 0 211 -85t80 -203q0 -139 -102.5 -241t-246.5 -102q-133 0 -212.5 84t-79.5 205zM440 983q-37 0 -65.5 -30.5t-28.5 -69.5q0 -37 20.5 -60.5t55.5 -23.5q37 0 65.5 30.5t28.5 69.5q0 37 -20.5 60.5t-55.5 23.5zM377 0h-275 l1067 1182h275zM791 264q0 139 103 240.5t247 101.5q131 0 211 -85t80 -204q0 -139 -102.5 -240.5t-246.5 -101.5q-133 0 -212.5 84t-79.5 205zM1120 383q-37 0 -65.5 -30.5t-28.5 -69.5q0 -37 20.5 -60.5t55.5 -23.5q37 0 65.5 30.5t28.5 69.5q0 37 -20.5 60.5t-55.5 23.5z M1470 264q0 139 103.5 240.5t247.5 101.5q131 0 210.5 -85t79.5 -204q0 -139 -102 -240.5t-246 -101.5q-133 0 -213 84t-80 205zM1800 383q-37 0 -65.5 -30.5t-28.5 -69.5q0 -37 20.5 -60.5t55.5 -23.5q37 0 65.5 30.5t28.5 69.5q0 37 -20.5 60.5t-55.5 23.5z" glyph-name="uniE607" horiz-adv-x="2197" unicode=""/><glyph d="M893 352l178 -243q-162 -133 -358 -134q-205 0 -347.5 121t-181.5 307h-149l26 152h109l4 55h-102l26 152h113q72 205 239.5 324.5t366.5 119.5q279 0 426 -213l-268 -200q-63 92 -168 92q-129 0 -209 -123h369l-70 -152h-358l-7 -55h340l-69 -152h-240q55 -109 185 -108 q75 0 145 57z" glyph-name="uniE608" horiz-adv-x="1208" unicode=""/><glyph d="M119 700l28 160h289q-20 90 -108 90h-166l41 232h798l-81 -160h-205q47 -68 57 -162h174l-84 -160h-98q-25 -123 -96.5 -210t-182.5 -123l234 -367h-410l-243 403l36 207h162q102 0 152 90h-297z" glyph-name="uniE609" horiz-adv-x="933" unicode=""/><glyph d="M662 0h-392l-4 295h-227l43 258h182l-2 65h-168l45 256h121l-4 308h367l-33 -670l198 670h320l-39 -633l195 633h381l-113 -308h117l-45 -256h-166l-25 -65h178l-45 -258h-227l-109 -295h-391l41 662z" glyph-name="uniE610" horiz-adv-x="1669" unicode=""/><glyph d="M25 166l34 205h84l13 61h-84l51 285h82l82 465h411q203 0 304.5 -95.5t101.5 -240.5q0 -186 -116 -300t-306 -114h-180l-13 -61h216l-35 -205h-215l-29 -166h-346l29 166h-84zM551 717h80q127 0 127 96q0 35 -26.5 59.5t-74.5 24.5h-75z" glyph-name="uniE611" horiz-adv-x="1101" unicode=""/><glyph d="M104 653l41 228l148 43l45 258h371l-27 -144l305 90l-39 -229l-305 -90l-12 -61l307 90l-41 -228l-305 -92l-33 -182h19q18 0 34.5 4t27.5 8t21.5 16.5t16.5 19.5t15 27.5t12.5 30t12.5 37t13 39.5l356 -65q-84 -260 -192.5 -356.5t-345.5 -96.5h-418l70 403l-150 -45 l41 230l150 43l10 65z" glyph-name="uniE612" horiz-adv-x="1144" unicode=""/><glyph d="M1167 295l209 -295h-473l-63 88q-215 -113 -396 -113q-203 0 -312 94.5t-109 243.5q0 160 96 263.5t266 183.5q-63 133 -63 256q0 193 139 318.5t340 125.5q197 0 309.5 -106.5t112.5 -253.5q0 -92 -45 -171t-124 -136.5t-148.5 -96.5t-157.5 -80q-20 -8 -28.5 -12 t-49.5 -21.5t-61.5 -27.5t-59.5 -29.5t-61.5 -36t-48 -38t-37 -45t-11.5 -48.5q0 -37 25.5 -62.5t75.5 -25.5q18 0 37.5 3t41 12.5t38 17.5t44 25.5l44 28t51 34t53.5 35.5q123 82 413 313l207 -239q-100 -92 -254 -205zM891 1090q0 41 -24.5 64.5t-65.5 23.5q-53 0 -87 -39 t-34 -101q0 -51 53 -129q158 85 158 181z" glyph-name="uniE650" horiz-adv-x="1452" unicode=""/><glyph d="M743 930l-194 -260q-43 23 -72 49q-68 -72 -67 -176q0 -102 70.5 -177t189 -75t207 88t88.5 207q0 31 -7 55l-45 -23q-61 -31 -61 -94q0 -23 8 -41l-233 -80q-33 66 -33 146q0 193 231 325l367 209q80 43 80 107q0 45 -31 90l260 162q100 -125 101 -260q0 -121 -66 -200 t-190 -142l-72 -37q35 -92 35 -197q0 -262 -195.5 -452.5t-466.5 -190.5q-262 0 -423 162t-161 391q0 154 75 291t208 225q10 180 141 306t320 126q160 0 265.5 -84t133.5 -213l-278 -112q-6 47 -38 78.5t-83 31.5q-47 0 -87 -34.5t-40 -94.5q0 -67 63 -106z" glyph-name="uniE651" horiz-adv-x="1542" unicode=""/><glyph d="M377 80l78 -45q-49 -31 -77 -50.5t-82 -61.5t-82 -83t-28 -78q0 -51 60 -51q23 0 47 6l8 -247q-49 -10 -92 -11q-123 0 -194.5 58.5t-71.5 150.5q0 137 128 240.5t306 171.5z" glyph-name="uniE700" horiz-adv-x="450" unicode=""/><glyph d="M61 -707l-94 127q135 90 166 170q-66 0 -106.5 45.5t-40.5 106.5q0 70 55 121t125 51q82 0 130 -49t48 -135q0 -125 -80 -241t-203 -196z" glyph-name="uniF6C3" horiz-adv-x="417" unicode=""/><glyph d="M301 561l21 121q-92 33 -141.5 109.5t-49.5 173.5q0 133 84 236.5t219 125.5l21 107h192l-22 -125q141 -53 178 -219l-219 -70q-18 94 -101 94q-47 0 -80.5 -40t-33.5 -95q0 -43 23.5 -70.5t68.5 -27.5q76 0 121 92l209 -70q-94 -203 -279 -237l-18 -105h-193z" glyph-name="uniF6E0" horiz-adv-x="755" unicode=""/><glyph d="M270 475l25 131q-98 27 -151.5 85.5t-53.5 139.5v5l238 34q0 -94 116 -94q68 0 68 39q0 27 -98 78q-18 10 -29 16q-115 61 -171 117.5t-56 138.5q0 104 77.5 169t198.5 73l21 115h190l-24 -140q182 -66 182 -247v-9h-240q0 92 -90 93q-61 0 -61 -41q0 -29 75 -68 q10 -6 15 -8q68 -35 101.5 -55.5t77.5 -55.5t63.5 -72.5t19.5 -84.5q0 -111 -79 -174.5t-204 -71.5l-20 -113h-191z" glyph-name="uniF6E4" horiz-adv-x="749" unicode=""/><glyph d="M1253 674q-12 -4 -17 -11.5t-2 -15.5t13 -14l51 -37q16 -10 14.5 -20.5t-20.5 -12.5l-61 -12q-18 -2 -21.5 -14.5t7.5 -24.5l43 -45q14 -12 11 -22.5t-24 -8.5l-63 2q-18 0 -24.5 -10t3.5 -27l33 -53q8 -16 3 -24.5t-21 -1.5l-62 14q-16 4 -25.5 -5t-3.5 -26l21 -59 q6 -16 -1 -23.5t-24 0.5l-57 27q-35 16 -35 -25l10 -61q2 -18 -6 -23.5t-22 4.5l-51 41q-14 10 -25.5 5t-13.5 -23l-2 -64q-6 -37 -33 -10l-41 49q-27 29 -41 -8l-18 -61q-4 -18 -14.5 -19.5t-18.5 15.5l-31 55q-20 37 -43 0l-27 -55q-6 -10 -13 -14.5t-13 0.5t-8 18l-19 61 q-12 39 -39 8l-43 -49q-27 -31 -30 10l-5 64q-4 41 -41 18l-49 -41q-14 -10 -22 -5t-4 24l8 61q2 18 -9.5 25.5t-27.5 -0.5l-55 -27q-16 -8 -23.5 -1t-1.5 24l21 59q6 16 -2.5 25.5t-24.5 5.5l-63 -14q-16 -6 -22.5 3t3.5 23l35 53q8 16 2 26.5t-23 10.5l-65 -2 q-18 -2 -22.5 8.5t8.5 22.5l47 45q12 12 7 24.5t-24 14.5l-61 12q-18 2 -20.5 12.5t14.5 20.5l51 37q10 6 12 10q18 10 33 -12l29 -53q6 -12 12 -15.5t11 0.5t9 17l17 57q6 20 18 23.5t23 -13.5l43 -47q10 -14 19 -10t11 22l5 62q8 43 40 16l50 -37q14 -12 22 -7t4 24l-6 61 q-2 18 7.5 25.5t25.5 -0.5l57 -27q16 -8 23.5 -1t-0.5 24l-19 61q-6 16 2.5 24.5t24.5 6.5l35 -10q51 -66 84 -194t33 -206q-12 -14 -42 -24.5t-56.5 -4t-26.5 32.5q0 35 -24 60.5t-64 25.5q-35 0 -60.5 -26.5t-25.5 -63.5q0 -51 43 -85t114 -34q141 0 277 115 q98 84 156.5 203t58.5 215q0 70 -32 108.5t-83 38.5q-43 0 -72.5 -30.5t-29.5 -73.5t29.5 -75t70.5 -32q-23 -115 -84 -196q0 119 -40 226.5t-109 152.5q-4 4 -5 8l-45 43q-29 29 13 41l63 10q10 2 15.5 7t3.5 12.5t-13 13.5l-53 37q-35 25 4 41l57 26q18 4 18.5 14.5 t-18.5 18.5l-57 25q-23 2 -18 24q12 6 14 15l31 55q4 10 11 14t13 -1t9 -15l18 -62q14 -41 41 -10l41 51q27 27 33 -12l2 -61q2 -20 13 -24.5t26 5.5l51 39q14 10 22.5 5t5.5 -23l-10 -62q0 -41 35 -24l57 28q16 8 23.5 1t1.5 -25l-21 -60q-6 -16 3.5 -25.5t25.5 -4.5l62 14 q16 6 21 -1t-3 -24l-33 -53q-20 -39 21 -39l63 4q20 2 23.5 -9t-10.5 -23l-43 -46q-10 -12 -7.5 -24t21.5 -14l61 -11q18 -4 20.5 -14t-14.5 -18l-51 -37q-10 -6 -13 -15.5t2 -16.5t17 -11l58 -23q31 -16 0 -35z" glyph-name="uniF8FF" horiz-adv-x="1320" unicode=""/></font>
</defs>
</svg>
