<?xml version="1.0" standalone="no"?>
<!DOCTYPE svg PUBLIC "-//W3C//DTD SVG 1.1//EN" "http://www.w3.org/Graphics/SVG/1.1/DTD/svg11.dtd">
<svg xmlns="http://www.w3.org/2000/svg"><metadata>This SVG WebFont was generated by YouWorkForThem.
Copyright (c) 2018 by Ryan Martinson. All rights reserved.</metadata><defs><font horiz-adv-x="1294" id="ywftsvg"><font-face ascent="1638" bbox="-498 -1040 2892 2017" cap-height="1434" descent="-410" font-family="" font-stretch="normal" font-weight="725" panose-1="2 11 8 3 4 0 0 2 0 3" underline-position="0" underline-thickness="0" unicode-range="U+0020-FB04" units-per-em="2048" x-height="1047"/><missing-glyph d="M156 0l252 1434h897l-252 -1434h-897zM410 213h462l179 1008h-463z" horiz-adv-x="1390"/><glyph d="M94 778l47 269h181l10 57q37 205 142.5 295t252.5 90q127 0 262 -64l-92 -227q-68 31 -127 31q-106 0 -133 -137l-8 -45h291l-48 -269h-290l-146 -827q-37 -205 -143.5 -297t-253.5 -92q-137 0 -281 67l99 226q72 -33 139 -33q111 0 135 141l143 815h-180zM1081 1321 q0 80 60.5 137.5t144.5 57.5q74 0 122 -48.5t48 -119.5q0 -80 -60.5 -137.5t-142.5 -57.5q-74 0 -123 49t-49 119zM637 -373l86 242q35 -12 63 -12q70 0 86 94l193 1096h307l-201 -1141q-57 -315 -348 -316q-100 0 -186 37z" glyph-name="uniE200" horiz-adv-x="1411" unicode="fj"/><glyph d="M94 778l47 269h181l10 57q37 205 142.5 295t252.5 90q145 0 301 -78l-100 -223q-82 41 -158 41q-106 0 -133 -137l-8 -45h272l-47 -269h-272l-146 -827q-37 -205 -143.5 -297t-253.5 -92q-137 0 -281 67l99 226q72 -33 139 -33q111 0 135 141l143 815h-180zM944 778 l47 269h160l10 57q37 205 143.5 295t254.5 90q127 0 262 -64l-95 -227q-66 31 -124 31q-109 0 -136 -137l-8 -45h293l-47 -269h-293l-145 -827q-37 -205 -143.5 -297t-252.5 -92q-137 0 -280 67l98 226q72 -33 139 -33q51 0 85 29.5t49 111.5l143 815h-160zM1911 1321 q0 80 60.5 137.5t144.5 57.5q74 0 122 -48.5t48 -119.5q0 -80 -60.5 -137.5t-142.5 -57.5q-74 0 -123 49t-49 119zM1466 -373l86 242q33 -12 64 -12q70 0 86 94l192 1096h308l-201 -1141q-57 -315 -348 -316q-101 0 -187 37z" glyph-name="uniE201" horiz-adv-x="2242" unicode="ffj"/><glyph d="M94 778l47 269h181l10 57q37 205 142.5 295t252.5 90q127 0 262 -64l-92 -227q-68 31 -127 31q-106 0 -133 -137l-8 -45h291l-48 -269h-290l-146 -827q-37 -205 -143.5 -297t-253.5 -92q-137 0 -281 67l99 226q72 -33 139 -33q111 0 135 141l143 815h-180zM1442 1434 l-88 -502q119 137 295 137q193 0 302 -132t109 -333q0 -150 -57 -290t-178 -238.5t-281 -98.5q-236 0 -327 175l-27 -152h-307l252 1434h307zM1540 795q-117 0 -193.5 -93.5t-76.5 -220.5q0 -100 55 -164.5t156 -64.5q117 0 192.5 94t75.5 223q0 98 -54.5 162t-154.5 64z " glyph-name="uniE202" horiz-adv-x="2140" unicode="fb"/><glyph d="M94 778l47 269h181l10 57q37 205 142.5 295t252.5 90q145 0 301 -78l-100 -223q-82 41 -158 41q-106 0 -133 -137l-8 -45h272l-47 -269h-272l-146 -827q-37 -205 -143.5 -297t-253.5 -92q-137 0 -281 67l99 226q72 -33 139 -33q111 0 135 141l143 815h-180zM944 778 l47 269h160l10 57q37 205 143.5 295t254.5 90q127 0 262 -64l-95 -227q-66 31 -124 31q-109 0 -136 -137l-8 -45h293l-47 -269h-293l-145 -827q-37 -205 -143.5 -297t-252.5 -92q-137 0 -280 67l98 226q72 -33 139 -33q51 0 85 29.5t49 111.5l143 815h-160zM2271 1434 l-88 -502q119 137 295 137q193 0 302.5 -132t109.5 -333q0 -150 -57.5 -290t-178.5 -238.5t-280 -98.5q-236 0 -328 175l-27 -152h-307l252 1434h307zM2370 795q-117 0 -194 -93.5t-77 -220.5q0 -100 55.5 -164.5t155.5 -64.5q117 0 192.5 94t75.5 223q0 98 -54 162t-154 64 z" glyph-name="uniE203" horiz-adv-x="2969" unicode="ffb"/><glyph d="M94 778l47 269h181l10 57q37 205 142.5 295t252.5 90q127 0 262 -64l-92 -227q-68 31 -127 31q-106 0 -133 -137l-8 -45h291l-48 -269h-290l-146 -827q-37 -205 -143.5 -297t-253.5 -92q-137 0 -281 67l99 226q72 -33 139 -33q111 0 135 141l143 815h-180zM1585 0 l-170 393h-158l-69 -393h-307l252 1434h307l-137 -783h135l272 396h350l-377 -537l226 -510h-324z" glyph-name="uniE204" horiz-adv-x="2023" unicode="fk"/><glyph d="M94 778l47 269h181l10 57q37 205 142.5 295t252.5 90q145 0 301 -78l-100 -223q-82 41 -158 41q-106 0 -133 -137l-8 -45h272l-47 -269h-272l-146 -827q-37 -205 -143.5 -297t-253.5 -92q-137 0 -281 67l99 226q72 -33 139 -33q111 0 135 141l143 815h-180zM944 778 l47 269h160l10 57q37 205 143.5 295t254.5 90q127 0 262 -64l-95 -227q-66 31 -124 31q-109 0 -136 -137l-8 -45h293l-47 -269h-293l-145 -827q-37 -205 -143.5 -297t-252.5 -92q-137 0 -280 67l98 226q72 -33 139 -33q51 0 85 29.5t49 111.5l143 815h-160zM2417 0l-170 393 h-158l-70 -393h-307l252 1434h307l-137 -783h135l273 396h350l-377 -537l225 -510h-323z" glyph-name="uniE205" horiz-adv-x="2854" unicode="ffk"/><glyph d="M94 778l47 269h181l10 57q37 205 142.5 295t252.5 90q127 0 262 -64l-92 -227q-68 31 -127 31q-106 0 -133 -137l-8 -45h291l-48 -269h-290l-146 -827q-37 -205 -143.5 -297t-253.5 -92q-137 0 -281 67l99 226q72 -33 139 -33q111 0 135 141l143 815h-180zM1579 0 l102 582q6 33 7 67q0 82 -41 119t-107 37q-90 0 -161.5 -64.5t-88.5 -158.5l-102 -582h-307l252 1434h307l-90 -514q125 150 325 149q154 0 241 -89t87 -257q0 -59 -12 -129l-105 -594h-307z" glyph-name="uniE206" horiz-adv-x="2095" unicode="fh"/><glyph d="M94 778l47 269h181l10 57q37 205 142.5 295t252.5 90q145 0 301 -78l-100 -223q-82 41 -158 41q-106 0 -133 -137l-8 -45h272l-47 -269h-272l-146 -827q-37 -205 -143.5 -297t-253.5 -92q-137 0 -281 67l99 226q72 -33 139 -33q111 0 135 141l143 815h-180zM944 778 l47 269h160l10 57q37 205 143.5 295t254.5 90q127 0 262 -64l-95 -227q-66 31 -124 31q-109 0 -136 -137l-8 -45h293l-47 -269h-293l-145 -827q-37 -205 -143.5 -297t-252.5 -92q-137 0 -280 67l98 226q72 -33 139 -33q51 0 85 29.5t49 111.5l143 815h-160zM2410 0l103 582 q6 33 6 67q0 82 -41 119t-106 37q-90 0 -162 -64.5t-88 -158.5l-103 -582h-307l252 1434h307l-90 -514q125 150 326 149q154 0 240.5 -89t86.5 -257q0 -59 -12 -129l-104 -594h-308z" glyph-name="uniE207" horiz-adv-x="2926" unicode="ffh"/><glyph d="M94 778l47 269h181l10 57q37 205 142.5 295t252.5 90q127 0 262 -64l-92 -227q-68 31 -127 31q-106 0 -133 -137l-8 -45h272l-47 -269h-272l-146 -827q-37 -205 -143.5 -297t-253.5 -92q-137 0 -281 67l99 226q72 -33 139 -33q111 0 135 141l143 815h-180zM944 778 l47 269h162l43 249l326 105l-62 -354h318l-47 -269h-318l-65 -368q-14 -82 10 -120t92 -38q61 0 149 37l62 -250q-143 -61 -275 -62q-354 0 -354 334q0 59 17 146l57 321h-162z" glyph-name="uniE208" horiz-adv-x="1759" unicode="ft"/><glyph d="M94 778l47 269h181l10 57q37 205 142.5 295t252.5 90q145 0 301 -78l-100 -223q-82 41 -158 41q-106 0 -133 -137l-8 -45h272l-47 -269h-272l-146 -827q-37 -205 -143.5 -297t-253.5 -92q-137 0 -281 67l99 226q72 -33 139 -33q111 0 135 141l143 815h-180zM944 778 l47 269h160l10 57q37 205 143.5 295t254.5 90q127 0 262 -64l-95 -227q-66 31 -124 31q-109 0 -136 -137l-8 -45h275l-47 -269h-275l-145 -827q-37 -205 -143.5 -297t-252.5 -92q-137 0 -280 67l98 226q72 -33 139 -33q51 0 85 29.5t49 111.5l143 815h-160zM1776 778l47 269 h162l43 249l325 105l-61 -354h317l-47 -269h-317l-66 -368q-14 -82 10.5 -120t91.5 -38q61 0 150 37l61 -250q-143 -61 -274 -62q-354 0 -354 334q0 59 16 146l57 321h-161z" glyph-name="uniE209" horiz-adv-x="2590" unicode="fft"/><glyph d="M973 778l47 269h162l43 249l325 105l-61 -354h317l-47 -269h-317l-66 -368q-14 -82 10.5 -120t92.5 -38q61 0 149 37l62 -250q-143 -61 -275 -62q-354 0 -354 334q0 59 16 146l58 321h-162zM78 778l47 269h178l43 249l326 105l-62 -354h310l-48 -269h-309l-65 -368 q-14 -82 10 -120t92 -38q61 0 150 37l61 -250q-143 -61 -274 -62q-354 0 -355 334q0 59 17 146l57 321h-178z" glyph-name="uniE210" horiz-adv-x="1785" unicode="tt"/><glyph d="M94 778l47 269h181l10 57q37 205 142.5 295t252.5 90q145 0 301 -78l-100 -223q-82 41 -158 41q-106 0 -133 -137l-8 -45h272l-47 -269h-272l-146 -827q-37 -205 -143.5 -297t-253.5 -92q-137 0 -281 67l99 226q72 -33 139 -33q111 0 135 141l143 815h-180zM944 778 l47 269h160l10 57q37 205 143.5 295t254.5 90q145 0 301 -78l-101 -223q-82 41 -157 41q-109 0 -136 -137l-8 -45h293l-47 -269h-293l-145 -827q-37 -205 -143.5 -297t-252.5 -92q-137 0 -280 67l98 226q72 -33 139 -33q51 0 85 29.5t49 111.5l143 815h-160z" glyph-name="uniFB00" horiz-adv-x="1689" unicode="ff"/><glyph d="M94 778l47 269h181l10 57q37 205 142.5 295t252.5 90q127 0 262 -64l-92 -227q-68 31 -127 31q-106 0 -133 -137l-8 -45h291l-48 -269h-290l-146 -827q-37 -205 -143.5 -297t-253.5 -92q-137 0 -281 67l99 226q72 -33 139 -33q111 0 135 141l143 815h-180zM1081 1321 q0 80 60.5 137.5t142.5 57.5q74 0 123 -48.5t49 -119.5q0 -80 -60.5 -137.5t-144.5 -57.5q-74 0 -122 49t-48 119zM881 0l184 1047h307l-184 -1047h-307z" glyph-name="uniFB01" horiz-adv-x="1411" unicode="fi"/><glyph d="M94 778l47 269h181l10 57q37 205 142.5 295t252.5 90q127 0 262 -64l-92 -227q-68 31 -127 31q-106 0 -133 -137l-8 -45h291l-48 -269h-290l-146 -827q-37 -205 -143.5 -297t-253.5 -92q-137 0 -281 67l99 226q72 -33 139 -33q111 0 135 141l143 815h-180zM881 0 l252 1434h307l-252 -1434h-307z" glyph-name="uniFB02" horiz-adv-x="1411" unicode="fl"/><glyph d="M94 778l47 269h181l10 57q37 205 142.5 295t252.5 90q145 0 301 -78l-100 -223q-82 41 -158 41q-106 0 -133 -137l-8 -45h272l-47 -269h-272l-146 -827q-37 -205 -143.5 -297t-253.5 -92q-137 0 -281 67l99 226q72 -33 139 -33q111 0 135 141l143 815h-180zM944 778 l47 269h160l10 57q37 205 143.5 295t254.5 90q127 0 262 -64l-95 -227q-66 31 -124 31q-109 0 -136 -137l-8 -45h293l-47 -269h-293l-145 -827q-37 -205 -143.5 -297t-252.5 -92q-137 0 -280 67l98 226q72 -33 139 -33q51 0 85 29.5t49 111.5l143 815h-160zM1913 1321 q0 80 60.5 137.5t142.5 57.5q74 0 123 -48.5t49 -119.5q0 -80 -60.5 -137.5t-144.5 -57.5q-74 0 -122 49t-48 119zM1712 0l184 1047h308l-185 -1047h-307z" glyph-name="uniFB03" horiz-adv-x="2242" unicode="ffi"/><glyph d="M94 778l47 269h181l10 57q37 205 142.5 295t252.5 90q145 0 301 -78l-100 -223q-82 41 -158 41q-106 0 -133 -137l-8 -45h272l-47 -269h-272l-146 -827q-37 -205 -143.5 -297t-253.5 -92q-137 0 -281 67l99 226q72 -33 139 -33q111 0 135 141l143 815h-180zM944 778 l47 269h160l10 57q37 205 143.5 295t254.5 90q127 0 262 -64l-95 -227q-66 31 -124 31q-109 0 -136 -137l-8 -45h293l-47 -269h-293l-145 -827q-37 -205 -143.5 -297t-252.5 -92q-137 0 -280 67l98 226q72 -33 139 -33q51 0 85 29.5t49 111.5l143 815h-160zM1712 0l252 1434 h307l-252 -1434h-307z" glyph-name="uniFB04" horiz-adv-x="2242" unicode="ffl"/><glyph d="M156 0l252 1434h897l-252 -1434h-897zM410 213h462l179 1008h-463z" glyph-name=".notdef" horiz-adv-x="1390"/><glyph glyph-name="glyph1" horiz-adv-x="0"/><glyph glyph-name="glyph2" horiz-adv-x="681"/><glyph glyph-name="space" horiz-adv-x="462" unicode=" "/><glyph d="M283 1434h362l-244 -959h-211zM57 137q0 78 58.5 132.5t138.5 54.5q70 0 117 -47.5t47 -114.5q0 -76 -58.5 -130.5t-136.5 -54.5q-70 0 -118 46t-48 114z" glyph-name="exclam" horiz-adv-x="608" unicode="!"/><glyph d="M426 788h-238l84 646h297zM854 788h-238l84 646h297z" glyph-name="quotedbl" horiz-adv-x="954" unicode="&quot;"/><glyph d="M223 864l41 244h248l111 326h245l-110 -326h252l112 326h246l-111 -326h201l-43 -244h-241l-101 -295h207l-43 -243h-246l-110 -326h-248l110 326h-251l-111 -326h-246l111 326h-203l43 243h242l100 295h-205zM674 864l-101 -295h254l101 295h-254z" glyph-name="numbersign" horiz-adv-x="1433" unicode="#"/><glyph d="M332 -160l39 226q-145 39 -227.5 130t-82.5 222v8l293 59v-22q0 -86 57.5 -132t159.5 -46q72 0 128.5 28.5t56.5 100.5q0 23 -10.5 42t-23.5 33.5t-41 31t-44 25.5t-54 26.5t-53 25.5q-344 170 -344 414q0 170 115 270t303 113l37 198h254l-39 -225q276 -90 277 -403v-19 h-291v15q0 98 -56.5 145t-132.5 47q-70 0 -118 -31.5t-48 -97.5q0 -57 46.5 -95t144.5 -85q90 -45 145.5 -79t115.5 -84t89 -112.5t29 -138.5q0 -176 -116 -277.5t-320 -111.5l-35 -201h-254z" glyph-name="dollar" horiz-adv-x="1161" unicode="$"/><glyph d="M401 0h-282l1288 1434h283zM164 1069q0 154 115.5 270.5t275.5 116.5q150 0 244 -98t94 -236q0 -154 -115.5 -270.5t-275.5 -116.5q-150 0 -244 98.5t-94 235.5zM541 1235q-59 0 -102.5 -43t-43.5 -111q0 -53 33 -89t88 -36q59 0 102.5 43t43.5 111q0 53 -33 89t-88 36z M918 309q0 154 115.5 270.5t275.5 116.5q150 0 244 -98t94 -236q0 -154 -116 -270.5t-276 -116.5q-150 0 -243.5 98.5t-93.5 235.5zM1294 475q-59 0 -102 -43t-43 -110q0 -53 32.5 -89t88.5 -36q59 0 102 43t43 110q0 53 -33 89t-88 36z" glyph-name="percent" horiz-adv-x="1740" unicode="%"/><glyph d="M1305 0h-369l-84 125q-231 -147 -422 -148q-186 0 -288.5 90.5t-102.5 231.5q0 283 389 465q-76 147 -76 272q0 188 130 305t309 117q176 0 277 -99t101 -236.5t-91 -237t-247 -187.5l123 -182q147 125 232 211l176 -186q-125 -125 -264 -238zM465 221q94 0 248 111 l-131 194l-25 35q-6 -4 -37 -20.5t-43 -24.5t-39.5 -25.5t-42 -32t-31 -35t-23.5 -43t-7 -46.5q0 -47 34 -80t97 -33zM786 1219q-63 0 -106 -47.5t-43 -118.5q0 -59 63 -164q47 25 67.5 38t59.5 43.5t56.5 64.5t17.5 75q0 49 -31 79t-84 30z" glyph-name="ampersand" horiz-adv-x="1402" unicode="&amp;"/><glyph d="M426 788h-238l84 646h297z" glyph-name="quotesingle" horiz-adv-x="524" unicode="'"/><glyph d="M561 1516l215 -170q-184 -233 -284.5 -525.5t-100.5 -601.5q0 -297 94 -541l-268 -127q-150 311 -149 682q0 352 124.5 683.5t368.5 599.5z" glyph-name="parenleft" horiz-adv-x="688" unicode="("/><glyph d="M131 -449l-215 170q184 233 284.5 525.5t100.5 601.5q0 297 -94 541l268 127q150 -311 150 -682q0 -352 -125 -683.5t-369 -599.5z" glyph-name="parenright" horiz-adv-x="688" unicode=")"/><glyph d="M770 1421l-78 -284l277 94l32 -227l-286 -39l153 -230l-211 -121l-100 258l-186 -233l-160 156l225 194l-264 88l109 215l237 -139l21 289z" glyph-name="asterisk" horiz-adv-x="993" unicode="*"/><glyph d="M135 801h268l52 293h264l-51 -293h268l-45 -260h-270l-52 -293h-264l51 293h-266z" glyph-name="plus" horiz-adv-x="974" unicode="+"/><glyph d="M104 -399l-106 131q188 135 217 248q-78 -10 -129 39t-51 118q0 80 60.5 136.5t142.5 56.5q86 0 142 -58.5t56 -158.5q0 -141 -96.5 -279.5t-235.5 -232.5z" glyph-name="comma" horiz-adv-x="587" unicode=","/><glyph d="M774 735l-49 -272h-610l47 272h612z" glyph-name="hyphen" horiz-adv-x="862" unicode="-"/><glyph d="M31 147q0 82 62.5 140.5t144.5 58.5q74 0 124 -50t50 -122q0 -82 -61.5 -139.5t-145.5 -57.5q-74 0 -124 49t-50 121z" glyph-name="period" horiz-adv-x="561" unicode="."/><glyph d="M827 1434h312l-860 -1434h-312z" glyph-name="slash" horiz-adv-x="1040" unicode="/"/><glyph d="M121 555q0 117 24.5 238.5t76.5 241.5t128 213t187.5 150.5t244.5 57.5q260 0 386 -161.5t126 -415.5q0 -117 -24.5 -239t-76.5 -241.5t-128 -213t-187.5 -151t-244.5 -57.5q-260 0 -386 162t-126 416zM772 1165q-109 0 -188.5 -107.5t-112.5 -238.5t-33 -252 q0 -139 52.5 -219t152.5 -80q109 0 188.5 107.5t112.5 238.5t33 252q0 139 -52.5 219t-152.5 80z" glyph-name="zero" horiz-adv-x="1345" unicode="0"/><glyph d="M135 899l62 344l374 191h250l-252 -1434h-313l186 1055z" glyph-name="one" horiz-adv-x="825" unicode="1"/><glyph d="M1061 287l-49 -287h-1000l43 244q385 248 588 438q221 201 221 346q0 66 -42 106t-117 40q-186 0 -220 -256h-309q31 276 187.5 407t363.5 131q201 0 330 -114.5t129 -290.5q0 -276 -342 -564q-123 -102 -273 -200h490z" glyph-name="two" horiz-adv-x="1208" unicode="2"/><glyph d="M-8 160l178 237q213 -141 379 -141q92 0 145.5 43t53.5 111q0 76 -85 126t-260 50l48 262q168 -2 272 53t104 160q0 57 -43 91t-114 34q-74 0 -125 -42t-60 -120h-303q8 209 154.5 320.5t347.5 111.5t332 -104.5t131 -268.5q0 -279 -295 -378q215 -96 215 -304 q0 -186 -141.5 -305t-382.5 -119q-289 1 -551 183z" glyph-name="three" horiz-adv-x="1189" unicode="3"/><glyph d="M924 0h-303l49 276h-645l41 232l503 926h355l-506 -889h299l67 379l320 94l-84 -473h184l-47 -269h-184z" glyph-name="four" horiz-adv-x="1259" unicode="4"/><glyph d="M344 1434h821l-49 -287h-516l-45 -254q272 -16 400 -137t128 -297q0 -211 -136 -346.5t-394 -135.5q-287 0 -553 183l178 237q211 -141 375 -141q100 0 153.5 50t53.5 128q0 84 -88 139.5t-287 55.5h-182z" glyph-name="five" horiz-adv-x="1187" unicode="5"/><glyph d="M1171 1434l-454 -461h10q182 0 298 -124t116 -306q0 -229 -162 -397.5t-408 -168.5q-223 0 -357 138.5t-134 333.5q0 147 71.5 274t200.5 262l424 449h395zM635 731q-109 0 -181.5 -80t-72.5 -190q0 -88 55.5 -146.5t149.5 -58.5q102 0 177 80t75 188q0 88 -55.5 147.5 t-147.5 59.5z" glyph-name="six" horiz-adv-x="1222" unicode="6"/><glyph d="M170 1137l51 297h944l-43 -252l-714 -1182h-377l710 1137h-571z" glyph-name="seven" horiz-adv-x="1071" unicode="7"/><glyph d="M1155 434q0 -207 -153.5 -332t-385.5 -125q-244 0 -394 115t-150 295q0 139 79.5 250t219.5 154q-123 94 -123 245q0 174 131 297t358 123q215 0 351.5 -104.5t136.5 -268.5q0 -119 -59.5 -214t-174.5 -144q164 -103 164 -291zM612 240q102 0 169 58t67 157 q0 80 -58.5 131t-161 51t-171 -59.5t-68.5 -157.5q0 -78 59.5 -129t163.5 -51zM727 870q84 0 140.5 50.5t56.5 132.5q0 66 -50.5 106.5t-136.5 40.5q-82 0 -139 -49t-57 -129q0 -66 51 -109t135 -43z" glyph-name="eight" horiz-adv-x="1273" unicode="8"/><glyph d="M121 0l454 461h-10q-182 0 -297.5 124t-115.5 306q0 229 161.5 397t407.5 168q223 0 357 -138t134 -333q0 -147 -71.5 -274t-200.5 -262l-424 -449h-395zM657 702q109 0 181.5 80t72.5 191q0 88 -55 146.5t-149 58.5q-102 0 -177 -80t-75 -189q0 -88 55 -147.5t147 -59.5 z" glyph-name="nine" horiz-adv-x="1222" unicode="9"/><glyph d="M45 147q0 82 62.5 140.5t144.5 58.5q76 0 125 -50t49 -122q0 -82 -61.5 -139.5t-145.5 -57.5q-74 0 -124 49t-50 121zM170 846q0 82 62.5 140t144.5 58q74 0 124 -49t50 -123q0 -82 -61.5 -139t-145.5 -57q-74 0 -124 49t-50 121z" glyph-name="colon" horiz-adv-x="602" unicode=":"/><glyph d="M123 -399l-107 131q188 135 217 248q-78 -10 -129 39t-51 118q0 80 60.5 136.5t142.5 56.5q86 0 142.5 -58.5t56.5 -158.5q0 -141 -96.5 -279.5t-235.5 -232.5zM174 846q0 82 62.5 140t144.5 58q74 0 124 -49t50 -123q0 -82 -61.5 -139t-145.5 -57q-74 0 -124 49t-50 121 z" glyph-name="semicolon" horiz-adv-x="634" unicode=";"/><glyph d="M74 543l45 260l870 395l-59 -332l-504 -209l430 -211l-53 -299z" glyph-name="less" horiz-adv-x="1003" unicode="&lt;"/><glyph d="M178 764l45 260h803l-45 -260h-803zM100 322l45 258h803l-45 -258h-803z" glyph-name="equal" horiz-adv-x="1077" unicode="="/><glyph d="M981 801l-45 -260l-870 -396l59 332l504 209l-430 211l53 299z" glyph-name="greater" horiz-adv-x="1005" unicode=">"/><glyph d="M621 467h-283l14 80q20 109 83 182.5t163 138.5q6 4 44 27t55.5 35t44 35.5t38 49t11.5 56.5q0 55 -39 88t-103 33q-80 0 -135 -56.5t-63 -154.5h-304q10 125 58.5 220t122 151.5t159.5 85t181 28.5q197 0 316.5 -102t119.5 -264q0 -139 -73 -231.5t-214 -176.5 q-66 -41 -96.5 -62.5t-59 -56t-36.5 -75.5zM242 139q0 76 58 131.5t138 55.5q70 0 117 -47.5t47 -114.5q0 -78 -57.5 -132.5t-136.5 -54.5q-70 0 -118 47t-48 115z" glyph-name="question" horiz-adv-x="1083" unicode="?"/><glyph d="M872 944q158 0 240 -115l18 99h238l-92 -525q-8 -39 -8 -75q0 -121 90 -121q86 0 150.5 130t64.5 300q0 250 -161 417t-443 167q-293 0 -500 -225.5t-207 -544.5q0 -258 160 -429.5t442 -171.5q182 0 346 97l72 -133q-193 -119 -424 -119q-354 0 -562 215t-208 534 q0 190 71.5 363.5t190.5 298.5t284 199.5t345 74.5q238 0 415 -103t265 -269t88 -367q0 -258 -120 -430t-298 -172q-100 0 -172 50t-100 144q-104 -109 -248 -108q-160 0 -250 98.5t-90 249.5q0 188 116.5 329.5t286.5 141.5zM870 328q84 0 139.5 66.5t55.5 164.5 q0 76 -42 124t-116 48q-80 0 -137 -69.5t-57 -163.5q0 -74 40.5 -122t116.5 -48z" glyph-name="at" horiz-adv-x="1830" unicode="@"/><glyph d="M733 1434h348l318 -1434h-330l-47 240h-621l-129 -240h-360zM860 1090l-311 -578h422z" glyph-name="A" horiz-adv-x="1495" unicode="A"/><glyph d="M72 0l252 1434h659q211 0 319.5 -99.5t108.5 -253.5q0 -123 -60.5 -221t-174.5 -139q188 -86 188 -293q0 -186 -128 -307t-368 -121h-796zM877 606h-385l-62 -342h410q90 0 146 51.5t56 133.5q0 68 -41.5 112.5t-123.5 44.5zM938 1169h-348l-55 -313h387q68 0 116.5 51 t48.5 129q0 59 -37.5 96t-111.5 37z" glyph-name="B" horiz-adv-x="1476" unicode="B"/><glyph d="M1204 563l303 -92q-92 -231 -287.5 -362.5t-426.5 -131.5q-307 0 -488.5 189.5t-181.5 470.5q0 219 100.5 406.5t281.5 300t400 112.5q262 0 433 -141t218 -367l-319 -86q-25 131 -116 213t-234 82q-186 0 -313.5 -149.5t-127.5 -345.5q0 -164 97.5 -275t265.5 -111 q123 0 231.5 76t163.5 211z" glyph-name="C" horiz-adv-x="1564" unicode="C"/><glyph d="M72 0l252 1434h540q311 0 478 -169t167 -442q0 -164 -49 -310t-142 -262t-240.5 -183.5t-332.5 -67.5h-673zM825 1149h-237l-154 -864h314q209 0 322.5 151.5t113.5 366.5q0 160 -88.5 253t-270.5 93z" glyph-name="D" horiz-adv-x="1562" unicode="D"/><glyph d="M72 0l252 1434h1071l-49 -285h-760l-51 -295h614l-49 -270h-613l-53 -299h758l-49 -285h-1071z" glyph-name="E" horiz-adv-x="1335" unicode="E"/><glyph d="M72 0l252 1434h1034l-51 -293h-721l-64 -355h652l-50 -284h-651l-88 -502h-313z" glyph-name="F" horiz-adv-x="1286" unicode="F"/><glyph d="M782 553l45 254h707l-141 -807h-244l31 174q-152 -197 -422 -197q-297 0 -467 189.5t-170 464.5q0 344 227 584.5t563 240.5q209 0 368 -94t243 -252l-267 -162q-113 215 -350 215q-197 0 -328 -150.5t-131 -361.5q0 -162 91.5 -270.5t259.5 -108.5q129 0 227 73t154 208 h-396z" glyph-name="G" horiz-adv-x="1599" unicode="G"/><glyph d="M1307 1434h313l-252 -1434h-313l100 575h-670l-100 -575h-313l252 1434h313l-100 -574h669z" glyph-name="H" horiz-adv-x="1624" unicode="H"/><glyph d="M324 1434h315l-252 -1434h-315z" glyph-name="I" horiz-adv-x="643" unicode="I"/><glyph d="M399 1141l52 293h892l-165 -945q-41 -236 -200 -374t-380 -138q-260 0 -397.5 139.5t-137.5 350.5q0 49 11 115l24 129h314l-21 -117q-10 -51 -10 -88q0 -111 56.5 -172.5t168.5 -61.5q219 0 268 277l105 592h-580z" glyph-name="J" horiz-adv-x="1333" unicode="J"/><glyph d="M1026 0l-272 575h-267l-102 -575h-313l252 1434h313l-100 -574h225l452 574h373l-557 -711l340 -723h-344z" glyph-name="K" horiz-adv-x="1468" unicode="K"/><glyph d="M72 0l252 1434h313l-201 -1141h713l-53 -293h-1024z" glyph-name="L" horiz-adv-x="1232" unicode="L"/><glyph d="M385 0h-313l252 1434h325l277 -885l618 885h326l-252 -1434h-313l151 858l-471 -676h-219l-223 713z" glyph-name="M" horiz-adv-x="1871" unicode="M"/><glyph d="M385 0h-313l252 1434h319l498 -965l170 965h313l-252 -1434h-317l-500 963z" glyph-name="N" horiz-adv-x="1628" unicode="N"/><glyph d="M121 639q0 338 229.5 577.5t562.5 239.5q311 0 494.5 -190.5t183.5 -470.5q0 -338 -229 -578t-563 -240q-313 0 -495.5 190.5t-182.5 471.5zM895 1157q-188 0 -318.5 -148.5t-130.5 -346.5q0 -164 100.5 -275t270.5 -111q188 0 318.5 148.5t130.5 347.5 q0 164 -100.5 274.5t-270.5 110.5z" glyph-name="O" horiz-adv-x="1644" unicode="O"/><glyph d="M72 0l252 1434h559q260 0 397 -137.5t137 -342.5q0 -117 -38 -223t-111.5 -192t-193.5 -137.5t-269 -51.5h-359l-61 -350h-313zM496 633h268q180 0 255 88t75 219q0 211 -277 211h-229z" glyph-name="P" horiz-adv-x="1425" unicode="P"/><glyph d="M121 639q0 338 229.5 577.5t562.5 239.5q311 0 494.5 -190.5t183.5 -470.5q0 -244 -128 -449t-357 -307q133 -145 291 -145q72 0 151 40l97 -260q-111 -72 -275 -71q-102 0 -198.5 34.5t-177.5 99t-134 118t-112 125.5q-289 14 -458 203.5t-169 455.5zM895 1157 q-188 0 -318.5 -148.5t-130.5 -346.5q0 -164 100.5 -275t270.5 -111q188 0 318.5 148.5t130.5 347.5q0 164 -100.5 274.5t-270.5 110.5z" glyph-name="Q" horiz-adv-x="1644" unicode="Q"/><glyph d="M72 0l252 1434h602q248 0 373.5 -126t125.5 -317q0 -174 -89 -317.5t-244 -206.5l235 -467h-338l-205 424h-325l-74 -424h-313zM508 705h301q143 0 216 69.5t73 194.5q0 84 -56.5 134t-173.5 50h-280z" glyph-name="R" horiz-adv-x="1476" unicode="R"/><glyph d="M68 422l313 63v-22q0 -119 89 -171t228 -52q94 0 157 34.5t63 100.5q0 86 -252 192q-25 10 -37 17q-203 84 -315.5 190.5t-112.5 257.5q0 205 150.5 314.5t387.5 109.5q260 0 420 -119.5t160 -353.5v-27h-311v15q0 221 -275 221q-78 0 -141.5 -32t-63.5 -107 q0 -61 60.5 -104.5t189.5 -98.5q88 -37 143.5 -64.5t123 -70.5t105.5 -85t64.5 -101.5t26.5 -129.5q0 -201 -145.5 -311.5t-403.5 -110.5q-160 0 -296 41t-232 140.5t-96 242.5v21z" glyph-name="S" horiz-adv-x="1357" unicode="S"/><glyph d="M158 1141l51 293h1200l-51 -293h-443l-200 -1141h-314l201 1141h-444z" glyph-name="T" horiz-adv-x="1298" unicode="T"/><glyph d="M1270 1434h313l-153 -871q-47 -270 -228.5 -428t-441.5 -158q-297 0 -450.5 157t-153.5 403q0 68 12 141l133 756h313l-133 -758q-10 -66 -10 -109q0 -141 78 -217t227 -76q291 0 350 344z" glyph-name="U" horiz-adv-x="1568" unicode="U"/><glyph d="M815 0h-354l-293 1434h336l188 -1039l553 1039h363z" glyph-name="V" horiz-adv-x="1458" unicode="V"/><glyph d="M709 0h-361l-137 1434h328l82 -969l448 969h332l94 -955l416 955h352l-643 -1434h-356l-99 979z" glyph-name="W" horiz-adv-x="2150" unicode="W"/><glyph d="M1591 1434l-594 -719l361 -715h-365l-235 502l-412 -502h-428l614 717l-339 717h364l219 -519l400 519h415z" glyph-name="X" horiz-adv-x="1462" unicode="X"/><glyph d="M516 1434l238 -613l452 613h406l-735 -934l-86 -500h-314l88 498l-405 936h356z" glyph-name="Y" horiz-adv-x="1449" unicode="Y"/><glyph d="M215 1141l51 293h1166l-46 -263l-897 -878h742l-51 -293h-1188l47 262l895 879h-719z" glyph-name="Z" horiz-adv-x="1366" unicode="Z"/><glyph d="M606 -111l-45 -256h-563l317 1801h564l-48 -256h-260l-227 -1289h262z" glyph-name="bracketleft" horiz-adv-x="786" unicode="["/><glyph d="M207 1434h274l375 -1434h-276z" glyph-name="backslash" horiz-adv-x="991" unicode="\"/><glyph d="M184 1178l45 256h564l-318 -1801h-563l47 256h260l227 1289h-262z" glyph-name="bracketright" horiz-adv-x="786" unicode="]"/><glyph d="M580 1434h262l207 -756h-283l-94 434l-246 -434h-320z" glyph-name="asciicircum" horiz-adv-x="1093" unicode="^"/><glyph d="M903 -147l-41 -242h-1024l43 242h1022z" glyph-name="underscore" horiz-adv-x="1021" unicode="_"/><glyph d="M754 1577l-226 -68l-223 322l246 156z" glyph-name="grave" horiz-adv-x="632" unicode="`"/><glyph d="M764 0l20 115q-119 -137 -295 -138q-193 0 -302 132.5t-109 332.5q0 150 57.5 290t178 238.5t280.5 98.5q236 0 328 -174l26 152h307l-184 -1047h-307zM598 252q117 0 193.5 93t76.5 220q0 100 -55 165t-156 65q-117 0 -192.5 -94.5t-75.5 -223.5q0 -98 54.5 -161.5 t154.5 -63.5z" glyph-name="a" unicode="a"/><glyph d="M596 1434l-88 -502q119 137 295 137q193 0 302 -132t109 -333q0 -150 -57 -290t-178 -238.5t-281 -98.5q-236 0 -327 175l-27 -152h-307l252 1434h307zM694 795q-117 0 -193.5 -93.5t-76.5 -220.5q0 -100 55.5 -164.5t155.5 -64.5q117 0 192.5 94t75.5 223 q0 98 -54.5 162t-154.5 64z" glyph-name="b" unicode="b"/><glyph d="M829 430l275 -86q-68 -172 -212 -269.5t-314 -97.5q-229 0 -364.5 141.5t-135.5 348.5q0 242 165 422t410 180q195 0 323 -104.5t161 -272.5l-287 -80q-29 182 -205 183q-117 0 -189.5 -94.5t-72.5 -221.5q0 -100 53 -164.5t154 -64.5q76 0 140 48t99 132z" glyph-name="c" horiz-adv-x="1181" unicode="c"/><glyph d="M764 0l20 115q-119 -137 -295 -138q-193 0 -302 132.5t-109 332.5q0 150 57.5 290t178 238.5t280.5 98.5q236 0 328 -174l96 539h307l-254 -1434h-307zM598 252q117 0 193.5 93t76.5 220q0 100 -55 165t-156 65q-117 0 -192.5 -94.5t-75.5 -223.5q0 -98 54.5 -161.5 t154.5 -63.5z" glyph-name="d" unicode="d"/><glyph d="M891 324l125 -205q-164 -141 -418 -142q-250 0 -385 137.5t-135 344.5q0 260 173 435t437 175q199 0 314.5 -93t115.5 -233q0 -158 -151.5 -262t-448.5 -104h-125q45 -150 232 -150q137 1 266 97zM684 823q-106 0 -183 -62.5t-106 -172.5h84q172 0 253 40t81 103 q0 43 -35 67.5t-94 24.5z" glyph-name="e" horiz-adv-x="1169" unicode="e"/><glyph d="M94 778l47 269h181l10 57q37 205 142.5 295t252.5 90q145 0 301 -78l-100 -223q-82 41 -158 41q-106 0 -133 -137l-8 -45h291l-48 -269h-290l-146 -827q-37 -205 -143.5 -297t-253.5 -92q-137 0 -281 67l99 226q72 -33 139 -33q111 0 135 141l143 815h-180z" glyph-name="f" horiz-adv-x="858" unicode="f"/><glyph d="M84 473q0 233 137 414.5t354 181.5q221 0 322 -172l27 150h307l-162 -918q-27 -154 -84 -263.5t-133 -167.5t-157 -84t-173 -26q-164 0 -302 63.5t-232 164.5l182 209q178 -172 336 -172q209 0 254 264l6 37q-119 -115 -272 -115q-193 0 -301.5 123t-108.5 311zM645 801 q-104 0 -179 -84t-75 -197q0 -90 56.5 -150.5t150.5 -60.5q104 0 178 81t74 194q0 92 -55.5 154.5t-149.5 62.5z" glyph-name="g" horiz-adv-x="1267" unicode="g"/><glyph d="M735 0l103 582q6 33 6 67q0 82 -41 119t-107 37q-90 0 -161.5 -64.5t-88.5 -158.5l-102 -582h-307l252 1434h307l-90 -514q125 150 325 149q154 0 241 -89t87 -257q0 -59 -12 -129l-105 -594h-307z" glyph-name="h" horiz-adv-x="1251" unicode="h"/><glyph d="M238 1321q0 80 60 137.5t142 57.5q74 0 123 -48.5t49 -119.5q0 -80 -60 -137.5t-144 -57.5q-74 0 -122 49t-48 119zM37 0l184 1047h307l-184 -1047h-307z" glyph-name="i" horiz-adv-x="565" unicode="i"/><glyph d="M250 1321q0 80 60.5 137.5t144.5 57.5q74 0 122 -48.5t48 -119.5q0 -80 -60.5 -137.5t-142.5 -57.5q-74 0 -123 49t-49 119zM-195 -373l86 242q35 -12 64 -12q70 0 86 94l192 1096h308l-201 -1141q-57 -315 -348 -316q-101 0 -187 37z" glyph-name="j" horiz-adv-x="579" unicode="j"/><glyph d="M741 0l-170 393h-157l-70 -393h-307l252 1434h307l-137 -783h135l272 396h351l-377 -537l225 -510h-324z" glyph-name="k" horiz-adv-x="1177" unicode="k"/><glyph d="M37 0l252 1434h307l-252 -1434h-307z" glyph-name="l" horiz-adv-x="565" unicode="l"/><glyph d="M1352 0l106 606q6 33 6 60q0 72 -36.5 105.5t-96.5 33.5q-84 0 -146.5 -59.5t-78.5 -151.5l-105 -594h-307l107 604q6 35 6 62q0 139 -133 139q-84 0 -145.5 -57.5t-77.5 -143.5l-107 -604h-307l184 1047h307l-22 -129q113 152 307 151q223 0 289 -182q121 182 350 182 q156 0 242 -85t86 -245q0 -59 -13 -123l-108 -616h-307z" glyph-name="m" horiz-adv-x="1869" unicode="m"/><glyph d="M735 0l103 582q6 33 6 67q0 82 -41 119t-107 37q-90 0 -161.5 -64.5t-88.5 -158.5l-102 -582h-307l184 1047h307l-22 -127q125 150 325 149q154 0 241 -89t87 -257q0 -59 -12 -129l-105 -594h-307z" glyph-name="n" horiz-adv-x="1251" unicode="n"/><glyph d="M78 469q0 242 168 421t413 179q233 0 370.5 -141.5t137.5 -349.5q0 -242 -168 -421.5t-413 -179.5q-233 0 -370.5 141.5t-137.5 350.5zM649 797q-115 0 -190.5 -95.5t-75.5 -222.5q0 -100 55.5 -164.5t157.5 -64.5q115 0 190.5 95t75.5 222q0 100 -55.5 165t-157.5 65z " glyph-name="o" horiz-adv-x="1247" unicode="o"/><glyph d="M528 1047l-20 -115q119 137 295 137q193 0 302 -132t109 -333q0 -150 -57 -290t-178 -238.5t-281 -98.5q-236 0 -327 175l-90 -519h-308l248 1414h307zM694 795q-117 0 -193.5 -93.5t-76.5 -220.5q0 -100 55.5 -164.5t155.5 -64.5q117 0 192.5 94t75.5 223 q0 98 -54.5 162t-154.5 64z" glyph-name="p" unicode="p"/><glyph d="M700 -367l84 482q-119 -137 -295 -138q-193 0 -302 132.5t-109 332.5q0 150 57.5 290t178 238.5t280.5 98.5q236 0 328 -174l26 152h307l-247 -1414h-308zM598 252q117 0 193.5 93t76.5 220q0 100 -55 165t-156 65q-117 0 -192.5 -94.5t-75.5 -223.5q0 -98 54.5 -161.5 t154.5 -63.5z" glyph-name="q" unicode="q"/><glyph d="M528 1047l-59 -338q68 147 179.5 250.5t266.5 109.5l-65 -369q-160 -14 -290 -115.5t-159 -258.5l-57 -326h-307l184 1047h307z" glyph-name="r" horiz-adv-x="874" unicode="r"/><glyph d="M31 287l282 71q8 -74 65.5 -114.5t139.5 -40.5q137 0 137 76q0 14 -7 26t-21.5 23.5t-28.5 20.5t-38.5 19.5t-41 16.5t-44.5 16.5t-42 16.5q-307 121 -307 325q0 152 115.5 239t314.5 87q205 0 333 -91t128 -255v-12h-293v10q0 55 -41 88t-121 33q-133 0 -133 -78 q0 -14 5 -25.5t17.5 -21.5t23.5 -18.5t34.5 -18.5t38 -16.5t48.5 -19.5t50 -19q152 -59 234 -133t82 -189q0 -156 -115 -241t-318 -85q-211 0 -350 84.5t-147 225.5z" glyph-name="s" horiz-adv-x="1077" unicode="s"/><glyph d="M78 778l47 269h180l43 249l326 105l-62 -354h318l-47 -269h-318l-65 -368q-6 -31 -6 -56q0 -102 108 -102q61 0 150 37l61 -250q-143 -61 -274 -62q-354 0 -355 334q0 59 17 146l57 321h-180z" glyph-name="t" horiz-adv-x="909" unicode="t"/><glyph d="M514 1047l-102 -582q-6 -33 -6 -68q0 -82 40.5 -118.5t106.5 -36.5q90 0 161.5 64.5t88.5 158.5l102 582h307l-184 -1047h-307l22 127q-125 -150 -325 -150q-154 0 -241 89.5t-87 257.5q0 57 12 129l105 594h307z" glyph-name="u" horiz-adv-x="1249" unicode="u"/><glyph d="M651 0h-332l-208 1047h317l107 -699l348 699h346z" glyph-name="v" horiz-adv-x="1157" unicode="v"/><glyph d="M590 0h-357l-96 1047h320l30 -687l304 687h309l57 -676l266 676h344l-467 -1047h-352l-61 674z" glyph-name="w" horiz-adv-x="1720" unicode="w"/><glyph d="M1231 1047l-436 -525l266 -522h-344l-144 328l-251 -328h-396l455 524l-254 523h336l137 -326l252 326h379z" glyph-name="x" horiz-adv-x="1173" unicode="x"/><glyph d="M12 -444l-84 274q233 57 387 193l-202 1024h317l105 -687l348 687h348l-518 -932q-70 -125 -148 -220.5t-144.5 -151.5t-145 -97t-135 -58.5t-128.5 -31.5z" glyph-name="y" horiz-adv-x="1157" unicode="y"/><glyph d="M135 776l47 271h873l-39 -213l-555 -564h457l-48 -270h-872l37 211l555 565h-455z" glyph-name="z" horiz-adv-x="1052" unicode="z"/><glyph d="M23 408l43 249h63q84 0 131 44t66 151l47 274q53 307 379 308h198l-43 -256h-98q-76 0 -106.5 -38t-45.5 -118l-26 -154q-12 -72 -20.5 -107.5t-27 -83.5t-41 -73.5t-60.5 -48.5t-91 -35q133 -53 133 -211q0 -49 -12 -110l-27 -148q-14 -78 9.5 -120t97.5 -42h86 l-45 -256h-137q-156 0 -242 77t-86 206q0 33 6 70l37 221q6 33 6 59q0 141 -162 142h-32z" glyph-name="braceleft" horiz-adv-x="864" unicode="{"/><glyph d="M328 1507h233l-330 -1874h-233z" glyph-name="bar" horiz-adv-x="542" unicode="|"/><glyph d="M844 659l-43 -249h-64q-84 0 -131 -44t-65 -151l-47 -274q-53 -307 -379 -308h-199l43 256h98q76 0 107 38t45 118l27 154q12 72 20 107.5t26.5 83.5t41 73.5t60.5 48.5t91 35q-133 53 -133 211q0 49 12 110l27 148q14 78 -9.5 120t-97.5 42h-86l45 256h138 q156 0 241.5 -77t85.5 -206q0 -33 -6 -70l-37 -221q-6 -33 -6 -59q0 -141 162 -142h33z" glyph-name="braceright" horiz-adv-x="864" unicode="}"/><glyph d="M330 410h-224q16 160 90 257t197 97q106 0 174 -94q8 -12 21.5 -35t21.5 -32t19 -9q29 0 47 135h223q-16 -160 -90 -258t-195 -98q-100 0 -174 96q-10 12 -22 33.5t-20.5 32t-18.5 10.5q-31 0 -49 -135z" glyph-name="asciitilde" horiz-adv-x="987" unicode="~"/><glyph glyph-name="uni00A0" horiz-adv-x="462" unicode=" "/><glyph d="M311 -387h-362l244 958h210zM537 909q0 -78 -58.5 -132t-138.5 -54q-70 0 -117 47t-47 115q0 76 58.5 130t136.5 54q70 0 118 -46t48 -114z" glyph-name="exclamdown" horiz-adv-x="581" unicode="¡"/><glyph d="M836 633l249 -88q-63 -147 -176.5 -232.5t-244.5 -105.5l-35 -207h-244l39 227q-143 47 -223 165t-80 267q0 209 133 372t344 192l39 211h244l-41 -232q113 -39 184.5 -125t95.5 -198l-268 -80q-14 76 -64.5 124t-134.5 48q-109 0 -177 -88t-68 -209q0 -92 52 -152.5 t146 -60.5q150 0 230 172z" glyph-name="cent" horiz-adv-x="1150" unicode="¢"/><glyph d="M41 0l39 223q174 123 211 309h-187l43 248h136q-39 184 -39 238q0 195 127 316.5t321 121.5q172 0 299 -99.5t127 -287.5q0 -49 -8 -92h-291q6 37 6 63q0 76 -36.5 110t-88.5 34q-74 0 -115.5 -53.5t-41.5 -139.5q0 -27 35 -211h311l-43 -248h-264q-33 -158 -138 -262 h521l-45 -270h-879z" glyph-name="sterling" horiz-adv-x="1116" unicode="£"/><glyph d="M82 408l178 145q-25 61 -24 129q0 127 75 238l-112 151l207 160l114 -154q68 25 139 25q96 0 164 -33l197 162l162 -205l-178 -145q25 -61 24 -129q0 -127 -76 -238l113 -152l-207 -159l-115 153q-68 -25 -139 -24q-96 0 -164 33l-196 -162zM647 877q-68 0 -114 -55.5 t-46 -129.5q0 -57 34 -96t95 -39q68 0 114 55.5t46 128.5q0 57 -34 96.5t-95 39.5z" glyph-name="currency" horiz-adv-x="1198" unicode="¤"/><glyph d="M674 872l327 562h353l-451 -701h230l-39 -217h-316l-18 -98h315l-37 -217h-315l-35 -201h-305l35 201h-316l39 217h314l18 98h-315l39 217h227l-201 701h320z" glyph-name="yen" horiz-adv-x="1259" unicode="¥"/><glyph d="M328 1507h233l-141 -811h-234zM139 438h234l-142 -805h-233z" glyph-name="brokenbar" horiz-adv-x="542" unicode="¦"/><glyph d="M1026 717q0 -172 -160 -252q72 -76 72 -172q0 -143 -106.5 -229.5t-286.5 -86.5q-178 0 -303 73t-142 212l260 64q4 -68 52.5 -105t115.5 -37q63 0 96 26t33 62q0 31 -28.5 56.5t-59 40t-92.5 37.5q-156 57 -246 126.5t-90 182.5q0 168 158 254q-72 76 -72 174 q0 141 107.5 227t288.5 86q186 0 315 -83t129 -234v-31h-268v18q0 59 -45 91t-115 32q-63 0 -97 -25.5t-34 -62.5q0 -31 28.5 -56.5t59.5 -39.5t92 -37q158 -57 248 -126.5t90 -184.5zM524 834l-32 12q-74 -25 -74 -92q0 -16 6 -30.5t21.5 -28t28.5 -22.5t38 -20.5t41 -18.5 t46 -18.5t42 -15.5l33 -12q74 27 74 92q0 16 -6.5 30.5t-21.5 28t-28.5 22.5t-38 20.5t-41 18.5t-46.5 18.5t-42 15.5z" glyph-name="section" horiz-adv-x="1097" unicode="§"/><glyph d="M322 1681q0 70 52 119t124 49q63 0 105 -43t42 -104q0 -68 -53 -118t-123 -50q-63 0 -105 43t-42 104zM713 1681q0 70 52 119t124 49q63 0 105 -43t42 -104q0 -70 -52 -119t-124 -49q-63 0 -105 43t-42 104z" glyph-name="dieresis" horiz-adv-x="784" unicode="¨"/><glyph d="M1012 657l164 -61q-51 -117 -144.5 -182.5t-206.5 -65.5q-150 0 -239.5 95.5t-89.5 232.5q0 164 111.5 286.5t277.5 122.5q125 0 208 -68.5t107 -180.5l-176 -58q-12 59 -51 94t-99 35q-78 0 -134 -65.5t-56 -149.5q0 -72 41 -119t113 -47q113 0 174 131zM121 649 q0 324 235.5 565.5t552.5 241.5q295 0 477.5 -197.5t182.5 -474.5q0 -324 -235.5 -565.5t-551.5 -241.5q-295 0 -478 198t-183 474zM895 1300q-248 0 -429 -193.5t-181 -451.5q0 -217 140 -369.5t370 -152.5q248 0 429 193.5t181 451.5q0 217 -140.5 369.5t-369.5 152.5z " glyph-name="copyright" horiz-adv-x="1622" unicode="©"/><glyph d="M541 1434q145 0 221 -97l14 80h225l-129 -727h-225l8 47q-84 -61 -180 -61q-147 0 -227 91t-80 230q0 178 107.5 307.5t265.5 129.5zM539 868q76 0 127 64.5t51 148.5q0 68 -37 113t-102 45q-76 0 -127.5 -65.5t-51.5 -147.5q0 -68 38.5 -113t101.5 -45z" glyph-name="ordfeminine" horiz-adv-x="978" unicode="ª"/><glyph d="M387 508l135 -283l-217 -133l-235 445l391 446l184 -162zM889 508l135 -283l-217 -133l-236 445l392 446l184 -162z" glyph-name="guillemotleft" horiz-adv-x="1177" unicode="«"/><glyph d="M815 360l59 336h-745l47 262h1000l-107 -598h-254z" glyph-name="logicalnot" horiz-adv-x="1236" unicode="¬"/><glyph d="M176 948q0 211 153.5 359.5t348.5 148.5q190 0 307 -125t117 -301q0 -211 -153.5 -359.5t-346 -148.5t-309.5 125t-117 301zM664 1339q-147 0 -258 -117.5t-111 -269.5q0 -131 87 -222t232 -91q147 0 258 117.5t111 269.5q0 131 -87 222t-232 91zM510 1208h184 q76 0 115 -39t39 -96q0 -123 -103 -164l68 -133h-108l-60 121h-92l-21 -121h-98zM684 1120h-92l-23 -133h99q84 0 84 76q0 57 -68 57z" glyph-name="registered" horiz-adv-x="1116" unicode="®"/><glyph d="M956 1812l-43 -239h-587l43 239h587z" glyph-name="macron" horiz-adv-x="706" unicode="¯"/><glyph d="M172 1067q0 168 120 278.5t273 110.5q150 0 242 -97t92 -235q0 -168 -120 -278.5t-273 -110.5q-150 0 -242 97.5t-92 234.5zM551 1237q-61 0 -106.5 -45t-45.5 -113q0 -53 34 -89t87 -36q61 0 106.5 45t45.5 113q0 53 -34 89t-87 36z" glyph-name="degree" horiz-adv-x="876" unicode="°"/><glyph d="M899 336l-47 -264h-801l47 264h801zM213 995h268l51 293h265l-52 -293h269l-45 -260h-271l-51 -293h-264l51 293h-266z" glyph-name="plusminus" horiz-adv-x="1060" unicode="±"/><glyph d="M721 791l-35 -207h-598l31 168q258 172 360 282q80 80 80 146q0 29 -17.5 47t-47.5 18q-84 0 -101 -129h-217q10 98 48 168t90.5 102.5t99.5 46t94 13.5q127 0 205 -69.5t78 -176.5q0 -154 -162 -307q-57 -53 -123 -102h215z" glyph-name="uni00B2" horiz-adv-x="749" unicode="²"/><glyph d="M80 684l137 166q121 -78 195 -78q90 0 90 68q0 84 -176 84l30 166q45 -2 84 5t75 33.5t36 73.5q0 27 -18.5 43.5t-45.5 16.5q-76 0 -86 -86h-213q4 80 37 136t83 83.5t96.5 39t93.5 11.5q117 0 196.5 -63.5t79.5 -163.5q0 -158 -145 -222q100 -57 100 -163.5t-80 -184.5 t-235 -78q-184 0 -334 113z" glyph-name="uni00B3" horiz-adv-x="745" unicode="³"/><glyph d="M610 1507l-196 105l340 375l188 -195z" glyph-name="acute" horiz-adv-x="628" unicode="´"/><glyph d="M758 0l22 127q-125 -150 -325 -150q-43 0 -90 11l-62 -355h-307l248 1414h307l-102 -582q-6 -33 -7 -68q0 -82 41 -118.5t107 -36.5q90 0 161.5 64.5t88.5 158.5l102 582h307l-184 -1047h-307z" glyph-name="uni00B5" horiz-adv-x="1310" unicode="µ"/><glyph d="M506 0l78 449q-221 8 -332 129.5t-111 302.5q0 231 147.5 392t399.5 161h682l-252 -1434h-250l211 1194h-114l-209 -1194h-250zM717 1194h-33q-141 0 -213 -85t-72 -208q0 -94 55.5 -153.5t170.5 -59.5h2z" glyph-name="paragraph" horiz-adv-x="1378" unicode="¶"/><glyph d="M109 578q0 82 62 140t144 58q74 0 124 -50t50 -122q0 -82 -61 -139t-145 -57q-74 0 -124 49t-50 121z" glyph-name="periodcentered" horiz-adv-x="577" unicode="·"/><glyph d="M209 14h147l-59 -108q145 -45 145 -187q0 -102 -72.5 -172.5t-195.5 -70.5q-137 0 -256 80l115 174q78 -53 135 -54q72 0 72 57.5t-101 57.5l-33 59z" glyph-name="cedilla" horiz-adv-x="507" unicode="¸"/><glyph d="M213 584l98 565l-161 -82l45 254l225 113h176l-152 -850h-231z" glyph-name="uni00B9" horiz-adv-x="540" unicode="¹"/><glyph d="M164 1018q0 164 117.5 290t291.5 126q168 0 264.5 -98.5t96.5 -243.5q0 -164 -118 -290t-292 -126q-168 0 -264 98.5t-96 243.5zM563 1225q-72 0 -119 -59.5t-47 -141.5q0 -61 36 -100t102 -39q72 0 118.5 59.5t46.5 140.5q0 61 -35.5 100.5t-101.5 39.5z" glyph-name="ordmasculine" horiz-adv-x="917" unicode="º"/><glyph d="M295 569l-135 283l217 133l235 -444l-391 -447l-184 162zM797 569l-135 283l217 133l235 -444l-391 -447l-184 162z" glyph-name="guillemotright" horiz-adv-x="1177" unicode="»"/><glyph d="M358 0h-227l1155 1434h227zM233 584l99 565l-162 -82l45 254l225 113h176l-151 -850h-232zM1468 2h-217l27 152h-371l29 163l285 535h249l-276 -496h119l35 191l227 63l-45 -254h98l-35 -202h-98z" glyph-name="onequarter" horiz-adv-x="1716" unicode="¼"/><glyph d="M352 0h-227l1155 1434h227zM227 584l99 565l-162 -82l45 254l225 113h176l-151 -850h-232zM1563 209l-35 -207h-598l31 168q258 172 360 283q80 80 80 145q0 29 -17.5 47.5t-48.5 18.5q-84 0 -100 -129h-217q10 98 48 167.5t90 102.5t99.5 46t94.5 13q127 0 204.5 -69.5 t77.5 -176.5q0 -154 -162 -307q-57 -53 -122 -102h215z" glyph-name="onehalf" horiz-adv-x="1695" unicode="½"/><glyph d="M520 0h-227l1155 1434h227zM1630 2h-217l27 152h-371l29 163l284 535h250l-276 -496h119l34 191l228 63l-45 -254h98l-35 -202h-98zM98 684l138 166q121 -78 194 -78q90 0 90 68q0 84 -176 84l31 166q45 -2 84 5t74.5 33.5t35.5 73.5q0 27 -18.5 43.5t-44.5 16.5 q-76 0 -86 -86h-213q4 80 36.5 136t83 83.5t96.5 39t93 11.5q117 0 197 -63.5t80 -163.5q0 -158 -146 -222q100 -57 100.5 -163.5t-79.5 -184.5t-236 -78q-184 0 -334 113z" glyph-name="threequarters" horiz-adv-x="1878" unicode="¾"/><glyph d="M451 580h282l-14 -80q-20 -109 -83 -182.5t-163 -139.5q-6 -4 -44 -26.5t-55.5 -35t-44 -36t-37.5 -49t-11 -56.5q0 -55 38.5 -87.5t102.5 -32.5q80 0 135 56t64 155h303q-10 -125 -58.5 -220.5t-122 -151.5t-159.5 -85t-181 -29q-197 0 -316.5 102.5t-119.5 264.5 q0 139 73 231t214 176q66 41 96.5 62.5t59 56.5t36.5 76zM829 907q0 -76 -58 -131t-138 -55q-70 0 -117 47t-47 115q0 78 57.5 132t137.5 54q70 0 117.5 -47t47.5 -115z" glyph-name="questiondown" horiz-adv-x="1064" unicode="¿"/><glyph d="M733 1434h348l318 -1434h-330l-47 240h-621l-129 -240h-360zM860 1090l-311 -578h422zM1128 1577l-225 -68l-223 322l246 156z" glyph-name="Agrave" horiz-adv-x="1495" unicode="À"/><glyph d="M733 1434h348l318 -1434h-330l-47 240h-621l-129 -240h-360zM860 1090l-311 -578h422zM965 1507l-197 105l340 375l188 -195z" glyph-name="Aacute" horiz-adv-x="1495" unicode="Á"/><glyph d="M733 1434h348l318 -1434h-330l-47 240h-621l-129 -240h-360zM860 1090l-311 -578h422zM967 1653l-222 -140l-131 173l375 239l303 -242l-147 -170z" glyph-name="Acircumflex" horiz-adv-x="1495" unicode="Â"/><glyph d="M733 1434h348l318 -1434h-330l-47 240h-621l-129 -240h-360zM860 1090l-311 -578h422zM793 1563h-224q16 160 90 257t197 97q106 0 174 -94q8 -12 21.5 -35t21.5 -32t19 -9q29 0 47 135h223q-16 -160 -90 -258t-195 -98q-100 0 -174 96q-10 12 -22.5 33.5t-20.5 32 t-18 10.5q-31 0 -49 -135z" glyph-name="Atilde" horiz-adv-x="1495" unicode="Ã"/><glyph d="M733 1434h348l318 -1434h-330l-47 240h-621l-129 -240h-360zM860 1090l-311 -578h422zM604 1681q0 70 52.5 119t123.5 49q63 0 105.5 -43t42.5 -104q0 -68 -53.5 -118t-122.5 -50q-63 0 -105.5 43t-42.5 104zM995 1681q0 70 52.5 119t123.5 49q63 0 105.5 -43t42.5 -104 q0 -70 -52.5 -119t-123.5 -49q-63 0 -105.5 43t-42.5 104z" glyph-name="Adieresis" horiz-adv-x="1495" unicode="Ä"/><glyph d="M733 1434h348l318 -1434h-330l-47 240h-621l-129 -240h-360zM860 1090l-311 -578h422zM717 1737q0 115 83 197.5t193 82.5q106 0 173 -68.5t67 -164.5q0 -115 -83 -198t-194 -83q-106 0 -172.5 69t-66.5 165zM981 1849q-35 0 -63.5 -28.5t-28.5 -67.5q0 -35 21.5 -58.5 t58.5 -23.5q35 0 63.5 29t28.5 67q0 35 -21.5 58.5t-58.5 23.5z" glyph-name="Aring" horiz-adv-x="1495" unicode="Å"/><glyph d="M1012 1434h1102l-52 -285h-698l-51 -295h551l-49 -270h-549l-54 -299h699l-49 -285h-1006l43 250h-432l-184 -250h-392zM670 522h278l86 494z" glyph-name="AE" horiz-adv-x="2052" unicode="Æ"/><glyph d="M1204 563l303 -92q-92 -231 -285.5 -361t-422.5 -133l-39 -71q145 -45 145 -187q0 -102 -72.5 -172.5t-195.5 -70.5q-137 0 -256 80l115 174q78 -53 135 -54q72 0 71.5 57.5t-100.5 57.5l-33 59l86 140q-248 41 -390 221t-142 426q0 219 100.5 406.5t281.5 300t400 112.5 q262 0 433 -141t218 -367l-319 -86q-25 131 -116 213t-234 82q-186 0 -313.5 -149.5t-127.5 -345.5q0 -164 97.5 -275t265.5 -111q123 0 231.5 76t163.5 211z" glyph-name="Ccedilla" horiz-adv-x="1564" unicode="Ç"/><glyph d="M1075 1577l-225 -68l-223 322l245 156zM72 0l252 1434h1071l-49 -285h-760l-51 -295h614l-49 -270h-613l-53 -299h758l-49 -285h-1071z" glyph-name="Egrave" horiz-adv-x="1335" unicode="È"/><glyph d="M913 1507l-196 105l340 375l188 -195zM72 0l252 1434h1071l-49 -285h-760l-51 -295h614l-49 -270h-613l-53 -299h758l-49 -285h-1071z" glyph-name="Eacute" horiz-adv-x="1335" unicode="É"/><glyph d="M72 0l252 1434h1071l-49 -285h-760l-51 -295h614l-49 -270h-613l-53 -299h758l-49 -285h-1071zM905 1653l-221 -140l-131 173l375 239l303 -242l-148 -170z" glyph-name="Ecircumflex" horiz-adv-x="1335" unicode="Ê"/><glyph d="M553 1681q0 70 52 119t124 49q63 0 105.5 -43t42.5 -104q0 -68 -53.5 -118t-123.5 -50q-63 0 -105 43t-42 104zM944 1681q0 70 52.5 119t123.5 49q63 0 105.5 -43t42.5 -104q0 -70 -52.5 -119t-123.5 -49q-63 0 -105.5 43t-42.5 104zM72 0l252 1434h1071l-49 -285h-760 l-51 -295h614l-49 -270h-613l-53 -299h758l-49 -285h-1071z" glyph-name="Edieresis" horiz-adv-x="1335" unicode="Ë"/><glyph d="M324 1434h315l-252 -1434h-315zM719 1577l-225 -68l-224 322l246 156z" glyph-name="Igrave" horiz-adv-x="643" unicode="Ì"/><glyph d="M324 1434h315l-252 -1434h-315zM500 1507l-197 105l340 375l188 -195z" glyph-name="Iacute" horiz-adv-x="643" unicode="Í"/><glyph d="M324 1434h315l-252 -1434h-315zM539 1653l-222 -140l-131 173l375 239l303 -242l-147 -170z" glyph-name="Icircumflex" horiz-adv-x="643" unicode="Î"/><glyph d="M324 1434h315l-252 -1434h-315zM168 1681q0 70 52 119t124 49q63 0 105.5 -43t42.5 -104q0 -68 -53.5 -118t-123.5 -50q-63 0 -105 43t-42 104zM559 1681q0 70 52.5 119t123.5 49q63 0 105.5 -43t42.5 -104q0 -70 -52.5 -119t-123.5 -49q-63 0 -105.5 43t-42.5 104z" glyph-name="Idieresis" horiz-adv-x="643" unicode="Ï"/><glyph d="M80 586l45 262h149l103 586h538q311 0 478.5 -169t167.5 -442q0 -164 -49.5 -310t-142.5 -262t-240.5 -183.5t-331.5 -67.5h-672l102 586h-147zM879 586h-340l-54 -301h314q209 0 322.5 151.5t113.5 366.5q0 160 -88 253t-270 93h-238l-53 -301h338z" glyph-name="Eth" horiz-adv-x="1613" unicode="Ð"/><glyph d="M385 0h-313l252 1434h319l498 -965l170 965h313l-252 -1434h-317l-500 963zM856 1563h-223q16 160 90 257t197 97q106 0 174 -94q8 -12 21 -35t21.5 -32t18.5 -9q29 0 47 135h223q-16 -160 -89.5 -258t-194.5 -98q-100 0 -174 96q-10 12 -22.5 33.5t-21 32t-18.5 10.5 q-31 0 -49 -135z" glyph-name="Ntilde" horiz-adv-x="1628" unicode="Ñ"/><glyph d="M121 639q0 338 229.5 577.5t562.5 239.5q311 0 494.5 -190.5t183.5 -470.5q0 -338 -229 -578t-563 -240q-313 0 -495.5 190.5t-182.5 471.5zM895 1157q-188 0 -318.5 -148.5t-130.5 -346.5q0 -164 100.5 -275t270.5 -111q188 0 318.5 148.5t130.5 347.5 q0 164 -100.5 274.5t-270.5 110.5zM1202 1577l-225 -68l-223 322l245 156z" glyph-name="Ograve" horiz-adv-x="1644" unicode="Ò"/><glyph d="M121 639q0 338 229.5 577.5t562.5 239.5q311 0 494.5 -190.5t183.5 -470.5q0 -338 -229 -578t-563 -240q-313 0 -495.5 190.5t-182.5 471.5zM895 1157q-188 0 -318.5 -148.5t-130.5 -346.5q0 -164 100.5 -275t270.5 -111q188 0 318.5 148.5t130.5 347.5 q0 164 -100.5 274.5t-270.5 110.5zM1038 1507l-196 105l340 375l188 -195z" glyph-name="Oacute" horiz-adv-x="1644" unicode="Ó"/><glyph d="M121 639q0 338 229.5 577.5t562.5 239.5q311 0 494.5 -190.5t183.5 -470.5q0 -338 -229 -578t-563 -240q-313 0 -495.5 190.5t-182.5 471.5zM895 1157q-188 0 -318.5 -148.5t-130.5 -346.5q0 -164 100.5 -275t270.5 -111q188 0 318.5 148.5t130.5 347.5 q0 164 -100.5 274.5t-270.5 110.5zM1032 1653l-221 -140l-131 173l375 239l303 -242l-148 -170z" glyph-name="Ocircumflex" horiz-adv-x="1644" unicode="Ô"/><glyph d="M121 639q0 338 229.5 577.5t562.5 239.5q311 0 494.5 -190.5t183.5 -470.5q0 -338 -229 -578t-563 -240q-313 0 -495.5 190.5t-182.5 471.5zM895 1157q-188 0 -318.5 -148.5t-130.5 -346.5q0 -164 100.5 -275t270.5 -111q188 0 318.5 148.5t130.5 347.5 q0 164 -100.5 274.5t-270.5 110.5zM868 1563h-223q16 160 90 257t197 97q106 0 174 -94q8 -12 21.5 -35t21.5 -32t18 -9q29 0 47 135h224q-16 -160 -90 -258t-195 -98q-100 0 -174 96q-10 12 -22.5 33.5t-20.5 32t-18 10.5q-32 0 -50 -135z" glyph-name="Otilde" horiz-adv-x="1644" unicode="Õ"/><glyph d="M121 639q0 338 229.5 577.5t562.5 239.5q311 0 494.5 -190.5t183.5 -470.5q0 -338 -229 -578t-563 -240q-313 0 -495.5 190.5t-182.5 471.5zM895 1157q-188 0 -318.5 -148.5t-130.5 -346.5q0 -164 100.5 -275t270.5 -111q188 0 318.5 148.5t130.5 347.5 q0 164 -100.5 274.5t-270.5 110.5zM680 1681q0 70 52 119t124 49q63 0 105.5 -43t42.5 -104q0 -68 -53.5 -118t-123.5 -50q-63 0 -105 43t-42 104zM1071 1681q0 70 52.5 119t123.5 49q63 0 105.5 -43t42.5 -104q0 -70 -52.5 -119t-123.5 -49q-63 0 -105.5 43t-42.5 104z" glyph-name="Odieresis" horiz-adv-x="1644" unicode="Ö"/><glyph d="M248 248l-168 194l280 246l-194 246l201 166l190 -242l277 242l167 -195l-284 -248l196 -243l-200 -166l-191 239z" glyph-name="multiply" horiz-adv-x="1028" unicode="×"/><glyph d="M123 639q0 217 100.5 403.5t283.5 300t408 113.5q233 0 404 -115l86 93h274l-217 -228q131 -174 131 -411q0 -217 -100 -403.5t-283.5 -300.5t-408.5 -114q-233 0 -400 111l-84 -88h-274l213 225q-133 178 -133 414zM897 1157q-188 0 -315 -150.5t-127 -351.5 q0 -102 39 -182l600 633q-84 51 -197 51zM819 276q184 0 313.5 148.5t129.5 345.5q0 102 -37 184l-598 -628q79 -50 192 -50z" glyph-name="Oslash" horiz-adv-x="1648" unicode="Ø"/><glyph d="M1270 1434h313l-153 -871q-47 -270 -228.5 -428t-441.5 -158q-297 0 -450.5 157t-153.5 403q0 68 12 141l133 756h313l-133 -758q-10 -66 -10 -109q0 -141 78 -217t227 -76q291 0 350 344zM1159 1577l-225 -68l-223 322l245 156z" glyph-name="Ugrave" horiz-adv-x="1568" unicode="Ù"/><glyph d="M1270 1434h313l-153 -871q-47 -270 -228.5 -428t-441.5 -158q-297 0 -450.5 157t-153.5 403q0 68 12 141l133 756h313l-133 -758q-10 -66 -10 -109q0 -141 78 -217t227 -76q291 0 350 344zM997 1507l-196 105l340 375l188 -195z" glyph-name="Uacute" horiz-adv-x="1568" unicode="Ú"/><glyph d="M1270 1434h313l-153 -871q-47 -270 -228.5 -428t-441.5 -158q-297 0 -450.5 157t-153.5 403q0 68 12 141l133 756h313l-133 -758q-10 -66 -10 -109q0 -141 78 -217t227 -76q291 0 350 344zM993 1653l-221 -140l-131 173l375 239l303 -242l-148 -170z" glyph-name="Ucircumflex" horiz-adv-x="1568" unicode="Û"/><glyph d="M1270 1434h313l-153 -871q-47 -270 -228.5 -428t-441.5 -158q-297 0 -450.5 157t-153.5 403q0 68 12 141l133 756h313l-133 -758q-10 -66 -10 -109q0 -141 78 -217t227 -76q291 0 350 344zM637 1681q0 70 52 119t124 49q63 0 105.5 -43t42.5 -104q0 -68 -53.5 -118 t-123.5 -50q-63 0 -105 43t-42 104zM1028 1681q0 70 52.5 119t123.5 49q63 0 105.5 -43t42.5 -104q0 -70 -52.5 -119t-123.5 -49q-63 0 -105.5 43t-42.5 104z" glyph-name="Udieresis" horiz-adv-x="1568" unicode="Ü"/><glyph d="M516 1434l238 -613l452 613h406l-735 -934l-86 -500h-314l88 498l-405 936h356zM944 1507l-196 105l339 375l189 -195z" glyph-name="Yacute" horiz-adv-x="1449" unicode="Ý"/><glyph d="M72 0l252 1434h313l-33 -179h244q260 0 397 -137t137 -342q0 -117 -37.5 -223.5t-111.5 -192.5t-193.5 -137t-269.5 -51h-354l-31 -172h-313zM465 455h264q180 0 255 88t75 219q0 211 -277 211h-227z" glyph-name="Thorn" horiz-adv-x="1435" unicode="Þ"/><glyph d="M430 53l111 250q82 -51 161 -51q76 0 126.5 44t50.5 122q0 82 -72 135t-211 53l45 246q133 -4 217 55.5t84 163.5q0 66 -48 108t-126 42q-88 0 -158.5 -64.5t-95.5 -200.5l-168 -956h-309l170 973q45 258 206.5 387t364.5 129q201 0 332 -114.5t131 -287.5 q0 -119 -61.5 -218t-175.5 -152q174 -111 174 -307q0 -182 -116 -307.5t-335 -125.5q-164 0 -297 76z" glyph-name="germandbls" horiz-adv-x="1286" unicode="ß"/><glyph d="M764 0l20 115q-119 -137 -295 -138q-193 0 -302 132.5t-109 332.5q0 150 57.5 290t178 238.5t280.5 98.5q236 0 328 -174l26 152h307l-184 -1047h-307zM598 252q117 0 193.5 93t76.5 220q0 100 -55 165t-156 65q-117 0 -192.5 -94.5t-75.5 -223.5q0 -98 54.5 -161.5 t154.5 -63.5zM956 1200l-225 -67l-223 321l246 156z" glyph-name="agrave" unicode="à"/><glyph d="M764 0l20 115q-119 -137 -295 -138q-193 0 -302 132.5t-109 332.5q0 150 57.5 290t178 238.5t280.5 98.5q236 0 328 -174l26 152h307l-184 -1047h-307zM598 252q117 0 193.5 93t76.5 220q0 100 -55 165t-156 65q-117 0 -192.5 -94.5t-75.5 -223.5q0 -98 54.5 -161.5 t154.5 -63.5zM791 1130l-197 105l340 375l188 -195z" glyph-name="aacute" unicode="á"/><glyph d="M764 0l20 115q-119 -137 -295 -138q-193 0 -302 132.5t-109 332.5q0 150 57.5 290t178 238.5t280.5 98.5q236 0 328 -174l26 152h307l-184 -1047h-307zM598 252q117 0 193.5 93t76.5 220q0 100 -55 165t-156 65q-117 0 -192.5 -94.5t-75.5 -223.5q0 -98 54.5 -161.5 t154.5 -63.5zM811 1276l-221 -139l-131 172l375 239l303 -241l-148 -170z" glyph-name="acircumflex" unicode="â"/><glyph d="M764 0l20 115q-119 -137 -295 -138q-193 0 -302 132.5t-109 332.5q0 150 57.5 290t178 238.5t280.5 98.5q236 0 328 -174l26 152h307l-184 -1047h-307zM598 252q117 0 193.5 93t76.5 220q0 100 -55 165t-156 65q-117 0 -192.5 -94.5t-75.5 -223.5q0 -98 54.5 -161.5 t154.5 -63.5zM623 1186h-224q16 160 90 257t197 97q106 0 174 -94q8 -12 21.5 -34.5t21.5 -32t19 -9.5q29 0 47 135h223q-16 -160 -90 -258t-195 -98q-100 0 -174 96q-10 12 -22.5 33.5t-20.5 32t-18 10.5q-31 0 -49 -135z" glyph-name="atilde" unicode="ã"/><glyph d="M764 0l20 115q-119 -137 -295 -138q-193 0 -302 132.5t-109 332.5q0 150 57.5 290t178 238.5t280.5 98.5q236 0 328 -174l26 152h307l-184 -1047h-307zM598 252q117 0 193.5 93t76.5 220q0 100 -55 165t-156 65q-117 0 -192.5 -94.5t-75.5 -223.5q0 -98 54.5 -161.5 t154.5 -63.5zM432 1305q0 70 52.5 119t123.5 49q63 0 105.5 -43.5t42.5 -104.5q0 -68 -53.5 -118t-122.5 -50q-63 0 -105.5 43.5t-42.5 104.5zM823 1305q0 70 52.5 119t123.5 49q63 0 105.5 -43.5t42.5 -104.5q0 -70 -52.5 -119t-123.5 -49q-63 0 -105.5 43.5t-42.5 104.5z " glyph-name="adieresis" unicode="ä"/><glyph d="M764 0l20 115q-119 -137 -295 -138q-193 0 -302 132.5t-109 332.5q0 150 57.5 290t178 238.5t280.5 98.5q236 0 328 -174l26 152h307l-184 -1047h-307zM598 252q117 0 193.5 93t76.5 220q0 100 -55 165t-156 65q-117 0 -192.5 -94.5t-75.5 -223.5q0 -98 54.5 -161.5 t154.5 -63.5zM547 1360q0 115 83 197.5t193 82.5q106 0 173 -68.5t67 -164.5q0 -115 -83 -198t-194 -83q-106 0 -172.5 69t-66.5 165zM811 1473q-35 0 -63.5 -29t-28.5 -68q0 -35 21.5 -58.5t58.5 -23.5q35 0 63.5 29t28.5 68q0 35 -21.5 58.5t-58.5 23.5z" glyph-name="aring" unicode="å"/><glyph d="M1845 324l125 -205q-164 -141 -418 -142q-178 0 -294.5 75t-165.5 202l-43 -254h-258l20 121q-133 -143 -322 -144q-193 0 -302 132.5t-109 332.5q0 150 57.5 290t178 238.5t280.5 98.5q244 0 352 -182l27 160h258l-33 -185q166 207 442 207q199 0 316 -93t117 -233 q0 -158 -153 -262t-447 -104h-125q45 -150 231 -150q137 1 266 97zM598 252q117 0 193.5 95t76.5 218q0 100 -55 165t-156 65q-117 0 -192.5 -94.5t-75.5 -223.5q0 -98 54.5 -161.5t154.5 -63.5zM1638 823q-106 0 -183 -62.5t-105 -172.5h84q172 0 252.5 40t80.5 103 q0 43 -35 67.5t-94 24.5z" glyph-name="ae" horiz-adv-x="2123" unicode="æ"/><glyph d="M829 430l275 -86q-66 -166 -204 -263t-302 -104l-39 -71q145 -45 146 -187q0 -102 -73 -172.5t-196 -70.5q-137 0 -256 80l115 174q78 -53 135 -54q72 0 72 57.5t-101 57.5l-32 59l86 140q-176 37 -276.5 168t-100.5 309q0 242 165 422t410 180q195 0 323 -104.5 t161 -272.5l-287 -80q-29 182 -205 183q-117 0 -189.5 -94.5t-72.5 -221.5q0 -100 53 -164.5t154 -64.5q76 0 140 48t99 132z" glyph-name="ccedilla" horiz-adv-x="1181" unicode="ç"/><glyph d="M891 324l125 -205q-164 -141 -418 -142q-250 0 -385 137.5t-135 344.5q0 260 173 435t437 175q199 0 314.5 -93t115.5 -233q0 -158 -151.5 -262t-448.5 -104h-125q45 -150 232 -150q137 1 266 97zM684 823q-106 0 -183 -62.5t-106 -172.5h84q172 0 253 40t81 103 q0 43 -35 67.5t-94 24.5zM932 1200l-225 -67l-224 321l246 156z" glyph-name="egrave" horiz-adv-x="1169" unicode="è"/><glyph d="M891 324l125 -205q-164 -141 -418 -142q-250 0 -385 137.5t-135 344.5q0 260 173 435t437 175q199 0 314.5 -93t115.5 -233q0 -158 -151.5 -262t-448.5 -104h-125q45 -150 232 -150q137 1 266 97zM684 823q-106 0 -183 -62.5t-106 -172.5h84q172 0 253 40t81 103 q0 43 -35 67.5t-94 24.5zM772 1130l-197 105l340 375l189 -195z" glyph-name="eacute" horiz-adv-x="1169" unicode="é"/><glyph d="M891 324l125 -205q-164 -141 -418 -142q-250 0 -385 137.5t-135 344.5q0 260 173 435t437 175q199 0 314.5 -93t115.5 -233q0 -158 -151.5 -262t-448.5 -104h-125q45 -150 232 -150q137 1 266 97zM684 823q-106 0 -183 -62.5t-106 -172.5h84q172 0 253 40t81 103 q0 43 -35 67.5t-94 24.5zM766 1276l-221 -139l-131 172l374 239l304 -241l-148 -170z" glyph-name="ecircumflex" horiz-adv-x="1169" unicode="ê"/><glyph d="M891 324l125 -205q-164 -141 -418 -142q-250 0 -385 137.5t-135 344.5q0 260 173 435t437 175q199 0 314.5 -93t115.5 -233q0 -158 -151.5 -262t-448.5 -104h-125q45 -150 232 -150q137 1 266 97zM684 823q-106 0 -183 -62.5t-106 -172.5h84q172 0 253 40t81 103 q0 43 -35 67.5t-94 24.5zM365 1305q0 70 52 119t124 49q63 0 105 -43.5t42 -104.5q0 -68 -53 -118t-123 -50q-63 0 -105 43.5t-42 104.5zM756 1305q0 70 52 119t124 49q63 0 105 -43.5t42 -104.5q0 -70 -52 -119t-124 -49q-63 0 -105 43.5t-42 104.5z" glyph-name="edieresis" horiz-adv-x="1169" unicode="ë"/><glyph d="M37 0l184 1047h307l-184 -1047h-307zM612 1200l-225 -67l-223 321l246 156z" glyph-name="igrave" horiz-adv-x="565" unicode="ì"/><glyph d="M37 0l184 1047h307l-184 -1047h-307zM393 1130l-196 105l340 375l188 -195z" glyph-name="iacute" horiz-adv-x="565" unicode="í"/><glyph d="M37 0l184 1047h307l-184 -1047h-307zM426 1276l-221 -139l-131 172l375 239l303 -241l-148 -170z" glyph-name="icircumflex" horiz-adv-x="565" unicode="î"/><glyph d="M37 0l184 1047h307l-184 -1047h-307zM59 1305q0 70 52.5 119t124.5 49q63 0 105 -43.5t42 -104.5q0 -68 -53.5 -118t-122.5 -50q-63 0 -105.5 43.5t-42.5 104.5zM451 1305q0 70 52 119t124 49q63 0 105 -43.5t42 -104.5q0 -70 -52 -119t-124 -49q-63 0 -105 43.5 t-42 104.5z" glyph-name="idieresis" horiz-adv-x="565" unicode="ï"/><glyph d="M1012 1407l43 -186l-162 -47l135 -267q90 -178 90 -364q0 -250 -160.5 -408t-396.5 -158q-217 0 -351 135.5t-134 336.5q0 223 142 379.5t351 156.5q35 0 88 -8l-61 108l-205 -59l-45 184l156 45l-96 179h356l43 -88zM618 731q-106 0 -174.5 -80t-68.5 -186 q0 -90 56 -149.5t153 -59.5q106 0 174.5 79t68.5 179q0 94 -56.5 155.5t-152.5 61.5z" glyph-name="eth" horiz-adv-x="1206" unicode="ð"/><glyph d="M735 0l103 582q6 33 6 67q0 82 -41 119t-107 37q-90 0 -161.5 -64.5t-88.5 -158.5l-102 -582h-307l184 1047h307l-22 -127q125 150 325 149q154 0 241 -89t87 -257q0 -59 -12 -129l-105 -594h-307zM602 1186h-223q16 160 90 257t197 97q106 0 174 -94q8 -12 21 -34.5 t21.5 -32t18.5 -9.5q29 0 47 135h223q-16 -160 -89.5 -258t-194.5 -98q-100 0 -174 96q-10 12 -22.5 33.5t-20.5 32t-19 10.5q-31 0 -49 -135z" glyph-name="ntilde" horiz-adv-x="1251" unicode="ñ"/><glyph d="M78 469q0 242 168 421t413 179q233 0 370.5 -141.5t137.5 -349.5q0 -242 -168 -421.5t-413 -179.5q-233 0 -370.5 141.5t-137.5 350.5zM649 797q-115 0 -190.5 -95.5t-75.5 -222.5q0 -100 55.5 -164.5t157.5 -64.5q115 0 190.5 95t75.5 222q0 100 -55.5 165t-157.5 65z M932 1200l-225 -67l-224 321l246 156z" glyph-name="ograve" horiz-adv-x="1247" unicode="ò"/><glyph d="M78 469q0 242 168 421t413 179q233 0 370.5 -141.5t137.5 -349.5q0 -242 -168 -421.5t-413 -179.5q-233 0 -370.5 141.5t-137.5 350.5zM649 797q-115 0 -190.5 -95.5t-75.5 -222.5q0 -100 55.5 -164.5t157.5 -64.5q115 0 190.5 95t75.5 222q0 100 -55.5 165t-157.5 65z M772 1130l-197 105l340 375l189 -195z" glyph-name="oacute" horiz-adv-x="1247" unicode="ó"/><glyph d="M78 469q0 242 168 421t413 179q233 0 370.5 -141.5t137.5 -349.5q0 -242 -168 -421.5t-413 -179.5q-233 0 -370.5 141.5t-137.5 350.5zM649 797q-115 0 -190.5 -95.5t-75.5 -222.5q0 -100 55.5 -164.5t157.5 -64.5q115 0 190.5 95t75.5 222q0 100 -55.5 165t-157.5 65z M766 1276l-221 -139l-131 172l374 239l304 -241l-148 -170z" glyph-name="ocircumflex" horiz-adv-x="1247" unicode="ô"/><glyph d="M78 469q0 242 168 421t413 179q233 0 370.5 -141.5t137.5 -349.5q0 -242 -168 -421.5t-413 -179.5q-233 0 -370.5 141.5t-137.5 350.5zM649 797q-115 0 -190.5 -95.5t-75.5 -222.5q0 -100 55.5 -164.5t157.5 -64.5q115 0 190.5 95t75.5 222q0 100 -55.5 165t-157.5 65z M600 1186h-223q16 160 90 257t197 97q106 0 174 -94q8 -12 21 -34.5t21.5 -32t18.5 -9.5q29 0 47 135h223q-16 -160 -89.5 -258t-194.5 -98q-100 0 -174 96q-10 12 -22.5 33.5t-21 32t-18.5 10.5q-31 0 -49 -135z" glyph-name="otilde" horiz-adv-x="1247" unicode="õ"/><glyph d="M78 469q0 242 168 421t413 179q233 0 370.5 -141.5t137.5 -349.5q0 -242 -168 -421.5t-413 -179.5q-233 0 -370.5 141.5t-137.5 350.5zM649 797q-115 0 -190.5 -95.5t-75.5 -222.5q0 -100 55.5 -164.5t157.5 -64.5q115 0 190.5 95t75.5 222q0 100 -55.5 165t-157.5 65z M410 1305q0 70 52 119t124 49q63 0 105 -43.5t42 -104.5q0 -68 -53 -118t-123 -50q-63 0 -105 43.5t-42 104.5zM801 1305q0 70 52 119t124 49q63 0 105 -43.5t42 -104.5q0 -70 -52 -119t-124 -49q-63 0 -105 43.5t-42 104.5z" glyph-name="odieresis" horiz-adv-x="1247" unicode="ö"/><glyph d="M956 803l-49 -264h-801l50 264h800zM440 1055q0 70 52.5 119t123.5 49q63 0 105.5 -42t42.5 -104q0 -70 -52.5 -119t-123.5 -49q-63 0 -105.5 42.5t-42.5 103.5zM299 264q0 70 53.5 119t122.5 49q63 0 105.5 -42t42.5 -103q0 -70 -52.5 -119t-121.5 -49q-63 0 -106.5 42 t-43.5 103z" glyph-name="divide" horiz-adv-x="1009" unicode="÷"/><glyph d="M78 463q0 246 168 426t416 180q168 0 290 -78l52 56h225l-156 -168q96 -131 96 -304q0 -242 -166.5 -420t-414.5 -178q-168 0 -289 74l-47 -51h-227l151 162q-98 129 -98 301zM651 807q-121 0 -201.5 -100.5t-80.5 -229.5q0 -43 14 -94l375 401q-46 23 -107 23zM596 238 q123 0 202 99t79 230q0 51 -13 90l-372 -399q41 -20 104 -20z" glyph-name="oslash" horiz-adv-x="1249" unicode="ø"/><glyph d="M514 1047l-102 -582q-6 -33 -6 -68q0 -82 40.5 -118.5t106.5 -36.5q90 0 161.5 64.5t88.5 158.5l102 582h307l-184 -1047h-307l22 127q-125 -150 -325 -150q-154 0 -241 89.5t-87 257.5q0 57 12 129l105 594h307zM926 1200l-226 -67l-223 321l246 156z" glyph-name="ugrave" horiz-adv-x="1249" unicode="ù"/><glyph d="M514 1047l-102 -582q-6 -33 -6 -68q0 -82 40.5 -118.5t106.5 -36.5q90 0 161.5 64.5t88.5 158.5l102 582h307l-184 -1047h-307l22 127q-125 -150 -325 -150q-154 0 -241 89.5t-87 257.5q0 57 12 129l105 594h307zM766 1130l-197 105l340 375l189 -195z" glyph-name="uacute" horiz-adv-x="1249" unicode="ú"/><glyph d="M514 1047l-102 -582q-6 -33 -6 -68q0 -82 40.5 -118.5t106.5 -36.5q90 0 161.5 64.5t88.5 158.5l102 582h307l-184 -1047h-307l22 127q-125 -150 -325 -150q-154 0 -241 89.5t-87 257.5q0 57 12 129l105 594h307zM764 1276l-221 -139l-131 172l374 239l304 -241 l-148 -170z" glyph-name="ucircumflex" horiz-adv-x="1249" unicode="û"/><glyph d="M514 1047l-102 -582q-6 -33 -6 -68q0 -82 40.5 -118.5t106.5 -36.5q90 0 161.5 64.5t88.5 158.5l102 582h307l-184 -1047h-307l22 127q-125 -150 -325 -150q-154 0 -241 89.5t-87 257.5q0 57 12 129l105 594h307zM403 1305q0 70 52.5 119t124.5 49q63 0 105 -43.5 t42 -104.5q0 -68 -53 -118t-123 -50q-63 0 -105.5 43.5t-42.5 104.5zM795 1305q0 70 52 119t124 49q63 0 105 -43.5t42 -104.5q0 -70 -52 -119t-124 -49q-63 0 -105 43.5t-42 104.5z" glyph-name="udieresis" horiz-adv-x="1249" unicode="ü"/><glyph d="M12 -444l-84 274q233 57 387 193l-202 1024h317l105 -687l348 687h348l-518 -932q-70 -125 -148 -220.5t-144.5 -151.5t-145 -97t-135 -58.5t-128.5 -31.5zM731 1130l-196 105l339 375l189 -195z" glyph-name="yacute" horiz-adv-x="1157" unicode="ý"/><glyph d="M596 1434l-88 -502q119 137 295 137q193 0 302 -132t109 -333q0 -150 -57 -290t-178 -238.5t-281 -98.5q-236 0 -327 175l-90 -519h-308l316 1801h307zM694 795q-117 0 -193.5 -93.5t-76.5 -220.5q0 -100 55.5 -164.5t155.5 -64.5q117 0 192.5 94t75.5 223 q0 98 -54.5 162t-154.5 64z" glyph-name="thorn" horiz-adv-x="1292" unicode="þ"/><glyph d="M12 -444l-84 274q233 57 387 193l-202 1024h317l105 -687l348 687h348l-518 -932q-70 -125 -148 -220.5t-144.5 -151.5t-145 -97t-135 -58.5t-128.5 -31.5zM367 1305q0 70 52 119t124 49q63 0 105 -43.5t42 -104.5q0 -68 -53 -118t-123 -50q-63 0 -105 43.5t-42 104.5z M758 1305q0 70 52 119t124 49q63 0 105 -43.5t42 -104.5q0 -70 -52 -119t-124 -49q-63 0 -105 43.5t-42 104.5z" glyph-name="ydieresis" horiz-adv-x="1157" unicode="ÿ"/><glyph d="M733 1434h348l318 -1434h-330l-47 240h-621l-129 -240h-360zM860 1090l-311 -578h422zM1280 1812l-43 -239h-588l43 239h588z" glyph-name="Amacron" horiz-adv-x="1495" unicode="Ā"/><glyph d="M764 0l20 115q-119 -137 -295 -138q-193 0 -302 132.5t-109 332.5q0 150 57.5 290t178 238.5t280.5 98.5q236 0 328 -174l26 152h307l-184 -1047h-307zM598 252q117 0 193.5 93t76.5 220q0 100 -55 165t-156 65q-117 0 -192.5 -94.5t-75.5 -223.5q0 -98 54.5 -161.5 t154.5 -63.5zM1110 1436l-43 -240h-588l43 240h588z" glyph-name="amacron" unicode="ā"/><glyph d="M733 1434h348l318 -1434h-330l-47 240h-621l-129 -240h-360zM860 1090l-311 -578h422zM1120 1882l201 -76q-129 -279 -365 -278q-129 0 -210.5 79t-104.5 199l213 76q27 -129 117 -129q86 0 149 129z" glyph-name="Abreve" horiz-adv-x="1495" unicode="Ă"/><glyph d="M764 0l20 115q-119 -137 -295 -138q-193 0 -302 132.5t-109 332.5q0 150 57.5 290t178 238.5t280.5 98.5q236 0 328 -174l26 152h307l-184 -1047h-307zM598 252q117 0 193.5 93t76.5 220q0 100 -55 165t-156 65q-117 0 -192.5 -94.5t-75.5 -223.5q0 -98 54.5 -161.5 t154.5 -63.5zM950 1505l201 -75q-129 -279 -365 -279q-129 0 -210.5 79t-104.5 200l213 75q27 -129 117 -129q83 0 149 129z" glyph-name="abreve" unicode="ă"/><glyph d="M733 1434h348l318 -1434q-209 -162 -209 -256q0 -53 67 -53q20 0 43 6l9 -215q-41 -8 -82 -8q-121 0 -188.5 53t-67.5 143q0 176 241 330h-143l-47 240h-621l-129 -240h-360zM860 1090l-311 -578h422z" glyph-name="Aogonek" horiz-adv-x="1495" unicode="Ą"/><glyph d="M764 0l20 115q-119 -137 -295 -138q-193 0 -302 132.5t-109 332.5q0 150 57.5 290t178 238.5t280.5 98.5q236 0 328 -174l26 152h307l-184 -1047q-209 -162 -209 -256q0 -53 68 -53q20 0 43 6l8 -215q-41 -8 -82 -8q-121 0 -188.5 53t-67.5 143q0 174 240 330h-119z M598 252q117 0 193.5 93t76.5 220q0 100 -55 165t-156 65q-117 0 -192.5 -94.5t-75.5 -223.5q0 -98 54.5 -161.5t154.5 -63.5z" glyph-name="aogonek" unicode="ą"/><glyph d="M1204 563l303 -92q-92 -231 -287.5 -362.5t-426.5 -131.5q-307 0 -488.5 189.5t-181.5 470.5q0 219 100.5 406.5t281.5 300t400 112.5q262 0 433 -141t218 -367l-319 -86q-25 131 -116 213t-234 82q-186 0 -313.5 -149.5t-127.5 -345.5q0 -164 97.5 -275t265.5 -111 q123 0 231.5 76t163.5 211zM1032 1507l-196 105l340 375l188 -195z" glyph-name="Cacute" horiz-adv-x="1564" unicode="Ć"/><glyph d="M829 430l275 -86q-68 -172 -212 -269.5t-314 -97.5q-229 0 -364.5 141.5t-135.5 348.5q0 242 165 422t410 180q195 0 323 -104.5t161 -272.5l-287 -80q-29 182 -205 183q-117 0 -189.5 -94.5t-72.5 -221.5q0 -100 53 -164.5t154 -64.5q76 0 140 48t99 132zM764 1130 l-197 105l340 375l189 -195z" glyph-name="cacute" horiz-adv-x="1181" unicode="ć"/><glyph d="M1204 563l303 -92q-92 -231 -287.5 -362.5t-426.5 -131.5q-307 0 -488.5 189.5t-181.5 470.5q0 219 100.5 406.5t281.5 300t400 112.5q262 0 433 -141t218 -367l-319 -86q-25 131 -116 213t-234 82q-186 0 -313.5 -149.5t-127.5 -345.5q0 -164 97.5 -275t265.5 -111 q123 0 231.5 76t163.5 211zM870 1681q0 70 52.5 119t124.5 49q63 0 105 -43t42 -104q0 -68 -53.5 -118t-122.5 -50q-63 0 -105.5 43t-42.5 104z" glyph-name="Cdotaccent" horiz-adv-x="1564" unicode="Ċ"/><glyph d="M829 430l275 -86q-68 -172 -212 -269.5t-314 -97.5q-229 0 -364.5 141.5t-135.5 348.5q0 242 165 422t410 180q195 0 323 -104.5t161 -272.5l-287 -80q-29 182 -205 183q-117 0 -189.5 -94.5t-72.5 -221.5q0 -100 53 -164.5t154 -64.5q76 0 140 48t99 132zM602 1305 q0 70 52.5 119t123.5 49q63 0 105.5 -43.5t42.5 -104.5q0 -68 -53.5 -118t-122.5 -50q-63 0 -105.5 43.5t-42.5 104.5z" glyph-name="cdotaccent" horiz-adv-x="1181" unicode="ċ"/><glyph d="M1204 563l303 -92q-92 -231 -287.5 -362.5t-426.5 -131.5q-307 0 -488.5 189.5t-181.5 470.5q0 219 100.5 406.5t281.5 300t400 112.5q262 0 433 -141t218 -367l-319 -86q-25 131 -116 213t-234 82q-186 0 -313.5 -149.5t-127.5 -345.5q0 -164 97.5 -275t265.5 -111 q123 0 231.5 76t163.5 211zM1020 1782l221 139l131 -172l-375 -242l-303 244l148 168z" glyph-name="Ccaron" horiz-adv-x="1564" unicode="Č"/><glyph d="M829 430l275 -86q-68 -172 -212 -269.5t-314 -97.5q-229 0 -364.5 141.5t-135.5 348.5q0 242 165 422t410 180q195 0 323 -104.5t161 -272.5l-287 -80q-29 182 -205 183q-117 0 -189.5 -94.5t-72.5 -221.5q0 -100 53 -164.5t154 -64.5q76 0 140 48t99 132zM752 1405 l221 139l131 -172l-375 -242l-303 244l147 168z" glyph-name="ccaron" horiz-adv-x="1181" unicode="č"/><glyph d="M72 0l252 1434h540q311 0 478 -169t167 -442q0 -164 -49 -310t-142 -262t-240.5 -183.5t-332.5 -67.5h-673zM825 1149h-237l-154 -864h314q209 0 322.5 151.5t113.5 366.5q0 160 -88.5 253t-270.5 93zM975 1782l221 139l131 -172l-375 -242l-303 244l148 168z" glyph-name="Dcaron" horiz-adv-x="1562" unicode="Ď"/><glyph d="M764 0l20 115q-119 -137 -295 -138q-193 0 -302 132.5t-109 332.5q0 150 57.5 290t178 238.5t280.5 98.5q236 0 328 -174l96 539h307l-254 -1434h-307zM598 252q117 0 193.5 93t76.5 220q0 100 -55 165t-156 65q-117 0 -192.5 -94.5t-75.5 -223.5q0 -98 54.5 -161.5 t154.5 -63.5zM1464 893l-86 102q139 104 162 185q-57 -6 -97 32.5t-40 92.5q0 61 47 105t109 44q68 0 109.5 -44t41.5 -122q0 -113 -68.5 -215t-177.5 -180z" glyph-name="dcaron" horiz-adv-x="1544" unicode="ď"/><glyph d="M80 586l45 262h149l103 586h538q311 0 478.5 -169t167.5 -442q0 -164 -49.5 -310t-142.5 -262t-240.5 -183.5t-331.5 -67.5h-672l102 586h-147zM879 586h-340l-54 -301h314q209 0 322.5 151.5t113.5 366.5q0 160 -88 253t-270 93h-238l-53 -301h338z" glyph-name="Dcroat" horiz-adv-x="1613" unicode="Đ"/><glyph d="M764 0l20 115q-119 -137 -295 -138q-193 0 -302 132.5t-109 332.5q0 150 57.5 290t178 238.5t280.5 98.5q236 0 328 -174l41 233h-252l34 205h254l19 101h307l-18 -101h139l-35 -205h-141l-199 -1128h-307zM598 252q117 0 193.5 93t76.5 220q0 100 -55 165t-156 65 q-117 0 -192.5 -94.5t-75.5 -223.5q0 -98 54.5 -161.5t154.5 -63.5z" glyph-name="dcroat" horiz-adv-x="1308" unicode="đ"/><glyph d="M72 0l252 1434h1071l-49 -285h-760l-51 -295h614l-49 -270h-613l-53 -299h758l-49 -285h-1071zM1231 1812l-43 -239h-588l43 239h588z" glyph-name="Emacron" horiz-adv-x="1335" unicode="Ē"/><glyph d="M891 324l125 -205q-164 -141 -418 -142q-250 0 -385 137.5t-135 344.5q0 260 173 435t437 175q199 0 314.5 -93t115.5 -233q0 -158 -151.5 -262t-448.5 -104h-125q45 -150 232 -150q137 1 266 97zM684 823q-106 0 -183 -62.5t-106 -172.5h84q172 0 253 40t81 103 q0 43 -35 67.5t-94 24.5zM1087 1436l-43 -240h-587l43 240h587z" glyph-name="emacron" horiz-adv-x="1169" unicode="ē"/><glyph d="M72 0l252 1434h1071l-49 -285h-760l-51 -295h614l-49 -270h-613l-53 -299h758l-49 -285h-1071zM752 1681q0 70 52 119t124 49q63 0 105 -43t42 -104q0 -68 -53 -118t-123 -50q-63 0 -105 43t-42 104z" glyph-name="Edotaccent" horiz-adv-x="1335" unicode="Ė"/><glyph d="M891 324l125 -205q-164 -141 -418 -142q-250 0 -385 137.5t-135 344.5q0 260 173 435t437 175q199 0 314.5 -93t115.5 -233q0 -158 -151.5 -262t-448.5 -104h-125q45 -150 232 -150q137 1 266 97zM684 823q-106 0 -183 -62.5t-106 -172.5h84q172 0 253 40t81 103 q0 43 -35 67.5t-94 24.5zM606 1305q0 70 52.5 119t123.5 49q63 0 105.5 -43.5t42.5 -104.5q0 -68 -53.5 -118t-122.5 -50q-63 0 -105.5 43.5t-42.5 104.5z" glyph-name="edotaccent" horiz-adv-x="1169" unicode="ė"/><glyph d="M72 0l252 1434h1071l-49 -285h-760l-51 -295h614l-49 -270h-613l-53 -299h758l-49 -285q-209 -162 -209 -256q0 -53 67 -53q20 0 43 6l9 -215q-41 -8 -82 -8q-121 0 -188.5 53t-67.5 143q0 176 241 330h-884z" glyph-name="Eogonek" horiz-adv-x="1335" unicode="Ę"/><glyph d="M891 324l125 -205q-63 -53 -135 -84q-256 -184 -256 -291q0 -53 67 -53q20 0 43 6l8 -215q-41 -8 -81 -8q-121 0 -188.5 53t-67.5 143q0 162 206 307h-14q-250 0 -385 137.5t-135 344.5q0 260 173 435t437 175q199 0 314.5 -93t115.5 -233q0 -158 -151.5 -262 t-448.5 -104h-125q45 -150 232 -150q137 1 266 97zM684 823q-106 0 -183 -62.5t-106 -172.5h84q172 0 253 40t81 103q0 43 -35 67.5t-94 24.5z" glyph-name="eogonek" horiz-adv-x="1169" unicode="ę"/><glyph d="M72 0l252 1434h1071l-49 -285h-760l-51 -295h614l-49 -270h-613l-53 -299h758l-49 -285h-1071zM901 1782l221 139l131 -172l-374 -242l-304 244l148 168z" glyph-name="Ecaron" horiz-adv-x="1335" unicode="Ě"/><glyph d="M891 324l125 -205q-164 -141 -418 -142q-250 0 -385 137.5t-135 344.5q0 260 173 435t437 175q199 0 314.5 -93t115.5 -233q0 -158 -151.5 -262t-448.5 -104h-125q45 -150 232 -150q137 1 266 97zM684 823q-106 0 -183 -62.5t-106 -172.5h84q172 0 253 40t81 103 q0 43 -35 67.5t-94 24.5zM772 1405l221 139l131 -172l-374 -242l-304 244l148 168z" glyph-name="ecaron" horiz-adv-x="1169" unicode="ě"/><glyph d="M782 553l45 254h707l-141 -807h-244l31 174q-152 -197 -422 -197q-297 0 -467 189.5t-170 464.5q0 344 227 584.5t563 240.5q209 0 368 -94t243 -252l-267 -162q-113 215 -350 215q-197 0 -328 -150.5t-131 -361.5q0 -162 91.5 -270.5t259.5 -108.5q129 0 227 73t154 208 h-396zM1194 1882l201 -76q-129 -279 -365 -278q-129 0 -211 79t-104 199l213 76q27 -129 116 -129q87 0 150 129z" glyph-name="Gbreve" horiz-adv-x="1599" unicode="Ğ"/><glyph d="M84 473q0 233 137 414.5t354 181.5q221 0 322 -172l27 150h307l-162 -918q-27 -154 -84 -263.5t-133 -167.5t-157 -84t-173 -26q-164 0 -302 63.5t-232 164.5l182 209q178 -172 336 -172q209 0 254 264l6 37q-119 -115 -272 -115q-193 0 -301.5 123t-108.5 311zM645 801 q-104 0 -179 -84t-75 -197q0 -90 56.5 -150.5t150.5 -60.5q104 0 178 81t74 194q0 92 -55.5 154.5t-149.5 62.5zM938 1505l201 -75q-129 -279 -365 -279q-129 0 -211 79t-104 200l213 75q27 -129 116 -129q84 0 150 129z" glyph-name="gbreve" horiz-adv-x="1267" unicode="ğ"/><glyph d="M782 553l45 254h707l-141 -807h-244l31 174q-152 -197 -422 -197q-297 0 -467 189.5t-170 464.5q0 344 227 584.5t563 240.5q209 0 368 -94t243 -252l-267 -162q-113 215 -350 215q-197 0 -328 -150.5t-131 -361.5q0 -162 91.5 -270.5t259.5 -108.5q129 0 227 73t154 208 h-396zM877 1681q0 70 52 119t124 49q63 0 105 -43t42 -104q0 -68 -53 -118t-123 -50q-63 0 -105 43t-42 104z" glyph-name="Gdotaccent" horiz-adv-x="1599" unicode="Ġ"/><glyph d="M84 473q0 233 137 414.5t354 181.5q221 0 322 -172l27 150h307l-162 -918q-27 -154 -84 -263.5t-133 -167.5t-157 -84t-173 -26q-164 0 -302 63.5t-232 164.5l182 209q178 -172 336 -172q209 0 254 264l6 37q-119 -115 -272 -115q-193 0 -301.5 123t-108.5 311zM645 801 q-104 0 -179 -84t-75 -197q0 -90 56.5 -150.5t150.5 -60.5q104 0 178 81t74 194q0 92 -55.5 154.5t-149.5 62.5zM618 1305q0 70 52.5 119t124.5 49q63 0 105 -43.5t42 -104.5q0 -68 -53 -118t-123 -50q-63 0 -105.5 43.5t-42.5 104.5z" glyph-name="gdotaccent" horiz-adv-x="1267" unicode="ġ"/><glyph d="M782 553l45 254h707l-141 -807h-244l31 174q-152 -197 -422 -197q-297 0 -467 189.5t-170 464.5q0 344 227 584.5t563 240.5q209 0 368 -94t243 -252l-267 -162q-113 215 -350 215q-197 0 -328 -150.5t-131 -361.5q0 -162 91.5 -270.5t259.5 -108.5q129 0 227 73t154 208 h-396zM604 -666l-86 103q139 104 162 184q-57 -6 -97 33t-40 92q0 61 47 105.5t108 44.5q68 0 110 -44.5t42 -121.5q0 -113 -68.5 -215.5t-177.5 -180.5z" glyph-name="Gcommaaccent" horiz-adv-x="1599" unicode="Ģ"/><glyph d="M84 473q0 233 137 414.5t354 181.5q221 0 322 -172l27 150h307l-162 -918q-27 -154 -84 -263.5t-133 -167.5t-157 -84t-173 -26q-164 0 -302 63.5t-232 164.5l182 209q178 -172 336 -172q209 0 254 264l6 37q-119 -115 -272 -115q-193 0 -301.5 123t-108.5 311zM645 801 q-104 0 -179 -84t-75 -197q0 -90 56.5 -150.5t150.5 -60.5q104 0 178 81t74 194q0 92 -55.5 154.5t-149.5 62.5zM369 -1040l-86 102q139 104 161 184q-57 -6 -97 33t-40 92q0 61 47 105.5t109 44.5q68 0 109.5 -44t41.5 -122q0 -113 -68 -215t-177 -180z" glyph-name="gcommaaccent" horiz-adv-x="1267" unicode="ģ"/><glyph d="M1319 1434h313l-33 -181h101l-39 -219h-100l-181 -1034h-313l100 575h-669l-101 -575h-313l180 1034h-104l39 219h104l33 181h313l-33 -181h670zM549 860h670l30 174h-669z" glyph-name="Hbar" horiz-adv-x="1646" unicode="Ħ"/><glyph d="M119 1128l35 205h131l18 101h307l-18 -101h262l-35 -205h-262l-37 -208q125 150 326 149q154 0 241 -89t87 -257q0 -59 -13 -129l-104 -594h-307l102 582q6 33 6 67q0 82 -41 119t-106 37q-90 0 -162 -64.5t-88 -158.5l-103 -582h-307l199 1128h-131z" glyph-name="hbar" horiz-adv-x="1265" unicode="ħ"/><glyph d="M324 1434h315l-252 -1434h-315zM356 1563h-223q16 160 90 257t197 97q106 0 174 -94q8 -12 21.5 -35t21.5 -32t18 -9q29 0 47 135h224q-16 -160 -90 -258t-195 -98q-100 0 -174 96q-10 12 -22.5 33.5t-20.5 32t-18 10.5q-32 0 -50 -135z" glyph-name="Itilde" horiz-adv-x="643" unicode="Ĩ"/><glyph d="M37 0l184 1047h307l-184 -1047h-307zM250 1186h-223q16 160 89.5 257t196.5 97q106 0 174 -94q8 -12 21.5 -34.5t22 -32t18.5 -9.5q29 0 47 135h223q-16 -160 -90 -258t-194 -98q-100 0 -175 96q-10 12 -22 33.5t-20.5 32t-18.5 10.5q-31 0 -49 -135z" glyph-name="itilde" horiz-adv-x="565" unicode="ĩ"/><glyph d="M324 1434h315l-252 -1434h-315zM844 1812l-43 -239h-588l43 239h588z" glyph-name="Imacron" horiz-adv-x="643" unicode="Ī"/><glyph d="M37 0l184 1047h307l-184 -1047h-307zM737 1436l-43 -240h-588l44 240h587z" glyph-name="imacron" horiz-adv-x="565" unicode="ī"/><glyph d="M324 1434h315l-252 -1434h-315zM684 1882l201 -76q-129 -279 -365 -278q-129 0 -211 79t-104 199l213 76q27 -129 117 -129q83 0 149 129z" glyph-name="Ibreve" horiz-adv-x="643" unicode="Ĭ"/><glyph d="M37 0l184 1047h307l-184 -1047h-307zM578 1505l200 -75q-129 -279 -364 -279q-129 0 -211 79t-105 200l213 75q27 -129 117 -129q84 0 150 129z" glyph-name="ibreve" horiz-adv-x="565" unicode="ĭ"/><glyph d="M324 1434h315l-252 -1434q-209 -162 -209 -256q0 -53 68 -53q20 0 43 6l8 -215q-41 -8 -82 -8q-121 0 -188.5 53t-67.5 143q0 176 242 330h-129z" glyph-name="Iogonek" horiz-adv-x="643" unicode="Į"/><glyph d="M37 0l184 1047h307l-184 -1047q-209 -162 -209 -256q0 -53 68 -53q20 0 43 6l8 -215q-41 -8 -82 -8q-121 0 -188.5 53t-67.5 143q0 176 242 330h-121zM238 1321q0 80 60 137.5t142 57.5q74 0 123 -48.5t49 -119.5q0 -80 -60 -137.5t-144 -57.5q-74 0 -122 49t-48 119z " glyph-name="iogonek" horiz-adv-x="565" unicode="į"/><glyph d="M324 1434h315l-252 -1434h-315zM367 1681q0 70 52 119t124 49q63 0 105 -43t42 -104q0 -68 -53 -118t-123 -50q-63 0 -105 43t-42 104z" glyph-name="Idotaccent" horiz-adv-x="643" unicode="İ"/><glyph d="M37 0l184 1047h307l-184 -1047h-307z" glyph-name="dotlessi" horiz-adv-x="565" unicode="ı"/><glyph d="M324 1434h315l-252 -1434h-315zM1036 1141l51 293h893l-165 -945q-41 -236 -200 -374t-380 -138q-260 0 -397.5 139.5t-137.5 350.5q0 49 11 115l24 129h314l-21 -117q-10 -51 -10 -88q0 -111 56 -172.5t169 -61.5q219 0 268 277l105 592h-580z" glyph-name="IJ" horiz-adv-x="1970" unicode="Ĳ"/><glyph d="M238 1321q0 80 60 137.5t142 57.5q74 0 123 -48.5t49 -119.5q0 -80 -60 -137.5t-144 -57.5q-74 0 -122 49t-48 119zM37 0l184 1047h307l-184 -1047h-307zM809 1321q0 80 60.5 137.5t144.5 57.5q74 0 122 -48.5t48 -119.5q0 -80 -60.5 -137.5t-142.5 -57.5q-74 0 -123 49 t-49 119zM365 -373l86 242q33 -12 63 -12q70 0 86 94l193 1096h307l-201 -1141q-57 -315 -348 -316q-100 0 -186 37z" glyph-name="ij" horiz-adv-x="1140" unicode="ĳ"/><glyph d="M399 1141l52 293h892l-165 -945q-41 -236 -200 -374t-380 -138q-260 0 -397.5 139.5t-137.5 350.5q0 49 11 115l24 129h314l-21 -117q-10 -51 -10 -88q0 -111 56.5 -172.5t168.5 -61.5q219 0 268 277l105 592h-580zM952 1653l-221 -140l-131 173l375 239l303 -242 l-148 -170z" glyph-name="Jcircumflex" horiz-adv-x="1333" unicode="Ĵ"/><glyph d="M-195 -373l86 242q35 -12 64 -12q70 0 86 94l192 1096h308l-201 -1141q-57 -315 -348 -316q-101 0 -187 37zM436 1276l-221 -139l-131 172l375 239l303 -241l-148 -170z" glyph-name="jcircumflex" horiz-adv-x="579" unicode="ĵ"/><glyph d="M1026 0l-272 575h-267l-102 -575h-313l252 1434h313l-100 -574h225l452 574h373l-557 -711l340 -723h-344zM545 -666l-86 103q139 104 162 184q-57 -6 -97.5 33t-40.5 92q0 61 47.5 105.5t108.5 44.5q68 0 110 -44.5t42 -121.5q0 -113 -68.5 -215.5t-177.5 -180.5z" glyph-name="Kcommaaccent" horiz-adv-x="1468" unicode="Ķ"/><glyph d="M741 0l-170 393h-157l-70 -393h-307l252 1434h307l-137 -783h135l272 396h351l-377 -537l225 -510h-324zM389 -666l-86 103q139 104 162 184q-57 -6 -97 33t-40 92q0 61 47 105.5t108 44.5q68 0 110 -44.5t42 -121.5q0 -113 -68.5 -215.5t-177.5 -180.5z" glyph-name="kcommaaccent" horiz-adv-x="1177" unicode="ķ"/><glyph d="M72 0l252 1434h313l-201 -1141h713l-53 -293h-1024zM526 1507l-196 105l340 375l188 -195z" glyph-name="Lacute" horiz-adv-x="1232" unicode="Ĺ"/><glyph d="M37 0l252 1434h307l-252 -1434h-307zM459 1507l-197 105l340 375l189 -195z" glyph-name="lacute" horiz-adv-x="565" unicode="ĺ"/><glyph d="M72 0l252 1434h313l-201 -1141h713l-53 -293h-1024zM455 -666l-86 103q139 104 161 184q-57 -6 -97 33t-40 92q0 61 47 105.5t109 44.5q68 0 109.5 -44.5t41.5 -121.5q0 -113 -68 -215.5t-177 -180.5z" glyph-name="Lcommaaccent" horiz-adv-x="1232" unicode="Ļ"/><glyph d="M57 -666l-86 103q139 104 162 184q-57 -6 -97 33t-40 92q0 61 47 105.5t109 44.5q68 0 109.5 -44.5t41.5 -121.5q0 -113 -68.5 -215.5t-177.5 -180.5zM37 0l252 1434h307l-252 -1434h-307z" glyph-name="lcommaaccent" horiz-adv-x="565" unicode="ļ"/><glyph d="M72 0l252 1434h313l-201 -1141h713l-53 -293h-1024zM817 893l-86 102q139 104 162 185q-57 -6 -97 32.5t-40 92.5q0 61 47 105t108 44q68 0 110 -44t42 -122q0 -113 -68.5 -215t-177.5 -180z" glyph-name="Lcaron" horiz-adv-x="1239" unicode="Ľ"/><glyph d="M37 0l252 1434h307l-252 -1434h-307zM719 893l-86 102q139 104 162 185q-57 -6 -97.5 32.5t-40.5 92.5q0 61 47.5 105t108.5 44q68 0 110 -44t42 -122q0 -113 -68.5 -215t-177.5 -180z" glyph-name="lcaron" horiz-adv-x="806" unicode="ľ"/><glyph d="M72 0l252 1434h313l-201 -1141h713l-53 -293h-1024zM713 713q0 70 52 119t124 49q63 0 105 -43t42 -105q0 -68 -53 -118t-123 -50q-63 0 -105 43.5t-42 104.5z" glyph-name="Ldot" horiz-adv-x="1234" unicode="Ŀ"/><glyph d="M37 0l252 1434h307l-252 -1434h-307zM545 713q0 70 52 119t124 49q63 0 105 -43t42 -105q0 -68 -53 -118t-123 -50q-63 0 -105 43.5t-42 104.5z" glyph-name="ldot" horiz-adv-x="819" unicode="ŀ"/><glyph d="M39 367l55 315l146 92l116 660h314l-78 -439l274 172l-55 -315l-274 -172l-68 -387h713l-54 -293h-1024l80 459z" glyph-name="Lslash" horiz-adv-x="1265" unicode="Ł"/><glyph d="M53 360l58 314l129 80l118 680h308l-82 -463l125 78l-56 -316l-125 -78l-114 -655h-308l78 440z" glyph-name="lslash" horiz-adv-x="698" unicode="ł"/><glyph d="M385 0h-313l252 1434h319l498 -965l170 965h313l-252 -1434h-317l-500 963zM1030 1507l-196 105l340 375l188 -195z" glyph-name="Nacute" horiz-adv-x="1628" unicode="Ń"/><glyph d="M735 0l103 582q6 33 6 67q0 82 -41 119t-107 37q-90 0 -161.5 -64.5t-88.5 -158.5l-102 -582h-307l184 1047h307l-22 -127q125 150 325 149q154 0 241 -89t87 -257q0 -59 -12 -129l-105 -594h-307zM776 1130l-196 105l340 375l188 -195z" glyph-name="nacute" horiz-adv-x="1251" unicode="ń"/><glyph d="M385 0h-313l252 1434h319l498 -965l170 965h313l-252 -1434h-317l-500 963zM596 -666l-86 103q139 104 162 184q-57 -6 -97 33t-40 92q0 61 47 105.5t108 44.5q68 0 110 -44.5t42 -121.5q0 -113 -68.5 -215.5t-177.5 -180.5z" glyph-name="Ncommaaccent" horiz-adv-x="1628" unicode="Ņ"/><glyph d="M735 0l103 582q6 33 6 67q0 82 -41 119t-107 37q-90 0 -161.5 -64.5t-88.5 -158.5l-102 -582h-307l184 1047h307l-22 -127q125 150 325 149q154 0 241 -89t87 -257q0 -59 -12 -129l-105 -594h-307zM414 -666l-86 103q139 104 161 184q-57 -6 -97 33t-40 92q0 61 47 105.5 t109 44.5q68 0 109.5 -44.5t41.5 -121.5q0 -113 -68 -215.5t-177 -180.5z" glyph-name="ncommaaccent" horiz-adv-x="1251" unicode="ņ"/><glyph d="M385 0h-313l252 1434h319l498 -965l170 965h313l-252 -1434h-317l-500 963zM1022 1782l221 139l131 -172l-375 -242l-303 244l148 168z" glyph-name="Ncaron" horiz-adv-x="1628" unicode="Ň"/><glyph d="M735 0l103 582q6 33 6 67q0 82 -41 119t-107 37q-90 0 -161.5 -64.5t-88.5 -158.5l-102 -582h-307l184 1047h307l-22 -127q125 150 325 149q154 0 241 -89t87 -257q0 -59 -12 -129l-105 -594h-307zM776 1405l221 139l131 -172l-374 -242l-303 244l147 168z" glyph-name="ncaron" horiz-adv-x="1251" unicode="ň"/><glyph d="M1126 0l103 582q6 33 6 67q0 82 -41 119t-107 37q-90 0 -161.5 -64.5t-87.5 -158.5l-103 -582h-307l184 1047h308l-23 -127q125 150 326 149q154 0 240.5 -89t86.5 -257q0 -59 -12 -129l-104 -594h-308zM244 739l-107 131q188 135 217 248q-78 -10 -129 39t-51 119 q0 80 60.5 136t142.5 56q86 0 142 -58t56 -159q0 -141 -96 -279.5t-235 -232.5z" glyph-name="napostrophe" horiz-adv-x="1642" unicode="ŉ"/><glyph d="M385 0h-313l252 1434h319l498 -959l170 959h313l-270 -1534q-29 -162 -128.5 -239t-242.5 -77q-117 0 -229 39l75 246q63 -18 113 -19q90 0 107 95l8 55l-504 965z" glyph-name="Eng" horiz-adv-x="1628" unicode="Ŋ"/><glyph d="M492 -373l86 242q33 -12 63 -12q70 0 86 94l111 631q6 33 6 67q0 82 -41 119t-107 37q-90 0 -161.5 -64.5t-88.5 -158.5l-102 -582h-307l184 1047h307l-22 -127q125 150 325 149q154 0 241 -89t87 -257q0 -59 -12 -129l-121 -688q-57 -315 -348 -316q-100 0 -186 37z" glyph-name="eng" horiz-adv-x="1251" unicode="ŋ"/><glyph d="M121 639q0 338 229.5 577.5t562.5 239.5q311 0 494.5 -190.5t183.5 -470.5q0 -338 -229 -578t-563 -240q-313 0 -495.5 190.5t-182.5 471.5zM895 1157q-188 0 -318.5 -148.5t-130.5 -346.5q0 -164 100.5 -275t270.5 -111q188 0 318.5 148.5t130.5 347.5 q0 164 -100.5 274.5t-270.5 110.5zM1358 1812l-43 -239h-588l43 239h588z" glyph-name="Omacron" horiz-adv-x="1644" unicode="Ō"/><glyph d="M78 469q0 242 168 421t413 179q233 0 370.5 -141.5t137.5 -349.5q0 -242 -168 -421.5t-413 -179.5q-233 0 -370.5 141.5t-137.5 350.5zM649 797q-115 0 -190.5 -95.5t-75.5 -222.5q0 -100 55.5 -164.5t157.5 -64.5q115 0 190.5 95t75.5 222q0 100 -55.5 165t-157.5 65z M1087 1436l-43 -240h-587l43 240h587z" glyph-name="omacron" horiz-adv-x="1247" unicode="ō"/><glyph d="M121 639q0 338 229.5 577.5t562.5 239.5q311 0 494.5 -190.5t183.5 -470.5q0 -338 -229 -578t-563 -240q-313 0 -495.5 190.5t-182.5 471.5zM895 1157q-188 0 -318.5 -148.5t-130.5 -346.5q0 -164 100.5 -275t270.5 -111q188 0 318.5 148.5t130.5 347.5 q0 164 -100.5 274.5t-270.5 110.5zM1198 1882l201 -76q-129 -279 -365 -278q-129 0 -211 79t-104 199l213 76q27 -129 117 -129q86 0 149 129z" glyph-name="Obreve" horiz-adv-x="1644" unicode="Ŏ"/><glyph d="M78 469q0 242 168 421t413 179q233 0 370.5 -141.5t137.5 -349.5q0 -242 -168 -421.5t-413 -179.5q-233 0 -370.5 141.5t-137.5 350.5zM649 797q-115 0 -190.5 -95.5t-75.5 -222.5q0 -100 55.5 -164.5t157.5 -64.5q115 0 190.5 95t75.5 222q0 100 -55.5 165t-157.5 65z M928 1505l200 -75q-129 -279 -364 -279q-129 0 -211 79t-104 200l213 75q27 -129 116 -129q87 0 150 129z" glyph-name="obreve" horiz-adv-x="1247" unicode="ŏ"/><glyph d="M121 639q0 338 229.5 577.5t562.5 239.5q311 0 494.5 -190.5t183.5 -470.5q0 -338 -229 -578t-563 -240q-313 0 -495.5 190.5t-182.5 471.5zM895 1157q-188 0 -318.5 -148.5t-130.5 -346.5q0 -164 100.5 -275t270.5 -111q188 0 318.5 148.5t130.5 347.5 q0 164 -100.5 274.5t-270.5 110.5zM1282 1507l-195 86l343 394l186 -172zM848 1507l-195 86l340 394l187 -172z" glyph-name="Ohungarumlaut" horiz-adv-x="1644" unicode="Ő"/><glyph d="M78 469q0 242 168 421t413 179q233 0 370.5 -141.5t137.5 -349.5q0 -242 -168 -421.5t-413 -179.5q-233 0 -370.5 141.5t-137.5 350.5zM649 797q-115 0 -190.5 -95.5t-75.5 -222.5q0 -100 55.5 -164.5t157.5 -64.5q115 0 190.5 95t75.5 222q0 100 -55.5 165t-157.5 65z M1014 1130l-195 87l342 393l187 -172zM580 1130l-195 87l340 393l186 -172z" glyph-name="ohungarumlaut" horiz-adv-x="1247" unicode="ő"/><glyph d="M123 637q0 156 51 296t151.5 253.5t267.5 180.5t378 67h1130l-49 -285h-704l-52 -295h559l-49 -270h-557l-53 -299h705l-52 -285h-950q-383 0 -579.5 178t-196.5 459zM877 285h6l153 868h-71q-246 0 -381 -135t-135 -356q0 -166 109.5 -271.5t318.5 -105.5z" glyph-name="OE" horiz-adv-x="2041" unicode="Œ"/><glyph d="M78 469q0 242 168 421t413 179q244 0 390 -162q172 162 424 162q199 0 314.5 -93t115.5 -233q0 -158 -152 -262t-448 -104h-125q45 -150 231 -150q137 0 266 97l125 -205q-164 -141 -418 -142q-264 0 -405 156q-162 -156 -391 -156q-233 0 -370.5 141.5t-137.5 350.5z M649 797q-115 0 -190.5 -95.5t-75.5 -222.5q0 -100 55.5 -164.5t157.5 -64.5q115 0 190.5 95t75.5 222q0 100 -55.5 165t-157.5 65zM1468 823q-106 0 -183 -62.5t-105 -172.5h84q172 0 252.5 40t80.5 103q0 43 -35 67.5t-94 24.5z" glyph-name="oe" horiz-adv-x="1953" unicode="œ"/><glyph d="M324 1434h602q248 0 373.5 -126t125.5 -317q0 -174 -89 -317.5t-244 -206.5l235 -467h-338l-205 424h-325l-74 -424h-313zM809 705q143 0 216 69.5t73 194.5q0 84 -56.5 134t-173.5 50h-280l-80 -448h301zM961 1507l-197 105l340 375l188 -195z" glyph-name="Racute" horiz-adv-x="1476" unicode="Ŕ"/><glyph d="M528 1047l-59 -338q68 147 179.5 250.5t266.5 109.5l-65 -369q-160 -14 -290 -115.5t-159 -258.5l-57 -326h-307l184 1047h307zM618 1130l-196 105l340 375l188 -195z" glyph-name="racute" horiz-adv-x="874" unicode="ŕ"/><glyph d="M72 0l252 1434h602q248 0 373.5 -126t125.5 -317q0 -174 -89 -317.5t-244 -206.5l235 -467h-338l-205 424h-325l-74 -424h-313zM508 705h301q143 0 216 69.5t73 194.5q0 84 -56.5 134t-173.5 50h-280zM518 -666l-86 103q139 104 162 184q-57 -6 -97 33t-40 92 q0 61 47 105.5t108 44.5q68 0 110 -44.5t42 -121.5q0 -113 -68.5 -215.5t-177.5 -180.5z" glyph-name="Rcommaaccent" horiz-adv-x="1476" unicode="Ŗ"/><glyph d="M528 1047l-59 -338q68 147 179.5 250.5t266.5 109.5l-65 -369q-160 -14 -290 -115.5t-159 -258.5l-57 -326h-307l184 1047h307zM55 -666l-86 103q139 104 162 184q-57 -6 -97 33t-40 92q0 61 47 105.5t109 44.5q68 0 109.5 -44.5t41.5 -121.5q0 -113 -68.5 -215.5 t-177.5 -180.5z" glyph-name="rcommaaccent" horiz-adv-x="874" unicode="ŗ"/><glyph d="M324 1434h602q248 0 373.5 -126t125.5 -317q0 -174 -89 -317.5t-244 -206.5l235 -467h-338l-205 424h-325l-74 -424h-313zM809 705q143 0 216 69.5t73 194.5q0 84 -56.5 134t-173.5 50h-280l-80 -448h301zM967 1782l221 139l131 -172l-375 -242l-303 244l147 168z" glyph-name="Rcaron" horiz-adv-x="1476" unicode="Ř"/><glyph d="M528 1047l-59 -338q68 147 179.5 250.5t266.5 109.5l-65 -369q-160 -14 -290 -115.5t-159 -258.5l-57 -326h-307l184 1047h307zM618 1405l222 139l131 -172l-375 -242l-303 244l147 168z" glyph-name="rcaron" horiz-adv-x="874" unicode="ř"/><glyph d="M68 422l313 63v-22q0 -119 89 -171t228 -52q94 0 157 34.5t63 100.5q0 86 -252 192q-25 10 -37 17q-203 84 -315.5 190.5t-112.5 257.5q0 205 150.5 314.5t387.5 109.5q260 0 420 -119.5t160 -353.5v-27h-311v15q0 221 -275 221q-78 0 -141.5 -32t-63.5 -107 q0 -61 60.5 -104.5t189.5 -98.5q88 -37 143.5 -64.5t123 -70.5t105.5 -85t64.5 -101.5t26.5 -129.5q0 -201 -145.5 -311.5t-403.5 -110.5q-160 0 -296 41t-232 140.5t-96 242.5v21zM866 1507l-196 105l340 375l188 -195z" glyph-name="Sacute" horiz-adv-x="1357" unicode="Ś"/><glyph d="M31 287l282 71q8 -74 65.5 -114.5t139.5 -40.5q137 0 137 76q0 14 -7 26t-21.5 23.5t-28.5 20.5t-38.5 19.5t-41 16.5t-44.5 16.5t-42 16.5q-307 121 -307 325q0 152 115.5 239t314.5 87q205 0 333 -91t128 -255v-12h-293v10q0 55 -41 88t-121 33q-133 0 -133 -78 q0 -14 5 -25.5t17.5 -21.5t23.5 -18.5t34.5 -18.5t38 -16.5t48.5 -19.5t50 -19q152 -59 234 -133t82 -189q0 -156 -115 -241t-318 -85q-211 0 -350 84.5t-147 225.5zM662 1130l-197 105l340 375l188 -195z" glyph-name="sacute" horiz-adv-x="1077" unicode="ś"/><glyph d="M68 422l313 63v-22q0 -119 89 -171t228 -52q94 0 157 34.5t63 100.5q0 86 -252 192q-25 10 -37 17q-203 84 -315.5 190.5t-112.5 257.5q0 205 150.5 314.5t387.5 109.5q260 0 420 -119.5t160 -353.5v-27h-311v15q0 221 -275 221q-78 0 -141.5 -32t-63.5 -107 q0 -61 60.5 -104.5t189.5 -98.5q88 -37 143.5 -64.5t123 -70.5t105.5 -85t64.5 -101.5t26.5 -129.5q0 -201 -145.5 -311.5t-403.5 -110.5q-160 0 -296 41t-232 140.5t-96 242.5v21zM866 1653l-221 -140l-131 173l375 239l303 -242l-148 -170z" glyph-name="Scircumflex" horiz-adv-x="1357" unicode="Ŝ"/><glyph d="M31 287l282 71q8 -74 65.5 -114.5t139.5 -40.5q137 0 137 76q0 14 -7 26t-21.5 23.5t-28.5 20.5t-38.5 19.5t-41 16.5t-44.5 16.5t-42 16.5q-307 121 -307 325q0 152 115.5 239t314.5 87q205 0 333 -91t128 -255v-12h-293v10q0 55 -41 88t-121 33q-133 0 -133 -78 q0 -14 5 -25.5t17.5 -21.5t23.5 -18.5t34.5 -18.5t38 -16.5t48.5 -19.5t50 -19q152 -59 234 -133t82 -189q0 -156 -115 -241t-318 -85q-211 0 -350 84.5t-147 225.5zM662 1276l-222 -139l-131 172l375 239l303 -241l-147 -170z" glyph-name="scircumflex" horiz-adv-x="1077" unicode="ŝ"/><glyph d="M68 422l313 63v-22q0 -119 89 -171t228 -52q94 0 157 34.5t63 100.5q0 86 -252 192q-25 10 -37 17q-203 84 -315.5 190.5t-112.5 257.5q0 205 150.5 314.5t387.5 109.5q260 0 420 -119.5t160 -353.5v-27h-311v15q0 221 -275 221q-78 0 -141.5 -32t-63.5 -107 q0 -61 60.5 -104.5t189.5 -98.5q88 -37 143.5 -64.5t123 -70.5t105.5 -85t64.5 -101.5t26.5 -129.5q0 -201 -145.5 -311.5t-403.5 -110.5h-10l-39 -71q145 -45 145 -187q0 -102 -72.5 -172.5t-195.5 -70.5q-135 0 -256 80l115 174q78 -53 135 -54q72 0 72 57.5t-101 57.5 l-32 59l86 138q-205 29 -338 132t-133 281v21z" glyph-name="Scedilla" horiz-adv-x="1357" unicode="Ş"/><glyph d="M31 287l282 71q8 -74 65.5 -114.5t139.5 -40.5q137 0 137 76q0 14 -7 26t-21.5 23.5t-28.5 20.5t-38.5 19.5t-41 16.5t-44.5 16.5t-42 16.5q-307 121 -307 325q0 152 115.5 239t314.5 87q205 0 333 -91t128 -255v-12h-293v10q0 55 -41 88t-121 33q-133 0 -133 -78 q0 -14 5 -25.5t17.5 -21.5t23.5 -18.5t34.5 -18.5t38 -16.5t48.5 -19.5t50 -19q152 -59 234 -133t82 -189q0 -154 -113 -238.5t-311 -87.5l-39 -71q145 -45 145 -187q0 -102 -72.5 -172.5t-195.5 -70.5q-135 0 -256 80l114 174q78 -53 136 -54q72 0 71.5 57.5t-100.5 57.5 l-33 59l86 138q-160 25 -258 103.5t-104 195.5z" glyph-name="scedilla" horiz-adv-x="1077" unicode="ş"/><glyph d="M68 422l313 63v-22q0 -119 89 -171t228 -52q94 0 157 34.5t63 100.5q0 86 -252 192q-25 10 -37 17q-203 84 -315.5 190.5t-112.5 257.5q0 205 150.5 314.5t387.5 109.5q260 0 420 -119.5t160 -353.5v-27h-311v15q0 221 -275 221q-78 0 -141.5 -32t-63.5 -107 q0 -61 60.5 -104.5t189.5 -98.5q88 -37 143.5 -64.5t123 -70.5t105.5 -85t64.5 -101.5t26.5 -129.5q0 -201 -145.5 -311.5t-403.5 -110.5q-160 0 -296 41t-232 140.5t-96 242.5v21zM864 1782l221 139l132 -172l-375 -242l-303 244l147 168z" glyph-name="Scaron" horiz-adv-x="1357" unicode="Š"/><glyph d="M31 287l282 71q8 -74 65.5 -114.5t139.5 -40.5q137 0 137 76q0 14 -7 26t-21.5 23.5t-28.5 20.5t-38.5 19.5t-41 16.5t-44.5 16.5t-42 16.5q-307 121 -307 325q0 152 115.5 239t314.5 87q205 0 333 -91t128 -255v-12h-293v10q0 55 -41 88t-121 33q-133 0 -133 -78 q0 -14 5 -25.5t17.5 -21.5t23.5 -18.5t34.5 -18.5t38 -16.5t48.5 -19.5t50 -19q152 -59 234 -133t82 -189q0 -156 -115 -241t-318 -85q-211 0 -350 84.5t-147 225.5zM672 1405l221 139l131 -172l-375 -242l-303 244l148 168z" glyph-name="scaron" horiz-adv-x="1077" unicode="š"/><glyph d="M158 1141l51 293h1200l-51 -293h-443l-200 -1141h-80l-33 -94q145 -45 146 -187q0 -102 -73 -172.5t-196 -70.5q-135 0 -256 80l115 174q78 -53 135 -54q72 0 72 57.5t-101 57.5l-32 59l75 150h-86l201 1141h-444z" glyph-name="Tcommaaccent" horiz-adv-x="1298" unicode="Ţ"/><glyph d="M78 778l47 269h180l43 249l326 105l-62 -354h318l-47 -269h-318l-65 -368q-6 -31 -6 -56q0 -102 108 -102q61 0 150 37l61 -250q-143 -61 -274 -62q-33 0 -52 3l-38 -74q145 -45 145 -187q0 -102 -72.5 -172.5t-195.5 -70.5q-137 0 -256 80l114 174q78 -53 135 -54 q72 0 72 57.5t-100 57.5l-33 59l98 158q-172 72 -172 303q0 59 17 146l57 321h-180z" glyph-name="tcommaaccent" horiz-adv-x="911" unicode="ţ"/><glyph d="M158 1141l51 293h1200l-51 -293h-443l-200 -1141h-314l201 1141h-444zM866 1782l221 139l132 -172l-375 -242l-303 244l147 168z" glyph-name="Tcaron" horiz-adv-x="1298" unicode="Ť"/><glyph d="M78 778l47 269h180l43 249l326 105l-62 -354h318l-47 -269h-318l-65 -368q-6 -31 -6 -56q0 -102 108 -102q61 0 150 37l61 -250q-143 -61 -274 -62q-354 0 -355 334q0 59 17 146l57 321h-180zM846 1128l-86 103q139 104 162 184q-57 -6 -97.5 33t-40.5 92 q0 61 47.5 105.5t108.5 44.5q68 0 110 -44t42 -122q0 -113 -68.5 -215.5t-177.5 -180.5z" glyph-name="tcaron" horiz-adv-x="909" unicode="ť"/><glyph d="M164 1141l51 293h1200l-51 -293h-442l-58 -326h217l-45 -262h-219l-96 -553h-313l96 553h-211l47 262h211l57 326h-444z" glyph-name="Tbar" horiz-adv-x="1312" unicode="Ŧ"/><glyph d="M86 778l47 269h180l43 249l326 105l-61 -354h317l-47 -269h-318l-22 -121h237l-32 -194h-238l-10 -53q-6 -31 -6 -56q0 -102 108 -102q61 0 150 37l61 -250q-143 -61 -274 -62q-354 0 -354 334q0 61 18 152h-145l34 194h144l22 121h-180z" glyph-name="tbar" horiz-adv-x="919" unicode="ŧ"/><glyph d="M1270 1434h313l-153 -871q-47 -270 -228.5 -428t-441.5 -158q-297 0 -450.5 157t-153.5 403q0 68 12 141l133 756h313l-133 -758q-10 -66 -10 -109q0 -141 78 -217t227 -76q291 0 350 344zM825 1563h-223q16 160 90 257t197 97q106 0 174 -94q8 -12 21.5 -35t21.5 -32 t18 -9q29 0 47 135h224q-16 -160 -90 -258t-195 -98q-100 0 -174 96q-10 12 -22.5 33.5t-20.5 32t-19 10.5q-31 0 -49 -135z" glyph-name="Utilde" horiz-adv-x="1568" unicode="Ũ"/><glyph d="M514 1047l-102 -582q-6 -33 -6 -68q0 -82 40.5 -118.5t106.5 -36.5q90 0 161.5 64.5t88.5 158.5l102 582h307l-184 -1047h-307l22 127q-125 -150 -325 -150q-154 0 -241 89.5t-87 257.5q0 57 12 129l105 594h307zM594 1186h-223q16 160 90 257t196 97q106 0 174 -94 q8 -12 21.5 -34.5t22 -32t18.5 -9.5q29 0 47 135h223q-16 -160 -90 -258t-194 -98q-100 0 -174 96q-10 12 -22.5 33.5t-21 32t-18.5 10.5q-31 0 -49 -135z" glyph-name="utilde" horiz-adv-x="1249" unicode="ũ"/><glyph d="M1270 1434h313l-153 -871q-47 -270 -228.5 -428t-441.5 -158q-297 0 -450.5 157t-153.5 403q0 68 12 141l133 756h313l-133 -758q-10 -66 -10 -109q0 -141 78 -217t227 -76q291 0 350 344zM1313 1812l-43 -239h-588l43 239h588z" glyph-name="Umacron" horiz-adv-x="1568" unicode="Ū"/><glyph d="M514 1047l-102 -582q-6 -33 -6 -68q0 -82 40.5 -118.5t106.5 -36.5q90 0 161.5 64.5t88.5 158.5l102 582h307l-184 -1047h-307l22 127q-125 -150 -325 -150q-154 0 -241 89.5t-87 257.5q0 57 12 129l105 594h307zM1081 1436l-43 -240h-587l43 240h587z" glyph-name="umacron" horiz-adv-x="1249" unicode="ū"/><glyph d="M1270 1434h313l-153 -871q-47 -270 -228.5 -428t-441.5 -158q-297 0 -450.5 157t-153.5 403q0 68 12 141l133 756h313l-133 -758q-10 -66 -10 -109q0 -141 78 -217t227 -76q291 0 350 344zM1153 1882l201 -76q-129 -279 -365 -278q-129 0 -211 79t-104 199l213 76 q27 -129 117 -129q86 0 149 129z" glyph-name="Ubreve" horiz-adv-x="1568" unicode="Ŭ"/><glyph d="M514 1047l-102 -582q-6 -33 -6 -68q0 -82 40.5 -118.5t106.5 -36.5q90 0 161.5 64.5t88.5 158.5l102 582h307l-184 -1047h-307l22 127q-125 -150 -325 -150q-154 0 -241 89.5t-87 257.5q0 57 12 129l105 594h307zM922 1505l200 -75q-129 -279 -364 -279q-129 0 -211 79 t-105 200l213 75q27 -129 117 -129q84 0 150 129z" glyph-name="ubreve" horiz-adv-x="1249" unicode="ŭ"/><glyph d="M1270 1434h313l-153 -871q-47 -270 -228.5 -428t-441.5 -158q-297 0 -450.5 157t-153.5 403q0 68 12 141l133 756h313l-133 -758q-10 -66 -10 -109q0 -141 78 -217t227 -76q291 0 350 344zM750 1737q0 115 82.5 197.5t193.5 82.5q106 0 173 -68.5t67 -164.5 q0 -115 -83 -198t-194 -83q-106 0 -172.5 69t-66.5 165zM1014 1849q-35 0 -63.5 -28.5t-28.5 -67.5q0 -35 21.5 -58.5t57.5 -23.5q35 0 64 29t29 67q0 35 -21.5 58.5t-58.5 23.5z" glyph-name="Uring" horiz-adv-x="1568" unicode="Ů"/><glyph d="M514 1047l-102 -582q-6 -33 -6 -68q0 -82 40.5 -118.5t106.5 -36.5q90 0 161.5 64.5t88.5 158.5l102 582h307l-184 -1047h-307l22 127q-125 -150 -325 -150q-154 0 -241 89.5t-87 257.5q0 57 12 129l105 594h307zM518 1360q0 115 83 197.5t194 82.5q106 0 172.5 -68.5 t66.5 -164.5q0 -115 -83 -198t-193 -83q-106 0 -173 69t-67 165zM782 1473q-35 0 -63.5 -29t-28.5 -68q0 -35 21.5 -58.5t58.5 -23.5q35 0 63.5 29t28.5 68q0 35 -21.5 58.5t-58.5 23.5z" glyph-name="uring" horiz-adv-x="1249" unicode="ů"/><glyph d="M1270 1434h313l-153 -871q-47 -270 -228.5 -428t-441.5 -158q-297 0 -450.5 157t-153.5 403q0 68 12 141l133 756h313l-133 -758q-10 -66 -10 -109q0 -141 78 -217t227 -76q291 0 350 344zM1239 1507l-195 86l342 394l187 -172zM805 1507l-195 86l340 394l187 -172z" glyph-name="Uhungarumlaut" horiz-adv-x="1568" unicode="Ű"/><glyph d="M514 1047l-102 -582q-6 -33 -6 -68q0 -82 40.5 -118.5t106.5 -36.5q90 0 161.5 64.5t88.5 158.5l102 582h307l-184 -1047h-307l22 127q-125 -150 -325 -150q-154 0 -241 89.5t-87 257.5q0 57 12 129l105 594h307zM1006 1130l-195 87l342 393l186 -172zM571 1130l-194 87 l340 393l186 -172z" glyph-name="uhungarumlaut" horiz-adv-x="1249" unicode="ű"/><glyph d="M1270 1434h313l-153 -871q-33 -193 -137.5 -331t-262.5 -203q-248 -180 -248 -285q0 -53 68 -53q20 0 43 6l8 -215q-41 -8 -82 -8q-121 0 -188.5 53t-67.5 143q0 162 207 307h-10q-297 0 -450.5 157t-153.5 403q0 68 12 141l133 756h313l-133 -758q-10 -66 -10 -109 q0 -141 78 -217t227 -76q291 0 350 344z" glyph-name="Uogonek" horiz-adv-x="1568" unicode="Ų"/><glyph d="M514 1047l-102 -582q-6 -33 -6 -68q0 -82 40.5 -118.5t106.5 -36.5q90 0 161.5 64.5t88.5 158.5l102 582h307l-184 -1047q-209 -162 -209 -256q0 -53 68 -53q20 0 43 6l8 -215q-41 -8 -82 -8q-121 0 -188.5 53t-67.5 143q0 176 242 330h-121l22 127q-125 -150 -325 -150 q-154 0 -241 89.5t-87 257.5q0 57 12 129l105 594h307z" glyph-name="uogonek" horiz-adv-x="1249" unicode="ų"/><glyph d="M709 0h-361l-137 1434h328l82 -969l448 969h332l94 -955l416 955h352l-643 -1434h-356l-99 979zM1303 1653l-222 -140l-131 173l375 239l303 -242l-147 -170z" glyph-name="Wcircumflex" horiz-adv-x="2150" unicode="Ŵ"/><glyph d="M590 0h-357l-96 1047h320l30 -687l304 687h309l57 -676l266 676h344l-467 -1047h-352l-61 674zM1016 1276l-221 -139l-131 172l374 239l303 -241l-147 -170z" glyph-name="wcircumflex" horiz-adv-x="1720" unicode="ŵ"/><glyph d="M516 1434l238 -613l452 613h406l-735 -934l-86 -500h-314l88 498l-405 936h356zM944 1653l-221 -140l-131 173l375 239l303 -242l-148 -170z" glyph-name="Ycircumflex" horiz-adv-x="1449" unicode="Ŷ"/><glyph d="M12 -444l-84 274q233 57 387 193l-202 1024h317l105 -687l348 687h348l-518 -932q-70 -125 -148 -220.5t-144.5 -151.5t-145 -97t-135 -58.5t-128.5 -31.5zM731 1276l-221 -139l-131 172l375 239l303 -241l-148 -170z" glyph-name="ycircumflex" horiz-adv-x="1157" unicode="ŷ"/><glyph d="M516 1434l238 -613l452 613h406l-735 -934l-86 -500h-314l88 498l-405 936h356zM582 1681q0 70 52 119t124 49q63 0 105 -43t42 -104q0 -68 -53 -118t-123 -50q-63 0 -105 43t-42 104zM973 1681q0 70 52 119t124 49q63 0 105 -43t42 -104q0 -70 -52 -119t-124 -49 q-63 0 -105 43t-42 104z" glyph-name="Ydieresis" horiz-adv-x="1449" unicode="Ÿ"/><glyph d="M215 1141l51 293h1166l-46 -263l-897 -878h742l-51 -293h-1188l47 262l895 879h-719zM905 1507l-196 105l340 375l188 -195z" glyph-name="Zacute" horiz-adv-x="1366" unicode="Ź"/><glyph d="M135 776l47 271h873l-39 -213l-555 -564h457l-48 -270h-872l37 211l555 565h-455zM672 1130l-197 105l340 375l189 -195z" glyph-name="zacute" horiz-adv-x="1052" unicode="ź"/><glyph d="M215 1141l51 293h1166l-46 -263l-897 -878h742l-51 -293h-1188l47 262l895 879h-719zM741 1681q0 70 52.5 119t124.5 49q63 0 105 -43t42 -104q0 -68 -53.5 -118t-122.5 -50q-63 0 -105.5 43t-42.5 104z" glyph-name="Zdotaccent" horiz-adv-x="1366" unicode="Ż"/><glyph d="M135 776l47 271h873l-39 -213l-555 -564h457l-48 -270h-872l37 211l555 565h-455zM508 1305q0 70 52 119t124 49q63 0 105 -43.5t42 -104.5q0 -68 -53 -118t-123 -50q-63 0 -105 43.5t-42 104.5z" glyph-name="zdotaccent" horiz-adv-x="1052" unicode="ż"/><glyph d="M215 1141l51 293h1166l-46 -263l-897 -878h742l-51 -293h-1188l47 262l895 879h-719zM893 1782l221 139l131 -172l-375 -242l-303 244l148 168z" glyph-name="Zcaron" horiz-adv-x="1366" unicode="Ž"/><glyph d="M135 776l47 271h873l-39 -213l-555 -564h457l-48 -270h-872l37 211l555 565h-455zM659 1405l222 139l131 -172l-375 -242l-303 244l147 168z" glyph-name="zcaron" horiz-adv-x="1052" unicode="ž"/><glyph d="M117 633l69 266h179l45 172q100 385 426 385q160 0 297 -78l-123 -241q-84 39 -156 39q-111 0 -147 -142l-35 -135h293l-70 -266h-293l-172 -664q-102 -387 -426 -387q-137 0 -272 66l121 243q66 -31 133 -30q111 0 147 141l162 631h-178z" glyph-name="florin" horiz-adv-x="1017" unicode="ƒ"/><glyph d="M1632 1507l-196 105l340 375l188 -195zM1012 1434h1102l-52 -285h-698l-51 -295h551l-49 -270h-549l-54 -299h699l-49 -285h-1006l43 250h-432l-184 -250h-392zM670 522h278l86 494z" glyph-name="AEacute" horiz-adv-x="2052" unicode="Ǽ"/><glyph d="M1845 324l125 -205q-164 -141 -418 -142q-178 0 -294.5 75t-165.5 202l-43 -254h-258l20 121q-133 -143 -322 -144q-193 0 -302 132.5t-109 332.5q0 150 57.5 290t178 238.5t280.5 98.5q244 0 352 -182l27 160h258l-33 -185q166 207 442 207q199 0 316 -93t117 -233 q0 -158 -153 -262t-447 -104h-125q45 -150 231 -150q137 1 266 97zM598 252q117 0 193.5 95t76.5 218q0 100 -55 165t-156 65q-117 0 -192.5 -94.5t-75.5 -223.5q0 -98 54.5 -161.5t154.5 -63.5zM1638 823q-106 0 -183 -62.5t-105 -172.5h84q172 0 252.5 40t80.5 103 q0 43 -35 67.5t-94 24.5zM1221 1130l-197 105l340 375l188 -195z" glyph-name="aeacute" horiz-adv-x="2123" unicode="ǽ"/><glyph d="M1044 1507l-196 105l340 375l188 -195zM123 639q0 217 100.5 403.5t283.5 300t408 113.5q233 0 404 -115l86 93h274l-217 -228q131 -174 131 -411q0 -217 -100 -403.5t-283.5 -300.5t-408.5 -114q-233 0 -400 111l-84 -88h-274l213 225q-133 178 -133 414zM897 1157 q-188 0 -315 -150.5t-127 -351.5q0 -102 39 -182l600 633q-84 51 -197 51zM819 276q184 0 313.5 148.5t129.5 345.5q0 102 -37 184l-598 -628q79 -50 192 -50z" glyph-name="Oslashacute" horiz-adv-x="1648" unicode="Ǿ"/><glyph d="M78 463q0 246 168 426t416 180q168 0 290 -78l52 56h225l-156 -168q96 -131 96 -304q0 -242 -166.5 -420t-414.5 -178q-168 0 -289 74l-47 -51h-227l151 162q-98 129 -98 301zM651 807q-121 0 -201.5 -100.5t-80.5 -229.5q0 -43 14 -94l375 401q-46 23 -107 23zM596 238 q123 0 202 99t79 230q0 51 -13 90l-372 -399q41 -20 104 -20zM774 1130l-196 105l340 375l188 -195z" glyph-name="oslashacute" horiz-adv-x="1249" unicode="ǿ"/><glyph d="M68 422l313 63v-22q0 -119 89 -171t228 -52q94 0 157 34.5t63 100.5q0 86 -252 192q-25 10 -37 17q-203 84 -315.5 190.5t-112.5 257.5q0 205 150.5 314.5t387.5 109.5q260 0 420 -119.5t160 -353.5v-27h-311v15q0 221 -275 221q-78 0 -141.5 -32t-63.5 -107 q0 -61 60.5 -104.5t189.5 -98.5q88 -37 143.5 -64.5t123 -70.5t105.5 -85t64.5 -101.5t26.5 -129.5q0 -201 -145.5 -311.5t-403.5 -110.5q-160 0 -296 41t-232 140.5t-96 242.5v21zM481 -666l-86 103q139 104 162 184q-57 -6 -97 33t-40 92q0 61 47 105.5t108 44.5 q68 0 110 -44.5t42 -121.5q0 -113 -68.5 -215.5t-177.5 -180.5z" glyph-name="Scommaaccent" horiz-adv-x="1357" unicode="Ș"/><glyph d="M31 287l282 71q8 -74 65.5 -114.5t139.5 -40.5q137 0 137 76q0 14 -7 26t-21.5 23.5t-28.5 20.5t-38.5 19.5t-41 16.5t-44.5 16.5t-42 16.5q-307 121 -307 325q0 152 115.5 239t314.5 87q205 0 333 -91t128 -255v-12h-293v10q0 55 -41 88t-121 33q-133 0 -133 -78 q0 -14 5 -25.5t17.5 -21.5t23.5 -18.5t34.5 -18.5t38 -16.5t48.5 -19.5t50 -19q152 -59 234 -133t82 -189q0 -156 -115 -241t-318 -85q-211 0 -350 84.5t-147 225.5zM336 -666l-86 103q139 104 162 184q-57 -6 -97.5 33t-40.5 92q0 61 47.5 105.5t108.5 44.5q68 0 110 -44.5 t42 -121.5q0 -113 -68.5 -215.5t-177.5 -180.5z" glyph-name="scommaaccent" horiz-adv-x="1077" unicode="ș"/><glyph d="M158 1141l51 293h1200l-51 -293h-443l-200 -1141h-314l201 1141h-444zM430 -666l-86 103q139 104 162 184q-57 -6 -97 33t-40 92q0 61 47 105.5t108 44.5q68 0 110 -44.5t42 -121.5q0 -113 -68.5 -215.5t-177.5 -180.5z" glyph-name="uni021A" horiz-adv-x="1298" unicode="Ț"/><glyph d="M78 778l47 269h180l43 249l326 105l-62 -354h318l-47 -269h-318l-65 -368q-6 -31 -6 -56q0 -102 108 -102q61 0 150 37l61 -250q-143 -61 -274 -62q-354 0 -355 334q0 59 17 146l57 321h-180zM328 -666l-86 103q139 104 161 184q-57 -6 -97 33t-40 92q0 61 47 105.5 t109 44.5q68 0 109.5 -44.5t41.5 -121.5q0 -113 -68 -215.5t-177 -180.5z" glyph-name="uni021B" horiz-adv-x="909" unicode="ț"/><glyph d="M682 1653l-221 -140l-131 173l375 239l303 -242l-148 -170z" glyph-name="circumflex" horiz-adv-x="753" unicode="ˆ"/><glyph d="M662 1782l221 139l131 -172l-375 -242l-303 244l147 168z" glyph-name="caron" horiz-adv-x="753" unicode="ˇ"/><glyph d="M819 1882l201 -76q-129 -279 -365 -278q-129 0 -211 79t-104 199l213 76q27 -129 117 -129q83 0 149 129z" glyph-name="breve" horiz-adv-x="759" unicode="˘"/><glyph d="M289 1681q0 70 52 119t124 49q63 0 105 -43t42 -104q0 -68 -53 -118t-123 -50q-63 0 -105 43t-42 104z" glyph-name="dotaccent" horiz-adv-x="319" unicode="˙"/><glyph d="M295 1737q0 115 83 197.5t193 82.5q106 0 173 -68.5t67 -164.5q0 -115 -83 -198t-193 -83q-106 0 -173 69t-67 165zM559 1849q-35 0 -63.5 -28.5t-28.5 -67.5q0 -35 21.5 -58.5t58.5 -23.5q35 0 63.5 29t28.5 67q0 35 -21.5 58.5t-58.5 23.5z" glyph-name="ring" horiz-adv-x="374" unicode="˚"/><glyph d="M242 41l118 -41q-209 -162 -208 -256q0 -53 67 -53q20 0 43 6l8 -215q-41 -8 -82 -8q-121 0 -188.5 53t-67.5 143q1 197 310 371z" glyph-name="ogonek" horiz-adv-x="401" unicode="˛"/><glyph d="M500 1563h-224q16 160 90 257t197 97q106 0 174 -94q8 -12 21.5 -35t21.5 -32t19 -9q29 0 47 135h223q-16 -160 -90 -258t-195 -98q-100 0 -174 96q-10 12 -22.5 33.5t-20.5 32t-18 10.5q-31 0 -49 -135z" glyph-name="tilde" horiz-adv-x="759" unicode="˜"/><glyph d="M856 1507l-194 86l342 394l186 -172zM422 1507l-195 86l340 394l187 -172z" glyph-name="hungarumlaut" horiz-adv-x="856" unicode="˝"/><glyph d="M1458 285l-49 -285h-565l49 285q158 39 259 178t101 311q0 162 -96 272.5t-258 110.5q-184 0 -311 -149.5t-127 -350.5q0 -125 56 -225t153 -147l-49 -285h-566l49 285h175q-139 174 -140 409q0 322 228.5 542t541.5 220q307 0 493.5 -182t186.5 -451q0 -311 -227 -538 h96z" glyph-name="Omega" horiz-adv-x="1652" unicode="Ω"/><glyph d="M1370 1047l-49 -279h-160l-135 -768h-301l135 768h-289l-135 -768h-299l135 768h-159l49 279h1208z" glyph-name="pi" horiz-adv-x="1347" unicode="π"/><glyph d="M709 0h-361l-137 1434h328l82 -969l448 969h332l94 -955l416 955h352l-643 -1434h-356l-99 979zM1462 1577l-225 -68l-223 322l246 156z" glyph-name="Wgrave" horiz-adv-x="2150" unicode="Ẁ"/><glyph d="M590 0h-357l-96 1047h320l30 -687l304 687h309l57 -676l266 676h344l-467 -1047h-352l-61 674zM1174 1200l-226 -67l-223 321l246 156z" glyph-name="wgrave" horiz-adv-x="1720" unicode="ẁ"/><glyph d="M709 0h-361l-137 1434h328l82 -969l448 969h332l94 -955l416 955h352l-643 -1434h-356l-99 979zM1303 1507l-197 105l340 375l188 -195z" glyph-name="Wacute" horiz-adv-x="2150" unicode="Ẃ"/><glyph d="M590 0h-357l-96 1047h320l30 -687l304 687h309l57 -676l266 676h344l-467 -1047h-352l-61 674zM1014 1130l-197 105l340 375l189 -195z" glyph-name="wacute" horiz-adv-x="1720" unicode="ẃ"/><glyph d="M709 0h-361l-137 1434h328l82 -969l448 969h332l94 -955l416 955h352l-643 -1434h-356l-99 979zM942 1681q0 70 52.5 119t123.5 49q63 0 105.5 -43t42.5 -104q0 -68 -53.5 -118t-122.5 -50q-63 0 -105.5 43t-42.5 104zM1333 1681q0 70 52.5 119t123.5 49q63 0 105.5 -43 t42.5 -104q0 -70 -52.5 -119t-123.5 -49q-63 0 -105.5 43t-42.5 104z" glyph-name="Wdieresis" horiz-adv-x="2150" unicode="Ẅ"/><glyph d="M590 0h-357l-96 1047h320l30 -687l304 687h309l57 -676l266 676h344l-467 -1047h-352l-61 674zM651 1305q0 70 52.5 119t123.5 49q63 0 105.5 -43.5t42.5 -104.5q0 -68 -53.5 -118t-122.5 -50q-63 0 -105.5 43.5t-42.5 104.5zM1042 1305q0 70 52.5 119t124.5 49 q63 0 105 -43.5t42 -104.5q0 -70 -52 -119t-124 -49q-63 0 -105.5 43.5t-42.5 104.5z" glyph-name="wdieresis" horiz-adv-x="1720" unicode="ẅ"/><glyph d="M518 184l189 222q141 -145 311 -146q109 0 166 59.5t57 141.5q0 80 -62.5 127t-177.5 47q-57 0 -120 -14l-74 188l428 297q-201 82 -358 82q-297 0 -351 -299l-155 -889h-314l170 961q41 227 206 368t429 141q330 0 727 -200l-43 -246l-264 -190q106 -33 182 -125.5 t76 -229.5q0 -213 -141.5 -357.5t-374.5 -144.5q-295 0 -506 207z" glyph-name="uni1E9E" horiz-adv-x="1638" unicode="ẞ"/><glyph d="M516 1434l238 -613l452 613h406l-735 -934l-86 -500h-314l88 498l-405 936h356zM1104 1577l-225 -68l-224 322l246 156z" glyph-name="Ygrave" horiz-adv-x="1449" unicode="Ỳ"/><glyph d="M12 -444l-84 274q233 57 387 193l-202 1024h317l105 -687l348 687h348l-518 -932q-70 -125 -148 -220.5t-144.5 -151.5t-145 -97t-135 -58.5t-128.5 -31.5zM891 1200l-225 -67l-224 321l246 156z" glyph-name="ygrave" horiz-adv-x="1157" unicode="ỳ"/><glyph d="M1051 735l-47 -272h-889l47 272h889z" glyph-name="endash" horiz-adv-x="1140" unicode="–"/><glyph d="M1325 735l-49 -272h-1161l47 272h1163z" glyph-name="emdash" horiz-adv-x="1415" unicode="—"/><glyph d="M500 1507l106 -131q-188 -135 -217 -248q78 10 129 -39t51 -118q0 -80 -60 -136.5t-142 -56.5q-86 0 -142.5 58.5t-56.5 158.5q0 141 96.5 279.5t235.5 232.5z" glyph-name="quoteleft" horiz-adv-x="577" unicode="‘"/><glyph d="M283 741l-107 131q188 135 217 248q-78 -10 -129 39t-51 119q0 80 60.5 136t142.5 56q86 0 142 -58t56 -159q0 -141 -96 -279.5t-235 -232.5z" glyph-name="quoteright" horiz-adv-x="569" unicode="’"/><glyph d="M90 -399l-106 131q188 135 217 248q-78 -10 -129.5 39t-51.5 118q0 80 60.5 136.5t142.5 56.5q86 0 142.5 -58.5t56.5 -158.5q0 -141 -96.5 -279.5t-235.5 -232.5z" glyph-name="quotesinglbase" horiz-adv-x="573" unicode="‚"/><glyph d="M500 1507l106 -131q-188 -135 -217 -248q78 10 129 -39t51 -118q0 -80 -60 -136.5t-142 -56.5q-86 0 -142.5 58.5t-56.5 158.5q0 141 96.5 279.5t235.5 232.5zM999 1507l107 -131q-188 -135 -217 -248q78 10 129 -39t51 -118q0 -80 -60.5 -136.5t-142.5 -56.5 q-86 0 -142 58.5t-56 158.5q0 141 96 279.5t235 232.5z" glyph-name="quotedblleft" horiz-adv-x="1075" unicode="“"/><glyph d="M283 741l-107 131q188 135 217 248q-78 -10 -129 39t-51 119q0 80 60.5 136t142.5 56q86 0 142 -58t56 -159q0 -141 -96 -279.5t-235 -232.5zM780 741l-106 131q188 135 217 248q-78 -10 -129 39t-51 119q0 80 60 136t142 56q86 0 142.5 -58t56.5 -159 q0 -141 -96.5 -279.5t-235.5 -232.5z" glyph-name="quotedblright" horiz-adv-x="1067" unicode="”"/><glyph d="M90 -399l-106 131q188 135 217 248q-78 -10 -129.5 39t-51.5 118q0 80 60.5 136.5t142.5 56.5q86 0 142.5 -58.5t56.5 -158.5q0 -141 -96.5 -279.5t-235.5 -232.5zM588 -399l-107 131q188 135 217 248q-78 -10 -129 39t-51 118q0 80 60.5 136.5t142.5 56.5 q86 0 142.5 -58.5t56.5 -158.5q0 -141 -96.5 -279.5t-235.5 -232.5z" glyph-name="quotedblbase" horiz-adv-x="1071" unicode="„"/><glyph d="M1012 1102l-43 -246h-267l-151 -856h-275l152 856h-266l43 246h266l59 332h273l-58 -332h267z" glyph-name="dagger" horiz-adv-x="1013" unicode="†"/><glyph d="M1012 1102l-43 -246h-269l-47 -278h267l-43 -246h-267l-59 -332h-275l60 332h-266l43 246h266l49 278h-266l43 246h266l59 332h275l-60 -332h267z" glyph-name="daggerdbl" horiz-adv-x="1013" unicode="‡"/><glyph d="M145 575q0 104 80 184.5t191 80.5q98 0 161.5 -66.5t63.5 -159.5q0 -104 -80 -184t-188 -80q-100 0 -164 66.5t-64 158.5z" glyph-name="bullet" horiz-adv-x="765" unicode="•"/><glyph d="M29 139q0 76 58 131.5t138 55.5q70 0 117 -47.5t47 -114.5q0 -78 -58.5 -132.5t-135.5 -54.5q-72 0 -119 47t-47 115zM500 139q0 76 58 131.5t138 55.5q70 0 117 -47.5t47 -114.5q0 -78 -58.5 -132.5t-135.5 -54.5q-70 0 -118 47t-48 115zM973 139q0 76 58.5 131.5 t137.5 55.5q70 0 117 -47.5t47 -114.5q0 -78 -58 -132.5t-138 -54.5q-70 0 -117 47t-47 115z" glyph-name="ellipsis" horiz-adv-x="1482" unicode="…"/><glyph d="M401 0h-282l1288 1434h283zM164 1069q0 154 115.5 270.5t275.5 116.5q150 0 244 -98t94 -236q0 -154 -115.5 -270.5t-275.5 -116.5q-150 0 -244 98.5t-94 235.5zM541 1235q-59 0 -102.5 -43t-43.5 -111q0 -53 33 -89t88 -36q59 0 102.5 43t43.5 111q0 53 -33 89t-88 36z M918 309q0 154 115.5 270.5t275.5 116.5q150 0 244 -98t94 -236q0 -154 -116 -270.5t-276 -116.5q-150 0 -243.5 98.5t-93.5 235.5zM1294 475q-59 0 -102 -43t-43 -110q0 -53 32.5 -89t88.5 -36q59 0 102 43t43 110q0 53 -33 89t-88 36zM1702 309q0 154 115.5 270.5 t275.5 116.5q150 0 244 -98t94 -236q0 -154 -115.5 -270.5t-275.5 -116.5q-150 0 -244 98.5t-94 235.5zM2079 475q-59 0 -102.5 -43t-43.5 -110q0 -53 33 -89t88 -36q59 0 102.5 43t43.5 110q0 53 -33 89t-88 36z" glyph-name="perthousand" horiz-adv-x="2516" unicode="‰"/><glyph d="M387 508l135 -283l-217 -133l-235 445l391 446l184 -162z" glyph-name="guilsinglleft" horiz-adv-x="677" unicode="‹"/><glyph d="M295 569l-135 283l217 133l235 -444l-391 -447l-184 162z" glyph-name="guilsinglright" horiz-adv-x="675" unicode="›"/><glyph d="M-270 0h-228l1155 1434h228z" glyph-name="fraction" horiz-adv-x="325" unicode="⁄"/><glyph d="M145 922q0 86 25 175t72 169t127 130t178 50q164 0 243.5 -98.5t79.5 -251.5q0 -86 -24.5 -175.5t-71.5 -169t-127 -130t-178 -50.5q-164 0 -244 98.5t-80 252.5zM543 1239q-78 0 -123 -103.5t-45 -209.5q0 -147 98 -148q78 0 123 103.5t45 210.5q0 147 -98 147z" glyph-name="uni2070" horiz-adv-x="843" unicode="⁰"/><glyph d="M649 584h-217l27 151h-371l29 164l284 535h250l-276 -496h119l34 190l228 64l-45 -254h98l-35 -203h-98z" glyph-name="uni2074" horiz-adv-x="784" unicode="⁴"/><glyph d="M276 1434h504l-37 -203h-288l-19 -111q145 -10 220 -81.5t75 -176.5q0 -123 -82 -207t-237 -84q-182 0 -336 113l131 160q115 -76 201 -76q98 0 98 78q0 94 -180 94h-138z" glyph-name="uni2075" horiz-adv-x="735" unicode="⁵"/><glyph d="M784 1434l-252 -271q109 -6 173.5 -75.5t64.5 -172.5q0 -139 -99.5 -241.5t-242.5 -102.5q-139 0 -222 86t-83 203q0 86 43 160t125 162l241 252h252zM459 1001q-53 0 -86 -36.5t-33 -92.5q0 -43 25.5 -71.5t70.5 -28.5t80 40t35 91q0 41 -25.5 69.5t-66.5 28.5z" glyph-name="uni2076" horiz-adv-x="755" unicode="⁶"/><glyph d="M176 1225l37 209h559l-31 -174l-389 -676h-260l385 641h-301z" glyph-name="uni2077" horiz-adv-x="659" unicode="⁷"/><glyph d="M786 836q0 -123 -94 -194t-233 -71q-152 0 -246 69t-94 177q0 78 46 142.5t124 91.5q-72 55 -72 143q0 109 87 180.5t214 71.5q133 0 219 -64.5t86 -164.5q0 -145 -135 -205q98 -67 98 -176zM450.5 752q49.5 0 82 26.5t32.5 75.5q0 39 -27.5 63.5t-74.5 24.5 q-49 0 -83 -27.5t-34 -74.5q0 -39 27.5 -63.5t77 -24.5zM512 1108q39 0 66.5 25.5t27.5 66.5q0 31 -21.5 51.5t-62.5 20.5q-39 0 -65.5 -24.5t-26.5 -65.5q0 -31 21.5 -52.5t60.5 -21.5z" glyph-name="uni2078" horiz-adv-x="798" unicode="⁸"/><glyph d="M143 584l252 270q-109 6 -173 75.5t-64 172.5q0 139 99 241.5t243 102.5q139 0 222 -86t83 -203q0 -86 -43 -159.5t-125 -161.5l-242 -252h-252zM469 1016q53 0 86 37t33 92q0 43 -25.5 71.5t-71 28.5t-80 -40t-34.5 -91q0 -41 25.5 -69.5t66.5 -28.5z" glyph-name="uni2079" horiz-adv-x="755" unicode="⁹"/><glyph d="M-27 -49q0 86 25 175t72 169t126.5 130t178.5 50q164 0 243.5 -98t79.5 -252q0 -86 -24.5 -175t-71.5 -169t-127 -130t-178 -50q-164 0 -244 98t-80 252zM371 268q-78 0 -123 -103.5t-45 -209.5q0 -147 98 -148q78 0 123 103.5t45 210.5q0 147 -98 147z" glyph-name="uni2080" horiz-adv-x="843" unicode="₀"/><glyph d="M43 -387l98 565l-161 -82l45 254l225 113h176l-152 -850h-231z" glyph-name="uni2081" horiz-adv-x="540" unicode="₁"/><glyph d="M549 -180l-35 -207h-598l31 168q258 172 360 282q80 80 80 146q0 29 -17.5 47t-47.5 18q-84 0 -101 -129h-217q10 98 48 168t90.5 103t99.5 46t94 13q127 0 204.5 -69.5t77.5 -176.5q0 -154 -161 -307q-57 -53 -123 -102h215z" glyph-name="uni2082" horiz-adv-x="749" unicode="₂"/><glyph d="M-90 -287l137 166q121 -78 195 -78q90 0 90 68q0 84 -176 84l30 166q45 -2 84 5t75 33.5t36 73.5q0 27 -18.5 43.5t-45.5 16.5q-76 0 -86 -86h-213q4 80 37 136t83 84t96.5 39t93.5 11q117 0 196.5 -63.5t79.5 -163.5q0 -158 -145 -221q100 -57 100 -164t-80 -184.5 t-235 -77.5q-184 -1 -334 112z" glyph-name="uni2083" horiz-adv-x="745" unicode="₃"/><glyph d="M479 -387h-217l27 151h-371l29 164l284 535h250l-276 -496h119l34 191l228 63l-45 -254h98l-35 -203h-98z" glyph-name="uni2084" horiz-adv-x="784" unicode="₄"/><glyph d="M106 463h504l-37 -203h-288l-19 -110q145 -10 220 -82t75 -177q0 -123 -82 -206.5t-237 -83.5q-182 0 -336 112l131 160q115 -76 201 -76q98 0 98 78q0 94 -180 94h-138z" glyph-name="uni2085" horiz-adv-x="735" unicode="₅"/><glyph d="M612 463l-252 -270q109 -6 173.5 -76t64.5 -172q0 -139 -99.5 -241.5t-242.5 -102.5q-139 0 -222 86t-83 202q0 86 43 160t125 162l241 252h252zM287 31q-53 0 -86 -37t-33 -92q0 -43 25.5 -72t70.5 -29t80 40t35 91q0 41 -25.5 70t-66.5 29z" glyph-name="uni2086" horiz-adv-x="755" unicode="₆"/><glyph d="M4 254l37 209h559l-31 -174l-389 -676h-260l385 641h-301z" glyph-name="uni2087" horiz-adv-x="659" unicode="₇"/><glyph d="M614 -135q0 -123 -94 -193.5t-233 -70.5q-152 0 -246 68.5t-94 176.5q0 78 46 142.5t124 91.5q-72 55 -72 143q0 109 87 180.5t214 71.5q133 0 219 -64.5t86 -164.5q0 -145 -135 -205q98 -67 98 -176zM278.5 -219q49.5 0 82 26.5t32.5 75.5q0 39 -27.5 63.5t-74.5 24.5 q-49 0 -83 -27.5t-34 -74.5q0 -39 27.5 -63.5t77 -24.5zM340 137q39 0 66.5 25.5t27.5 66.5q0 31 -21.5 51.5t-62.5 20.5q-39 0 -65.5 -24.5t-26.5 -65.5q0 -31 21.5 -52.5t60.5 -21.5z" glyph-name="uni2088" horiz-adv-x="798" unicode="₈"/><glyph d="M-29 -387l252 270q-109 6 -173 76t-64 172q0 139 99 241.5t243 102.5q139 0 222 -86t83 -203q0 -86 -43 -159.5t-125 -161.5l-242 -252h-252zM297 45q53 0 86 37t33 92q0 43 -25.5 71.5t-71 28.5t-80 -39.5t-34.5 -91.5q0 -41 25.5 -69.5t66.5 -28.5z" glyph-name="uni2089" horiz-adv-x="755" unicode="₉"/><glyph d="M139 717l41 235l176 52l76 430h316l-60 -334l469 139l-41 -233l-469 -140l-14 -78l469 140l-41 -236l-469 -137l-49 -276h121q115 0 176 66.5t100 199.5l301 -56q-82 -270 -214 -379.5t-388 -109.5h-459l80 457l-176 -51l41 233l176 51l12 78z" glyph-name="lira" horiz-adv-x="1312" unicode="₤"/><glyph d="M700 0h-354v422h-266l43 244h223v96h-207l43 242h164l2 430h307l-24 -938l307 938h315l-28 -920l299 920h321l-151 -430h168l-43 -242h-209l-35 -96h225l-43 -244h-266l-148 -422h-354l19 909z" glyph-name="uni20A9" horiz-adv-x="1873" unicode="₩"/><glyph d="M1153 342l152 -219q-197 -145 -422 -146q-240 0 -404 132.5t-217 345.5h-190l34 198h136q0 49 10 117h-125l37 199h145q96 227 286.5 357t414.5 130q309 0 491 -223l-223 -186q-104 129 -281 129q-219 0 -352 -207h606l-92 -199h-592q-12 -51 -14 -117h561l-92 -198h-430 q88 -197 309 -197q135 0 252 84z" glyph-name="Euro" horiz-adv-x="1452" unicode="€"/><glyph d="M201 860l37 205h362q-41 129 -221 129h-119l43 240h907l-92 -203h-266q53 -74 68 -166h225l-92 -205h-140q-33 -162 -130 -268.5t-242 -147.5l299 -444h-365l-338 500l37 200h150q203 0 262 160h-385z" glyph-name="uni20B9" horiz-adv-x="1122" unicode="₹"/><glyph d="M53 209l41 229h111l14 76h-113l48 264h110l117 656h440q240 0 358.5 -115t118.5 -291q0 -217 -139 -365.5t-375 -148.5h-264l-14 -76h332l-41 -229h-330l-37 -209h-301l37 209h-113zM567 778h193q106 0 166.5 64.5t60.5 163.5q0 72 -49 117.5t-143 45.5h-160z" glyph-name="uni20BD" horiz-adv-x="1288" unicode="₽"/><glyph d="M141 322l-88 206l207 107l90 506q37 211 147.5 312t260.5 101q139 0 227 -80.5t88 -222.5q0 -369 -526 -710l-25 -146q-4 -18 -4 -49q0 -102 80 -102q68 0 160 121l180 -164q-170 -223 -383 -224q-168 0 -253 101.5t-85 259.5v20zM659 1176l-55 -316q238 205 238 369 q0 86 -78 86q-82 0 -105 -139z" glyph-name="afii61289" horiz-adv-x="1028" unicode="ℓ"/><glyph d="M1624 377l37 209h657l-37 -209h-657zM385 0h-313l252 1434h319l498 -965l170 965h313l-252 -1434h-317l-500 963zM1686 1018q0 164 117.5 290t291.5 126q168 0 264.5 -98.5t96.5 -243.5q0 -164 -118 -290t-292 -126q-168 0 -264 98.5t-96 243.5zM2085 1225 q-72 0 -119 -59.5t-47 -141.5q0 -61 36 -100t101 -39q72 0 119 59.5t47 140.5q0 61 -35.5 100.5t-101.5 39.5z" glyph-name="afii61352" horiz-adv-x="2437" unicode="№"/><glyph d="M1389 874h-175l50 285l-156 -221h-86l-74 242l-53 -306h-174l98 560h185l90 -291l206 291h187zM197 1266l28 168h525l-29 -168h-176l-68 -392h-174l70 392h-176z" glyph-name="trademark" horiz-adv-x="1468" unicode="™"/><glyph d="M1507 694h-1124l-74 -420q164 -229 455 -229q160 0 317.5 84t284.5 266l55 -39q-135 -195 -308 -287t-349 -92q-281 0 -460 199t-179 471q0 322 231.5 565.5t532.5 243.5q281 0 452.5 -194.5t171.5 -466.5q0 -52 -6 -101zM891 1389q-219 0 -412 -154l-84 -473h862l72 405 q-155 222 -438 222z" glyph-name="estimated" horiz-adv-x="1548" unicode="℮"/><glyph d="M356 0h-227l1155 1434h227zM231 584l99 565l-162 -82l45 254l225 113h176l-151 -850h-232zM1632 254q0 -123 -94 -193.5t-233 -70.5q-152 0 -246 68.5t-94 177.5q0 78 46 142t124 91q-72 55 -72 143q0 109 87 180.5t214 71.5q133 0 219 -64.5t86 -164.5q0 -145 -135 -205 q98 -67 98 -176zM1296.5 170q49.5 0 82 26.5t32.5 75.5q0 39 -27.5 63.5t-74.5 24.5q-49 0 -83 -27.5t-34 -74.5q0 -39 27.5 -63.5t77 -24.5zM1358 526q39 0 66.5 26t27.5 66q0 31 -21.5 51.5t-62.5 20.5q-39 0 -65.5 -24.5t-26.5 -65.5q0 -31 21.5 -52.5t60.5 -21.5z" glyph-name="oneeighth" horiz-adv-x="1751" unicode="⅛"/><glyph d="M539 0h-228l1155 1434h228zM1815 254q0 -123 -94.5 -193.5t-233.5 -70.5q-152 0 -246 68.5t-94 177.5q0 78 46 142t124 91q-72 55 -72 143q0 109 87 180.5t214 71.5q133 0 219 -64.5t86 -164.5q0 -145 -135 -205q99 -67 99 -176zM1479 170q49 0 81.5 26.5t32.5 75.5 q0 39 -27.5 63.5t-74.5 24.5q-49 0 -83 -27.5t-34 -74.5q0 -39 28 -63.5t77 -24.5zM1540 526q39 0 66.5 26t27.5 66q0 31 -21.5 51.5t-62.5 20.5q-39 0 -65.5 -24.5t-26.5 -65.5q0 -31 21.5 -52.5t60.5 -21.5zM96 684l137 166q121 -78 195 -78q90 0 90 68q0 84 -176 84 l31 166q45 -2 84 5t74.5 33.5t35.5 73.5q0 27 -18.5 43.5t-44.5 16.5q-76 0 -86 -86h-213q4 80 36.5 136t83 83.5t96.5 39t93 11.5q117 0 197 -63.5t80 -163.5q0 -158 -146 -222q100 -57 100 -163.5t-79.5 -184.5t-235.5 -78q-184 0 -334 113z" glyph-name="threeeighths" horiz-adv-x="1933" unicode="⅜"/><glyph d="M514 0h-227l1155 1434h227zM295 1434h504l-37 -203h-289l-18 -111q145 -10 220 -81.5t75 -176.5q0 -123 -82 -207t-238 -84q-182 0 -336 113l131 160q115 -76 201 -76q98 0 98 78q0 94 -180 94h-137zM1790 254q0 -123 -94 -193.5t-234 -70.5q-152 0 -246 68.5t-94 177.5 q0 78 46 142t124 91q-72 55 -71 143q0 109 87 180.5t214 71.5q133 0 219 -64.5t86 -164.5q0 -145 -135 -205q98 -67 98 -176zM1454 170q49 0 82 26.5t33 75.5q0 39 -28 63.5t-75 24.5q-49 0 -82.5 -27.5t-33.5 -74.5q0 -39 27.5 -63.5t76.5 -24.5zM1515.5 526 q38.5 0 66.5 26t28 66q0 31 -21.5 51.5t-62.5 20.5q-39 0 -65.5 -24.5t-26.5 -65.5q0 -31 21.5 -52.5t60 -21.5z" glyph-name="fiveeighths" horiz-adv-x="1910" unicode="⅝"/><glyph d="M334 0h-228l1156 1434h227zM1612 254q0 -123 -94.5 -193.5t-233.5 -70.5q-152 0 -246 68.5t-94 177.5q0 78 46 142t124 91q-72 55 -72 143q0 109 87.5 180.5t213.5 71.5q133 0 219.5 -64.5t86.5 -164.5q0 -145 -136 -205q99 -67 99 -176zM1276 170q49 0 82 26.5t33 75.5 q0 39 -28 63.5t-75 24.5q-49 0 -83 -27.5t-34 -74.5q0 -39 28 -63.5t77 -24.5zM1337 526q39 0 67 26t28 66q0 31 -21.5 51.5t-62.5 20.5q-39 0 -66 -24.5t-27 -65.5q0 -31 21.5 -52.5t60.5 -21.5zM201 1225l37 209h559l-31 -174l-389 -676h-260l385 641h-301z" glyph-name="seveneighths" horiz-adv-x="1730" unicode="⅞"/><glyph d="M784 115l-194 -164l-516 639l741 639l166 -193l-363 -313h715l-47 -264h-780z" glyph-name="arrowleft" horiz-adv-x="1380" unicode="←"/><glyph d="M225 422l-162 201l740 639l516 -639l-195 -168l-270 336l-139 -791h-264l129 727z" glyph-name="arrowup" horiz-adv-x="1347" unicode="↑"/><glyph d="M618 1067l195 162l516 -639l-741 -639l-166 194l362 314h-714l47 264h778z" glyph-name="arrowright" horiz-adv-x="1378" unicode="→"/><glyph d="M1155 815l160 -201l-737 -639l-517 639l195 168l270 -338l140 793h264l-129 -729z" glyph-name="arrowdown" horiz-adv-x="1345" unicode="↓"/><glyph d="M315 90h-258l168 957h930l-45 -259h-512l485 -608l-202 -166l-475 594z" glyph-name="uni2196" horiz-adv-x="1236" unicode="↖"/><glyph d="M217 788l45 259h932l-168 -957h-256l86 488l-647 -564l-172 199l661 575h-481z" glyph-name="uni2197" horiz-adv-x="1236" unicode="↗"/><glyph d="M922 956h258l-168 -956h-930l45 258h512l-485 608l202 166l473 -594z" glyph-name="uni2198" horiz-adv-x="1236" unicode="↘"/><glyph d="M1026 1032l172 -201l-659 -573h479l-45 -258h-932l168 956h256l-86 -489z" glyph-name="uni2199" horiz-adv-x="1234" unicode="↙"/><glyph d="M485 1325l242 180q406 -444 406 -878q0 -283 -165 -466.5t-407 -183.5q-221 0 -354 136.5t-133 332.5q0 221 146.5 377t348.5 156q115 0 205 -53q-72 159 -289 399zM616 731q-106 0 -173.5 -82t-67.5 -188q0 -88 54 -148.5t144 -60.5q106 0 176 86t70 190 q0 86 -56.5 144.5t-146.5 58.5z" glyph-name="partialdiff" horiz-adv-x="1208" unicode="∂"/><glyph d="M1014 1434l233 -1434h-1288l735 1434h320zM799 1042l-375 -768h483z" glyph-name="uni2206" horiz-adv-x="1386" unicode="∆"/><glyph d="M1577 1434l-51 -291h-160l-201 -1143h-307l201 1143h-402l-202 -1143h-305l200 1143h-160l52 291h1335z" glyph-name="product" horiz-adv-x="1497" unicode="∏"/><glyph d="M-49 -238l43 244l627 596l-418 588l43 244h1097l-49 -281h-702l412 -582l-560 -530h654l-49 -279h-1098z" glyph-name="summation" horiz-adv-x="1267" unicode="∑"/><glyph d="M952 803l-47 -264h-770l47 264h770z" glyph-name="minus" horiz-adv-x="1038" unicode="−"/><glyph d="M453 674l69 -539l731 1299h342l-968 -1672h-332l-96 633h-193l49 279h398z" glyph-name="radical" horiz-adv-x="1415" unicode="√"/><glyph d="M1313 1049q160 0 253 -98.5t93 -241.5q0 -168 -116 -291t-300 -123q-190 0 -366 211q-221 -211 -414 -211q-160 0 -253 98.5t-93 241.5q0 168 115.5 291t299.5 123q190 0 367 -211q221 211 414 211zM1260 532q66 0 110.5 45.5t44.5 108.5q0 51 -33.5 88t-91.5 37 q-100 0 -248 -145q107 -134 218 -134zM516 811q-66 0 -111 -45t-45 -109q0 -51 34 -88t91 -37q100 0 248 146q-106 133 -217 133z" glyph-name="infinity" horiz-adv-x="1726" unicode="∞"/><glyph d="M-164 -371l96 224q76 -31 140 -31q51 0 86 29.5t49 113.5l196 1106q68 385 396 385q154 0 301 -78l-101 -219q-84 39 -157 39q-51 0 -86 -29.5t-49 -113.5l-197 -1106q-68 -387 -395 -387q-136 -1 -279 67z" glyph-name="integral" horiz-adv-x="935" unicode="∫"/><glyph d="M344 686l-186 102q123 258 305 259q66 0 149.5 -45.5t104.5 -45.5q51 0 110 105l187 -105q-125 -258 -305 -258q-66 0 -150 46.5t-104 46.5q-52 -1 -111 -105zM272 285l-186 102q127 258 305 258q68 0 152 -45t104 -45q49 0 111 104l186 -104q-127 -258 -305 -258 q-68 0 -152 45t-104 45q-54 0 -111 -102z" glyph-name="approxequal" horiz-adv-x="1046" unicode="≈"/><glyph d="M178 766l45 258h451l139 211l172 -102l-72 -109h113l-45 -258h-238l-122 -186h327l-45 -258h-452l-138 -211l-170 102l70 109h-113l45 258h238l121 186h-326z" glyph-name="notequal" horiz-adv-x="1077" unicode="≠"/><glyph d="M164 731l51 289l858 334l-51 -305l-520 -181l454 -186l-51 -285zM893 328l-45 -262h-801l45 262h801z" glyph-name="lessequal" horiz-adv-x="1073" unicode="≤"/><glyph d="M1034 1020l-49 -289l-860 -334l53 305l518 181l-452 186l49 285zM913 328l-47 -262h-800l47 262h800z" glyph-name="greaterequal" horiz-adv-x="1067" unicode="≥"/><glyph d="M123 653q0 326 239.5 564.5t559.5 238.5q305 0 491 -198.5t186 -477.5q0 -326 -239.5 -564.5t-558.5 -238.5q-305 0 -491.5 198.5t-186.5 477.5zM909 1249q-227 0 -395 -175t-168 -410q0 -199 128 -339.5t339 -140.5q229 0 396 175.5t167 412.5q0 199 -127 338t-340 139z M690 778l33 183l195 92h135l-119 -672h-174l82 469z" glyph-name="uni2460" horiz-adv-x="1654" unicode="①"/><glyph d="M123 653q0 326 239.5 564.5t559.5 238.5q305 0 491 -198.5t186 -477.5q0 -326 -239.5 -564.5t-558.5 -238.5q-305 0 -491.5 198.5t-186.5 477.5zM909 1249q-227 0 -395 -175t-168 -410q0 -199 128 -339.5t339 -140.5q229 0 396 175.5t167 412.5q0 199 -127 338t-340 139z M1106 571l-29 -163h-508l25 135q383 217 383 329q0 63 -70 64q-74 0 -90 -109h-174q14 137 95 202t182 65q104 0 170.5 -59.5t66.5 -147.5q0 -168 -233 -316h182z" glyph-name="uni2461" horiz-adv-x="1654" unicode="②"/><glyph d="M123 653q0 326 239.5 564.5t559.5 238.5q305 0 491 -198.5t186 -477.5q0 -326 -239.5 -564.5t-558.5 -238.5q-305 0 -491.5 198.5t-186.5 477.5zM909 1249q-227 0 -395 -175t-168 -410q0 -199 128 -339.5t339 -140.5q229 0 396 175.5t167 412.5q0 199 -127 338t-340 139z M569 477l109 135q100 -61 168 -61q82 0 82 47q0 29 -39 48.5t-117 19.5l25 135q166 0 166 80q0 23 -17.5 37t-46.5 14q-68 0 -78 -68h-168q6 84 53.5 136.5t96.5 68.5t100 16q102 0 170 -53t68 -133q0 -125 -117 -174q86 -47 86 -135q0 -94 -74.5 -149.5t-189.5 -55.5 q-146 0 -277 92z" glyph-name="uni2462" horiz-adv-x="1654" unicode="③"/><glyph d="M123 653q0 326 239.5 564.5t559.5 238.5q305 0 491 -198.5t186 -477.5q0 -326 -239.5 -564.5t-558.5 -238.5q-305 0 -491.5 198.5t-186.5 477.5zM909 1249q-227 0 -395 -175t-168 -410q0 -199 128 -339.5t339 -140.5q229 0 396 175.5t167 412.5q0 199 -127 338t-340 139z M1018 399h-176l20 121h-313l22 131l244 420h199l-234 -389h111l24 137l185 53l-33 -190h92l-29 -162h-92z" glyph-name="uni2463" horiz-adv-x="1654" unicode="④"/><glyph d="M123 653q0 326 239.5 564.5t559.5 238.5q305 0 491 -198.5t186 -477.5q0 -326 -239.5 -564.5t-558.5 -238.5q-305 0 -491.5 198.5t-186.5 477.5zM909 1249q-227 0 -395 -175t-168 -410q0 -199 128 -339.5t339 -140.5q229 0 396 175.5t167 412.5q0 199 -127 338t-340 139z M731 1053h418l-29 -162h-248l-14 -84q127 -8 189.5 -65.5t62.5 -141.5q0 -90 -64.5 -161.5t-201.5 -71.5q-145 0 -277 92l109 135q96 -61 166 -62q80 0 80 60q0 68 -150 67h-110z" glyph-name="uni2464" horiz-adv-x="1654" unicode="⑤"/><glyph d="M123 653q0 326 239.5 564.5t559.5 238.5q305 0 491 -198.5t186 -477.5q0 -326 -239.5 -564.5t-558.5 -238.5q-305 0 -491.5 198.5t-186.5 477.5zM909 1249q-227 0 -395 -175t-168 -410q0 -199 128 -339.5t339 -140.5q229 0 396 175.5t167 412.5q0 199 -127 338t-340 139z M1122 1067l-200 -201q88 -10 141 -69.5t53 -139.5q0 -115 -82 -195.5t-200 -80.5q-113 0 -183.5 69.5t-70.5 165.5q0 117 129 242l209 209h204zM856 733q-53 0 -82 -31.5t-29 -70.5q0 -37 27 -63.5t68 -26.5q53 0 80.5 33.5t27.5 68.5q0 37 -25.5 63.5t-66.5 26.5z" glyph-name="uni2465" horiz-adv-x="1654" unicode="⑥"/><glyph d="M123 653q0 326 239.5 564.5t559.5 238.5q305 0 491 -198.5t186 -477.5q0 -326 -239.5 -564.5t-558.5 -238.5q-305 0 -491.5 198.5t-186.5 477.5zM909 1249q-227 0 -395 -175t-168 -410q0 -199 128 -339.5t339 -140.5q229 0 396 175.5t167 412.5q0 199 -127 338t-340 139z M690 879l29 165h479l-24 -141l-338 -530h-207l332 506h-271z" glyph-name="uni2466" horiz-adv-x="1654" unicode="⑦"/><glyph d="M123 653q0 326 239.5 564.5t559.5 238.5q305 0 491 -198.5t186 -477.5q0 -326 -239.5 -564.5t-558.5 -238.5q-305 0 -491.5 198.5t-186.5 477.5zM909 1249q-227 0 -395 -175t-168 -410q0 -199 128 -339.5t339 -140.5q229 0 396 175.5t167 412.5q0 199 -127 338t-340 139z M1126 600q0 -102 -78.5 -163.5t-195.5 -61.5q-123 0 -200 57t-77 148q0 129 123 182q-45 39 -45 106q0 92 72 149.5t176 57.5q111 0 179.5 -51t68.5 -133q0 -109 -90 -162q67 -51 67 -129zM852 520q41 0 70.5 23.5t29.5 58.5q0 31 -25.5 53.5t-70.5 22.5q-43 0 -72.5 -22.5 t-29.5 -57.5q0 -31 24.5 -54.5t73.5 -23.5zM901 807q35 0 58.5 19.5t23.5 45.5q0 63 -82 64q-37 0 -60.5 -19.5t-23.5 -48.5q0 -25 21.5 -43t62.5 -18z" glyph-name="uni2467" horiz-adv-x="1654" unicode="⑧"/><glyph d="M123 653q0 326 239.5 564.5t559.5 238.5q305 0 491 -198.5t186 -477.5q0 -326 -239.5 -564.5t-558.5 -238.5q-305 0 -491.5 198.5t-186.5 477.5zM909 1249q-227 0 -395 -175t-168 -410q0 -199 128 -339.5t339 -140.5q229 0 396 175.5t167 412.5q0 199 -127 338t-340 139z M627 381l200 201q-88 10 -141 69.5t-53 139.5q0 115 82 195.5t200 80.5q113 0 183.5 -69.5t70.5 -166.5q0 -117 -129 -241l-209 -209h-204zM893 715q53 0 82 31.5t29 70.5q0 37 -27 63.5t-68 26.5q-53 0 -80.5 -33.5t-27.5 -68.5q0 -37 25.5 -63.5t66.5 -26.5z" glyph-name="uni2468" horiz-adv-x="1654" unicode="⑨"/><glyph d="M123 653q0 326 239.5 564.5t559.5 238.5q305 0 491 -198.5t186 -477.5q0 -326 -239.5 -564.5t-558.5 -238.5q-305 0 -491.5 198.5t-186.5 477.5zM909 1249q-227 0 -395 -175t-168 -410q0 -199 128 -339.5t339 -140.5q229 0 396 175.5t167 412.5q0 199 -127 338t-340 139z M571 651q0 168 88.5 292t237.5 124q139 0 206.5 -80t67.5 -205q0 -168 -88 -291.5t-237 -123.5q-139 0 -207 79.5t-68 204.5zM893 903q-76 0 -113 -84t-37 -162q0 -127 105 -127q53 0 90 48.5t49 100.5t12 97q0 127 -106 127z" glyph-name="uni24EA" horiz-adv-x="1654" unicode="⓪"/><glyph d="M123 653q0 326 239.5 564.5t559.5 238.5q305 0 491 -198.5t186 -477.5q0 -326 -239.5 -564.5t-558.5 -238.5q-305 0 -491.5 198.5t-186.5 477.5zM571 651q0 -125 68 -204.5t207 -79.5q150 0 237.5 123.5t87.5 291.5q0 125 -67.5 205t-206.5 80q-150 0 -238 -124t-88 -292 zM893 903q106 0 106 -127q0 -45 -12 -97t-49 -100.5t-90 -48.5q-104 0 -105 127q0 78 37 162t113 84z" glyph-name="uni24FF" horiz-adv-x="1654" unicode="⓿"/><glyph d="M1124 717l-647 -740l-387 740l649 739zM530 406l304 346l-150 276l-301 -346z" glyph-name="lozenge" horiz-adv-x="1148" unicode="◊"/><glyph d="M123 653q0 326 239.5 564.5t559.5 238.5q305 0 491 -198.5t186 -477.5q0 -326 -239.5 -564.5t-558.5 -238.5q-305 0 -491.5 198.5t-186.5 477.5zM909 1249q-227 0 -395 -175t-168 -410q0 -199 128 -339.5t339 -140.5q229 0 396 175.5t167 412.5q0 199 -127 338t-340 139z " glyph-name="circle" horiz-adv-x="1654" unicode="○"/><glyph d="M123 653q0 326 239.5 564.5t559.5 238.5q305 0 491 -198.5t186 -477.5q0 -326 -239.5 -564.5t-558.5 -238.5q-305 0 -491.5 198.5t-186.5 477.5z" glyph-name="H18533" horiz-adv-x="1654" unicode="●"/><glyph d="M123 653q0 326 239.5 564.5t559.5 238.5q305 0 491 -198.5t186 -477.5q0 -326 -239.5 -564.5t-558.5 -238.5q-305 0 -491.5 198.5t-186.5 477.5zM723 961l-33 -183l152 72l-82 -469h174l119 672h-135z" glyph-name="uni2776" horiz-adv-x="1654" unicode="❶"/><glyph d="M123 653q0 326 239.5 564.5t559.5 238.5q305 0 491 -198.5t186 -477.5q0 -326 -239.5 -564.5t-558.5 -238.5q-305 0 -491.5 198.5t-186.5 477.5zM1077 408l29 163h-182q233 147 233 316q0 88 -66.5 147.5t-170.5 59.5q-100 0 -181.5 -64.5t-95.5 -202.5h174 q16 109 90 109q70 0 70 -64q0 -113 -383 -329l-25 -135h508z" glyph-name="uni2777" horiz-adv-x="1654" unicode="❷"/><glyph d="M123 653q0 326 239.5 564.5t559.5 238.5q305 0 491 -198.5t186 -477.5q0 -326 -239.5 -564.5t-558.5 -238.5q-305 0 -491.5 198.5t-186.5 477.5zM842 399h176l20 121h92l29 162h-92l33 190l-185 -53l-24 -137h-111l234 389h-199l-244 -420l-22 -131h313z" glyph-name="uni2779" horiz-adv-x="1654" unicode="❹"/><glyph d="M123 653q0 326 239.5 564.5t559.5 238.5q305 0 491 -198.5t186 -477.5q0 -326 -239.5 -564.5t-558.5 -238.5q-305 0 -491.5 198.5t-186.5 477.5zM1149 1053h-418l-69 -394h110q150 0 150 -67q0 -59 -80 -60q-70 0 -166 62l-109 -135q131 -92 277 -92q137 0 201.5 71.5 t64.5 161.5q0 84 -62.5 141.5t-189.5 65.5l14 84h248z" glyph-name="uni2780" horiz-adv-x="1654" unicode="➀"/><glyph d="M123 653q0 326 239.5 564.5t559.5 238.5q305 0 491 -198.5t186 -477.5q0 -326 -239.5 -564.5t-558.5 -238.5q-305 0 -491.5 198.5t-186.5 477.5zM922 866l200 201h-204l-209 -209q-129 -125 -129 -242q0 -96 70.5 -165.5t183.5 -69.5q119 0 200.5 81t81.5 195 q0 80 -53 139.5t-141 69.5zM856 733q41 0 66.5 -26.5t25.5 -63.5q0 -35 -27.5 -68.5t-80.5 -33.5q-41 0 -68 26.5t-27 63.5q0 39 29 70.5t82 31.5z" glyph-name="uni2781" horiz-adv-x="1654" unicode="➁"/><glyph d="M123 653q0 326 239.5 564.5t559.5 238.5q305 0 491 -198.5t186 -477.5q0 -326 -239.5 -564.5t-558.5 -238.5q-305 0 -491.5 198.5t-186.5 477.5zM719 1044l-29 -165h271l-332 -506h207l338 530l24 141h-479z" glyph-name="uni2782" horiz-adv-x="1654" unicode="➂"/><glyph d="M123 653q0 326 239.5 564.5t559.5 238.5q305 0 491 -198.5t186 -477.5q0 -326 -239.5 -564.5t-558.5 -238.5q-305 0 -491.5 198.5t-186.5 477.5zM1126 600q0 78 -67 129q90 53 90 162q0 82 -68.5 133t-179.5 51q-104 0 -176 -57t-72 -150q0 -68 45 -106 q-123 -53 -123 -182q0 -90 77 -147.5t200 -57.5q117 0 195.5 61.5t78.5 163.5zM852 520q-49 0 -73.5 23.5t-24.5 54.5q0 35 29.5 57.5t72.5 22.5q45 0 70.5 -22.5t25.5 -53.5q0 -35 -29.5 -58.5t-70.5 -23.5zM901 807q-41 0 -62.5 18.5t-21.5 42.5q0 29 23.5 48.5t60.5 19.5 q82 0 82 -64q0 -27 -23.5 -46t-58.5 -19z" glyph-name="uni2783" horiz-adv-x="1654" unicode="➃"/><glyph d="M123 653q0 326 239.5 564.5t559.5 238.5q305 0 491 -198.5t186 -477.5q0 -326 -239.5 -564.5t-558.5 -238.5q-305 0 -491.5 198.5t-186.5 477.5zM827 582l-200 -201h204l209 209q129 125 129 241q0 96 -70.5 166t-183.5 70q-119 0 -200.5 -81t-81.5 -195q0 -80 53 -139.5 t141 -69.5zM893 715q-41 0 -66.5 26.5t-25.5 63.5q0 35 27.5 68.5t80.5 33.5q41 0 68 -26.5t27 -63.5q0 -39 -29 -70.5t-82 -31.5z" glyph-name="uni2784" horiz-adv-x="1654" unicode="➄"/><glyph d="M123 653q0 326 239.5 564.5t559.5 238.5q305 0 491 -198.5t186 -477.5q0 -326 -239.5 -564.5t-558.5 -238.5q-305 0 -491.5 198.5t-186.5 477.5zM678 612l-109 -135q131 -92 277 -92q115 0 189.5 55.5t74.5 149.5q0 88 -86 135q117 49 117 174q0 80 -67.5 133t-170.5 53 q-51 0 -100 -16t-96.5 -68.5t-53.5 -136.5h168q10 68 78 68q29 0 46.5 -14.5t17.5 -36.5q0 -80 -166 -80l-25 -135q78 0 117 -19.5t39 -48.5q0 -47 -82 -47q-68 0 -168 61z" glyph-name="uni2786" horiz-adv-x="1654" unicode="➆"/><glyph d="M541 1434q145 0 221 -97l14 80h225l-129 -727h-225l8 47q-84 -61 -180 -61q-147 0 -227 91t-80 230q0 178 107.5 307.5t265.5 129.5zM539 868q76 0 127 64.5t51 148.5q0 68 -37 113t-102 45q-76 0 -127.5 -65.5t-51.5 -147.5q0 -68 38.5 -113t101.5 -45z" glyph-name="uniE001" horiz-adv-x="978" unicode=""/><glyph d="M764 0l20 115q-119 -137 -295 -138q-193 0 -302 132.5t-109 332.5q0 150 57.5 290t178 238.5t280.5 98.5q236 0 328 -174l26 152h307l-184 -1047h-307zM598 252q117 0 193.5 93t76.5 220q0 100 -55 165t-156 65q-117 0 -192.5 -94.5t-75.5 -223.5q0 -98 54.5 -161.5 t154.5 -63.5z" glyph-name="uniE020" unicode=""/><glyph d="M104 457l148 839l326 105l-62 -354h318l-48 -269h-317l-66 -368q-6 -31 -6 -56q0 -102 109 -102q59 0 149 37l62 -250q-143 -61 -275 -62q-354 0 -354 334q0 60 16 146z" glyph-name="uniE021" horiz-adv-x="815" unicode=""/><glyph d="M1513 -76l-170 -250l-563 353l166 227zM121 639q0 338 229.5 577.5t562.5 239.5q311 0 494.5 -190.5t183.5 -470.5q0 -338 -229 -578t-563 -240q-313 0 -495.5 190.5t-182.5 471.5zM895 1157q-188 0 -318.5 -148.5t-130.5 -346.5q0 -164 100.5 -275t270.5 -111 q188 0 318.5 148.5t130.5 347.5q0 164 -100.5 274.5t-270.5 110.5z" glyph-name="uniE022" horiz-adv-x="1644" unicode=""/><glyph d="M764 0l20 115q-119 -137 -295 -138q-193 0 -302 132.5t-109 332.5q0 150 57.5 290t178 238.5t280.5 98.5q236 0 328 -174l26 152h307l-184 -1047h-307zM598 252q117 0 193.5 93t76.5 220q0 100 -55 165t-156 65q-117 0 -192.5 -94.5t-75.5 -223.5q0 -98 54.5 -161.5 t154.5 -63.5zM956 1200l-225 -67l-223 321l246 156z" glyph-name="uniE030" unicode=""/><glyph d="M764 0l20 115q-119 -137 -295 -138q-193 0 -302 132.5t-109 332.5q0 150 57.5 290t178 238.5t280.5 98.5q236 0 328 -174l26 152h307l-184 -1047h-307zM598 252q117 0 193.5 93t76.5 220q0 100 -55 165t-156 65q-117 0 -192.5 -94.5t-75.5 -223.5q0 -98 54.5 -161.5 t154.5 -63.5zM791 1130l-197 105l340 375l188 -195z" glyph-name="uniE031" unicode=""/><glyph d="M764 0l20 115q-119 -137 -295 -138q-193 0 -302 132.5t-109 332.5q0 150 57.5 290t178 238.5t280.5 98.5q236 0 328 -174l26 152h307l-184 -1047h-307zM598 252q117 0 193.5 93t76.5 220q0 100 -55 165t-156 65q-117 0 -192.5 -94.5t-75.5 -223.5q0 -98 54.5 -161.5 t154.5 -63.5zM811 1276l-221 -139l-131 172l375 239l303 -241l-148 -170z" glyph-name="uniE032" unicode=""/><glyph d="M764 0l20 115q-119 -137 -295 -138q-193 0 -302 132.5t-109 332.5q0 150 57.5 290t178 238.5t280.5 98.5q236 0 328 -174l26 152h307l-184 -1047h-307zM598 252q117 0 193.5 93t76.5 220q0 100 -55 165t-156 65q-117 0 -192.5 -94.5t-75.5 -223.5q0 -98 54.5 -161.5 t154.5 -63.5zM623 1186h-224q16 160 90 257t197 97q106 0 174 -94q8 -12 21.5 -34.5t21.5 -32t19 -9.5q29 0 47 135h223q-16 -160 -90 -258t-195 -98q-100 0 -174 96q-10 12 -22.5 33.5t-20.5 32t-18 10.5q-31 0 -49 -135z" glyph-name="uniE033" unicode=""/><glyph d="M764 0l20 115q-119 -137 -295 -138q-193 0 -302 132.5t-109 332.5q0 150 57.5 290t178 238.5t280.5 98.5q236 0 328 -174l26 152h307l-184 -1047h-307zM598 252q117 0 193.5 93t76.5 220q0 100 -55 165t-156 65q-117 0 -192.5 -94.5t-75.5 -223.5q0 -98 54.5 -161.5 t154.5 -63.5zM432 1305q0 70 52.5 119t123.5 49q63 0 105.5 -43.5t42.5 -104.5q0 -68 -53.5 -118t-122.5 -50q-63 0 -105.5 43.5t-42.5 104.5zM823 1305q0 70 52.5 119t123.5 49q63 0 105.5 -43.5t42.5 -104.5q0 -70 -52.5 -119t-123.5 -49q-63 0 -105.5 43.5t-42.5 104.5z " glyph-name="uniE034" unicode=""/><glyph d="M764 0l20 115q-119 -137 -295 -138q-193 0 -302 132.5t-109 332.5q0 150 57.5 290t178 238.5t280.5 98.5q236 0 328 -174l26 152h307l-184 -1047h-307zM598 252q117 0 193.5 93t76.5 220q0 100 -55 165t-156 65q-117 0 -192.5 -94.5t-75.5 -223.5q0 -98 54.5 -161.5 t154.5 -63.5zM547 1360q0 115 83 197.5t193 82.5q106 0 173 -68.5t67 -164.5q0 -115 -83 -198t-194 -83q-106 0 -172.5 69t-66.5 165zM811 1473q-35 0 -63.5 -29t-28.5 -68q0 -35 21.5 -58.5t58.5 -23.5q35 0 63.5 29t28.5 68q0 35 -21.5 58.5t-58.5 23.5z" glyph-name="uniE035" unicode=""/><glyph d="M764 0l20 115q-119 -137 -295 -138q-193 0 -302 132.5t-109 332.5q0 150 57.5 290t178 238.5t280.5 98.5q236 0 328 -174l26 152h307l-184 -1047h-307zM598 252q117 0 193.5 93t76.5 220q0 100 -55 165t-156 65q-117 0 -192.5 -94.5t-75.5 -223.5q0 -98 54.5 -161.5 t154.5 -63.5zM1110 1436l-43 -240h-588l43 240h588z" glyph-name="uniE036" unicode=""/><glyph d="M764 0l20 115q-119 -137 -295 -138q-193 0 -302 132.5t-109 332.5q0 150 57.5 290t178 238.5t280.5 98.5q236 0 328 -174l26 152h307l-184 -1047h-307zM598 252q117 0 193.5 93t76.5 220q0 100 -55 165t-156 65q-117 0 -192.5 -94.5t-75.5 -223.5q0 -98 54.5 -161.5 t154.5 -63.5zM950 1505l201 -75q-129 -279 -365 -279q-129 0 -210.5 79t-104.5 200l213 75q27 -129 117 -129q83 0 149 129z" glyph-name="uniE037" unicode=""/><glyph d="M764 0l20 115q-119 -137 -295 -138q-193 0 -302 132.5t-109 332.5q0 150 57.5 290t178 238.5t280.5 98.5q236 0 328 -174l26 152h307l-184 -1047q-209 -162 -209 -256q0 -53 68 -53q20 0 43 6l8 -215q-41 -8 -82 -8q-121 0 -188.5 53t-67.5 143q0 174 240 330h-119z M598 252q117 0 193.5 93t76.5 220q0 100 -55 165t-156 65q-117 0 -192.5 -94.5t-75.5 -223.5q0 -98 54.5 -161.5t154.5 -63.5z" glyph-name="uniE038" unicode=""/><glyph d="M1845 324l125 -205q-164 -141 -418 -142q-178 0 -294.5 75t-165.5 202l-43 -254h-258l20 121q-133 -143 -322 -144q-193 0 -302 132.5t-109 332.5q0 150 57.5 290t178 238.5t280.5 98.5q244 0 352 -182l27 160h258l-33 -185q166 207 442 207q199 0 316 -93t117 -233 q0 -158 -153 -262t-447 -104h-125q45 -150 231 -150q137 1 266 97zM598 252q117 0 193.5 95t76.5 218q0 100 -55 165t-156 65q-117 0 -192.5 -94.5t-75.5 -223.5q0 -98 54.5 -161.5t154.5 -63.5zM1638 823q-106 0 -183 -62.5t-105 -172.5h84q172 0 252.5 40t80.5 103 q0 43 -35 67.5t-94 24.5z" glyph-name="uniE039" horiz-adv-x="2123" unicode=""/><glyph d="M1845 324l125 -205q-164 -141 -418 -142q-178 0 -294.5 75t-165.5 202l-43 -254h-258l20 121q-133 -143 -322 -144q-193 0 -302 132.5t-109 332.5q0 150 57.5 290t178 238.5t280.5 98.5q244 0 352 -182l27 160h258l-33 -185q166 207 442 207q199 0 316 -93t117 -233 q0 -158 -153 -262t-447 -104h-125q45 -150 231 -150q137 1 266 97zM598 252q117 0 193.5 95t76.5 218q0 100 -55 165t-156 65q-117 0 -192.5 -94.5t-75.5 -223.5q0 -98 54.5 -161.5t154.5 -63.5zM1638 823q-106 0 -183 -62.5t-105 -172.5h84q172 0 252.5 40t80.5 103 q0 43 -35 67.5t-94 24.5zM1221 1130l-197 105l340 375l188 -195z" glyph-name="uniE040" horiz-adv-x="2123" unicode=""/><glyph d="M1192 1249l94 -205q-127 -66 -205 -137q57 -78 58 -184q0 -176 -130 -286.5t-345 -110.5q-162 0 -279 45q-25 -6 -46.5 -24.5t-21.5 -45.5q0 -63 109 -63h215q250 0 353.5 -84t103.5 -207q0 -131 -90 -216t-216 -116t-284 -31q-244 0 -371 75t-127 189q0 129 123 201 q-104 63 -104 182q0 86 53 153t145 103q-57 76 -57 181q0 190 138 295.5t337 105.5q174 0 289 -51q119 182 258 231zM664 842q-94 0 -144.5 -46t-50.5 -114q0 -59 46 -94t130 -35q92 0 143.5 45t51.5 115q0 59 -46 94t-130 35zM629 -14h-213q-47 0 -70 2q-53 -37 -53 -84 q0 -92 235 -92q31 0 66 3t84 12t81 30.5t32 52.5q0 76 -162 76z" glyph-name="uniE044" horiz-adv-x="1230" unicode=""/><glyph d="M1192 1249l94 -205q-127 -66 -205 -137q57 -78 58 -184q0 -176 -130 -286.5t-345 -110.5q-162 0 -279 45q-25 -6 -46.5 -24.5t-21.5 -45.5q0 -63 109 -63h215q250 0 353.5 -84t103.5 -207q0 -131 -90 -216t-216 -116t-284 -31q-244 0 -371 75t-127 189q0 129 123 201 q-104 63 -104 182q0 86 53 153t145 103q-57 76 -57 181q0 190 138 295.5t337 105.5q174 0 289 -51q119 182 258 231zM664 842q-94 0 -144.5 -46t-50.5 -114q0 -59 46 -94t130 -35q92 0 143.5 45t51.5 115q0 59 -46 94t-130 35zM629 -14h-213q-47 0 -70 2q-53 -37 -53 -84 q0 -92 235 -92q31 0 66 3t84 12t81 30.5t32 52.5q0 76 -162 76zM930 1505l200 -75q-129 -279 -364 -279q-129 0 -211 79t-104 200l213 75q27 -129 116 -129q84 0 150 129z" glyph-name="uniE045" horiz-adv-x="1230" unicode=""/><glyph d="M1192 1249l94 -205q-127 -66 -205 -137q57 -78 58 -184q0 -176 -130 -286.5t-345 -110.5q-162 0 -279 45q-25 -6 -46.5 -24.5t-21.5 -45.5q0 -63 109 -63h215q250 0 353.5 -84t103.5 -207q0 -131 -90 -216t-216 -116t-284 -31q-244 0 -371 75t-127 189q0 129 123 201 q-104 63 -104 182q0 86 53 153t145 103q-57 76 -57 181q0 190 138 295.5t337 105.5q174 0 289 -51q119 182 258 231zM664 842q-94 0 -144.5 -46t-50.5 -114q0 -59 46 -94t130 -35q92 0 143.5 45t51.5 115q0 59 -46 94t-130 35zM629 -14h-213q-47 0 -70 2q-53 -37 -53 -84 q0 -92 235 -92q31 0 66 3t84 12t81 30.5t32 52.5q0 76 -162 76zM610 1305q0 70 52.5 119t123.5 49q63 0 105.5 -43.5t42.5 -104.5q0 -68 -53.5 -118t-122.5 -50q-63 0 -105.5 43.5t-42.5 104.5z" glyph-name="uniE046" horiz-adv-x="1230" unicode=""/><glyph d="M1192 1249l94 -205q-127 -66 -205 -137q57 -78 58 -184q0 -176 -130 -286.5t-345 -110.5q-162 0 -279 45q-25 -6 -46.5 -24.5t-21.5 -45.5q0 -63 109 -63h215q250 0 353.5 -84t103.5 -207q0 -131 -90 -216t-216 -116t-284 -31q-244 0 -371 75t-127 189q0 129 123 201 q-104 63 -104 182q0 86 53 153t145 103q-57 76 -57 181q0 190 138 295.5t337 105.5q174 0 289 -51q119 182 258 231zM664 842q-94 0 -144.5 -46t-50.5 -114q0 -59 46 -94t130 -35q92 0 143.5 45t51.5 115q0 59 -46 94t-130 35zM629 -14h-213q-47 0 -70 2q-53 -37 -53 -84 q0 -92 235 -92q31 0 66 3t84 12t81 30.5t32 52.5q0 76 -162 76zM324 -1032l-86 102q139 104 161 185q-57 -6 -97 32.5t-40 91.5q0 61 47 105.5t109 44.5q68 0 109.5 -44t41.5 -122q0 -113 -68 -215t-177 -180z" glyph-name="uniE047" horiz-adv-x="1230" unicode=""/><glyph d="M104 457l148 839l326 105l-62 -354h318l-48 -269h-317l-66 -368q-6 -31 -6 -56q0 -102 109 -102q59 0 149 37l62 -250q-143 -61 -275 -62q-354 0 -354 334q0 60 16 146zM229 -666l-86 103q139 104 162 184q-57 -6 -97 33t-40 92q0 61 47 105.5t109 44.5q68 0 109.5 -44.5 t41.5 -121.5q0 -113 -68.5 -215.5t-177.5 -180.5z" glyph-name="uniE050" horiz-adv-x="815" unicode=""/><glyph d="M104 457l148 839l326 105l-62 -354h318l-48 -269h-317l-66 -368q-6 -31 -6 -56q0 -102 109 -102q59 0 149 37l62 -250q-143 -61 -275 -62q-354 0 -354 334q0 60 16 146zM750 1128l-86 103q139 104 161 184q-57 -6 -97 33t-40 92q0 61 47 105.5t109 44.5q68 0 109.5 -44 t41.5 -122q0 -113 -68 -215.5t-177 -180.5z" glyph-name="uniE051" horiz-adv-x="815" unicode=""/><glyph d="M104 457l148 839l326 105l-62 -354h318l-48 -269h-317l-66 -368q-6 -31 -6 -56q0 -102 109 -102q59 0 149 37l62 -250q-143 -61 -275 -62q-31 0 -53 3l-41 -74q145 -45 146 -187q0 -102 -73 -172.5t-196 -70.5q-135 0 -256 80l115 174q78 -53 135 -54q72 0 72 57.5 t-101 57.5l-32 59l100 160q-170 70 -170 301q0 60 16 146z" glyph-name="uniE052" horiz-adv-x="815" unicode=""/><glyph d="M104 457l148 839l326 105l-62 -354h318l-48 -269h-317l-23 -121h238l-33 -194h-237l-11 -53q-6 -31 -6 -56q0 -102 109 -102q59 0 149 37l62 -250q-143 -61 -275 -62q-354 0 -354 334q0 60 16 146z" glyph-name="uniE053" horiz-adv-x="815" unicode=""/><glyph d="M690 918q-129 0 -205.5 -126t-76.5 -278q0 -113 54 -181.5t154 -68.5q129 0 206 127t77 279q0 113 -54.5 180.5t-154.5 67.5zM100 500q0 285 171 494.5t434 209.5q238 0 369.5 -147.5t131.5 -374.5q0 -285 -171 -495t-433 -210q-238 0 -370 148t-132 375z" glyph-name="uniE100" horiz-adv-x="1284" unicode=""/><glyph d="M92 647l62 344l374 191h252l-209 -1182h-313l141 803z" glyph-name="uniE101" horiz-adv-x="808" unicode=""/><glyph d="M1042 276l-47 -276h-981l39 231q375 172 533 275q47 31 73.5 50t65.5 56t58.5 78t19.5 88q0 61 -40 100.5t-114 39.5t-131 -56.5t-74 -187.5h-311q12 125 56 222t101.5 153.5t129.5 93.5t132 49t120 12q203 0 329.5 -110.5t126.5 -280.5q0 -172 -107.5 -295t-291.5 -219 l-45 -23h358z" glyph-name="uniE102" horiz-adv-x="1189" unicode=""/><glyph d="M-63 -92l178 237q213 -141 379 -141q92 0 145 43t53 111q0 76 -85 126t-259 50l47 262q168 -2 272.5 53.5t104.5 159.5q0 57 -43 91t-115 34q-74 0 -125 -42t-59 -120h-303q8 209 154.5 320.5t347 111.5t332 -104.5t131.5 -268.5q0 -279 -295 -378q215 -96 215 -303 q0 -186 -141.5 -305t-383.5 -119q-288 0 -550 182z" glyph-name="uniE103" horiz-adv-x="1171" unicode=""/><glyph d="M885 -252h-303l49 277h-645l41 231l503 926h355l-506 -889h299l67 379l320 94l-84 -473h184l-47 -268h-184z" glyph-name="uniE104" horiz-adv-x="1253" unicode=""/><glyph d="M291 1182h821l-49 -287h-516l-45 -254q272 -16 400 -137t128 -297q0 -211 -136 -346t-394 -135q-287 0 -553 182l178 237q211 -141 375 -141q100 0 153.5 50t53.5 128q0 84 -88.5 139.5t-286.5 55.5h-182z" glyph-name="uniE105" horiz-adv-x="1169" unicode=""/><glyph d="M1167 1434l-454 -461h10q182 0 298 -124t116 -306q0 -229 -162 -397.5t-408 -168.5q-223 0 -357 138.5t-134 333.5q0 147 71.5 274t200.5 262l424 449h395zM631 731q-109 0 -181.5 -80t-72.5 -190q0 -88 55 -146.5t150 -58.5q102 0 177 80t75 188q0 88 -55.5 147.5 t-147.5 59.5z" glyph-name="uniE106" horiz-adv-x="1210" unicode=""/><glyph d="M127 885l51 297h944l-43 -252l-714 -1182h-377l710 1137h-571z" glyph-name="uniE107" horiz-adv-x="1060" unicode=""/><glyph d="M1149 434q0 -207 -153.5 -332t-385.5 -125q-244 0 -394 115t-150 295q0 139 79.5 250t219.5 154q-123 94 -123 245q0 174 131 297t358 123q215 0 351.5 -104.5t136.5 -268.5q0 -119 -59.5 -214t-174.5 -144q164 -103 164 -291zM606 240q102 0 169 58t67 157 q0 80 -58.5 131t-161 51t-171 -59.5t-68.5 -157.5q0 -78 59.5 -129t163.5 -51zM721 870q84 0 140.5 50.5t56.5 132.5q0 66 -50.5 106.5t-136.5 40.5q-82 0 -139 -49t-57 -129q0 -66 51 -109t135 -43z" glyph-name="uniE108" horiz-adv-x="1259" unicode=""/><glyph d="M70 -252l454 461h-10q-182 0 -298 124t-116 306q0 229 162 397t408 168q223 0 357 -138t134 -333q0 -147 -71.5 -274t-200.5 -262l-424 -449h-395zM606 451q109 0 181.5 79.5t72.5 190.5q0 88 -55 146.5t-150 58.5q-102 0 -177 -80t-75 -189q0 -88 55.5 -147t147.5 -59z " glyph-name="uniE109" horiz-adv-x="1210" unicode=""/><glyph d="M76 541q0 154 41 311.5t116.5 293.5t199.5 223t274 87q240 0 355.5 -156.5t115.5 -406.5q0 -154 -41 -311.5t-117 -293.5t-200 -223.5t-273 -87.5q-240 0 -355.5 157t-115.5 407zM696 1165q-88 0 -160.5 -103.5t-108.5 -244.5t-36 -276q0 -129 42 -201t124 -72 q88 0 161 103.5t108.5 245t35.5 276.5q0 129 -42 200.5t-124 71.5z" glyph-name="uniE120" horiz-adv-x="1185" unicode=""/><glyph d="M227 901l62 342l405 191h252l-201 -1143h316l-51 -291h-942l53 291h311l137 772z" glyph-name="uniE121" horiz-adv-x="1185" unicode=""/><glyph d="M1049 287l-50 -287h-999l43 244q385 248 588 438q221 201 221 346q0 66 -42 106t-118 40q-186 0 -219 -256h-309q31 276 187.5 407t363.5 131q201 0 330 -114.5t129 -290.5q0 -276 -343 -564q-123 -102 -272 -200h490z" glyph-name="uniE122" horiz-adv-x="1185" unicode=""/><glyph d="M-10 160l178 237q213 -141 379 -141q92 0 145 43t53 111q0 76 -85 126t-259 50l48 262q168 -2 272 53t104 160q0 57 -43 91t-114 34q-74 0 -125 -42t-60 -120h-303q8 209 154.5 320.5t347.5 111.5t332 -104.5t131 -268.5q0 -279 -295 -378q215 -96 215 -304 q0 -186 -141.5 -305t-382.5 -119q-289 1 -551 183z" glyph-name="uniE123" horiz-adv-x="1185" unicode=""/><glyph d="M874 0h-301l50 276h-607l41 232l469 926h357l-482 -889h269l67 379l318 94l-84 -473h166l-47 -269h-166z" glyph-name="uniE124" horiz-adv-x="1185" unicode=""/><glyph d="M344 1434h821l-49 -287h-516l-45 -254q272 -16 400 -137t128 -297q0 -211 -136 -346.5t-394 -135.5q-287 0 -553 183l178 237q211 -141 375 -141q100 0 153.5 50t53.5 128q0 84 -88 139.5t-287 55.5h-182z" glyph-name="uniE125" horiz-adv-x="1185" unicode=""/><glyph d="M1153 1434l-455 -461h11q182 0 297.5 -124t115.5 -306q0 -229 -161.5 -397.5t-407.5 -168.5q-223 0 -357.5 138.5t-134.5 333.5q0 147 72 274t201 262l424 449h395zM616 731q-109 0 -181.5 -80t-72.5 -190q0 -88 55.5 -146.5t149.5 -58.5q102 0 177 80t75 188 q0 88 -55.5 147.5t-147.5 59.5z" glyph-name="uniE126" horiz-adv-x="1185" unicode=""/><glyph d="M221 1137l51 297h959l-43 -252l-721 -1182h-377l715 1137h-584z" glyph-name="uniE127" horiz-adv-x="1185" unicode=""/><glyph d="M1112 434q0 -207 -153.5 -332t-385.5 -125q-244 0 -394 115t-150 295q0 139 79.5 250t219.5 154q-123 94 -123 245q0 174 131 297t358 123q215 0 351.5 -104.5t136.5 -268.5q0 -119 -59.5 -214t-174.5 -144q164 -103 164 -291zM569 240q102 0 169 58t67 157 q0 80 -58.5 131t-161 51t-171 -59.5t-68.5 -157.5q0 -78 59.5 -129t163.5 -51zM684 870q84 0 140.5 50.5t56.5 132.5q0 66 -50.5 106.5t-136.5 40.5q-82 0 -139 -49t-57 -129q0 -66 51 -109t135 -43z" glyph-name="uniE128" horiz-adv-x="1185" unicode=""/><glyph d="M102 0l455 461h-10q-182 0 -298 124t-116 306q0 229 162 397t407 168q223 0 357.5 -138t134.5 -333q0 -147 -71.5 -274t-200.5 -262l-424 -449h-396zM639 702q109 0 181.5 80t72.5 191q0 88 -55.5 146.5t-149.5 58.5q-102 0 -177 -80t-75 -189q0 -88 55.5 -147.5 t147.5 -59.5z" glyph-name="uniE129" horiz-adv-x="1185" unicode=""/><glyph d="M940 328l160 -213q-180 -137 -377 -138q-244 0 -386 130.5t-175 347.5h-154l35 198h111q8 78 16 117h-107l35 201h127q88 233 252 359t379 126q295 0 459 -221l-232 -174q-80 115 -233 115q-188 0 -295 -205h481l-90 -201h-461q-16 -102 -18 -117h436l-90 -198h-332 q57 -197 271 -197q100 0 188 70z" glyph-name="uniE140" horiz-adv-x="1185" unicode=""/><glyph d="M76 0l39 223q174 123 211 309h-187l43 248h135q-39 184 -38 238q0 195 126.5 316.5t321.5 121.5q172 0 299 -99.5t127 -287.5q0 -49 -8 -92h-291q6 37 6 63q0 76 -37 110t-88 34q-74 0 -115.5 -53.5t-41.5 -139.5q0 -27 34 -211h312l-43 -248h-265q-33 -158 -137 -262 h520l-45 -270h-878z" glyph-name="uniE141" horiz-adv-x="1185" unicode=""/><glyph d="M641 891l303 543h350l-430 -684h211l-39 -218h-291l-18 -96h291l-37 -219h-293l-37 -217h-303l37 217h-293l39 219h293l18 96h-295l39 218h209l-184 684h317z" glyph-name="uniE142" horiz-adv-x="1185" unicode=""/><glyph d="M344 -160l39 226q-145 39 -227 130t-82 222v8l293 59v-22q0 -86 57 -132t160 -46q72 0 128 28.5t56 100.5q0 23 -10 42t-23.5 33.5t-41 31t-44 25.5t-54.5 26.5t-52 25.5q-344 170 -344 414q0 170 114.5 270t302.5 113l37 198h254l-39 -225q276 -90 277 -403v-19h-291v15 q0 98 -56.5 145t-131.5 47q-70 0 -118 -31.5t-48 -97.5q0 -57 46 -95t144 -85q90 -45 145.5 -79t116 -84t89 -112.5t28.5 -138.5q0 -176 -115.5 -277.5t-320.5 -111.5l-35 -201h-254z" glyph-name="uniE143" horiz-adv-x="1185" unicode=""/><glyph d="M233 860l37 205h363q-41 129 -221 129h-119l43 240h907l-92 -203h-266q53 -74 67 -166h226l-93 -205h-139q-33 -162 -130 -268.5t-243 -147.5l299 -444h-364l-338 500l37 200h149q203 0 262 160h-385z" glyph-name="uniE144" horiz-adv-x="1185" unicode=""/><glyph d="M92 719l39 235l176 52l76 428h313l-59 -330l440 131l-41 -234l-440 -131l-12 -79l438 131l-41 -234l-438 -131l-47 -270h94q109 0 166 64.5t94 193.5l297 -56q-74 -260 -200 -374.5t-365 -114.5h-451l80 459l-174 -51l41 233l174 51l14 78z" glyph-name="uniE145" horiz-adv-x="1185" unicode=""/><glyph d="M414 0h-269l19 428h-168l41 236h137l4 98h-123l41 235h92l21 437h262l-61 -789l215 789h258l-66 -775l211 775h270l-135 -437h94l-40 -235h-125l-31 -98h137l-41 -236h-170l-131 -428h-268l63 842z" glyph-name="uniE146" horiz-adv-x="1185" unicode=""/><glyph d="M35 209l41 229h110l15 76h-113l47 264h111l116 656h375q240 0 358.5 -116t118.5 -292q0 -215 -139 -363.5t-373 -148.5h-208l-15 -76h312l-41 -229h-310l-37 -209h-292l36 209h-112zM539 778h143q106 0 168.5 63.5t62.5 159.5q0 74 -50 121t-148 47h-107z" glyph-name="uniE147" horiz-adv-x="1185" unicode=""/><glyph d="M600 1700l215 -170q-184 -233 -284.5 -525t-100.5 -602q0 -297 94 -540l-268 -127q-150 311 -150 682q0 352 125 683t369 599z" glyph-name="uniE300" horiz-adv-x="702" unicode=""/><glyph d="M172 -266l-215 170q184 233 284.5 525t100.5 601q0 297 -94 541l268 127q150 -311 150 -682q0 -352 -125 -683t-369 -599z" glyph-name="uniE301" horiz-adv-x="704" unicode=""/><glyph d="M803 852l-49 -272h-611l47 272h613z" glyph-name="uniE302" horiz-adv-x="880" unicode=""/><glyph d="M1079 852l-47 -272h-889l47 272h889z" glyph-name="uniE303" horiz-adv-x="1157" unicode=""/><glyph d="M1354 852l-49 -272h-1162l47 272h1164z" glyph-name="uniE304" horiz-adv-x="1431" unicode=""/><glyph d="M647 74l-45 -256h-563l317 1800h564l-48 -256h-260l-227 -1288h262z" glyph-name="uniE305" horiz-adv-x="802" unicode=""/><glyph d="M223 1362l45 256h563l-317 -1800h-563l47 256h260l227 1288h-262z" glyph-name="uniE306" horiz-adv-x="802" unicode=""/><glyph d="M63 592l43 250h64q84 0 131 44t66 150l47 275q53 307 379 307h198l-43 -256h-98q-76 0 -106.5 -38t-45.5 -118l-26 -153q-12 -72 -20.5 -108t-27 -84t-41 -73.5t-60.5 -48t-91 -34.5q133 -53 133 -211q0 -49 -12 -111l-27 -147q-14 -78 9.5 -120t97.5 -42h86l-45 -256 h-137q-156 0 -242 76.5t-86 205.5q0 33 6 70l37 221q6 33 6 60q0 141 -162 141h-33z" glyph-name="uniE307" horiz-adv-x="878" unicode=""/><glyph d="M885 844l-43 -250h-64q-84 0 -131 -44t-65 -151l-47 -274q-53 -307 -379 -307h-199l43 256h98q76 0 107 38t45 117l26 154q12 72 20.5 107.5t27 84t41 74t60.5 48t91 34.5q-133 53 -133 211q0 49 12 111l27 147q14 78 -9.5 120t-97.5 42h-86l45 256h138q156 0 241.5 -77 t85.5 -206q0 -33 -6 -69l-37 -222q-6 -35 -6 -59q0 -141 162 -141h33z" glyph-name="uniE308" horiz-adv-x="878" unicode=""/><glyph d="M365 1655h233l-330 -1874h-233z" glyph-name="uniE309" horiz-adv-x="563" unicode=""/><glyph d="M365 1655h233l-141 -811h-234zM176 586h234l-142 -805h-233z" glyph-name="uniE310" horiz-adv-x="563" unicode=""/><glyph d="M428 686l135 -283l-217 -133l-235 445l391 446l184 -162z" glyph-name="uniE311" horiz-adv-x="700" unicode=""/><glyph d="M340 748l-135 282l217 133l235 -444l-391 -447l-184 162z" glyph-name="uniE312" horiz-adv-x="700" unicode=""/><glyph d="M428 686l135 -283l-217 -133l-235 445l391 446l184 -162zM930 686l135 -283l-217 -133l-236 445l392 446l184 -162z" glyph-name="uniE313" horiz-adv-x="1202" unicode=""/><glyph d="M340 748l-135 282l217 133l235 -444l-391 -447l-184 162zM842 748l-135 282l217 133l235 -444l-391 -447l-184 162z" glyph-name="uniE314" horiz-adv-x="1202" unicode=""/><glyph d="M162 696q0 104 80 184.5t190 80.5q98 0 161.5 -67t63.5 -159q0 -104 -79.5 -184t-188.5 -80q-100 0 -163.5 66.5t-63.5 158.5z" glyph-name="uniE315" horiz-adv-x="759" unicode=""/><glyph d="M135 696q0 82 62.5 140.5t144.5 58.5q76 0 125 -50t49 -122q0 -82 -61.5 -139.5t-145.5 -57.5q-74 0 -124 49t-50 121z" glyph-name="uniE316" horiz-adv-x="595" unicode=""/><glyph d="M807 240l-195 -164l-516 639l742 639l166 -193l-363 -313h715l-47 -264h-781z" glyph-name="uniE330" horiz-adv-x="1380" unicode=""/><glyph d="M1174 924l159 -201l-737 -639l-516 639l194 168l271 -338l139 793h264l-129 -730z" glyph-name="uniE331" horiz-adv-x="1345" unicode=""/><glyph d="M240 506l-162 201l739 639l516 -639l-194 -168l-271 335l-139 -790h-264l129 727z" glyph-name="uniE332" horiz-adv-x="1345" unicode=""/><glyph d="M641 1192l195 162l516 -639l-742 -639l-166 194l363 314h-715l47 264h779z" glyph-name="uniE333" horiz-adv-x="1382" unicode=""/><glyph d="M385 477h-258l168 957h930l-45 -258h-512l485 -609l-203 -166l-475 594z" glyph-name="uniE334" horiz-adv-x="1247" unicode=""/><glyph d="M291 1176l45 258h932l-168 -957h-256l86 488l-647 -564l-172 199l661 576h-481z" glyph-name="uniE335" horiz-adv-x="1241" unicode=""/><glyph d="M532 1137l189 297h272l-276 -381h143l-26 -156h-213l-9 -47h213l-28 -156h-213l-19 -110h-233l18 110h-213l29 156h213l8 47h-213l29 156h141l-141 381h246z" glyph-name="uniE400" horiz-adv-x="878" unicode=""/><glyph d="M207 1073l33 187h139l59 174h195l-60 -174h95l59 174h195l-60 -174h107l-33 -187h-137l-45 -131h108l-33 -188h-139l-57 -170h-197l58 170h-93l-57 -170h-194l57 170h-105l33 188h135l45 131h-108zM510 1073l-45 -131h94l45 131h-94z" glyph-name="uniE401" horiz-adv-x="901" unicode=""/><glyph d="M391 582h-209l758 852h211zM168 1202q0 98 72.5 171t175.5 73q96 0 157.5 -61.5t61.5 -147.5q0 -98 -73 -171t-177 -73q-96 0 -156.5 61.5t-60.5 147.5zM408 1292q-31 0 -53.5 -23.5t-22.5 -56.5q0 -29 17.5 -47t45.5 -18q31 0 53.5 23.5t22.5 56.5q0 29 -17 47t-46 18z M700 788q0 98 73 171t175 73q96 0 157.5 -61.5t61.5 -147.5q0 -98 -72.5 -170.5t-176.5 -72.5q-96 0 -157 61t-61 147zM940 879q-31 0 -53.5 -24t-22.5 -56q0 -29 17.5 -47.5t46.5 -18.5q31 0 53.5 23.5t22.5 56.5q0 29 -17.5 47.5t-46.5 18.5z" glyph-name="uniE402" horiz-adv-x="1163" unicode=""/><glyph d="M100 584l29 161q76 49 111 134h-105l31 180h82q-25 98 -25 129q0 113 77 185.5t198 72.5q111 0 193.5 -59.5t82.5 -176.5q0 -31 -6 -63h-207q2 12 2 33q0 72 -59 71q-31 0 -49.5 -24.5t-18.5 -57.5q0 -12 25 -110h176l-33 -180h-155q-25 -53 -68 -101h307l-33 -194h-555z " glyph-name="uniE403" horiz-adv-x="720" unicode=""/><glyph d="M729 979l-65 -127h-191q45 -78 148 -78q74 0 127 45l116 -153q-115 -94 -258 -95q-145 0 -242.5 78t-130.5 203h-116l22 127h80q0 18 4 47h-76l23 129h90q55 135 171 213t245 78q195 0 303 -143l-168 -129q-47 70 -145 69q-96 0 -162 -88h305l-66 -129h-292 q-6 -25 -7 -47h285z" glyph-name="uniE404" horiz-adv-x="890" unicode=""/><glyph d="M178 1090l23 129h211q-20 57 -97 57h-104l27 158h561l-56 -129h-141q20 -33 31 -86h127l-55 -129h-78q-18 -88 -75.5 -150.5t-143.5 -89.5l180 -266h-250l-197 293l-2 2l27 139h113q90 0 122 72h-223z" glyph-name="uniE405" horiz-adv-x="692" unicode=""/><glyph d="M166 1026l29 168l108 31l37 209h213l-27 -144l265 76l-29 -166l-264 -78l-9 -41l265 76l-29 -168l-264 -78l-23 -129h56q61 0 94 37t55 113l203 -37q-53 -176 -137 -243.5t-252 -67.5h-267l46 264l-107 -31l29 170l108 31l6 39z" glyph-name="uniE406" horiz-adv-x="825" unicode=""/><glyph d="M526 584h-250l3 225h-156l31 174h125v45h-117l31 174h88l2 232h215l-19 -510l164 510h227l-30 -512l164 512h223l-78 -232h90l-31 -174h-118l-17 -45h127l-31 -174h-155l-76 -225h-264l20 497z" glyph-name="uniE407" horiz-adv-x="1191" unicode=""/><glyph d="M102 682l31 168h90l8 45h-90l33 186h90l64 353h293q135 0 204.5 -69t69.5 -171q0 -125 -84 -212t-229 -87h-136l-8 -45h183l-29 -168h-182l-17 -92h-215l17 92h-93zM479 1081h94q53 0 78 28t25 65q0 31 -21.5 51t-64.5 20h-82z" glyph-name="uniE408" horiz-adv-x="827" unicode=""/><glyph d="M133 377l37 209h657l-34 -209h-660zM195 1018q0 164 117.5 290t291.5 126q168 0 264.5 -98.5t96.5 -243.5q0 -164 -118 -290t-292 -126q-168 0 -264 98.5t-96 243.5zM594 1225q-72 0 -119 -59.5t-47 -141.5q0 -61 36 -100t101 -39q72 0 119 59.5t47 140.5 q0 61 -35.5 100.5t-101.5 39.5z" glyph-name="uniE409" horiz-adv-x="972" unicode=""/><glyph d="M143 377l37 209h701l-35 -209h-703zM565 1434q145 0 221 -97l15 80h225l-129 -727h-225l8 47q-84 -61 -180 -61q-147 0 -227 91t-80 230q0 178 107 307.5t265 129.5zM563 868q76 0 127 64.5t51 148.5q0 68 -36.5 113t-102.5 45q-76 0 -127 -65.5t-51 -147.5 q0 -68 38 -113t101 -45z" glyph-name="uniE410" horiz-adv-x="1015" unicode=""/><glyph d="M143 377l37 209h703l-37 -209h-703zM565 1434q145 0 221 -97l15 80h225l-129 -727h-225l8 47q-84 -61 -180 -61q-147 0 -227 91t-80 230q0 178 107 307.5t265 129.5zM563 868q76 0 127 64.5t51 148.5q0 68 -36.5 113t-102.5 45q-76 0 -127 -65.5t-51 -147.5 q0 -68 38 -113t101 -45z" glyph-name="uniE411" horiz-adv-x="1015" unicode=""/><glyph d="M211 651q0 168 88 292t238 124q139 0 206.5 -80t67.5 -205q0 -168 -88 -291.5t-238 -123.5q-139 0 -206.5 79.5t-67.5 204.5zM532 903q-76 0 -112.5 -84t-36.5 -162q0 -127 104 -127q53 0 90 48.5t49.5 100.5t12.5 97q-1 127 -107 127z" glyph-name="uniE450" horiz-adv-x="770" unicode=""/><glyph d="M104 778l33 183l195 92h135l-119 -672h-174l82 469z" glyph-name="uniE451" horiz-adv-x="481" unicode=""/><glyph d="M590 545l-29 -164h-508l25 135q383 217 383 330q0 63 -70 63q-74 0 -90 -108h-174q14 137 95 201.5t181 64.5q104 0 171 -59.5t67 -147.5q0 -168 -233 -315h182z" glyph-name="uniE452" horiz-adv-x="665" unicode=""/><glyph d="M53 459l109 135q100 -61 168 -62q82 0 82 48q0 29 -39 48t-117 19l25 135q166 0 165 80q0 23 -17 37t-46 14q-68 0 -78 -67h-168q6 84 53.5 136t96.5 68.5t100 16.5q102 0 170 -53t68 -133q0 -125 -117 -174q86 -47 86 -136q0 -94 -75 -149t-189 -55q-146 0 -277 92z" glyph-name="uniE453" horiz-adv-x="657" unicode=""/><glyph d="M526 381h-176l21 121h-314l23 131l244 420h198l-233 -389h110l25 137l184 53l-33 -190h93l-29 -162h-92z" glyph-name="uniE454" horiz-adv-x="698" unicode=""/><glyph d="M207 1053h418l-29 -162h-248l-14 -84q127 -8 189.5 -65.5t62.5 -141.5q0 -90 -64.5 -161.5t-202.5 -71.5q-145 0 -276 92l109 135q96 -61 165 -62q80 0 80 60q0 68 -149 67h-111z" glyph-name="uniE455" horiz-adv-x="643" unicode=""/><glyph d="M625 1053l-201 -201q88 -10 141 -69.5t53 -139.5q0 -115 -81.5 -195.5t-200.5 -80.5q-113 0 -183.5 69.5t-70.5 165.5q0 117 129 242l209 209h205zM358 719q-53 0 -81.5 -32t-28.5 -71q0 -37 26.5 -63.5t67.5 -26.5q53 0 81 34t28 69q0 37 -26 63.5t-67 26.5z" glyph-name="uniE456" horiz-adv-x="663" unicode=""/><glyph d="M125 887l29 166h479l-25 -142l-338 -530h-207l332 506h-270z" glyph-name="uniE457" horiz-adv-x="595" unicode=""/><glyph d="M631 592q0 -102 -79 -163.5t-196 -61.5q-123 0 -199.5 57t-76.5 147q0 129 123 183q-45 39 -45 106q0 92 71.5 149.5t176.5 57.5q111 0 179 -51t68 -133q0 -109 -90 -162q68 -51 68 -129zM356 512q41 0 71 23.5t30 58.5q0 31 -25.5 53.5t-71.5 22.5q-43 0 -72.5 -22.5 t-29.5 -57.5q0 -31 24.5 -54.5t73.5 -23.5zM406 799q35 0 58 19.5t23 45.5q0 63 -81 64q-37 0 -60.5 -19.5t-23.5 -48.5q0 -25 21.5 -43t62.5 -18z" glyph-name="uniE458" horiz-adv-x="692" unicode=""/><glyph d="M109 381l200 201q-88 10 -141 69.5t-53 139.5q0 115 82 195.5t200 80.5q113 0 183.5 -69.5t70.5 -166.5q0 -117 -129 -241l-209 -209h-204zM375 715q53 0 81.5 31.5t28.5 70.5q0 37 -26.5 63.5t-67.5 26.5q-53 0 -80.5 -33.5t-27.5 -68.5q0 -37 25.5 -63.5t66.5 -26.5z " glyph-name="uniE459" horiz-adv-x="663" unicode=""/><glyph d="M43 342q0 86 24.5 175t71.5 169t127 130t178 50q164 0 244 -98t80 -252q0 -86 -24.5 -175t-71.5 -169t-127 -130t-178 -50q-164 0 -244 98t-80 252zM440 659q-78 0 -123 -103t-45 -210q0 -147 99 -147q78 0 123 103.5t45 209.5q-1 147 -99 147z" glyph-name="uniE500" horiz-adv-x="843" unicode=""/><glyph d="M111 2l98 565l-162 -82l45 254l225 113h177l-152 -850h-231z" glyph-name="uniE501" horiz-adv-x="540" unicode=""/><glyph d="M618 209l-34 -207h-598l30 168q258 172 361 283q80 80 80 145q0 29 -17.5 47.5t-48.5 18.5q-84 0 -100 -129h-217q10 98 48 167.5t90 102.5t99 46t95 13q127 0 204.5 -69.5t77.5 -176.5q0 -154 -162 -307q-57 -53 -123 -102h215z" glyph-name="uniE502" horiz-adv-x="749" unicode=""/><glyph d="M-23 104l138 166q121 -78 194 -77q90 0 90 67q0 84 -176 84l31 166q45 -2 84 5t75 33.5t36 74.5q0 27 -18.5 43t-45.5 16q-76 0 -86 -86h-213q4 80 37 136t83 84t96 39t93 11q117 0 197 -63.5t80 -163.5q0 -158 -146 -221q100 -57 100.5 -164t-79.5 -184.5t-236 -77.5 q-184 -1 -334 112z" glyph-name="uniE503" horiz-adv-x="745" unicode=""/><glyph d="M547 2h-217l26 152h-370l28 163l285 535h250l-277 -496h119l35 191l227 63l-45 -254h99l-35 -202h-99z" glyph-name="uniE504" horiz-adv-x="784" unicode=""/><glyph d="M174 852h504l-37 -203h-289l-18 -110q145 -10 220 -82t75 -176q0 -123 -82 -207t-238 -84q-182 0 -336 112l131 160q113 -76 201 -76q98 0 98 78q0 94 -180 94h-137z" glyph-name="uniE505" horiz-adv-x="735" unicode=""/><glyph d="M682 852l-252 -270q109 -6 173.5 -76t64.5 -172q0 -139 -99.5 -241.5t-242.5 -102.5q-139 0 -222.5 86t-83.5 203q0 86 43 159.5t125 161.5l242 252h252zM356 420q-53 0 -85.5 -37t-32.5 -92q0 -43 25.5 -72t70.5 -29t80 40t35 92q0 41 -26 69.5t-67 28.5z" glyph-name="uniE506" horiz-adv-x="755" unicode=""/><glyph d="M74 643l37 209h559l-31 -174l-389 -676h-260l385 641h-301z" glyph-name="uniE507" horiz-adv-x="659" unicode=""/><glyph d="M684 256q0 -123 -94 -193.5t-234 -70.5q-152 0 -246 68.5t-94 177.5q0 78 46.5 142t123.5 91q-72 55 -71 143q0 109 87 180.5t214 71.5q133 0 219 -64.5t86 -164.5q0 -145 -135 -205q98 -67 98 -176zM348 172q49 0 82 26.5t33 75.5q0 39 -27.5 63.5t-75.5 24.5 q-49 0 -82.5 -27.5t-33.5 -74.5q0 -39 27.5 -63.5t76.5 -24.5zM410 528q39 0 66.5 26t27.5 67q0 31 -21.5 51t-62.5 20q-39 0 -65.5 -24.5t-26.5 -65.5q0 -31 21.5 -52.5t60.5 -21.5z" glyph-name="uniE508" horiz-adv-x="798" unicode=""/><glyph d="M41 2l252 270q-109 6 -173.5 76t-64.5 172q0 139 99.5 241.5t242.5 102.5q139 0 222 -86t83 -203q0 -86 -43 -159.5t-124 -161.5l-242 -252h-252zM367 434q53 0 85.5 37t32.5 92q0 43 -25.5 72t-70.5 29t-80 -40t-35 -92q0 -41 26 -69.5t67 -28.5z" glyph-name="uniE509" horiz-adv-x="755" unicode=""/><glyph d="M195 1200q0 86 24.5 175t71.5 169t127 130t178 50q164 0 244 -98t80 -252q0 -86 -25 -175t-72 -169t-127 -130t-178 -50q-164 0 -243.5 98t-79.5 252zM592 1518q-78 0 -123 -103.5t-45 -210.5q0 -147 98 -147q78 0 123 103.5t45 209.5q0 148 -98 148z" glyph-name="uniE520" horiz-adv-x="843" unicode=""/><glyph d="M262 864l98 566l-161 -82l45 254l225 112h176l-151 -850h-232z" glyph-name="uniE521" horiz-adv-x="540" unicode=""/><glyph d="M770 1071l-35 -207h-598l31 168q258 172 360 283q80 80 80 145q0 29 -17.5 47.5t-47.5 18.5q-84 0 -101 -129h-217q10 98 48 167.5t90.5 102.5t99.5 46t94 13q127 0 205 -69.5t78 -175.5q0 -154 -162 -307q-57 -53 -123 -103h215z" glyph-name="uniE522" horiz-adv-x="749" unicode=""/><glyph d="M129 963l137 165q121 -78 195 -77q90 0 90 67q0 84 -176 84l31 166q45 -2 83.5 5t74.5 34t36 74q0 27 -18.5 43t-44.5 16q-76 0 -86 -86h-213q4 80 36.5 136.5t83 84t96.5 38.5t93 11q117 0 196.5 -63.5t79.5 -163.5q0 -158 -145 -221q100 -57 100 -163.5t-80 -184.5 t-235 -78q-184 0 -334 113z" glyph-name="uniE523" horiz-adv-x="745" unicode=""/><glyph d="M698 864h-217l27 152h-371l29 164l285 534h249l-276 -495h119l35 190l227 64l-45 -254h98l-35 -203h-98z" glyph-name="uniE524" horiz-adv-x="784" unicode=""/><glyph d="M326 1712h503l-36 -203h-289l-19 -110q145 -10 220 -82t75 -176q0 -123 -82 -207t-237 -84q-182 0 -336 113l131 159q113 -76 201 -75q98 0 98 77q0 94 -180 95h-137z" glyph-name="uniE525" horiz-adv-x="735" unicode=""/><glyph d="M834 1714l-252 -270q109 -6 173 -76t64 -172q0 -139 -99 -241.5t-243 -102.5q-139 0 -222 86t-83 203q0 86 43 159.5t125 161.5l242 252h252zM508 1282q-53 0 -86 -37t-33 -92q0 -43 25.5 -71.5t70.5 -28.5t80 40t35 91q0 41 -25.5 69.5t-66.5 28.5z" glyph-name="uniE526" horiz-adv-x="755" unicode=""/><glyph d="M225 1505l37 209h559l-30 -174l-390 -676h-260l385 641h-301z" glyph-name="uniE527" horiz-adv-x="659" unicode=""/><glyph d="M836 1116q0 -123 -94.5 -193.5t-233.5 -70.5q-152 0 -246 68.5t-94 177.5q0 78 46 142.5t124 90.5q-72 55 -72 144q0 109 87 180t214 71q133 0 219 -64.5t86 -164.5q0 -145 -135 -205q99 -67 99 -176zM500 1032q49 0 81.5 26.5t32.5 76.5q0 39 -27.5 63.5t-74.5 24.5 q-49 0 -83 -28t-34 -75q0 -39 28 -63.5t77 -24.5zM561 1389q39 0 66.5 25.5t27.5 66.5q0 31 -21.5 51t-62.5 20q-39 0 -65.5 -24.5t-26.5 -65.5q0 -31 21.5 -52t60.5 -21z" glyph-name="uniE528" horiz-adv-x="798" unicode=""/><glyph d="M193 864l251 271q-109 6 -173 75.5t-64 171.5q0 139 99.5 241.5t242.5 102.5q139 0 222 -86t83 -202q0 -86 -43 -160t-125 -162l-242 -252h-251zM518 1296q53 0 86 37t33 92q0 43 -25.5 72t-70.5 29t-80 -40t-35 -91q0 -41 25.5 -70t66.5 -29z" glyph-name="uniE529" horiz-adv-x="755" unicode=""/><glyph d="M39 281l178 145q-25 61 -24 129q0 127 75 238l-112 151l206 160l115 -154q68 25 139 25q96 0 164 -33l197 162l162 -205l-178 -145q25 -61 24 -129q0 -127 -76 -238l113 -151l-207 -160l-115 153q-68 -25 -139 -24q-96 0 -164 33l-196 -162zM604 750q-68 0 -114 -55.5 t-46 -129.5q0 -57 34 -96t95 -39q68 0 114 55.5t46 128.5q0 57 -34 96.5t-95 39.5z" glyph-name="uniE600" horiz-adv-x="1153" unicode=""/><glyph d="M178 696l43 232h187l86 254h241l-86 -254h182l87 254h239l-86 -254h148l-41 -232h-187l-71 -211h153l-43 -231h-188l-86 -254h-240l86 254h-182l-86 -254h-242l86 254h-147l43 231h182l72 211h-150zM569 696l-71 -211h182l72 211h-183z" glyph-name="uniE601" horiz-adv-x="1226" unicode=""/><glyph d="M281 -129l32 184q-127 35 -196.5 115t-67.5 188l268 39q-4 -74 44.5 -108.5t144.5 -34.5q125 0 125 74q0 10 -3 20t-9.5 19.5t-12.5 16.5t-18.5 16.5t-22.5 15.5t-27.5 15t-28.5 15.5t-33.5 17.5t-37.5 17q-143 74 -217 151t-74 193q0 139 100.5 226.5t258.5 95.5l31 164 h233l-35 -195q248 -82 234 -340h-264q8 74 -39.5 112t-120.5 38q-123 0 -123 -80q0 -43 35 -70.5t121 -68.5q74 -37 111.5 -57.5t88.5 -55.5t75 -65.5t42 -75.5t18 -99q0 -141 -102 -226t-266 -95l-29 -162h-235z" glyph-name="uniE602" horiz-adv-x="1026" unicode=""/><glyph d="M129 862q0 137 100.5 239.5t241.5 102.5q129 0 210 -84t81 -202q0 -137 -100.5 -240t-241.5 -103q-129 0 -210 84t-81 203zM455 999q-47 0 -80 -36.5t-33 -88.5q0 -41 25.5 -67.5t68.5 -26.5q47 0 80 37t33 88q0 41 -25.5 67.5t-68.5 26.5zM395 0h-250l1065 1182h250z M842 264q0 137 100 239.5t242 102.5q129 0 210 -84t81 -203q0 -137 -100.5 -239.5t-241.5 -102.5q-129 0 -210 84t-81 203zM1167 401q-47 0 -79.5 -36.5t-32.5 -88.5q0 -41 25.5 -67.5t68.5 -26.5q47 0 80 37t33 88q0 41 -26 67.5t-69 26.5z" glyph-name="uniE603" horiz-adv-x="1579" unicode=""/><glyph d="M313 0l31 176q-119 43 -184.5 142.5t-65.5 226.5q0 176 109.5 313t290.5 166l26 158h234l-31 -181q182 -70 229 -270l-258 -82q-10 59 -47 96t-98 37q-78 0 -129 -67.5t-51 -153.5q0 -72 37.5 -117t105.5 -45q106 0 172 133l244 -83q-53 -117 -146.5 -194t-208.5 -97 l-26 -158h-234z" glyph-name="uniE604" horiz-adv-x="1003" unicode=""/><glyph d="M37 0l35 201q121 90 161 221h-149l39 219h119q-2 14 -14.5 59t-17.5 77t-5 67q0 164 107.5 262t273.5 98q156 0 259 -88t103 -242q0 -35 -6 -75h-262q4 16 4 45q0 57 -28.5 84.5t-67.5 27.5q-49 0 -84 -38.5t-35 -96.5q0 -25 6 -52.5t16.5 -65t14.5 -62.5h250l-39 -219 h-221q-25 -92 -88 -168h421l-45 -254h-747z" glyph-name="uniE605" horiz-adv-x="980" unicode=""/><glyph d="M623 731l295 451h339l-393 -545h205l-37 -209h-301l-10 -59h301l-37 -209h-301l-27 -160h-295l27 160h-299l37 209h299l10 59h-299l37 209h205l-199 545h307z" glyph-name="uniE606" horiz-adv-x="1208" unicode=""/><glyph d="M129 862q0 137 100.5 239.5t241.5 102.5q129 0 210 -84t81 -202q0 -137 -100.5 -240t-241.5 -103q-129 0 -210 84t-81 203zM455 999q-47 0 -80 -36.5t-33 -88.5q0 -41 25.5 -67.5t68.5 -26.5q47 0 80 37t33 88q0 41 -25.5 67.5t-68.5 26.5zM395 0h-250l1065 1182h250z M842 264q0 137 100 239.5t242 102.5q129 0 210 -84t81 -203q0 -137 -100.5 -239.5t-241.5 -102.5q-129 0 -210 84t-81 203zM1167 401q-47 0 -79.5 -36.5t-32.5 -88.5q0 -41 25.5 -67.5t68.5 -26.5q47 0 80 37t33 88q0 41 -26 67.5t-69 26.5zM1520 264q0 137 100 239.5 t242 102.5q129 0 209.5 -84t80.5 -203q0 -137 -100 -239.5t-242 -102.5q-129 0 -209.5 84t-80.5 203zM1845 401q-47 0 -79.5 -36.5t-32.5 -88.5q0 -41 25.5 -67.5t68.5 -26.5q47 0 79.5 37t32.5 88q0 41 -25.5 67.5t-68.5 26.5z" glyph-name="uniE607" horiz-adv-x="2246" unicode=""/><glyph d="M930 305l145 -205q-160 -123 -346 -123q-195 0 -330 109t-180 283h-164l31 176h115q0 27 8 84h-109l33 176h125q78 186 237.5 293.5t342.5 107.5q268 0 411 -205l-219 -163q-72 102 -203 102q-150 0 -249 -135h440l-78 -176h-434q-8 -31 -12 -84h413l-78 -176h-299 q68 -129 226 -129q94 -1 174 65z" glyph-name="uniE608" horiz-adv-x="1236" unicode=""/><glyph d="M143 700l31 187h289q-37 78 -144 78h-131l39 217h762l-88 -185h-199q31 -45 46 -110h190l-88 -187h-109q-29 -125 -105.5 -207.5t-191.5 -113.5l244 -379h-336l-260 414l33 182h147q129 0 181 104h-310z" glyph-name="uniE609" horiz-adv-x="948" unicode=""/><glyph d="M625 0h-336l-2 330h-226l39 229h185v64h-172l39 227h133l-2 332h292l-18 -719l223 719h299l-35 -697l228 697h307l-121 -332h131l-41 -227h-172l-22 -64h184l-41 -229h-225l-119 -330h-334l33 725z" glyph-name="uniE610" horiz-adv-x="1628" unicode=""/><glyph d="M39 150l37 210h92l10 62h-90l43 246h90l90 514h383q197 0 295 -95.5t98 -240.5q0 -186 -114.5 -305t-304.5 -119h-211l-11 -62h250l-37 -210h-249l-25 -150h-281l27 150h-92zM500 668h137q76 0 120 41t44 108q0 53 -37 87t-113 34h-104z" glyph-name="uniE611" horiz-adv-x="1103" unicode=""/><glyph d="M119 612l37 222l147 43l53 305h291l-39 -217l371 108l-39 -221l-369 -109l-12 -61l369 109l-37 -222l-371 -108l-33 -197h82q88 0 133.5 52.5t77.5 156.5l275 -59q-72 -227 -180.5 -320.5t-323.5 -93.5h-401l63 371l-145 -43l38 221l146 43l12 61z" glyph-name="uniE612" horiz-adv-x="1134" unicode=""/><glyph d="M1098 303l207 -303h-369l-84 125q-231 -147 -422 -148q-186 0 -288.5 90.5t-102.5 231.5q0 285 389 465q-76 147 -76 272q0 188 130 305t309 117q176 0 277 -99t101 -237q0 -88 -38.5 -163.5t-124.5 -141t-135.5 -95.5t-153.5 -83q-18 -10 -27 -14q-18 -8 -80.5 -38 t-98.5 -50.5t-83 -53t-70.5 -70.5t-23.5 -79q0 -47 33.5 -80t97.5 -33q68 0 143.5 43t208.5 144q162 123 369 319l176 -186q-125 -125 -264 -238zM901 1110q0 49 -30.5 79t-84.5 30q-63 0 -106 -47.5t-43 -118.5q0 -59 63 -164q47 25 67.5 38t59.5 43.5t56.5 64.5t17.5 75z " glyph-name="uniE650" horiz-adv-x="1402" unicode=""/><glyph d="M741 928l-141 -228q-68 29 -123 88q-109 -102 -108 -253q0 -125 84 -212t225 -87t246.5 103t105.5 257q0 47 -12 86l-60 -31q-92 -51 -92 -127q0 -35 21 -65l-197 -115q-63 82 -63 186q0 100 64.5 186.5t166.5 143.5l354 203q102 55 103 135q0 45 -37 86l207 154 q100 -106 100 -240q0 -207 -244 -340l-71 -39q39 -92 39 -209q0 -264 -189.5 -453.5t-457.5 -189.5q-258 0 -416 159t-158 386q0 160 76 301t221 234q8 176 131 295.5t301 119.5q147 0 244.5 -77.5t126.5 -194.5l-238 -92q-10 47 -46 78.5t-91 31.5q-61 0 -106 -44t-45 -111 q-1 -86 79 -125z" glyph-name="uniE651" horiz-adv-x="1542" unicode=""/><glyph d="M307 78l103 -41q-133 -98 -195.5 -167t-62.5 -126q0 -53 67 -53q20 0 43 6l8 -215q-41 -8 -82 -8q-121 0 -188.5 53t-67.5 143q0 211 375 408z" glyph-name="uniE700" horiz-adv-x="399" unicode=""/><glyph d="M47 -666l-86 103q139 104 162 184q-57 -6 -97 33t-40 92q0 61 47 105.5t108 44.5q68 0 110 -44.5t42 -121.5q0 -113 -68.5 -215.5t-177.5 -180.5z" glyph-name="uniF6C3" horiz-adv-x="352" unicode=""/><glyph d="M307 584l23 125q-86 31 -134.5 103.5t-48.5 164.5q0 125 80 223t209 123l21 111h176l-23 -127q133 -51 170 -205l-198 -60q-16 90 -99 91q-53 0 -89 -43t-36 -101q0 -47 26 -76.5t73 -29.5q76 0 118 92l189 -62q-86 -190 -262 -219l-19 -110h-176z" glyph-name="uniF6E0" horiz-adv-x="741" unicode=""/><glyph d="M283 496l22 129q-92 25 -142 81t-50 132v12l206 31v-7q0 -88 127 -92q84 0 84 47q0 18 -16 35t-33.5 27t-60.5 31q-14 6 -21 10q-109 57 -164 110.5t-55 131.5q0 96 71 161.5t193 73.5l21 117h174l-25 -142q170 -57 170 -223v-24h-206v4q0 94 -103 94q-76 0 -76 -49 q0 -16 15.5 -31.5t32 -26t51.5 -28.5q63 -33 99 -54.5t76 -53t58.5 -69.5t18.5 -83q0 -96 -72 -161t-201 -71l-20 -112h-174z" glyph-name="uniF6E4" horiz-adv-x="749" unicode=""/><glyph d="M1253 674q-12 -4 -17 -11.5t-2 -15.5t13 -14l51 -37q16 -10 14.5 -20.5t-20.5 -12.5l-61 -12q-18 -2 -21.5 -14.5t7.5 -24.5l43 -45q14 -12 11 -22.5t-24 -8.5l-63 2q-18 0 -24.5 -10t3.5 -27l33 -53q8 -16 3 -24.5t-21 -1.5l-62 14q-16 4 -25.5 -5t-3.5 -26l21 -59 q6 -16 -1 -23.5t-24 0.5l-57 27q-35 16 -35 -25l10 -61q2 -18 -6 -23.5t-22 4.5l-51 41q-14 10 -25.5 5t-13.5 -23l-2 -64q-6 -37 -33 -10l-41 49q-27 29 -41 -8l-18 -61q-4 -18 -14.5 -19.5t-18.5 15.5l-31 55q-20 37 -43 0l-27 -55q-6 -10 -13 -14.5t-13 0.5t-8 18l-19 61 q-12 39 -39 8l-43 -49q-27 -31 -30 10l-5 64q-4 41 -41 18l-49 -41q-14 -10 -22 -5t-4 24l8 61q2 18 -9.5 25.5t-27.5 -0.5l-55 -27q-16 -8 -23.5 -1t-1.5 24l21 59q6 16 -2.5 25.5t-24.5 5.5l-63 -14q-16 -6 -22.5 3t3.5 23l35 53q8 16 2 26.5t-23 10.5l-65 -2 q-18 -2 -22.5 8.5t8.5 22.5l47 45q12 12 7 24.5t-24 14.5l-61 12q-18 2 -20.5 12.5t14.5 20.5l51 37q10 6 12 10q18 10 33 -12l29 -53q6 -12 12 -15.5t11 0.5t9 17l17 57q6 20 18 23.5t23 -13.5l43 -47q10 -14 19 -10t11 22l5 62q8 43 40 16l50 -37q14 -12 22 -7t4 24l-6 61 q-2 18 7.5 25.5t25.5 -0.5l57 -27q16 -8 23.5 -1t-0.5 24l-19 61q-6 16 2.5 24.5t24.5 6.5l35 -10q51 -66 84 -194t33 -206q-12 -14 -42 -24.5t-56.5 -4t-26.5 32.5q0 35 -24 60.5t-64 25.5q-35 0 -60.5 -26.5t-25.5 -63.5q0 -51 43 -85t114 -34q141 0 277 115 q98 84 156.5 203t58.5 215q0 70 -32 108.5t-83 38.5q-43 0 -72.5 -30.5t-29.5 -73.5t29.5 -75t70.5 -32q-23 -115 -84 -196q0 119 -40 226.5t-109 152.5q-4 4 -5 8l-45 43q-29 29 13 41l63 10q10 2 15.5 7t3.5 12.5t-13 13.5l-53 37q-35 25 4 41l57 26q18 4 18.5 14.5 t-18.5 18.5l-57 25q-23 2 -18 24q12 6 14 15l31 55q4 10 11 14t13 -1t9 -15l18 -62q14 -41 41 -10l41 51q27 27 33 -12l2 -61q2 -20 13 -24.5t26 5.5l51 39q14 10 22.5 5t5.5 -23l-10 -62q0 -41 35 -24l57 28q16 8 23.5 1t1.5 -25l-21 -60q-6 -16 3.5 -25.5t25.5 -4.5l62 14 q16 6 21 -1t-3 -24l-33 -53q-20 -39 21 -39l63 4q20 2 23.5 -9t-10.5 -23l-43 -46q-10 -12 -7.5 -24t21.5 -14l61 -11q18 -4 20.5 -14t-14.5 -18l-51 -37q-10 -6 -13 -15.5t2 -16.5t17 -11l58 -23q31 -16 0 -35z" glyph-name="uniF8FF" horiz-adv-x="1347" unicode=""/></font>
</defs>
</svg>
