<?xml version="1.0" standalone="no"?>
<!DOCTYPE svg PUBLIC "-//W3C//DTD SVG 1.1//EN" "http://www.w3.org/Graphics/SVG/1.1/DTD/svg11.dtd">
<svg xmlns="http://www.w3.org/2000/svg"><metadata>This SVG WebFont was generated by YouWorkForThem.
Copyright (c) 2018 by Ryan Martinson. All rights reserved.</metadata><defs><font horiz-adv-x="1296" id="ywftsvg"><font-face ascent="1638" bbox="-506 -1065 2976 2019" cap-height="1434" descent="-410" font-family="" font-stretch="normal" font-weight="825" panose-1="2 11 9 3 4 0 0 2 0 3" underline-position="0" underline-thickness="0" unicode-range="U+0020-FB04" units-per-em="2048" x-height="1057"/><missing-glyph d="M135 0l252 1434h936l-252 -1434h-936zM414 236h463l170 962h-463z" horiz-adv-x="1390"/><glyph d="M88 752l55 305h174l7 35q37 213 150.5 308t268.5 95q123 0 269 -57l-99 -256q-57 23 -114 22q-45 0 -73 -23.5t-42 -93.5l-6 -30h270l-53 -305h-270l-140 -797q-37 -211 -150.5 -306t-268.5 -95q-147 0 -291 65l102 254q68 -29 133 -29q45 0 74 25t41 96l139 787h-176z M1092 1329q0 90 68.5 155.5t162.5 65.5q84 0 139.5 -55t55.5 -135q0 -90 -69 -155.5t-163 -65.5q-84 0 -139 55t-55 135zM653 -377l97 273q37 -12 59 -13q59 0 74 78l192 1096h361l-201 -1141q-29 -170 -130 -251t-249 -81q-103 0 -203 39z" glyph-name="uniE200" horiz-adv-x="1456" unicode="fj"/><glyph d="M88 752l55 305h174l7 35q37 213 150.5 308t268.5 95q150 0 312 -74l-103 -252q-76 35 -153 35q-45 0 -73 -23.5t-42 -93.5l-6 -30h250l-54 -305h-249l-140 -797q-37 -211 -150.5 -306t-268.5 -95q-147 0 -291 65l102 254q68 -29 133 -29q45 0 74 25t41 96l139 787h-176z M963 752l55 305h153l7 37q37 211 149.5 306t267.5 95q125 0 271 -57l-99 -256q-57 23 -116 22q-45 0 -73 -23.5t-42 -93.5l-6 -30h272l-53 -305h-272l-140 -797q-37 -211 -149.5 -306t-269.5 -95q-145 0 -289 65l100 254q70 -29 133 -29q45 0 74 25t41 96l139 787h-153z M1942 1329q0 90 68.5 155.5t162.5 65.5q84 0 139 -55t55 -135q0 -90 -68.5 -155.5t-162.5 -65.5q-84 0 -139 55t-55 135zM1503 -377l96 273q37 -12 60 -13q59 0 74 78l192 1096h361l-201 -1141q-29 -170 -130.5 -251t-248.5 -81q-103 0 -203 39z" glyph-name="uniE201" horiz-adv-x="2308" unicode="ffj"/><glyph d="M88 752l55 305h174l7 35q37 213 150.5 308t268.5 95q123 0 269 -57l-99 -256q-57 23 -114 22q-45 0 -73 -23.5t-42 -93.5l-6 -30h270l-53 -305h-270l-140 -797q-37 -211 -150.5 -306t-268.5 -95q-147 0 -291 65l102 254q68 -29 133 -29q45 0 74 25t41 96l139 787h-176z M1501 1434l-86 -492q109 139 287 139q184 0 290.5 -131t106.5 -334q0 -111 -32.5 -221t-94 -205.5t-162 -155t-221.5 -59.5q-227 0 -315 166l-25 -141h-360l252 1434h360zM1561 764q-102 0 -168 -81t-66 -196q0 -86 46 -140t134 -54q102 0 168 82t66 194q0 86 -46 140.5 t-134 54.5z" glyph-name="uniE202" horiz-adv-x="2168" unicode="fb"/><glyph d="M88 752l55 305h174l7 35q37 213 150.5 308t268.5 95q150 0 312 -74l-103 -252q-76 35 -153 35q-45 0 -73 -23.5t-42 -93.5l-6 -30h250l-54 -305h-249l-140 -797q-37 -211 -150.5 -306t-268.5 -95q-147 0 -291 65l102 254q68 -29 133 -29q45 0 74 25t41 96l139 787h-176z M963 752l55 305h153l7 37q37 211 149.5 306t267.5 95q125 0 271 -57l-99 -256q-57 23 -116 22q-45 0 -73 -23.5t-42 -93.5l-6 -30h272l-53 -305h-272l-140 -797q-37 -211 -149.5 -306t-269.5 -95q-145 0 -289 65l100 254q70 -29 133 -29q45 0 74 25t41 96l139 787h-153z M2353 1434l-86 -492q109 139 287 139q184 0 290.5 -131t106.5 -334q0 -111 -32.5 -221t-94 -205.5t-162 -155t-221.5 -59.5q-227 0 -315 166l-25 -141h-360l252 1434h360zM2413 764q-102 0 -168 -81t-66 -196q0 -86 46 -140t134 -54q102 0 168 82t66 194q0 86 -46 140.5 t-134 54.5z" glyph-name="uniE203" horiz-adv-x="3018" unicode="ffb"/><glyph d="M88 752l55 305h174l7 35q37 213 150.5 308t268.5 95q123 0 269 -57l-99 -256q-57 23 -114 22q-45 0 -73 -23.5t-42 -93.5l-6 -30h270l-53 -305h-270l-140 -797q-37 -211 -150.5 -306t-268.5 -95q-147 0 -291 65l102 254q68 -29 133 -29q45 0 74 25t41 96l139 787h-176z M1589 0l-147 381h-127l-68 -381h-360l252 1434h360l-133 -760h102l246 383h408l-365 -545l209 -512h-377z" glyph-name="uniE204" horiz-adv-x="2074" unicode="fk"/><glyph d="M88 752l55 305h174l7 35q37 213 150.5 308t268.5 95q150 0 312 -74l-103 -252q-76 35 -153 35q-45 0 -73 -23.5t-42 -93.5l-6 -30h250l-54 -305h-249l-140 -797q-37 -211 -150.5 -306t-268.5 -95q-147 0 -291 65l102 254q68 -29 133 -29q45 0 74 25t41 96l139 787h-176z M963 752l55 305h153l7 37q37 211 149.5 306t267.5 95q125 0 271 -57l-99 -256q-57 23 -116 22q-45 0 -73 -23.5t-42 -93.5l-6 -30h272l-53 -305h-272l-140 -797q-37 -211 -149.5 -306t-269.5 -95q-145 0 -289 65l100 254q70 -29 133 -29q45 0 74 25t41 96l139 787h-153z M2443 0l-147 381h-127l-68 -381h-360l252 1434h360l-133 -760h102l246 383h408l-365 -545l209 -512h-377z" glyph-name="uniE205" horiz-adv-x="2928" unicode="ffk"/><glyph d="M88 752l55 305h174l7 35q37 213 150.5 308t268.5 95q123 0 269 -57l-99 -256q-57 23 -114 22q-45 0 -73 -23.5t-42 -93.5l-6 -30h270l-53 -305h-270l-140 -797q-37 -211 -150.5 -306t-268.5 -95q-147 0 -291 65l102 254q68 -29 133 -29q45 0 74 25t41 96l139 787h-176z M1573 0l104 592q4 23 4 53q0 70 -34.5 100.5t-85.5 30.5q-74 0 -134.5 -53t-74.5 -131l-105 -592h-360l252 1434h360l-88 -504q119 152 324 151q152 0 234.5 -86t82.5 -252q0 -63 -12 -137l-107 -606h-360z" glyph-name="uniE206" horiz-adv-x="2127" unicode="fh"/><glyph d="M88 752l55 305h174l7 35q37 213 150.5 308t268.5 95q150 0 312 -74l-103 -252q-76 35 -153 35q-45 0 -73 -23.5t-42 -93.5l-6 -30h250l-54 -305h-249l-140 -797q-37 -211 -150.5 -306t-268.5 -95q-147 0 -291 65l102 254q68 -29 133 -29q45 0 74 25t41 96l139 787h-176z M963 752l55 305h153l7 37q37 211 149.5 306t267.5 95q125 0 271 -57l-99 -256q-57 23 -116 22q-45 0 -73 -23.5t-42 -93.5l-6 -30h272l-53 -305h-272l-140 -797q-37 -211 -149.5 -306t-269.5 -95q-145 0 -289 65l100 254q70 -29 133 -29q45 0 74 25t41 96l139 787h-153z M2427 0l104 592q4 23 4 53q0 70 -34.5 100.5t-85.5 30.5q-74 0 -134.5 -53t-74.5 -131l-105 -592h-360l252 1434h360l-88 -504q119 152 324 151q152 0 234.5 -86t82.5 -252q0 -63 -12 -137l-107 -606h-360z" glyph-name="uniE207" horiz-adv-x="2981" unicode="ffh"/><glyph d="M88 752l55 305h174l7 35q37 213 150.5 308t268.5 95q123 0 269 -57l-99 -256q-57 23 -114 22q-45 0 -73 -23.5t-42 -93.5l-6 -30h252l-53 -305h-252l-140 -795q-37 -213 -150.5 -308t-268.5 -95q-147 0 -291 65l102 254q68 -29 133 -29q45 0 74 25t41 96l139 787h-176z M965 752l53 305h156l40 231l381 121l-61 -352h303l-55 -305h-303l-56 -320q-4 -20 -4 -47q0 -88 99 -88q61 0 137 31l71 -287q-152 -66 -292 -66q-375 0 -375 353q0 80 12 151l47 273h-153z" glyph-name="uniE208" horiz-adv-x="1816" unicode="ft"/><glyph d="M88 752l55 305h174l7 35q37 213 150.5 308t268.5 95q150 0 312 -74l-103 -252q-76 35 -153 35q-45 0 -73 -23.5t-42 -93.5l-6 -30h250l-54 -305h-249l-140 -797q-37 -211 -150.5 -306t-268.5 -95q-147 0 -291 65l102 254q68 -29 133 -29q45 0 74 25t41 96l139 787h-176z M963 752l55 305h153l7 37q37 211 149.5 306t267.5 95q125 0 271 -57l-99 -256q-57 23 -116 22q-45 0 -73 -23.5t-42 -93.5l-6 -30h252l-53 -305h-252l-140 -797q-37 -211 -149.5 -306t-269.5 -95q-145 0 -289 65l100 254q70 -29 133 -29q45 0 74 25t41 96l139 787h-153z M1817 752l53 305h155l41 231l381 121l-61 -352h303l-55 -305h-303l-56 -320q-4 -20 -4 -47q0 -88 99 -88q61 0 137 31l71 -287q-152 -66 -292 -66q-375 0 -375 353q0 80 12 151l47 273h-153z" glyph-name="uniE209" horiz-adv-x="2668" unicode="fft"/><glyph d="M991 752l56 305h151l41 231l381 121l-61 -352h303l-56 -305h-303l-55 -320q-4 -20 -4 -47q0 -88 98 -88q61 0 137 31l72 -287q-152 -66 -293 -66q-375 0 -375 353q0 80 13 151l47 273h-152zM70 752l53 305h174l41 231l381 121l-62 -352h291l-55 -305h-291l-55 -320 q-4 -20 -4 -47q0 -88 98 -88q61 0 137 31l72 -287q-152 -66 -293 -66q-375 0 -375 353q0 80 13 151l47 273h-172z" glyph-name="uniE210" horiz-adv-x="1843" unicode="tt"/><glyph d="M88 752l55 305h174l7 35q37 213 150.5 308t268.5 95q150 0 312 -74l-103 -252q-76 35 -153 35q-45 0 -73 -23.5t-42 -93.5l-6 -30h250l-54 -305h-249l-140 -797q-37 -211 -150.5 -306t-268.5 -95q-147 0 -291 65l102 254q68 -29 133 -29q45 0 74 25t41 96l139 787h-176z M963 752l55 305h153l7 37q37 211 149.5 306t267.5 95q145 0 314 -74l-105 -252q-74 35 -153 35q-45 0 -73 -23.5t-42 -93.5l-6 -30h272l-53 -305h-272l-140 -797q-37 -211 -149.5 -306t-269.5 -95q-145 0 -289 65l100 254q70 -29 133 -29q45 0 74 25t41 96l139 787h-153z " glyph-name="uniFB00" horiz-adv-x="1738" unicode="ff"/><glyph d="M88 752l55 305h174l7 35q37 213 150.5 308t268.5 95q123 0 269 -57l-99 -256q-57 23 -114 22q-45 0 -73 -23.5t-42 -93.5l-6 -30h270l-53 -305h-270l-140 -797q-37 -211 -150.5 -306t-268.5 -95q-147 0 -291 65l102 254q68 -29 133 -29q45 0 74 25t41 96l139 787h-176z M1090 1329q0 90 69.5 155.5t163.5 65.5q84 0 139.5 -55t55.5 -135q0 -90 -70 -155.5t-164 -65.5q-82 0 -138 55t-56 135zM887 0l186 1057h361l-187 -1057h-360z" glyph-name="uniFB01" horiz-adv-x="1456" unicode="fi"/><glyph d="M88 752l55 305h174l7 35q37 213 150.5 308t268.5 95q123 0 269 -57l-99 -256q-57 23 -114 22q-45 0 -73 -23.5t-42 -93.5l-6 -30h270l-53 -305h-270l-140 -797q-37 -211 -150.5 -306t-268.5 -95q-147 0 -291 65l102 254q68 -29 133 -29q45 0 74 25t41 96l139 787h-176z M887 0l252 1434h360l-252 -1434h-360z" glyph-name="uniFB02" horiz-adv-x="1456" unicode="fl"/><glyph d="M88 752l55 305h174l7 35q37 213 150.5 308t268.5 95q150 0 312 -74l-103 -252q-76 35 -153 35q-45 0 -73 -23.5t-42 -93.5l-6 -30h250l-54 -305h-249l-140 -797q-37 -211 -150.5 -306t-268.5 -95q-147 0 -291 65l102 254q68 -29 133 -29q45 0 74 25t41 96l139 787h-176z M963 752l55 305h153l7 37q37 211 149.5 306t267.5 95q125 0 271 -57l-99 -256q-57 23 -116 22q-45 0 -73 -23.5t-42 -93.5l-6 -30h272l-53 -305h-272l-140 -797q-37 -211 -149.5 -306t-269.5 -95q-145 0 -289 65l100 254q70 -29 133 -29q45 0 74 25t41 96l139 787h-153z M1944 1329q0 90 69.5 155.5t163.5 65.5q84 0 139.5 -55t55.5 -135q0 -90 -70 -155.5t-164 -65.5q-82 0 -138 55t-56 135zM1741 0l186 1057h361l-187 -1057h-360z" glyph-name="uniFB03" horiz-adv-x="2308" unicode="ffi"/><glyph d="M88 752l55 305h174l7 35q37 213 150.5 308t268.5 95q150 0 312 -74l-103 -252q-76 35 -153 35q-45 0 -73 -23.5t-42 -93.5l-6 -30h250l-54 -305h-249l-140 -797q-37 -211 -150.5 -306t-268.5 -95q-147 0 -291 65l102 254q68 -29 133 -29q45 0 74 25t41 96l139 787h-176z M963 752l55 305h153l7 37q37 211 149.5 306t267.5 95q125 0 271 -57l-99 -256q-57 23 -116 22q-45 0 -73 -23.5t-42 -93.5l-6 -30h272l-53 -305h-272l-140 -797q-37 -211 -149.5 -306t-269.5 -95q-145 0 -289 65l100 254q70 -29 133 -29q45 0 74 25t41 96l139 787h-153z M1741 0l252 1434h360l-252 -1434h-360z" glyph-name="uniFB04" horiz-adv-x="2308" unicode="ffl"/><glyph d="M135 0l252 1434h936l-252 -1434h-936zM414 236h463l170 962h-463z" glyph-name=".notdef" horiz-adv-x="1390"/><glyph glyph-name="glyph1" horiz-adv-x="0"/><glyph glyph-name="glyph2" horiz-adv-x="681"/><glyph glyph-name="space" horiz-adv-x="434" unicode=" "/><glyph d="M45 160q0 86 66.5 147.5t154.5 61.5q80 0 134.5 -53.5t54.5 -129.5q0 -88 -66.5 -149.5t-155.5 -61.5q-80 0 -134 53.5t-54 131.5zM258 1434h428l-258 -940h-242z" glyph-name="exclam" horiz-adv-x="624" unicode="!"/><glyph d="M438 772h-266l86 662h330zM868 772h-266l86 662h330z" glyph-name="quotedbl" horiz-adv-x="960" unicode="&quot;"/><glyph d="M213 854l47 266h250l106 314h269l-107 -314h232l106 314h270l-106 -314h201l-47 -266h-246l-94 -274h209l-50 -267h-249l-107 -313h-268l106 313h-231l-107 -313h-270l106 313h-200l47 267h244l94 274h-205zM686 854l-92 -274h231l93 274h-232z" glyph-name="numbersign" horiz-adv-x="1445" unicode="#"/><glyph d="M319 -154l39 220q-145 41 -226 133t-81 223l334 67v-22q0 -76 50 -118t138 -42q59 0 105.5 23.5t46.5 83.5q0 16 -4 29.5t-16.5 25.5t-22.5 21.5t-32.5 21.5t-37 19.5t-45 22.5t-47.5 24q-170 88 -259 188t-89 238q0 170 118 273t302 116l35 194h280l-39 -223 q272 -94 273 -406v-18h-330v10q0 86 -45 132t-115 46q-55 0 -96 -26.5t-41 -79.5q0 -51 40 -85t130 -79q94 -49 151.5 -84t118 -87t88 -113.5t27.5 -137.5q0 -166 -111.5 -274.5t-322.5 -120.5l-35 -195h-281z" glyph-name="dollar" horiz-adv-x="1161" unicode="$"/><glyph d="M416 0h-297l1288 1434h297zM156 1063q0 158 117.5 276.5t281.5 118.5q154 0 249 -99t95 -239q0 -158 -117.5 -276.5t-281.5 -118.5q-154 0 -249 99.5t-95 238.5zM539 1223q-57 0 -97.5 -41t-40.5 -105q0 -51 31 -83.5t84 -32.5q57 0 97 40.5t40 104.5q0 51 -30.5 84 t-83.5 33zM926 311q0 158 117.5 277t281.5 119q154 0 249 -99.5t95 -238.5q0 -158 -117.5 -277t-281.5 -119q-154 0 -249 99.5t-95 238.5zM1309 471q-57 0 -97.5 -41t-40.5 -104q0 -51 31 -84t84 -33q57 0 97 41t40 104q0 51 -30.5 84t-83.5 33z" glyph-name="percent" horiz-adv-x="1757" unicode="%"/><glyph d="M1339 0h-419l-74 106q-223 -131 -408 -131q-195 0 -301 92.5t-106 237.5q0 162 100 268.5t277 188.5q-70 139 -70 264q0 186 132 309t325 123q186 0 294.5 -101.5t108.5 -242.5q0 -242 -338 -420l109 -155q133 104 233 196l191 -215q-111 -104 -260 -221zM477 246 q84 0 211 88l-141 205q-53 -27 -83 -44.5t-66 -59.5t-36 -89q0 -43 30 -71.5t85 -28.5zM793 1198q-57 0 -96.5 -42t-39.5 -114q0 -55 60 -143q53 29 82.5 48.5t62.5 63.5t33 93q0 43 -27.5 68.5t-74.5 25.5z" glyph-name="ampersand" horiz-adv-x="1427" unicode="&amp;"/><glyph d="M438 772h-266l86 662h330z" glyph-name="quotesingle" horiz-adv-x="530" unicode="'"/><glyph d="M559 1522l246 -193q-178 -236 -275.5 -523.5t-97.5 -592.5q0 -289 86 -524l-305 -146q-158 311 -158 695q0 344 130 687t374 597z" glyph-name="parenleft" horiz-adv-x="714" unicode="("/><glyph d="M156 -457l-246 193q178 236 275.5 523.5t97.5 592.5q0 289 -86 524l305 146q158 -311 157 -695q0 -344 -129.5 -687t-373.5 -597z" glyph-name="parenright" horiz-adv-x="712" unicode=")"/><glyph d="M784 1421l-77 -282l270 94l37 -250l-283 -37l152 -225l-232 -133l-96 254l-182 -230l-176 170l221 193l-262 84l120 237l234 -139l18 285z" glyph-name="asterisk" horiz-adv-x="999" unicode="*"/><glyph d="M133 819h256l49 281h301l-49 -281h258l-53 -295h-258l-49 -282h-301l49 282h-256z" glyph-name="plus" horiz-adv-x="978" unicode="+"/><glyph d="M102 -408l-114 146q190 127 223 239q-86 -2 -139.5 52.5t-53.5 128.5q0 86 68 147.5t160 61.5q94 0 155.5 -62.5t61.5 -167.5q0 -137 -97.5 -288t-263.5 -257z" glyph-name="comma" horiz-adv-x="600" unicode=","/><glyph d="M782 756l-55 -312h-629l56 312h628z" glyph-name="hyphen" horiz-adv-x="858" unicode="-"/><glyph d="M16 170q0 92 71 157.5t165 65.5q86 0 142.5 -56t56.5 -138q0 -92 -71 -158t-165 -66q-86 0 -142.5 56.5t-56.5 138.5z" glyph-name="period" horiz-adv-x="581" unicode="."/><glyph d="M817 1434h354l-856 -1434h-356z" glyph-name="slash" horiz-adv-x="1067" unicode="/"/><glyph d="M109 559q0 147 39.5 299t117.5 289t212 224t304 87q268 0 399.5 -164t131.5 -420q0 -147 -40 -298.5t-118 -288.5t-212 -224.5t-304 -87.5q-268 0 -399 164t-131 420zM768 1120q-74 0 -133.5 -60.5t-92 -150.5t-49 -178t-16.5 -160q0 -123 45 -190.5t131 -67.5 q74 0 133.5 60.5t92 150.5t49 178.5t16.5 159.5q0 123 -45 190.5t-131 67.5z" glyph-name="zero" horiz-adv-x="1353" unicode="0"/><glyph d="M123 848l70 391l385 195h292l-252 -1434h-366l174 999z" glyph-name="one" horiz-adv-x="856" unicode="1"/><glyph d="M1087 330l-55 -330h-1028l51 285q377 238 566 409q213 188 213 322q0 53 -34 85t-95 32q-154 0 -183 -232h-360q16 147 71.5 259t135.5 174.5t171 93t191 30.5q207 0 340 -117.5t133 -298.5q0 -291 -354 -567q-100 -76 -209 -145h446z" glyph-name="two" horiz-adv-x="1224" unicode="2"/><glyph d="M397 565l52 289q80 -2 151.5 11.5t133 59.5t61.5 122q0 49 -33 77.5t-90 28.5q-61 0 -104.5 -37t-49.5 -112h-354q4 154 85 259t193.5 150t245.5 45q205 0 341 -107.5t136 -277.5q0 -274 -293 -373q213 -96 213 -296.5t-151.5 -314.5t-382.5 -114q-303 0 -571 189 l202 268q217 -139 371 -139q78 0 120 33.5t42 91.5q0 61 -74 104t-244 43z" glyph-name="three" horiz-adv-x="1198" unicode="3"/><glyph d="M956 0h-350l47 264h-635l48 271l487 899h412l-502 -869h244l61 344l371 113l-82 -457h172l-51 -301h-174z" glyph-name="four" horiz-adv-x="1277" unicode="4"/><glyph d="M334 1434h848l-58 -330h-491l-35 -203q262 -23 384 -141.5t122 -292.5q0 -215 -140.5 -353.5t-402.5 -138.5q-297 0 -573 189l202 268q213 -139 365 -139q76 0 124 37t48 110q0 166 -354 166h-185z" glyph-name="five" horiz-adv-x="1198" unicode="5"/><glyph d="M1204 1434l-454 -461q178 -2 292.5 -125t114.5 -303q0 -236 -164 -403t-415 -167q-231 0 -369.5 141.5t-138.5 342.5q0 152 74.5 279.5t211.5 273.5l402 422h446zM635 707q-94 0 -158.5 -68t-64.5 -164q0 -78 49 -129t133 -51q92 0 156.5 69.5t64.5 163.5q0 76 -49 127.5 t-131 51.5z" glyph-name="six" horiz-adv-x="1232" unicode="6"/><glyph d="M160 1087l61 347h967l-51 -293l-684 -1141h-437l682 1087h-538z" glyph-name="seven" horiz-adv-x="1093" unicode="7"/><glyph d="M1174 434q0 -211 -156 -335t-393 -124q-250 0 -408 116t-158 298q0 141 80 247.5t221 154.5q-125 92 -124 245q0 190 143 306t356 116q225 0 367.5 -105.5t142.5 -273.5q0 -119 -62.5 -215t-176.5 -143q168 -105 168 -287zM616 270q88 0 147.5 53.5t59.5 139.5 q0 70 -50 116t-138 46q-90 0 -149.5 -53.5t-59.5 -141.5q0 -70 50 -115t140 -45zM729 879q74 0 123 46t49 117q0 57 -43 94.5t-119 37.5q-78 0 -125 -48.5t-47 -113.5q0 -57 44 -95t118 -38z" glyph-name="eight" horiz-adv-x="1282" unicode="8"/><glyph d="M96 0l455 461q-178 2 -293 125t-115 303q0 236 164 402.5t416 166.5q231 0 369.5 -141t138.5 -342q0 -152 -75 -280t-212 -273l-401 -422h-447zM666 727q94 0 158.5 67.5t64.5 163.5q0 78 -49 129.5t-133 51.5q-92 0 -157 -70t-65 -164q0 -76 49.5 -127t131.5 -51z" glyph-name="nine" horiz-adv-x="1232" unicode="9"/><glyph d="M35 170q0 92 70.5 157.5t164.5 65.5q86 0 142.5 -56t56.5 -138q0 -92 -70.5 -158t-165.5 -66q-86 0 -142 56.5t-56 138.5zM152 831q0 92 70.5 158t164.5 66q86 0 142.5 -56.5t56.5 -138.5q0 -92 -71 -157.5t-165 -65.5q-86 0 -142 56t-56 138z" glyph-name="colon" horiz-adv-x="624" unicode=":"/><glyph d="M121 -408l-115 146q190 127 223 239q-86 -2 -139 52.5t-53 128.5q0 86 67.5 147.5t159.5 61.5q94 0 155.5 -62.5t61.5 -167.5q0 -137 -97 -288t-263 -257zM154 831q0 92 70.5 158t164.5 66q86 0 142.5 -56.5t56.5 -138.5q0 -92 -71 -157.5t-165 -65.5q-86 0 -142 56 t-56 138z" glyph-name="semicolon" horiz-adv-x="645" unicode=";"/><glyph d="M61 522l54 301l886 402l-69 -381l-465 -191l399 -188l-61 -344z" glyph-name="less" horiz-adv-x="1003" unicode="&lt;"/><glyph d="M162 743l51 295h817l-51 -295h-817zM84 307l53 293h817l-53 -293h-817z" glyph-name="equal" horiz-adv-x="1067" unicode="="/><glyph d="M993 821l-53 -301l-887 -401l70 381l465 190l-400 189l62 344z" glyph-name="greater" horiz-adv-x="1005" unicode=">"/><glyph d="M653 483h-321l14 82q33 190 244 322q10 6 44 26.5t50 31.5t38.5 30.5t33 42t10.5 49.5q0 43 -30.5 67.5t-78.5 24.5q-72 0 -114.5 -52t-53.5 -142h-352q20 250 174 376.5t363 126.5q203 0 327.5 -102t124.5 -266q0 -141 -70.5 -230.5t-215.5 -179.5q-47 -29 -68.5 -44 t-50.5 -38.5t-43 -48t-21 -55.5zM231 160q0 86 67 147.5t157 61.5q80 0 133 -53.5t53 -129.5q0 -88 -66.5 -149.5t-154.5 -61.5q-80 0 -134.5 53.5t-54.5 131.5z" glyph-name="question" horiz-adv-x="1097" unicode="?"/><glyph d="M858 956q164 0 240 -116l18 100h273l-97 -545q-6 -39 -6 -71q0 -106 78 -107q80 0 144.5 130t64.5 292q0 246 -159 410.5t-443 164.5q-293 0 -496 -226t-203 -537q0 -256 159 -425t441 -169q182 0 345 94l77 -150q-193 -119 -430 -118q-362 0 -575 220t-213 543 q0 244 114.5 461t325.5 352.5t467 135.5q242 0 423 -106.5t271 -275.5t90 -372q0 -248 -120.5 -430t-315.5 -182q-106 0 -182 50t-107 146q-104 -115 -247 -114q-164 0 -254 101t-90 255q0 199 119.5 344t287.5 145zM872 346q78 0 127.5 61.5t49.5 145.5q0 70 -38 113 t-108 43q-76 0 -125 -63.5t-49 -145.5q0 -68 37.5 -111t105.5 -43z" glyph-name="at" horiz-adv-x="1841" unicode="@"/><glyph d="M711 1434h407l305 -1434h-387l-37 219h-563l-112 -219h-422zM860 1036l-266 -512h352z" glyph-name="A" horiz-adv-x="1511" unicode="A"/><glyph d="M305 1434h678q219 0 331.5 -98.5t112.5 -252.5q0 -125 -61 -223t-178 -139q195 -88 194.5 -293t-137.5 -316.5t-366 -111.5h-826zM860 596h-336l-53 -301h363q72 0 122 44t50 124q0 55 -38 94t-108 39zM930 1137h-312l-47 -267h332q59 0 102.5 42t43.5 118q0 49 -31 78 t-88 29z" glyph-name="B" horiz-adv-x="1480" unicode="B"/><glyph d="M1161 594l357 -109q-92 -240 -292 -375t-438 -135q-311 0 -494 191.5t-183 472.5q0 342 229 580.5t559 238.5q270 0 444.5 -146.5t217.5 -377.5l-373 -100q-18 121 -100 197.5t-209 76.5q-164 0 -275.5 -132t-111.5 -310q0 -145 85 -242.5t232 -97.5q113 0 209 71.5 t143 196.5z" glyph-name="C" horiz-adv-x="1562" unicode="C"/><glyph d="M53 0l252 1434h565q319 0 489.5 -169t170.5 -446q0 -162 -50 -308t-143.5 -261t-242 -182.5t-330.5 -67.5h-711zM844 1106h-230l-137 -778h285q184 0 284.5 137t100.5 332q0 143 -75.5 226t-227.5 83z" glyph-name="D" horiz-adv-x="1572" unicode="D"/><glyph d="M53 0l252 1434h1106l-57 -328h-740l-43 -236h596l-53 -303h-596l-41 -239h740l-58 -328h-1106z" glyph-name="E" horiz-adv-x="1347" unicode="E"/><glyph d="M53 0l252 1434h1071l-59 -340h-705l-51 -289h633l-55 -328h-635l-84 -477h-367z" glyph-name="F" horiz-adv-x="1300" unicode="F"/><glyph d="M774 549l47 272h729l-145 -821h-260l33 193q-150 -217 -428 -218q-297 0 -468 193.5t-171 470.5q0 332 223 575.5t575 243.5q207 0 372 -94t255 -250l-299 -194q-121 197 -332 196q-178 0 -295.5 -133t-117.5 -326q0 -143 79.5 -240.5t229.5 -97.5q111 0 195.5 59.5 t133.5 170.5h-356z" glyph-name="G" horiz-adv-x="1603" unicode="G"/><glyph d="M1274 1434h366l-251 -1434h-367l96 555h-602l-96 -555h-367l252 1434h367l-99 -553h603z" glyph-name="H" horiz-adv-x="1628" unicode="H"/><glyph d="M305 1434h371l-252 -1434h-371z" glyph-name="I" horiz-adv-x="661" unicode="I"/><glyph d="M381 1094l59 340h930l-166 -942q-41 -236 -204.5 -376.5t-391.5 -140.5q-268 0 -410.5 144.5t-142.5 361.5q0 49 11 115l22 127h367l-19 -107q-8 -49 -8 -96q0 -201 188 -201q190 0 236 254l92 521h-563z" glyph-name="J" horiz-adv-x="1341" unicode="J"/><glyph d="M1006 0l-256 555h-232l-98 -555h-367l252 1434h367l-97 -553h191l434 553h430l-557 -709l334 -725h-401z" glyph-name="K" horiz-adv-x="1499" unicode="K"/><glyph d="M53 0l252 1434h367l-193 -1092h695l-60 -342h-1061z" glyph-name="L" horiz-adv-x="1247" unicode="L"/><glyph d="M420 0h-367l252 1434h383l246 -852l579 852h381l-252 -1434h-366l137 782l-420 -622h-237l-191 665z" glyph-name="M" horiz-adv-x="1880" unicode="M"/><glyph d="M420 0h-367l252 1434h373l444 -883l156 883h367l-252 -1434h-373l-445 883z" glyph-name="N" horiz-adv-x="1630" unicode="N"/><glyph d="M109 637q0 211 97 397.5t283.5 305t419.5 118.5q315 0 500.5 -190.5t185.5 -470.5q0 -211 -97 -397.5t-283.5 -305.5t-419.5 -119q-315 0 -500.5 190.5t-185.5 471.5zM887 1108q-170 0 -282.5 -133t-112.5 -309q0 -145 87 -242.5t238 -97.5q170 0 282.5 133t112.5 309 q0 145 -86.5 242.5t-238.5 97.5z" glyph-name="O" horiz-adv-x="1640" unicode="O"/><glyph d="M53 0l252 1434h584q268 0 408.5 -140.5t140.5 -351.5q0 -274 -168 -446t-461 -172h-332l-57 -324h-367zM535 647h233q137 0 214 69.5t77 209.5q0 184 -238 184h-207z" glyph-name="P" horiz-adv-x="1437" unicode="P"/><glyph d="M1546 -35l109 -297q-115 -74 -283 -74q-328 0 -637 383q-289 18 -457.5 206t-168.5 454q0 211 97 397.5t283.5 305t419.5 118.5q315 0 500.5 -190.5t185.5 -470.5q0 -233 -118.5 -434t-331.5 -310q115 -123 264 -123q69 0 137 35zM887 1108q-166 0 -280.5 -133 t-114.5 -309q0 -145 87 -242.5t238 -97.5q170 0 282.5 133t112.5 309q0 145 -86.5 242.5t-238.5 97.5z" glyph-name="Q" horiz-adv-x="1640" unicode="Q"/><glyph d="M53 0l252 1434h621q258 0 389 -130t131 -327q0 -174 -85 -316.5t-239 -209.5l228 -451h-392l-188 399h-281l-69 -399h-367zM545 719h266q117 0 185.5 56t68.5 173q0 78 -48 122t-147 44h-256z" glyph-name="R" horiz-adv-x="1488" unicode="R"/><glyph d="M57 424l367 74v-15q0 -213 278 -213q84 0 135.5 30t51.5 83q0 16 -6 30.5t-22.5 29t-30 23.5t-43 23.5t-46 22.5t-57.5 24.5t-59 24.5q-219 92 -328 195.5t-109 259.5q0 215 157 328.5t398 113.5q266 0 432 -122t166 -361v-29h-364v19q0 199 -234 198q-70 0 -123 -26.5 t-53 -87.5q0 -37 34 -70t73 -52.5t121 -56.5q96 -43 148 -67.5t125 -69.5t108.5 -85t63.5 -100.5t28 -131.5q0 -213 -153.5 -327t-414.5 -114q-119 0 -228.5 25t-204.5 75t-152.5 137t-57.5 200v12z" glyph-name="S" horiz-adv-x="1372" unicode="S"/><glyph d="M145 1094l62 340h1227l-60 -340h-430l-192 -1094h-367l193 1094h-433z" glyph-name="T" horiz-adv-x="1320" unicode="T"/><glyph d="M1233 1434h366l-149 -850q-49 -281 -235.5 -445t-452.5 -164q-305 0 -464 162t-159 418q0 76 13 145l129 734h366l-129 -736q-10 -57 -10 -106q0 -133 69.5 -201.5t202.5 -68.5q258 0 316 329z" glyph-name="U" horiz-adv-x="1570" unicode="U"/><glyph d="M850 0h-412l-280 1434h393l158 -969l499 969h422z" glyph-name="V" horiz-adv-x="1472" unicode="V"/><glyph d="M745 0h-413l-129 1434h385l63 -887l410 887h379l80 -873l370 873h410l-635 -1434h-414l-84 911z" glyph-name="W" horiz-adv-x="2181" unicode="W"/><glyph d="M1638 1434l-579 -719l348 -715h-424l-207 467l-370 -467h-500l602 717l-326 717h424l191 -488l362 488h479z" glyph-name="X" horiz-adv-x="1501" unicode="X"/><glyph d="M563 1434l207 -566l406 566h471l-729 -932l-91 -502h-366l86 498l-400 936h416z" glyph-name="Y" horiz-adv-x="1472" unicode="Y"/><glyph d="M205 1094l59 340h1202l-53 -306l-838 -788h699l-60 -340h-1222l55 305l836 789h-678z" glyph-name="Z" horiz-adv-x="1402" unicode="Z"/><glyph d="M625 -86l-52 -281h-593l317 1801h594l-49 -281h-248l-217 -1239h248z" glyph-name="bracketleft" horiz-adv-x="798" unicode="["/><glyph d="M199 1434h313l377 -1434h-316z" glyph-name="backslash" horiz-adv-x="1017" unicode="\"/><glyph d="M176 1153l51 281h594l-317 -1801h-594l49 281h248l217 1239h-248z" glyph-name="bracketright" horiz-adv-x="798" unicode="]"/><glyph d="M575 1434h302l210 -775h-321l-86 410l-223 -410h-367z" glyph-name="asciicircum" horiz-adv-x="1124" unicode="^"/><glyph d="M930 -143l-47 -263h-1049l47 263h1049z" glyph-name="underscore" horiz-adv-x="1048" unicode="_"/><glyph d="M772 1575l-246 -74l-223 318l268 174z" glyph-name="grave" horiz-adv-x="661" unicode="`"/><glyph d="M729 0l21 115q-109 -139 -287 -140q-184 0 -290.5 131.5t-106.5 333.5q0 111 32.5 221.5t94 206t162 154.5t220.5 59q227 0 316 -166l24 142h361l-186 -1057h-361zM604 293q102 0 168 81t66 195q0 86 -46.5 140.5t-134.5 54.5q-102 0 -167.5 -82t-65.5 -195 q0 -86 46 -140t134 -54z" glyph-name="a" unicode="a"/><glyph d="M631 1434l-86 -492q109 139 286 139q184 0 291 -131t107 -334q0 -111 -33 -221t-94.5 -205.5t-161.5 -155t-221 -59.5q-227 0 -316 166l-24 -141h-361l252 1434h361zM690 764q-102 0 -167.5 -81t-65.5 -196q0 -86 46 -140t134 -54q102 0 167.5 82t65.5 194 q0 86 -46 140.5t-134 54.5z" glyph-name="b" horiz-adv-x="1298" unicode="b"/><glyph d="M805 457l315 -97q-66 -180 -214 -282.5t-324 -102.5q-238 0 -376 142.5t-138 353.5q0 246 165.5 428t415.5 182q207 0 339 -109.5t165 -283.5l-332 -90q-8 78 -52 122t-126 44q-102 0 -163.5 -83t-61.5 -198q0 -84 46 -137t132 -53q70 0 126 43t83 121z" glyph-name="c" horiz-adv-x="1189" unicode="c"/><glyph d="M729 0l21 115q-109 -139 -287 -140q-184 0 -290.5 131.5t-106.5 333.5q0 111 32.5 221.5t94 206t162 154.5t220.5 59q227 0 316 -166l90 519h360l-251 -1434h-361zM604 293q102 0 168 81t66 195q0 86 -46.5 140.5t-134.5 54.5q-102 0 -167.5 -82t-65.5 -195 q0 -86 46 -140t134 -54z" glyph-name="d" unicode="d"/><glyph d="M905 340l129 -227q-178 -137 -426 -138q-262 0 -402 140.5t-140 349.5q0 260 175 438t445 178q211 0 331 -95t120 -243q0 -160 -146.5 -262t-431.5 -102h-129q45 -125 219 -125q127 0 256 86zM676 809q-86 0 -151.5 -53.5t-92.5 -151.5h62q293 0 292 123q0 39 -30.5 60.5 t-79.5 21.5z" glyph-name="e" horiz-adv-x="1177" unicode="e"/><glyph d="M88 752l55 305h174l7 35q37 213 150.5 308t268.5 95q150 0 312 -74l-103 -252q-76 35 -153 35q-45 0 -73 -23.5t-42 -93.5l-6 -30h270l-53 -305h-270l-140 -797q-37 -211 -150.5 -306t-268.5 -95q-147 0 -291 65l102 254q68 -29 133 -29q45 0 74 25t41 96l139 787h-176z " glyph-name="f" horiz-adv-x="884" unicode="f"/><glyph d="M74 477q0 106 31.5 211t90 194t153.5 144t210 55q217 0 309 -176l27 152h360l-161 -920q-53 -299 -206 -426t-362 -127q-168 0 -313 62.5t-242 160.5l199 238q184 -162 332 -162q184 0 227 234l8 45q-113 -119 -266 -119q-186 0 -291.5 123t-105.5 311zM647 772 q-92 0 -154.5 -70.5t-62.5 -169.5q0 -78 48 -130t128 -52q92 0 154.5 71t62.5 169q0 78 -48 130t-128 52z" glyph-name="g" horiz-adv-x="1273" unicode="g"/><glyph d="M705 0l104 592q4 23 4 53q0 70 -35 100.5t-86 30.5q-74 0 -134 -53t-75 -131l-104 -592h-361l252 1434h361l-88 -504q119 152 323 151q152 0 235 -86t83 -252q0 -63 -13 -137l-106 -606h-360z" glyph-name="h" horiz-adv-x="1259" unicode="h"/><glyph d="M221 1329q0 90 69.5 155.5t164.5 65.5q84 0 139 -55t55 -135q0 -90 -69.5 -155.5t-163.5 -65.5q-82 0 -138.5 55t-56.5 135zM18 0l187 1057h360l-186 -1057h-361z" glyph-name="i" horiz-adv-x="585" unicode="i"/><glyph d="M236 1329q0 90 68.5 155.5t162.5 65.5q84 0 139.5 -55t55.5 -135q0 -90 -69 -155.5t-163 -65.5q-84 0 -139 55t-55 135zM-203 -377l97 273q37 -12 59 -13q59 0 74 78l192 1096h361l-201 -1141q-29 -170 -130.5 -251t-248.5 -81q-103 0 -203 39z" glyph-name="j" horiz-adv-x="600" unicode="j"/><glyph d="M721 0l-148 381h-127l-67 -381h-361l252 1434h361l-133 -760h102l246 383h407l-364 -545l209 -512h-377z" glyph-name="k" horiz-adv-x="1206" unicode="k"/><glyph d="M18 0l252 1434h361l-252 -1434h-361z" glyph-name="l" horiz-adv-x="587" unicode="l"/><glyph d="M1329 0l109 614q4 20 4 48q0 61 -33 88.5t-80 27.5q-68 0 -122 -49t-64 -115l-109 -614h-360l108 612q4 18 4 50q0 61 -31.5 88.5t-80.5 27.5q-68 0 -122 -50t-65 -114l-106 -614h-363l187 1057h360l-22 -127q111 152 303 151q223 0 289 -182q117 182 348 182 q158 0 243.5 -85t85.5 -244q0 -59 -12 -127l-110 -625h-361z" glyph-name="m" horiz-adv-x="1884" unicode="m"/><glyph d="M705 0l104 592q4 23 4 53q0 70 -35 100.5t-86 30.5q-74 0 -134 -53t-75 -131l-104 -592h-361l187 1057h360l-22 -127q119 152 323 151q152 0 235 -86t83 -252q0 -63 -13 -137l-106 -606h-360z" glyph-name="n" horiz-adv-x="1259" unicode="n"/><glyph d="M68 473q0 258 173 433t414.5 175t382 -143t140.5 -354q0 -258 -173.5 -433.5t-415 -175.5t-381.5 143.5t-140 354.5zM645 764q-100 0 -164.5 -83t-64.5 -194q0 -86 47 -140t137 -54q100 0 164.5 83t64.5 193q0 86 -47 140.5t-137 54.5z" glyph-name="o" horiz-adv-x="1245" unicode="o"/><glyph d="M567 1057l-20 -115q109 139 287 139q184 0 290.5 -131t106.5 -334q0 -111 -33 -221t-94.5 -205.5t-161.5 -155t-221 -59.5q-227 0 -315 166l-91 -508h-360l252 1424h360zM692 764q-102 0 -167.5 -81t-65.5 -196q0 -86 46 -140t134 -54q102 0 167.5 82t65.5 194 q0 86 -46 140.5t-134 54.5z" glyph-name="p" horiz-adv-x="1298" unicode="p"/><glyph d="M666 -367l84 482q-109 -139 -287 -140q-184 0 -290.5 131.5t-106.5 333.5q0 111 32.5 221.5t94 206t162 154.5t220.5 59q227 0 316 -166l24 142h361l-250 -1424h-360zM604 293q102 0 168 81t66 195q0 86 -46.5 140.5t-134.5 54.5q-102 0 -167.5 -82t-65.5 -195 q0 -86 46 -140t134 -54z" glyph-name="q" horiz-adv-x="1298" unicode="q"/><glyph d="M567 1057l-61 -348q143 365 442 372l-78 -434q-162 -8 -284.5 -98t-151.5 -246l-53 -303h-361l187 1057h360z" glyph-name="r" horiz-adv-x="905" unicode="r"/><glyph d="M16 289l322 80q8 -68 59.5 -107t126.5 -39q109 0 109 60q0 12 -6 24t-20.5 22.5t-28 18.5t-36 18.5t-36.5 15.5t-42 15.5t-38 14.5q-315 123 -315 333q0 158 121.5 247t322.5 89q209 0 345 -92t136 -266v-12h-331v12q0 47 -36 79t-100 32q-109 0 -108 -64q0 -10 4 -20.5 t15.5 -19.5t21.5 -16t31.5 -17.5t36 -16.5t44 -17.5t48.5 -19.5q156 -63 238.5 -138t82.5 -190q0 -166 -123 -253t-325 -87q-209 0 -358 83.5t-161 230.5z" glyph-name="s" horiz-adv-x="1085" unicode="s"/><glyph d="M70 752l53 305h174l41 231l381 121l-62 -352h304l-56 -305h-303l-55 -320q-4 -20 -4 -47q0 -88 98 -88q61 0 137 31l72 -287q-152 -66 -293 -66q-375 0 -375 353q0 80 13 151l47 273h-172z" glyph-name="t" horiz-adv-x="942" unicode="t"/><glyph d="M553 1057l-104 -592q-4 -23 -5 -53q0 -70 35 -100.5t86 -30.5q74 0 134.5 53t74.5 131l105 592h360l-186 -1057h-361l23 127q-119 -152 -324 -152q-152 0 -234.5 86t-82.5 252q0 63 12 138l107 606h360z" glyph-name="u" horiz-adv-x="1257" unicode="u"/><glyph d="M688 0h-389l-197 1057h369l80 -654l307 654h399z" glyph-name="v" horiz-adv-x="1175" unicode="v"/><glyph d="M627 0h-406l-90 1057h375l12 -633l270 633h342l46 -631l231 631h401l-462 -1057h-404l-49 627z" glyph-name="w" horiz-adv-x="1755" unicode="w"/><glyph d="M1274 1057l-426 -531l256 -526h-397l-119 305l-221 -305h-453l448 528l-243 529h383l119 -312l225 312h428z" glyph-name="x" horiz-adv-x="1208" unicode="x"/><glyph d="M20 -451l-94 316q229 59 367 162l-191 1030h369l80 -643l309 643h400l-502 -922q-74 -137 -155 -238.5t-146.5 -157.5t-152.5 -98t-141.5 -58t-142.5 -34z" glyph-name="y" horiz-adv-x="1175" unicode="y"/><glyph d="M125 745l55 312h901l-45 -246l-514 -502h428l-55 -309h-901l45 246l512 499h-426z" glyph-name="z" horiz-adv-x="1075" unicode="z"/><glyph d="M16 395l50 275h59q76 0 122 35.5t64 142.5l49 278q27 154 122.5 231t277.5 77h213l-49 -281h-93q-70 0 -99.5 -34t-41.5 -107l-22 -127q-14 -82 -22.5 -117t-29 -89t-46 -77.5t-70.5 -47.5t-109 -32q164 -49 164 -223q0 -53 -12 -115l-21 -123q-6 -31 -6 -51 q0 -96 107 -96h82l-50 -281h-141q-168 0 -263 76t-95 211q0 35 6 76l37 211q6 33 6 59q0 129 -152 129h-37z" glyph-name="braceleft" horiz-adv-x="882" unicode="{"/><glyph d="M309 1507h264l-329 -1874h-264z" glyph-name="bar" horiz-adv-x="538" unicode="|"/><glyph d="M868 672l-49 -275h-59q-76 0 -122 -35.5t-65 -142.5l-49 -278q-27 -154 -122 -231t-277 -77h-213l49 281h92q70 0 99.5 34t42.5 107l22 127q14 82 22.5 117t29 89t46 77.5t70.5 47.5t109 32q-164 49 -164 223q0 53 12 115l20 123q6 31 7 51q0 96 -107 96h-82l49 281h142 q168 0 263 -76t95 -211q0 -37 -6 -76l-37 -211q-6 -33 -6 -59q0 -129 151 -129h37z" glyph-name="braceright" horiz-adv-x="884" unicode="}"/><glyph d="M332 401h-240q16 168 93 270.5t198 102.5q109 0 176 -96q8 -10 16.5 -25.5t13.5 -23.5t12 -15.5t13 -7.5q31 0 41 129h242q-16 -168 -93 -270.5t-200 -102.5q-106 0 -174 99q-8 10 -20.5 31.5t-20.5 30.5t-16 9q-25 0 -41 -131z" glyph-name="asciitilde" horiz-adv-x="972" unicode="~"/><glyph glyph-name="uni00A0" horiz-adv-x="434" unicode=" "/><glyph d="M569 897q0 -86 -66.5 -147.5t-154.5 -61.5q-80 0 -134 53.5t-54 128.5q0 88 66.5 149.5t154.5 61.5q80 0 134 -53t54 -131zM356 -377h-428l258 940h242z" glyph-name="exclamdown" horiz-adv-x="606" unicode="¡"/><glyph d="M825 651l277 -96q-59 -152 -175 -241t-249 -111l-35 -203h-270l39 225q-143 49 -222 168t-79 269q0 211 131 370.5t346 196.5l37 205h270l-41 -232q111 -41 182.5 -129t96.5 -199l-297 -92q-12 72 -60.5 117t-124.5 45q-96 0 -157.5 -81t-61.5 -187q0 -82 46 -135.5 t132 -53.5q143 0 215 164z" glyph-name="cent" horiz-adv-x="1159" unicode="¢"/><glyph d="M33 0l43 260q147 100 196 258h-180l47 275h137q-41 168 -40 235q0 188 132 309t326 121q176 0 309.5 -102.5t133.5 -300.5q0 -53 -9 -101h-329q6 37 6 66q0 123 -100 123q-59 0 -94.5 -43t-35.5 -111q0 -27 35 -196h301l-47 -275h-260q-33 -121 -119 -207h508l-53 -311 h-907z" glyph-name="sterling" horiz-adv-x="1132" unicode="£"/><glyph d="M66 422l182 147q-16 49 -17 115q0 113 66 225l-117 156l236 182l121 -160q61 18 125 19q84 0 147 -25l203 166l188 -235l-182 -148q16 -49 16 -114q0 -113 -65 -226l116 -155l-235 -183l-121 160q-61 -18 -125 -18q-84 0 -147 24l-203 -166zM647 868q-66 0 -109.5 -50 t-43.5 -122q0 -57 32.5 -94t91.5 -37q66 0 110 50.5t44 121.5q0 57 -33 94t-92 37z" glyph-name="currency" horiz-adv-x="1202" unicode="¤"/><glyph d="M692 930l283 504h403l-432 -678h215l-39 -226h-307l-16 -92h307l-39 -225h-309l-37 -213h-354l36 213h-305l39 225h305l17 92h-305l39 226h213l-189 678h369z" glyph-name="yen" horiz-adv-x="1277" unicode="¥"/><glyph d="M309 1507h264l-141 -811h-264zM121 438h264l-141 -805h-264z" glyph-name="brokenbar" horiz-adv-x="538" unicode="¦"/><glyph d="M1042 727q0 -84 -43 -152.5t-118 -103.5q74 -74 73 -174q0 -152 -114.5 -237t-290.5 -85q-180 0 -308 71t-151 210l297 74q4 -61 43 -95t98 -34q41 0 74 19.5t33 55.5q0 39 -41 65t-123 56q-162 59 -253 128t-91 182q0 80 42 147.5t118 106.5q-72 78 -72 178 q0 145 110.5 232t295.5 87q193 0 326.5 -84t133.5 -237v-31h-303v18q0 51 -38 80t-95 29q-43 0 -76.5 -18.5t-33.5 -59.5q0 -27 25.5 -49.5t54 -35.5t83.5 -34q162 -59 253 -127.5t91 -181.5zM496 834q-61 -23 -62 -80q0 -20 11.5 -38t41 -34t49 -25.5t69.5 -29t69 -27.5 q61 25 61 80q0 20 -11 37.5t-40 34t-50.5 25.5t-68 29t-69.5 28z" glyph-name="section" horiz-adv-x="1103" unicode="§"/><glyph d="M324 1677q0 74 57 126t133 52q68 0 114 -45t46 -110q0 -74 -57.5 -127t-133.5 -53q-70 0 -114.5 44.5t-44.5 112.5zM729 1677q0 74 57.5 126t133.5 52q68 0 113.5 -45t45.5 -110q0 -74 -57 -127t-133 -53q-70 0 -115 44.5t-45 112.5z" glyph-name="dieresis" horiz-adv-x="831" unicode="¨"/><glyph d="M987 670l187 -68q-51 -119 -146.5 -186.5t-210.5 -67.5q-150 0 -241 95.5t-91 234.5q0 158 112 282.5t277 124.5q129 0 213 -69.5t107 -184.5l-197 -67q-23 121 -133 121q-70 0 -118 -58.5t-48 -132.5q0 -61 36 -103t97 -42q103 0 156 121zM109 651q0 324 239.5 565.5 t550.5 241.5q299 0 483.5 -199.5t184.5 -476.5q0 -324 -240 -565.5t-551 -241.5q-299 0 -483 200t-184 476zM887 1290q-238 0 -420 -185t-182 -443q0 -215 138 -367t365 -152q238 0 420.5 185.5t182.5 443.5q0 215 -138.5 366.5t-365.5 151.5z" glyph-name="copyright" horiz-adv-x="1607" unicode="©"/><glyph d="M524 1434q154 0 224 -101l14 84h252l-131 -741h-252l8 49q-78 -66 -180 -66q-147 0 -226 92.5t-79 231.5q0 106 42 207.5t128.5 172.5t199.5 71zM541 881q70 0 115.5 59t45.5 133q0 59 -33.5 99t-95.5 40q-68 0 -115.5 -58t-47.5 -132q0 -59 36 -100t95 -41z" glyph-name="ordfeminine" horiz-adv-x="978" unicode="ª"/><glyph d="M410 510l131 -287l-242 -141l-242 459l402 460l207 -176zM920 510l131 -287l-242 -141l-242 459l402 460l207 -176z" glyph-name="guillemotleft" horiz-adv-x="1193" unicode="«"/><glyph d="M774 356l55 316h-718l53 299h1010l-109 -615h-291z" glyph-name="logicalnot" horiz-adv-x="1222" unicode="¬"/><glyph d="M166 944q0 213 156.5 363.5t353.5 150.5q193 0 311.5 -128t118.5 -306q0 -211 -156.5 -361.5t-353.5 -150.5q-193 0 -311.5 127t-118.5 305zM659.5 1325q-143.5 0 -252 -112.5t-108.5 -264.5q0 -127 85 -215t228.5 -88t252 112.5t108.5 264.5q0 127 -85 215t-228.5 88z M502 1204h188q80 0 119 -40t39 -101q0 -117 -96 -164l63 -129h-121l-53 113h-88l-21 -113h-108zM678 1106h-86l-23 -125h95q78 0 77 72q0 53 -63 53z" glyph-name="registered" horiz-adv-x="1112" unicode="®"/><glyph d="M973 1823l-47 -267h-600l47 267h600z" glyph-name="macron" horiz-adv-x="722" unicode="¯"/><glyph d="M158 1063q0 160 118.5 277.5t284.5 117.5q154 0 248 -99t94 -239q0 -162 -118.5 -278.5t-286.5 -116.5q-154 0 -247 99.5t-93 238.5zM545 1227q-57 0 -100.5 -42t-43.5 -108q0 -51 32 -86t83 -35q57 0 100 42t43 108q0 51 -31.5 86t-82.5 35z" glyph-name="degree" horiz-adv-x="866" unicode="°"/><glyph d="M901 346l-53 -301h-817l53 301h817zM205 1020h256l49 280h301l-49 -280h258l-53 -295h-258l-50 -283h-301l50 283h-256z" glyph-name="plusminus" horiz-adv-x="1048" unicode="±"/><glyph d="M737 797l-39 -224h-620l35 187q252 168 360 280q74 78 74 134q0 53 -53 53q-72 0 -88 -125h-240q10 102 50 176t94.5 107.5t102.5 47t95 13.5q131 0 212 -69.5t81 -178.5q0 -158 -164 -311q-39 -37 -111 -90h211z" glyph-name="uni00B2" horiz-adv-x="757" unicode="²"/><glyph d="M70 672l151 182q115 -76 191 -76q80 0 80 56q0 78 -173 77l31 174q193 -2 193 105q0 23 -16.5 39t-41.5 16q-68 0 -75 -82h-232q4 68 28.5 121t58.5 83t79 48.5t81 24.5t73 6q119 0 202.5 -65.5t83.5 -168.5q0 -160 -143 -223q98 -59 98 -164q0 -115 -87 -190.5 t-238 -75.5q-186 0 -344 113z" glyph-name="uni00B3" horiz-adv-x="749" unicode="³"/><glyph d="M639 1501l-217 115l340 377l207 -217z" glyph-name="acute" horiz-adv-x="661" unicode="´"/><glyph d="M727 0l23 127q-119 -152 -324 -152q-18 0 -29 2l-59 -344h-361l250 1424h359l-103 -592q-4 -23 -4 -53q0 -70 35 -100.5t86 -30.5q74 0 134.5 53t74.5 131l104 592h361l-187 -1057h-360z" glyph-name="uni00B5" horiz-adv-x="1316" unicode="µ"/><glyph d="M500 0l75 428q-221 10 -332.5 134t-111.5 306q0 225 146.5 395.5t408.5 170.5h721l-252 -1434h-262l209 1180h-133l-209 -1180h-260zM709 1180h-25q-137 0 -207.5 -83t-70.5 -206q0 -92 53 -150.5t162 -58.5z" glyph-name="paragraph" horiz-adv-x="1396" unicode="¶"/><glyph d="M90 573q0 92 70.5 158t165.5 66q86 0 142 -56.5t56 -138.5q0 -92 -70.5 -157.5t-164.5 -65.5q-86 0 -142.5 56t-56.5 138z" glyph-name="periodcentered" horiz-adv-x="598" unicode="·"/><glyph d="M219 14h154l-56 -106q139 -47 140 -187q0 -109 -75 -179t-198 -70q-139 0 -264 79l119 183q88 -57 141 -58q27 0 47.5 14.5t20.5 41.5q0 61 -96 61l-37 64z" glyph-name="cedilla" horiz-adv-x="526" unicode="¸"/><glyph d="M207 573l96 543l-164 -80l49 283l234 115h203l-154 -861h-264z" glyph-name="uni00B9" horiz-adv-x="557" unicode="¹"/><glyph d="M150 1010q0 172 121.5 298t297.5 126q170 0 268.5 -101.5t98.5 -249.5q0 -172 -122 -298t-298 -126q-170 0 -268 102t-98 249zM557 1202q-66 0 -107.5 -56t-41.5 -126q0 -55 31.5 -92t88.5 -37q66 0 108 56.5t42 125.5q0 55 -32 92t-89 37z" glyph-name="ordmasculine" horiz-adv-x="907" unicode="º"/><glyph d="M279 578l-132 286l242 142l242 -459l-402 -461l-206 176zM788 578l-131 286l242 142l242 -459l-402 -461l-207 176z" glyph-name="guillemotright" horiz-adv-x="1193" unicode="»"/><glyph d="M383 0h-244l1157 1434h242zM227 573l97 543l-164 -80l49 283l233 115h203l-153 -861h-265zM1501 4h-233l24 148h-379l33 182l281 530h274l-276 -493h106l31 180l248 70l-45 -250h96l-39 -219h-96z" glyph-name="onequarter" horiz-adv-x="1742" unicode="¼"/><glyph d="M375 0h-244l1157 1434h242zM219 573l96 543l-163 -80l49 283l233 115h203l-154 -861h-264zM1593 227l-39 -223h-620l35 186q252 168 360 281q74 78 74 133q0 53 -53 53q-72 0 -88 -125h-240q10 102 50 176t94.5 108t102.5 47.5t95 13.5q131 0 212 -70t81 -178 q0 -158 -164 -312q-39 -37 -111 -90h211z" glyph-name="onehalf" horiz-adv-x="1714" unicode="½"/><glyph d="M530 0h-243l1157 1434h242zM1649 4h-234l25 148h-379l33 182l280 530h275l-277 -493h107l30 180l248 70l-45 -250h96l-39 -219h-96zM88 672l152 182q113 -76 190 -76q80 0 80 56q0 78 -172 77l31 174q193 -2 192 105q0 23 -16.5 39t-40.5 16q-68 0 -76 -82h-231 q4 68 28.5 121t58 83t79 48.5t81 24.5t72.5 6q119 0 203 -65.5t84 -168.5q0 -160 -144 -223q98 -59 99 -164q0 -115 -87 -190.5t-239 -75.5q-186 0 -344 113z" glyph-name="threequarters" horiz-adv-x="1890" unicode="¾"/><glyph d="M436 573h322l-15 -81q-33 -190 -243 -322q-10 -6 -44 -26.5t-50.5 -32t-39 -31t-32.5 -42t-10 -48.5q0 -43 30.5 -67.5t77.5 -24.5q72 0 115 52t53 142h352q-20 -250 -173.5 -377t-362.5 -127q-203 0 -328 102.5t-125 266.5q0 141 70.5 230t216.5 180q47 29 68.5 44 t50 38.5t43 48t20.5 55.5zM858 897q0 -86 -66.5 -147.5t-156.5 -61.5q-80 0 -133 53.5t-53 128.5q0 88 66.5 149.5t154.5 61.5q80 0 134 -53t54 -131z" glyph-name="questiondown" horiz-adv-x="1081" unicode="¿"/><glyph d="M711 1434h407l305 -1434h-387l-37 219h-563l-112 -219h-422zM860 1036l-266 -512h352zM1139 1575l-246 -74l-223 318l268 174z" glyph-name="Agrave" horiz-adv-x="1511" unicode="À"/><glyph d="M711 1434h407l305 -1434h-387l-37 219h-563l-112 -219h-422zM860 1036l-266 -512h352zM987 1501l-217 115l340 377l207 -217z" glyph-name="Aacute" horiz-adv-x="1511" unicode="Á"/><glyph d="M711 1434h407l305 -1434h-387l-37 219h-563l-112 -219h-422zM860 1036l-266 -512h352zM971 1636l-213 -131l-140 187l379 239l308 -241l-160 -185z" glyph-name="Acircumflex" horiz-adv-x="1511" unicode="Â"/><glyph d="M711 1434h407l305 -1434h-387l-37 219h-563l-112 -219h-422zM860 1036l-266 -512h352zM809 1552h-240q16 168 93 270.5t198 102.5q109 0 176 -96q8 -10 16.5 -25.5t13.5 -23.5t12 -15.5t14 -7.5q31 0 41 129h241q-16 -168 -93 -270.5t-200 -102.5q-106 0 -174 99 q-8 10 -20.5 31.5t-20.5 30.5t-16 9q-25 0 -41 -131z" glyph-name="Atilde" horiz-adv-x="1511" unicode="Ã"/><glyph d="M711 1434h407l305 -1434h-387l-37 219h-563l-112 -219h-422zM860 1036l-266 -512h352zM588 1677q0 74 57 126t133 52q68 0 114 -45t46 -110q0 -74 -57.5 -127t-132.5 -53q-68 0 -114 44.5t-46 112.5zM993 1677q0 74 57.5 126t133.5 52q68 0 113.5 -45t45.5 -110 q0 -74 -57 -127t-133 -53q-68 0 -114 44.5t-46 112.5z" glyph-name="Adieresis" horiz-adv-x="1511" unicode="Ä"/><glyph d="M711 1434h407l305 -1434h-387l-37 219h-563l-112 -219h-422zM860 1036l-266 -512h352zM717 1739q0 115 85 197.5t202 82.5q106 0 174.5 -70.5t68.5 -170.5q0 -115 -85 -198t-201 -83q-106 0 -175 71t-69 171zM987 1841q-35 0 -61.5 -27.5t-26.5 -62.5q0 -33 21.5 -54.5 t56.5 -21.5t61.5 28t26.5 62q0 33 -21.5 54.5t-56.5 21.5z" glyph-name="Aring" horiz-adv-x="1511" unicode="Å"/><glyph d="M979 1434h1143l-58 -328h-665l-43 -236h518l-53 -303h-518l-41 -239h665l-57 -328h-1020l39 225h-393l-160 -225h-453zM711 530h231l78 437z" glyph-name="AE" horiz-adv-x="2058" unicode="Æ"/><glyph d="M1161 594l357 -109q-92 -238 -289 -371.5t-432 -138.5l-35 -67q139 -47 139 -187q0 -109 -74.5 -179t-197.5 -70q-139 0 -264 79l118 183q88 -57 142 -58q27 0 47 14.5t20 41.5q0 61 -96 61l-37 64l86 131q-250 43 -392 224t-142 427q0 342 229 580.5t559 238.5 q270 0 444.5 -146.5t217.5 -377.5l-373 -100q-18 121 -100 197.5t-209 76.5q-164 0 -275.5 -132t-111.5 -310q0 -145 85 -242.5t232 -97.5q113 0 209 71.5t143 196.5z" glyph-name="Ccedilla" horiz-adv-x="1562" unicode="Ç"/><glyph d="M1075 1575l-246 -74l-223 318l268 174zM53 0l252 1434h1106l-57 -328h-740l-43 -236h596l-53 -303h-596l-41 -239h740l-58 -328h-1106z" glyph-name="Egrave" horiz-adv-x="1347" unicode="È"/><glyph d="M930 1501l-217 115l340 377l207 -217zM53 0l252 1434h1106l-57 -328h-740l-43 -236h596l-53 -303h-596l-41 -239h740l-58 -328h-1106z" glyph-name="Eacute" horiz-adv-x="1347" unicode="É"/><glyph d="M53 0l252 1434h1106l-57 -328h-740l-43 -236h596l-53 -303h-596l-41 -239h740l-58 -328h-1106zM901 1636l-213 -131l-139 187l379 239l307 -241l-160 -185z" glyph-name="Ecircumflex" horiz-adv-x="1347" unicode="Ê"/><glyph d="M528 1677q0 74 57.5 126t133.5 52q68 0 114 -45t46 -110q0 -74 -57.5 -127t-133.5 -53q-70 0 -115 44.5t-45 112.5zM934 1677q0 74 57.5 126t132.5 52q68 0 114 -45t46 -110q0 -74 -57.5 -127t-132.5 -53q-70 0 -115 44.5t-45 112.5zM53 0l252 1434h1106l-57 -328h-740 l-43 -236h596l-53 -303h-596l-41 -239h740l-58 -328h-1106z" glyph-name="Edieresis" horiz-adv-x="1347" unicode="Ë"/><glyph d="M305 1434h371l-252 -1434h-371zM737 1575l-245 -74l-224 318l269 174z" glyph-name="Igrave" horiz-adv-x="661" unicode="Ì"/><glyph d="M305 1434h371l-252 -1434h-371zM520 1501l-217 115l340 377l207 -217z" glyph-name="Iacute" horiz-adv-x="661" unicode="Í"/><glyph d="M305 1434h371l-252 -1434h-371zM545 1636l-213 -131l-139 187l378 239l308 -241l-160 -185z" glyph-name="Icircumflex" horiz-adv-x="661" unicode="Î"/><glyph d="M305 1434h371l-252 -1434h-371zM156 1677q0 74 57 126t133 52q68 0 114 -45t46 -110q0 -74 -57.5 -127t-133.5 -53q-70 0 -114.5 44.5t-44.5 112.5zM561 1677q0 74 57.5 126t133.5 52q68 0 113.5 -45t45.5 -110q0 -74 -57 -127t-133 -53q-70 0 -115 44.5t-45 112.5z" glyph-name="Idieresis" horiz-adv-x="661" unicode="Ï"/><glyph d="M68 571l51 291h143l100 572h566q319 0 489 -169t170 -446q0 -162 -50 -308t-143.5 -261t-241.5 -182.5t-331 -67.5h-710l100 571h-143zM879 571h-301l-43 -243h284q184 0 284.5 137t100.5 332q0 143 -75.5 226t-227.5 83h-229l-43 -244h301z" glyph-name="Eth" horiz-adv-x="1630" unicode="Ð"/><glyph d="M420 0h-367l252 1434h373l444 -883l156 883h367l-252 -1434h-373l-445 883zM868 1552h-239q16 168 93 270.5t198 102.5q109 0 176 -96q8 -10 16 -25.5t13 -23.5t12.5 -15.5t13.5 -7.5q31 0 41 129h242q-16 -168 -93 -270.5t-200 -102.5q-106 0 -174 99q-8 10 -20.5 31.5 t-20.5 30.5t-17 9q-25 0 -41 -131z" glyph-name="Ntilde" horiz-adv-x="1630" unicode="Ñ"/><glyph d="M109 637q0 211 97 397.5t283.5 305t419.5 118.5q315 0 500.5 -190.5t185.5 -470.5q0 -211 -97 -397.5t-283.5 -305.5t-419.5 -119q-315 0 -500.5 190.5t-185.5 471.5zM887 1108q-170 0 -282.5 -133t-112.5 -309q0 -145 87 -242.5t238 -97.5q170 0 282.5 133t112.5 309 q0 145 -86.5 242.5t-238.5 97.5zM1200 1575l-246 -74l-223 318l268 174z" glyph-name="Ograve" horiz-adv-x="1640" unicode="Ò"/><glyph d="M109 637q0 211 97 397.5t283.5 305t419.5 118.5q315 0 500.5 -190.5t185.5 -470.5q0 -211 -97 -397.5t-283.5 -305.5t-419.5 -119q-315 0 -500.5 190.5t-185.5 471.5zM887 1108q-170 0 -282.5 -133t-112.5 -309q0 -145 87 -242.5t238 -97.5q170 0 282.5 133t112.5 309 q0 145 -86.5 242.5t-238.5 97.5zM1051 1501l-217 115l340 377l206 -217z" glyph-name="Oacute" horiz-adv-x="1640" unicode="Ó"/><glyph d="M109 637q0 211 97 397.5t283.5 305t419.5 118.5q315 0 500.5 -190.5t185.5 -470.5q0 -211 -97 -397.5t-283.5 -305.5t-419.5 -119q-315 0 -500.5 190.5t-185.5 471.5zM887 1108q-170 0 -282.5 -133t-112.5 -309q0 -145 87 -242.5t238 -97.5q170 0 282.5 133t112.5 309 q0 145 -86.5 242.5t-238.5 97.5zM1028 1636l-213 -131l-139 187l379 239l307 -241l-160 -185z" glyph-name="Ocircumflex" horiz-adv-x="1640" unicode="Ô"/><glyph d="M109 637q0 211 97 397.5t283.5 305t419.5 118.5q315 0 500.5 -190.5t185.5 -470.5q0 -211 -97 -397.5t-283.5 -305.5t-419.5 -119q-315 0 -500.5 190.5t-185.5 471.5zM887 1108q-170 0 -282.5 -133t-112.5 -309q0 -145 87 -242.5t238 -97.5q170 0 282.5 133t112.5 309 q0 145 -86.5 242.5t-238.5 97.5zM877 1552h-240q16 168 93 270.5t198 102.5q109 0 176 -96q8 -10 16 -25.5t13.5 -23.5t12.5 -15.5t13 -7.5q31 0 41 129h242q-16 -168 -93 -270.5t-200 -102.5q-106 0 -174 99q-8 10 -20.5 31.5t-20.5 30.5t-16 9q-25 0 -41 -131z" glyph-name="Otilde" horiz-adv-x="1640" unicode="Õ"/><glyph d="M109 637q0 211 97 397.5t283.5 305t419.5 118.5q315 0 500.5 -190.5t185.5 -470.5q0 -211 -97 -397.5t-283.5 -305.5t-419.5 -119q-315 0 -500.5 190.5t-185.5 471.5zM887 1108q-170 0 -282.5 -133t-112.5 -309q0 -145 87 -242.5t238 -97.5q170 0 282.5 133t112.5 309 q0 145 -86.5 242.5t-238.5 97.5zM653 1677q0 74 57.5 126t133.5 52q68 0 114 -45t46 -110q0 -74 -57.5 -127t-133.5 -53q-68 0 -114 44.5t-46 112.5zM1059 1677q0 74 57.5 126t132.5 52q68 0 114 -45t46 -110q0 -74 -57.5 -127t-132.5 -53q-68 0 -114 44.5t-46 112.5z" glyph-name="Odieresis" horiz-adv-x="1640" unicode="Ö"/><glyph d="M258 236l-188 221l266 231l-186 236l225 188l182 -231l266 231l189 -221l-273 -238l187 -231l-226 -186l-182 225z" glyph-name="multiply" horiz-adv-x="1028" unicode="×"/><glyph d="M111 641q0 336 230 576.5t570 240.5q231 0 402 -110l82 86h284l-215 -228q133 -178 133 -415q0 -156 -58 -303.5t-161.5 -261t-255 -182.5t-323.5 -69q-233 0 -400 109l-77 -84h-287l211 223q-135 176 -135 418zM889 1108q-166 0 -277.5 -133t-111.5 -311q0 -80 26 -146 l523 551q-72 39 -160 39zM819 326q164 0 277.5 131t113.5 307q0 80 -24 147l-522 -551q65 -34 155 -34z" glyph-name="Oslash" horiz-adv-x="1642" unicode="Ø"/><glyph d="M1233 1434h366l-149 -850q-49 -281 -235.5 -445t-452.5 -164q-305 0 -464 162t-159 418q0 76 13 145l129 734h366l-129 -736q-10 -57 -10 -106q0 -133 69.5 -201.5t202.5 -68.5q258 0 316 329zM1161 1575l-246 -74l-223 318l269 174z" glyph-name="Ugrave" horiz-adv-x="1570" unicode="Ù"/><glyph d="M1233 1434h366l-149 -850q-49 -281 -235.5 -445t-452.5 -164q-305 0 -464 162t-159 418q0 76 13 145l129 734h366l-129 -736q-10 -57 -10 -106q0 -133 69.5 -201.5t202.5 -68.5q258 0 316 329zM1014 1501l-217 115l340 377l206 -217z" glyph-name="Uacute" horiz-adv-x="1570" unicode="Ú"/><glyph d="M1233 1434h366l-149 -850q-49 -281 -235.5 -445t-452.5 -164q-305 0 -464 162t-159 418q0 76 13 145l129 734h366l-129 -736q-10 -57 -10 -106q0 -133 69.5 -201.5t202.5 -68.5q258 0 316 329zM993 1636l-213 -131l-139 187l379 239l307 -241l-160 -185z" glyph-name="Ucircumflex" horiz-adv-x="1570" unicode="Û"/><glyph d="M1233 1434h366l-149 -850q-49 -281 -235.5 -445t-452.5 -164q-305 0 -464 162t-159 418q0 76 13 145l129 734h366l-129 -736q-10 -57 -10 -106q0 -133 69.5 -201.5t202.5 -68.5q258 0 316 329zM612 1677q0 74 57.5 126t133.5 52q68 0 114 -45t46 -110q0 -74 -57.5 -127 t-133.5 -53q-68 0 -114 44.5t-46 112.5zM1018 1677q0 74 57.5 126t132.5 52q68 0 114 -45t46 -110q0 -74 -57.5 -127t-132.5 -53q-68 0 -114 44.5t-46 112.5z" glyph-name="Udieresis" horiz-adv-x="1570" unicode="Ü"/><glyph d="M563 1434l207 -566l406 566h471l-729 -932l-91 -502h-366l86 498l-400 936h416zM971 1501l-217 115l340 377l206 -217z" glyph-name="Yacute" horiz-adv-x="1472" unicode="Ý"/><glyph d="M51 0l254 1434h367l-29 -166h215q268 0 408.5 -140.5t140.5 -351.5q0 -274 -168 -446t-461 -172h-332l-28 -158h-367zM504 481h235q135 0 212 70t77 209q0 184 -237 184h-207z" glyph-name="Thorn" horiz-adv-x="1447" unicode="Þ"/><glyph d="M455 47l114 291q76 -43 144 -43q63 0 105 36t42 101.5t-60.5 111.5t-199.5 46l49 276q121 -4 197 46.5t76 144.5q0 59 -41 95t-109 36q-76 0 -138.5 -53.5t-84.5 -178.5l-168 -956h-361l168 971q47 266 217 396t377 130t344.5 -120t137.5 -296q0 -117 -57.5 -213 t-166.5 -149q162 -115 162 -303q0 -182 -117.5 -311.5t-332.5 -129.5q-168 0 -297 72z" glyph-name="germandbls" horiz-adv-x="1300" unicode="ß"/><glyph d="M729 0l21 115q-109 -139 -287 -140q-184 0 -290.5 131.5t-106.5 333.5q0 111 32.5 221.5t94 206t162 154.5t220.5 59q227 0 316 -166l24 142h361l-186 -1057h-361zM604 293q102 0 168 81t66 195q0 86 -46.5 140.5t-134.5 54.5q-102 0 -167.5 -82t-65.5 -195 q0 -86 46 -140t134 -54zM963 1204l-246 -74l-223 318l268 174z" glyph-name="agrave" unicode="à"/><glyph d="M729 0l21 115q-109 -139 -287 -140q-184 0 -290.5 131.5t-106.5 333.5q0 111 32.5 221.5t94 206t162 154.5t220.5 59q227 0 316 -166l24 142h361l-186 -1057h-361zM604 293q102 0 168 81t66 195q0 86 -46.5 140.5t-134.5 54.5q-102 0 -167.5 -82t-65.5 -195 q0 -86 46 -140t134 -54zM807 1130l-217 115l340 377l207 -217z" glyph-name="aacute" unicode="á"/><glyph d="M729 0l21 115q-109 -139 -287 -140q-184 0 -290.5 131.5t-106.5 333.5q0 111 32.5 221.5t94 206t162 154.5t220.5 59q227 0 316 -166l24 142h361l-186 -1057h-361zM604 293q102 0 168 81t66 195q0 86 -46.5 140.5t-134.5 54.5q-102 0 -167.5 -82t-65.5 -195 q0 -86 46 -140t134 -54zM811 1266l-213 -131l-139 186l379 240l307 -242l-160 -184z" glyph-name="acircumflex" unicode="â"/><glyph d="M729 0l21 115q-109 -139 -287 -140q-184 0 -290.5 131.5t-106.5 333.5q0 111 32.5 221.5t94 206t162 154.5t220.5 59q227 0 316 -166l24 142h361l-186 -1057h-361zM604 293q102 0 168 81t66 195q0 86 -46.5 140.5t-134.5 54.5q-102 0 -167.5 -82t-65.5 -195 q0 -86 46 -140t134 -54zM637 1182h-240q16 168 93 270t198 102q109 0 176 -96q8 -10 16.5 -25.5t13.5 -23.5t12 -15.5t14 -7.5q31 0 41 130h241q-16 -168 -93 -270.5t-200 -102.5q-106 0 -174 98q-8 10 -20.5 31.5t-20.5 31t-16 9.5q-25 0 -41 -131z" glyph-name="atilde" unicode="ã"/><glyph d="M729 0l21 115q-109 -139 -287 -140q-184 0 -290.5 131.5t-106.5 333.5q0 111 32.5 221.5t94 206t162 154.5t220.5 59q227 0 316 -166l24 142h361l-186 -1057h-361zM604 293q102 0 168 81t66 195q0 86 -46.5 140.5t-134.5 54.5q-102 0 -167.5 -82t-65.5 -195 q0 -86 46 -140t134 -54zM414 1307q0 74 57 126t133 52q68 0 114 -45t46 -111q0 -74 -57.5 -127t-133.5 -53q-70 0 -114.5 46t-44.5 112zM819 1307q0 74 57.5 126t133.5 52q68 0 113.5 -45t45.5 -111q0 -74 -57 -127t-133 -53q-70 0 -115 46t-45 112z" glyph-name="adieresis" unicode="ä"/><glyph d="M729 0l21 115q-109 -139 -287 -140q-184 0 -290.5 131.5t-106.5 333.5q0 111 32.5 221.5t94 206t162 154.5t220.5 59q227 0 316 -166l24 142h361l-186 -1057h-361zM604 293q102 0 168 81t66 195q0 86 -46.5 140.5t-134.5 54.5q-102 0 -167.5 -82t-65.5 -195 q0 -86 46 -140t134 -54zM543 1368q0 115 85 198t201 83q106 0 175 -71t69 -171q0 -115 -85 -198t-202 -83q-106 0 -174.5 71t-68.5 171zM813 1470q-35 0 -61.5 -27.5t-26.5 -62.5q0 -33 21.5 -54t56.5 -21t61.5 27.5t26.5 62.5q0 33 -21.5 54t-56.5 21z" glyph-name="aring" unicode="å"/><glyph d="M1878 340l129 -227q-178 -137 -426 -138q-184 0 -305 75t-174 202l-43 -252h-295l20 127q-135 -152 -321 -152q-184 0 -290.5 131.5t-106.5 333.5q0 111 32.5 221.5t94 206t162 154.5t220.5 59q244 0 347 -180l26 156h295l-31 -176q168 201 447 200q211 0 330.5 -95 t119.5 -243q0 -160 -146 -262t-431 -102h-129q45 -125 219 -125q131 0 256 86zM604 293q102 0 168 81t66 195q0 86 -46.5 140.5t-134.5 54.5q-102 0 -167.5 -82t-65.5 -195q0 -86 46 -140t134 -54zM1649 809q-86 0 -151.5 -53.5t-92.5 -151.5h61q293 0 293 123 q0 39 -30.5 60.5t-79.5 21.5z" glyph-name="ae" horiz-adv-x="2150" unicode="æ"/><glyph d="M805 457l315 -97q-63 -176 -206.5 -277t-313.5 -108l-35 -67q139 -47 140 -187q0 -109 -75 -179t-198 -70q-139 0 -264 79l119 183q88 -57 141 -58q27 0 47.5 14.5t20.5 41.5q0 61 -97 61l-37 64l87 133q-180 37 -280.5 170t-100.5 311q0 246 165.5 428t415.5 182 q207 0 339 -109.5t165 -283.5l-332 -90q-8 78 -52 122t-126 44q-102 0 -163.5 -83t-61.5 -198q0 -84 46 -137t132 -53q70 0 126 43t83 121z" glyph-name="ccedilla" horiz-adv-x="1189" unicode="ç"/><glyph d="M905 340l129 -227q-178 -137 -426 -138q-262 0 -402 140.5t-140 349.5q0 260 175 438t445 178q211 0 331 -95t120 -243q0 -160 -146.5 -262t-431.5 -102h-129q45 -125 219 -125q127 0 256 86zM676 809q-86 0 -151.5 -53.5t-92.5 -151.5h62q293 0 292 123q0 39 -30.5 60.5 t-79.5 21.5zM936 1204l-246 -74l-223 318l268 174z" glyph-name="egrave" horiz-adv-x="1177" unicode="è"/><glyph d="M905 340l129 -227q-178 -137 -426 -138q-262 0 -402 140.5t-140 349.5q0 260 175 438t445 178q211 0 331 -95t120 -243q0 -160 -146.5 -262t-431.5 -102h-129q45 -125 219 -125q127 0 256 86zM676 809q-86 0 -151.5 -53.5t-92.5 -151.5h62q293 0 292 123q0 39 -30.5 60.5 t-79.5 21.5zM786 1130l-217 115l340 377l207 -217z" glyph-name="eacute" horiz-adv-x="1177" unicode="é"/><glyph d="M905 340l129 -227q-178 -137 -426 -138q-262 0 -402 140.5t-140 349.5q0 260 175 438t445 178q211 0 331 -95t120 -243q0 -160 -146.5 -262t-431.5 -102h-129q45 -125 219 -125q127 0 256 86zM676 809q-86 0 -151.5 -53.5t-92.5 -151.5h62q293 0 292 123q0 39 -30.5 60.5 t-79.5 21.5zM764 1266l-213 -131l-139 186l379 240l307 -242l-160 -184z" glyph-name="ecircumflex" horiz-adv-x="1177" unicode="ê"/><glyph d="M905 340l129 -227q-178 -137 -426 -138q-262 0 -402 140.5t-140 349.5q0 260 175 438t445 178q211 0 331 -95t120 -243q0 -160 -146.5 -262t-431.5 -102h-129q45 -125 219 -125q127 0 256 86zM676 809q-86 0 -151.5 -53.5t-92.5 -151.5h62q293 0 292 123q0 39 -30.5 60.5 t-79.5 21.5zM348 1307q0 74 57.5 126t133.5 52q68 0 113.5 -45t45.5 -111q0 -74 -57 -127t-133 -53q-70 0 -115 46t-45 112zM754 1307q0 74 57 126t133 52q68 0 114 -45t46 -111q0 -74 -57.5 -127t-133.5 -53q-70 0 -114.5 46t-44.5 112z" glyph-name="edieresis" horiz-adv-x="1177" unicode="ë"/><glyph d="M18 0l187 1057h360l-186 -1057h-361zM633 1204l-246 -74l-223 318l268 174z" glyph-name="igrave" horiz-adv-x="585" unicode="ì"/><glyph d="M18 0l187 1057h360l-186 -1057h-361zM414 1130l-217 115l340 377l206 -217z" glyph-name="iacute" horiz-adv-x="585" unicode="í"/><glyph d="M18 0l187 1057h360l-186 -1057h-361zM434 1264l-213 -131l-139 186l379 240l307 -242l-160 -184z" glyph-name="icircumflex" horiz-adv-x="585" unicode="î"/><glyph d="M18 0l187 1057h360l-186 -1057h-361zM49 1305q0 74 57.5 126t133.5 52q68 0 113.5 -45t45.5 -111q0 -74 -57 -127t-133 -53q-70 0 -115 45t-45 113zM455 1305q0 74 57 126t133 52q68 0 114 -45t46 -111q0 -74 -57.5 -127t-133.5 -53q-70 0 -114.5 45t-44.5 113z" glyph-name="idieresis" horiz-adv-x="585" unicode="ï"/><glyph d="M1024 1405l39 -184l-150 -41l123 -240q98 -190 99 -375q0 -262 -163 -426t-411 -164q-219 0 -358.5 137.5t-139.5 340.5q0 219 141.5 378.5t348.5 159.5q41 0 74 -6l-56 102l-198 -53l-37 183l143 38l-98 179h401l43 -84zM618 707q-96 0 -155.5 -69t-59.5 -163 q0 -78 50.5 -130t134.5 -52t149.5 63.5t65.5 165.5q0 78 -53.5 131.5t-131.5 53.5z" glyph-name="eth" horiz-adv-x="1208" unicode="ð"/><glyph d="M705 0l104 592q4 23 4 53q0 70 -35 100.5t-86 30.5q-74 0 -134 -53t-75 -131l-104 -592h-361l187 1057h360l-22 -127q119 152 323 151q152 0 235 -86t83 -252q0 -63 -13 -137l-106 -606h-360zM616 1182h-239q16 168 93 270t198 102q109 0 176 -96q8 -10 16 -25.5 t13.5 -23.5t12.5 -15.5t13 -7.5q31 0 41 130h242q-16 -168 -93 -270.5t-200 -102.5q-106 0 -174 98q-8 10 -20.5 31.5t-20.5 31t-17 9.5q-25 0 -41 -131z" glyph-name="ntilde" horiz-adv-x="1259" unicode="ñ"/><glyph d="M68 473q0 258 173 433t414.5 175t382 -143t140.5 -354q0 -258 -173.5 -433.5t-415 -175.5t-381.5 143.5t-140 354.5zM645 764q-100 0 -164.5 -83t-64.5 -194q0 -86 47 -140t137 -54q100 0 164.5 83t64.5 193q0 86 -47 140.5t-137 54.5zM936 1204l-246 -74l-223 318 l268 174z" glyph-name="ograve" horiz-adv-x="1245" unicode="ò"/><glyph d="M68 473q0 258 173 433t414.5 175t382 -143t140.5 -354q0 -258 -173.5 -433.5t-415 -175.5t-381.5 143.5t-140 354.5zM645 764q-100 0 -164.5 -83t-64.5 -194q0 -86 47 -140t137 -54q100 0 164.5 83t64.5 193q0 86 -47 140.5t-137 54.5zM788 1130l-217 115l340 377 l207 -217z" glyph-name="oacute" horiz-adv-x="1245" unicode="ó"/><glyph d="M68 473q0 258 173 433t414.5 175t382 -143t140.5 -354q0 -258 -173.5 -433.5t-415 -175.5t-381.5 143.5t-140 354.5zM645 764q-100 0 -164.5 -83t-64.5 -194q0 -86 47 -140t137 -54q100 0 164.5 83t64.5 193q0 86 -47 140.5t-137 54.5zM764 1266l-213 -131l-139 186 l379 240l307 -242l-160 -184z" glyph-name="ocircumflex" horiz-adv-x="1245" unicode="ô"/><glyph d="M68 473q0 258 173 433t414.5 175t382 -143t140.5 -354q0 -258 -173.5 -433.5t-415 -175.5t-381.5 143.5t-140 354.5zM645 764q-100 0 -164.5 -83t-64.5 -194q0 -86 47 -140t137 -54q100 0 164.5 83t64.5 193q0 86 -47 140.5t-137 54.5zM608 1182h-239q16 168 93 270 t197 102q109 0 177 -96q8 -10 16 -25.5t13 -23.5t12.5 -15.5t13.5 -7.5q31 0 41 130h242q-16 -168 -93 -270.5t-200 -102.5q-106 0 -174 98q-8 10 -20.5 31.5t-21 31t-16.5 9.5q-25 0 -41 -131z" glyph-name="otilde" horiz-adv-x="1245" unicode="õ"/><glyph d="M68 473q0 258 173 433t414.5 175t382 -143t140.5 -354q0 -258 -173.5 -433.5t-415 -175.5t-381.5 143.5t-140 354.5zM645 764q-100 0 -164.5 -83t-64.5 -194q0 -86 47 -140t137 -54q100 0 164.5 83t64.5 193q0 86 -47 140.5t-137 54.5zM387 1307q0 74 57.5 126t133.5 52 q68 0 113.5 -45t45.5 -111q0 -74 -57 -127t-133 -53q-68 0 -114 46t-46 112zM793 1307q0 74 57 126t133 52q68 0 114 -45t46 -111q0 -74 -57.5 -127t-133.5 -53q-68 0 -113.5 46t-45.5 112z" glyph-name="odieresis" horiz-adv-x="1245" unicode="ö"/><glyph d="M958 823l-55 -301h-817l55 301h817zM274 258q0 74 57.5 127t133.5 53q68 0 114 -45t46 -112q0 -74 -56.5 -127.5t-132.5 -53.5q-70 0 -116 45t-46 113zM418 1063q0 74 57 126t133 52q68 0 114 -45t46 -111q0 -74 -57.5 -127t-132.5 -53q-70 0 -115 45t-45 113z" glyph-name="divide" horiz-adv-x="991" unicode="÷"/><glyph d="M68 471q0 246 167.5 428t421.5 182q178 0 306 -82l55 58h223l-160 -168q98 -129 99 -305q0 -246 -169 -427.5t-419 -181.5q-178 0 -303 80l-53 -55h-222l156 164q-102 131 -102 307zM649 784q-111 0 -181.5 -89t-70.5 -210q0 -41 9 -73l335 354q-47 18 -92 18zM598 270 q115 0 183.5 91.5t68.5 209.5q0 39 -8 66l-334 -350q43 -17 90 -17z" glyph-name="oslash" horiz-adv-x="1249" unicode="ø"/><glyph d="M553 1057l-104 -592q-4 -23 -5 -53q0 -70 35 -100.5t86 -30.5q74 0 134.5 53t74.5 131l105 592h360l-186 -1057h-361l23 127q-119 -152 -324 -152q-152 0 -234.5 86t-82.5 252q0 63 12 138l107 606h360zM934 1204l-246 -74l-223 318l268 174z" glyph-name="ugrave" horiz-adv-x="1257" unicode="ù"/><glyph d="M553 1057l-104 -592q-4 -23 -5 -53q0 -70 35 -100.5t86 -30.5q74 0 134.5 53t74.5 131l105 592h360l-186 -1057h-361l23 127q-119 -152 -324 -152q-152 0 -234.5 86t-82.5 252q0 63 12 138l107 606h360zM786 1130l-217 115l340 377l207 -217z" glyph-name="uacute" horiz-adv-x="1257" unicode="ú"/><glyph d="M553 1057l-104 -592q-4 -23 -5 -53q0 -70 35 -100.5t86 -30.5q74 0 134.5 53t74.5 131l105 592h360l-186 -1057h-361l23 127q-119 -152 -324 -152q-152 0 -234.5 86t-82.5 252q0 63 12 138l107 606h360zM766 1266l-213 -131l-139 186l379 240l307 -242l-160 -184z" glyph-name="ucircumflex" horiz-adv-x="1257" unicode="û"/><glyph d="M553 1057l-104 -592q-4 -23 -5 -53q0 -70 35 -100.5t86 -30.5q74 0 134.5 53t74.5 131l105 592h360l-186 -1057h-361l23 127q-119 -152 -324 -152q-152 0 -234.5 86t-82.5 252q0 63 12 138l107 606h360zM385 1307q0 74 57.5 126t132.5 52q68 0 114 -45t46 -111 q0 -74 -57 -127t-133 -53q-70 0 -115 46t-45 112zM791 1307q0 74 57 126t133 52q68 0 114 -45t46 -111q0 -74 -57.5 -127t-133.5 -53q-70 0 -114.5 46t-44.5 112z" glyph-name="udieresis" horiz-adv-x="1257" unicode="ü"/><glyph d="M20 -451l-94 316q229 59 367 162l-191 1030h369l80 -643l309 643h400l-502 -922q-74 -137 -155 -238.5t-146.5 -157.5t-152.5 -98t-141.5 -58t-142.5 -34zM756 1130l-217 115l340 377l206 -217z" glyph-name="yacute" horiz-adv-x="1175" unicode="ý"/><glyph d="M631 1434l-86 -492q109 139 286 139q184 0 291 -131t107 -334q0 -111 -33 -221t-94.5 -205.5t-161.5 -155t-221 -59.5q-227 0 -316 166l-90 -508h-360l317 1801h361zM690 764q-102 0 -167.5 -81t-65.5 -196q0 -86 46 -140t134 -54q102 0 167.5 82t65.5 194 q0 86 -46 140.5t-134 54.5z" glyph-name="thorn" unicode="þ"/><glyph d="M20 -451l-94 316q229 59 367 162l-191 1030h369l80 -643l309 643h400l-502 -922q-74 -137 -155 -238.5t-146.5 -157.5t-152.5 -98t-141.5 -58t-142.5 -34zM352 1307q0 74 57.5 126t133.5 52q68 0 113.5 -45t45.5 -111q0 -74 -57 -127t-133 -53q-70 0 -115 46t-45 112z M758 1307q0 74 57 126t133 52q68 0 114 -45t46 -111q0 -74 -57.5 -127t-132.5 -53q-70 0 -115 46t-45 112z" glyph-name="ydieresis" horiz-adv-x="1175" unicode="ÿ"/><glyph d="M711 1434h407l305 -1434h-387l-37 219h-563l-112 -219h-422zM860 1036l-266 -512h352zM1294 1823l-47 -267h-600l47 267h600z" glyph-name="Amacron" horiz-adv-x="1511" unicode="Ā"/><glyph d="M729 0l21 115q-109 -139 -287 -140q-184 0 -290.5 131.5t-106.5 333.5q0 111 32.5 221.5t94 206t162 154.5t220.5 59q227 0 316 -166l24 142h361l-186 -1057h-361zM604 293q102 0 168 81t66 195q0 86 -46.5 140.5t-134.5 54.5q-102 0 -167.5 -82t-65.5 -195 q0 -86 46 -140t134 -54zM1120 1452l-47 -266h-600l47 266h600z" glyph-name="amacron" unicode="ā"/><glyph d="M711 1434h407l305 -1434h-387l-37 219h-563l-112 -219h-422zM860 1036l-266 -512h352zM1106 1884l219 -69q-121 -293 -360 -293q-135 0 -216 84t-96 209l232 69q14 -119 94 -119q78 0 127 119z" glyph-name="Abreve" horiz-adv-x="1511" unicode="Ă"/><glyph d="M729 0l21 115q-109 -139 -287 -140q-184 0 -290.5 131.5t-106.5 333.5q0 111 32.5 221.5t94 206t162 154.5t220.5 59q227 0 316 -166l24 142h361l-186 -1057h-361zM604 293q102 0 168 81t66 195q0 86 -46.5 140.5t-134.5 54.5q-102 0 -167.5 -82t-65.5 -195 q0 -86 46 -140t134 -54zM934 1513l219 -69q-121 -293 -360 -293q-135 0 -216 84t-96 209l232 69q14 -119 94 -118q78 -1 127 118z" glyph-name="abreve" unicode="ă"/><glyph d="M711 1434h407l305 -1434q-150 -111 -190 -176q-23 -39 -23 -72q0 -51 64 -51q23 0 47 6l6 -231q-57 -10 -86 -11q-123 0 -191.5 56.5t-68.5 148.5q0 180 252 330h-197l-37 219h-563l-112 -219h-422zM860 1036l-266 -512h352z" glyph-name="Aogonek" horiz-adv-x="1511" unicode="Ą"/><glyph d="M729 0l21 115q-109 -139 -287 -140q-184 0 -290.5 131.5t-106.5 333.5q0 111 32.5 221.5t94 206t162 154.5t220.5 59q227 0 316 -166l24 142h361l-186 -1057q-150 -111 -191 -176q-23 -39 -22 -72q0 -51 63 -51q23 0 47 6l6 -231q-57 -10 -86 -11q-123 0 -191.5 56.5 t-68.5 148.5q0 180 252 330h-170zM604 293q102 0 168 81t66 195q0 86 -46.5 140.5t-134.5 54.5q-102 0 -167.5 -82t-65.5 -195q0 -86 46 -140t134 -54z" glyph-name="aogonek" unicode="ą"/><glyph d="M1161 594l357 -109q-92 -240 -292 -375t-438 -135q-311 0 -494 191.5t-183 472.5q0 342 229 580.5t559 238.5q270 0 444.5 -146.5t217.5 -377.5l-373 -100q-18 121 -100 197.5t-209 76.5q-164 0 -275.5 -132t-111.5 -310q0 -145 85 -242.5t232 -97.5q113 0 209 71.5 t143 196.5zM1044 1501l-217 115l340 377l207 -217z" glyph-name="Cacute" horiz-adv-x="1562" unicode="Ć"/><glyph d="M805 457l315 -97q-66 -180 -214 -282.5t-324 -102.5q-238 0 -376 142.5t-138 353.5q0 246 165.5 428t415.5 182q207 0 339 -109.5t165 -283.5l-332 -90q-8 78 -52 122t-126 44q-102 0 -163.5 -83t-61.5 -198q0 -84 46 -137t132 -53q70 0 126 43t83 121zM780 1130 l-217 115l340 377l207 -217z" glyph-name="cacute" horiz-adv-x="1189" unicode="ć"/><glyph d="M1161 594l357 -109q-92 -240 -292 -375t-438 -135q-311 0 -494 191.5t-183 472.5q0 342 229 580.5t559 238.5q270 0 444.5 -146.5t217.5 -377.5l-373 -100q-18 121 -100 197.5t-209 76.5q-164 0 -275.5 -132t-111.5 -310q0 -145 85 -242.5t232 -97.5q113 0 209 71.5 t143 196.5zM850 1677q0 74 57.5 126t132.5 52q68 0 114 -45t46 -110q0 -74 -56.5 -127t-131.5 -53q-70 0 -116 44.5t-46 112.5z" glyph-name="Cdotaccent" horiz-adv-x="1562" unicode="Ċ"/><glyph d="M805 457l315 -97q-66 -180 -214 -282.5t-324 -102.5q-238 0 -376 142.5t-138 353.5q0 246 165.5 428t415.5 182q207 0 339 -109.5t165 -283.5l-332 -90q-8 78 -52 122t-126 44q-102 0 -163.5 -83t-61.5 -198q0 -84 46 -137t132 -53q70 0 126 43t83 121zM588 1307 q0 74 57 126t133 52q68 0 114 -45t46 -111q0 -74 -56.5 -127t-131.5 -53q-70 0 -116 45t-46 113z" glyph-name="cdotaccent" horiz-adv-x="1189" unicode="ċ"/><glyph d="M1161 594l357 -109q-92 -240 -292 -375t-438 -135q-311 0 -494 191.5t-183 472.5q0 342 229 580.5t559 238.5q270 0 444.5 -146.5t217.5 -377.5l-373 -100q-18 121 -100 197.5t-209 76.5q-164 0 -275.5 -132t-111.5 -310q0 -145 85 -242.5t232 -97.5q113 0 209 71.5 t143 196.5zM1016 1796l213 131l141 -188l-379 -238l-309 240l160 186z" glyph-name="Ccaron" horiz-adv-x="1562" unicode="Č"/><glyph d="M805 457l315 -97q-66 -180 -214 -282.5t-324 -102.5q-238 0 -376 142.5t-138 353.5q0 246 165.5 428t415.5 182q207 0 339 -109.5t165 -283.5l-332 -90q-8 78 -52 122t-126 44q-102 0 -163.5 -83t-61.5 -198q0 -84 46 -137t132 -53q70 0 126 43t83 121zM756 1425l213 131 l141 -188l-379 -238l-309 240l160 186z" glyph-name="ccaron" horiz-adv-x="1189" unicode="č"/><glyph d="M53 0l252 1434h565q319 0 489.5 -169t170.5 -446q0 -162 -50 -308t-143.5 -261t-242 -182.5t-330.5 -67.5h-711zM844 1106h-230l-137 -778h285q184 0 284.5 137t100.5 332q0 143 -75.5 226t-227.5 83zM977 1796l213 131l141 -188l-379 -238l-309 240l160 186z" glyph-name="Dcaron" horiz-adv-x="1572" unicode="Ď"/><glyph d="M729 0l21 115q-109 -139 -287 -140q-184 0 -290.5 131.5t-106.5 333.5q0 111 32.5 221.5t94 206t162 154.5t220.5 59q227 0 316 -166l90 519h360l-251 -1434h-361zM604 293q102 0 168 81t66 195q0 86 -46.5 140.5t-134.5 54.5q-102 0 -167.5 -82t-65.5 -195 q0 -86 46 -140t134 -54zM1479 864l-88 115q137 100 161 176q-61 -2 -101 40t-40 99q0 66 51 113t117 47q74 0 120 -45t46 -125q0 -111 -71.5 -224.5t-194.5 -195.5z" glyph-name="dcaron" horiz-adv-x="1587" unicode="ď"/><glyph d="M68 571l51 291h143l100 572h566q319 0 489 -169t170 -446q0 -162 -50 -308t-143.5 -261t-241.5 -182.5t-331 -67.5h-710l100 571h-143zM879 571h-301l-43 -243h284q184 0 284.5 137t100.5 332q0 143 -75.5 226t-227.5 83h-229l-43 -244h301z" glyph-name="Dcroat" horiz-adv-x="1630" unicode="Đ"/><glyph d="M729 0l21 115q-109 -139 -287 -140q-184 0 -290.5 131.5t-106.5 333.5q0 111 32.5 221.5t94 206t162 154.5t220.5 59q227 0 316 -166l37 218h-230l37 202h228l18 99h360l-18 -99h139l-37 -202h-137l-198 -1133h-361zM604 293q102 0 168 81t66 195q0 86 -46.5 140.5 t-134.5 54.5q-102 0 -167.5 -82t-65.5 -195q0 -86 46 -140t134 -54z" glyph-name="dcroat" horiz-adv-x="1304" unicode="đ"/><glyph d="M53 0l252 1434h1106l-57 -328h-740l-43 -236h596l-53 -303h-596l-41 -239h740l-58 -328h-1106zM1237 1823l-47 -267h-600l47 267h600z" glyph-name="Emacron" horiz-adv-x="1347" unicode="Ē"/><glyph d="M905 340l129 -227q-178 -137 -426 -138q-262 0 -402 140.5t-140 349.5q0 260 175 438t445 178q211 0 331 -95t120 -243q0 -160 -146.5 -262t-431.5 -102h-129q45 -125 219 -125q127 0 256 86zM676 809q-86 0 -151.5 -53.5t-92.5 -151.5h62q293 0 292 123q0 39 -30.5 60.5 t-79.5 21.5zM1094 1452l-47 -266h-601l48 266h600z" glyph-name="emacron" horiz-adv-x="1177" unicode="ē"/><glyph d="M53 0l252 1434h1106l-57 -328h-740l-43 -236h596l-53 -303h-596l-41 -239h740l-58 -328h-1106zM733 1677q0 74 57.5 126t133.5 52q68 0 113.5 -45t45.5 -110q0 -74 -56 -127t-132 -53q-70 0 -116 44.5t-46 112.5z" glyph-name="Edotaccent" horiz-adv-x="1347" unicode="Ė"/><glyph d="M905 340l129 -227q-178 -137 -426 -138q-262 0 -402 140.5t-140 349.5q0 260 175 438t445 178q211 0 331 -95t120 -243q0 -160 -146.5 -262t-431.5 -102h-129q45 -125 219 -125q127 0 256 86zM676 809q-86 0 -151.5 -53.5t-92.5 -151.5h62q293 0 292 123q0 39 -30.5 60.5 t-79.5 21.5zM590 1307q0 74 57.5 126t132.5 52q68 0 114 -45t46 -111q0 -74 -56.5 -127t-131.5 -53q-70 0 -116 45t-46 113z" glyph-name="edotaccent" horiz-adv-x="1177" unicode="ė"/><glyph d="M53 0l252 1434h1106l-57 -328h-740l-43 -236h596l-53 -303h-596l-41 -239h740l-58 -328q-150 -111 -190 -176q-23 -39 -23 -72q0 -51 64 -51q23 0 47 6l6 -231q-57 -10 -86 -11q-123 0 -191.5 56.5t-68.5 148.5q0 180 252 330h-916z" glyph-name="Eogonek" horiz-adv-x="1347" unicode="Ę"/><glyph d="M905 340l129 -227q-68 -51 -147 -84q-254 -170 -254 -277q0 -51 63 -51q23 0 47 6l7 -231q-57 -10 -86 -11q-121 0 -191 56.5t-70 148.5q0 164 213 305h-8q-262 0 -402 140.5t-140 349.5q0 260 175 438t445 178q211 0 331 -95t120 -243q0 -160 -146.5 -262t-431.5 -102 h-129q45 -125 219 -125q127 0 256 86zM676 809q-86 0 -151.5 -53.5t-92.5 -151.5h62q293 0 292 123q0 39 -30.5 60.5t-79.5 21.5z" glyph-name="eogonek" horiz-adv-x="1177" unicode="ę"/><glyph d="M53 0l252 1434h1106l-57 -328h-740l-43 -236h596l-53 -303h-596l-41 -239h740l-58 -328h-1106zM901 1796l213 131l141 -188l-378 -238l-310 240l160 186z" glyph-name="Ecaron" horiz-adv-x="1347" unicode="Ě"/><glyph d="M905 340l129 -227q-178 -137 -426 -138q-262 0 -402 140.5t-140 349.5q0 260 175 438t445 178q211 0 331 -95t120 -243q0 -160 -146.5 -262t-431.5 -102h-129q45 -125 219 -125q127 0 256 86zM676 809q-86 0 -151.5 -53.5t-92.5 -151.5h62q293 0 292 123q0 39 -30.5 60.5 t-79.5 21.5zM772 1425l213 131l141 -188l-378 -238l-310 240l160 186z" glyph-name="ecaron" horiz-adv-x="1177" unicode="ě"/><glyph d="M774 549l47 272h729l-145 -821h-260l33 193q-150 -217 -428 -218q-297 0 -468 193.5t-171 470.5q0 332 223 575.5t575 243.5q207 0 372 -94t255 -250l-299 -194q-121 197 -332 196q-178 0 -295.5 -133t-117.5 -326q0 -143 79.5 -240.5t229.5 -97.5q111 0 195.5 59.5 t133.5 170.5h-356zM1171 1884l220 -69q-121 -293 -361 -293q-135 0 -216 84t-95 209l231 69q14 -119 94 -119q78 0 127 119z" glyph-name="Gbreve" horiz-adv-x="1603" unicode="Ğ"/><glyph d="M74 477q0 106 31.5 211t90 194t153.5 144t210 55q217 0 309 -176l27 152h360l-161 -920q-53 -299 -206 -426t-362 -127q-168 0 -313 62.5t-242 160.5l199 238q184 -162 332 -162q184 0 227 234l8 45q-113 -119 -266 -119q-186 0 -291.5 123t-105.5 311zM647 772 q-92 0 -154.5 -70.5t-62.5 -169.5q0 -78 48 -130t128 -52q92 0 154.5 71t62.5 169q0 78 -48 130t-128 52zM924 1513l219 -69q-121 -293 -361 -293q-135 0 -216 84t-95 209l231 69q14 -119 95 -118q78 -1 127 118z" glyph-name="gbreve" horiz-adv-x="1273" unicode="ğ"/><glyph d="M774 549l47 272h729l-145 -821h-260l33 193q-150 -217 -428 -218q-297 0 -468 193.5t-171 470.5q0 332 223 575.5t575 243.5q207 0 372 -94t255 -250l-299 -194q-121 197 -332 196q-178 0 -295.5 -133t-117.5 -326q0 -143 79.5 -240.5t229.5 -97.5q111 0 195.5 59.5 t133.5 170.5h-356zM856 1677q0 74 57.5 126t133.5 52q68 0 113.5 -45t45.5 -110q0 -74 -56 -127t-132 -53q-70 0 -116 44.5t-46 112.5z" glyph-name="Gdotaccent" horiz-adv-x="1603" unicode="Ġ"/><glyph d="M74 477q0 106 31.5 211t90 194t153.5 144t210 55q217 0 309 -176l27 152h360l-161 -920q-53 -299 -206 -426t-362 -127q-168 0 -313 62.5t-242 160.5l199 238q184 -162 332 -162q184 0 227 234l8 45q-113 -119 -266 -119q-186 0 -291.5 123t-105.5 311zM647 772 q-92 0 -154.5 -70.5t-62.5 -169.5q0 -78 48 -130t128 -52q92 0 154.5 71t62.5 169q0 78 -48 130t-128 52zM608 1307q0 74 57.5 126t133.5 52q68 0 113.5 -45t45.5 -111q0 -74 -56 -127t-132 -53q-70 0 -116 45t-46 113z" glyph-name="gdotaccent" horiz-adv-x="1273" unicode="ġ"/><glyph d="M774 549l47 272h729l-145 -821h-260l33 193q-150 -217 -428 -218q-297 0 -468 193.5t-171 470.5q0 332 223 575.5t575 243.5q207 0 372 -94t255 -250l-299 -194q-121 197 -332 196q-178 0 -295.5 -133t-117.5 -326q0 -143 79.5 -240.5t229.5 -97.5q111 0 195.5 59.5 t133.5 170.5h-356zM588 -686l-88 115q137 100 162 176q-61 -2 -101.5 40t-40.5 99q0 66 51.5 113t116.5 47q74 0 120 -45t46 -125q0 -111 -71.5 -224.5t-194.5 -195.5z" glyph-name="Gcommaaccent" horiz-adv-x="1603" unicode="Ģ"/><glyph d="M74 477q0 106 31.5 211t90 194t153.5 144t210 55q217 0 309 -176l27 152h360l-161 -920q-53 -299 -206 -426t-362 -127q-168 0 -313 62.5t-242 160.5l199 238q184 -162 332 -162q184 0 227 234l8 45q-113 -119 -266 -119q-186 0 -291.5 123t-105.5 311zM647 772 q-92 0 -154.5 -70.5t-62.5 -169.5q0 -78 48 -130t128 -52q92 0 154.5 71t62.5 169q0 78 -48 130t-128 52zM362 -1065l-88 115q137 100 162 176q-61 -2 -101 40t-40 99q0 66 51 113t117 47q74 0 120 -45t46 -125q0 -111 -72 -224.5t-195 -195.5z" glyph-name="gcommaaccent" horiz-adv-x="1273" unicode="ģ"/><glyph d="M1286 1434h367l-29 -164h94l-39 -228h-96l-182 -1042h-367l96 555h-602l-96 -555h-366l182 1042h-96l38 228h99l28 164h367l-29 -164h602zM586 881h602l29 161h-603z" glyph-name="Hbar" horiz-adv-x="1652" unicode="Ħ"/><glyph d="M98 1133l35 202h125l18 99h361l-19 -99h242l-35 -202h-241l-35 -203q119 152 323 151q152 0 235 -86t83 -252q0 -63 -12 -137l-107 -606h-360l104 592q4 23 4 53q0 70 -34.5 100.5t-86.5 30.5q-74 0 -134 -53t-75 -131l-104 -592h-360l198 1133h-125z" glyph-name="hbar" horiz-adv-x="1267" unicode="ħ"/><glyph d="M305 1434h371l-252 -1434h-371zM377 1552h-240q16 168 93 270.5t198 102.5q109 0 176 -96q8 -10 16.5 -25.5t13.5 -23.5t12 -15.5t13 -7.5q31 0 41 129h242q-16 -168 -93 -270.5t-200 -102.5q-106 0 -174 99q-8 10 -20.5 31.5t-20.5 30.5t-16 9q-25 0 -41 -131z" glyph-name="Itilde" horiz-adv-x="661" unicode="Ĩ"/><glyph d="M18 0l187 1057h360l-186 -1057h-361zM270 1182h-239q16 168 93 270t198 102q109 0 176 -96q8 -10 16 -25.5t13 -23.5t12.5 -15.5t13.5 -7.5q31 0 41 130h242q-16 -168 -93 -270.5t-200 -102.5q-106 0 -174 98q-8 10 -20.5 31.5t-21 31t-16.5 9.5q-25 0 -41 -131z" glyph-name="itilde" horiz-adv-x="585" unicode="ĩ"/><glyph d="M305 1434h371l-252 -1434h-371zM860 1823l-47 -267h-600l47 267h600z" glyph-name="Imacron" horiz-adv-x="661" unicode="Ī"/><glyph d="M18 0l187 1057h360l-186 -1057h-361zM756 1452l-47 -266h-600l47 266h600z" glyph-name="imacron" horiz-adv-x="585" unicode="ī"/><glyph d="M305 1434h371l-252 -1434h-371zM674 1884l219 -69q-121 -293 -361 -293q-135 0 -215.5 84t-95.5 209l232 69q14 -119 94 -119q78 0 127 119z" glyph-name="Ibreve" horiz-adv-x="661" unicode="Ĭ"/><glyph d="M18 0l187 1057h360l-186 -1057h-361zM569 1513l219 -69q-121 -293 -360 -293q-135 0 -216 84t-95 209l231 69q14 -119 94 -118q78 -1 127 118z" glyph-name="ibreve" horiz-adv-x="585" unicode="ĭ"/><glyph d="M305 1434h371l-252 -1434q-150 -111 -191 -176q-23 -39 -22 -72q0 -51 63 -51q23 0 48 6l6 -231q-57 -10 -86 -11q-123 0 -191.5 56.5t-68.5 148.5q0 180 251 330h-180z" glyph-name="Iogonek" horiz-adv-x="661" unicode="Į"/><glyph d="M18 0l187 1057h360l-186 -1057q-150 -111 -191 -176q-23 -39 -22 -72q0 -51 63 -51q23 0 47 6l7 -231q-57 -10 -86 -11q-123 0 -191.5 56.5t-68.5 148.5q0 180 251 330h-170zM221 1329q0 90 69.5 155.5t164.5 65.5q84 0 139 -55t55 -135q0 -90 -69.5 -155.5t-163.5 -65.5 q-82 0 -138.5 55t-56.5 135z" glyph-name="iogonek" horiz-adv-x="585" unicode="į"/><glyph d="M305 1434h371l-252 -1434h-371zM360 1677q0 74 57.5 126t133.5 52q68 0 114 -45t46 -110q0 -74 -56.5 -127t-132.5 -53q-70 0 -116 44.5t-46 112.5z" glyph-name="Idotaccent" horiz-adv-x="661" unicode="İ"/><glyph d="M18 0l187 1057h360l-186 -1057h-361z" glyph-name="dotlessi" horiz-adv-x="585" unicode="ı"/><glyph d="M305 1434h371l-252 -1434h-371zM1032 1094l60 340h929l-166 -942q-41 -236 -204.5 -376.5t-390.5 -140.5q-268 0 -410.5 144.5t-142.5 361.5q0 49 10 115l22 127h367l-19 -107q-8 -49 -8 -96q0 -201 189 -201q190 0 235 254l92 521h-563z" glyph-name="IJ" horiz-adv-x="1992" unicode="Ĳ"/><glyph d="M221 1329q0 90 69.5 155.5t164.5 65.5q84 0 139 -55t55 -135q0 -90 -69.5 -155.5t-163.5 -65.5q-82 0 -138.5 55t-56.5 135zM18 0l187 1057h360l-186 -1057h-361zM813 1329q0 90 68.5 155.5t162.5 65.5q84 0 139.5 -55t55.5 -135q0 -90 -68.5 -155.5t-162.5 -65.5 q-84 0 -139.5 55t-55.5 135zM375 -377l96 273q37 -12 59 -13q59 0 74 78l193 1096h360l-201 -1141q-29 -170 -130 -251t-248 -81q-103 0 -203 39z" glyph-name="ij" horiz-adv-x="1177" unicode="ĳ"/><glyph d="M381 1094l59 340h930l-166 -942q-41 -236 -204.5 -376.5t-391.5 -140.5q-268 0 -410.5 144.5t-142.5 361.5q0 49 11 115l22 127h367l-19 -107q-8 -49 -8 -96q0 -201 188 -201q190 0 236 254l92 521h-563zM958 1636l-213 -131l-139 187l379 239l307 -241l-159 -185z" glyph-name="Jcircumflex" horiz-adv-x="1341" unicode="Ĵ"/><glyph d="M-203 -377l97 273q37 -12 59 -13q59 0 74 78l192 1096h361l-201 -1141q-29 -170 -130.5 -251t-248.5 -81q-103 0 -203 39zM444 1266l-213 -131l-139 186l379 240l307 -242l-160 -184z" glyph-name="jcircumflex" horiz-adv-x="598" unicode="ĵ"/><glyph d="M1006 0l-256 555h-232l-98 -555h-367l252 1434h367l-97 -553h191l434 553h430l-557 -709l334 -725h-401zM549 -686l-88 115q137 100 162 176q-61 -2 -101.5 40t-40.5 99q0 66 51.5 113t116.5 47q74 0 120 -45t46 -125q0 -111 -71.5 -224.5t-194.5 -195.5z" glyph-name="Kcommaaccent" horiz-adv-x="1499" unicode="Ķ"/><glyph d="M721 0l-148 381h-127l-67 -381h-361l252 1434h361l-133 -760h102l246 383h407l-364 -545l209 -512h-377zM395 -686l-88 115q137 100 162 176q-61 -2 -101 40t-40 99q0 66 51 113t117 47q74 0 120 -45t46 -125q0 -111 -72 -224.5t-195 -195.5z" glyph-name="kcommaaccent" horiz-adv-x="1206" unicode="ķ"/><glyph d="M53 0l252 1434h367l-193 -1092h695l-60 -342h-1061zM553 1501l-217 115l340 377l207 -217z" glyph-name="Lacute" horiz-adv-x="1247" unicode="Ĺ"/><glyph d="M18 0l252 1434h361l-252 -1434h-361zM479 1501l-217 115l340 377l207 -217z" glyph-name="lacute" horiz-adv-x="587" unicode="ĺ"/><glyph d="M53 0l252 1434h367l-193 -1092h695l-60 -342h-1061zM446 -686l-88 115q137 100 162 176q-61 -2 -101 40t-40 99q0 66 51 113t117 47q74 0 120 -45t46 -125q0 -111 -72 -224.5t-195 -195.5z" glyph-name="Lcommaaccent" horiz-adv-x="1247" unicode="Ļ"/><glyph d="M59 -686l-88 115q137 100 162 176q-61 -2 -101 40t-40 99q0 66 51 113t117 47q74 0 120 -45t46 -125q0 -111 -72 -224.5t-195 -195.5zM18 0l252 1434h361l-252 -1434h-361z" glyph-name="lcommaaccent" horiz-adv-x="587" unicode="ļ"/><glyph d="M53 0l252 1434h367l-193 -1092h695l-60 -342h-1061zM844 864l-88 115q137 100 162 176q-61 -2 -101.5 40t-40.5 99q0 66 51.5 113t116.5 47q74 0 120 -45t46 -125q0 -111 -71.5 -224.5t-194.5 -195.5z" glyph-name="Lcaron" horiz-adv-x="1253" unicode="Ľ"/><glyph d="M18 0l252 1434h361l-252 -1434h-361zM754 864l-88 115q137 100 161 176q-61 -2 -101 40t-40 99q0 66 51 113t117 47q74 0 120 -45t46 -125q0 -111 -71.5 -224.5t-194.5 -195.5z" glyph-name="lcaron" horiz-adv-x="866" unicode="ľ"/><glyph d="M53 0l252 1434h367l-193 -1092h695l-60 -342h-1061zM705 709q0 74 57 126t133 52q68 0 114 -45t46 -111q0 -74 -56.5 -127t-132.5 -53q-70 0 -115.5 45t-45.5 113z" glyph-name="Ldot" horiz-adv-x="1249" unicode="Ŀ"/><glyph d="M18 0l252 1434h361l-252 -1434h-361zM575 709q0 74 57.5 126t133.5 52q68 0 114 -45t46 -111q0 -74 -56.5 -127t-132.5 -53q-70 0 -116 45t-46 113z" glyph-name="ldot" horiz-adv-x="880" unicode="ŀ"/><glyph d="M29 344l61 352l135 84l115 654h367l-70 -396l252 158l-62 -350l-254 -160l-59 -344h694l-59 -342h-1061l76 428z" glyph-name="Lslash" horiz-adv-x="1282" unicode="Ł"/><glyph d="M35 295l63 352l123 76l125 711h361l-80 -457l121 76l-62 -353l-123 -75l-108 -625h-361l66 373z" glyph-name="lslash" horiz-adv-x="731" unicode="ł"/><glyph d="M420 0h-367l252 1434h373l444 -883l156 883h367l-252 -1434h-373l-445 883zM1047 1501l-218 115l340 377l207 -217z" glyph-name="Nacute" horiz-adv-x="1630" unicode="Ń"/><glyph d="M705 0l104 592q4 23 4 53q0 70 -35 100.5t-86 30.5q-74 0 -134 -53t-75 -131l-104 -592h-361l187 1057h360l-22 -127q119 152 323 151q152 0 235 -86t83 -252q0 -63 -13 -137l-106 -606h-360zM795 1130l-217 115l340 377l206 -217z" glyph-name="nacute" horiz-adv-x="1259" unicode="ń"/><glyph d="M420 0h-367l252 1434h373l444 -883l156 883h367l-252 -1434h-373l-445 883zM588 -686l-88 115q137 100 162 176q-61 -2 -101.5 40t-40.5 99q0 66 51.5 113t116.5 47q74 0 120 -45t46 -125q0 -111 -71.5 -224.5t-194.5 -195.5z" glyph-name="Ncommaaccent" horiz-adv-x="1630" unicode="Ņ"/><glyph d="M705 0l104 592q4 23 4 53q0 70 -35 100.5t-86 30.5q-74 0 -134 -53t-75 -131l-104 -592h-361l187 1057h360l-22 -127q119 152 323 151q152 0 235 -86t83 -252q0 -63 -13 -137l-106 -606h-360zM410 -686l-88 115q137 100 161 176q-61 -2 -101 40t-40 99q0 66 51 113 t117 47q74 0 120 -45t46 -125q0 -111 -71.5 -224.5t-194.5 -195.5z" glyph-name="ncommaaccent" horiz-adv-x="1259" unicode="ņ"/><glyph d="M420 0h-367l252 1434h373l444 -883l156 883h367l-252 -1434h-373l-445 883zM1022 1796l213 131l141 -188l-379 -238l-309 240l160 186z" glyph-name="Ncaron" horiz-adv-x="1630" unicode="Ň"/><glyph d="M705 0l104 592q4 23 4 53q0 70 -35 100.5t-86 30.5q-74 0 -134 -53t-75 -131l-104 -592h-361l187 1057h360l-22 -127q119 152 323 151q152 0 235 -86t83 -252q0 -63 -13 -137l-106 -606h-360zM782 1425l213 131l142 -188l-379 -238l-309 240l159 186z" glyph-name="ncaron" horiz-adv-x="1259" unicode="ň"/><glyph d="M1130 0l105 592q4 23 4 53q0 70 -35 100.5t-86 30.5q-74 0 -134 -53t-75 -131l-104 -592h-361l187 1057h360l-22 -127q119 152 323 151q152 0 235 -86t83 -252q0 -63 -13 -137l-106 -606h-361zM242 698l-115 146q190 127 223 239q-86 -2 -139 52.5t-53 128.5 q0 86 67.5 147.5t159.5 61.5q94 0 155.5 -62.5t61.5 -167.5q0 -137 -97 -288t-263 -257z" glyph-name="napostrophe" horiz-adv-x="1685" unicode="ŉ"/><glyph d="M418 0h-365l252 1434h373l444 -877l156 877h367l-269 -1520q-29 -168 -136 -250t-263 -82q-125 0 -250 39l82 277q59 -16 111 -17q86 0 98 78l6 43l-451 883z" glyph-name="Eng" horiz-adv-x="1630" unicode="Ŋ"/><glyph d="M467 -377l96 273q35 -12 60 -13q59 0 73 78l113 631q4 23 4 55q0 68 -35 98.5t-86 30.5q-74 0 -134 -53t-75 -131l-104 -592h-361l187 1057h360l-22 -127q119 152 323 151q152 0 235 -86t83 -252q0 -63 -13 -137l-120 -690q-29 -168 -131.5 -250t-249.5 -82 q-103 0 -203 39z" glyph-name="eng" horiz-adv-x="1259" unicode="ŋ"/><glyph d="M109 637q0 211 97 397.5t283.5 305t419.5 118.5q315 0 500.5 -190.5t185.5 -470.5q0 -211 -97 -397.5t-283.5 -305.5t-419.5 -119q-315 0 -500.5 190.5t-185.5 471.5zM887 1108q-170 0 -282.5 -133t-112.5 -309q0 -145 87 -242.5t238 -97.5q170 0 282.5 133t112.5 309 q0 145 -86.5 242.5t-238.5 97.5zM1362 1823l-47 -267h-600l47 267h600z" glyph-name="Omacron" horiz-adv-x="1640" unicode="Ō"/><glyph d="M68 473q0 258 173 433t414.5 175t382 -143t140.5 -354q0 -258 -173.5 -433.5t-415 -175.5t-381.5 143.5t-140 354.5zM645 764q-100 0 -164.5 -83t-64.5 -194q0 -86 47 -140t137 -54q100 0 164.5 83t64.5 193q0 86 -47 140.5t-137 54.5zM1094 1452l-47 -266h-601l48 266 h600z" glyph-name="omacron" horiz-adv-x="1245" unicode="ō"/><glyph d="M109 637q0 211 97 397.5t283.5 305t419.5 118.5q315 0 500.5 -190.5t185.5 -470.5q0 -211 -97 -397.5t-283.5 -305.5t-419.5 -119q-315 0 -500.5 190.5t-185.5 471.5zM887 1108q-170 0 -282.5 -133t-112.5 -309q0 -145 87 -242.5t238 -97.5q170 0 282.5 133t112.5 309 q0 145 -86.5 242.5t-238.5 97.5zM1174 1884l219 -69q-121 -293 -361 -293q-135 0 -216 84t-95 209l231 69q14 -119 95 -119q78 0 127 119z" glyph-name="Obreve" horiz-adv-x="1640" unicode="Ŏ"/><glyph d="M68 473q0 258 173 433t414.5 175t382 -143t140.5 -354q0 -258 -173.5 -433.5t-415 -175.5t-381.5 143.5t-140 354.5zM645 764q-100 0 -164.5 -83t-64.5 -194q0 -86 47 -140t137 -54q100 0 164.5 83t64.5 193q0 86 -47 140.5t-137 54.5zM907 1513l219 -69 q-121 -293 -360 -293q-135 0 -216 84t-95 209l231 69q14 -119 94 -118q78 -1 127 118z" glyph-name="obreve" horiz-adv-x="1245" unicode="ŏ"/><glyph d="M109 637q0 211 97 397.5t283.5 305t419.5 118.5q315 0 500.5 -190.5t185.5 -470.5q0 -211 -97 -397.5t-283.5 -305.5t-419.5 -119q-315 0 -500.5 190.5t-185.5 471.5zM887 1108q-170 0 -282.5 -133t-112.5 -309q0 -145 87 -242.5t238 -97.5q170 0 282.5 133t112.5 309 q0 145 -86.5 242.5t-238.5 97.5zM844 1501l-215 92l340 400l207 -193zM1296 1501l-213 92l340 400l205 -193z" glyph-name="Ohungarumlaut" horiz-adv-x="1640" unicode="Ő"/><glyph d="M68 473q0 258 173 433t414.5 175t382 -143t140.5 -354q0 -258 -173.5 -433.5t-415 -175.5t-381.5 143.5t-140 354.5zM645 764q-100 0 -164.5 -83t-64.5 -194q0 -86 47 -140t137 -54q100 0 164.5 83t64.5 193q0 86 -47 140.5t-137 54.5zM578 1130l-216 93l340 399 l207 -192zM1030 1130l-213 93l340 399l205 -192z" glyph-name="ohungarumlaut" horiz-adv-x="1245" unicode="ő"/><glyph d="M1853 0h-956q-391 0 -588.5 178t-197.5 459q0 152 49 289t146 253.5t265 185.5t383 69h1151l-57 -328h-676l-43 -236h533l-56 -303h-530l-41 -239h676zM868 328l138 782h-56q-233 0 -347 -130t-114 -316q0 -152 97.5 -244t281.5 -92z" glyph-name="OE" horiz-adv-x="2041" unicode="Œ"/><glyph d="M68 473q0 258 173 433t414 175q238 0 381 -143q170 143 410 143q211 0 330.5 -95t119.5 -243q0 -160 -146 -262t-431 -102h-129q45 -125 219 -125q127 0 256 86l129 -227q-178 -137 -426 -138q-256 0 -401 140q-166 -139 -377 -140q-242 0 -382 143.5t-140 354.5z M645 764q-100 0 -164.5 -83t-64.5 -194q0 -86 47 -140t137 -54q100 0 164.5 83t64.5 193q0 86 -47 140.5t-137 54.5zM1436 809q-86 0 -151.5 -53.5t-92.5 -151.5h61q293 0 293 123q0 39 -30.5 60.5t-79.5 21.5z" glyph-name="oe" horiz-adv-x="1937" unicode="œ"/><glyph d="M305 1434h621q258 0 389 -130t131 -327q0 -174 -85 -316.5t-239 -209.5l228 -451h-392l-188 399h-281l-69 -399h-367zM811 719q117 0 185.5 56t68.5 173q0 78 -48 122t-147 44h-256l-69 -395h266zM977 1501l-217 115l340 377l207 -217z" glyph-name="Racute" horiz-adv-x="1488" unicode="Ŕ"/><glyph d="M567 1057l-61 -348q143 365 442 372l-78 -434q-162 -8 -284.5 -98t-151.5 -246l-53 -303h-361l187 1057h360zM641 1130l-217 115l340 377l207 -217z" glyph-name="racute" horiz-adv-x="905" unicode="ŕ"/><glyph d="M53 0l252 1434h621q258 0 389 -130t131 -327q0 -174 -85 -316.5t-239 -209.5l228 -451h-392l-188 399h-281l-69 -399h-367zM545 719h266q117 0 185.5 56t68.5 173q0 78 -48 122t-147 44h-256zM516 -686l-88 115q137 100 162 176q-61 -2 -101 40t-40 99q0 66 51 113 t116 47q74 0 120 -45t46 -125q0 -111 -71.5 -224.5t-194.5 -195.5z" glyph-name="Rcommaaccent" horiz-adv-x="1488" unicode="Ŗ"/><glyph d="M567 1057l-61 -348q143 365 442 372l-78 -434q-162 -8 -284.5 -98t-151.5 -246l-53 -303h-361l187 1057h360zM57 -686l-88 115q137 100 162 176q-61 -2 -101 40t-40 99q0 66 51 113t117 47q74 0 120 -45t46 -125q0 -111 -72 -224.5t-195 -195.5z" glyph-name="rcommaaccent" horiz-adv-x="905" unicode="ŗ"/><glyph d="M305 1434h621q258 0 389 -130t131 -327q0 -174 -85 -316.5t-239 -209.5l228 -451h-392l-188 399h-281l-69 -399h-367zM811 719q117 0 185.5 56t68.5 173q0 78 -48 122t-147 44h-256l-69 -395h266zM967 1796l213 131l141 -188l-379 -238l-309 240l160 186z" glyph-name="Rcaron" horiz-adv-x="1488" unicode="Ř"/><glyph d="M567 1057l-61 -348q143 365 442 372l-78 -434q-162 -8 -284.5 -98t-151.5 -246l-53 -303h-361l187 1057h360zM627 1425l213 131l141 -188l-379 -238l-309 240l160 186z" glyph-name="rcaron" horiz-adv-x="905" unicode="ř"/><glyph d="M57 424l367 74v-15q0 -213 278 -213q84 0 135.5 30t51.5 83q0 16 -6 30.5t-22.5 29t-30 23.5t-43 23.5t-46 22.5t-57.5 24.5t-59 24.5q-219 92 -328 195.5t-109 259.5q0 215 157 328.5t398 113.5q266 0 432 -122t166 -361v-29h-364v19q0 199 -234 198q-70 0 -123 -26.5 t-53 -87.5q0 -37 34 -70t73 -52.5t121 -56.5q96 -43 148 -67.5t125 -69.5t108.5 -85t63.5 -100.5t28 -131.5q0 -213 -153.5 -327t-414.5 -114q-119 0 -228.5 25t-204.5 75t-152.5 137t-57.5 200v12zM889 1501l-217 115l340 377l207 -217z" glyph-name="Sacute" horiz-adv-x="1372" unicode="Ś"/><glyph d="M16 289l322 80q8 -68 59.5 -107t126.5 -39q109 0 109 60q0 12 -6 24t-20.5 22.5t-28 18.5t-36 18.5t-36.5 15.5t-42 15.5t-38 14.5q-315 123 -315 333q0 158 121.5 247t322.5 89q209 0 345 -92t136 -266v-12h-331v12q0 47 -36 79t-100 32q-109 0 -108 -64q0 -10 4 -20.5 t15.5 -19.5t21.5 -16t31.5 -17.5t36 -16.5t44 -17.5t48.5 -19.5q156 -63 238.5 -138t82.5 -190q0 -166 -123 -253t-325 -87q-209 0 -358 83.5t-161 230.5zM678 1130l-217 115l340 377l207 -217z" glyph-name="sacute" horiz-adv-x="1085" unicode="ś"/><glyph d="M57 424l367 74v-15q0 -213 278 -213q84 0 135.5 30t51.5 83q0 16 -6 30.5t-22.5 29t-30 23.5t-43 23.5t-46 22.5t-57.5 24.5t-59 24.5q-219 92 -328 195.5t-109 259.5q0 215 157 328.5t398 113.5q266 0 432 -122t166 -361v-29h-364v19q0 199 -234 198q-70 0 -123 -26.5 t-53 -87.5q0 -37 34 -70t73 -52.5t121 -56.5q96 -43 148 -67.5t125 -69.5t108.5 -85t63.5 -100.5t28 -131.5q0 -213 -153.5 -327t-414.5 -114q-119 0 -228.5 25t-204.5 75t-152.5 137t-57.5 200v12zM870 1636l-213 -131l-139 187l379 239l307 -241l-160 -185z" glyph-name="Scircumflex" horiz-adv-x="1372" unicode="Ŝ"/><glyph d="M16 289l322 80q8 -68 59.5 -107t126.5 -39q109 0 109 60q0 12 -6 24t-20.5 22.5t-28 18.5t-36 18.5t-36.5 15.5t-42 15.5t-38 14.5q-315 123 -315 333q0 158 121.5 247t322.5 89q209 0 345 -92t136 -266v-12h-331v12q0 47 -36 79t-100 32q-109 0 -108 -64q0 -10 4 -20.5 t15.5 -19.5t21.5 -16t31.5 -17.5t36 -16.5t44 -17.5t48.5 -19.5q156 -63 238.5 -138t82.5 -190q0 -166 -123 -253t-325 -87q-209 0 -358 83.5t-161 230.5zM662 1266l-213 -131l-140 186l379 240l307 -242l-159 -184z" glyph-name="scircumflex" horiz-adv-x="1085" unicode="ŝ"/><glyph d="M57 424l367 74v-15q0 -213 278 -213q84 0 135.5 30t51.5 83q0 16 -6 30.5t-22.5 29t-30 23.5t-43 23.5t-46 22.5t-57.5 24.5t-59 24.5q-219 92 -328 195.5t-109 259.5q0 215 157 328.5t398 113.5q266 0 432 -122t166 -361v-29h-364v19q0 199 -234 198q-70 0 -123 -26.5 t-53 -87.5q0 -37 34 -70t73 -52.5t121 -56.5q96 -43 148 -67.5t125 -69.5t108.5 -85t63.5 -100.5t28 -131.5q0 -213 -153.5 -327t-414.5 -114h-8l-35 -67q139 -47 140 -187q0 -109 -75 -179t-198 -70q-139 0 -264 79l119 183q88 -57 141 -58q27 0 47.5 14.5t20.5 41.5 q0 61 -96 61l-37 64l86 131q-209 29 -346.5 135t-137.5 289v12z" glyph-name="Scedilla" horiz-adv-x="1372" unicode="Ş"/><glyph d="M16 289l322 80q8 -68 59.5 -107t126.5 -39q109 0 109 60q0 12 -6 24t-20.5 22.5t-28 18.5t-36 18.5t-36.5 15.5t-42 15.5t-38 14.5q-315 123 -315 333q0 158 121.5 247t322.5 89q209 0 345 -92t136 -266v-12h-331v12q0 47 -36 79t-100 32q-109 0 -108 -64q0 -10 4 -20.5 t15.5 -19.5t21.5 -16t31.5 -17.5t36 -16.5t44 -17.5t48.5 -19.5q156 -63 238.5 -138t82.5 -190q0 -164 -120 -251t-320 -89l-35 -67q139 -47 139 -187q0 -109 -74.5 -179t-197.5 -70q-139 0 -264 79l118 183q88 -57 142 -58q27 0 47 14.5t20 41.5q0 61 -96 61l-37 64l86 131 q-158 25 -262.5 102.5t-112.5 198.5z" glyph-name="scedilla" horiz-adv-x="1085" unicode="ş"/><glyph d="M57 424l367 74v-15q0 -213 278 -213q84 0 135.5 30t51.5 83q0 16 -6 30.5t-22.5 29t-30 23.5t-43 23.5t-46 22.5t-57.5 24.5t-59 24.5q-219 92 -328 195.5t-109 259.5q0 215 157 328.5t398 113.5q266 0 432 -122t166 -361v-29h-364v19q0 199 -234 198q-70 0 -123 -26.5 t-53 -87.5q0 -37 34 -70t73 -52.5t121 -56.5q96 -43 148 -67.5t125 -69.5t108.5 -85t63.5 -100.5t28 -131.5q0 -213 -153.5 -327t-414.5 -114q-119 0 -228.5 25t-204.5 75t-152.5 137t-57.5 200v12zM872 1796l213 131l142 -188l-379 -238l-309 240l159 186z" glyph-name="Scaron" horiz-adv-x="1372" unicode="Š"/><glyph d="M16 289l322 80q8 -68 59.5 -107t126.5 -39q109 0 109 60q0 12 -6 24t-20.5 22.5t-28 18.5t-36 18.5t-36.5 15.5t-42 15.5t-38 14.5q-315 123 -315 333q0 158 121.5 247t322.5 89q209 0 345 -92t136 -266v-12h-331v12q0 47 -36 79t-100 32q-109 0 -108 -64q0 -10 4 -20.5 t15.5 -19.5t21.5 -16t31.5 -17.5t36 -16.5t44 -17.5t48.5 -19.5q156 -63 238.5 -138t82.5 -190q0 -166 -123 -253t-325 -87q-209 0 -358 83.5t-161 230.5zM680 1425l213 131l141 -188l-379 -238l-309 240l160 186z" glyph-name="scaron" horiz-adv-x="1085" unicode="š"/><glyph d="M145 1094l62 340h1227l-60 -340h-430l-192 -1094h-101l-28 -92q139 -47 139 -187q0 -109 -75 -179t-198 -70q-139 0 -264 79l119 183q88 -57 141 -58q27 0 47.5 14.5t20.5 41.5q0 61 -96 61l-37 64l76 143h-111l193 1094h-433z" glyph-name="Tcommaaccent" horiz-adv-x="1320" unicode="Ţ"/><glyph d="M72 752l53 305h174l41 231l381 121l-62 -352h304l-56 -305h-303l-55 -320q-4 -20 -4 -47q0 -88 98 -88q61 0 137 31l72 -287q-152 -66 -293 -66q-31 0 -55 2l-35 -69q139 -47 139 -187q0 -109 -74.5 -179t-197.5 -70q-139 0 -264 79l118 183q88 -57 142 -58q27 0 47 14.5 t20 41.5q0 61 -96 61l-37 64l101 151q-182 76 -183 320q0 80 13 151l47 273h-172z" glyph-name="tcommaaccent" horiz-adv-x="944" unicode="ţ"/><glyph d="M145 1094l62 340h1227l-60 -340h-430l-192 -1094h-367l193 1094h-433zM879 1796l213 131l141 -188l-379 -238l-309 240l160 186z" glyph-name="Tcaron" horiz-adv-x="1320" unicode="Ť"/><glyph d="M70 752l53 305h174l41 231l381 121l-62 -352h304l-56 -305h-303l-55 -320q-4 -20 -4 -47q0 -88 98 -88q61 0 137 31l72 -287q-152 -66 -293 -66q-375 0 -375 353q0 80 13 151l47 273h-172zM885 1137l-88 114q137 100 161 176q-61 -2 -101 40t-40 100q0 66 51.5 112.5 t116.5 46.5q74 0 120 -45t46 -125q0 -111 -71.5 -224t-194.5 -195z" glyph-name="tcaron" horiz-adv-x="942" unicode="ť"/><glyph d="M150 1094l61 340h1227l-60 -340h-430l-47 -269h213l-53 -301h-213l-92 -524h-367l92 524h-202l53 301h203l47 269h-432z" glyph-name="Tbar" horiz-adv-x="1333" unicode="Ŧ"/><glyph d="M76 752l53 305h174l41 231l381 121l-61 -352h303l-56 -305h-303l-18 -101h223l-31 -188h-225l-4 -31q-4 -20 -4 -47q0 -88 98 -88q61 0 137 31l72 -287q-152 -66 -293 -66q-375 0 -375 353q0 82 9 135h-136l33 188h135l19 101h-172z" glyph-name="tbar" horiz-adv-x="950" unicode="ŧ"/><glyph d="M1233 1434h366l-149 -850q-49 -281 -235.5 -445t-452.5 -164q-305 0 -464 162t-159 418q0 76 13 145l129 734h366l-129 -736q-10 -57 -10 -106q0 -133 69.5 -201.5t202.5 -68.5q258 0 316 329zM836 1552h-240q16 168 93 270.5t198 102.5q109 0 176 -96q8 -10 16 -25.5 t13.5 -23.5t12.5 -15.5t13 -7.5q31 0 41 129h242q-16 -168 -93 -270.5t-200 -102.5q-106 0 -174 99q-8 10 -20.5 31.5t-20.5 30.5t-16 9q-25 0 -41 -131z" glyph-name="Utilde" horiz-adv-x="1570" unicode="Ũ"/><glyph d="M553 1057l-104 -592q-4 -23 -5 -53q0 -70 35 -100.5t86 -30.5q74 0 134.5 53t74.5 131l105 592h360l-186 -1057h-361l23 127q-119 -152 -324 -152q-152 0 -234.5 86t-82.5 252q0 63 12 138l107 606h360zM608 1182h-239q16 168 93 270t197 102q109 0 177 -96 q8 -10 16 -25.5t13 -23.5t12.5 -15.5t13.5 -7.5q31 0 41 130h242q-16 -168 -93 -270.5t-200 -102.5q-106 0 -174 98q-8 10 -20.5 31.5t-21 31t-16.5 9.5q-25 0 -41 -131z" glyph-name="utilde" horiz-adv-x="1257" unicode="ũ"/><glyph d="M1233 1434h366l-149 -850q-49 -281 -235.5 -445t-452.5 -164q-305 0 -464 162t-159 418q0 76 13 145l129 734h366l-129 -736q-10 -57 -10 -106q0 -133 69.5 -201.5t202.5 -68.5q258 0 316 329zM1321 1823l-47 -267h-600l47 267h600z" glyph-name="Umacron" horiz-adv-x="1570" unicode="Ū"/><glyph d="M553 1057l-104 -592q-4 -23 -5 -53q0 -70 35 -100.5t86 -30.5q74 0 134.5 53t74.5 131l105 592h360l-186 -1057h-361l23 127q-119 -152 -324 -152q-152 0 -234.5 86t-82.5 252q0 63 12 138l107 606h360zM1094 1452l-47 -266h-601l48 266h600z" glyph-name="umacron" horiz-adv-x="1257" unicode="ū"/><glyph d="M1233 1434h366l-149 -850q-49 -281 -235.5 -445t-452.5 -164q-305 0 -464 162t-159 418q0 76 13 145l129 734h366l-129 -736q-10 -57 -10 -106q0 -133 69.5 -201.5t202.5 -68.5q258 0 316 329zM1133 1884l219 -69q-121 -293 -361 -293q-135 0 -216 84t-95 209l231 69 q14 -119 95 -119q78 0 127 119z" glyph-name="Ubreve" horiz-adv-x="1570" unicode="Ŭ"/><glyph d="M553 1057l-104 -592q-4 -23 -5 -53q0 -70 35 -100.5t86 -30.5q74 0 134.5 53t74.5 131l105 592h360l-186 -1057h-361l23 127q-119 -152 -324 -152q-152 0 -234.5 86t-82.5 252q0 63 12 138l107 606h360zM907 1513l219 -69q-121 -293 -360 -293q-135 0 -216 84t-95 209 l231 69q14 -119 94 -118q78 -1 127 118z" glyph-name="ubreve" horiz-adv-x="1257" unicode="ŭ"/><glyph d="M1233 1434h366l-149 -850q-49 -281 -235.5 -445t-452.5 -164q-305 0 -464 162t-159 418q0 76 13 145l129 734h366l-129 -736q-10 -57 -10 -106q0 -133 69.5 -201.5t202.5 -68.5q258 0 316 329zM741 1739q0 115 85 197.5t202 82.5q106 0 175 -70.5t69 -170.5 q0 -115 -85 -198t-202 -83q-106 0 -175 71t-69 171zM1012 1841q-35 0 -61.5 -27.5t-26.5 -62.5q0 -33 21.5 -54.5t56 -21.5t61.5 28t27 62q0 33 -21.5 54.5t-56.5 21.5z" glyph-name="Uring" horiz-adv-x="1570" unicode="Ů"/><glyph d="M553 1057l-104 -592q-4 -23 -5 -53q0 -70 35 -100.5t86 -30.5q74 0 134.5 53t74.5 131l105 592h360l-186 -1057h-361l23 127q-119 -152 -324 -152q-152 0 -234.5 86t-82.5 252q0 63 12 138l107 606h360zM514 1368q0 115 85 198t202 83q106 0 174.5 -71t68.5 -171 q0 -115 -85 -198t-201 -83q-106 0 -175 71t-69 171zM784.5 1470q-34.5 0 -61.5 -27.5t-27 -62.5q0 -33 21.5 -54t56.5 -21t61.5 27.5t26.5 62.5q0 33 -21.5 54t-56 21z" glyph-name="uring" horiz-adv-x="1257" unicode="ů"/><glyph d="M1233 1434h366l-149 -850q-49 -281 -235.5 -445t-452.5 -164q-305 0 -464 162t-159 418q0 76 13 145l129 734h366l-129 -736q-10 -57 -10 -106q0 -133 69.5 -201.5t202.5 -68.5q258 0 316 329zM803 1501l-215 92l340 400l207 -193zM1255 1501l-213 92l340 400l205 -193z " glyph-name="Uhungarumlaut" horiz-adv-x="1570" unicode="Ű"/><glyph d="M553 1057l-104 -592q-4 -23 -5 -53q0 -70 35 -100.5t86 -30.5q74 0 134.5 53t74.5 131l105 592h360l-186 -1057h-361l23 127q-119 -152 -324 -152q-152 0 -234.5 86t-82.5 252q0 63 12 138l107 606h360zM575 1130l-215 93l340 399l207 -192zM1028 1130l-213 93l340 399 l205 -192z" glyph-name="uhungarumlaut" horiz-adv-x="1257" unicode="ű"/><glyph d="M1233 1434h366l-149 -850q-35 -201 -143.5 -345.5t-270.5 -211.5q-254 -166 -254 -275q0 -51 64 -51q23 0 47 6l6 -231q-57 -10 -86 -11q-121 0 -190.5 56.5t-69.5 148.5q0 166 213 305h-4q-305 0 -464 162t-159 418q0 76 13 145l129 734h366l-129 -736q-10 -57 -10 -106 q0 -133 69.5 -201.5t202.5 -68.5q258 0 316 329z" glyph-name="Uogonek" horiz-adv-x="1570" unicode="Ų"/><glyph d="M553 1057l-104 -592q-4 -23 -5 -53q0 -70 35 -100.5t86 -30.5q74 0 134.5 53t74.5 131l105 592h360l-186 -1057q-150 -111 -191 -176q-23 -39 -22 -72q0 -51 63 -51q23 0 47 6l6 -231q-57 -10 -86 -11q-123 0 -191.5 56.5t-68.5 148.5q0 180 252 330h-170l23 127 q-119 -152 -324 -152q-152 0 -234.5 86t-82.5 252q0 63 12 138l107 606h360z" glyph-name="uogonek" horiz-adv-x="1257" unicode="ų"/><glyph d="M745 0h-413l-129 1434h385l63 -887l410 887h379l80 -873l370 873h410l-635 -1434h-414l-84 911zM1315 1636l-213 -131l-139 187l378 239l308 -241l-160 -185z" glyph-name="Wcircumflex" horiz-adv-x="2181" unicode="Ŵ"/><glyph d="M627 0h-406l-90 1057h375l12 -633l270 633h342l46 -631l231 631h401l-462 -1057h-404l-49 627zM1030 1266l-213 -131l-139 186l379 240l307 -242l-160 -184z" glyph-name="wcircumflex" horiz-adv-x="1755" unicode="ŵ"/><glyph d="M563 1434l207 -566l406 566h471l-729 -932l-91 -502h-366l86 498l-400 936h416zM952 1636l-213 -131l-139 187l379 239l307 -241l-160 -185z" glyph-name="Ycircumflex" horiz-adv-x="1472" unicode="Ŷ"/><glyph d="M20 -451l-94 316q229 59 367 162l-191 1030h369l80 -643l309 643h400l-502 -922q-74 -137 -155 -238.5t-146.5 -157.5t-152.5 -98t-141.5 -58t-142.5 -34zM739 1266l-213 -131l-139 186l379 240l307 -242l-160 -184z" glyph-name="ycircumflex" horiz-adv-x="1175" unicode="ŷ"/><glyph d="M563 1434l207 -566l406 566h471l-729 -932l-91 -502h-366l86 498l-400 936h416zM571 1677q0 74 57.5 126t133.5 52q68 0 114 -45t46 -110q0 -74 -57.5 -127t-133.5 -53q-68 0 -114 44.5t-46 112.5zM977 1677q0 74 57.5 126t132.5 52q68 0 114 -45t46 -110 q0 -74 -57.5 -127t-132.5 -53q-68 0 -114 44.5t-46 112.5z" glyph-name="Ydieresis" horiz-adv-x="1472" unicode="Ÿ"/><glyph d="M205 1094l59 340h1202l-53 -306l-838 -788h699l-60 -340h-1222l55 305l836 789h-678zM938 1501l-217 115l340 377l207 -217z" glyph-name="Zacute" horiz-adv-x="1402" unicode="Ź"/><glyph d="M125 745l55 312h901l-45 -246l-514 -502h428l-55 -309h-901l45 246l512 499h-426zM698 1130l-217 115l340 377l207 -217z" glyph-name="zacute" horiz-adv-x="1075" unicode="ź"/><glyph d="M205 1094l59 340h1202l-53 -306l-838 -788h699l-60 -340h-1222l55 305l836 789h-678zM743 1677q0 74 57.5 126t133.5 52q68 0 114 -45t46 -110q0 -74 -56.5 -127t-132.5 -53q-70 0 -116 44.5t-46 112.5z" glyph-name="Zdotaccent" horiz-adv-x="1402" unicode="Ż"/><glyph d="M125 745l55 312h901l-45 -246l-514 -502h428l-55 -309h-901l45 246l512 499h-426zM504 1307q0 74 57 126t133 52q68 0 114 -45t46 -111q0 -74 -56.5 -127t-131.5 -53q-70 0 -116 45t-46 113z" glyph-name="zdotaccent" horiz-adv-x="1075" unicode="ż"/><glyph d="M205 1094l59 340h1202l-53 -306l-838 -788h699l-60 -340h-1222l55 305l836 789h-678zM909 1796l213 131l142 -188l-379 -238l-310 240l160 186z" glyph-name="Zcaron" horiz-adv-x="1402" unicode="Ž"/><glyph d="M125 745l55 312h901l-45 -246l-514 -502h428l-55 -309h-901l45 246l512 499h-426zM672 1425l213 131l141 -188l-379 -238l-309 240l160 186z" glyph-name="zcaron" horiz-adv-x="1075" unicode="ž"/><glyph d="M104 598l80 305h176l39 150q55 215 175 310t276 95t307 -76l-135 -284q-80 35 -148 35q-98 0 -129 -121l-28 -109h274l-80 -305h-274l-160 -616q-55 -213 -174 -309.5t-274 -96.5q-143 0 -283 66l131 282q59 -27 127 -26q96 0 127 120l150 580h-177z" glyph-name="florin" horiz-adv-x="1038" unicode="ƒ"/><glyph d="M1634 1501l-217 115l340 377l207 -217zM979 1434h1143l-58 -328h-665l-43 -236h518l-53 -303h-518l-41 -239h665l-57 -328h-1020l39 225h-393l-160 -225h-453zM711 530h231l78 437z" glyph-name="AEacute" horiz-adv-x="2058" unicode="Ǽ"/><glyph d="M1878 340l129 -227q-178 -137 -426 -138q-184 0 -305 75t-174 202l-43 -252h-295l20 127q-135 -152 -321 -152q-184 0 -290.5 131.5t-106.5 333.5q0 111 32.5 221.5t94 206t162 154.5t220.5 59q244 0 347 -180l26 156h295l-31 -176q168 201 447 200q211 0 330.5 -95 t119.5 -243q0 -160 -146 -262t-431 -102h-129q45 -125 219 -125q131 0 256 86zM604 293q102 0 168 81t66 195q0 86 -46.5 140.5t-134.5 54.5q-102 0 -167.5 -82t-65.5 -195q0 -86 46 -140t134 -54zM1649 809q-86 0 -151.5 -53.5t-92.5 -151.5h61q293 0 293 123 q0 39 -30.5 60.5t-79.5 21.5zM1239 1130l-217 115l340 377l207 -217z" glyph-name="aeacute" horiz-adv-x="2150" unicode="ǽ"/><glyph d="M1057 1501l-217 115l340 377l206 -217zM111 641q0 336 230 576.5t570 240.5q231 0 402 -110l82 86h284l-215 -228q133 -178 133 -415q0 -156 -58 -303.5t-161.5 -261t-255 -182.5t-323.5 -69q-233 0 -400 109l-77 -84h-287l211 223q-135 176 -135 418zM889 1108 q-166 0 -277.5 -133t-111.5 -311q0 -80 26 -146l523 551q-72 39 -160 39zM819 326q164 0 277.5 131t113.5 307q0 80 -24 147l-522 -551q65 -34 155 -34z" glyph-name="Oslashacute" horiz-adv-x="1642" unicode="Ǿ"/><glyph d="M68 471q0 246 167.5 428t421.5 182q178 0 306 -82l55 58h223l-160 -168q98 -129 99 -305q0 -246 -169 -427.5t-419 -181.5q-178 0 -303 80l-53 -55h-222l156 164q-102 131 -102 307zM649 784q-111 0 -181.5 -89t-70.5 -210q0 -41 9 -73l335 354q-47 18 -92 18zM598 270 q115 0 183.5 91.5t68.5 209.5q0 39 -8 66l-334 -350q43 -17 90 -17zM788 1130l-217 115l340 377l207 -217z" glyph-name="oslashacute" horiz-adv-x="1249" unicode="ǿ"/><glyph d="M57 424l367 74v-15q0 -213 278 -213q84 0 135.5 30t51.5 83q0 16 -6 30.5t-22.5 29t-30 23.5t-43 23.5t-46 22.5t-57.5 24.5t-59 24.5q-219 92 -328 195.5t-109 259.5q0 215 157 328.5t398 113.5q266 0 432 -122t166 -361v-29h-364v19q0 199 -234 198q-70 0 -123 -26.5 t-53 -87.5q0 -37 34 -70t73 -52.5t121 -56.5q96 -43 148 -67.5t125 -69.5t108.5 -85t63.5 -100.5t28 -131.5q0 -213 -153.5 -327t-414.5 -114q-119 0 -228.5 25t-204.5 75t-152.5 137t-57.5 200v12zM481 -686l-88 115q137 100 162 176q-61 -2 -101 40t-40 99q0 66 51 113 t117 47q74 0 120 -45t46 -125q0 -111 -72 -224.5t-195 -195.5z" glyph-name="Scommaaccent" horiz-adv-x="1372" unicode="Ș"/><glyph d="M16 289l322 80q8 -68 59.5 -107t126.5 -39q109 0 109 60q0 12 -6 24t-20.5 22.5t-28 18.5t-36 18.5t-36.5 15.5t-42 15.5t-38 14.5q-315 123 -315 333q0 158 121.5 247t322.5 89q209 0 345 -92t136 -266v-12h-331v12q0 47 -36 79t-100 32q-109 0 -108 -64q0 -10 4 -20.5 t15.5 -19.5t21.5 -16t31.5 -17.5t36 -16.5t44 -17.5t48.5 -19.5q156 -63 238.5 -138t82.5 -190q0 -166 -123 -253t-325 -87q-209 0 -358 83.5t-161 230.5zM332 -686l-88 115q137 100 162 176q-61 -2 -101.5 40t-40.5 99q0 66 51.5 113t116.5 47q74 0 120 -45t46 -125 q0 -111 -71.5 -224.5t-194.5 -195.5z" glyph-name="scommaaccent" horiz-adv-x="1085" unicode="ș"/><glyph d="M145 1094l62 340h1227l-60 -340h-430l-192 -1094h-367l193 1094h-433zM432 -686l-88 115q137 100 162 176q-61 -2 -101 40t-40 99q0 66 51 113t116 47q74 0 120 -45t46 -125q0 -111 -71.5 -224.5t-194.5 -195.5z" glyph-name="uni021A" horiz-adv-x="1320" unicode="Ț"/><glyph d="M70 752l53 305h174l41 231l381 121l-62 -352h304l-56 -305h-303l-55 -320q-4 -20 -4 -47q0 -88 98 -88q61 0 137 31l72 -287q-152 -66 -293 -66q-375 0 -375 353q0 80 13 151l47 273h-172zM338 -686l-88 115q137 100 162 176q-61 -2 -101.5 40t-40.5 99q0 66 51.5 113 t116.5 47q74 0 120 -45t46 -125q0 -111 -71.5 -224.5t-194.5 -195.5z" glyph-name="uni021B" horiz-adv-x="942" unicode="ț"/><glyph d="M698 1636l-213 -131l-139 187l379 239l307 -241l-160 -185z" glyph-name="circumflex" horiz-adv-x="790" unicode="ˆ"/><glyph d="M682 1796l213 131l141 -188l-379 -238l-309 240l160 186z" glyph-name="caron" horiz-adv-x="790" unicode="ˇ"/><glyph d="M815 1884l219 -69q-121 -293 -360 -293q-135 0 -216 84t-96 209l232 69q14 -119 94 -119q78 0 127 119z" glyph-name="breve" horiz-adv-x="794" unicode="˘"/><glyph d="M293 1677q0 74 57.5 126t132.5 52q68 0 114 -45t46 -110q0 -74 -56.5 -127t-131.5 -53q-70 0 -116 44.5t-46 112.5z" glyph-name="dotaccent" horiz-adv-x="360" unicode="˙"/><glyph d="M297 1739q0 115 85 197.5t202 82.5q106 0 174.5 -70.5t68.5 -170.5q0 -115 -85 -198t-201 -83q-106 0 -175 71t-69 171zM567 1841q-35 0 -61.5 -27.5t-26.5 -62.5q0 -33 21.5 -54.5t56.5 -21.5t61.5 28t26.5 62q0 33 -21.5 54.5t-56.5 21.5z" glyph-name="ring" horiz-adv-x="464" unicode="˚"/><glyph d="M268 43l113 -43q-150 -111 -191 -176q-23 -39 -22 -72q0 -51 63 -51q23 0 48 6l6 -231q-57 -10 -86 -11q-123 0 -191.5 56.5t-68.5 148.5q-1 201 329 373z" glyph-name="ogonek" horiz-adv-x="428" unicode="˛"/><glyph d="M520 1552h-239q16 168 93 270.5t197 102.5q109 0 177 -96q8 -10 16 -25.5t13 -23.5t12.5 -15.5t13.5 -7.5q31 0 41 129h241q-16 -168 -93 -270.5t-199 -102.5q-106 0 -175 99q-8 10 -20 31.5t-20.5 30.5t-16.5 9q-25 0 -41 -131z" glyph-name="tilde" horiz-adv-x="778" unicode="˜"/><glyph d="M438 1501l-215 92l340 400l207 -193zM891 1501l-213 92l340 400l205 -193z" glyph-name="hungarumlaut" horiz-adv-x="888" unicode="˝"/><glyph d="M1462 326l-57 -326h-578l58 326q139 37 227 163.5t88 278.5q0 145 -84 241.5t-227 96.5q-164 0 -274.5 -136t-110.5 -313q0 -111 48 -198.5t132 -132.5l-57 -326h-580l57 326h162q-135 174 -135 395q0 303 221 520t547 217q315 0 504.5 -178t189.5 -444q0 -293 -213 -510 h82z" glyph-name="Omega" horiz-adv-x="1642" unicode="Ω"/><glyph d="M1409 1057l-57 -322h-158l-129 -735h-348l129 735h-238l-129 -735h-346l129 735h-160l58 322h1249z" glyph-name="pi" horiz-adv-x="1382" unicode="π"/><glyph d="M745 0h-413l-129 1434h385l63 -887l410 887h379l80 -873l370 873h410l-635 -1434h-414l-84 911zM1479 1575l-246 -74l-223 318l268 174z" glyph-name="Wgrave" horiz-adv-x="2181" unicode="Ẁ"/><glyph d="M627 0h-406l-90 1057h375l12 -633l270 633h342l46 -631l231 631h401l-462 -1057h-404l-49 627zM1196 1204l-246 -74l-223 318l268 174z" glyph-name="wgrave" horiz-adv-x="1755" unicode="ẁ"/><glyph d="M745 0h-413l-129 1434h385l63 -887l410 887h379l80 -873l370 873h410l-635 -1434h-414l-84 911zM1333 1501l-217 115l340 377l207 -217z" glyph-name="Wacute" horiz-adv-x="2181" unicode="Ẃ"/><glyph d="M627 0h-406l-90 1057h375l12 -633l270 633h342l46 -631l231 631h401l-462 -1057h-404l-49 627zM1049 1130l-218 115l340 377l207 -217z" glyph-name="wacute" horiz-adv-x="1755" unicode="ẃ"/><glyph d="M745 0h-413l-129 1434h385l63 -887l410 887h379l80 -873l370 873h410l-635 -1434h-414l-84 911zM934 1677q0 74 57.5 126t132.5 52q68 0 114 -45t46 -110q0 -74 -57.5 -127t-132.5 -53q-70 0 -115 44.5t-45 112.5zM1339 1677q0 74 57.5 126t133.5 52q68 0 114 -45 t46 -110q0 -74 -57.5 -127t-133.5 -53q-70 0 -115 44.5t-45 112.5z" glyph-name="Wdieresis" horiz-adv-x="2181" unicode="Ẅ"/><glyph d="M627 0h-406l-90 1057h375l12 -633l270 633h342l46 -631l231 631h401l-462 -1057h-404l-49 627zM647 1307q0 74 57.5 126t133.5 52q68 0 113.5 -45t45.5 -111q0 -74 -57 -127t-133 -53q-70 0 -115 46t-45 112zM1053 1307q0 74 57 126t133 52q68 0 114 -45t46 -111 q0 -74 -57.5 -127t-133.5 -53q-70 0 -114.5 46t-44.5 112z" glyph-name="wdieresis" horiz-adv-x="1755" unicode="ẅ"/><glyph d="M522 184l217 252q125 -135 283 -135q84 0 135 46t51 122q0 68 -55 108.5t-156 40.5q-45 0 -133 -18l-84 207l414 276q-184 66 -317.5 66t-212 -65.5t-103.5 -209.5l-153 -874h-369l170 961q41 227 209 369.5t440 142.5q334 0 739 -195l-49 -277l-248 -172 q100 -33 175 -122t75 -224q0 -209 -138 -358.5t-384 -149.5q-297 0 -506 209z" glyph-name="uni1E9E" horiz-adv-x="1638" unicode="ẞ"/><glyph d="M563 1434l207 -566l406 566h471l-729 -932l-91 -502h-366l86 498l-400 936h416zM1118 1575l-246 -74l-223 318l269 174z" glyph-name="Ygrave" horiz-adv-x="1472" unicode="Ỳ"/><glyph d="M20 -451l-94 316q229 59 367 162l-191 1030h369l80 -643l309 643h400l-502 -922q-74 -137 -155 -238.5t-146.5 -157.5t-152.5 -98t-141.5 -58t-142.5 -34zM903 1204l-246 -74l-223 318l268 174z" glyph-name="ygrave" horiz-adv-x="1175" unicode="ỳ"/><glyph d="M1069 756l-55 -312h-916l56 312h915z" glyph-name="endash" horiz-adv-x="1144" unicode="–"/><glyph d="M1341 756l-53 -312h-1190l56 312h1187z" glyph-name="emdash" horiz-adv-x="1417" unicode="—"/><glyph d="M508 1513l115 -145q-190 -127 -224 -240q86 2 139.5 -52t53.5 -128q0 -86 -67.5 -147.5t-159.5 -61.5q-94 0 -156 62.5t-62 167.5q0 137 97.5 287.5t263.5 256.5z" glyph-name="quoteleft" horiz-adv-x="587" unicode="‘"/><glyph d="M276 702l-114 146q190 127 223 239q-86 -2 -139 52.5t-53 128.5q0 86 67.5 147.5t159.5 61.5q94 0 155.5 -62.5t61.5 -167.5q0 -137 -97.5 -288t-263.5 -257z" glyph-name="quoteright" horiz-adv-x="579" unicode="’"/><glyph d="M96 -408l-114 146q190 127 223 239q-86 -2 -139.5 52.5t-53.5 128.5q0 86 67.5 147.5t160.5 61.5q94 0 155.5 -62.5t61.5 -167.5q0 -137 -97.5 -288t-263.5 -257z" glyph-name="quotesinglbase" horiz-adv-x="593" unicode="‚"/><glyph d="M508 1513l115 -145q-190 -127 -224 -240q86 2 139.5 -52t53.5 -128q0 -86 -67.5 -147.5t-159.5 -61.5q-94 0 -156 62.5t-62 167.5q0 137 97.5 287.5t263.5 256.5zM1047 1513l114 -145q-190 -127 -223 -240q86 2 139 -52t53 -128q0 -86 -67.5 -147.5t-159.5 -61.5 q-94 0 -155.5 62.5t-61.5 167.5q0 137 97.5 287.5t263.5 256.5z" glyph-name="quotedblleft" horiz-adv-x="1124" unicode="“"/><glyph d="M276 702l-114 146q190 127 223 239q-86 -2 -139 52.5t-53 128.5q0 86 67.5 147.5t159.5 61.5q94 0 155.5 -62.5t61.5 -167.5q0 -137 -97.5 -288t-263.5 -257zM813 702l-115 146q190 127 224 239q-86 -2 -139.5 52.5t-53.5 128.5q0 86 67.5 147.5t159.5 61.5 q94 0 156 -62.5t62 -167.5q0 -137 -97.5 -288t-263.5 -257z" glyph-name="quotedblright" horiz-adv-x="1116" unicode="”"/><glyph d="M96 -408l-114 146q190 127 223 239q-86 -2 -139.5 52.5t-53.5 128.5q0 86 67.5 147.5t160.5 61.5q94 0 155.5 -62.5t61.5 -167.5q0 -137 -97.5 -288t-263.5 -257zM633 -408l-115 146q190 127 223 239q-86 -2 -139 52.5t-53 128.5q0 86 67.5 147.5t159.5 61.5 q94 0 155.5 -62.5t61.5 -167.5q0 -137 -97 -288t-263 -257z" glyph-name="quotedblbase" horiz-adv-x="1130" unicode="„"/><glyph d="M1038 1112l-47 -270h-262l-149 -842h-316l148 842h-262l47 270h264l55 322h315l-55 -322h262z" glyph-name="dagger" horiz-adv-x="1030" unicode="†"/><glyph d="M1038 1112l-49 -270h-262l-43 -252h262l-47 -268h-262l-59 -322h-314l58 322h-263l47 268h263l43 252h-262l47 270h264l57 322h313l-57 -322h264z" glyph-name="daggerdbl" horiz-adv-x="1030" unicode="‡"/><glyph d="M129 575q0 109 85 192t198 83q104 0 171.5 -69.5t67.5 -166.5q0 -109 -85 -191.5t-197 -82.5q-104 0 -172 69.5t-68 165.5z" glyph-name="bullet" horiz-adv-x="761" unicode="•"/><glyph d="M14 158q0 86 66.5 148.5t157.5 62.5q80 0 132 -53.5t52 -131.5q0 -86 -65.5 -147.5t-155.5 -61.5q-80 0 -133.5 53.5t-53.5 129.5zM510 158q0 86 66.5 148.5t156.5 62.5q80 0 133.5 -53.5t53.5 -131.5q0 -86 -67 -147.5t-157 -61.5q-80 0 -133 53.5t-53 129.5zM1006 158 q0 86 66.5 148.5t156.5 62.5q80 0 133 -53.5t53 -131.5q0 -86 -66.5 -147.5t-156.5 -61.5q-80 0 -133 53.5t-53 129.5z" glyph-name="ellipsis" horiz-adv-x="1546" unicode="…"/><glyph d="M416 0h-297l1288 1434h297zM156 1063q0 158 117.5 276.5t281.5 118.5q154 0 249 -99t95 -239q0 -158 -117.5 -276.5t-281.5 -118.5q-154 0 -249 99.5t-95 238.5zM539 1223q-57 0 -97.5 -41t-40.5 -105q0 -51 31 -83.5t84 -32.5q57 0 97 40.5t40 104.5q0 51 -30.5 84 t-83.5 33zM926 311q0 158 117.5 277t281.5 119q154 0 249 -99.5t95 -238.5q0 -158 -117.5 -277t-281.5 -119q-154 0 -249 99.5t-95 238.5zM1309 471q-57 0 -97.5 -41t-40.5 -104q0 -51 31 -84t84 -33q57 0 97 41t40 104q0 51 -30.5 84t-83.5 33zM1714 311q0 158 118 277 t282 119q154 0 249 -99.5t95 -238.5q0 -158 -118 -277t-282 -119q-154 0 -249 99.5t-95 238.5zM2097 471q-57 0 -97 -41t-40 -104q0 -51 30.5 -84t84.5 -33q57 0 97 41t40 104q0 51 -31 84t-84 33z" glyph-name="perthousand" horiz-adv-x="2541" unicode="‰"/><glyph d="M410 510l131 -287l-242 -141l-242 459l402 460l207 -176z" glyph-name="guilsinglleft" horiz-adv-x="684" unicode="‹"/><glyph d="M279 578l-132 286l242 142l242 -459l-402 -461l-206 176z" glyph-name="guilsinglright" horiz-adv-x="681" unicode="›"/><glyph d="M-262 0h-244l1157 1434h242z" glyph-name="fraction" horiz-adv-x="325" unicode="⁄"/><glyph d="M135 911q0 78 21.5 163t65.5 172t128 143.5t195 56.5q170 0 253 -98.5t83 -253.5q0 -78 -21.5 -163t-65.5 -172t-128 -143.5t-195 -56.5q-170 0 -253 98t-83 254zM539 1219q-68 0 -109 -99.5t-41 -199.5q0 -133 88 -134q68 0 109 99.5t41 199.5q0 134 -88 134z" glyph-name="uni2070" horiz-adv-x="847" unicode="⁰"/><glyph d="M666 573h-234l25 148h-379l33 182l280 531h275l-277 -494h107l30 180l248 70l-45 -250h96l-39 -219h-96z" glyph-name="uni2074" horiz-adv-x="794" unicode="⁴"/><glyph d="M268 1434h523l-39 -222h-291l-17 -94q150 -12 223.5 -84.5t73.5 -179.5q0 -135 -88 -215t-241 -80q-188 0 -349 113l144 174q117 -78 201 -78q88 0 88 76q0 84 -172 84h-146z" glyph-name="uni2075" horiz-adv-x="741" unicode="⁵"/><glyph d="M803 1434l-258 -281q104 -6 168.5 -74.5t64.5 -171.5q0 -139 -101.5 -243.5t-248.5 -104.5q-145 0 -230 88t-85 211q0 145 178 332l235 244h277zM455 987q-47 0 -77 -34.5t-30 -86.5q0 -39 23.5 -64.5t64.5 -25.5t74 36t33 85q0 39 -23.5 64.5t-64.5 25.5z" glyph-name="uni2076" horiz-adv-x="755" unicode="⁶"/><glyph d="M166 1202l41 232h577l-34 -195l-381 -666h-287l379 629h-295z" glyph-name="uni2077" horiz-adv-x="667" unicode="⁷"/><glyph d="M799 821q0 -125 -97.5 -193.5t-238.5 -68.5q-158 0 -257.5 68.5t-99.5 179.5q0 76 47.5 141.5t135.5 95.5q-82 53 -82 148q0 104 88 179t223 75q139 0 228.5 -66.5t89.5 -171.5q0 -150 -144 -204q107 -70 107 -183zM455 752q49 0 75.5 29.5t26.5 68.5q0 37 -24.5 60.5 t-67.5 23.5q-47 0 -77 -28.5t-30 -74.5q0 -37 26 -58t71 -21zM514 1108q37 0 62.5 23.5t25.5 60.5q0 29 -20.5 48.5t-59.5 19.5q-37 0 -61.5 -26t-24.5 -58q0 -29 21.5 -48.5t56.5 -19.5z" glyph-name="uni2078" horiz-adv-x="804" unicode="⁸"/><glyph d="M123 573l258 279q-104 6 -169 74.5t-65 171.5q0 139 101.5 243.5t249.5 104.5q145 0 230 -88t85 -211q0 -145 -178 -332l-236 -242h-276zM471 1018q47 0 77 34.5t30 86.5q0 39 -24 64.5t-64.5 25.5t-73.5 -36t-33 -85q0 -39 23.5 -64.5t64.5 -25.5z" glyph-name="uni2079" horiz-adv-x="755" unicode="⁹"/><glyph d="M-35 -53q0 78 21.5 163t65.5 172t128 143t195 56q170 0 253 -98t83 -254q0 -78 -21.5 -163t-65.5 -172t-128 -143.5t-195 -56.5q-170 0 -253 98.5t-83 254.5zM369 254q-68 0 -109 -99.5t-41 -199.5q0 -133 88 -133q68 0 109 99t41 200q0 133 -88 133z" glyph-name="uni2080" horiz-adv-x="847" unicode="₀"/><glyph d="M37 -391l96 543l-164 -80l49 282l234 115h203l-154 -860h-264z" glyph-name="uni2081" horiz-adv-x="557" unicode="₁"/><glyph d="M567 -168l-39 -223h-620l35 186q252 168 360 281q74 78 74 133q0 53 -53 53q-72 0 -88 -125h-240q10 102 50 176t94.5 108t102.5 47t95 13q131 0 212 -69.5t81 -178.5q0 -158 -164 -311q-39 -37 -111 -90h211z" glyph-name="uni2082" horiz-adv-x="757" unicode="₂"/><glyph d="M-100 -293l151 182q113 -76 191 -75q80 0 80 55q0 78 -172 78l30 174q193 -2 193 104q0 23 -16.5 39.5t-41.5 16.5q-68 0 -75 -82h-232q4 68 28.5 121t58.5 82.5t79 48t81 24.5t73 6q119 0 202.5 -65.5t83.5 -167.5q0 -160 -143 -223q98 -59 98 -164q0 -115 -87 -191 t-238 -76q-186 0 -344 113z" glyph-name="uni2083" horiz-adv-x="749" unicode="₃"/><glyph d="M496 -391h-234l25 147h-379l33 183l280 530h275l-277 -494h107l30 181l248 69l-45 -250h96l-39 -219h-96z" glyph-name="uni2084" horiz-adv-x="794" unicode="₄"/><glyph d="M98 469h523l-39 -221h-291l-17 -94q150 -12 223.5 -85t73.5 -180q0 -135 -88 -215t-241 -80q-188 0 -348 113l143 174q117 -78 201 -78q88 0 88 76q0 84 -172 84h-146z" glyph-name="uni2085" horiz-adv-x="741" unicode="₅"/><glyph d="M633 469l-258 -281q104 -6 168.5 -74.5t64.5 -170.5q0 -139 -101 -244t-249 -105q-145 0 -230 88.5t-85 211.5q0 145 178 331l235 244h277zM285 23q-47 0 -77 -35t-30 -86q0 -39 23.5 -64.5t64.5 -25.5t74 35.5t33 84.5q0 39 -23.5 65t-64.5 26z" glyph-name="uni2086" horiz-adv-x="755" unicode="₆"/><glyph d="M-4 238l41 231h577l-34 -195l-381 -665h-287l379 629h-295z" glyph-name="uni2087" horiz-adv-x="667" unicode="₇"/><glyph d="M629 -143q0 -125 -97.5 -194t-238.5 -69q-158 0 -257 69t-99 179q0 76 47 141.5t135 96.5q-82 53 -82 147q0 104 88 179t223 75q139 0 228.5 -66.5t89.5 -170.5q0 -150 -144 -205q107 -69 107 -182zM285 -213q49 0 75.5 29.5t26.5 68.5q0 37 -24.5 60.5t-67.5 23.5 q-47 0 -77 -28.5t-30 -73.5q0 -37 26 -58.5t71 -21.5zM344 143q37 0 62.5 23.5t25.5 60.5q0 29 -20.5 48.5t-59.5 19.5q-37 0 -61.5 -25.5t-24.5 -58.5q0 -29 21.5 -48.5t56.5 -19.5z" glyph-name="uni2088" horiz-adv-x="804" unicode="₈"/><glyph d="M-47 -391l258 278q-104 6 -169 75t-65 171q0 139 101.5 243.5t249.5 104.5q145 0 230 -88t85 -211q0 -145 -178 -332l-236 -241h-276zM301 53q47 0 77 35t30 86q0 39 -24 64.5t-64.5 25.5t-73.5 -35.5t-33 -85.5q0 -39 23.5 -64.5t64.5 -25.5z" glyph-name="uni2089" horiz-adv-x="755" unicode="₉"/><glyph d="M135 737l43 238l174 51l72 408h367l-52 -295l432 129l-41 -236l-434 -129l-14 -80l434 129l-41 -237l-434 -129l-47 -269h80q104 0 154.5 62.5t89.5 195.5l354 -63q-88 -291 -223.5 -401.5t-403.5 -110.5h-473l82 471l-174 -51l41 237l176 52l14 79z" glyph-name="lira" horiz-adv-x="1335" unicode="₤"/><glyph d="M717 0h-383v401h-264l45 261h219v92h-203l47 260h156l2 420h352l-35 -889l289 889h326l-31 -863l268 863h369l-148 -420h160l-47 -260h-203l-32 -92h219l-45 -261h-265l-139 -401h-385l19 862z" glyph-name="uni20A9" horiz-adv-x="1892" unicode="₩"/><glyph d="M1133 373l170 -250q-203 -147 -429 -148q-246 0 -412.5 135.5t-217.5 352.5h-183l35 196h127q0 33 8 103h-116l32 196h140q96 233 293.5 366.5t414.5 133.5q170 0 298 -63.5t204 -161.5l-248 -213q-96 117 -266 117q-190 0 -309 -179h555l-90 -196h-545q-8 -39 -12 -103 h514l-90 -196h-383q80 -168 274 -168q132 0 236 78z" glyph-name="Euro" horiz-adv-x="1437" unicode="€"/><glyph d="M195 860l32 195h346q-31 127 -188 127h-133l43 252h930l-88 -195h-275q57 -80 74 -184h221l-88 -195h-137q-31 -158 -121 -268.5t-227 -157.5l278 -434h-420l-313 494l39 221h158q168 0 227 145h-358z" glyph-name="uni20B9" horiz-adv-x="1128" unicode="₹"/><glyph d="M45 193l43 237h107l12 72h-107l52 295h106l113 637h463q242 0 361.5 -115t119.5 -291q0 -231 -144.5 -378.5t-379.5 -147.5h-236l-12 -72h311l-43 -237h-311l-33 -193h-348l33 193h-107zM606 797h150q96 0 149 57t53 145q-2 63 -41.5 101.5t-117.5 38.5h-133z" glyph-name="uni20BD" unicode="₽"/><glyph d="M137 309l-92 221q180 90 199 101l90 502q39 219 157.5 324.5t280.5 105.5q150 0 245 -85t95 -235q0 -143 -81 -279.5t-188.5 -228.5t-258.5 -188l-25 -144q-4 -29 -4 -38q0 -84 68 -84q63 0 159 120l195 -188q-184 -238 -412 -238q-174 0 -264 104.5t-94 264.5zM694 1176 l-51 -293q223 184 223 340q0 82 -75 82q-74 0 -97 -129z" glyph-name="afii61289" horiz-adv-x="1054" unicode="ℓ"/><glyph d="M1628 350l41 232h674l-41 -232h-674zM420 0h-367l252 1434h373l444 -883l156 883h367l-252 -1434h-373l-445 883zM1694 1010q0 172 121.5 298t298.5 126q170 0 268 -101.5t98 -249.5q0 -172 -122 -298t-298 -126q-170 0 -268 102t-98 249zM2101 1202q-66 0 -107.5 -56 t-41.5 -126q0 -55 31.5 -92t89.5 -37q66 0 107.5 56.5t41.5 125.5q0 55 -32 92t-89 37z" glyph-name="afii61352" horiz-adv-x="2453" unicode="№"/><glyph d="M1423 862h-192l49 283l-152 -219h-88l-71 239l-54 -303h-190l100 572h205l86 -285l199 285h209zM188 1247l33 187h541l-33 -187h-174l-68 -385h-190l68 385h-177z" glyph-name="trademark" horiz-adv-x="1492" unicode="™"/><glyph d="M1501 694h-1116l-74 -426q164 -219 445 -219q358 0 600 350l59 -43q-135 -197 -309 -289t-350 -92q-283 0 -462 199t-179 473q0 326 233.5 568.5t532.5 242.5q281 0 453.5 -195.5t172.5 -467.5q0 -52 -6 -101zM881 1384q-209 0 -400 -145l-82 -471h842l72 406 q-160 210 -432 210z" glyph-name="estimated" horiz-adv-x="1533" unicode="℮"/><glyph d="M381 0h-244l1157 1434h242zM225 573l97 543l-164 -80l49 283l233 115h203l-154 -861h-264zM1669 252q0 -125 -97 -193.5t-239 -68.5q-158 0 -257 68.5t-99 179.5q0 76 47 141t135 96q-82 53 -82 148q0 104 88 179t224 75q139 0 228 -67t89 -171q0 -150 -143 -205 q106 -69 106 -182zM1325 182q49 0 75.5 30t26.5 69q0 37 -24.5 60.5t-67.5 23.5q-47 0 -76.5 -29t-29.5 -74q0 -37 25.5 -58.5t70.5 -21.5zM1384 539q37 0 63 23.5t26 60.5q0 29 -20.5 48t-59.5 19q-37 0 -61.5 -25.5t-24.5 -58.5q0 -29 21 -48t56 -19z" glyph-name="oneeighth" horiz-adv-x="1779" unicode="⅛"/><glyph d="M553 0h-244l1157 1434h242zM1841 252q0 -125 -97 -193.5t-239 -68.5q-158 0 -257 68.5t-99 179.5q0 76 47 141t135 96q-82 53 -82 148q0 104 88 179t224 75q139 0 228 -67t89 -171q0 -150 -143 -205q106 -69 106 -182zM1497 182q49 0 75.5 30t26.5 69q0 37 -24.5 60.5 t-67.5 23.5q-47 0 -76.5 -29t-29.5 -74q0 -37 25.5 -58.5t70.5 -21.5zM1556 539q37 0 63 23.5t26 60.5q0 29 -20.5 48t-59.5 19q-37 0 -61.5 -25.5t-24.5 -58.5q0 -29 21 -48t56 -19zM86 672l152 182q115 -76 190 -76q80 0 80 56q0 78 -172 77l31 174q193 -2 192 105 q0 23 -16.5 39t-40.5 16q-68 0 -76 -82h-231q4 68 28.5 121t58 83t79 48.5t81 24.5t72.5 6q119 0 203 -65.5t84 -168.5q0 -160 -144 -223q98 -59 99 -164q0 -115 -87 -190.5t-239 -75.5q-186 0 -344 113z" glyph-name="threeeighths" horiz-adv-x="1951" unicode="⅜"/><glyph d="M530 0h-243l1157 1434h242zM287 1434h522l-39 -222h-291l-16 -94q150 -12 223.5 -84.5t73.5 -179.5q0 -135 -88 -215t-242 -80q-188 0 -348 113l143 174q117 -78 201 -78q88 0 88 76q0 84 -172 84h-145zM1819 252q0 -125 -97.5 -193.5t-238.5 -68.5q-158 0 -257.5 68.5 t-99.5 179.5q0 76 47.5 141t135.5 96q-82 53 -82 148q0 104 88 179t223 75q139 0 228 -67t89 -171q0 -150 -143 -205q107 -69 107 -182zM1475 182q49 0 75.5 30t26.5 69q0 37 -24.5 60.5t-67.5 23.5q-47 0 -77 -29t-30 -74q0 -37 26 -58.5t71 -21.5zM1534 539 q37 0 62.5 23.5t25.5 60.5q0 29 -20.5 48t-59.5 19q-37 0 -61.5 -25.5t-24.5 -58.5q0 -29 21.5 -48t56.5 -19z" glyph-name="fiveeighths" horiz-adv-x="1933" unicode="⅝"/><glyph d="M350 0h-244l1158 1434h241zM1642 252q0 -125 -97 -193.5t-238 -68.5q-158 0 -257.5 68.5t-99.5 179.5q0 76 47 141t136 96q-82 53 -82 148q0 104 88 179t223 75q139 0 228 -67t89 -171q0 -150 -143 -205q106 -69 106 -182zM1298 182q49 0 76 30t27 69q0 37 -24.5 60.5 t-67.5 23.5q-47 0 -77 -29t-30 -74q0 -37 25.5 -58.5t70.5 -21.5zM1358 539q37 0 62.5 23.5t25.5 60.5q0 29 -20.5 48t-59.5 19q-37 0 -61.5 -25.5t-24.5 -58.5q0 -29 21.5 -48t56.5 -19zM193 1202l40 232h578l-35 -195l-381 -666h-286l378 629h-294z" glyph-name="seveneighths" horiz-adv-x="1755" unicode="⅞"/><glyph d="M815 125l-219 -182l-528 655l759 653l185 -217l-334 -286h672l-54 -302h-743z" glyph-name="arrowleft" horiz-adv-x="1384" unicode="←"/><glyph d="M240 399l-181 226l758 655l531 -655l-220 -189l-254 314l-131 -750h-301l119 678z" glyph-name="arrowup" horiz-adv-x="1372" unicode="↑"/><glyph d="M594 1069l219 182l528 -655l-759 -653l-185 217l328 284h-666l54 304h741z" glyph-name="arrowright" horiz-adv-x="1382" unicode="→"/><glyph d="M1165 854l181 -225l-758 -654l-531 654l219 188l252 -315l134 751h301l-121 -680z" glyph-name="arrowdown" horiz-adv-x="1370" unicode="↓"/><glyph d="M330 78h-291l172 979h954l-49 -291h-483l465 -580l-232 -188l-450 563z" glyph-name="uni2196" horiz-adv-x="1236" unicode="↖"/><glyph d="M203 766l51 291h956l-172 -979h-288l79 450l-610 -530l-194 225l622 543h-444z" glyph-name="uni2197" horiz-adv-x="1236" unicode="↗"/><glyph d="M907 979h291l-172 -979h-954l51 291h479l-463 579l232 189l450 -563z" glyph-name="uni2198" horiz-adv-x="1236" unicode="↘"/><glyph d="M1016 1059l194 -225l-624 -543h446l-51 -291h-956l172 979h288l-79 -453z" glyph-name="uni2199" horiz-adv-x="1234" unicode="↙"/><glyph d="M461 1311l278 202q401 -446 402 -876q0 -281 -160 -471.5t-418 -190.5q-229 0 -365.5 135.5t-136.5 335.5q0 217 142.5 375t347.5 158q102 0 190 -47q-73 148 -280 379zM612 700q-92 0 -148 -70.5t-56 -160.5q0 -76 45 -126t122 -50q92 0 149.5 71.5t57.5 163.5 q0 74 -47 123t-123 49z" glyph-name="partialdiff" horiz-adv-x="1206" unicode="∂"/><glyph d="M686 1434h365l229 -1434h-1327zM807 997l-326 -688h416z" glyph-name="uni2206" horiz-adv-x="1417" unicode="∆"/><glyph d="M1604 1434l-60 -338h-160l-192 -1096h-356l192 1096h-338l-192 -1096h-357l195 1096h-160l60 338h1368z" glyph-name="product" horiz-adv-x="1519" unicode="∏"/><glyph d="M-47 -238l49 283l586 555l-391 551l51 283h1114l-57 -324h-662l385 -543l-508 -481h604l-57 -324h-1114z" glyph-name="summation" horiz-adv-x="1286" unicode="∑"/><glyph d="M952 823l-53 -301h-780l55 301h778z" glyph-name="minus" horiz-adv-x="1024" unicode="−"/><glyph d="M479 690l56 -497l677 1241h392l-953 -1672h-375l-83 611h-197l55 317h428z" glyph-name="radical" horiz-adv-x="1417" unicode="√"/><glyph d="M1313 1057q162 0 256 -100.5t94 -245.5q0 -172 -116.5 -298t-307.5 -126q-203 0 -369 202q-211 -203 -415 -202q-162 0 -256.5 100t-94.5 246q0 172 117 298t307 126q201 0 367 -203q211 203 418 203zM1249 543q63 0 107.5 42t44.5 101q0 47 -31 80t-84 33 q-104 0 -237 -135q108 -121 200 -121zM518 801q-63 0 -107 -42t-44 -102q0 -47 30.5 -79.5t83.5 -32.5q104 0 238 133q-109 123 -201 123z" glyph-name="infinity" horiz-adv-x="1720" unicode="∞"/><glyph d="M-168 -381l102 252q70 -27 134 -27q45 0 74.5 26t41.5 95l193 1088q39 215 150.5 310t267.5 95q152 0 313 -76l-104 -249q-80 35 -154 34q-45 0 -75 -25.5t-42 -94.5l-192 -1088q-37 -215 -149.5 -310t-268.5 -95q-148 -1 -291 65z" glyph-name="integral" horiz-adv-x="942" unicode="∫"/><glyph d="M338 690l-197 105q129 272 308 272q68 0 152.5 -43t107.5 -43q49 0 102 94l197 -104q-129 -272 -308 -273q-68 0 -152.5 43t-107.5 43q-49 0 -102 -94zM264 268l-196 105q125 272 305 272q68 0 153.5 -43t106.5 -43q51 0 102 94l197 -104q-127 -272 -305 -273 q-68 0 -154 44.5t-106 44.5q-52 -1 -103 -97z" glyph-name="approxequal" horiz-adv-x="1024" unicode="≈"/><glyph d="M162 745l51 293h453l141 219l184 -108l-71 -111h110l-51 -293h-248l-92 -145h315l-53 -293h-450l-142 -219l-184 111l70 108h-111l53 293h246l94 145h-315z" glyph-name="notequal" horiz-adv-x="1067" unicode="≠"/><glyph d="M143 713l60 334l872 323l-59 -342l-479 -156l421 -163l-57 -320zM891 334l-51 -297h-815l53 297h813z" glyph-name="lessequal" horiz-adv-x="1056" unicode="≤"/><glyph d="M1038 1047l-59 -334l-873 -324l62 342l477 158l-422 162l58 319zM911 334l-51 -297h-815l51 297h815z" glyph-name="greaterequal" horiz-adv-x="1052" unicode="≥"/><glyph d="M125 649q0 326 237.5 566.5t561.5 240.5q301 0 487 -197.5t186 -474.5q0 -326 -237.5 -566.5t-560.5 -240.5q-301 0 -487.5 198t-186.5 474zM909 1251q-231 0 -399 -175t-168 -414q0 -199 129 -339.5t342 -140.5q231 0 399 175t168 415q0 199 -129 339t-342 140zM684 770 l35 191l199 92h141l-119 -672h-184l80 459z" glyph-name="uni2460" horiz-adv-x="1654" unicode="①"/><glyph d="M125 649q0 326 237.5 566.5t561.5 240.5q301 0 487 -197.5t186 -474.5q0 -326 -237.5 -566.5t-560.5 -240.5q-301 0 -487.5 198t-186.5 474zM909 1251q-231 0 -399 -175t-168 -414q0 -199 129 -339.5t342 -140.5q231 0 399 175t168 415q0 199 -129 339t-342 140z M1110 582l-31 -174h-518l27 143q158 92 239 151q143 104 144 166q0 25 -17.5 42.5t-48.5 17.5q-70 0 -86 -103h-182q14 137 95 202t185.5 65t173 -58.5t68.5 -146.5q0 -168 -231 -305h182z" glyph-name="uni2461" horiz-adv-x="1654" unicode="②"/><glyph d="M125 649q0 326 237.5 566.5t561.5 240.5q301 0 487 -197.5t186 -474.5q0 -326 -237.5 -566.5t-560.5 -240.5q-301 0 -487.5 198t-186.5 474zM909 1251q-231 0 -399 -175t-168 -414q0 -199 129 -339.5t342 -140.5q231 0 399 175t168 415q0 199 -129 339t-342 140zM563 479 l115 142q104 -61 168 -62q78 0 78 43q0 27 -39 46.5t-115 17.5l23 133q164 0 163 75q0 23 -16 37.5t-45 14.5q-61 0 -72 -66h-178q10 123 89 173t167 50q104 0 175 -53t71 -135q0 -117 -121 -172q88 -47 88 -133q0 -94 -73.5 -148.5t-194.5 -54.5q-156 0 -283 92z" glyph-name="uni2462" horiz-adv-x="1654" unicode="③"/><glyph d="M125 649q0 326 237.5 566.5t561.5 240.5q301 0 487 -197.5t186 -474.5q0 -326 -237.5 -566.5t-560.5 -240.5q-301 0 -487.5 198t-186.5 474zM909 1251q-231 0 -399 -175t-168 -414q0 -199 129 -339.5t342 -140.5q231 0 399 175t168 415q0 199 -129 339t-342 140z M1022 399h-184l20 121h-317l24 135l242 416h209l-234 -387h105l22 131l195 55l-33 -186h92l-30 -164h-91z" glyph-name="uni2463" horiz-adv-x="1654" unicode="④"/><glyph d="M125 649q0 326 237.5 566.5t561.5 240.5q301 0 487 -197.5t186 -474.5q0 -326 -237.5 -566.5t-560.5 -240.5q-301 0 -487.5 198t-186.5 474zM909 1251q-231 0 -399 -175t-168 -414q0 -199 129 -339.5t342 -140.5q231 0 399 175t168 415q0 199 -129 339t-342 140z M727 1053h428l-29 -168h-252l-12 -78q127 -8 190.5 -64.5t63.5 -138.5q0 -100 -68.5 -167.5t-201.5 -67.5q-156 0 -283 92l113 141q111 -61 166 -61q78 0 78 53q0 66 -150 65h-113z" glyph-name="uni2464" horiz-adv-x="1654" unicode="⑤"/><glyph d="M125 649q0 326 237.5 566.5t561.5 240.5q301 0 487 -197.5t186 -474.5q0 -326 -237.5 -566.5t-560.5 -240.5q-301 0 -487.5 198t-186.5 474zM909 1251q-231 0 -399 -175t-168 -414q0 -199 129 -339.5t342 -140.5q231 0 399 175t168 415q0 199 -129 339t-342 140z M1124 1065l-200 -203q88 -12 140 -71.5t52 -139.5q0 -104 -80 -187t-207 -83q-113 0 -184.5 68.5t-71.5 164.5q0 119 129 244l209 207h213zM852 729q-47 0 -75.5 -30.5t-28.5 -67.5t25.5 -61.5t64.5 -24.5q47 0 74.5 28.5t27.5 71.5q0 35 -24.5 59.5t-63.5 24.5z" glyph-name="uni2465" horiz-adv-x="1654" unicode="⑥"/><glyph d="M125 649q0 326 237.5 566.5t561.5 240.5q301 0 487 -197.5t186 -474.5q0 -326 -237.5 -566.5t-560.5 -240.5q-301 0 -487.5 198t-186.5 474zM909 1251q-231 0 -399 -175t-168 -414q0 -199 129 -339.5t342 -140.5q231 0 399 175t168 415q0 199 -129 339t-342 140zM682 868 l29 176h487l-24 -151l-336 -520h-217l327 495h-266z" glyph-name="uni2466" horiz-adv-x="1654" unicode="⑦"/><glyph d="M125 649q0 326 237.5 566.5t561.5 240.5q301 0 487 -197.5t186 -474.5q0 -326 -237.5 -566.5t-560.5 -240.5q-301 0 -487.5 198t-186.5 474zM909 1251q-231 0 -399 -175t-168 -414q0 -199 129 -339.5t342 -140.5q231 0 399 175t168 415q0 199 -129 339t-342 140z M1130 594q0 -102 -82.5 -159.5t-193.5 -57.5q-125 0 -204 57.5t-79 145.5q0 61 35 109t94 71q-51 45 -51 112q0 94 76 147.5t178 53.5q109 0 179.5 -51t70.5 -131q0 -117 -98 -162q75 -51 75 -135zM850 524q43 0 69.5 23.5t26.5 56.5q0 29 -23.5 51.5t-70.5 22.5 q-41 0 -66.5 -23.5t-25.5 -56.5q0 -29 23.5 -51.5t66.5 -22.5zM901 807q27 0 52.5 17.5t25.5 47.5q0 59 -78 60q-37 0 -57.5 -20.5t-20.5 -47.5q0 -23 19.5 -40t58.5 -17z" glyph-name="uni2467" horiz-adv-x="1654" unicode="⑧"/><glyph d="M125 649q0 326 237.5 566.5t561.5 240.5q301 0 487 -197.5t186 -474.5q0 -326 -237.5 -566.5t-560.5 -240.5q-301 0 -487.5 198t-186.5 474zM909 1251q-231 0 -399 -175t-168 -414q0 -199 129 -339.5t342 -140.5q231 0 399 175t168 415q0 199 -129 339t-342 140zM616 381 l201 203q-88 12 -140 71.5t-52 139.5q0 104 79.5 187t206.5 83q113 0 184.5 -68.5t71.5 -165.5q0 -119 -129 -243l-209 -207h-213zM889 717q47 0 75.5 30.5t28.5 67.5t-25.5 61.5t-64.5 24.5q-47 0 -74.5 -28.5t-27.5 -71.5q0 -35 24.5 -59.5t63.5 -24.5z" glyph-name="uni2468" horiz-adv-x="1654" unicode="⑨"/><glyph d="M125 649q0 326 237.5 566.5t561.5 240.5q301 0 487 -197.5t186 -474.5q0 -326 -237.5 -566.5t-560.5 -240.5q-301 0 -487.5 198t-186.5 474zM909 1251q-231 0 -399 -175t-168 -414q0 -199 129 -339.5t342 -140.5q231 0 399 175t168 415q0 199 -129 339t-342 140zM561 655 q0 160 88 285t244 125q145 0 214 -80t69 -207q0 -160 -88.5 -284.5t-245.5 -124.5q-143 0 -212 79.5t-69 206.5zM891 895q-72 0 -109 -77t-37 -156q0 -123 101 -123q74 0 109.5 76.5t35.5 156.5q0 123 -100 123z" glyph-name="uni24EA" horiz-adv-x="1654" unicode="⓪"/><glyph d="M125 649q0 326 237.5 566.5t561.5 240.5q301 0 487 -197.5t186 -474.5q0 -326 -237.5 -566.5t-560.5 -240.5q-301 0 -487.5 198t-186.5 474zM561 655q0 -127 68.5 -206.5t212.5 -79.5q158 0 246 124.5t88 284.5q0 127 -69 207t-214 80q-156 0 -244 -125t-88 -285z M891 895q100 0 100 -123q0 -80 -35.5 -156.5t-109.5 -76.5q-100 0 -101 123q0 80 37 156.5t109 76.5z" glyph-name="uni24FF" horiz-adv-x="1654" unicode="⓿"/><glyph d="M1079 717l-626 -742l-367 742l627 741zM512 440l264 314l-123 239l-264 -313z" glyph-name="lozenge" horiz-adv-x="1099" unicode="◊"/><glyph d="M125 649q0 326 237.5 566.5t561.5 240.5q301 0 487 -197.5t186 -474.5q0 -326 -237.5 -566.5t-560.5 -240.5q-301 0 -487.5 198t-186.5 474zM909 1251q-231 0 -399 -175t-168 -414q0 -199 129 -339.5t342 -140.5q231 0 399 175t168 415q0 199 -129 339t-342 140z" glyph-name="circle" horiz-adv-x="1654" unicode="○"/><glyph d="M125 649q0 326 237.5 566.5t561.5 240.5q301 0 487 -197.5t186 -474.5q0 -326 -237.5 -566.5t-560.5 -240.5q-301 0 -487.5 198t-186.5 474z" glyph-name="H18533" horiz-adv-x="1654" unicode="●"/><glyph d="M125 649q0 326 237.5 566.5t561.5 240.5q301 0 487 -197.5t186 -474.5q0 -326 -237.5 -566.5t-560.5 -240.5q-301 0 -487.5 198t-186.5 474zM719 961l-35 -191l152 70l-80 -459h184l119 672h-141z" glyph-name="uni2776" horiz-adv-x="1654" unicode="❶"/><glyph d="M125 649q0 326 237.5 566.5t561.5 240.5q301 0 487 -197.5t186 -474.5q0 -326 -237.5 -566.5t-560.5 -240.5q-301 0 -487.5 198t-186.5 474zM1079 408l31 174h-182q231 137 231 305q0 88 -68.5 146.5t-173 58.5t-185.5 -64.5t-95 -202.5h182q16 102 86 103 q31 0 48.5 -17.5t17.5 -42.5q0 -61 -144 -166q-82 -59 -239 -151l-27 -143h518z" glyph-name="uni2777" horiz-adv-x="1654" unicode="❷"/><glyph d="M125 649q0 326 237.5 566.5t561.5 240.5q301 0 487 -197.5t186 -474.5q0 -326 -237.5 -566.5t-560.5 -240.5q-301 0 -487.5 198t-186.5 474zM838 399h184l20 121h91l30 164h-92l33 186l-195 -55l-22 -131h-105l234 387h-209l-242 -416l-24 -135h317z" glyph-name="uni2779" horiz-adv-x="1654" unicode="❹"/><glyph d="M125 649q0 326 237.5 566.5t561.5 240.5q301 0 487 -197.5t186 -474.5q0 -326 -237.5 -566.5t-560.5 -240.5q-301 0 -487.5 198t-186.5 474zM1155 1053h-428l-70 -394h113q150 0 150 -65q0 -53 -78 -53q-55 0 -166 61l-113 -141q127 -92 283 -92q133 0 201.5 67.5 t68.5 167.5q0 82 -63.5 138.5t-190.5 64.5l12 78h252z" glyph-name="uni2780" horiz-adv-x="1654" unicode="➀"/><glyph d="M125 649q0 326 237.5 566.5t561.5 240.5q301 0 487 -197.5t186 -474.5q0 -326 -237.5 -566.5t-560.5 -240.5q-301 0 -487.5 198t-186.5 474zM924 862l200 203h-213l-209 -207q-129 -125 -129 -244q0 -96 72 -164.5t184 -68.5q127 0 207 83t80 187q0 80 -52 139.5 t-140 71.5zM852 729q39 0 63.5 -24.5t24.5 -59.5q0 -43 -27.5 -71.5t-74.5 -28.5q-39 0 -64.5 24.5t-25.5 61.5t28.5 67.5t75.5 30.5z" glyph-name="uni2781" horiz-adv-x="1654" unicode="➁"/><glyph d="M125 649q0 326 237.5 566.5t561.5 240.5q301 0 487 -197.5t186 -474.5q0 -326 -237.5 -566.5t-560.5 -240.5q-301 0 -487.5 198t-186.5 474zM711 1044l-29 -176h266l-327 -495h217l336 520l24 151h-487z" glyph-name="uni2782" horiz-adv-x="1654" unicode="➂"/><glyph d="M125 649q0 326 237.5 566.5t561.5 240.5q301 0 487 -197.5t186 -474.5q0 -326 -237.5 -566.5t-560.5 -240.5q-301 0 -487.5 198t-186.5 474zM1130 594q0 84 -75 135q98 45 98 162q0 80 -70.5 131t-179.5 51q-102 0 -178 -53t-76 -148q0 -68 51 -112q-59 -23 -94 -71 t-35 -109q0 -88 79 -145.5t204 -57.5q111 0 193.5 57.5t82.5 159.5zM850 524q-43 0 -66.5 22.5t-23.5 51.5q0 33 25.5 56.5t66.5 23.5q47 0 70.5 -22.5t23.5 -51.5q0 -33 -26.5 -56.5t-69.5 -23.5zM901 807q-39 0 -58.5 17.5t-19.5 39.5q0 27 20.5 47.5t57.5 20.5 q78 0 78 -60q0 -31 -25.5 -48t-52.5 -17z" glyph-name="uni2783" horiz-adv-x="1654" unicode="➃"/><glyph d="M125 649q0 326 237.5 566.5t561.5 240.5q301 0 487 -197.5t186 -474.5q0 -326 -237.5 -566.5t-560.5 -240.5q-301 0 -487.5 198t-186.5 474zM817 584l-201 -203h213l209 207q129 125 129 243q0 96 -71.5 165t-184.5 69q-127 0 -206.5 -83t-79.5 -187q0 -80 52 -139.5 t140 -71.5zM889 717q-39 0 -63.5 24.5t-24.5 59.5q0 43 27.5 71.5t74.5 28.5q39 0 64.5 -24.5t25.5 -61.5t-28.5 -67.5t-75.5 -30.5z" glyph-name="uni2784" horiz-adv-x="1654" unicode="➄"/><glyph d="M125 649q0 326 237.5 566.5t561.5 240.5q301 0 487 -197.5t186 -474.5q0 -326 -237.5 -566.5t-560.5 -240.5q-301 0 -487.5 198t-186.5 474zM678 621l-115 -142q127 -92 283 -92q121 0 194.5 54.5t73.5 148.5q0 86 -88 133q121 55 121 172q0 82 -70.5 135t-175.5 53 q-88 0 -167 -50t-89 -173h178q10 66 72 66q29 0 45 -14.5t16 -37.5q0 -76 -163 -75l-23 -133q76 2 115 -17.5t39 -46.5q0 -43 -78 -43q-64 1 -168 62z" glyph-name="uni2786" horiz-adv-x="1654" unicode="➆"/><glyph d="M524 1434q154 0 224 -101l14 84h252l-131 -741h-252l8 49q-78 -66 -180 -66q-147 0 -226 92.5t-79 231.5q0 106 42 207.5t128.5 172.5t199.5 71zM541 881q70 0 115.5 59t45.5 133q0 59 -33.5 99t-95.5 40q-68 0 -115.5 -58t-47.5 -132q0 -59 36 -100t95 -41z" glyph-name="uniE001" horiz-adv-x="978" unicode=""/><glyph d="M729 0l21 115q-109 -139 -287 -140q-184 0 -290.5 131.5t-106.5 333.5q0 111 32.5 221.5t94 206t162 154.5t220.5 59q227 0 316 -166l24 142h361l-186 -1057h-361zM604 293q102 0 168 81t66 195q0 86 -46.5 140.5t-134.5 54.5q-102 0 -167.5 -82t-65.5 -195 q0 -86 46 -140t134 -54z" glyph-name="uniE020" unicode=""/><glyph d="M90 479l143 809l381 121l-61 -352h303l-55 -305h-303l-56 -320q-4 -20 -4 -47q0 -88 99 -88q61 0 137 31l71 -287q-152 -66 -292 -66q-375 0 -375 353q0 79 12 151z" glyph-name="uniE021" horiz-adv-x="835" unicode=""/><glyph d="M1522 -51l-197 -287l-580 371l189 258zM109 637q0 211 97 397.5t283.5 305t419.5 118.5q315 0 500.5 -190.5t185.5 -470.5q0 -211 -97 -397.5t-283.5 -305.5t-419.5 -119q-315 0 -500.5 190.5t-185.5 471.5zM887 1108q-170 0 -282.5 -133t-112.5 -309q0 -145 87 -242.5 t238 -97.5q170 0 282.5 133t112.5 309q0 145 -86.5 242.5t-238.5 97.5z" glyph-name="uniE022" horiz-adv-x="1640" unicode=""/><glyph d="M729 0l21 115q-109 -139 -287 -140q-184 0 -290.5 131.5t-106.5 333.5q0 111 32.5 221.5t94 206t162 154.5t220.5 59q227 0 316 -166l24 142h361l-186 -1057h-361zM604 293q102 0 168 81t66 195q0 86 -46.5 140.5t-134.5 54.5q-102 0 -167.5 -82t-65.5 -195 q0 -86 46 -140t134 -54zM963 1204l-246 -74l-223 318l268 174z" glyph-name="uniE030" unicode=""/><glyph d="M729 0l21 115q-109 -139 -287 -140q-184 0 -290.5 131.5t-106.5 333.5q0 111 32.5 221.5t94 206t162 154.5t220.5 59q227 0 316 -166l24 142h361l-186 -1057h-361zM604 293q102 0 168 81t66 195q0 86 -46.5 140.5t-134.5 54.5q-102 0 -167.5 -82t-65.5 -195 q0 -86 46 -140t134 -54zM807 1130l-217 115l340 377l207 -217z" glyph-name="uniE031" unicode=""/><glyph d="M729 0l21 115q-109 -139 -287 -140q-184 0 -290.5 131.5t-106.5 333.5q0 111 32.5 221.5t94 206t162 154.5t220.5 59q227 0 316 -166l24 142h361l-186 -1057h-361zM604 293q102 0 168 81t66 195q0 86 -46.5 140.5t-134.5 54.5q-102 0 -167.5 -82t-65.5 -195 q0 -86 46 -140t134 -54zM811 1266l-213 -131l-139 186l379 240l307 -242l-160 -184z" glyph-name="uniE032" unicode=""/><glyph d="M729 0l21 115q-109 -139 -287 -140q-184 0 -290.5 131.5t-106.5 333.5q0 111 32.5 221.5t94 206t162 154.5t220.5 59q227 0 316 -166l24 142h361l-186 -1057h-361zM604 293q102 0 168 81t66 195q0 86 -46.5 140.5t-134.5 54.5q-102 0 -167.5 -82t-65.5 -195 q0 -86 46 -140t134 -54zM637 1182h-240q16 168 93 270t198 102q109 0 176 -96q8 -10 16.5 -25.5t13.5 -23.5t12 -15.5t14 -7.5q31 0 41 130h241q-16 -168 -93 -270.5t-200 -102.5q-106 0 -174 98q-8 10 -20.5 31.5t-20.5 31t-16 9.5q-25 0 -41 -131z" glyph-name="uniE033" unicode=""/><glyph d="M729 0l21 115q-109 -139 -287 -140q-184 0 -290.5 131.5t-106.5 333.5q0 111 32.5 221.5t94 206t162 154.5t220.5 59q227 0 316 -166l24 142h361l-186 -1057h-361zM604 293q102 0 168 81t66 195q0 86 -46.5 140.5t-134.5 54.5q-102 0 -167.5 -82t-65.5 -195 q0 -86 46 -140t134 -54zM414 1307q0 74 57 126t133 52q68 0 114 -45t46 -111q0 -74 -57.5 -127t-133.5 -53q-70 0 -114.5 46t-44.5 112zM819 1307q0 74 57.5 126t133.5 52q68 0 113.5 -45t45.5 -111q0 -74 -57 -127t-133 -53q-70 0 -115 46t-45 112z" glyph-name="uniE034" unicode=""/><glyph d="M729 0l21 115q-109 -139 -287 -140q-184 0 -290.5 131.5t-106.5 333.5q0 111 32.5 221.5t94 206t162 154.5t220.5 59q227 0 316 -166l24 142h361l-186 -1057h-361zM604 293q102 0 168 81t66 195q0 86 -46.5 140.5t-134.5 54.5q-102 0 -167.5 -82t-65.5 -195 q0 -86 46 -140t134 -54zM543 1368q0 115 85 198t201 83q106 0 175 -71t69 -171q0 -115 -85 -198t-202 -83q-106 0 -174.5 71t-68.5 171zM813 1470q-35 0 -61.5 -27.5t-26.5 -62.5q0 -33 21.5 -54t56.5 -21t61.5 27.5t26.5 62.5q0 33 -21.5 54t-56.5 21z" glyph-name="uniE035" unicode=""/><glyph d="M729 0l21 115q-109 -139 -287 -140q-184 0 -290.5 131.5t-106.5 333.5q0 111 32.5 221.5t94 206t162 154.5t220.5 59q227 0 316 -166l24 142h361l-186 -1057h-361zM604 293q102 0 168 81t66 195q0 86 -46.5 140.5t-134.5 54.5q-102 0 -167.5 -82t-65.5 -195 q0 -86 46 -140t134 -54zM1120 1452l-47 -266h-600l47 266h600z" glyph-name="uniE036" unicode=""/><glyph d="M729 0l21 115q-109 -139 -287 -140q-184 0 -290.5 131.5t-106.5 333.5q0 111 32.5 221.5t94 206t162 154.5t220.5 59q227 0 316 -166l24 142h361l-186 -1057h-361zM604 293q102 0 168 81t66 195q0 86 -46.5 140.5t-134.5 54.5q-102 0 -167.5 -82t-65.5 -195 q0 -86 46 -140t134 -54zM934 1513l219 -69q-121 -293 -360 -293q-135 0 -216 84t-96 209l232 69q14 -119 94 -118q78 -1 127 118z" glyph-name="uniE037" unicode=""/><glyph d="M729 0l21 115q-109 -139 -287 -140q-184 0 -290.5 131.5t-106.5 333.5q0 111 32.5 221.5t94 206t162 154.5t220.5 59q227 0 316 -166l24 142h361l-186 -1057q-150 -111 -191 -176q-23 -39 -22 -72q0 -51 63 -51q23 0 47 6l6 -231q-57 -10 -86 -11q-123 0 -191.5 56.5 t-68.5 148.5q0 180 252 330h-170zM604 293q102 0 168 81t66 195q0 86 -46.5 140.5t-134.5 54.5q-102 0 -167.5 -82t-65.5 -195q0 -86 46 -140t134 -54z" glyph-name="uniE038" unicode=""/><glyph d="M1878 340l129 -227q-178 -137 -426 -138q-184 0 -305 75t-174 202l-43 -252h-295l20 127q-135 -152 -321 -152q-184 0 -290.5 131.5t-106.5 333.5q0 111 32.5 221.5t94 206t162 154.5t220.5 59q244 0 347 -180l26 156h295l-31 -176q168 201 447 200q211 0 330.5 -95 t119.5 -243q0 -160 -146 -262t-431 -102h-129q45 -125 219 -125q131 0 256 86zM604 293q102 0 168 81t66 195q0 86 -46.5 140.5t-134.5 54.5q-102 0 -167.5 -82t-65.5 -195q0 -86 46 -140t134 -54zM1649 809q-86 0 -151.5 -53.5t-92.5 -151.5h61q293 0 293 123 q0 39 -30.5 60.5t-79.5 21.5z" glyph-name="uniE039" horiz-adv-x="2150" unicode=""/><glyph d="M1878 340l129 -227q-178 -137 -426 -138q-184 0 -305 75t-174 202l-43 -252h-295l20 127q-135 -152 -321 -152q-184 0 -290.5 131.5t-106.5 333.5q0 111 32.5 221.5t94 206t162 154.5t220.5 59q244 0 347 -180l26 156h295l-31 -176q168 201 447 200q211 0 330.5 -95 t119.5 -243q0 -160 -146 -262t-431 -102h-129q45 -125 219 -125q131 0 256 86zM604 293q102 0 168 81t66 195q0 86 -46.5 140.5t-134.5 54.5q-102 0 -167.5 -82t-65.5 -195q0 -86 46 -140t134 -54zM1649 809q-86 0 -151.5 -53.5t-92.5 -151.5h61q293 0 293 123 q0 39 -30.5 60.5t-79.5 21.5zM1239 1130l-217 115l340 377l207 -217z" glyph-name="uniE040" horiz-adv-x="2150" unicode=""/><glyph d="M1194 1262l111 -220q-131 -72 -199 -135q53 -78 53 -176q0 -186 -138 -293.5t-351 -107.5q-164 0 -269 39q-59 -20 -59 -58q0 -57 107 -57h206q250 0 357.5 -88t107.5 -213q0 -184 -166 -279.5t-444 -95.5q-254 0 -384 76t-130 190q0 129 125 199q-104 70 -105 184 q0 90 54.5 159t148.5 106q-59 78 -59 188q0 184 138 292.5t349 108.5q174 0 295 -49q119 193 252 230zM666 831q-68 0 -114 -36.5t-46 -104.5q0 -51 38 -80.5t107.5 -29.5t115.5 36.5t46 104.5q0 51 -38.5 80.5t-108.5 29.5zM643 -29h-197q-33 0 -81 4q-45 -27 -46 -71 q0 -82 218 -82q225 0 225 88q0 61 -119 61z" glyph-name="uniE044" horiz-adv-x="1243" unicode=""/><glyph d="M1194 1262l111 -220q-131 -72 -199 -135q53 -78 53 -176q0 -186 -138 -293.5t-351 -107.5q-164 0 -269 39q-59 -20 -59 -58q0 -57 107 -57h206q250 0 357.5 -88t107.5 -213q0 -184 -166 -279.5t-444 -95.5q-254 0 -384 76t-130 190q0 129 125 199q-104 70 -105 184 q0 90 54.5 159t148.5 106q-59 78 -59 188q0 184 138 292.5t349 108.5q174 0 295 -49q119 193 252 230zM666 831q-68 0 -114 -36.5t-46 -104.5q0 -51 38 -80.5t107.5 -29.5t115.5 36.5t46 104.5q0 51 -38.5 80.5t-108.5 29.5zM643 -29h-197q-33 0 -81 4q-45 -27 -46 -71 q0 -82 218 -82q225 0 225 88q0 61 -119 61zM907 1513l219 -69q-121 -293 -360 -293q-135 0 -216 84t-95 209l231 69q14 -119 94 -118q78 -1 127 118z" glyph-name="uniE045" horiz-adv-x="1243" unicode=""/><glyph d="M1194 1262l111 -220q-131 -72 -199 -135q53 -78 53 -176q0 -186 -138 -293.5t-351 -107.5q-164 0 -269 39q-59 -20 -59 -58q0 -57 107 -57h206q250 0 357.5 -88t107.5 -213q0 -184 -166 -279.5t-444 -95.5q-254 0 -384 76t-130 190q0 129 125 199q-104 70 -105 184 q0 90 54.5 159t148.5 106q-59 78 -59 188q0 184 138 292.5t349 108.5q174 0 295 -49q119 193 252 230zM666 831q-68 0 -114 -36.5t-46 -104.5q0 -51 38 -80.5t107.5 -29.5t115.5 36.5t46 104.5q0 51 -38.5 80.5t-108.5 29.5zM643 -29h-197q-33 0 -81 4q-45 -27 -46 -71 q0 -82 218 -82q225 0 225 88q0 61 -119 61zM600 1307q0 74 57.5 126t133.5 52q68 0 113.5 -45t45.5 -111q0 -74 -56 -127t-132 -53q-70 0 -116 45t-46 113z" glyph-name="uniE046" horiz-adv-x="1243" unicode=""/><glyph d="M1194 1262l111 -220q-131 -72 -199 -135q53 -78 53 -176q0 -186 -138 -293.5t-351 -107.5q-164 0 -269 39q-59 -20 -59 -58q0 -57 107 -57h206q250 0 357.5 -88t107.5 -213q0 -184 -166 -279.5t-444 -95.5q-254 0 -384 76t-130 190q0 129 125 199q-104 70 -105 184 q0 90 54.5 159t148.5 106q-59 78 -59 188q0 184 138 292.5t349 108.5q174 0 295 -49q119 193 252 230zM666 831q-68 0 -114 -36.5t-46 -104.5q0 -51 38 -80.5t107.5 -29.5t115.5 36.5t46 104.5q0 51 -38.5 80.5t-108.5 29.5zM643 -29h-197q-33 0 -81 4q-45 -27 -46 -71 q0 -82 218 -82q225 0 225 88q0 61 -119 61zM315 -1057l-88 115q137 100 162 176q-61 -2 -101 40t-40 99q0 66 51 113t117 47q74 0 120 -45t46 -125q0 -111 -72 -224.5t-195 -195.5z" glyph-name="uniE047" horiz-adv-x="1243" unicode=""/><glyph d="M90 479l143 809l381 121l-61 -352h303l-55 -305h-303l-56 -320q-4 -20 -4 -47q0 -88 99 -88q61 0 137 31l71 -287q-152 -66 -292 -66q-375 0 -375 353q0 79 12 151zM229 -686l-88 115q137 100 162 176q-61 -2 -101 40t-40 99q0 66 51 113t117 47q74 0 120 -45t46 -125 q0 -111 -72 -224.5t-195 -195.5z" glyph-name="uniE050" horiz-adv-x="835" unicode=""/><glyph d="M90 479l143 809l381 121l-61 -352h303l-55 -305h-303l-56 -320q-4 -20 -4 -47q0 -88 99 -88q61 0 137 31l71 -287q-152 -66 -292 -66q-375 0 -375 353q0 79 12 151zM776 1137l-88 114q137 100 162 176q-61 -2 -101 40t-40 100q0 66 51 112.5t117 46.5q74 0 119.5 -45 t45.5 -125q0 -111 -71.5 -224t-194.5 -195z" glyph-name="uniE051" horiz-adv-x="835" unicode=""/><glyph d="M90 479l143 809l381 121l-61 -352h303l-55 -305h-303l-56 -320q-4 -20 -4 -47q0 -88 99 -88q61 0 137 31l71 -287q-152 -66 -292 -66q-33 0 -58 2l-37 -69q139 -47 140 -187q0 -109 -75 -179t-198 -70q-139 0 -264 79l119 183q88 -57 141 -58q27 0 47.5 14.5t20.5 41.5 q0 61 -96 61l-37 64l102 151q-180 76 -180 320q0 79 12 151z" glyph-name="uniE052" horiz-adv-x="835" unicode=""/><glyph d="M90 479l143 809l381 121l-61 -352h303l-55 -305h-303l-19 -101h223l-32 -188h-224l-4 -31q-4 -20 -4 -47q0 -88 99 -88q61 0 137 31l71 -287q-152 -66 -292 -66q-375 0 -375 353q0 79 12 151z" glyph-name="uniE053" horiz-adv-x="837" unicode=""/><glyph d="M684 877q-109 0 -177.5 -111t-68.5 -246q0 -96 47 -155.5t133 -59.5q109 0 176.5 110.5t67.5 246.5q0 96 -46 155.5t-132 59.5zM88 502q0 287 173 495.5t439 208.5q244 0 378 -148.5t134 -377.5q0 -287 -173 -496t-439 -209q-244 0 -378 149t-134 378z" glyph-name="uniE100" horiz-adv-x="1280" unicode=""/><glyph d="M78 596l69 391l385 195h293l-209 -1182h-366l131 748z" glyph-name="uniE101" horiz-adv-x="837" unicode=""/><glyph d="M1065 313l-55 -313h-1004l45 264q350 158 512 260q41 27 65.5 44.5t61.5 50t55.5 69.5t18.5 78q0 45 -29.5 75.5t-89.5 30.5q-135 0 -162 -210h-364q14 129 60 229t104.5 157.5t133.5 95.5t136 50t119 12q209 0 341 -113.5t130 -285.5q0 -166 -105.5 -283.5 t-294.5 -210.5h322z" glyph-name="uniE102" horiz-adv-x="1200" unicode=""/><glyph d="M340 313l51 289q80 -2 151.5 11.5t133 59.5t61.5 122q0 49 -32.5 77.5t-90.5 28.5q-61 0 -104 -37t-49 -112h-355q4 154 85 259t194 150t246 45q205 0 341 -107.5t136 -277.5q0 -274 -293 -372q213 -96 213 -297t-151.5 -314.5t-382.5 -113.5q-303 0 -572 188l203 268 q217 -139 371 -139q78 0 119.5 34t41.5 91q0 61 -73.5 104t-243.5 43z" glyph-name="uniE103" horiz-adv-x="1179" unicode=""/><glyph d="M918 -252h-351l47 264h-634l47 271l487 899h412l-502 -869h244l61 344l371 113l-82 -457h172l-51 -301h-174z" glyph-name="uniE104" horiz-adv-x="1269" unicode=""/><glyph d="M281 1182h847l-57 -330h-491l-35 -203q262 -23 384 -141.5t122 -292.5q0 -215 -140.5 -353t-402.5 -138q-297 0 -574 188l203 268q213 -139 365 -139q76 0 124 37t48 110q0 166 -355 166h-184z" glyph-name="uniE105" horiz-adv-x="1177" unicode=""/><glyph d="M1200 1434l-455 -461q178 -2 293 -125t115 -303q0 -236 -164 -403t-416 -167q-231 0 -369 141.5t-138 342.5q0 152 74.5 279.5t211.5 273.5l402 422h446zM631 707q-94 0 -158.5 -68t-64.5 -164q0 -78 49 -129t133 -51q92 0 156.5 69.5t64.5 163.5q0 76 -49 127.5 t-131 51.5z" glyph-name="uniE106" horiz-adv-x="1220" unicode=""/><glyph d="M109 836l61 346h967l-52 -293l-684 -1141h-436l682 1088h-538z" glyph-name="uniE107" horiz-adv-x="1069" unicode=""/><glyph d="M1167 434q0 -211 -155.5 -335t-393.5 -124q-250 0 -407.5 116t-157.5 298q0 141 80 247.5t221 154.5q-125 92 -125 245q0 190 143.5 306t356.5 116q225 0 367.5 -105.5t142.5 -273.5q0 -119 -62.5 -215t-177.5 -143q168 -105 168 -287zM610 270q88 0 147.5 53.5 t59.5 139.5q0 70 -50 116t-138 46q-90 0 -149.5 -53.5t-59.5 -141.5q0 -70 50 -115t140 -45zM723 879q74 0 123 46t49 117q0 57 -43 94.5t-119 37.5q-78 0 -125 -48.5t-47 -113.5q0 -57 44 -95t118 -38z" glyph-name="uniE108" horiz-adv-x="1269" unicode=""/><glyph d="M43 -252l455 461q-178 2 -293 125t-115 303q0 236 164 402.5t416 166.5q231 0 369.5 -141t138.5 -342q0 -152 -75 -280t-212 -273l-402 -422h-446zM612 475q94 0 159 67.5t65 164.5q0 78 -49.5 129t-133.5 51q-92 0 -156.5 -69.5t-64.5 -164.5q0 -76 49 -127t131 -51z " glyph-name="uniE109" horiz-adv-x="1220" unicode=""/><glyph d="M63 539q0 145 39 299.5t113 297t202 232.5t288 90q248 0 368.5 -156.5t120.5 -406.5q0 -145 -39 -300t-112.5 -297t-201.5 -232.5t-288 -90.5q-248 0 -369 157t-121 407zM692 1120q-63 0 -116.5 -66.5t-84 -162.5t-47 -189.5t-16.5 -160.5q0 -227 137 -228 q63 0 116.5 66.5t84.5 163t47 189.5t16 161q0 227 -137 227z" glyph-name="uniE120" horiz-adv-x="1191" unicode=""/><glyph d="M207 848l69 391l404 195h293l-195 -1096h301l-59 -338h-963l60 338h295l118 666z" glyph-name="uniE121" horiz-adv-x="1191" unicode=""/><glyph d="M1071 330l-55 -330h-1028l51 285q377 238 565 409q213 188 213 322q0 53 -33.5 85t-95.5 32q-154 0 -182 -232h-361q16 147 71.5 259t135.5 174.5t171 93t192 30.5q207 0 340 -117.5t133 -298.5q0 -291 -354 -567q-100 -76 -209 -145h446z" glyph-name="uniE122" horiz-adv-x="1191" unicode=""/><glyph d="M393 565l51 289q80 -2 152 11.5t133.5 59.5t61.5 122q0 49 -33 77.5t-90 28.5q-61 0 -104.5 -37t-49.5 -112h-354q4 154 85 259t193.5 150t245.5 45q205 0 341 -107.5t136 -277.5q0 -274 -293 -373q213 -96 213 -296.5t-151.5 -314.5t-382.5 -114q-303 0 -572 189 l203 268q217 -139 371 -139q78 0 120 33.5t42 91.5q0 61 -74 104t-244 43z" glyph-name="uniE123" horiz-adv-x="1191" unicode=""/><glyph d="M903 0h-346l47 264h-594l47 271l443 899h411l-467 -869h213l62 344l366 113l-81 -457h145l-53 -301h-146z" glyph-name="uniE124" horiz-adv-x="1191" unicode=""/><glyph d="M332 1434h848l-58 -330h-491l-35 -203q262 -23 384 -141.5t122 -292.5q0 -215 -140.5 -353.5t-402.5 -138.5q-297 0 -573 189l202 268q213 -139 365 -139q76 0 124 37t48 110q0 166 -354 166h-185z" glyph-name="uniE125" horiz-adv-x="1191" unicode=""/><glyph d="M1182 1434l-455 -461q178 -2 293 -125t115 -303q0 -236 -164 -403t-416 -167q-231 0 -369.5 141.5t-138.5 342.5q0 152 75 279.5t212 273.5l401 422h447zM612 707q-94 0 -158.5 -68t-64.5 -164q0 -78 49 -129t133 -51q92 0 157 69.5t65 163.5q0 76 -49.5 127.5 t-131.5 51.5z" glyph-name="uniE126" horiz-adv-x="1191" unicode=""/><glyph d="M205 1087l61 347h977l-51 -293l-690 -1141h-436l684 1087h-545z" glyph-name="uniE127" horiz-adv-x="1191" unicode=""/><glyph d="M1128 434q0 -211 -155.5 -335t-392.5 -124q-250 0 -408 116t-158 298q0 141 80 247.5t221 154.5q-125 92 -125 245q0 190 143.5 306t356.5 116q225 0 367.5 -105.5t142.5 -273.5q0 -119 -62.5 -215t-176.5 -143q167 -105 167 -287zM571 270q88 0 147.5 53.5t59.5 139.5 q0 70 -50 116t-138 46q-90 0 -149.5 -53.5t-59.5 -141.5q0 -70 50 -115t140 -45zM684 879q74 0 123 46t49 117q0 57 -43 94.5t-119 37.5q-78 0 -125 -48.5t-47 -113.5q0 -57 44 -95t118 -38z" glyph-name="uniE128" horiz-adv-x="1191" unicode=""/><glyph d="M76 0l454 461q-178 2 -292.5 125t-114.5 303q0 236 164 402.5t415 166.5q231 0 369.5 -141t138.5 -342q0 -152 -74.5 -280t-211.5 -273l-402 -422h-446zM645 727q94 0 158.5 67.5t64.5 163.5q0 78 -49 129.5t-133 51.5q-92 0 -156.5 -70t-64.5 -164q0 -76 49 -127 t131 -51z" glyph-name="uniE129" horiz-adv-x="1191" unicode=""/><glyph d="M936 360l180 -241q-188 -143 -389 -144q-250 0 -397.5 133.5t-179.5 354.5h-150l35 196h106q2 47 13 101h-101l35 198h119q88 240 259 370t390 130q303 0 473 -229l-264 -197q-74 104 -213 105q-170 0 -266 -179h446l-90 -198h-426q-12 -66 -14 -101h401l-90 -196h-297 q53 -166 246 -166q88 0 174 63z" glyph-name="uniE140" horiz-adv-x="1191" unicode=""/><glyph d="M63 0l43 260q147 100 197 258h-180l47 275h137q-41 168 -41 235q0 188 132 309t327 121q176 0 309 -102.5t133 -300.5q0 -53 -8 -101h-330q6 37 7 66q0 123 -101 123q-59 0 -94 -43t-35 -111q0 -27 35 -196h301l-47 -275h-260q-33 -121 -119 -207h508l-53 -311h-908z" glyph-name="uniE141" horiz-adv-x="1191" unicode=""/><glyph d="M651 936l264 498h400l-414 -670h197l-39 -223h-287l-16 -92h286l-38 -224h-287l-39 -225h-352l39 225h-287l39 224h286l17 92h-287l39 223h199l-174 670h364z" glyph-name="uniE142" horiz-adv-x="1191" unicode=""/><glyph d="M334 -154l39 220q-145 41 -226 133t-81 223l333 67v-22q0 -76 50.5 -118t138.5 -42q59 0 105 23.5t46 83.5q0 16 -4 29.5t-16 25.5t-22.5 21.5t-33 21.5t-37 19.5t-45 22.5t-46.5 24q-170 88 -259.5 188t-89.5 238q0 170 118 273t302 116l35 194h281l-39 -223 q272 -94 272 -406v-18h-330v10q0 86 -45 132t-114 46q-55 0 -96.5 -26.5t-41.5 -79.5q0 -51 40 -85t130 -79q94 -49 151.5 -84t118 -87t88 -113.5t27.5 -137.5q0 -166 -111.5 -274.5t-322.5 -120.5l-35 -195h-280z" glyph-name="uniE143" horiz-adv-x="1191" unicode=""/><glyph d="M225 860l33 195h346q-31 127 -188 127h-133l43 252h929l-88 -195h-274q57 -80 74 -184h221l-88 -195h-137q-31 -158 -121 -268.5t-228 -157.5l279 -434h-420l-313 494l39 221h157q168 0 228 145h-359z" glyph-name="uniE144" horiz-adv-x="1191" unicode=""/><glyph d="M82 739l41 238l174 51l72 406h368l-51 -289l395 119l-41 -238l-397 -119l-14 -80l397 119l-43 -237l-397 -119l-45 -260h51q94 0 140 58t83 187l348 -63q-76 -279 -204 -395.5t-377 -116.5h-465l82 473l-172 -51l41 237l174 52l14 80z" glyph-name="uniE145" horiz-adv-x="1191" unicode=""/><glyph d="M422 0h-272l14 406h-172l45 256h135l2 88h-121l45 258h86l15 426h284l-59 -760l205 760h256l-68 -746l205 746h293l-137 -426h86l-45 -258h-123l-29 -88h135l-45 -256h-172l-129 -406h-270l65 831z" glyph-name="uniE146" horiz-adv-x="1191" unicode=""/><glyph d="M23 193l43 237h106l12 72h-106l51 295h107l112 637h393q248 0 368 -115t120 -293q0 -211 -135.5 -367.5t-378.5 -156.5h-197l-12 -72h285l-43 -237h-285l-33 -193h-334l33 193h-106zM569 797h121q94 0 145.5 55t51.5 141q0 66 -42 106t-128 40h-88z" glyph-name="uniE147" horiz-adv-x="1191" unicode=""/><glyph d="M598 1706l246 -193q-178 -236 -275.5 -523.5t-97.5 -592.5q0 -289 86 -524l-305 -145q-158 311 -158 694q0 344 130 687t374 597z" glyph-name="uniE300" horiz-adv-x="727" unicode=""/><glyph d="M197 -272l-246 192q178 236 275.5 523.5t97.5 592.5q0 289 -86 525l305 145q158 -311 157 -694q0 -344 -129.5 -687t-373.5 -597z" glyph-name="uniE301" horiz-adv-x="727" unicode=""/><glyph d="M809 872l-55 -311h-629l55 311h629z" glyph-name="uniE302" horiz-adv-x="872" unicode=""/><glyph d="M1096 872l-56 -311h-915l55 311h916z" glyph-name="uniE303" horiz-adv-x="1159" unicode=""/><glyph d="M1368 872l-53 -311h-1190l55 311h1188z" glyph-name="uniE304" horiz-adv-x="1433" unicode=""/><glyph d="M666 98l-52 -280h-594l318 1800h594l-49 -281h-248l-217 -1239h248z" glyph-name="uniE305" horiz-adv-x="815" unicode=""/><glyph d="M217 1337l51 281h594l-317 -1800h-594l49 280h248l217 1239h-248z" glyph-name="uniE306" horiz-adv-x="815" unicode=""/><glyph d="M59 580l50 274h59q76 0 122 36t64 142l49 279q27 154 122.5 230.5t277.5 76.5h213l-49 -281h-93q-70 0 -99.5 -33.5t-41.5 -107.5l-22 -127q-14 -82 -22.5 -116.5t-29 -89t-46 -78t-70.5 -47t-109 -31.5q164 -49 164 -224q0 -53 -12 -114l-21 -123q-6 -31 -6 -51 q0 -96 107 -97h82l-50 -280h-141q-168 0 -263 75.5t-95 210.5q0 35 6 76l37 211q6 33 6 60q0 129 -152 129h-37z" glyph-name="uniE307" horiz-adv-x="903" unicode=""/><glyph d="M909 856l-49 -274h-59q-76 0 -122 -36t-65 -143l-49 -278q-27 -154 -122 -230.5t-277 -76.5h-213l49 280h92q70 0 99.5 34t42.5 108l22 127q14 82 22.5 116.5t29 89t46 78t70.5 47t109 31.5q-164 49 -164 223q0 53 12 115l20 123q6 31 7 51q0 96 -107 96h-82l49 281h142 q168 0 263 -76t95 -211q0 -37 -6 -76l-37 -211q-6 -35 -6 -59q0 -129 151 -129h37z" glyph-name="uniE308" horiz-adv-x="901" unicode=""/><glyph d="M344 1655h264l-329 -1874h-265z" glyph-name="uniE309" horiz-adv-x="557" unicode=""/><glyph d="M344 1655h264l-141 -811h-264zM156 586h264l-141 -805h-265z" glyph-name="uniE310" horiz-adv-x="557" unicode=""/><glyph d="M451 684l131 -287l-242 -141l-242 459l402 461l207 -177z" glyph-name="uniE311" horiz-adv-x="706" unicode=""/><glyph d="M324 750l-131 286l241 142l242 -459l-402 -461l-206 176z" glyph-name="uniE312" horiz-adv-x="708" unicode=""/><glyph d="M451 684l131 -287l-242 -141l-242 459l402 461l207 -177zM963 684l131 -287l-242 -141l-242 459l402 461l207 -177z" glyph-name="uniE313" horiz-adv-x="1218" unicode=""/><glyph d="M324 750l-131 286l241 142l242 -459l-402 -461l-206 176zM836 750l-131 286l241 142l242 -459l-402 -461l-206 176z" glyph-name="uniE314" horiz-adv-x="1220" unicode=""/><glyph d="M145 696q0 109 85 192t198 83q104 0 172 -70t68 -166q0 -109 -85 -191.5t-198 -82.5q-104 0 -172 69.5t-68 165.5z" glyph-name="uniE315" horiz-adv-x="755" unicode=""/><glyph d="M119 692q0 92 70.5 157.5t164.5 65.5q86 0 142.5 -56t56.5 -138q0 -92 -70.5 -157.5t-165.5 -65.5q-86 0 -142 56t-56 138z" glyph-name="uniE316" horiz-adv-x="614" unicode=""/><glyph d="M838 242l-220 -183l-528 656l760 653l184 -217l-334 -287h672l-53 -301h-744z" glyph-name="uniE330" horiz-adv-x="1386" unicode=""/><glyph d="M1184 952l180 -225l-758 -653l-530 653l219 188l252 -315l133 752h301l-121 -680z" glyph-name="uniE331" horiz-adv-x="1370" unicode=""/><glyph d="M252 473l-180 225l757 656l531 -656l-219 -188l-254 313l-131 -749h-301l118 678z" glyph-name="uniE332" horiz-adv-x="1370" unicode=""/><glyph d="M616 1186l220 182l528 -655l-760 -654l-184 217l328 285h-666l53 303h742z" glyph-name="uniE333" horiz-adv-x="1388" unicode=""/><glyph d="M399 455h-290l172 979h954l-49 -291h-484l465 -580l-231 -188l-451 563z" glyph-name="uniE334" horiz-adv-x="1249" unicode=""/><glyph d="M274 1143l52 291h956l-172 -979h-289l80 450l-610 -530l-195 225l623 543h-445z" glyph-name="uniE335" horiz-adv-x="1245" unicode=""/><glyph d="M543 1147l172 287h303l-270 -377h139l-29 -158h-213l-10 -55h213l-29 -158h-213l-18 -113h-264l18 113h-211l27 158h213l10 55h-213l29 158h135l-135 377h272z" glyph-name="uniE400" horiz-adv-x="899" unicode=""/><glyph d="M201 1067l32 197h142l59 170h203l-59 -170h100l59 170h203l-59 -170h108l-33 -197h-141l-45 -129h111l-33 -197h-143l-58 -168h-203l58 168h-103l-57 -168h-203l58 168h-105l35 197h137l43 129h-106zM510 1067l-43 -129h100l45 129h-102z" glyph-name="uniE401" horiz-adv-x="913" unicode=""/><glyph d="M397 571h-215l768 863h217zM160 1198q0 100 73.5 175t178.5 75q100 0 160.5 -62.5t60.5 -150.5q0 -98 -74 -173t-180 -75q-98 0 -158.5 62.5t-60.5 148.5zM403 1288q-33 0 -54 -23.5t-21 -56.5q0 -27 17 -45t44 -18q31 0 52.5 24.5t21.5 57.5q0 27 -16.5 44t-43.5 17z M719 780q0 100 73.5 175t178.5 75q100 0 160.5 -62.5t60.5 -150.5q0 -98 -74 -173t-180 -75q-98 0 -158.5 62.5t-60.5 148.5zM963 870q-33 0 -54.5 -23.5t-21.5 -55.5q0 -27 17.5 -45.5t43.5 -18.5q31 0 52.5 24.5t21.5 57.5q0 27 -16 44t-43 17z" glyph-name="uniE402" horiz-adv-x="1183" unicode=""/><glyph d="M92 571l29 174q74 45 108 127h-104l33 185h84q-27 94 -27 135q0 109 79 181.5t204 72.5q115 0 201.5 -60.5t86.5 -183.5q0 -31 -6 -65h-223q2 12 2 30q0 72 -55 72q-29 0 -45.5 -23.5t-16.5 -52.5q0 -16 23 -106h180l-33 -185h-161q-27 -51 -64 -92h313l-36 -209h-572z " glyph-name="uniE403" horiz-adv-x="727" unicode=""/><glyph d="M719 971l-57 -115h-183q43 -76 137 -76q72 0 123 45l127 -170q-119 -98 -264 -98q-152 0 -253 83t-130 216h-113l21 115h82q0 10 4 47h-78l21 119h86q53 143 174 227t258 84q195 0 307 -150l-184 -141q-41 68 -137.5 68t-153.5 -88h289l-58 -119h-276q-6 -25 -6 -47h264z " glyph-name="uniE404" horiz-adv-x="888" unicode=""/><glyph d="M172 1085l21 123h217q-20 61 -97 62h-110l28 164h580l-55 -121h-150q27 -43 37 -105h127l-53 -123h-80q-39 -190 -219 -245l178 -267h-270l-193 293l-2 2l27 146h118q84 0 121 71h-225z" glyph-name="uniE405" horiz-adv-x="696" unicode=""/><glyph d="M160 1036l28 162l109 31l37 205h229l-24 -134l256 76l-29 -166l-256 -73l-8 -47l256 73l-29 -164l-256 -75l-24 -138h43q61 0 89.5 34t53.5 110l221 -39q-57 -184 -142 -251t-257 -67h-275l49 281l-108 -31l29 166l108 31l8 47z" glyph-name="uniE406" horiz-adv-x="829" unicode=""/><glyph d="M532 573h-268l2 224h-153l30 176h125l2 47h-118l30 174h90l2 240h232l-21 -516l164 516h236l-35 -535l166 535h241l-81 -240h92l-31 -174h-119l-16 -47h127l-31 -176h-156l-75 -224h-287l22 508z" glyph-name="uniE407" horiz-adv-x="1214" unicode=""/><glyph d="M96 682l31 170h92l8 47h-92l33 195h94l62 340h301q141 0 211.5 -68t70.5 -170q0 -137 -86 -217t-225 -80h-135l-8 -47h182l-31 -170h-180l-18 -107h-234l18 107h-94zM496 1094h90q49 0 67.5 24.5t18.5 52.5q0 66 -78 66h-72z" glyph-name="uniE408" horiz-adv-x="835" unicode=""/><glyph d="M115 350l39 232h673l-39 -232h-673zM178 1010q0 172 122 298t298 126q170 0 268.5 -101.5t98.5 -249.5q0 -172 -122 -298t-298 -126q-170 0 -268.5 102t-98.5 249zM586 1202q-66 0 -108 -56t-42 -126q0 -55 32 -92t89 -37q66 0 108 56.5t42 125.5q0 55 -32 92t-89 37z " glyph-name="uniE409" horiz-adv-x="960" unicode=""/><glyph d="M125 350l39 232h725l-41 -232h-723zM547 1434q154 0 223 -101l14 84h252l-131 -741h-252l9 49q-78 -66 -181 -66q-147 0 -226 92.5t-79 231.5q0 106 42 207.5t129 172.5t200 71zM563 881q70 0 116 59t46 133q0 59 -34 99t-95 40q-68 0 -116 -58t-48 -132q0 -59 36 -100 t95 -41z" glyph-name="uniE410" horiz-adv-x="1011" unicode=""/><glyph d="M125 350l41 232h725l-41 -232h-725zM547 1434q154 0 223 -101l14 84h252l-131 -741h-252l9 49q-78 -66 -181 -66q-147 0 -226 92.5t-79 231.5q0 106 42 207.5t129 172.5t200 71zM563 881q70 0 116 59t46 133q0 59 -34 99t-95 40q-68 0 -116 -58t-48 -132q0 -59 36 -100 t95 -41z" glyph-name="uniE411" horiz-adv-x="1011" unicode=""/><glyph d="M197 655q0 160 88 285t243 125q145 0 214 -80t69 -207q0 -160 -88 -284.5t-246 -124.5q-143 0 -211.5 79.5t-68.5 206.5zM526 895q-72 0 -108.5 -77t-36.5 -156q0 -123 100 -123q74 0 110 76.5t36 156.5q-1 123 -101 123z" glyph-name="uniE450" horiz-adv-x="757" unicode=""/><glyph d="M94 770l35 191l199 92h141l-119 -672h-184l80 459z" glyph-name="uniE451" horiz-adv-x="471" unicode=""/><glyph d="M592 555l-31 -174h-518l27 143q158 92 239 152q143 104 144 166q0 25 -17.5 42t-48.5 17q-70 0 -86 -102h-182q14 137 95 201.5t185.5 64.5t173 -58.5t68.5 -146.5q0 -168 -231 -305h182z" glyph-name="uniE452" horiz-adv-x="659" unicode=""/><glyph d="M43 461l115 141q104 -61 168 -61q78 0 77 43q0 27 -38.5 46t-114.5 17l22 133q164 0 164 76q0 23 -16.5 37t-44.5 14q-61 0 -72 -65h-178q10 123 89 173t167 50q104 0 175 -53.5t71 -134.5q0 -117 -121 -172q88 -47 88 -134q0 -94 -74 -148t-194 -54q-156 0 -283 92z" glyph-name="uniE453" horiz-adv-x="651" unicode=""/><glyph d="M528 381h-184l21 121h-318l25 135l241 416h209l-233 -387h104l23 131l194 55l-32 -186h92l-31 -164h-90z" glyph-name="uniE454" horiz-adv-x="692" unicode=""/><glyph d="M199 1053h428l-29 -168h-252l-12 -78q127 -8 190.5 -64.5t63.5 -138.5q0 -100 -68.5 -167.5t-202.5 -67.5q-156 0 -282 92l112 141q111 -61 166 -61q78 0 78 53q0 66 -149 65h-113z" glyph-name="uniE455" horiz-adv-x="636" unicode=""/><glyph d="M621 1053l-201 -203q88 -12 140 -71.5t52 -139.5q0 -104 -79.5 -187t-206.5 -83q-113 0 -184.5 68.5t-71.5 164.5q0 119 129 244l209 207h213zM348 717q-47 0 -75.5 -31t-28.5 -67.5t25.5 -61.5t64.5 -25q47 0 74.5 29t27.5 72q0 35 -24.5 59.5t-63.5 24.5z" glyph-name="uniE456" horiz-adv-x="651" unicode=""/><glyph d="M115 877l28 176h488l-25 -152l-336 -520h-217l328 496h-266z" glyph-name="uniE457" horiz-adv-x="589" unicode=""/><glyph d="M631 586q0 -102 -83 -159.5t-194 -57.5q-125 0 -203.5 57t-78.5 145q0 61 34.5 109.5t94.5 71.5q-51 45 -51 112q0 94 75.5 147.5t177.5 53.5q109 0 179.5 -51t70.5 -131q0 -117 -98 -162q76 -51 76 -135zM350 516q43 0 69.5 23.5t26.5 56.5q0 29 -23.5 51.5t-70.5 22.5 q-41 0 -66.5 -23.5t-25.5 -56.5q0 -29 23.5 -51.5t66.5 -22.5zM401 799q27 0 52.5 17.5t25.5 47.5q0 59 -78 60q-37 0 -57 -20.5t-20 -47.5q0 -23 19 -40t58 -17z" glyph-name="uniE458" horiz-adv-x="681" unicode=""/><glyph d="M94 381l201 203q-88 12 -140.5 71.5t-52.5 139.5q0 104 80 187t207 83q113 0 184.5 -68.5t71.5 -165.5q0 -119 -129 -243l-209 -207h-213zM367 717q47 0 75.5 30.5t28.5 67.5t-25.5 61.5t-64.5 24.5q-47 0 -74.5 -28.5t-27.5 -71.5q0 -35 24.5 -59.5t63.5 -24.5z" glyph-name="uniE459" horiz-adv-x="651" unicode=""/><glyph d="M35 344q0 78 21.5 163t65.5 172t128 143.5t194 56.5q170 0 253 -98.5t83 -254.5q0 -78 -21.5 -162.5t-65.5 -172t-128 -143.5t-194 -56q-170 0 -253 98t-83 254zM438 651q-68 0 -108.5 -99t-40.5 -200q0 -133 88 -133q68 0 108.5 99.5t40.5 199.5q0 133 -88 133z" glyph-name="uniE500" horiz-adv-x="847" unicode=""/><glyph d="M106 4l97 543l-164 -80l49 283l234 114h202l-153 -860h-265z" glyph-name="uniE501" horiz-adv-x="557" unicode=""/><glyph d="M637 227l-39 -223h-621l35 186q252 168 361 281q74 78 73 133q0 53 -53 53q-72 0 -88 -125h-239q10 102 50 176t94 108t102 47.5t96 13.5q131 0 211.5 -70t80.5 -178q0 -158 -163 -312q-39 -37 -111 -90h211z" glyph-name="uniE502" horiz-adv-x="757" unicode=""/><glyph d="M-31 104l152 183q115 -76 190 -76q80 0 80 55q0 78 -172 78l31 174q193 -2 192 105q0 23 -16 39t-41 16q-68 0 -76 -82h-231q4 68 28.5 121t58.5 82.5t79 48t80.5 25t72.5 6.5q119 0 203 -65.5t84 -168.5q0 -160 -143 -223q98 -59 98 -164q0 -115 -87 -190.5t-239 -75.5 q-186 -1 -344 112z" glyph-name="uniE503" horiz-adv-x="749" unicode=""/><glyph d="M565 4h-233l24 148h-379l33 182l281 530h274l-276 -493h106l31 180l248 70l-45 -250h96l-39 -219h-96z" glyph-name="uniE504" horiz-adv-x="794" unicode=""/><glyph d="M168 864h522l-39 -221h-291l-16 -94q150 -12 223.5 -85t73.5 -179q0 -135 -88 -215t-242 -80q-188 0 -348 112l143 174q117 -78 201 -77q88 0 88 75q0 84 -172 84h-145z" glyph-name="uniE505" horiz-adv-x="741" unicode=""/><glyph d="M702 864l-258 -280q104 -6 169 -75t65 -171q0 -139 -101.5 -243.5t-248.5 -104.5q-145 0 -230.5 88t-85.5 211q0 145 178 332l236 243h276zM354 418q-47 0 -76.5 -35t-29.5 -86q0 -39 23.5 -64.5t64.5 -25.5t73.5 36t32.5 85q0 39 -23.5 64.5t-64.5 25.5z" glyph-name="uniE506" horiz-adv-x="755" unicode=""/><glyph d="M66 633l40 231h578l-35 -194l-381 -666h-286l378 629h-294z" glyph-name="uniE507" horiz-adv-x="667" unicode=""/><glyph d="M698 254q0 -125 -97 -193.5t-239 -68.5q-158 0 -257 68.5t-99 179.5q0 76 47 141t135 96q-82 53 -82 148q0 104 88.5 179t223.5 75q139 0 228 -67t89 -171q0 -150 -143 -205q106 -69 106 -182zM354 184q49 0 76 30t27 69q0 37 -24.5 60.5t-67.5 23.5q-47 0 -77 -29 t-30 -74q0 -37 25.5 -58.5t70.5 -21.5zM414 541q37 0 62.5 23.5t25.5 60.5q0 29 -20.5 48t-59.5 19q-37 0 -61.5 -25.5t-24.5 -58.5q0 -29 21.5 -48t56.5 -19z" glyph-name="uniE508" horiz-adv-x="804" unicode=""/><glyph d="M23 4l258 279q-104 6 -169 74.5t-65 170.5q0 139 101.5 244t248.5 105q145 0 230.5 -88.5t85.5 -210.5q0 -145 -178 -332l-236 -242h-276zM371 449q47 0 76.5 34.5t29.5 85.5q0 39 -23.5 64.5t-64.5 25.5t-73.5 -35.5t-32.5 -84.5q0 -39 23.5 -64.5t64.5 -25.5z" glyph-name="uniE509" horiz-adv-x="755" unicode=""/><glyph d="M184 1196q0 78 21.5 163t65.5 172t128 143.5t195 56.5q170 0 253 -98.5t83 -254.5q0 -78 -21.5 -163t-65.5 -172t-128 -143t-195 -56q-170 0 -253 98t-83 254zM588 1503q-68 0 -109 -99t-41 -200q0 -133 88 -133q68 0 109 99.5t41 199.5q0 133 -88 133z" glyph-name="uniE520" horiz-adv-x="847" unicode=""/><glyph d="M258 860l96 543l-164 -80l50 283l233 114h203l-154 -860h-264z" glyph-name="uniE521" horiz-adv-x="557" unicode=""/><glyph d="M786 1083l-38 -223h-621l35 187q252 168 360 280q74 78 74 133q0 53 -53 53q-72 0 -88 -124h-240q10 102 50 175.5t94.5 107.5t102.5 47.5t95 13.5q131 0 212 -70t81 -178q0 -158 -164 -311q-39 -37 -111 -91h211z" glyph-name="uniE522" horiz-adv-x="757" unicode=""/><glyph d="M119 956l151 183q115 -76 191 -76q80 0 80 55q0 78 -172 78l30 174q193 -2 193 105q0 23 -16.5 39t-40.5 16q-68 0 -76 -82h-232q4 68 29 121t58.5 82.5t78.5 48t81 25t73 6.5q119 0 203 -66t84 -168q0 -160 -144 -223q98 -59 98 -164q0 -115 -87 -190.5t-238 -75.5 q-186 -1 -344 112z" glyph-name="uniE523" horiz-adv-x="749" unicode=""/><glyph d="M717 860h-234l25 148h-379l33 182l280 530h275l-277 -493h107l31 180l247 70l-45 -250h97l-39 -219h-97z" glyph-name="uniE524" horiz-adv-x="794" unicode=""/><glyph d="M317 1718h523l-39 -221h-291l-16 -94q150 -12 223.5 -85t73.5 -179q0 -135 -88.5 -215t-241.5 -80q-188 0 -348 112l143 174q117 -78 201 -77q88 0 88 75q0 84 -172 84h-146z" glyph-name="uniE525" horiz-adv-x="741" unicode=""/><glyph d="M852 1720l-258 -280q104 -6 168.5 -75t64.5 -171q0 -139 -101 -243.5t-249 -104.5q-145 0 -230 88t-85 211q0 145 178 332l235 243h277zM504 1274q-47 0 -77 -35t-30 -86q0 -39 23.5 -64.5t64.5 -25.5t74 36t33 85q0 39 -23.5 64.5t-64.5 25.5z" glyph-name="uniE526" horiz-adv-x="755" unicode=""/><glyph d="M217 1489l41 231h578l-35 -194l-381 -666h-287l379 629h-295z" glyph-name="uniE527" horiz-adv-x="667" unicode=""/><glyph d="M848 1108q0 -125 -97.5 -193.5t-238.5 -68.5q-158 0 -257 68.5t-99 179.5q0 76 47 141t135 96q-82 53 -82 148q0 104 88 179t223 75q139 0 228.5 -67t89.5 -171q0 -150 -144 -205q107 -69 107 -182zM504 1038q49 0 75.5 30t26.5 69q0 37 -24.5 60.5t-67.5 23.5 q-47 0 -76.5 -29t-29.5 -74q0 -37 25.5 -58.5t70.5 -21.5zM563 1395q37 0 62.5 23.5t25.5 60.5q0 29 -20.5 48t-59.5 19q-37 0 -61.5 -25.5t-24.5 -58.5q0 -29 21.5 -48t56.5 -19z" glyph-name="uniE528" horiz-adv-x="804" unicode=""/><glyph d="M174 860l258 279q-104 6 -168.5 74.5t-64.5 170.5q0 139 101 244t249 105q145 0 230 -88.5t85 -210.5q0 -145 -178 -332l-235 -242h-277zM522 1305q47 0 77 34.5t30 85.5q0 39 -23.5 65t-64.5 26t-74 -36t-33 -85q0 -39 23.5 -64.5t64.5 -25.5z" glyph-name="uniE529" horiz-adv-x="755" unicode=""/><glyph d="M25 295l182 147q-16 49 -17 115q0 113 66 225l-117 156l236 182l121 -159q61 18 125 18q84 0 147 -25l203 166l188 -235l-182 -148q16 -49 16 -114q0 -113 -65 -226l116 -155l-235 -183l-121 160q-61 -18 -125 -18q-84 0 -147 24l-203 -166zM606 741q-66 0 -109.5 -50 t-43.5 -122q0 -57 32.5 -94t92.5 -37q66 0 109.5 50.5t43.5 121.5q0 57 -33 94t-92 37z" glyph-name="uniE600" horiz-adv-x="1163" unicode=""/><glyph d="M168 690l45 248h190l84 244h258l-83 -244h169l84 244h256l-84 -244h150l-43 -248h-190l-68 -198h154l-46 -248h-192l-82 -244h-258l82 244h-170l-82 -244h-256l82 244h-148l46 248h186l67 198h-151zM578 690l-68 -198h170l68 198h-170z" glyph-name="uniE601" horiz-adv-x="1234" unicode=""/><glyph d="M274 -123l33 180q-127 37 -195.5 115t-72.5 184l295 45v-4q0 -131 172 -131q109 0 108 68q0 16 -8 30.5t-29.5 29t-38 22.5t-53 25.5t-57.5 27.5q-147 72 -221 150.5t-74 191.5q0 139 97.5 232.5t269.5 103.5l26 158h254l-35 -191q233 -82 234 -315v-25h-291v8 q0 131 -145 131q-102 0 -103 -67q0 -39 31 -63.5t113 -63.5q86 -43 135 -70.5t103.5 -72t79 -95.5t24.5 -116q0 -139 -99.5 -230.5t-271.5 -101.5l-29 -156h-252z" glyph-name="uniE602" horiz-adv-x="1028" unicode=""/><glyph d="M119 862q0 139 101.5 241.5t244.5 102.5q129 0 210 -84t81 -202q0 -139 -101.5 -242t-244.5 -103q-129 0 -210 84t-81 203zM446 991q-41 0 -71.5 -32.5t-30.5 -79.5q0 -37 23.5 -62.5t60.5 -25.5q41 0 71.5 32.5t30.5 79.5q0 37 -23.5 62.5t-60.5 25.5zM385 0h-262 l1067 1182h260zM813 262q0 139 101.5 241.5t244.5 102.5q129 0 210 -84t81 -203q0 -139 -101.5 -241.5t-244.5 -102.5q-129 0 -210 84t-81 203zM1141 391q-41 0 -72 -32.5t-31 -79.5q0 -37 23.5 -63t60.5 -26q41 0 72 33t31 80q0 37 -23.5 62.5t-60.5 25.5z" glyph-name="uniE603" horiz-adv-x="1550" unicode=""/><glyph d="M309 0l29 170q-121 45 -187.5 146.5t-66.5 230.5q0 178 113.5 316t294.5 171l24 148h252l-29 -172q94 -37 153.5 -111t80.5 -164l-283 -92q-23 123 -137 123q-70 0 -118 -59.5t-48 -143.5q0 -66 35 -106.5t100 -40.5q98 0 160 125l266 -95q-55 -119 -149 -198.5 t-211 -100.5l-27 -147h-252z" glyph-name="uniE604" horiz-adv-x="1013" unicode=""/><glyph d="M27 0l39 229q102 74 147 187h-141l41 231h120q-4 20 -16 60.5t-18 74t-6 68.5q0 154 110.5 255t278.5 101q164 0 270 -91t106 -251q0 -41 -6 -84h-290q4 25 4 51q0 53 -25 75t-55 22q-35 0 -64.5 -30t-29.5 -85q0 -23 4 -48.5t13 -61t13 -56.5h244l-41 -231h-219 q-29 -78 -82 -137h420l-47 -279h-770z" glyph-name="uniE605" horiz-adv-x="987" unicode=""/><glyph d="M633 760l270 422h375l-381 -531h193l-35 -211h-295l-12 -65h294l-36 -209h-295l-29 -166h-338l29 166h-293l37 209h293l12 65h-293l37 211h194l-190 531h338z" glyph-name="uniE606" horiz-adv-x="1216" unicode=""/><glyph d="M119 862q0 139 101.5 241.5t244.5 102.5q129 0 210 -84t81 -202q0 -139 -101.5 -242t-244.5 -103q-129 0 -210 84t-81 203zM446 991q-41 0 -71.5 -32.5t-30.5 -79.5q0 -37 23.5 -62.5t60.5 -25.5q41 0 71.5 32.5t30.5 79.5q0 37 -23.5 62.5t-60.5 25.5zM385 0h-262 l1067 1182h260zM813 262q0 139 101.5 241.5t244.5 102.5q129 0 210 -84t81 -203q0 -139 -101.5 -241.5t-244.5 -102.5q-129 0 -210 84t-81 203zM1141 391q-41 0 -72 -32.5t-31 -79.5q0 -37 23.5 -63t60.5 -26q41 0 72 33t31 80q0 37 -23.5 62.5t-60.5 25.5zM1493 262 q0 139 101.5 241.5t244.5 102.5q129 0 210 -84t81 -203q0 -139 -101.5 -241.5t-244.5 -102.5q-129 0 -210 84t-81 203zM1821 391q-41 0 -72 -32.5t-31 -79.5q0 -37 23.5 -63t60.5 -26q41 0 72 33t31 80q0 37 -23.5 62.5t-60.5 25.5z" glyph-name="uniE607" horiz-adv-x="2220" unicode=""/><glyph d="M911 328l162 -224q-160 -129 -352 -129q-203 0 -341 115t-179 297h-156l29 164h112q0 10 1 21.5t3.5 24.5t2.5 21h-107l29 164h121q74 197 236.5 310.5t354.5 113.5q274 0 418 -209l-241 -182q-72 98 -187 98q-141 0 -229 -131h403l-71 -164h-398q-8 -45 -8 -67h375 l-74 -164h-270q61 -121 207 -121q79 1 159 62z" glyph-name="uniE608" horiz-adv-x="1222" unicode=""/><glyph d="M131 700l29 172h293q-27 86 -129 86h-148l39 224h780l-84 -170h-202q41 -59 51 -140h182l-86 -172h-102q-57 -256 -289 -329l237 -371h-370l-254 408l35 194h155q115 0 166 98h-303z" glyph-name="uniE609" horiz-adv-x="942" unicode=""/><glyph d="M643 0h-364l-3 313h-227l43 242h182v66h-170l41 241h127l-2 320h330l-27 -697l213 697h308l-37 -664l211 664h344l-117 -320h123l-41 -241h-170l-25 -66h183l-43 -242h-228l-112 -313h-363l37 694z" glyph-name="uniE610" horiz-adv-x="1648" unicode=""/><glyph d="M33 158l35 209h88l10 61h-86l47 264h86l86 490h397q201 0 300.5 -95.5t99.5 -240.5q0 -186 -115 -302t-305 -116h-197l-10 -61h231l-34 -209h-234l-26 -158h-314l27 158h-86zM526 692h109q70 0 106.5 34t36.5 93q0 43 -30.5 71t-92.5 28h-90z" glyph-name="uniE611" horiz-adv-x="1101" unicode=""/><glyph d="M111 633l39 223l145 43l51 283h332l-33 -181l338 101l-39 -225l-338 -99l-10 -63l336 100l-39 -223l-338 -100l-33 -193h51q78 0 113 45t70 152l315 -64q-78 -244 -186.5 -338t-335.5 -94h-410l68 387l-148 -43l39 223l148 43l10 66z" glyph-name="uniE612" horiz-adv-x="1138" unicode=""/><glyph d="M1133 299l206 -299h-419l-74 106q-223 -131 -408 -131q-195 0 -301 92.5t-106 237.5q0 162 100 268.5t277 188.5q-70 139 -70 264q0 186 132 309t325 123q186 0 294.5 -101.5t108.5 -242.5q0 -43 -9 -84t-32.5 -78t-41 -64.5t-60.5 -61t-62.5 -50t-76 -48.5t-69.5 -40 t-75.5 -40t-66.5 -34q-23 -12 -80.5 -37.5t-94 -45t-79.5 -48t-66 -63.5t-23 -74q0 -43 30 -71.5t85 -28.5q16 0 31.5 2t33 8t31 11t35 17.5t33.5 19.5t39 25.5t38 25.5t43 31t44 32q182 131 397 317l191 -215q-110 -104 -260 -221zM895 1104q0 43 -27.5 68.5t-74.5 25.5 q-57 0 -96.5 -42t-39.5 -114q0 -55 60 -143q53 29 82.5 48.5t62.5 63.5t33 93z" glyph-name="uniE650" horiz-adv-x="1427" unicode=""/><glyph d="M743 928l-170 -244q-59 29 -96 70q-88 -92 -88 -215q0 -115 79 -196t206 -81q129 0 226 97.5t97 230.5q0 35 -10 72l-51 -27q-78 -41 -78 -109q0 -27 14 -55l-215 -96q-47 80 -47 168q0 193 232 323l360 207q92 51 92 119q0 49 -34 90l233 158q100 -121 100 -250 q0 -119 -64.5 -197t-185.5 -143l-71 -39q37 -92 37 -203q0 -262 -191.5 -452.5t-462.5 -190.5q-260 0 -419.5 161t-159.5 388q0 158 75.5 296t215.5 230q6 174 134 299t312 125q152 0 253 -80.5t132 -203.5l-258 -103q-8 47 -42 79t-87 32q-57 0 -99 -41t-42 -103 q-1 -79 73 -116z" glyph-name="uniE651" horiz-adv-x="1542" unicode=""/><glyph d="M342 78l90 -43q-51 -35 -76.5 -53.5t-80 -63.5t-81 -86t-26.5 -80q0 -51 63 -51q23 0 48 6l6 -231q-57 -10 -86 -11q-121 0 -190.5 56.5t-69.5 148.5q0 72 35.5 135.5t104 115.5t125 85t138.5 72z" glyph-name="uniE700" horiz-adv-x="425" unicode=""/><glyph d="M53 -686l-88 115q137 100 162 176q-61 -2 -101 40t-40 99q0 66 51 113t117 47q74 0 119.5 -45t45.5 -125q0 -111 -71.5 -224.5t-194.5 -195.5z" glyph-name="uniF6C3" horiz-adv-x="385" unicode=""/><glyph d="M305 573l21 123q-88 31 -137.5 106t-49.5 167q0 129 82 230t213 124l21 111h184l-23 -127q141 -51 175 -211l-207 -64q-18 92 -101 92q-53 0 -87 -44t-34 -99q0 -45 26 -72.5t71 -27.5q78 0 119 94l200 -68q-92 -195 -272 -227l-19 -107h-182z" glyph-name="uniF6E0" horiz-adv-x="749" unicode=""/><glyph d="M276 485l23 131q-94 27 -145.5 83.5t-51.5 134.5v8l222 35v-5q0 -53 31.5 -72.5t88.5 -21.5q76 0 76 43q0 8 -3 15.5t-10 14.5t-13.5 12t-19.5 13.5t-22.5 13.5t-29 14t-29.5 16q-111 57 -167 112t-56 133q0 109 73.5 170.5t194.5 69.5l21 119h184l-27 -142 q176 -59 177 -233v-16h-224v6q0 88 -96 88q-68 0 -67 -43q0 -23 21.5 -39.5t72.5 -42.5q63 -33 100 -55.5t78 -56.5t59.5 -71.5t18.5 -82.5q0 -92 -66.5 -161t-210.5 -77l-20 -113h-183z" glyph-name="uniF6E4" horiz-adv-x="749" unicode=""/><glyph d="M1253 674q-12 -4 -17 -11.5t-2 -15.5t13 -14l51 -37q16 -10 14.5 -20.5t-20.5 -12.5l-61 -12q-18 -2 -21.5 -14.5t7.5 -24.5l43 -45q14 -12 11 -22.5t-24 -8.5l-63 2q-18 0 -24.5 -10t3.5 -27l33 -53q8 -16 3 -24.5t-21 -1.5l-62 14q-16 4 -25.5 -5t-3.5 -26l21 -59 q6 -16 -1 -23.5t-24 0.5l-57 27q-35 16 -35 -25l10 -61q2 -18 -6 -23.5t-22 4.5l-51 41q-14 10 -25.5 5t-13.5 -23l-2 -64q-6 -37 -33 -10l-41 49q-27 29 -41 -8l-18 -61q-4 -18 -14.5 -19.5t-18.5 15.5l-31 55q-20 37 -43 0l-27 -55q-6 -10 -13 -14.5t-13 0.5t-8 18l-19 61 q-12 39 -39 8l-43 -49q-27 -31 -30 10l-5 64q-4 41 -41 18l-49 -41q-14 -10 -22 -5t-4 24l8 61q2 18 -9.5 25.5t-27.5 -0.5l-55 -27q-16 -8 -23.5 -1t-1.5 24l21 59q6 16 -2.5 25.5t-24.5 5.5l-63 -14q-16 -6 -22.5 3t3.5 23l35 53q8 16 2 26.5t-23 10.5l-65 -2 q-18 -2 -22.5 8.5t8.5 22.5l47 45q12 12 7 24.5t-24 14.5l-61 12q-18 2 -20.5 12.5t14.5 20.5l51 37q10 6 12 10q18 10 33 -12l29 -53q6 -12 12 -15.5t11 0.5t9 17l17 57q6 20 18 23.5t23 -13.5l43 -47q10 -14 19 -10t11 22l5 62q8 43 40 16l50 -37q14 -12 22 -7t4 24l-6 61 q-2 18 7.5 25.5t25.5 -0.5l57 -27q16 -8 23.5 -1t-0.5 24l-19 61q-6 16 2.5 24.5t24.5 6.5l35 -10q51 -66 84 -194t33 -206q-12 -14 -42 -24.5t-56.5 -4t-26.5 32.5q0 35 -24 60.5t-64 25.5q-35 0 -60.5 -26.5t-25.5 -63.5q0 -51 43 -85t114 -34q141 0 277 115 q98 84 156.5 203t58.5 215q0 70 -32 108.5t-83 38.5q-43 0 -72.5 -30.5t-29.5 -73.5t29.5 -75t70.5 -32q-23 -115 -84 -196q0 119 -40 226.5t-109 152.5q-4 4 -5 8l-45 43q-29 29 13 41l63 10q10 2 15.5 7t3.5 12.5t-13 13.5l-53 37q-35 25 4 41l57 26q18 4 18.5 14.5 t-18.5 18.5l-57 25q-23 2 -18 24q12 6 14 15l31 55q4 10 11 14t13 -1t9 -15l18 -62q14 -41 41 -10l41 51q27 27 33 -12l2 -61q2 -20 13 -24.5t26 5.5l51 39q14 10 22.5 5t5.5 -23l-10 -62q0 -41 35 -24l57 28q16 8 23.5 1t1.5 -25l-21 -60q-6 -16 3.5 -25.5t25.5 -4.5l62 14 q16 6 21 -1t-3 -24l-33 -53q-20 -39 21 -39l63 4q20 2 23.5 -9t-10.5 -23l-43 -46q-10 -12 -7.5 -24t21.5 -14l61 -11q18 -4 20.5 -14t-14.5 -18l-51 -37q-10 -6 -13 -15.5t2 -16.5t17 -11l58 -23q31 -16 0 -35z" glyph-name="uniF8FF" horiz-adv-x="1335" unicode=""/></font>
</defs>
</svg>
