<?xml version="1.0" standalone="no"?>
<!DOCTYPE svg PUBLIC "-//W3C//DTD SVG 1.1//EN" "http://www.w3.org/Graphics/SVG/1.1/DTD/svg11.dtd">
<svg xmlns="http://www.w3.org/2000/svg"><metadata>This SVG WebFont was generated by YouWorkForThem.
Copyright (c) 2018 by Ryan Martinson. All rights reserved.</metadata><defs><font horiz-adv-x="1654" id="ywftsvg"><font-face ascent="1638" bbox="-471 -981 2765 1999" cap-height="1434" descent="-410" font-family="" font-stretch="normal" font-weight="525" panose-1="2 11 6 3 4 0 0 2 0 3" underline-position="0" underline-thickness="0" unicode-range="U+0020-FB04" units-per-em="2048" x-height="1024"/><missing-glyph d="M197 0l252 1434h817l-252 -1434h-817zM387 156h492l198 1122h-491z" horiz-adv-x="1390"/><glyph d="M109 842l30 182h185l18 100q61 348 350 349q129 0 248 -70l-76 -160q-74 45 -149 45q-66 0 -110 -39t-64 -147l-15 -78h332l-33 -182h-331l-160 -912q-59 -348 -348 -348q-133 0 -252 68l76 157q76 -41 153 -40q63 0 107.5 38.5t64.5 147.5l158 889h-184zM1063 1305 q0 57 43 98t102 41q51 0 86 -34t35 -85q0 -57 -43 -98t-102 -41q-51 0 -86 35t-35 84zM600 -369l64 170q37 -16 73 -16q88 0 113 129l194 1110h203l-200 -1143q-49 -281 -295 -280q-82 -1 -152 30z" glyph-name="uniE200" horiz-adv-x="1318" unicode="fj"/><glyph d="M109 842l30 182h185l18 100q61 348 350 349q147 0 273 -80l-78 -154q-92 49 -172 49q-66 0 -110 -39t-64 -147l-15 -78h320l-31 -182h-321l-160 -912q-59 -348 -348 -348q-133 0 -252 68l76 157q76 -41 153 -40q63 0 107.5 38.5t64.5 147.5l158 889h-184zM905 842l33 182 h172l18 100q61 348 351 349q129 0 247 -70l-75 -160q-74 45 -150 45q-66 0 -109.5 -39t-64.5 -147l-14 -78h332l-33 -182h-332l-160 -912q-59 -348 -348 -348q-133 0 -252 68l76 157q76 -41 154 -40q63 0 107 38.5t65 147.5l157 889h-174zM1849 1305q0 57 43 98t103 41 q51 0 86 -34t35 -85q0 -57 -43 -98t-103 -41q-51 0 -86 35t-35 84zM1386 -369l64 170q37 -16 74 -16q88 0 112 129l195 1110h203l-201 -1143q-49 -281 -295 -280q-82 -1 -152 30z" glyph-name="uniE201" horiz-adv-x="2105" unicode="ffj"/><glyph d="M109 842l30 182h185l18 100q61 348 350 349q129 0 248 -70l-76 -160q-74 45 -149 45q-66 0 -110 -39t-64 -147l-15 -78h332l-33 -182h-331l-160 -912q-59 -348 -348 -348q-133 0 -252 68l76 157q76 -41 153 -40q63 0 107.5 38.5t64.5 147.5l158 889h-184zM1317 1434 l-94 -539q133 152 329 152q199 0 312.5 -131.5t113.5 -327.5q0 -150 -60 -287t-183 -229t-279 -92q-260 0 -358 208l-33 -188h-201l252 1434h201zM1495 862q-147 0 -247.5 -119.5t-100.5 -281.5q0 -127 73.5 -212t200.5 -85q150 0 249 123t99 282q0 127 -72.5 210t-201.5 83 z" glyph-name="uniE202" horiz-adv-x="2080" unicode="fb"/><glyph d="M109 842l30 182h185l18 100q61 348 350 349q147 0 273 -80l-78 -154q-92 49 -172 49q-66 0 -110 -39t-64 -147l-15 -78h320l-31 -182h-321l-160 -912q-59 -348 -348 -348q-133 0 -252 68l76 157q76 -41 153 -40q63 0 107.5 38.5t64.5 147.5l158 889h-184zM905 842l33 182 h172l18 100q61 348 351 349q129 0 247 -70l-75 -160q-74 45 -150 45q-66 0 -109.5 -39t-64.5 -147l-14 -78h332l-33 -182h-332l-160 -912q-59 -348 -348 -348q-133 0 -252 68l76 157q76 -41 154 -40q63 0 107 38.5t65 147.5l157 889h-174zM2103 1434l-94 -539 q133 152 330 152q199 0 312.5 -131.5t113.5 -327.5q0 -150 -60.5 -287t-183.5 -229t-278 -92q-260 0 -359 208l-33 -188h-200l252 1434h200zM2281 862q-147 0 -247.5 -119.5t-100.5 -281.5q0 -127 74 -212t201 -85q150 0 249 123t99 282q0 127 -73 210t-202 83z" glyph-name="uniE203" horiz-adv-x="2867" unicode="ffb"/><glyph d="M109 842l30 182h185l18 100q61 348 350 349q129 0 248 -70l-76 -160q-74 45 -149 45q-66 0 -110 -39t-64 -147l-15 -78h332l-33 -182h-331l-160 -912q-59 -348 -348 -348q-133 0 -252 68l76 157q76 -41 153 -40q63 0 107.5 38.5t64.5 147.5l158 889h-184zM1579 0 l-217 422h-221l-74 -422h-203l252 1434h203l-148 -832h203l324 422h233l-397 -520l258 -504h-213z" glyph-name="uniE204" horiz-adv-x="1914" unicode="fk"/><glyph d="M109 842l30 182h185l18 100q61 348 350 349q147 0 273 -80l-78 -154q-92 49 -172 49q-66 0 -110 -39t-64 -147l-15 -78h320l-31 -182h-321l-160 -912q-59 -348 -348 -348q-133 0 -252 68l76 157q76 -41 153 -40q63 0 107.5 38.5t64.5 147.5l158 889h-184zM905 842l33 182 h172l18 100q61 348 351 349q129 0 247 -70l-75 -160q-74 45 -150 45q-66 0 -109.5 -39t-64.5 -147l-14 -78h332l-33 -182h-332l-160 -912q-59 -348 -348 -348q-133 0 -252 68l76 157q76 -41 154 -40q63 0 107 38.5t65 147.5l157 889h-174zM2365 0l-217 422h-221l-74 -422 h-202l252 1434h202l-147 -832h203l323 422h234l-398 -520l258 -504h-213z" glyph-name="uniE205" horiz-adv-x="2701" unicode="ffk"/><glyph d="M109 842l30 182h185l18 100q61 348 350 349q129 0 248 -70l-76 -160q-74 45 -149 45q-66 0 -110 -39t-64 -147l-15 -78h332l-33 -182h-331l-160 -912q-59 -348 -348 -348q-133 0 -252 68l76 157q76 -41 153 -40q63 0 107.5 38.5t64.5 147.5l158 889h-184zM1585 0l101 569 q8 57 8 88q0 209 -195 209q-125 0 -218 -86t-116 -221l-98 -559h-203l252 1434h203l-96 -549q135 162 346 162q156 0 245 -91.5t89 -257.5q0 -39 -13 -116l-102 -582h-203z" glyph-name="uniE206" horiz-adv-x="2025" unicode="fh"/><glyph d="M109 842l30 182h185l18 100q61 348 350 349q147 0 273 -80l-78 -154q-92 49 -172 49q-66 0 -110 -39t-64 -147l-15 -78h320l-31 -182h-321l-160 -912q-59 -348 -348 -348q-133 0 -252 68l76 157q76 -41 153 -40q63 0 107.5 38.5t64.5 147.5l158 889h-184zM905 842l33 182 h172l18 100q61 348 351 349q129 0 247 -70l-75 -160q-74 45 -150 45q-66 0 -109.5 -39t-64.5 -147l-14 -78h332l-33 -182h-332l-160 -912q-59 -348 -348 -348q-133 0 -252 68l76 157q76 -41 154 -40q63 0 107 38.5t65 147.5l157 889h-174zM2372 0l100 569q8 57 8 88 q0 209 -194 209q-125 0 -218.5 -86t-115.5 -221l-99 -559h-202l252 1434h202l-96 -549q135 162 346 162q156 0 245 -91.5t89 -257.5q0 -39 -12 -116l-103 -582h-202z" glyph-name="uniE207" horiz-adv-x="2811" unicode="ffh"/><glyph d="M109 842l30 182h185l18 100q61 348 350 349q129 0 248 -70l-76 -160q-74 45 -149 45q-66 0 -110 -39t-64 -147l-15 -78h320l-31 -182h-321l-160 -912q-59 -348 -348 -348q-133 0 -252 68l76 157q76 -41 153 -40q63 0 107.5 38.5t64.5 147.5l158 889h-184zM905 842l33 182 h174l51 293l215 67l-63 -360h354l-33 -182h-354l-82 -471q-8 -47 -8 -74q0 -135 137 -135q72 0 164 43l45 -168q-121 -57 -240 -57q-307 0 -307 292q0 59 13 136l75 434h-174z" glyph-name="uniE208" horiz-adv-x="1642" unicode="ft"/><glyph d="M109 842l30 182h185l18 100q61 348 350 349q147 0 273 -80l-78 -154q-92 49 -172 49q-66 0 -110 -39t-64 -147l-15 -78h320l-31 -182h-321l-160 -912q-59 -348 -348 -348q-133 0 -252 68l76 157q76 -41 153 -40q63 0 107.5 38.5t64.5 147.5l158 889h-184zM905 842l33 182 h172l18 100q61 348 351 349q129 0 247 -70l-75 -160q-74 45 -150 45q-66 0 -109.5 -39t-64.5 -147l-14 -78h321l-32 -182h-322l-160 -912q-59 -348 -348 -348q-133 0 -252 68l76 157q76 -41 154 -40q63 0 107 38.5t65 147.5l157 889h-174zM1692 842l32 182h174l52 293 l215 67l-64 -360h355l-33 -182h-355l-81 -471q-8 -47 -9 -74q0 -135 138 -135q72 0 163 43l45 -168q-121 -57 -239 -57q-307 0 -307 292q0 59 12 136l76 434h-174z" glyph-name="uniE209" horiz-adv-x="2426" unicode="fft"/><glyph d="M96 842l33 182h184l52 293l215 67l-64 -360h348l-33 -182h-348l-82 -471q-8 -47 -8 -74q0 -135 137 -135q72 0 164 43l45 -168q-121 -57 -239 -57q-307 0 -307 292q0 59 12 136l76 434h-185zM930 842l33 182h172l51 293l215 67l-64 -360h355l-33 -182h-354l-82 -471 q-8 -47 -9 -74q0 -135 138 -135q72 0 164 43l45 -168q-121 -57 -240 -57q-307 0 -307 292q0 59 12 136l76 434h-172z" glyph-name="uniE210" horiz-adv-x="1665" unicode="tt"/><glyph d="M109 842l30 182h185l18 100q61 348 350 349q147 0 273 -80l-78 -154q-92 49 -172 49q-66 0 -110 -39t-64 -147l-15 -78h320l-31 -182h-321l-160 -912q-59 -348 -348 -348q-133 0 -252 68l76 157q76 -41 153 -40q63 0 107.5 38.5t64.5 147.5l158 889h-184zM905 842l33 182 h172l18 100q61 348 351 349q147 0 272 -80l-78 -154q-92 49 -172 49q-66 0 -109.5 -39t-64.5 -147l-14 -78h332l-33 -182h-332l-160 -912q-59 -348 -348 -348q-133 0 -252 68l76 157q76 -41 154 -40q63 0 107 38.5t65 147.5l157 889h-174z" glyph-name="uniFB00" horiz-adv-x="1589" unicode="ff"/><glyph d="M109 842l30 182h185l18 100q61 348 350 349q129 0 248 -70l-76 -160q-74 45 -149 45q-66 0 -110 -39t-64 -147l-15 -78h332l-33 -182h-331l-160 -912q-59 -348 -348 -348q-133 0 -252 68l76 157q76 -41 153 -40q63 0 107.5 38.5t64.5 147.5l158 889h-184zM1065 1305 q0 57 42 98t101 41q51 0 86 -34t35 -85q0 -57 -42 -98t-101 -41q-51 0 -86 35t-35 84zM864 0l180 1024h203l-180 -1024h-203z" glyph-name="uniFB01" horiz-adv-x="1318" unicode="fi"/><glyph d="M109 842l30 182h185l18 100q61 348 350 349q129 0 248 -70l-76 -160q-74 45 -149 45q-66 0 -110 -39t-64 -147l-15 -78h332l-33 -182h-331l-160 -912q-59 -348 -348 -348q-133 0 -252 68l76 157q76 -41 153 -40q63 0 107.5 38.5t64.5 147.5l158 889h-184zM864 0l252 1434 h203l-252 -1434h-203z" glyph-name="uniFB02" horiz-adv-x="1318" unicode="fl"/><glyph d="M109 842l30 182h185l18 100q61 348 350 349q147 0 273 -80l-78 -154q-92 49 -172 49q-66 0 -110 -39t-64 -147l-15 -78h320l-31 -182h-321l-160 -912q-59 -348 -348 -348q-133 0 -252 68l76 157q76 -41 153 -40q63 0 107.5 38.5t64.5 147.5l158 889h-184zM905 842l33 182 h172l18 100q61 348 351 349q129 0 247 -70l-75 -160q-74 45 -150 45q-66 0 -109.5 -39t-64.5 -147l-14 -78h332l-33 -182h-332l-160 -912q-59 -348 -348 -348q-133 0 -252 68l76 157q76 -41 154 -40q63 0 107 38.5t65 147.5l157 889h-174zM1851 1305q0 57 42 98t102 41 q51 0 86 -34t35 -85q0 -57 -42 -98t-102 -41q-51 0 -86 35t-35 84zM1651 0l180 1024h203l-181 -1024h-202z" glyph-name="uniFB03" horiz-adv-x="2105" unicode="ffi"/><glyph d="M109 842l30 182h185l18 100q61 348 350 349q147 0 273 -80l-78 -154q-92 49 -172 49q-66 0 -110 -39t-64 -147l-15 -78h320l-31 -182h-321l-160 -912q-59 -348 -348 -348q-133 0 -252 68l76 157q76 -41 153 -40q63 0 107.5 38.5t64.5 147.5l158 889h-184zM905 842l33 182 h172l18 100q61 348 351 349q129 0 247 -70l-75 -160q-74 45 -150 45q-66 0 -109.5 -39t-64.5 -147l-14 -78h332l-33 -182h-332l-160 -912q-59 -348 -348 -348q-133 0 -252 68l76 157q76 -41 154 -40q63 0 107 38.5t65 147.5l157 889h-174zM1651 0l252 1434h202l-252 -1434 h-202z" glyph-name="uniFB04" horiz-adv-x="2105" unicode="ffl"/><glyph d="M197 0l252 1434h817l-252 -1434h-817zM387 156h492l198 1122h-491z" glyph-name=".notdef" horiz-adv-x="1390"/><glyph glyph-name="glyph1" horiz-adv-x="0"/><glyph glyph-name="glyph2" horiz-adv-x="681"/><glyph glyph-name="space" horiz-adv-x="520" unicode=" "/><glyph d="M332 1434h235l-221 -996h-143zM86 96q0 57 42 98.5t99 41.5q51 0 85 -35t34 -84q0 -57 -42 -97t-99 -40q-51 0 -85 33.5t-34 82.5z" glyph-name="exclam" horiz-adv-x="575" unicode="!"/><glyph d="M387 823h-170l86 611h211zM803 823h-170l86 611h211z" glyph-name="quotedbl" horiz-adv-x="915" unicode="&quot;"/><glyph d="M242 893l30 178h242l125 363h182l-125 -363h322l123 363h182l-125 -363h213l-31 -178h-241l-121 -352h215l-31 -179h-244l-122 -362h-181l123 362h-321l-123 -362h-182l122 362h-211l33 179h238l121 352h-213zM637 893l-121 -352h322l118 352h-319z" glyph-name="numbersign" horiz-adv-x="1402" unicode="#"/><glyph d="M362 -172l39 231q-150 35 -235.5 124t-85.5 216v23l201 41v-29q0 -102 75.5 -157.5t206.5 -55.5q109 0 185.5 44t76.5 143q0 25 -6 46t-25.5 40.5t-31.5 33t-46 32t-47.5 26.5t-58.5 28.5t-55 26.5q-162 80 -252 170t-90 221q0 166 119 263.5t305 101.5l39 211h184 l-41 -230q295 -78 295 -397v-12h-201v8q0 74 -26.5 124t-70.5 73.5t-82 33t-77 9.5q-106 0 -172.5 -48.5t-66.5 -132.5q0 -41 17.5 -73.5t60.5 -62.5t71.5 -45t91.5 -46q184 -88 277.5 -175t93.5 -220q0 -176 -123 -271.5t-323 -99.5l-37 -215h-185z" glyph-name="dollar" horiz-adv-x="1153" unicode="$"/><glyph d="M352 0h-221l1286 1434h221zM182 1081q0 154 112 263.5t257 109.5q141 0 230 -91t89 -222q0 -154 -111.5 -263.5t-256.5 -109.5q-141 0 -230.5 91t-89.5 222zM543 1284q-78 0 -132.5 -57.5t-54.5 -136.5q0 -66 42 -109t112 -43q78 0 132 57.5t54 137.5q0 66 -41.5 108.5 t-111.5 42.5zM901 293q0 154 111.5 263.5t257.5 109.5q141 0 230 -91.5t89 -222.5q0 -154 -111.5 -263t-256.5 -109q-141 0 -230.5 91t-89.5 222zM1262 496q-78 0 -132.5 -57.5t-54.5 -137.5q0 -66 42 -108.5t112 -42.5q78 0 132 57t54 137q0 66 -41.5 109t-111.5 43z" glyph-name="percent" horiz-adv-x="1699" unicode="%"/><glyph d="M1231 0h-252l-113 172q-254 -193 -452 -192q-168 0 -262.5 85t-94.5 216q0 162 117 276.5t307 206.5q-98 164 -98 299q0 166 113.5 279.5t283.5 113.5q154 0 245 -88t91 -215q0 -244 -354 -442l166 -252q92 86 241 252l131 -127q-143 -164 -272 -279zM432 158 q131 0 336 166l-190 290q-6 -4 -41 -21.5t-51.5 -26.5t-51.5 -29.5t-53.5 -36t-45 -39t-39.5 -46t-23.5 -50t-10.5 -56.5q0 -63 44 -107t126 -44zM772 1278q-80 0 -135 -59.5t-55 -143.5q0 -86 84 -219q4 2 29.5 16.5t34.5 19.5t33.5 20.5t35 24.5t31 25.5t30.5 29 t24.5 30.5t21.5 34.5t12.5 37t5.5 41.5q0 63 -40 103t-112 40z" glyph-name="ampersand" horiz-adv-x="1353" unicode="&amp;"/><glyph d="M387 823h-170l86 611h211z" glyph-name="quotesingle" horiz-adv-x="497" unicode="'"/><glyph d="M575 1499l148 -119q-201 -236 -310.5 -532.5t-109.5 -611.5q0 -305 119 -580l-182 -88q-147 311 -148 674q0 346 121.5 667.5t361.5 589.5z" glyph-name="parenleft" horiz-adv-x="638" unicode="("/><glyph d="M72 -432l-148 119q201 236 310.5 532.5t109.5 611.5q0 305 -119 580l183 88q147 -311 147 -674q0 -346 -121.5 -667.5t-361.5 -589.5z" glyph-name="parenright" horiz-adv-x="638" unicode=")"/><glyph d="M729 1423l-72 -297l289 91l23 -166l-295 -45l151 -246l-153 -88l-111 266l-201 -238l-116 113l231 209l-272 98l80 156l249 -139l29 303z" glyph-name="asterisk" horiz-adv-x="976" unicode="*"/><glyph d="M141 762h293l58 319h182l-58 -319h297l-32 -182h-297l-56 -322h-182l55 322h-292z" glyph-name="plus" horiz-adv-x="968" unicode="+"/><glyph d="M104 -377l-84 94q180 143 195 271q-61 -16 -106.5 20.5t-45.5 91.5q0 59 46.5 102.5t107.5 43.5q66 0 110 -48t44 -132q0 -117 -77 -239t-190 -204z" glyph-name="comma" horiz-adv-x="548" unicode=","/><glyph d="M756 690l-33 -184h-578l33 184h578z" glyph-name="hyphen" horiz-adv-x="874" unicode="-"/><glyph d="M59 102q0 61 44 103.5t106 42.5q53 0 89 -36t36 -87q0 -59 -45 -102t-105 -43q-53 0 -89 35.5t-36 86.5z" glyph-name="period" horiz-adv-x="518" unicode="."/><glyph d="M850 1434h211l-862 -1434h-213z" glyph-name="slash" horiz-adv-x="976" unicode="/"/><glyph d="M143 553q0 141 40 292.5t115 291t202 228.5t284 89q236 0 354.5 -162t118.5 -411q0 -111 -23.5 -232t-75.5 -240.5t-124.5 -215t-181.5 -154.5t-236 -59q-236 0 -354.5 161.5t-118.5 411.5zM776 1260q-133 0 -233.5 -123t-143.5 -280t-43 -304q0 -172 70 -275.5 t199 -103.5q133 0 233 123t143 279.5t43 304.5q0 172 -69.5 275.5t-198.5 103.5z" glyph-name="zero" horiz-adv-x="1329" unicode="0"/><glyph d="M158 1016l43 233l356 185h166l-252 -1434h-205l207 1176z" glyph-name="one" horiz-adv-x="761" unicode="1"/><glyph d="M1004 195l-33 -195h-944l26 160q418 289 633 489q68 63 113 112.5t89 132.5t44 159q0 92 -60.5 150.5t-169.5 58.5q-113 0 -194.5 -73t-101.5 -239h-203q29 258 176 381t340 123q188 0 308 -108.5t120 -276.5q0 -256 -320 -551q-147 -139 -407 -323h584z" glyph-name="two" horiz-adv-x="1177" unicode="2"/><glyph d="M18 156l119 163q205 -147 402 -147q123 0 199.5 60.5t76.5 160.5q0 104 -104.5 172t-290.5 68l35 190q188 -4 314 64.5t126 195.5q0 82 -62.5 131.5t-164.5 49.5q-104 0 -174 -55.5t-74 -143.5h-203q8 180 141.5 284.5t321.5 104.5q186 0 308 -99.5t122 -252.5 q0 -141 -85 -241.5t-234 -141.5q238 -106 237 -322q0 -174 -132 -295.5t-368 -121.5q-272 0 -510 176z" glyph-name="three" horiz-adv-x="1171" unicode="3"/><glyph d="M858 0h-205l54 301h-666l27 150l534 983h236l-525 -942h428l82 458l213 64l-92 -522h207l-35 -191h-205z" glyph-name="four" horiz-adv-x="1222" unicode="4"/><glyph d="M362 1434h768l-32 -195h-566l-65 -371q295 -4 436 -125.5t141 -304.5q0 -193 -129 -325.5t-374 -132.5q-274 0 -514 176l118 163q207 -147 402 -147q127 0 203.5 65.5t76.5 188.5q0 109 -99 180.5t-327 71.5h-172z" glyph-name="five" horiz-adv-x="1163" unicode="5"/><glyph d="M1085 1434l-454 -469q25 4 53 4q190 0 305 -125t115 -307q0 -229 -156.5 -393t-388.5 -164q-209 0 -334 132t-125 320q0 135 60.5 250t183.5 248l465 504h276zM633 793q-135 0 -229.5 -106.5t-94.5 -246.5q0 -115 71 -191.5t189 -76.5q135 0 230.5 104.5t95.5 247.5 q0 115 -70.5 192t-191.5 77z" glyph-name="six" horiz-adv-x="1200" unicode="6"/><glyph d="M188 1239l35 195h897l-28 -164l-779 -1270h-252l777 1239h-650z" glyph-name="seven" horiz-adv-x="1024" unicode="7"/><glyph d="M1112 432q0 -201 -144.5 -326.5t-367.5 -125.5q-229 0 -367.5 112.5t-138.5 286.5q0 143 87 257t227 155q-133 96 -134 253q0 178 133.5 294t329.5 116q201 0 325 -102.5t124 -259.5q0 -121 -65.5 -217.5t-182.5 -139.5q174 -104 174 -303zM604 164q125 0 213 72.5 t88 197.5q0 104 -78.5 172t-212.5 68q-129 0 -217 -76t-88 -201q0 -100 79 -166.5t216 -66.5zM719 844q117 0 188.5 67.5t71.5 163.5q0 84 -65.5 140.5t-180.5 56.5q-113 0 -184.5 -66.5t-71.5 -158.5q0 -86 68 -144.5t174 -58.5z" glyph-name="eight" horiz-adv-x="1251" unicode="8"/><glyph d="M186 0l455 469q-25 -4 -53 -4q-190 0 -305 125t-115 307q0 229 156.5 393t388.5 164q209 0 333.5 -132t124.5 -321q0 -135 -60 -249.5t-183 -247.5l-465 -504h-277zM639 641q135 0 229.5 106.5t94.5 245.5q0 115 -71 192t-190 77q-135 0 -230 -104.5t-95 -248.5 q0 -115 70.5 -191.5t191.5 -76.5z" glyph-name="nine" horiz-adv-x="1198" unicode="9"/><glyph d="M70 102q0 61 44 103.5t105 42.5q53 0 89 -36t36 -87q0 -59 -45 -102t-104 -43q-53 0 -89 35.5t-36 86.5zM207 877q0 61 44 103t105 42q53 0 89 -36t36 -87q0 -59 -45 -102t-104 -43q-53 0 -89 36t-36 87z" glyph-name="colon" horiz-adv-x="555" unicode=":"/><glyph d="M121 -377l-84 94q180 143 194 271q-61 -16 -106 20.5t-45 91.5q0 59 46 102.5t107 43.5q66 0 110 -48t44 -132q0 -117 -76.5 -239t-189.5 -204zM217 877q0 61 44 103t106 42q53 0 89 -36t36 -87q0 -59 -45.5 -102t-104.5 -43q-53 0 -89 36t-36 87z" glyph-name="semicolon" horiz-adv-x="606" unicode=";"/><glyph d="M96 586l31 174l838 381l-39 -223l-588 -256l496 -259l-35 -198z" glyph-name="less" horiz-adv-x="1003" unicode="&lt;"/><glyph d="M209 805l33 182h772l-31 -182h-774zM131 358l33 181h772l-33 -181h-772z" glyph-name="equal" horiz-adv-x="1093" unicode="="/><glyph d="M963 758l-31 -174l-838 -381l39 223l588 256l-496 258l35 199z" glyph-name="greater" horiz-adv-x="1003" unicode=">"/><glyph d="M547 432h-193l15 82q18 106 78.5 175t173.5 140q6 4 41.5 27t47 31t41 29.5t41 37t28 39t22.5 48t6 51.5q0 78 -57.5 128t-153.5 50q-104 0 -181 -66.5t-85 -183.5h-201q12 147 87 250.5t175 146.5t219 43q186 0 297 -98t111 -254q0 -141 -70.5 -229t-220.5 -181 q-8 -4 -32.5 -19t-32 -19.5t-28 -17.5t-26.5 -19.5t-21.5 -18.5t-21.5 -20.5t-17 -20.5t-15.5 -23.5t-10.5 -25.5t-8 -31zM262 96q0 59 43 99.5t101 40.5q49 0 83.5 -34t34.5 -83q0 -59 -43 -99t-100 -40q-49 0 -84 34.5t-35 81.5z" glyph-name="question" horiz-adv-x="1050" unicode="?"/><glyph d="M895 920q164 0 246 -127l20 110h162l-84 -481q-8 -43 -8 -86q0 -152 115 -152q98 0 166.5 136.5t68.5 312.5q0 258 -165 430t-449 172q-295 0 -512 -227.5t-217 -554.5q0 -262 164.5 -440.5t447.5 -178.5q188 0 352 100l53 -98q-188 -115 -411 -115q-336 0 -534.5 210 t-198.5 520q0 240 114.5 447.5t312 331.5t431.5 124q340 0 539.5 -209t199.5 -514q0 -240 -108.5 -402.5t-272.5 -162.5q-94 0 -159.5 50t-86.5 148q-102 -113 -250 -112q-152 0 -237.5 94t-85.5 235q0 178 111.5 308.5t275.5 130.5zM864 289q100 0 169 84t69 194 q0 90 -50.5 148.5t-138.5 58.5q-100 0 -169.5 -85t-69.5 -195q0 -88 50 -146.5t140 -58.5z" glyph-name="at" horiz-adv-x="1812" unicode="@"/><glyph d="M780 1434h228l342 -1434h-215l-66 289h-733l-166 -289h-236zM862 1198l-418 -721h582z" glyph-name="A" horiz-adv-x="1464" unicode="A"/><glyph d="M111 0l251 1434h615q199 0 300 -96.5t101 -241.5q0 -125 -62.5 -226.5t-178.5 -148.5q190 -92 190 -297q0 -176 -123 -300t-358 -124h-735zM897 637h-471l-78 -451h492q121 0 198.5 68t77.5 178q0 86 -56.5 145.5t-162.5 59.5zM948 1247h-413l-76 -426h487q92 0 156.5 75 t64.5 169q0 82 -54 132t-165 50z" glyph-name="B" horiz-adv-x="1466" unicode="B"/><glyph d="M1290 502l197 -64q-96 -217 -284.5 -337.5t-405.5 -120.5q-299 0 -476.5 188t-177.5 467q0 332 225.5 575.5t549.5 243.5q246 0 409.5 -132t216.5 -343l-205 -59q-39 152 -151.5 246t-280.5 94q-231 0 -391 -184.5t-160 -428.5q0 -201 122 -337t329 -136q150 0 280.5 87 t202.5 241z" glyph-name="C" horiz-adv-x="1566" unicode="C"/><glyph d="M111 0l251 1434h484q305 0 463.5 -167t158.5 -436q0 -162 -48 -309t-139 -265t-238.5 -187.5t-329.5 -69.5h-602zM805 1241h-273l-182 -1048h369q256 0 396 181t140 445q0 193 -109.5 307.5t-340.5 114.5z" glyph-name="D" horiz-adv-x="1542" unicode="D"/><glyph d="M111 0l251 1434h998l-33 -193h-795l-73 -426h647l-33 -192h-649l-76 -430h795l-35 -193h-997z" glyph-name="E" horiz-adv-x="1304" unicode="E"/><glyph d="M111 0l251 1434h963l-35 -195h-758l-86 -494h687l-35 -194h-686l-97 -551h-204z" glyph-name="F" horiz-adv-x="1255" unicode="F"/><glyph d="M801 584l35 188h667l-137 -772h-180l33 195q-160 -215 -449 -215q-291 0 -458 186t-167 461q0 342 224.5 584.5t552.5 242.5q205 0 354 -93t227 -253l-186 -98q-55 115 -158.5 182.5t-247.5 67.5q-227 0 -390 -180.5t-163 -442.5q0 -199 115 -331t320 -132 q168 0 294.5 106.5t186.5 303.5h-473z" glyph-name="G" horiz-adv-x="1591" unicode="G"/><glyph d="M1370 1434h205l-252 -1434h-205l109 621h-803l-109 -621h-204l251 1434h205l-108 -621h803z" glyph-name="H" horiz-adv-x="1613" unicode="H"/><glyph d="M362 1434h205l-252 -1434h-204z" glyph-name="I" horiz-adv-x="608" unicode="I"/><glyph d="M436 1239l35 195h823l-172 -977q-39 -217 -187.5 -347t-354.5 -130q-244 0 -372 132t-128 332q0 47 10 105l25 139h204l-22 -127q-8 -43 -8 -94q0 -135 74.5 -214t220.5 -79q131 0 223 85t119 243l129 737h-619z" glyph-name="J" horiz-adv-x="1316" unicode="J"/><glyph d="M1065 0l-305 621h-336l-109 -621h-204l251 1434h205l-108 -621h299l491 621h254l-565 -713l354 -721h-227z" glyph-name="K" horiz-adv-x="1409" unicode="K"/><glyph d="M362 1434h205l-217 -1239h748l-35 -195h-952z" glyph-name="L" horiz-adv-x="1200" unicode="L"/><glyph d="M315 0h-204l251 1434h209l338 -967l701 967h209l-252 -1434h-205l182 1036l-586 -813h-161l-295 838z" glyph-name="M" horiz-adv-x="1859" unicode="M"/><glyph d="M315 0h-204l251 1434h209l609 -1131l198 1131h205l-252 -1434h-207l-610 1126z" glyph-name="N" horiz-adv-x="1622" unicode="N"/><glyph d="M145 639q0 330 223.5 572.5t555.5 242.5q301 0 479 -190.5t178 -468.5q0 -330 -223 -572.5t-555 -242.5q-301 0 -479.5 190t-178.5 469zM911 1260q-231 0 -393 -183.5t-162 -427.5q0 -201 124 -338t333 -137q231 0 394 183.5t163 426.5q0 201 -124 338.5t-335 137.5z" glyph-name="O" unicode="O"/><glyph d="M111 0l251 1434h510q244 0 375 -132.5t131 -326.5q0 -104 -35.5 -203.5t-104.5 -183.5t-185.5 -135.5t-261.5 -51.5h-406l-70 -401h-204zM420 594h344q211 0 307 108.5t96 266.5q0 125 -84 198.5t-262 73.5h-289z" glyph-name="P" horiz-adv-x="1396" unicode="P"/><glyph d="M145 639q0 330 223.5 572.5t555.5 242.5q301 0 479 -190.5t178 -468.5q0 -268 -151.5 -486.5t-407.5 -296.5q172 -199 358 -198q82 0 176 53l70 -178q-113 -70 -258 -70q-307 0 -590 361q-289 8 -461 197.5t-172 461.5zM911 1260q-231 0 -393 -183.5t-162 -427.5 q0 -201 124 -338t333 -137q231 0 394 183.5t163 426.5q0 201 -124 338.5t-335 137.5z" glyph-name="Q" unicode="Q"/><glyph d="M111 0l251 1434h558q229 0 347.5 -120t118.5 -302q0 -168 -95 -310.5t-263 -195.5l254 -506h-227l-236 477h-420l-84 -477h-204zM432 670h377q188 0 275 96t87 233q0 109 -72.5 175.5t-226.5 66.5h-340z" glyph-name="R" horiz-adv-x="1452" unicode="R"/><glyph d="M88 410l205 39v-31q0 -131 108.5 -192.5t274.5 -61.5q141 0 219 55t78 143q0 23 -5 43.5t-19.5 39t-27 33t-37 31.5t-41 27.5t-49 26t-48 22.5t-53.5 23.5t-50 22.5q-92 41 -153.5 74.5t-128 87t-100.5 120t-34 148.5q0 174 132.5 283.5t373.5 109.5q244 0 392.5 -114.5 t148.5 -333.5v-21h-205v10q0 137 -92 205t-254 68q-135 0 -208 -57.5t-73 -143.5q0 -45 22.5 -83t73 -71.5t91.5 -53t116 -54.5q84 -37 133.5 -61.5t116 -66.5t103.5 -82t63.5 -98.5t26.5 -123.5q0 -178 -134 -285.5t-386 -107.5q-238 0 -409 102t-171 297v31z" glyph-name="S" horiz-adv-x="1325" unicode="S"/><glyph d="M180 1239l35 195h1147l-35 -195h-471l-217 -1239h-205l217 1239h-471z" glyph-name="T" horiz-adv-x="1253" unicode="T"/><glyph d="M1341 1434h205l-162 -922q-43 -246 -213 -389t-415 -143q-279 0 -424.5 146t-145.5 374q0 66 13 129l141 805h205l-142 -807q-10 -61 -10 -109q0 -160 94.5 -252t278.5 -92q162 0 274.5 95.5t145.5 279.5z" glyph-name="U" horiz-adv-x="1566" unicode="U"/><glyph d="M743 0h-235l-320 1434h220l254 -1178l663 1178h238z" glyph-name="V" horiz-adv-x="1429" unicode="V"/><glyph d="M629 0h-244l-158 1434h213l119 -1133l535 1133h223l127 -1125l512 1125h231l-661 -1434h-238l-129 1126z" glyph-name="W" horiz-adv-x="2086" unicode="W"/><glyph d="M1495 1434l-618 -717l383 -717h-240l-297 575l-500 -575h-280l637 719l-369 715h242l280 -584l486 584h276z" glyph-name="X" horiz-adv-x="1382" unicode="X"/><glyph d="M418 1434l305 -705l553 705h266l-739 -926l-88 -508h-205l88 508l-414 926h234z" glyph-name="Y" horiz-adv-x="1402" unicode="Y"/><glyph d="M236 1239l34 195h1090l-29 -172l-1014 -1067h826l-35 -195h-1114l29 172l1013 1067h-800z" glyph-name="Z" horiz-adv-x="1294" unicode="Z"/><glyph d="M565 -178l-33 -189h-497l317 1801h498l-33 -189h-295l-252 -1423h295z" glyph-name="bracketleft" horiz-adv-x="759" unicode="["/><glyph d="M221 1434h189l372 -1434h-188z" glyph-name="backslash" horiz-adv-x="929" unicode="\"/><glyph d="M201 1245l32 189h498l-317 -1801h-498l33 189h295l252 1423h-295z" glyph-name="bracketright" horiz-adv-x="757" unicode="]"/><glyph d="M592 1434h176l197 -721h-193l-119 495l-295 -495h-219z" glyph-name="asciicircum" horiz-adv-x="1026" unicode="^"/><glyph d="M850 -158l-31 -178h-969l31 178h969z" glyph-name="underscore" horiz-adv-x="968" unicode="_"/><glyph d="M698 1583l-161 -53l-211 319l176 111z" glyph-name="grave" horiz-adv-x="575" unicode="`"/><glyph d="M834 0l22 131q-133 -152 -330 -151q-199 0 -312.5 131t-113.5 327q0 150 60.5 287t183.5 229.5t279 92.5q260 0 358 -209l33 186h200l-180 -1024h-200zM584 164q147 0 247.5 119.5t100.5 281.5q0 127 -74 212t-201 85q-150 0 -249 -123t-99 -282q0 -127 73 -210t202 -83z " glyph-name="a" horiz-adv-x="1286" unicode="a"/><glyph d="M522 1434l-94 -539q133 152 330 152q199 0 312.5 -131.5t113.5 -327.5q0 -150 -60.5 -287t-183.5 -229t-278 -92q-260 0 -359 208l-33 -188h-200l252 1434h200zM700 862q-147 0 -247.5 -119.5t-100.5 -281.5q0 -127 74 -212t201 -85q150 0 249 123t99 282q0 127 -73 210 t-202 83z" glyph-name="b" horiz-adv-x="1286" unicode="b"/><glyph d="M885 377l184 -62q-70 -158 -206 -246.5t-294 -88.5q-215 0 -342 137t-127 338q0 238 159 415t398 177q176 0 294 -95.5t157 -249.5l-193 -57q-23 98 -90 157.5t-176 59.5q-145 0 -244.5 -123t-99.5 -278q0 -127 73 -212t202 -85q94 0 177 56.5t128 156.5z" glyph-name="c" horiz-adv-x="1171" unicode="c"/><glyph d="M834 0l22 131q-133 -152 -330 -151q-199 0 -312.5 131t-113.5 327q0 150 60.5 287t183.5 229.5t279 92.5q260 0 358 -209l104 596h201l-252 -1434h-200zM584 164q147 0 247.5 119.5t100.5 281.5q0 127 -74 212t-201 85q-150 0 -249 -123t-99 -282q0 -127 73 -210t202 -83 z" glyph-name="d" horiz-adv-x="1286" unicode="d"/><glyph d="M889 276l98 -147q-160 -150 -403 -149q-229 0 -356.5 134t-127.5 335q0 252 167 425t421 173q178 0 285.5 -87.5t107.5 -211.5q0 -154 -158.5 -256.5t-471.5 -102.5h-142q18 -104 89 -166.5t194 -62.5q164 -1 297 116zM692 866q-145 0 -246.5 -84t-132.5 -231h129 q221 0 326.5 52t105.5 136q0 57 -50 92t-132 35z" glyph-name="e" horiz-adv-x="1155" unicode="e"/><glyph d="M109 842l30 182h185l18 100q61 348 350 349q147 0 273 -80l-78 -154q-92 49 -172 49q-66 0 -110 -39t-64 -147l-15 -78h332l-33 -182h-331l-160 -912q-59 -348 -348 -348q-133 0 -252 68l76 157q76 -41 153 -40q63 0 107.5 38.5t64.5 147.5l158 889h-184z" glyph-name="f" horiz-adv-x="802" unicode="f"/><glyph d="M106 467q0 229 140.5 404.5t357.5 175.5q244 0 348 -197l31 174h203l-160 -907q-51 -287 -190.5 -403.5t-319.5 -116.5q-297 0 -496 229l136 143q172 -190 356 -190q252 0 309 325l13 70q-127 -139 -310 -139q-199 0 -308.5 123t-109.5 309zM641 862 q-137 0 -232.5 -108.5t-95.5 -257.5q0 -121 71 -200t194 -79q137 0 233 107.5t96 255.5q0 119 -71.5 200.5t-194.5 81.5z" glyph-name="g" horiz-adv-x="1257" unicode="g"/><glyph d="M791 0l100 569q8 57 8 88q0 209 -194 209q-125 0 -218.5 -86t-115.5 -221l-99 -559h-202l252 1434h202l-96 -549q135 162 346 162q156 0 245 -91.5t89 -257.5q0 -39 -12 -116l-103 -582h-202z" glyph-name="h" horiz-adv-x="1230" unicode="h"/><glyph d="M270 1305q0 57 42 98t102 41q51 0 86 -34t35 -85q0 -57 -42 -98t-102 -41q-51 0 -86 35t-35 84zM70 0l180 1024h203l-181 -1024h-202z" glyph-name="i" horiz-adv-x="524" unicode="i"/><glyph d="M283 1305q0 57 43 98t102 41q51 0 86 -34t35 -85q0 -57 -43 -98t-103 -41q-51 0 -85.5 35t-34.5 84zM-180 -369l63 170q37 -16 74 -16q88 0 113 129l194 1110h203l-201 -1143q-49 -281 -295 -280q-81 -1 -151 30z" glyph-name="j" horiz-adv-x="538" unicode="j"/><glyph d="M784 0l-217 422h-221l-74 -422h-202l252 1434h202l-147 -832h203l323 422h234l-398 -520l258 -504h-213z" glyph-name="k" horiz-adv-x="1120" unicode="k"/><glyph d="M70 0l252 1434h202l-252 -1434h-202z" glyph-name="l" horiz-adv-x="524" unicode="l"/><glyph d="M1399 0l106 604q6 31 6 78q0 184 -176 184q-111 0 -191.5 -75.5t-99.5 -184.5l-106 -606h-203l107 606q8 53 8 78q0 92 -48 137t-130 45q-113 0 -194 -77.5t-101 -192.5l-105 -596h-202l180 1024h203l-25 -143q121 166 324 166q109 0 183.5 -51.5t102.5 -145.5 q127 197 363 197q150 0 234.5 -84t84.5 -236q0 -45 -10 -111l-108 -616h-203z" glyph-name="m" horiz-adv-x="1841" unicode="m"/><glyph d="M791 0l100 569q8 57 8 88q0 209 -194 209q-125 0 -218.5 -86t-115.5 -221l-99 -559h-202l180 1024h203l-25 -139q135 162 346 162q156 0 245 -91.5t89 -257.5q0 -39 -12 -116l-103 -582h-202z" glyph-name="n" horiz-adv-x="1230" unicode="n"/><glyph d="M100 459q0 236 163 412t403 176q219 0 349 -138.5t130 -341.5q0 -236 -163 -411.5t-402 -175.5q-219 0 -349.5 138t-130.5 341zM657 862q-147 0 -249.5 -120.5t-102.5 -278.5q0 -129 75 -214t208 -85q147 0 249.5 121t102.5 278q0 129 -75 214t-208 85z" glyph-name="o" horiz-adv-x="1245" unicode="o"/><glyph d="M453 1024l-23 -129q133 152 330 152q199 0 312.5 -131.5t113.5 -327.5q0 -150 -60.5 -287t-183.5 -229t-278 -92q-260 0 -359 208l-98 -555h-201l246 1391h201zM702 862q-147 0 -247.5 -119.5t-100.5 -281.5q0 -127 74 -212t201 -85q150 0 249 123t99 282q0 127 -73 210 t-202 83z" glyph-name="p" horiz-adv-x="1286" unicode="p"/><glyph d="M770 -367l86 498q-133 -152 -330 -151q-199 0 -312.5 131t-113.5 327q0 150 60.5 287t183.5 229.5t279 92.5q260 0 358 -209l33 186h200l-243 -1391h-201zM584 164q147 0 247.5 119.5t100.5 281.5q0 127 -74 212t-201 85q-150 0 -249 -123t-99 -282q0 -127 73 -210 t202 -83z" glyph-name="q" horiz-adv-x="1286" unicode="q"/><glyph d="M455 1024l-60 -336q76 139 195 241.5t262 117.5l-43 -238q-160 -27 -300 -150.5t-169 -285.5l-66 -373h-202l180 1024h203z" glyph-name="r" horiz-adv-x="813" unicode="r"/><glyph d="M57 276l197 50q2 -88 70.5 -134.5t173.5 -46.5q209 0 209 117q0 39 -39 73t-74 49t-113 44q-18 6 -26 10q-301 113 -301 303q0 131 103 218.5t298 87.5q193 0 305.5 -87.5t112.5 -236.5v-6h-201v8q0 154 -211 154q-201 0 -201 -125q0 -53 50.5 -85t158.5 -71 q23 -8 35 -12q145 -57 226 -126t81 -179q0 -133 -97 -217t-304 -84q-201 0 -325 82.5t-128 213.5z" glyph-name="s" horiz-adv-x="1056" unicode="s"/><glyph d="M96 842l33 182h184l52 293l215 67l-64 -360h354l-32 -182h-355l-82 -471q-8 -47 -8 -74q0 -135 137 -135q72 0 164 43l45 -168q-121 -57 -239 -57q-307 0 -307 292q0 59 12 136l76 434h-185z" glyph-name="t" horiz-adv-x="843" unicode="t"/><glyph d="M438 1024l-100 -569q-8 -57 -8 -88q0 -207 194 -207q125 0 218.5 85t115.5 220l98 559h203l-180 -1024h-203l25 139q-133 -160 -346 -159q-156 0 -245 91t-89 255q0 39 12 116l103 582h202z" glyph-name="u" horiz-adv-x="1230" unicode="u"/><glyph d="M580 0h-222l-229 1024h213l158 -791l436 791h233z" glyph-name="v" horiz-adv-x="1120" unicode="v"/><glyph d="M508 0h-244l-119 1024h209l74 -786l373 786h223l88 -780l344 780h225l-477 -1024h-241l-89 772z" glyph-name="w" horiz-adv-x="1650" unicode="w"/><glyph d="M1141 1024l-453 -512l283 -512h-230l-196 377l-324 -377h-270l469 516l-275 508h228l188 -373l320 373h260z" glyph-name="x" horiz-adv-x="1105" unicode="x"/><glyph d="M-6 -428l-60 182q266 72 424 262l-227 1008h213l156 -782l438 782h233l-548 -946q-252 -436 -629 -506z" glyph-name="y" horiz-adv-x="1118" unicode="y"/><glyph d="M154 842l32 182h813l-24 -141l-651 -701h528l-33 -182h-813l25 141l647 701h-524z" glyph-name="z" horiz-adv-x="1005" unicode="z"/><glyph d="M31 438l32 189h66q104 0 152.5 55t68.5 168l49 278q53 305 342 306h162l-33 -189h-98q-96 0 -132 -48t-52 -144l-37 -215q-25 -143 -66 -217t-141 -103q109 -55 109 -194q0 -41 -11 -103l-36 -198q-8 -53 -9 -74q0 -127 138 -127h83l-32 -189h-115q-137 0 -210 74 t-73 193q0 35 7 71l43 244q6 37 6 66q0 158 -189 157h-24z" glyph-name="braceleft" horiz-adv-x="813" unicode="{"/><glyph d="M365 1507h163l-329 -1874h-164z" glyph-name="bar" horiz-adv-x="544" unicode="|"/><glyph d="M791 629l-33 -189h-66q-104 0 -152 -55t-69 -168l-49 -278q-53 -305 -342 -306h-162l33 189h98q96 0 132 48t52 144l37 215q25 143 66 217t141 103q-109 53 -108 194q0 41 10 103l37 198q8 53 8 74q0 127 -137 127h-84l33 189h114q137 0 210 -74t73 -193q0 -35 -6 -71 l-43 -244q-6 -37 -6 -66q0 -158 188 -157h25z" glyph-name="braceright" horiz-adv-x="817" unicode="}"/><glyph d="M305 432h-168q16 139 81 225t179 86q100 0 170 -98q6 -8 23.5 -35.5t29 -38t25.5 -10.5q33 0 50.5 38t29.5 114h168q-16 -139 -80.5 -225.5t-179.5 -86.5q-100 0 -170 99q-8 10 -19.5 28.5t-18.5 28.5t-17.5 18.5t-22.5 8.5q-33 0 -50.5 -38t-29.5 -114z" glyph-name="asciitilde" horiz-adv-x="1007" unicode="~"/><glyph glyph-name="uni00A0" horiz-adv-x="520" unicode=" "/><glyph d="M221 -410h-235l221 996h143zM467 928q0 -57 -42 -98.5t-99 -41.5q-51 0 -85 35t-34 84q0 57 42 97t99 40q51 0 85 -33.5t34 -82.5z" glyph-name="exclamdown" horiz-adv-x="534" unicode="¡"/><glyph d="M864 594l180 -64q-68 -139 -181 -216.5t-238 -90.5l-39 -223h-178l41 238q-145 39 -226.5 154.5t-81.5 266.5q0 209 134.5 370t342.5 179l41 226h179l-43 -242q115 -31 188.5 -112t99.5 -191l-192 -53q-20 86 -80.5 140t-159.5 54q-133 0 -221 -109.5t-88 -252.5 q0 -115 65.5 -190t184.5 -75q78 0 151.5 47.5t120.5 143.5z" glyph-name="cent" horiz-adv-x="1122" unicode="¢"/><glyph d="M59 0l27 150q221 164 229 415h-186l31 180h141q-4 16 -17.5 81t-18.5 106t-5 84q0 190 120 314t310 124q160 0 273.5 -95t113.5 -265q0 -35 -6 -72h-199q4 37 5 53q0 96 -52.5 145.5t-132.5 49.5q-100 0 -164.5 -75t-64.5 -187q0 -37 7 -79t18.5 -96.5t15.5 -87.5h340 l-33 -180h-295q-20 -236 -166 -381h557l-28 -184h-820z" glyph-name="sterling" horiz-adv-x="1083" unicode="£"/><glyph d="M111 377l180 147q-39 74 -39 160q0 143 94 254l-110 149l141 109l108 -147q84 39 170 38q106 0 189 -49l190 158l111 -139l-180 -148q39 -74 39 -159q0 -143 -95 -254l111 -150l-141 -108l-109 147q-84 -39 -170 -39q-106 0 -188 49l-191 -157zM647 913q-82 0 -140 -67.5 t-58 -153.5q0 -74 43 -123t116 -49q82 0 140.5 67.5t58.5 153.5q0 74 -42 123t-118 49z" glyph-name="currency" horiz-adv-x="1185" unicode="¤"/><glyph d="M637 760l426 674h242l-504 -760h266l-31 -174h-334l-24 -138h334l-31 -174h-332l-33 -188h-202l32 188h-331l30 174h332l25 138h-332l31 174h264l-232 760h218z" glyph-name="yen" horiz-adv-x="1218" unicode="¥"/><glyph d="M365 1507h163l-143 -811h-162zM176 438h164l-141 -805h-164z" glyph-name="brokenbar" horiz-adv-x="544" unicode="¦"/><glyph d="M989 700q0 -166 -160 -245q78 -78 78 -176q0 -133 -99 -216t-271 -83t-292 73.5t-124 210.5l180 45q0 -86 66.5 -130t160.5 -44q80 0 132.5 33t52.5 96q0 41 -37 75t-73 49t-105 40q-68 25 -119 48.5t-102.5 60t-79 86t-27.5 108.5q0 166 160 248q-78 74 -78 176 q0 133 100.5 216t272.5 83q174 0 293.5 -78t119.5 -223v-29h-186v19q0 78 -62.5 116.5t-158.5 38.5q-72 0 -127 -29.5t-55 -101.5q0 -41 36.5 -73.5t71.5 -48t105 -39.5q147 -51 237 -122t90 -184zM557 856q-53 16 -78 29q-47 -12 -79.5 -45t-32.5 -84q0 -33 19.5 -61.5 t58 -49t70.5 -34t77 -29.5q8 -2 12 -4q25 -8 74 -29q45 12 80 47t35 84q0 92 -222 170q-10 4 -14 6z" glyph-name="section" horiz-adv-x="1087" unicode="§"/><glyph d="M319 1681q0 55 42 94.5t98 39.5q49 0 81.5 -34t32.5 -81q0 -55 -40.5 -94t-96.5 -39q-49 0 -83 33.5t-34 80.5zM688 1681q0 55 41 94.5t96 39.5q51 0 84 -33t33 -82q0 -55 -42 -94t-97 -39q-49 0 -82 33.5t-33 80.5z" glyph-name="dieresis" horiz-adv-x="690" unicode="¨"/><glyph d="M1065 629l117 -45q-51 -109 -141.5 -173.5t-200.5 -64.5q-147 0 -236.5 95.5t-89.5 234.5q0 174 114.5 292.5t272.5 118.5q119 0 202 -66.5t107 -172.5l-127 -41q-39 152 -188 151q-102 0 -174 -83.5t-72 -192.5q0 -88 53.5 -147.5t145.5 -59.5q139 0 217 154zM145 641 q0 330 229.5 571.5t551.5 241.5q293 0 471 -193.5t178 -467.5q0 -330 -229.5 -571.5t-550.5 -241.5q-293 0 -471.5 193.5t-178.5 467.5zM913 1331q-262 0 -451.5 -203.5t-189.5 -476.5q0 -231 144.5 -390t390.5 -159q262 0 451.5 204t189.5 476q0 231 -144.5 390t-390.5 159 z" glyph-name="copyright" horiz-adv-x="1648" unicode="©"/><glyph d="M565 1434q147 0 230 -109l16 94h162l-123 -700h-162l10 59q-90 -72 -198 -71q-141 0 -223 91t-82 226q0 164 106 287t264 123zM532 840q92 0 157 80.5t65 179.5q0 84 -46 141t-126 57q-90 0 -155 -80.5t-65 -183.5q0 -82 46 -138t124 -56z" glyph-name="ordfeminine" horiz-adv-x="972" unicode="ª"/><glyph d="M322 508l153 -295l-156 -98l-229 413l375 416l131 -121zM803 508l153 -295l-155 -98l-230 413l375 416l131 -121z" glyph-name="guillemotleft" horiz-adv-x="1134" unicode="«"/><glyph d="M899 369l68 381h-801l33 180h972l-98 -561h-174z" glyph-name="logicalnot" horiz-adv-x="1263" unicode="¬"/><glyph d="M197 961q0 203 147.5 348t337.5 145q186 0 300 -122t114 -294q0 -203 -147.5 -348t-338.5 -145q-186 0 -299.5 122t-113.5 294zM673.5 1366q-151.5 0 -269 -118t-117.5 -285q0 -137 90 -233.5t241.5 -96.5t269.5 117.5t118 285.5q0 137 -90.5 233.5t-242 96.5zM526 1217 h176q70 0 107 -38t37 -94q0 -47 -26.5 -92t-86.5 -61l74 -144h-86l-70 138h-98l-25 -138h-77zM694 1145h-102l-27 -148h111q49 0 71.5 26t22.5 58q0 64 -76 64z" glyph-name="registered" horiz-adv-x="1124" unicode="®"/><glyph d="M920 1778l-31 -172h-563l30 172h564z" glyph-name="macron" horiz-adv-x="673" unicode="¯"/><glyph d="M201 1079q0 156 110.5 265.5t261.5 109.5q139 0 226.5 -92t87.5 -219q0 -156 -110.5 -265.5t-262.5 -109.5q-139 0 -226 92t-87 219zM563 1284q-82 0 -135 -58.5t-53 -133.5q0 -66 41 -110t108 -44q82 0 135.5 58.5t53.5 133.5q0 66 -41 110t-109 44z" glyph-name="degree" horiz-adv-x="884" unicode="°"/><glyph d="M895 307l-33 -182h-772l33 182h772zM233 942h293l58 320h182l-57 -320h297l-33 -182h-297l-55 -322h-183l56 322h-293z" glyph-name="plusminus" horiz-adv-x="1087" unicode="±"/><glyph d="M686 760l-29 -152h-551l21 119q258 178 371 295q94 98 94 178q0 43 -25.5 68.5t-72.5 25.5q-45 0 -86 -31.5t-52 -117.5h-159q10 88 43.5 151.5t82 94t92.5 43t87 12.5q117 0 188.5 -64.5t71.5 -162.5q0 -147 -154 -301q-78 -78 -186 -158h264z" glyph-name="uni00B2" horiz-adv-x="729" unicode="²"/><glyph d="M100 705l101 120q123 -78 209 -77q127 0 127 96q0 49 -49.5 80.5t-149.5 33.5l24 132q109 -2 164.5 35.5t55.5 95.5q0 37 -28 60.5t-69 23.5q-104 0 -114 -101h-158q6 127 93 184.5t188 57.5q106 0 180 -59.5t74 -149.5q0 -158 -158 -221q113 -61 112 -168 q0 -109 -74.5 -179.5t-215.5 -70.5q-169 1 -312 107z" glyph-name="uni00B3" horiz-adv-x="729" unicode="³"/><glyph d="M555 1530l-141 78l323 352l137 -137z" glyph-name="acute" horiz-adv-x="567" unicode="´"/><glyph d="M817 0l25 139q-133 -160 -346 -159q-113 0 -193 51l-67 -398h-203l243 1391h203l-100 -569q-8 -57 -8 -88q0 -207 196 -207q125 0 217.5 85t114.5 220l98 559h203l-180 -1024h-203z" glyph-name="uni00B5" horiz-adv-x="1298" unicode="µ"/><glyph d="M518 0l86 492q-225 4 -336.5 121.5t-111.5 293.5q0 217 139 372t393 155h606l-252 -1434h-192l219 1251h-139l-219 -1251h-193zM737 1251h-55q-158 0 -242 -96t-84 -237q0 -106 66.5 -175t202.5 -69h10z" glyph-name="paragraph" horiz-adv-x="1337" unicode="¶"/><glyph d="M145 582q0 61 44 103t106 42q53 0 89 -36t36 -87q0 -59 -45 -102t-105 -43q-53 0 -89 36t-36 87z" glyph-name="periodcentered" horiz-adv-x="540" unicode="·"/><glyph d="M193 12h120l-67 -116q76 -14 119 -63.5t43 -115.5q0 -92 -64.5 -158.5t-183.5 -66.5q-127 0 -240 76l90 139q78 -55 144 -55q94 0 94 71.5t-129 73.5l-27 49z" glyph-name="cedilla" horiz-adv-x="473" unicode="¸"/><glyph d="M227 608l107 617l-160 -82l33 184l207 107h121l-146 -826h-162z" glyph-name="uni00B9" horiz-adv-x="501" unicode="¹"/><glyph d="M195 1032q0 166 112.5 284t272.5 118q158 0 250 -94.5t92 -231.5q0 -166 -113 -283.5t-272 -117.5q-158 0 -250 94t-92 231zM575 1282q-86 0 -149.5 -69.5t-63.5 -174.5q0 -78 47.5 -129t131.5 -51q86 0 149.5 69.5t63.5 174.5q0 78 -47.5 129t-131.5 51z" glyph-name="ordmasculine" horiz-adv-x="925" unicode="º"/><glyph d="M336 551l-154 295l156 98l229 -414l-374 -415l-132 121zM817 551l-153 295l155 98l230 -414l-375 -415l-131 121z" glyph-name="guillemotright" horiz-adv-x="1132" unicode="»"/><glyph d="M297 0h-174l1155 1434h174zM252 608l106 617l-159 -82l32 184l207 107h121l-145 -826h-162zM1391 0h-160l29 162h-367l20 114l293 549h185l-283 -512h178l41 228l168 45l-49 -273h110l-26 -151h-111z" glyph-name="onequarter" unicode="¼"/><glyph d="M291 0h-174l1155 1434h174zM246 608l106 617l-159 -82l32 184l207 107h121l-145 -826h-162zM1495 152l-29 -152h-551l21 119q258 178 371 295q94 98 94 178q0 43 -25.5 68.5t-72.5 25.5q-45 0 -86 -31.5t-52 -117.5h-159q10 88 43.5 151.5t82 94t92.5 43t87 12.5 q117 0 188.5 -64.5t71.5 -163.5q0 -147 -154 -301q-78 -78 -186 -157h264z" glyph-name="onehalf" horiz-adv-x="1648" unicode="½"/><glyph d="M485 0h-174l1155 1434h174zM1579 0h-160l29 162h-367l21 114l293 549h184l-283 -512h179l41 228l167 45l-49 -273h111l-27 -151h-110zM121 705l100 120q123 -78 209 -77q127 0 127 96q0 49 -49 80.5t-150 33.5l25 132q109 -2 164 35.5t55 95.5q0 37 -27.5 60.5 t-68.5 23.5q-104 0 -115 -101h-158q6 127 93.5 184.5t187.5 57.5q106 0 180 -59.5t74 -149.5q0 -158 -158 -221q113 -61 113 -168q0 -109 -75 -179.5t-216 -70.5q-168 1 -311 107z" glyph-name="threequarters" horiz-adv-x="1843" unicode="¾"/><glyph d="M489 592h193l-14 -82q-18 -106 -79 -175t-173 -140q-6 -4 -42 -27t-47.5 -31t-41 -29.5t-41 -37t-27.5 -39t-22.5 -48t-6.5 -51.5q0 -78 57.5 -128t153.5 -50q104 0 181 66.5t86 183.5h200q-12 -147 -86.5 -250.5t-175 -146.5t-219.5 -43q-186 0 -297 98t-111 254 q0 141 71 229t220 181q8 4 33 19t32 19.5t27.5 17.5t26.5 19.5t21.5 18.5t21.5 20.5t17.5 20.5t15.5 23.5t10 25.5t8 31zM774 928q0 -59 -43 -99.5t-100 -40.5q-49 0 -84 34t-35 83q0 59 43 99t100 40q49 0 84 -34.5t35 -81.5z" glyph-name="questiondown" horiz-adv-x="1028" unicode="¿"/><glyph d="M780 1434h228l342 -1434h-215l-66 289h-733l-166 -289h-236zM862 1198l-418 -721h582zM1092 1583l-162 -53l-211 319l176 111z" glyph-name="Agrave" horiz-adv-x="1464" unicode="À"/><glyph d="M780 1434h228l342 -1434h-215l-66 289h-733l-166 -289h-236zM862 1198l-418 -721h582zM924 1530l-142 78l324 352l137 -137z" glyph-name="Aacute" horiz-adv-x="1464" unicode="Á"/><glyph d="M780 1434h228l342 -1434h-215l-66 289h-733l-166 -289h-236zM862 1198l-418 -721h582zM952 1696l-237 -160l-97 131l353 236l276 -238l-108 -125z" glyph-name="Acircumflex" horiz-adv-x="1464" unicode="Â"/><glyph d="M780 1434h228l342 -1434h-215l-66 289h-733l-166 -289h-236zM862 1198l-418 -721h582zM745 1587h-167q16 139 80.5 225t179.5 86q100 0 170 -98q6 -8 23.5 -35.5t28.5 -38t25 -10.5q33 0 50.5 38t29.5 114h168q-16 -139 -80.5 -225.5t-179.5 -86.5q-100 0 -170 99 q-8 10 -19.5 28.5t-18.5 28.5t-17 18.5t-23 8.5q-33 0 -50.5 -38t-29.5 -114z" glyph-name="Atilde" horiz-adv-x="1464" unicode="Ã"/><glyph d="M780 1434h228l342 -1434h-215l-66 289h-733l-166 -289h-236zM862 1198l-418 -721h582zM639 1681q0 55 42 94.5t97 39.5q49 0 82 -34t33 -81q0 -55 -41 -94t-96 -39q-49 0 -83 33.5t-34 80.5zM1008 1681q0 55 41 94.5t96 39.5q51 0 84 -33t33 -82q0 -55 -42 -94t-98 -39 q-49 0 -81.5 33.5t-32.5 80.5z" glyph-name="Adieresis" horiz-adv-x="1464" unicode="Ä"/><glyph d="M780 1434h228l342 -1434h-215l-66 289h-733l-166 -289h-236zM862 1198l-418 -721h582zM723 1735q0 106 77 185t179 79q100 0 162.5 -64.5t62.5 -154.5q0 -106 -77.5 -185t-180.5 -79q-98 0 -160.5 64.5t-62.5 154.5zM973 1866q-43 0 -79 -34t-36 -91q0 -39 26.5 -65.5 t69.5 -26.5t79 33.5t36 91.5q0 39 -26.5 65.5t-69.5 26.5z" glyph-name="Aring" horiz-adv-x="1464" unicode="Å"/><glyph d="M1079 1434h1018l-35 -193h-762l-73 -426h614l-35 -192h-614l-76 -430h762l-33 -193h-966l53 307h-518l-244 -307h-258zM565 498h402l112 643z" glyph-name="AE" horiz-adv-x="2039" unicode="Æ"/><glyph d="M1292 502l197 -64q-96 -217 -284.5 -337.5t-405.5 -120.5h-2l-49 -84q76 -14 118.5 -63.5t42.5 -115.5q0 -92 -64.5 -158.5t-182.5 -66.5q-125 0 -240 76l90 139q78 -55 143 -55q94 0 94.5 71.5t-128.5 73.5l-27 49l86 142q-248 39 -391.5 219t-143.5 428 q0 332 225.5 575.5t549.5 243.5q246 0 409.5 -132t216.5 -343l-205 -59q-39 152 -151.5 246t-280.5 94q-231 0 -391 -184.5t-160 -428.5q0 -201 122 -337t329 -136q150 0 280.5 87t202.5 241z" glyph-name="Ccedilla" horiz-adv-x="1568" unicode="Ç"/><glyph d="M1053 1583l-162 -53l-211 319l176 111zM111 0l251 1434h998l-33 -193h-795l-73 -426h647l-33 -192h-649l-76 -430h795l-35 -193h-997z" glyph-name="Egrave" horiz-adv-x="1304" unicode="È"/><glyph d="M887 1530l-142 78l324 352l137 -137zM111 0l251 1434h998l-33 -193h-795l-73 -426h647l-33 -192h-649l-76 -430h795l-35 -193h-997z" glyph-name="Eacute" horiz-adv-x="1304" unicode="É"/><glyph d="M111 0l251 1434h998l-33 -193h-795l-73 -426h647l-33 -192h-649l-76 -430h795l-35 -193h-997zM911 1696l-237 -160l-96 131l352 236l276 -238l-108 -125z" glyph-name="Ecircumflex" horiz-adv-x="1304" unicode="Ê"/><glyph d="M602 1681q0 55 42 94.5t97 39.5q49 0 82 -34t33 -81q0 -55 -41 -94t-96 -39q-49 0 -83 33.5t-34 80.5zM971 1681q0 55 41 94.5t96 39.5q51 0 84 -33t33 -82q0 -55 -42 -94t-98 -39q-49 0 -81.5 33.5t-32.5 80.5zM111 0l251 1434h998l-33 -193h-795l-73 -426h647l-33 -192 h-649l-76 -430h795l-35 -193h-997z" glyph-name="Edieresis" horiz-adv-x="1304" unicode="Ë"/><glyph d="M362 1434h205l-252 -1434h-204zM664 1583l-162 -53l-211 319l176 111z" glyph-name="Igrave" horiz-adv-x="608" unicode="Ì"/><glyph d="M362 1434h205l-252 -1434h-204zM463 1530l-141 78l323 352l137 -137z" glyph-name="Iacute" horiz-adv-x="608" unicode="Í"/><glyph d="M362 1434h205l-252 -1434h-204zM522 1696l-237 -160l-97 131l353 236l276 -238l-108 -125z" glyph-name="Icircumflex" horiz-adv-x="608" unicode="Î"/><glyph d="M362 1434h205l-252 -1434h-204zM195 1681q0 55 42 94.5t97 39.5q49 0 82 -34t33 -81q0 -55 -41 -94t-97 -39q-49 0 -82.5 33.5t-33.5 80.5zM563 1681q0 55 41 94.5t96 39.5q49 0 83 -33t34 -82q0 -55 -42 -94t-97 -39q-49 0 -82 33.5t-33 80.5z" glyph-name="Idieresis" horiz-adv-x="608" unicode="Ï"/><glyph d="M102 623l33 188h156l110 623h484q305 0 463.5 -167t158.5 -436q0 -162 -48 -309t-139 -265t-238.5 -187.5t-329.5 -69.5h-602l108 623h-156zM879 623h-416l-76 -430h371q254 0 395 181t141 445q0 193 -110.5 307.5t-343.5 114.5h-271l-73 -430h415z" glyph-name="Eth" horiz-adv-x="1581" unicode="Ð"/><glyph d="M315 0h-204l251 1434h209l609 -1131l198 1131h205l-252 -1434h-207l-610 1126zM821 1587h-168q16 139 81 225t179 86q100 0 170 -98q6 -8 23.5 -35.5t29 -38t25.5 -10.5q33 0 50.5 38t29.5 114h168q-16 -139 -80.5 -225.5t-179.5 -86.5q-100 0 -170 99q-8 10 -19.5 28.5 t-18.5 28.5t-17.5 18.5t-22.5 8.5q-33 0 -50.5 -38t-29.5 -114z" glyph-name="Ntilde" horiz-adv-x="1622" unicode="Ñ"/><glyph d="M145 639q0 330 223.5 572.5t555.5 242.5q301 0 479 -190.5t178 -468.5q0 -330 -223 -572.5t-555 -242.5q-301 0 -479.5 190t-178.5 469zM911 1260q-231 0 -393 -183.5t-162 -427.5q0 -201 124 -338t333 -137q231 0 394 183.5t163 426.5q0 201 -124 338.5t-335 137.5z M1186 1583l-162 -53l-211 319l176 111z" glyph-name="Ograve" unicode="Ò"/><glyph d="M145 639q0 330 223.5 572.5t555.5 242.5q301 0 479 -190.5t178 -468.5q0 -330 -223 -572.5t-555 -242.5q-301 0 -479.5 190t-178.5 469zM911 1260q-231 0 -393 -183.5t-162 -427.5q0 -201 124 -338t333 -137q231 0 394 183.5t163 426.5q0 201 -124 338.5t-335 137.5z M1018 1530l-141 78l323 352l137 -137z" glyph-name="Oacute" unicode="Ó"/><glyph d="M145 639q0 330 223.5 572.5t555.5 242.5q301 0 479 -190.5t178 -468.5q0 -330 -223 -572.5t-555 -242.5q-301 0 -479.5 190t-178.5 469zM911 1260q-231 0 -393 -183.5t-162 -427.5q0 -201 124 -338t333 -137q231 0 394 183.5t163 426.5q0 201 -124 338.5t-335 137.5z M1040 1696l-237 -160l-96 131l352 236l276 -238l-108 -125z" glyph-name="Ocircumflex" unicode="Ô"/><glyph d="M145 639q0 330 223.5 572.5t555.5 242.5q301 0 479 -190.5t178 -468.5q0 -330 -223 -572.5t-555 -242.5q-301 0 -479.5 190t-178.5 469zM911 1260q-231 0 -393 -183.5t-162 -427.5q0 -201 124 -338t333 -137q231 0 394 183.5t163 426.5q0 201 -124 338.5t-335 137.5z M842 1587h-168q16 139 80.5 225t179.5 86q100 0 170 -98q6 -8 23.5 -35.5t28.5 -38t26 -10.5q33 0 50 38t30 114h168q-16 -139 -81 -225.5t-180 -86.5q-100 0 -170 99q-8 10 -19 28.5t-18.5 28.5t-17.5 18.5t-22 8.5q-33 0 -50.5 -38t-29.5 -114z" glyph-name="Otilde" unicode="Õ"/><glyph d="M145 639q0 330 223.5 572.5t555.5 242.5q301 0 479 -190.5t178 -468.5q0 -330 -223 -572.5t-555 -242.5q-301 0 -479.5 190t-178.5 469zM911 1260q-231 0 -393 -183.5t-162 -427.5q0 -201 124 -338t333 -137q231 0 394 183.5t163 426.5q0 201 -124 338.5t-335 137.5z M735 1681q0 55 42 94.5t97 39.5q49 0 82 -34t33 -81q0 -55 -41 -94t-96 -39q-49 0 -83 33.5t-34 80.5zM1104 1681q0 55 41 94.5t96 39.5q49 0 83 -33t34 -82q0 -55 -42 -94t-97 -39q-49 0 -82 33.5t-33 80.5z" glyph-name="Odieresis" unicode="Ö"/><glyph d="M219 274l-119 136l314 274l-215 272l139 117l213 -270l309 270l119 -135l-315 -276l215 -271l-140 -117l-213 269z" glyph-name="multiply" horiz-adv-x="1024" unicode="×"/><glyph d="M147 637q0 338 227.5 577.5t551.5 239.5q246 0 420 -137l112 117h219l-223 -230q129 -174 129 -409q0 -334 -227.5 -574.5t-550.5 -240.5q-246 0 -416 131l-108 -111h-222l220 223q-132 174 -132 414zM915 1260q-227 0 -390 -181.5t-163 -431.5q0 -147 70 -264l766 784 q-119 93 -283 93zM815 174q227 0 390 180.5t163 429.5q0 143 -68 263l-763 -785q116 -88 278 -88z" glyph-name="Oslash" horiz-adv-x="1658" unicode="Ø"/><glyph d="M1341 1434h205l-162 -922q-43 -246 -213 -389t-415 -143q-279 0 -424.5 146t-145.5 374q0 66 13 129l141 805h205l-142 -807q-10 -61 -10 -109q0 -160 94.5 -252t278.5 -92q162 0 274.5 95.5t145.5 279.5zM1137 1583l-162 -53l-211 319l176 111z" glyph-name="Ugrave" horiz-adv-x="1566" unicode="Ù"/><glyph d="M1341 1434h205l-162 -922q-43 -246 -213 -389t-415 -143q-279 0 -424.5 146t-145.5 374q0 66 13 129l141 805h205l-142 -807q-10 -61 -10 -109q0 -160 94.5 -252t278.5 -92q162 0 274.5 95.5t145.5 279.5zM969 1530l-142 78l324 352l137 -137z" glyph-name="Uacute" horiz-adv-x="1566" unicode="Ú"/><glyph d="M1341 1434h205l-162 -922q-43 -246 -213 -389t-415 -143q-279 0 -424.5 146t-145.5 374q0 66 13 129l141 805h205l-142 -807q-10 -61 -10 -109q0 -160 94.5 -252t278.5 -92q162 0 274.5 95.5t145.5 279.5zM995 1696l-237 -160l-96 131l352 236l276 -238l-108 -125z" glyph-name="Ucircumflex" horiz-adv-x="1566" unicode="Û"/><glyph d="M1341 1434h205l-162 -922q-43 -246 -213 -389t-415 -143q-279 0 -424.5 146t-145.5 374q0 66 13 129l141 805h205l-142 -807q-10 -61 -10 -109q0 -160 94.5 -252t278.5 -92q162 0 274.5 95.5t145.5 279.5zM686 1681q0 55 42 94.5t97 39.5q49 0 82 -34t33 -81 q0 -55 -41 -94t-96 -39q-49 0 -83 33.5t-34 80.5zM1055 1681q0 55 41 94.5t96 39.5q49 0 83 -33t34 -82q0 -55 -42 -94t-98 -39q-49 0 -81.5 33.5t-32.5 80.5z" glyph-name="Udieresis" horiz-adv-x="1566" unicode="Ü"/><glyph d="M418 1434l305 -705l553 705h266l-739 -926l-88 -508h-205l88 508l-414 926h234zM891 1530l-141 78l323 352l137 -137z" glyph-name="Yacute" horiz-adv-x="1402" unicode="Ý"/><glyph d="M111 0l251 1434h205l-37 -203h306q244 0 374.5 -132t130.5 -327q0 -104 -35.5 -203.5t-104 -183.5t-185.5 -135t-262 -51h-404l-35 -199h-204zM383 391h344q211 0 307 108.5t96 266.5q0 125 -83.5 198.5t-262.5 73.5h-286z" glyph-name="Thorn" horiz-adv-x="1411" unicode="Þ"/><glyph d="M377 70l90 166q92 -70 213 -70q119 0 182.5 64.5t63.5 160.5q0 113 -96.5 182.5t-243.5 69.5l30 174q176 -2 274.5 74t98.5 203q0 90 -63.5 143t-163.5 53q-121 0 -207 -84t-115 -243l-168 -963h-202l172 977q41 238 187 368t343 130q184 0 302 -105.5t118 -263.5 q0 -133 -71.5 -236.5t-200.5 -152.5q207 -109 206 -324q0 -184 -117.5 -298.5t-322.5 -114.5q-166 0 -309 90z" glyph-name="germandbls" horiz-adv-x="1257" unicode="ß"/><glyph d="M834 0l22 131q-133 -152 -330 -151q-199 0 -312.5 131t-113.5 327q0 150 60.5 287t183.5 229.5t279 92.5q260 0 358 -209l33 186h200l-180 -1024h-200zM584 164q147 0 247.5 119.5t100.5 281.5q0 127 -74 212t-201 85q-150 0 -249 -123t-99 -282q0 -127 73 -210t202 -83z M924 1196l-162 -53l-211 319l176 111z" glyph-name="agrave" horiz-adv-x="1286" unicode="à"/><glyph d="M834 0l22 131q-133 -152 -330 -151q-199 0 -312.5 131t-113.5 327q0 150 60.5 287t183.5 229.5t279 92.5q260 0 358 -209l33 186h200l-180 -1024h-200zM584 164q147 0 247.5 119.5t100.5 281.5q0 127 -74 212t-201 85q-150 0 -249 -123t-99 -282q0 -127 73 -210t202 -83z M756 1143l-142 78l324 352l137 -137z" glyph-name="aacute" horiz-adv-x="1286" unicode="á"/><glyph d="M834 0l22 131q-133 -152 -330 -151q-199 0 -312.5 131t-113.5 327q0 150 60.5 287t183.5 229.5t279 92.5q260 0 358 -209l33 186h200l-180 -1024h-200zM584 164q147 0 247.5 119.5t100.5 281.5q0 127 -74 212t-201 85q-150 0 -249 -123t-99 -282q0 -127 73 -210t202 -83z M807 1309l-238 -160l-96 131l352 236l277 -238l-109 -125z" glyph-name="acircumflex" horiz-adv-x="1286" unicode="â"/><glyph d="M834 0l22 131q-133 -152 -330 -151q-199 0 -312.5 131t-113.5 327q0 150 60.5 287t183.5 229.5t279 92.5q260 0 358 -209l33 186h200l-180 -1024h-200zM584 164q147 0 247.5 119.5t100.5 281.5q0 127 -74 212t-201 85q-150 0 -249 -123t-99 -282q0 -127 73 -210t202 -83z M580 1200h-168q16 139 80.5 225t179.5 86q100 0 170 -98q6 -8 23.5 -35.5t28.5 -38t26 -10.5q33 0 50 38t29 114h168q-16 -139 -80.5 -225.5t-179.5 -86.5q-100 0 -170 99q-8 10 -19 28.5t-18.5 28.5t-17.5 18.5t-23 8.5q-33 0 -50 -38t-29 -114z" glyph-name="atilde" horiz-adv-x="1286" unicode="ã"/><glyph d="M834 0l22 131q-133 -152 -330 -151q-199 0 -312.5 131t-113.5 327q0 150 60.5 287t183.5 229.5t279 92.5q260 0 358 -209l33 186h200l-180 -1024h-200zM584 164q147 0 247.5 119.5t100.5 281.5q0 127 -74 212t-201 85q-150 0 -249 -123t-99 -282q0 -127 73 -210t202 -83z M471 1294q0 55 42 94t97 39q49 0 82 -33.5t33 -80.5q0 -55 -41 -94t-96 -39q-49 0 -83 33.5t-34 80.5zM840 1294q0 55 41 94t96 39q51 0 84 -33.5t33 -80.5q0 -55 -42 -94t-98 -39q-49 0 -81.5 33.5t-32.5 80.5z" glyph-name="adieresis" horiz-adv-x="1286" unicode="ä"/><glyph d="M834 0l22 131q-133 -152 -330 -151q-199 0 -312.5 131t-113.5 327q0 150 60.5 287t183.5 229.5t279 92.5q260 0 358 -209l33 186h200l-180 -1024h-200zM584 164q147 0 247.5 119.5t100.5 281.5q0 127 -74 212t-201 85q-150 0 -249 -123t-99 -282q0 -127 73 -210t202 -83z M557 1348q0 106 77 185t179 79q100 0 162.5 -64.5t62.5 -154.5q0 -106 -77.5 -185.5t-180.5 -79.5q-98 0 -160.5 65t-62.5 155zM807 1479q-43 0 -79 -34t-36 -91q0 -39 26.5 -65.5t69.5 -26.5t79 33.5t36 90.5q0 39 -26.5 66t-69.5 27z" glyph-name="aring" horiz-adv-x="1286" unicode="å"/><glyph d="M1808 276l101 -147q-160 -150 -406 -149q-172 0 -281.5 77.5t-150.5 210.5l-47 -268h-178l22 133q-143 -154 -341.5 -153.5t-312.5 131.5t-114 327q0 150 60.5 287t183.5 229.5t279 92.5q258 0 368 -209l33 186h178l-35 -201q162 223 443 224q178 0 285.5 -87.5 t107.5 -211.5q0 -154 -158.5 -256.5t-472.5 -102.5h-141q18 -104 89 -166.5t193 -62.5q164 -1 295 116zM584 164q147 0 247.5 119.5t100.5 281.5q0 127 -74 212t-201 85q-150 0 -249 -123t-99 -282q0 -127 73 -210t202 -83zM1614 866q-145 0 -246.5 -84t-132.5 -231h129 q221 0 326.5 52t105.5 136q0 57 -50 92t-132 35z" glyph-name="ae" horiz-adv-x="2074" unicode="æ"/><glyph d="M885 377l184 -62q-68 -154 -199 -242.5t-284 -92.5l-49 -84q76 -14 118.5 -63.5t42.5 -115.5q0 -92 -64.5 -158.5t-182.5 -66.5q-127 0 -240 76l90 139q78 -55 143 -55q94 0 94.5 71.5t-128.5 73.5l-27 49l86 144q-172 31 -270.5 161t-98.5 304q0 238 159 415t398 177 q176 0 294 -95.5t157 -249.5l-193 -57q-23 98 -90 157.5t-176 59.5q-145 0 -244.5 -123t-99.5 -278q0 -127 73 -212t202 -85q94 0 177 56.5t128 156.5z" glyph-name="ccedilla" horiz-adv-x="1171" unicode="ç"/><glyph d="M889 276l98 -147q-160 -150 -403 -149q-229 0 -356.5 134t-127.5 335q0 252 167 425t421 173q178 0 285.5 -87.5t107.5 -211.5q0 -154 -158.5 -256.5t-471.5 -102.5h-142q18 -104 89 -166.5t194 -62.5q164 -1 297 116zM692 866q-145 0 -246.5 -84t-132.5 -231h129 q221 0 326.5 52t105.5 136q0 57 -50 92t-132 35zM907 1196l-162 -53l-210 319l176 111z" glyph-name="egrave" horiz-adv-x="1155" unicode="è"/><glyph d="M889 276l98 -147q-160 -150 -403 -149q-229 0 -356.5 134t-127.5 335q0 252 167 425t421 173q178 0 285.5 -87.5t107.5 -211.5q0 -154 -158.5 -256.5t-471.5 -102.5h-142q18 -104 89 -166.5t194 -62.5q164 -1 297 116zM692 866q-145 0 -246.5 -84t-132.5 -231h129 q221 0 326.5 52t105.5 136q0 57 -50 92t-132 35zM741 1143l-141 78l324 352l137 -137z" glyph-name="eacute" horiz-adv-x="1155" unicode="é"/><glyph d="M889 276l98 -147q-160 -150 -403 -149q-229 0 -356.5 134t-127.5 335q0 252 167 425t421 173q178 0 285.5 -87.5t107.5 -211.5q0 -154 -158.5 -256.5t-471.5 -102.5h-142q18 -104 89 -166.5t194 -62.5q164 -1 297 116zM692 866q-145 0 -246.5 -84t-132.5 -231h129 q221 0 326.5 52t105.5 136q0 57 -50 92t-132 35zM770 1309l-238 -160l-96 131l352 236l277 -238l-109 -125z" glyph-name="ecircumflex" horiz-adv-x="1155" unicode="ê"/><glyph d="M889 276l98 -147q-160 -150 -403 -149q-229 0 -356.5 134t-127.5 335q0 252 167 425t421 173q178 0 285.5 -87.5t107.5 -211.5q0 -154 -158.5 -256.5t-471.5 -102.5h-142q18 -104 89 -166.5t194 -62.5q164 -1 297 116zM692 866q-145 0 -246.5 -84t-132.5 -231h129 q221 0 326.5 52t105.5 136q0 57 -50 92t-132 35zM401 1294q0 55 42 94t98 39q49 0 81.5 -33.5t32.5 -80.5q0 -55 -41 -94t-96 -39q-49 0 -83 33.5t-34 80.5zM770 1294q0 55 41 94t96 39q51 0 84 -33.5t33 -80.5q0 -55 -42 -94t-97 -39q-49 0 -82 33.5t-33 80.5z" glyph-name="edieresis" horiz-adv-x="1155" unicode="ë"/><glyph d="M70 0l180 1024h203l-181 -1024h-202zM553 1196l-162 -53l-211 319l176 111z" glyph-name="igrave" horiz-adv-x="524" unicode="ì"/><glyph d="M70 0l180 1024h203l-181 -1024h-202zM352 1143l-141 78l324 352l137 -137z" glyph-name="iacute" horiz-adv-x="524" unicode="í"/><glyph d="M70 0l180 1024h203l-181 -1024h-202zM408 1309l-238 -160l-96 131l352 236l276 -238l-108 -125z" glyph-name="icircumflex" horiz-adv-x="524" unicode="î"/><glyph d="M70 0l180 1024h203l-181 -1024h-202zM84 1294q0 55 42 94t97 39q49 0 82 -33.5t33 -80.5q0 -55 -41 -94t-96 -39q-49 0 -83 33.5t-34 80.5zM453 1294q0 55 41 94t96 39q49 0 83 -33.5t34 -80.5q0 -55 -42 -94t-98 -39q-49 0 -81.5 33.5t-32.5 80.5z" glyph-name="idieresis" horiz-adv-x="524" unicode="ï"/><glyph d="M985 1407l41 -154l-184 -65l172 -348q76 -152 76 -312q0 -248 -157 -398t-374 -150q-209 0 -336 132t-127 326q0 223 145.5 380t354.5 157q74 0 135 -21l-88 164l-217 -76l-45 156l186 64l-92 172h246l49 -101zM623 793q-139 0 -229.5 -105.5t-90.5 -245.5 q0 -117 73 -193.5t195 -76.5q129 0 222.5 95t93.5 243q0 125 -71.5 204t-192.5 79z" glyph-name="eth" horiz-adv-x="1200" unicode="ð"/><glyph d="M791 0l100 569q8 57 8 88q0 209 -194 209q-125 0 -218.5 -86t-115.5 -221l-99 -559h-202l180 1024h203l-25 -139q135 162 346 162q156 0 245 -91.5t89 -257.5q0 -39 -12 -116l-103 -582h-202zM559 1200h-168q16 139 81 225t179 86q100 0 170 -98q6 -8 23.5 -35.5t29 -38 t25.5 -10.5q33 0 50.5 38t29.5 114h168q-16 -139 -81 -225.5t-179 -86.5q-100 0 -170 99q-8 10 -19.5 28.5t-18.5 28.5t-17.5 18.5t-22.5 8.5q-33 0 -50.5 -38t-29.5 -114z" glyph-name="ntilde" horiz-adv-x="1230" unicode="ñ"/><glyph d="M100 459q0 236 163 412t403 176q219 0 349 -138.5t130 -341.5q0 -236 -163 -411.5t-402 -175.5q-219 0 -349.5 138t-130.5 341zM657 862q-147 0 -249.5 -120.5t-102.5 -278.5q0 -129 75 -214t208 -85q147 0 249.5 121t102.5 278q0 129 -75 214t-208 85zM907 1196 l-162 -53l-210 319l176 111z" glyph-name="ograve" horiz-adv-x="1245" unicode="ò"/><glyph d="M100 459q0 236 163 412t403 176q219 0 349 -138.5t130 -341.5q0 -236 -163 -411.5t-402 -175.5q-219 0 -349.5 138t-130.5 341zM657 862q-147 0 -249.5 -120.5t-102.5 -278.5q0 -129 75 -214t208 -85q147 0 249.5 121t102.5 278q0 129 -75 214t-208 85zM741 1143l-141 78 l324 352l137 -137z" glyph-name="oacute" horiz-adv-x="1245" unicode="ó"/><glyph d="M100 459q0 236 163 412t403 176q219 0 349 -138.5t130 -341.5q0 -236 -163 -411.5t-402 -175.5q-219 0 -349.5 138t-130.5 341zM657 862q-147 0 -249.5 -120.5t-102.5 -278.5q0 -129 75 -214t208 -85q147 0 249.5 121t102.5 278q0 129 -75 214t-208 85zM770 1309 l-238 -160l-96 131l352 236l277 -238l-109 -125z" glyph-name="ocircumflex" horiz-adv-x="1245" unicode="ô"/><glyph d="M100 459q0 236 163 412t403 176q219 0 349 -138.5t130 -341.5q0 -236 -163 -411.5t-402 -175.5q-219 0 -349.5 138t-130.5 341zM657 862q-147 0 -249.5 -120.5t-102.5 -278.5q0 -129 75 -214t208 -85q147 0 249.5 121t102.5 278q0 129 -75 214t-208 85zM565 1200h-168 q16 139 81 225t179 86q100 0 170 -98q6 -8 23.5 -35.5t29 -38t25.5 -10.5q33 0 50.5 38t29.5 114h168q-16 -139 -80.5 -225.5t-179.5 -86.5q-100 0 -170 99q-8 10 -19.5 28.5t-18.5 28.5t-17.5 18.5t-22.5 8.5q-33 0 -50.5 -38t-29.5 -114z" glyph-name="otilde" horiz-adv-x="1245" unicode="õ"/><glyph d="M100 459q0 236 163 412t403 176q219 0 349 -138.5t130 -341.5q0 -236 -163 -411.5t-402 -175.5q-219 0 -349.5 138t-130.5 341zM657 862q-147 0 -249.5 -120.5t-102.5 -278.5q0 -129 75 -214t208 -85q147 0 249.5 121t102.5 278q0 129 -75 214t-208 85zM457 1294 q0 55 42 94t97 39q49 0 82 -33.5t33 -80.5q0 -55 -41 -94t-97 -39q-49 0 -82.5 33.5t-33.5 80.5zM825 1294q0 55 41 94t97 39q49 0 82.5 -33.5t33.5 -80.5q0 -55 -42 -94t-97 -39q-49 0 -82 33.5t-33 80.5z" glyph-name="odieresis" horiz-adv-x="1245" unicode="ö"/><glyph d="M954 762l-32 -182h-772l32 182h772zM492 1034q0 55 41.5 94t97.5 39q49 0 81.5 -33.5t32.5 -80.5q0 -55 -40.5 -94t-96.5 -39q-51 0 -83.5 33.5t-32.5 80.5zM360 287q0 55 41 95t97 40q49 0 81.5 -34t32.5 -81q0 -55 -41 -95t-96 -40q-49 0 -82 34t-33 81z" glyph-name="divide" horiz-adv-x="1048" unicode="÷"/><glyph d="M100 457q0 246 167 418t401 172q164 0 286 -86l60 63h192l-153 -162q92 -127 92 -293q0 -233 -160 -411t-405 -178q-162 0 -283 81l-57 -61h-195l150 160q-95 125 -95 297zM657 864q-150 0 -252 -120.5t-102 -282.5q0 -88 33 -152l483 510q-68 45 -162 45zM588 162 q154 0 254 120.5t100 280.5q0 84 -31 148l-481 -508q66 -41 158 -41z" glyph-name="oslash" horiz-adv-x="1247" unicode="ø"/><glyph d="M438 1024l-100 -569q-8 -57 -8 -88q0 -207 194 -207q125 0 218.5 85t115.5 220l98 559h203l-180 -1024h-203l25 139q-133 -160 -346 -159q-156 0 -245 91t-89 255q0 39 12 116l103 582h202zM891 1196l-162 -53l-211 319l176 111z" glyph-name="ugrave" horiz-adv-x="1230" unicode="ù"/><glyph d="M438 1024l-100 -569q-8 -57 -8 -88q0 -207 194 -207q125 0 218.5 85t115.5 220l98 559h203l-180 -1024h-203l25 139q-133 -160 -346 -159q-156 0 -245 91t-89 255q0 39 12 116l103 582h202zM725 1143l-141 78l323 352l137 -137z" glyph-name="uacute" horiz-adv-x="1230" unicode="ú"/><glyph d="M438 1024l-100 -569q-8 -57 -8 -88q0 -207 194 -207q125 0 218.5 85t115.5 220l98 559h203l-180 -1024h-203l25 139q-133 -160 -346 -159q-156 0 -245 91t-89 255q0 39 12 116l103 582h202zM756 1309l-238 -160l-96 131l352 236l277 -238l-109 -125z" glyph-name="ucircumflex" horiz-adv-x="1230" unicode="û"/><glyph d="M438 1024l-100 -569q-8 -57 -8 -88q0 -207 194 -207q125 0 218.5 85t115.5 220l98 559h203l-180 -1024h-203l25 139q-133 -160 -346 -159q-156 0 -245 91t-89 255q0 39 12 116l103 582h202zM440 1294q0 55 42 94t98 39q49 0 81.5 -33.5t32.5 -80.5q0 -55 -41 -94t-96 -39 q-49 0 -83 33.5t-34 80.5zM809 1294q0 55 41 94t96 39q49 0 83 -33.5t34 -80.5q0 -55 -42 -94t-97 -39q-49 0 -82 33.5t-33 80.5z" glyph-name="udieresis" horiz-adv-x="1230" unicode="ü"/><glyph d="M-6 -428l-60 182q266 72 424 262l-227 1008h213l156 -782l438 782h233l-548 -946q-252 -436 -629 -506zM682 1143l-141 78l323 352l137 -137z" glyph-name="yacute" horiz-adv-x="1118" unicode="ý"/><glyph d="M522 1434l-94 -539q133 152 330 152q199 0 312.5 -131.5t113.5 -327.5q0 -150 -60.5 -287t-183.5 -229t-278 -92q-260 0 -359 208l-98 -555h-201l318 1801h200zM700 862q-147 0 -247.5 -119.5t-100.5 -281.5q0 -127 74 -212t201 -85q150 0 249 123t99 282q0 127 -73 210 t-202 83z" glyph-name="thorn" horiz-adv-x="1284" unicode="þ"/><glyph d="M-6 -428l-60 182q266 72 424 262l-227 1008h213l156 -782l438 782h233l-548 -946q-252 -436 -629 -506zM395 1294q0 55 42 94t98 39q49 0 81.5 -33.5t32.5 -80.5q0 -55 -41 -94t-96 -39q-49 0 -83 33.5t-34 80.5zM764 1294q0 55 41 94t96 39q49 0 83 -33.5t34 -80.5 q0 -55 -42 -94t-97 -39q-49 0 -82 33.5t-33 80.5z" glyph-name="ydieresis" horiz-adv-x="1118" unicode="ÿ"/><glyph d="M780 1434h228l342 -1434h-215l-66 289h-733l-166 -289h-236zM862 1198l-418 -721h582zM1249 1778l-30 -172h-564l31 172h563z" glyph-name="Amacron" horiz-adv-x="1464" unicode="Ā"/><glyph d="M834 0l22 131q-133 -152 -330 -151q-199 0 -312.5 131t-113.5 327q0 150 60.5 287t183.5 229.5t279 92.5q260 0 358 -209l33 186h200l-180 -1024h-200zM584 164q147 0 247.5 119.5t100.5 281.5q0 127 -74 212t-201 85q-150 0 -249 -123t-99 -282q0 -127 73 -210t202 -83z M1083 1391l-30 -172h-564l31 172h563z" glyph-name="amacron" horiz-adv-x="1286" unicode="ā"/><glyph d="M780 1434h228l342 -1434h-215l-66 289h-733l-166 -289h-236zM862 1198l-418 -721h582zM1151 1866l147 -70q-137 -248 -354 -248q-119 0 -198.5 69t-110.5 179l158 70q47 -150 159 -150q117 0 199 150z" glyph-name="Abreve" horiz-adv-x="1464" unicode="Ă"/><glyph d="M834 0l22 131q-133 -152 -330 -151q-199 0 -312.5 131t-113.5 327q0 150 60.5 287t183.5 229.5t279 92.5q260 0 358 -209l33 186h200l-180 -1024h-200zM584 164q147 0 247.5 119.5t100.5 281.5q0 127 -74 212t-201 85q-150 0 -249 -123t-99 -282q0 -127 73 -210t202 -83z M985 1479l148 -70q-137 -248 -355 -248q-119 0 -198.5 68.5t-110.5 179.5l158 70q47 -150 159 -150q117 0 199 150z" glyph-name="abreve" horiz-adv-x="1286" unicode="ă"/><glyph d="M780 1434h228l342 -1434q-213 -172 -213 -279q0 -66 82 -65q23 0 47 4l4 -160q-35 -8 -72 -8q-109 0 -170 47t-61 129q0 96 60 173t167 159h-59l-66 289h-733l-166 -289h-236zM862 1198l-418 -721h582z" glyph-name="Aogonek" horiz-adv-x="1464" unicode="Ą"/><glyph d="M834 0l22 131q-133 -152 -330 -151q-199 0 -312.5 131t-113.5 327q0 150 60.5 287t183.5 229.5t279 92.5q260 0 358 -209l33 186h200l-180 -1024q-213 -172 -213 -279q0 -66 82 -65q23 0 47 4l4 -160q-35 -8 -71 -8q-109 0 -170.5 47t-61.5 129q0 96 60.5 173t167.5 159 h-45zM584 164q147 0 247.5 119.5t100.5 281.5q0 127 -74 212t-201 85q-150 0 -249 -123t-99 -282q0 -127 73 -210t202 -83z" glyph-name="aogonek" horiz-adv-x="1286" unicode="ą"/><glyph d="M1290 502l197 -64q-96 -217 -284.5 -337.5t-405.5 -120.5q-299 0 -476.5 188t-177.5 467q0 332 225.5 575.5t549.5 243.5q246 0 409.5 -132t216.5 -343l-205 -59q-39 152 -151.5 246t-280.5 94q-231 0 -391 -184.5t-160 -428.5q0 -201 122 -337t329 -136q150 0 280.5 87 t202.5 241zM1012 1530l-142 78l324 352l137 -137z" glyph-name="Cacute" horiz-adv-x="1566" unicode="Ć"/><glyph d="M885 377l184 -62q-70 -158 -206 -246.5t-294 -88.5q-215 0 -342 137t-127 338q0 238 159 415t398 177q176 0 294 -95.5t157 -249.5l-193 -57q-23 98 -90 157.5t-176 59.5q-145 0 -244.5 -123t-99.5 -278q0 -127 73 -212t202 -85q94 0 177 56.5t128 156.5zM733 1143 l-141 78l323 352l138 -137z" glyph-name="cacute" horiz-adv-x="1171" unicode="ć"/><glyph d="M1290 502l197 -64q-96 -217 -284.5 -337.5t-405.5 -120.5q-299 0 -476.5 188t-177.5 467q0 332 225.5 575.5t549.5 243.5q246 0 409.5 -132t216.5 -343l-205 -59q-39 152 -151.5 246t-280.5 94q-231 0 -391 -184.5t-160 -428.5q0 -201 122 -337t329 -136q150 0 280.5 87 t202.5 241zM915 1681q0 55 41 94.5t97 39.5q49 0 82.5 -34t33.5 -81q0 -55 -42 -94t-97 -39q-49 0 -82 33.5t-33 80.5z" glyph-name="Cdotaccent" horiz-adv-x="1566" unicode="Ċ"/><glyph d="M885 377l184 -62q-70 -158 -206 -246.5t-294 -88.5q-215 0 -342 137t-127 338q0 238 159 415t398 177q176 0 294 -95.5t157 -249.5l-193 -57q-23 98 -90 157.5t-176 59.5q-145 0 -244.5 -123t-99.5 -278q0 -127 73 -212t202 -85q94 0 177 56.5t128 156.5zM637 1294 q0 55 41 94t96 39q49 0 83 -33.5t34 -80.5q0 -55 -42 -94t-97 -39q-49 0 -82 33.5t-33 80.5z" glyph-name="cdotaccent" horiz-adv-x="1171" unicode="ċ"/><glyph d="M1290 502l197 -64q-96 -217 -284.5 -337.5t-405.5 -120.5q-299 0 -476.5 188t-177.5 467q0 332 225.5 575.5t549.5 243.5q246 0 409.5 -132t216.5 -343l-205 -59q-39 152 -151.5 246t-280.5 94q-231 0 -391 -184.5t-160 -428.5q0 -201 122 -337t329 -136q150 0 280.5 87 t202.5 241zM1028 1737l238 159l96 -129l-352 -237l-279 237l111 125z" glyph-name="Ccaron" horiz-adv-x="1566" unicode="Č"/><glyph d="M885 377l184 -62q-70 -158 -206 -246.5t-294 -88.5q-215 0 -342 137t-127 338q0 238 159 415t398 177q176 0 294 -95.5t157 -249.5l-193 -57q-23 98 -90 157.5t-176 59.5q-145 0 -244.5 -123t-99.5 -278q0 -127 73 -212t202 -85q94 0 177 56.5t128 156.5zM741 1350 l238 159l96 -129l-352 -237l-279 237l111 125z" glyph-name="ccaron" horiz-adv-x="1171" unicode="č"/><glyph d="M111 0l251 1434h484q305 0 463.5 -167t158.5 -436q0 -162 -48 -309t-139 -265t-238.5 -187.5t-329.5 -69.5h-602zM805 1241h-273l-182 -1048h369q256 0 396 181t140 445q0 193 -109.5 307.5t-340.5 114.5zM973 1737l237 159l97 -129l-353 -237l-278 237l110 125z" glyph-name="Dcaron" horiz-adv-x="1542" unicode="Ď"/><glyph d="M834 0l22 131q-133 -152 -330 -151q-199 0 -312.5 131t-113.5 327q0 150 60.5 287t183.5 229.5t279 92.5q260 0 358 -209l104 596h201l-252 -1434h-200zM584 164q147 0 247.5 119.5t100.5 281.5q0 127 -74 212t-201 85q-150 0 -249 -123t-99 -282q0 -127 73 -210t202 -83 zM1436 967l-72 75q131 113 149 195q-49 -8 -84.5 21.5t-35.5 74.5q0 49 36.5 84t86.5 35q51 0 86.5 -37t35.5 -104q0 -88 -58 -182t-144 -162z" glyph-name="dcaron" horiz-adv-x="1445" unicode="ď"/><glyph d="M102 623l33 188h156l110 623h484q305 0 463.5 -167t158.5 -436q0 -162 -48 -309t-139 -265t-238.5 -187.5t-329.5 -69.5h-602l108 623h-156zM879 623h-416l-76 -430h371q254 0 395 181t141 445q0 193 -110.5 307.5t-343.5 114.5h-271l-73 -430h415z" glyph-name="Dcroat" horiz-adv-x="1581" unicode="Đ"/><glyph d="M834 0l22 131q-133 -152 -330 -151q-199 0 -312.5 131t-113.5 327q0 150 60.5 287t183.5 229.5t279 92.5q260 0 358 -209l53 305h-299l29 168h299l22 123h201l-22 -123h147l-29 -168h-147l-201 -1143h-200zM584 164q147 0 247.5 119.5t100.5 281.5q0 127 -74 212t-201 85 q-150 0 -249 -123t-99 -282q0 -127 73 -210t202 -83z" glyph-name="dcroat" horiz-adv-x="1306" unicode="đ"/><glyph d="M111 0l251 1434h998l-33 -193h-795l-73 -426h647l-33 -192h-649l-76 -430h795l-35 -193h-997zM1212 1778l-30 -172h-564l31 172h563z" glyph-name="Emacron" horiz-adv-x="1304" unicode="Ē"/><glyph d="M889 276l98 -147q-160 -150 -403 -149q-229 0 -356.5 134t-127.5 335q0 252 167 425t421 173q178 0 285.5 -87.5t107.5 -211.5q0 -154 -158.5 -256.5t-471.5 -102.5h-142q18 -104 89 -166.5t194 -62.5q164 -1 297 116zM692 866q-145 0 -246.5 -84t-132.5 -231h129 q221 0 326.5 52t105.5 136q0 57 -50 92t-132 35zM1069 1391l-31 -172h-563l31 172h563z" glyph-name="emacron" horiz-adv-x="1155" unicode="ē"/><glyph d="M111 0l251 1434h998l-33 -193h-795l-73 -426h647l-33 -192h-649l-76 -430h795l-35 -193h-997zM791 1681q0 55 40.5 94.5t96.5 39.5q49 0 82.5 -34t33.5 -81q0 -55 -41.5 -94t-97.5 -39q-49 0 -81.5 33.5t-32.5 80.5z" glyph-name="Edotaccent" horiz-adv-x="1304" unicode="Ė"/><glyph d="M889 276l98 -147q-160 -150 -403 -149q-229 0 -356.5 134t-127.5 335q0 252 167 425t421 173q178 0 285.5 -87.5t107.5 -211.5q0 -154 -158.5 -256.5t-471.5 -102.5h-142q18 -104 89 -166.5t194 -62.5q164 -1 297 116zM692 866q-145 0 -246.5 -84t-132.5 -231h129 q221 0 326.5 52t105.5 136q0 57 -50 92t-132 35zM643 1294q0 55 41 94t96 39q49 0 83 -33.5t34 -80.5q0 -55 -42 -94t-97 -39q-49 0 -82 33.5t-33 80.5z" glyph-name="edotaccent" horiz-adv-x="1155" unicode="ė"/><glyph d="M111 0l251 1434h998l-33 -193h-795l-73 -426h647l-33 -192h-649l-76 -430h795l-35 -193q-213 -172 -213 -279q0 -66 82 -65q23 0 47 4l4 -160q-35 -8 -72 -8q-109 0 -170 47t-61 129q0 96 60.5 173t166.5 159h-841z" glyph-name="Eogonek" horiz-adv-x="1304" unicode="Ę"/><glyph d="M889 276l98 -147q-55 -53 -141 -94q-258 -199 -258 -314q0 -66 82 -65q23 0 47 4l4 -160q-35 -8 -72 -8q-109 0 -170 47t-61 129q0 154 203 314q-12 -2 -37 -2q-229 0 -356.5 134t-127.5 335q0 252 167 425t421 173q178 0 285.5 -87.5t107.5 -211.5q0 -154 -158.5 -256.5 t-471.5 -102.5h-142q18 -104 89 -166.5t194 -62.5q164 -1 297 116zM692 866q-145 0 -246.5 -84t-132.5 -231h129q221 0 326.5 52t105.5 136q0 57 -50 92t-132 35z" glyph-name="eogonek" horiz-adv-x="1155" unicode="ę"/><glyph d="M111 0l251 1434h998l-33 -193h-795l-73 -426h647l-33 -192h-649l-76 -430h795l-35 -193h-997zM901 1737l238 159l96 -129l-352 -237l-279 237l111 125z" glyph-name="Ecaron" horiz-adv-x="1304" unicode="Ě"/><glyph d="M889 276l98 -147q-160 -150 -403 -149q-229 0 -356.5 134t-127.5 335q0 252 167 425t421 173q178 0 285.5 -87.5t107.5 -211.5q0 -154 -158.5 -256.5t-471.5 -102.5h-142q18 -104 89 -166.5t194 -62.5q164 -1 297 116zM692 866q-145 0 -246.5 -84t-132.5 -231h129 q221 0 326.5 52t105.5 136q0 57 -50 92t-132 35zM772 1350l238 159l96 -129l-352 -237l-279 237l111 125z" glyph-name="ecaron" horiz-adv-x="1155" unicode="ě"/><glyph d="M801 584l35 188h667l-137 -772h-180l33 195q-160 -215 -449 -215q-291 0 -458 186t-167 461q0 342 224.5 584.5t552.5 242.5q205 0 354 -93t227 -253l-186 -98q-55 115 -158.5 182.5t-247.5 67.5q-227 0 -390 -180.5t-163 -442.5q0 -199 115 -331t320 -132 q168 0 294.5 106.5t186.5 303.5h-473zM1245 1866l148 -70q-137 -248 -355 -248q-119 0 -198.5 69t-110.5 179l158 70q47 -150 160 -150q116 0 198 150z" glyph-name="Gbreve" horiz-adv-x="1591" unicode="Ğ"/><glyph d="M106 467q0 229 140.5 404.5t357.5 175.5q244 0 348 -197l31 174h203l-160 -907q-51 -287 -190.5 -403.5t-319.5 -116.5q-297 0 -496 229l136 143q172 -190 356 -190q252 0 309 325l13 70q-127 -139 -310 -139q-199 0 -308.5 123t-109.5 309zM641 862 q-137 0 -232.5 -108.5t-95.5 -257.5q0 -121 71 -200t194 -79q137 0 233 107.5t96 255.5q0 119 -71.5 200.5t-194.5 81.5zM969 1479l147 -70q-137 -248 -354 -248q-119 0 -199 68.5t-110 179.5l157 70q47 -150 160 -150q117 0 199 150z" glyph-name="gbreve" horiz-adv-x="1257" unicode="ğ"/><glyph d="M801 584l35 188h667l-137 -772h-180l33 195q-160 -215 -449 -215q-291 0 -458 186t-167 461q0 342 224.5 584.5t552.5 242.5q205 0 354 -93t227 -253l-186 -98q-55 115 -158.5 182.5t-247.5 67.5q-227 0 -390 -180.5t-163 -442.5q0 -199 115 -331t320 -132 q168 0 294.5 106.5t186.5 303.5h-473zM920 1681q0 55 40.5 94.5t96.5 39.5q49 0 83 -34t34 -81q0 -55 -42 -94t-98 -39q-49 0 -81.5 33.5t-32.5 80.5z" glyph-name="Gdotaccent" horiz-adv-x="1591" unicode="Ġ"/><glyph d="M106 467q0 229 140.5 404.5t357.5 175.5q244 0 348 -197l31 174h203l-160 -907q-51 -287 -190.5 -403.5t-319.5 -116.5q-297 0 -496 229l136 143q172 -190 356 -190q252 0 309 325l13 70q-127 -139 -310 -139q-199 0 -308.5 123t-109.5 309zM641 862 q-137 0 -232.5 -108.5t-95.5 -257.5q0 -121 71 -200t194 -79q137 0 233 107.5t96 255.5q0 119 -71.5 200.5t-194.5 81.5zM643 1294q0 55 41 94t96 39q49 0 83 -33.5t34 -80.5q0 -55 -42 -94t-97 -39q-49 0 -82 33.5t-33 80.5z" glyph-name="gdotaccent" horiz-adv-x="1257" unicode="ġ"/><glyph d="M801 584l35 188h667l-137 -772h-180l33 195q-160 -215 -449 -215q-291 0 -458 186t-167 461q0 342 224.5 584.5t552.5 242.5q205 0 354 -93t227 -253l-186 -98q-55 115 -158.5 182.5t-247.5 67.5q-227 0 -390 -180.5t-163 -442.5q0 -199 115 -331t320 -132 q168 0 294.5 106.5t186.5 303.5h-473zM635 -614l-72 75q131 113 150 195q-49 -8 -85 21.5t-36 74.5q0 49 37 84t86 35q51 0 87 -37t36 -104q0 -88 -58.5 -182t-144.5 -162z" glyph-name="Gcommaaccent" horiz-adv-x="1591" unicode="Ģ"/><glyph d="M106 467q0 229 140.5 404.5t357.5 175.5q244 0 348 -197l31 174h203l-160 -907q-51 -287 -190.5 -403.5t-319.5 -116.5q-297 0 -496 229l136 143q172 -190 356 -190q252 0 309 325l13 70q-127 -139 -310 -139q-199 0 -308.5 123t-109.5 309zM641 862 q-137 0 -232.5 -108.5t-95.5 -257.5q0 -121 71 -200t194 -79q137 0 233 107.5t96 255.5q0 119 -71.5 200.5t-194.5 81.5zM379 -981l-72 76q131 113 150 194q-49 -8 -85 22t-36 75q0 49 37 83.5t86 34.5q51 0 87 -36.5t36 -104.5q0 -88 -58.5 -182t-144.5 -162z" glyph-name="gcommaaccent" horiz-adv-x="1257" unicode="ģ"/><glyph d="M1378 1434h205l-41 -226h115l-31 -174h-115l-180 -1034h-205l109 621h-803l-108 -621h-205l180 1034h-117l31 174h117l41 226h204l-38 -226h802zM467 813h803l39 221h-803z" glyph-name="Hbar" horiz-adv-x="1630" unicode="Ħ"/><glyph d="M152 1143l28 168h137l23 123h203l-23 -123h309l-30 -168h-307l-46 -258q135 162 347 162q156 0 244.5 -91.5t88.5 -257.5q0 -39 -12 -116l-102 -582h-203l100 569q8 57 9 88q0 209 -195 209q-125 0 -218 -86t-116 -221l-98 -559h-203l201 1143h-137z" glyph-name="hbar" horiz-adv-x="1251" unicode="ħ"/><glyph d="M362 1434h205l-252 -1434h-204zM301 1587h-168q16 139 81 225t179 86q100 0 170 -98q6 -8 23.5 -35.5t29 -38t25.5 -10.5q33 0 50.5 38t29.5 114h168q-16 -139 -81 -225.5t-179 -86.5q-100 0 -170 99q-8 10 -19.5 28.5t-18.5 28.5t-17.5 18.5t-22.5 8.5q-33 0 -50.5 -38 t-29.5 -114z" glyph-name="Itilde" horiz-adv-x="608" unicode="Ĩ"/><glyph d="M70 0l180 1024h203l-181 -1024h-202zM193 1200h-168q16 139 80.5 225t179.5 86q100 0 170 -98q6 -8 23.5 -35.5t28.5 -38t25 -10.5q33 0 50.5 38t29.5 114h168q-16 -139 -80.5 -225.5t-179.5 -86.5q-100 0 -170 99q-8 10 -19.5 28.5t-18.5 28.5t-17 18.5t-23 8.5 q-33 0 -50 -38t-29 -114z" glyph-name="itilde" horiz-adv-x="524" unicode="ĩ"/><glyph d="M362 1434h205l-252 -1434h-204zM805 1778l-31 -172h-563l31 172h563z" glyph-name="Imacron" horiz-adv-x="608" unicode="Ī"/><glyph d="M70 0l180 1024h203l-181 -1024h-202zM694 1391l-30 -172h-564l31 172h563z" glyph-name="imacron" horiz-adv-x="524" unicode="ī"/><glyph d="M362 1434h205l-252 -1434h-204zM709 1866l147 -70q-137 -248 -354 -248q-119 0 -199 69t-110 179l157 70q47 -150 160 -150q117 0 199 150z" glyph-name="Ibreve" horiz-adv-x="608" unicode="Ĭ"/><glyph d="M70 0l180 1024h203l-181 -1024h-202zM598 1479l147 -70q-137 -248 -354 -248q-119 0 -198.5 68.5t-110.5 179.5l158 70q47 -150 159 -150q117 0 199 150z" glyph-name="ibreve" horiz-adv-x="524" unicode="ĭ"/><glyph d="M362 1434h205l-252 -1434q-213 -172 -213 -279q0 -66 82 -65q23 0 47 4l5 -160q-35 -8 -72 -8q-109 0 -170.5 47t-61.5 129q0 96 60.5 173t167.5 159h-49z" glyph-name="Iogonek" horiz-adv-x="608" unicode="Į"/><glyph d="M70 0l180 1024h203l-181 -1024q-213 -172 -213 -279q0 -66 82 -65q23 0 47 4l5 -160q-35 -8 -72 -8q-109 0 -170.5 47t-61.5 129q0 96 60.5 173t167.5 159h-47zM270 1305q0 57 42 98t102 41q51 0 86 -34t35 -85q0 -57 -42 -98t-102 -41q-51 0 -86 35t-35 84z" glyph-name="iogonek" horiz-adv-x="524" unicode="į"/><glyph d="M362 1434h205l-252 -1434h-204zM383 1681q0 55 41 94.5t96 39.5q49 0 83 -34t34 -81q0 -55 -42 -94t-97 -39q-49 0 -82 33.5t-33 80.5z" glyph-name="Idotaccent" horiz-adv-x="608" unicode="İ"/><glyph d="M70 0l180 1024h203l-181 -1024h-202z" glyph-name="dotlessi" horiz-adv-x="524" unicode="ı"/><glyph d="M362 1434h205l-252 -1434h-204zM1044 1239l35 195h824l-172 -977q-39 -217 -187.5 -347t-355.5 -130q-244 0 -372 132t-128 332q0 47 10 105l25 139h205l-23 -127q-8 -43 -8 -94q0 -135 75 -214t220 -79q131 0 223 85t119 243l129 737h-619z" glyph-name="IJ" horiz-adv-x="1925" unicode="Ĳ"/><glyph d="M270 1305q0 57 42 98t102 41q51 0 86 -34t35 -85q0 -57 -42 -98t-102 -41q-51 0 -86 35t-35 84zM70 0l180 1024h203l-181 -1024h-202zM805 1305q0 57 43 98t102 41q51 0 86 -34t35 -85q0 -57 -43 -98t-102 -41q-51 0 -86 35t-35 84zM342 -369l64 170q37 -16 73 -16 q88 0 113 129l194 1110h203l-201 -1143q-49 -281 -294 -280q-82 -1 -152 30z" glyph-name="ij" horiz-adv-x="1058" unicode="ĳ"/><glyph d="M436 1239l35 195h823l-172 -977q-39 -217 -187.5 -347t-354.5 -130q-244 0 -372 132t-128 332q0 47 10 105l25 139h204l-22 -127q-8 -43 -8 -94q0 -135 74.5 -214t220.5 -79q131 0 223 85t119 243l129 737h-619zM942 1696l-237 -160l-97 131l353 236l276 -238l-109 -125z " glyph-name="Jcircumflex" horiz-adv-x="1316" unicode="Ĵ"/><glyph d="M-180 -369l63 170q37 -16 74 -16q88 0 113 129l194 1110h203l-201 -1143q-49 -281 -295 -280q-81 -1 -151 30zM420 1309l-238 -160l-96 131l352 236l277 -238l-109 -125z" glyph-name="jcircumflex" horiz-adv-x="536" unicode="ĵ"/><glyph d="M1065 0l-305 621h-336l-109 -621h-204l251 1434h205l-108 -621h299l491 621h254l-565 -713l354 -721h-227zM539 -614l-72 75q131 113 149 195q-49 -8 -84.5 21.5t-35.5 74.5q0 49 36.5 84t85.5 35q51 0 87 -37t36 -104q0 -88 -58 -182t-144 -162z" glyph-name="Kcommaaccent" horiz-adv-x="1409" unicode="Ķ"/><glyph d="M784 0l-217 422h-221l-74 -422h-202l252 1434h202l-147 -832h203l323 422h234l-398 -520l258 -504h-213zM379 -614l-72 75q131 113 150 195q-49 -8 -85 21.5t-36 74.5q0 49 37 84t86 35q51 0 87 -37t36 -104q0 -88 -58.5 -182t-144.5 -162z" glyph-name="kcommaaccent" horiz-adv-x="1120" unicode="ķ"/><glyph d="M362 1434h205l-217 -1239h748l-35 -195h-952zM479 1530l-141 78l324 352l137 -137z" glyph-name="Lacute" horiz-adv-x="1200" unicode="Ĺ"/><glyph d="M70 0l252 1434h202l-252 -1434h-202zM420 1530l-141 78l323 352l137 -137z" glyph-name="lacute" horiz-adv-x="524" unicode="ĺ"/><glyph d="M362 1434h205l-217 -1239h748l-35 -195h-952zM471 -614l-72 75q131 113 150 195q-49 -8 -85 21.5t-36 74.5q0 49 37 84t86 35q51 0 87 -37t36 -104q0 -88 -58.5 -182t-144.5 -162z" glyph-name="Lcommaaccent" horiz-adv-x="1200" unicode="Ļ"/><glyph d="M53 -614l-71 75q131 113 149 195q-49 -8 -85 21.5t-36 74.5q0 49 37 84t86 35q51 0 87 -37t36 -104q0 -88 -58.5 -182t-144.5 -162zM70 0l252 1434h202l-252 -1434h-202z" glyph-name="lcommaaccent" horiz-adv-x="524" unicode="ļ"/><glyph d="M362 1434h205l-217 -1239h748l-35 -195h-952zM762 967l-72 75q131 113 150 195q-49 -8 -85 21.5t-36 74.5q0 49 37 84t86 35q51 0 87 -37t36 -104q0 -88 -58.5 -182t-144.5 -162z" glyph-name="Lcaron" horiz-adv-x="1204" unicode="Ľ"/><glyph d="M70 0l252 1434h202l-252 -1434h-202zM651 967l-71 75q131 113 149 195q-49 -8 -85 21.5t-36 74.5q0 49 37 84t86 35q51 0 87 -37t36 -104q0 -88 -58.5 -182t-144.5 -162z" glyph-name="lcaron" horiz-adv-x="677" unicode="ľ"/><glyph d="M362 1434h205l-217 -1239h748l-35 -195h-952zM733 717q0 55 41 94t96 39q49 0 83 -34t34 -81q0 -55 -42 -94t-97 -39q-49 0 -82 34t-33 81z" glyph-name="Ldot" horiz-adv-x="1204" unicode="Ŀ"/><glyph d="M70 0l252 1434h202l-252 -1434h-202zM481 715q0 55 41 94t96 39q49 0 83 -34t34 -81q0 -55 -42 -94t-97 -39q-49 0 -82 34t-33 81z" glyph-name="ldot" horiz-adv-x="684" unicode="ŀ"/><glyph d="M389 1434h205l-94 -537l317 203l-41 -226l-315 -200l-84 -479h747l-34 -195h-953l92 528l-170 -108l39 223l170 109z" glyph-name="Lslash" horiz-adv-x="1226" unicode="Ł"/><glyph d="M92 500l41 223l135 86l111 625h203l-84 -482l127 80l-39 -223l-129 -82l-127 -727h-203l102 586z" glyph-name="lslash" horiz-adv-x="630" unicode="ł"/><glyph d="M315 0h-204l251 1434h209l609 -1131l198 1131h205l-252 -1434h-207l-610 1126zM999 1530l-141 78l324 352l137 -137z" glyph-name="Nacute" horiz-adv-x="1622" unicode="Ń"/><glyph d="M791 0l100 569q8 57 8 88q0 209 -194 209q-125 0 -218.5 -86t-115.5 -221l-99 -559h-202l180 1024h203l-25 -139q135 162 346 162q156 0 245 -91.5t89 -257.5q0 -39 -12 -116l-103 -582h-202zM737 1143l-141 78l324 352l137 -137z" glyph-name="nacute" horiz-adv-x="1230" unicode="ń"/><glyph d="M315 0h-204l251 1434h209l609 -1131l198 1131h205l-252 -1434h-207l-610 1126zM612 -614l-71 75q131 113 149 195q-49 -8 -85 21.5t-36 74.5q0 49 37 84t86 35q51 0 87 -37t36 -104q0 -88 -58.5 -182t-144.5 -162z" glyph-name="Ncommaaccent" horiz-adv-x="1622" unicode="Ņ"/><glyph d="M791 0l100 569q8 57 8 88q0 209 -194 209q-125 0 -218.5 -86t-115.5 -221l-99 -559h-202l180 1024h203l-25 -139q135 162 346 162q156 0 245 -91.5t89 -257.5q0 -39 -12 -116l-103 -582h-202zM422 -614l-72 75q131 113 150 195q-49 -8 -85 21.5t-36 74.5q0 49 37 84 t86 35q51 0 87 -37t36 -104q0 -88 -58.5 -182t-144.5 -162z" glyph-name="ncommaaccent" horiz-adv-x="1230" unicode="ņ"/><glyph d="M315 0h-204l251 1434h209l609 -1131l198 1131h205l-252 -1434h-207l-610 1126zM1018 1737l237 159l97 -129l-353 -237l-278 237l110 125z" glyph-name="Ncaron" horiz-adv-x="1622" unicode="Ň"/><glyph d="M791 0l100 569q8 57 8 88q0 209 -194 209q-125 0 -218.5 -86t-115.5 -221l-99 -559h-202l180 1024h203l-25 -139q135 162 346 162q156 0 245 -91.5t89 -257.5q0 -39 -12 -116l-103 -582h-202zM764 1350l237 159l97 -129l-353 -237l-278 237l111 125z" glyph-name="ncaron" horiz-adv-x="1230" unicode="ň"/><glyph d="M1100 0l100 569q8 57 8 88q0 209 -194 209q-125 0 -218.5 -86t-115.5 -221l-98 -559h-203l180 1024h203l-25 -139q135 162 346 162q156 0 245 -91.5t89 -257.5q0 -39 -12 -116l-102 -582h-203zM242 840l-84 94q180 143 194 270q-61 -16 -106 21t-45 92q0 59 46 102 t107 43q66 0 110 -48t44 -132q0 -117 -76.5 -238.5t-189.5 -203.5z" glyph-name="napostrophe" horiz-adv-x="1542" unicode="ŉ"/><glyph d="M315 0h-204l251 1434h209l609 -1125l198 1125h205l-274 -1561q-49 -279 -314 -279q-106 0 -194 35l59 170q61 -20 119 -20q111 0 131 129l16 92l-612 1126z" glyph-name="Eng" horiz-adv-x="1622" unicode="Ŋ"/><glyph d="M526 -369l64 170q37 -16 74 -16q88 0 112 129l115 655q8 57 8 88q0 106 -52 157.5t-142 51.5q-125 0 -218.5 -86t-115.5 -221l-99 -559h-202l180 1024h203l-25 -139q135 162 346 162q156 0 245 -91.5t89 -257.5q0 -39 -12 -116l-125 -701q-49 -281 -293 -280 q-82 -1 -152 30z" glyph-name="eng" horiz-adv-x="1230" unicode="ŋ"/><glyph d="M145 639q0 330 223.5 572.5t555.5 242.5q301 0 479 -190.5t178 -468.5q0 -330 -223 -572.5t-555 -242.5q-301 0 -479.5 190t-178.5 469zM911 1260q-231 0 -393 -183.5t-162 -427.5q0 -201 124 -338t333 -137q231 0 394 183.5t163 426.5q0 201 -124 338.5t-335 137.5z M1346 1778l-31 -172h-563l30 172h564z" glyph-name="Omacron" unicode="Ō"/><glyph d="M100 459q0 236 163 412t403 176q219 0 349 -138.5t130 -341.5q0 -236 -163 -411.5t-402 -175.5q-219 0 -349.5 138t-130.5 341zM657 862q-147 0 -249.5 -120.5t-102.5 -278.5q0 -129 75 -214t208 -85q147 0 249.5 121t102.5 278q0 129 -75 214t-208 85zM1069 1391 l-31 -172h-563l31 172h563z" glyph-name="omacron" horiz-adv-x="1245" unicode="ō"/><glyph d="M145 639q0 330 223.5 572.5t555.5 242.5q301 0 479 -190.5t178 -468.5q0 -330 -223 -572.5t-555 -242.5q-301 0 -479.5 190t-178.5 469zM911 1260q-231 0 -393 -183.5t-162 -427.5q0 -201 124 -338t333 -137q231 0 394 183.5t163 426.5q0 201 -124 338.5t-335 137.5z M1247 1866l148 -70q-137 -248 -355 -248q-119 0 -198.5 69t-110.5 179l158 70q47 -150 160 -150q116 0 198 150z" glyph-name="Obreve" unicode="Ŏ"/><glyph d="M100 459q0 236 163 412t403 176q219 0 349 -138.5t130 -341.5q0 -236 -163 -411.5t-402 -175.5q-219 0 -349.5 138t-130.5 341zM657 862q-147 0 -249.5 -120.5t-102.5 -278.5q0 -129 75 -214t208 -85q147 0 249.5 121t102.5 278q0 129 -75 214t-208 85zM971 1479l147 -70 q-137 -248 -354 -248q-119 0 -199 68.5t-110 179.5l157 70q47 -150 160 -150q117 0 199 150z" glyph-name="obreve" horiz-adv-x="1245" unicode="ŏ"/><glyph d="M145 639q0 330 223.5 572.5t555.5 242.5q301 0 479 -190.5t178 -468.5q0 -330 -223 -572.5t-555 -242.5q-301 0 -479.5 190t-178.5 469zM911 1260q-231 0 -393 -183.5t-162 -427.5q0 -201 124 -338t333 -137q231 0 394 183.5t163 426.5q0 201 -124 338.5t-335 137.5z M852 1530l-141 65l323 365l137 -123zM1262 1530l-142 65l324 365l135 -123z" glyph-name="Ohungarumlaut" unicode="Ő"/><glyph d="M100 459q0 236 163 412t403 176q219 0 349 -138.5t130 -341.5q0 -236 -163 -411.5t-402 -175.5q-219 0 -349.5 138t-130.5 341zM657 862q-147 0 -249.5 -120.5t-102.5 -278.5q0 -129 75 -214t208 -85q147 0 249.5 121t102.5 278q0 129 -75 214t-208 85zM573 1143l-141 65 l324 365l137 -123zM983 1143l-141 65l323 365l135 -123z" glyph-name="ohungarumlaut" horiz-adv-x="1245" unicode="ő"/><glyph d="M1843 0h-940q-369 0 -562.5 182.5t-193.5 460.5q0 158 53.5 297t155 251t269.5 177.5t379 65.5h1091l-33 -193h-764l-73 -426h616l-33 -192h-618l-76 -430h764zM893 193h18l183 1050h-95q-297 0 -467 -160.5t-170 -420.5q0 -203 136.5 -336t394.5 -133z" glyph-name="OE" horiz-adv-x="2039" unicode="Œ"/><glyph d="M100 459q0 236 163 412t403 176q272 0 403 -209q176 209 455 209q178 0 285.5 -87.5t107.5 -211.5q0 -154 -159 -256.5t-472 -102.5h-141q18 -104 89 -166.5t193 -62.5q164 0 297 116l99 -147q-160 -150 -404 -149q-285 0 -411 204q-170 -205 -428 -204 q-219 0 -349.5 138t-130.5 341zM657 862q-147 0 -249.5 -120.5t-102.5 -278.5q0 -129 75 -214t208 -85q147 0 249.5 121t102.5 278q0 129 -75 214t-208 85zM1528 866q-145 0 -246.5 -84t-132.5 -231h129q221 0 326.5 52t105.5 136q0 57 -50 92t-132 35z" glyph-name="oe" horiz-adv-x="1990" unicode="œ"/><glyph d="M362 1434h558q229 0 347.5 -120t118.5 -302q0 -168 -95 -310.5t-263 -195.5l254 -506h-227l-236 477h-420l-84 -477h-204zM809 670q188 0 275 96t87 233q0 109 -72.5 175.5t-226.5 66.5h-340l-100 -571h377zM932 1530l-141 78l323 352l137 -137z" glyph-name="Racute" horiz-adv-x="1452" unicode="Ŕ"/><glyph d="M455 1024l-60 -336q76 139 195 241.5t262 117.5l-43 -238q-160 -27 -300 -150.5t-169 -285.5l-66 -373h-202l180 1024h203zM571 1143l-141 78l324 352l137 -137z" glyph-name="racute" horiz-adv-x="813" unicode="ŕ"/><glyph d="M111 0l251 1434h558q229 0 347.5 -120t118.5 -302q0 -168 -95 -310.5t-263 -195.5l254 -506h-227l-236 477h-420l-84 -477h-204zM432 670h377q188 0 275 96t87 233q0 109 -72.5 175.5t-226.5 66.5h-340zM522 -614l-71 75q131 113 149 195q-49 -8 -85 21.5t-36 74.5 q0 49 37 84t86 35q51 0 87 -37t36 -104q0 -88 -58.5 -182t-144.5 -162z" glyph-name="Rcommaaccent" horiz-adv-x="1452" unicode="Ŗ"/><glyph d="M455 1024l-60 -336q76 139 195 241.5t262 117.5l-43 -238q-160 -27 -300 -150.5t-169 -285.5l-66 -373h-202l180 1024h203zM51 -614l-71 75q131 113 149 195q-49 -8 -85 21.5t-36 74.5q0 49 37 84t86 35q51 0 87 -37t36 -104q0 -88 -58.5 -182t-144.5 -162z" glyph-name="rcommaaccent" horiz-adv-x="813" unicode="ŗ"/><glyph d="M362 1434h558q229 0 347.5 -120t118.5 -302q0 -168 -95 -310.5t-263 -195.5l254 -506h-227l-236 477h-420l-84 -477h-204zM809 670q188 0 275 96t87 233q0 109 -72.5 175.5t-226.5 66.5h-340l-100 -571h377zM963 1737l237 159l96 -129l-352 -237l-278 237l110 125z" glyph-name="Rcaron" horiz-adv-x="1452" unicode="Ř"/><glyph d="M455 1024l-60 -336q76 139 195 241.5t262 117.5l-43 -238q-160 -27 -300 -150.5t-169 -285.5l-66 -373h-202l180 1024h203zM598 1350l238 159l96 -129l-352 -237l-279 237l111 125z" glyph-name="rcaron" horiz-adv-x="813" unicode="ř"/><glyph d="M88 410l205 39v-31q0 -131 108.5 -192.5t274.5 -61.5q141 0 219 55t78 143q0 23 -5 43.5t-19.5 39t-27 33t-37 31.5t-41 27.5t-49 26t-48 22.5t-53.5 23.5t-50 22.5q-92 41 -153.5 74.5t-128 87t-100.5 120t-34 148.5q0 174 132.5 283.5t373.5 109.5q244 0 392.5 -114.5 t148.5 -333.5v-21h-205v10q0 137 -92 205t-254 68q-135 0 -208 -57.5t-73 -143.5q0 -45 22.5 -83t73 -71.5t91.5 -53t116 -54.5q84 -37 133.5 -61.5t116 -66.5t103.5 -82t63.5 -98.5t26.5 -123.5q0 -178 -134 -285.5t-386 -107.5q-238 0 -409 102t-171 297v31zM823 1530 l-141 78l324 352l137 -137z" glyph-name="Sacute" horiz-adv-x="1325" unicode="Ś"/><glyph d="M57 276l197 50q2 -88 70.5 -134.5t173.5 -46.5q209 0 209 117q0 39 -39 73t-74 49t-113 44q-18 6 -26 10q-301 113 -301 303q0 131 103 218.5t298 87.5q193 0 305.5 -87.5t112.5 -236.5v-6h-201v8q0 154 -211 154q-201 0 -201 -125q0 -53 50.5 -85t158.5 -71 q23 -8 35 -12q145 -57 226 -126t81 -179q0 -133 -97 -217t-304 -84q-201 0 -325 82.5t-128 213.5zM625 1143l-142 78l324 352l137 -137z" glyph-name="sacute" horiz-adv-x="1056" unicode="ś"/><glyph d="M88 410l205 39v-31q0 -131 108.5 -192.5t274.5 -61.5q141 0 219 55t78 143q0 23 -5 43.5t-19.5 39t-27 33t-37 31.5t-41 27.5t-49 26t-48 22.5t-53.5 23.5t-50 22.5q-92 41 -153.5 74.5t-128 87t-100.5 120t-34 148.5q0 174 132.5 283.5t373.5 109.5q244 0 392.5 -114.5 t148.5 -333.5v-21h-205v10q0 137 -92 205t-254 68q-135 0 -208 -57.5t-73 -143.5q0 -45 22.5 -83t73 -71.5t91.5 -53t116 -54.5q84 -37 133.5 -61.5t116 -66.5t103.5 -82t63.5 -98.5t26.5 -123.5q0 -178 -134 -285.5t-386 -107.5q-238 0 -409 102t-171 297v31zM856 1696 l-238 -160l-96 131l352 236l277 -238l-109 -125z" glyph-name="Scircumflex" horiz-adv-x="1325" unicode="Ŝ"/><glyph d="M57 276l197 50q2 -88 70.5 -134.5t173.5 -46.5q209 0 209 117q0 39 -39 73t-74 49t-113 44q-18 6 -26 10q-301 113 -301 303q0 131 103 218.5t298 87.5q193 0 305.5 -87.5t112.5 -236.5v-6h-201v8q0 154 -211 154q-201 0 -201 -125q0 -53 50.5 -85t158.5 -71 q23 -8 35 -12q145 -57 226 -126t81 -179q0 -133 -97 -217t-304 -84q-201 0 -325 82.5t-128 213.5zM659 1309l-237 -160l-96 131l352 236l276 -238l-108 -125z" glyph-name="scircumflex" horiz-adv-x="1056" unicode="ŝ"/><glyph d="M88 410l205 39v-31q0 -131 108.5 -192.5t274.5 -61.5q141 0 219 55t78 143q0 23 -5 43.5t-19.5 39t-27 33t-37 31.5t-41 27.5t-49 26t-48 22.5t-53.5 23.5t-50 22.5q-92 41 -153.5 74.5t-128 87t-100.5 120t-34 148.5q0 174 132.5 283.5t373.5 109.5q244 0 392.5 -114.5 t148.5 -333.5v-21h-205v10q0 137 -92 205t-254 68q-135 0 -208 -57.5t-73 -143.5q0 -45 22.5 -83t73 -71.5t91.5 -53t116 -54.5q84 -37 133.5 -61.5t116 -66.5t103.5 -82t63.5 -98.5t26.5 -123.5q0 -178 -134 -285.5t-386 -107.5h-17l-47 -84q76 -14 119 -63.5t43 -115.5 q0 -92 -64.5 -158.5t-183.5 -66.5q-125 0 -239 76l90 139q78 -55 143 -55q94 0 94 71.5t-129 73.5l-26 49l86 142q-195 27 -322 126t-127 265v31z" glyph-name="Scedilla" horiz-adv-x="1325" unicode="Ş"/><glyph d="M57 276l197 50q2 -88 70.5 -134.5t173.5 -46.5q209 0 209 117q0 39 -39 73t-74 49t-113 44q-18 6 -26 10q-301 113 -301 303q0 131 103 218.5t298 87.5q193 0 305.5 -87.5t112.5 -236.5v-6h-201v8q0 154 -211 154q-201 0 -201 -125q0 -53 50.5 -85t158.5 -71 q23 -8 35 -12q145 -57 226 -126t81 -179q0 -133 -97 -216t-302 -85l-47 -84q76 -14 119 -63.5t43 -115.5q0 -92 -64.5 -158.5t-183.5 -66.5q-125 0 -240 76l90 139q78 -55 144 -55q94 0 94 71.5t-129 73.5l-27 49l84 142q-154 23 -245 99t-93 189z" glyph-name="scedilla" horiz-adv-x="1056" unicode="ş"/><glyph d="M88 410l205 39v-31q0 -131 108.5 -192.5t274.5 -61.5q141 0 219 55t78 143q0 23 -5 43.5t-19.5 39t-27 33t-37 31.5t-41 27.5t-49 26t-48 22.5t-53.5 23.5t-50 22.5q-92 41 -153.5 74.5t-128 87t-100.5 120t-34 148.5q0 174 132.5 283.5t373.5 109.5q244 0 392.5 -114.5 t148.5 -333.5v-21h-205v10q0 137 -92 205t-254 68q-135 0 -208 -57.5t-73 -143.5q0 -45 22.5 -83t73 -71.5t91.5 -53t116 -54.5q84 -37 133.5 -61.5t116 -66.5t103.5 -82t63.5 -98.5t26.5 -123.5q0 -178 -134 -285.5t-386 -107.5q-238 0 -409 102t-171 297v31zM844 1737 l237 159l97 -129l-353 -237l-278 237l110 125z" glyph-name="Scaron" horiz-adv-x="1325" unicode="Š"/><glyph d="M57 276l197 50q2 -88 70.5 -134.5t173.5 -46.5q209 0 209 117q0 39 -39 73t-74 49t-113 44q-18 6 -26 10q-301 113 -301 303q0 131 103 218.5t298 87.5q193 0 305.5 -87.5t112.5 -236.5v-6h-201v8q0 154 -211 154q-201 0 -201 -125q0 -53 50.5 -85t158.5 -71 q23 -8 35 -12q145 -57 226 -126t81 -179q0 -133 -97 -217t-304 -84q-201 0 -325 82.5t-128 213.5zM655 1350l238 159l96 -129l-352 -237l-279 237l111 125z" glyph-name="scaron" horiz-adv-x="1056" unicode="š"/><glyph d="M180 1239l35 195h1147l-35 -195h-471l-217 -1239h-43l-43 -104q76 -14 119 -63.5t43 -115.5q0 -92 -64.5 -158.5t-183.5 -66.5q-127 0 -240 76l90 139q78 -55 144 -55q94 0 94 71.5t-129 73.5l-27 49l80 154h-45l217 1239h-471z" glyph-name="Tcommaaccent" horiz-adv-x="1253" unicode="Ţ"/><glyph d="M96 842l33 182h184l52 293l215 67l-64 -360h354l-32 -182h-355l-82 -471q-8 -47 -8 -74q0 -135 137 -135q72 0 164 43l45 -168q-121 -57 -239 -57q-29 0 -51 2l-50 -86q76 -14 119 -63.5t43 -115.5q0 -92 -64.5 -158.5t-183.5 -66.5q-125 0 -239 76l90 139 q78 -55 143 -55q94 0 94 71.5t-129 73.5l-26 49l96 160q-150 61 -149 266q0 59 12 136l76 434h-185z" glyph-name="tcommaaccent" horiz-adv-x="843" unicode="ţ"/><glyph d="M180 1239l35 195h1147l-35 -195h-471l-217 -1239h-205l217 1239h-471zM842 1737l237 159l97 -129l-353 -237l-278 237l110 125z" glyph-name="Tcaron" horiz-adv-x="1253" unicode="Ť"/><glyph d="M96 842l33 182h184l52 293l215 67l-64 -360h354l-32 -182h-355l-82 -471q-8 -47 -8 -74q0 -135 137 -135q72 0 164 43l45 -168q-121 -57 -239 -57q-307 0 -307 292q0 59 12 136l76 434h-185zM764 1120l-72 76q131 113 150 195q-49 -8 -85 21.5t-36 74.5q0 49 37 84t86 35 q51 0 87 -37t36 -105q0 -88 -58.5 -182t-144.5 -162z" glyph-name="tcaron" horiz-adv-x="843" unicode="ť"/><glyph d="M186 1239l35 195h1147l-35 -195h-471l-78 -444h232l-31 -179h-233l-107 -616h-205l107 616h-221l30 179h224l77 444h-471z" glyph-name="Tbar" horiz-adv-x="1269" unicode="Ŧ"/><glyph d="M106 842l33 182h185l51 293l215 67l-64 -360h355l-33 -182h-354l-35 -193h272l-29 -168h-272l-18 -110q-8 -47 -9 -74q0 -135 138 -135q72 0 164 43l45 -168q-121 -57 -240 -57q-307 0 -307 292q0 59 12 136l12 73h-149l28 168h150l35 193h-185z" glyph-name="tbar" horiz-adv-x="856" unicode="ŧ"/><glyph d="M1341 1434h205l-162 -922q-43 -246 -213 -389t-415 -143q-279 0 -424.5 146t-145.5 374q0 66 13 129l141 805h205l-142 -807q-10 -61 -10 -109q0 -160 94.5 -252t278.5 -92q162 0 274.5 95.5t145.5 279.5zM791 1587h-168q16 139 80.5 225t179.5 86q100 0 170 -98 q6 -8 23.5 -35.5t28.5 -38t25 -10.5q33 0 50.5 38t29.5 114h168q-16 -139 -80.5 -225.5t-179.5 -86.5q-100 0 -170 99q-8 10 -19 28.5t-18.5 28.5t-17.5 18.5t-23 8.5q-33 0 -50 -38t-29 -114z" glyph-name="Utilde" horiz-adv-x="1566" unicode="Ũ"/><glyph d="M438 1024l-100 -569q-8 -57 -8 -88q0 -207 194 -207q125 0 218.5 85t115.5 220l98 559h203l-180 -1024h-203l25 139q-133 -160 -346 -159q-156 0 -245 91t-89 255q0 39 12 116l103 582h202zM549 1200h-168q16 139 80.5 225t179.5 86q100 0 170 -98q6 -8 23.5 -35.5 t28.5 -38t26 -10.5q33 0 50 38t30 114h168q-16 -139 -81 -225.5t-179 -86.5q-100 0 -170 99q-8 10 -19.5 28.5t-18.5 28.5t-17.5 18.5t-22.5 8.5q-33 0 -50.5 -38t-29.5 -114z" glyph-name="utilde" horiz-adv-x="1230" unicode="ũ"/><glyph d="M1341 1434h205l-162 -922q-43 -246 -213 -389t-415 -143q-279 0 -424.5 146t-145.5 374q0 66 13 129l141 805h205l-142 -807q-10 -61 -10 -109q0 -160 94.5 -252t278.5 -92q162 0 274.5 95.5t145.5 279.5zM1296 1778l-30 -172h-564l31 172h563z" glyph-name="Umacron" horiz-adv-x="1566" unicode="Ū"/><glyph d="M438 1024l-100 -569q-8 -57 -8 -88q0 -207 194 -207q125 0 218.5 85t115.5 220l98 559h203l-180 -1024h-203l25 139q-133 -160 -346 -159q-156 0 -245 91t-89 255q0 39 12 116l103 582h202zM1053 1391l-31 -172h-563l30 172h564z" glyph-name="umacron" horiz-adv-x="1230" unicode="ū"/><glyph d="M1341 1434h205l-162 -922q-43 -246 -213 -389t-415 -143q-279 0 -424.5 146t-145.5 374q0 66 13 129l141 805h205l-142 -807q-10 -61 -10 -109q0 -160 94.5 -252t278.5 -92q162 0 274.5 95.5t145.5 279.5zM1198 1866l148 -70q-137 -248 -355 -248q-119 0 -198.5 69 t-110.5 179l158 70q47 -150 159 -150q117 0 199 150z" glyph-name="Ubreve" horiz-adv-x="1566" unicode="Ŭ"/><glyph d="M438 1024l-100 -569q-8 -57 -8 -88q0 -207 194 -207q125 0 218.5 85t115.5 220l98 559h203l-180 -1024h-203l25 139q-133 -160 -346 -159q-156 0 -245 91t-89 255q0 39 12 116l103 582h202zM954 1479l148 -70q-137 -248 -354 -248q-119 0 -199 68.5t-111 179.5l158 70 q47 -150 160 -150q116 0 198 150z" glyph-name="ubreve" horiz-adv-x="1230" unicode="ŭ"/><glyph d="M1341 1434h205l-162 -922q-43 -246 -213 -389t-415 -143q-279 0 -424.5 146t-145.5 374q0 66 13 129l141 805h205l-142 -807q-10 -61 -10 -109q0 -160 94.5 -252t278.5 -92q162 0 274.5 95.5t145.5 279.5zM770 1735q0 106 77 185t179 79q100 0 162.5 -64.5t62.5 -154.5 q0 -106 -77.5 -185t-180.5 -79q-98 0 -160.5 64.5t-62.5 154.5zM1020 1866q-43 0 -79 -34t-36 -91q0 -39 26.5 -65.5t69.5 -26.5t79 33.5t36 91.5q0 39 -26.5 65.5t-69.5 26.5z" glyph-name="Uring" horiz-adv-x="1566" unicode="Ů"/><glyph d="M438 1024l-100 -569q-8 -57 -8 -88q0 -207 194 -207q125 0 218.5 85t115.5 220l98 559h203l-180 -1024h-203l25 139q-133 -160 -346 -159q-156 0 -245 91t-89 255q0 39 12 116l103 582h202zM526 1348q0 106 77 185t179 79q100 0 163 -64.5t63 -154.5q0 -106 -78 -185.5 t-180 -79.5q-98 0 -161 65t-63 155zM776 1479q-43 0 -78.5 -34t-35.5 -91q0 -39 26.5 -65.5t69.5 -26.5t78.5 33.5t35.5 90.5q0 39 -26.5 66t-69.5 27z" glyph-name="uring" horiz-adv-x="1230" unicode="ů"/><glyph d="M1341 1434h205l-162 -922q-43 -246 -213 -389t-415 -143q-279 0 -424.5 146t-145.5 374q0 66 13 129l141 805h205l-142 -807q-10 -61 -10 -109q0 -160 94.5 -252t278.5 -92q162 0 274.5 95.5t145.5 279.5zM803 1530l-141 65l323 365l137 -123zM1212 1530l-141 65l324 365 l135 -123z" glyph-name="Uhungarumlaut" horiz-adv-x="1566" unicode="Ű"/><glyph d="M438 1024l-100 -569q-8 -57 -8 -88q0 -207 194 -207q125 0 218.5 85t115.5 220l98 559h203l-180 -1024h-203l25 139q-133 -160 -346 -159q-156 0 -245 91t-89 255q0 39 12 116l103 582h202zM559 1143l-141 65l323 365l138 -123zM969 1143l-142 65l324 365l135 -123z" glyph-name="uhungarumlaut" horiz-adv-x="1230" unicode="ű"/><glyph d="M1341 1434h205l-162 -922q-31 -172 -126 -296t-238 -185q-252 -197 -252 -310q0 -66 82 -65q23 0 47 4l4 -160q-35 -8 -72 -8q-109 0 -170 47t-61 129q0 154 205 314q-16 -2 -47 -2q-279 0 -424.5 146t-145.5 374q0 66 13 129l141 805h205l-142 -807q-10 -61 -10 -109 q0 -160 94.5 -252t278.5 -92q162 0 274.5 95.5t145.5 279.5z" glyph-name="Uogonek" horiz-adv-x="1566" unicode="Ų"/><glyph d="M438 1024l-100 -569q-8 -57 -8 -88q0 -207 194 -207q125 0 218.5 85t115.5 220l98 559h203l-180 -1024q-213 -172 -213 -279q0 -66 82 -65q23 0 47 4l4 -160q-35 -8 -72 -8q-109 0 -170 47t-61 129q0 96 60.5 173t166.5 159h-47l25 139q-133 -160 -346 -159 q-156 0 -245 91t-89 255q0 39 12 116l103 582h202z" glyph-name="uogonek" horiz-adv-x="1230" unicode="ų"/><glyph d="M629 0h-244l-158 1434h213l119 -1133l535 1133h223l127 -1125l512 1125h231l-661 -1434h-238l-129 1126zM1280 1696l-238 -160l-96 131l352 236l277 -238l-109 -125z" glyph-name="Wcircumflex" horiz-adv-x="2086" unicode="Ŵ"/><glyph d="M508 0h-244l-119 1024h209l74 -786l373 786h223l88 -780l344 780h225l-477 -1024h-241l-89 772zM983 1309l-238 -160l-96 131l352 236l277 -238l-109 -125z" glyph-name="wcircumflex" horiz-adv-x="1650" unicode="ŵ"/><glyph d="M418 1434l305 -705l553 705h266l-739 -926l-88 -508h-205l88 508l-414 926h234zM926 1696l-238 -160l-96 131l352 236l277 -238l-109 -125z" glyph-name="Ycircumflex" horiz-adv-x="1402" unicode="Ŷ"/><glyph d="M-6 -428l-60 182q266 72 424 262l-227 1008h213l156 -782l438 782h233l-548 -946q-252 -436 -629 -506zM717 1309l-238 -160l-96 131l352 236l277 -238l-109 -125z" glyph-name="ycircumflex" horiz-adv-x="1118" unicode="ŷ"/><glyph d="M418 1434l305 -705l553 705h266l-739 -926l-88 -508h-205l88 508l-414 926h234zM608 1681q0 55 42 94.5t98 39.5q49 0 81.5 -34t32.5 -81q0 -55 -41 -94t-96 -39q-49 0 -83 33.5t-34 80.5zM977 1681q0 55 41 94.5t96 39.5q49 0 83 -33t34 -82q0 -55 -42 -94t-97 -39 q-49 0 -82 33.5t-33 80.5z" glyph-name="Ydieresis" horiz-adv-x="1402" unicode="Ÿ"/><glyph d="M236 1239l34 195h1090l-29 -172l-1014 -1067h826l-35 -195h-1114l29 172l1013 1067h-800zM842 1530l-142 78l324 352l137 -137z" glyph-name="Zacute" horiz-adv-x="1294" unicode="Ź"/><glyph d="M154 842l32 182h813l-24 -141l-651 -701h528l-33 -182h-813l25 141l647 701h-524zM618 1143l-141 78l324 352l137 -137z" glyph-name="zacute" horiz-adv-x="1005" unicode="ź"/><glyph d="M236 1239l34 195h1090l-29 -172l-1014 -1067h826l-35 -195h-1114l29 172l1013 1067h-800zM745 1681q0 55 41 94.5t97 39.5q49 0 82.5 -34t33.5 -81q0 -55 -42 -94t-97 -39q-49 0 -82 33.5t-33 80.5z" glyph-name="Zdotaccent" horiz-adv-x="1294" unicode="Ż"/><glyph d="M154 842l32 182h813l-24 -141l-651 -701h528l-33 -182h-813l25 141l647 701h-524zM520 1294q0 55 41 94t96 39q49 0 83 -33.5t34 -80.5q0 -55 -42 -94t-97 -39q-49 0 -82 33.5t-33 80.5z" glyph-name="zdotaccent" horiz-adv-x="1005" unicode="ż"/><glyph d="M236 1239l34 195h1090l-29 -172l-1014 -1067h826l-35 -195h-1114l29 172l1013 1067h-800zM858 1737l238 159l96 -129l-352 -237l-279 237l111 125z" glyph-name="Zcaron" horiz-adv-x="1294" unicode="Ž"/><glyph d="M154 842l32 182h813l-24 -141l-651 -701h528l-33 -182h-813l25 141l647 701h-524zM633 1350l237 159l97 -129l-353 -237l-278 237l110 125z" glyph-name="zcaron" horiz-adv-x="1005" unicode="ž"/><glyph d="M143 711l47 182h183l55 213q90 348 377 348q150 0 270 -80l-94 -157q-84 49 -166 49q-66 0 -115 -38t-77 -147l-50 -188h334l-47 -182h-334l-198 -768q-92 -350 -375 -351q-131 0 -246 68l88 160q72 -39 148 -39q141 0 190 186l193 744h-183z" glyph-name="florin" horiz-adv-x="968" unicode="ƒ"/><glyph d="M1632 1530l-141 78l324 352l137 -137zM1079 1434h1018l-35 -193h-762l-73 -426h614l-35 -192h-614l-76 -430h762l-33 -193h-966l53 307h-518l-244 -307h-258zM565 498h402l112 643z" glyph-name="AEacute" horiz-adv-x="2039" unicode="Ǽ"/><glyph d="M1808 276l101 -147q-160 -150 -406 -149q-172 0 -281.5 77.5t-150.5 210.5l-47 -268h-178l22 133q-143 -154 -341.5 -153.5t-312.5 131.5t-114 327q0 150 60.5 287t183.5 229.5t279 92.5q258 0 368 -209l33 186h178l-35 -201q162 223 443 224q178 0 285.5 -87.5 t107.5 -211.5q0 -154 -158.5 -256.5t-472.5 -102.5h-141q18 -104 89 -166.5t193 -62.5q164 -1 295 116zM584 164q147 0 247.5 119.5t100.5 281.5q0 127 -74 212t-201 85q-150 0 -249 -123t-99 -282q0 -127 73 -210t202 -83zM1614 866q-145 0 -246.5 -84t-132.5 -231h129 q221 0 326.5 52t105.5 136q0 57 -50 92t-132 35zM1184 1143l-142 78l324 352l137 -137z" glyph-name="aeacute" horiz-adv-x="2074" unicode="ǽ"/><glyph d="M1022 1530l-141 78l323 352l137 -137zM147 637q0 338 227.5 577.5t551.5 239.5q246 0 420 -137l112 117h219l-223 -230q129 -174 129 -409q0 -334 -227.5 -574.5t-550.5 -240.5q-246 0 -416 131l-108 -111h-222l220 223q-132 174 -132 414zM915 1260q-227 0 -390 -181.5 t-163 -431.5q0 -147 70 -264l766 784q-119 93 -283 93zM815 174q227 0 390 180.5t163 429.5q0 143 -68 263l-763 -785q116 -88 278 -88z" glyph-name="Oslashacute" horiz-adv-x="1658" unicode="Ǿ"/><glyph d="M100 457q0 246 167 418t401 172q164 0 286 -86l60 63h192l-153 -162q92 -127 92 -293q0 -233 -160 -411t-405 -178q-162 0 -283 81l-57 -61h-195l150 160q-95 125 -95 297zM657 864q-150 0 -252 -120.5t-102 -282.5q0 -88 33 -152l483 510q-68 45 -162 45zM588 162 q154 0 254 120.5t100 280.5q0 84 -31 148l-481 -508q66 -41 158 -41zM745 1143l-141 78l324 352l137 -137z" glyph-name="oslashacute" horiz-adv-x="1247" unicode="ǿ"/><glyph d="M88 410l205 39v-31q0 -131 108.5 -192.5t274.5 -61.5q141 0 219 55t78 143q0 23 -5 43.5t-19.5 39t-27 33t-37 31.5t-41 27.5t-49 26t-48 22.5t-53.5 23.5t-50 22.5q-92 41 -153.5 74.5t-128 87t-100.5 120t-34 148.5q0 174 132.5 283.5t373.5 109.5q244 0 392.5 -114.5 t148.5 -333.5v-21h-205v10q0 137 -92 205t-254 68q-135 0 -208 -57.5t-73 -143.5q0 -45 22.5 -83t73 -71.5t91.5 -53t116 -54.5q84 -37 133.5 -61.5t116 -66.5t103.5 -82t63.5 -98.5t26.5 -123.5q0 -178 -134 -285.5t-386 -107.5q-238 0 -409 102t-171 297v31zM479 -614 l-71 75q131 113 149 195q-49 -8 -85 21.5t-36 74.5q0 49 37 84t86 35q51 0 87 -37t36 -104q0 -88 -58.5 -182t-144.5 -162z" glyph-name="Scommaaccent" horiz-adv-x="1325" unicode="Ș"/><glyph d="M57 276l197 50q2 -88 70.5 -134.5t173.5 -46.5q209 0 209 117q0 39 -39 73t-74 49t-113 44q-18 6 -26 10q-301 113 -301 303q0 131 103 218.5t298 87.5q193 0 305.5 -87.5t112.5 -236.5v-6h-201v8q0 154 -211 154q-201 0 -201 -125q0 -53 50.5 -85t158.5 -71 q23 -8 35 -12q145 -57 226 -126t81 -179q0 -133 -97 -217t-304 -84q-201 0 -325 82.5t-128 213.5zM340 -614l-72 75q131 113 150 195q-49 -8 -85 21.5t-36 74.5q0 49 37 84t86 35q51 0 87 -37t36 -104q0 -88 -58.5 -182t-144.5 -162z" glyph-name="scommaaccent" horiz-adv-x="1056" unicode="ș"/><glyph d="M180 1239l35 195h1147l-35 -195h-471l-217 -1239h-205l217 1239h-471zM426 -614l-72 75q131 113 150 195q-49 -8 -85 21.5t-36 74.5q0 49 37 84t86 35q51 0 87 -37t36 -104q0 -88 -58.5 -182t-144.5 -162z" glyph-name="uni021A" horiz-adv-x="1253" unicode="Ț"/><glyph d="M96 842l33 182h184l52 293l215 67l-64 -360h354l-32 -182h-355l-82 -471q-8 -47 -8 -74q0 -135 137 -135q72 0 164 43l45 -168q-121 -57 -239 -57q-307 0 -307 292q0 59 12 136l76 434h-185zM307 -614l-71 75q131 113 149 195q-49 -8 -85 21.5t-36 74.5q0 49 37 84t86 35 q51 0 87 -37t36 -104q0 -88 -58.5 -182t-144.5 -162z" glyph-name="uni021B" horiz-adv-x="843" unicode="ț"/><glyph d="M645 1696l-237 -160l-97 131l353 236l276 -238l-109 -125z" glyph-name="circumflex" horiz-adv-x="679" unicode="ˆ"/><glyph d="M621 1737l237 159l96 -129l-352 -237l-278 237l110 125z" glyph-name="caron" horiz-adv-x="679" unicode="ˇ"/><glyph d="M829 1866l148 -70q-137 -248 -354 -248q-119 0 -199 69t-111 179l158 70q47 -150 160 -150q116 0 198 150z" glyph-name="breve" horiz-adv-x="690" unicode="˘"/><glyph d="M285 1681q0 55 41 94.5t96 39.5q49 0 83 -34t34 -81q0 -55 -42 -94t-98 -39q-49 0 -81.5 33.5t-32.5 80.5z" glyph-name="dotaccent" horiz-adv-x="237" unicode="˙"/><glyph d="M293 1735q0 106 76.5 185t179.5 79q100 0 162.5 -64.5t62.5 -154.5q0 -106 -78 -185t-180 -79q-98 0 -160.5 64.5t-62.5 154.5zM543 1866q-43 0 -79 -34t-36 -91q0 -39 26.5 -65.5t69.5 -26.5t79 33.5t36 91.5q0 39 -26.5 65.5t-69.5 26.5z" glyph-name="ring" horiz-adv-x="301" unicode="˚"/><glyph d="M209 39l104 -39q-213 -172 -213 -279q0 -66 82 -65q23 0 47 4l4 -160q-35 -8 -71 -8q-109 0 -170.5 47t-61.5 129q0 76 49.5 151t94.5 112.5t135 107.5z" glyph-name="ogonek" horiz-adv-x="346" unicode="˛"/><glyph d="M444 1587h-168q16 139 81 225t180 86q100 0 170 -98q6 -8 23.5 -35.5t28.5 -38t25 -10.5q33 0 50.5 38t29.5 114h168q-16 -139 -80.5 -225.5t-179.5 -86.5q-100 0 -170 99q-8 10 -19.5 28.5t-18.5 28.5t-17 18.5t-23 8.5q-33 0 -50.5 -38t-29.5 -114z" glyph-name="tilde" horiz-adv-x="724" unicode="˜"/><glyph d="M383 1530l-141 65l323 365l137 -123zM793 1530l-142 65l324 365l135 -123z" glyph-name="hungarumlaut" horiz-adv-x="788" unicode="˝"/><glyph d="M1444 193l-33 -193h-541l33 193q199 39 330 209.5t131 379.5q0 199 -122 337t-322 138q-223 0 -387 -181t-164 -425q0 -154 74.5 -277.5t201.5 -180.5l-33 -193h-542l32 193h232q-176 193 -176 466q0 328 226 561.5t544 233.5q293 0 472 -187.5t179 -461.5 q0 -174 -73.5 -334t-213.5 -278h152z" glyph-name="Omega" horiz-adv-x="1671" unicode="Ω"/><glyph d="M1290 1024l-33 -184h-163l-148 -840h-198l147 840h-401l-146 -840h-201l148 840h-162l33 184h1124z" glyph-name="pi" horiz-adv-x="1275" unicode="π"/><glyph d="M629 0h-244l-158 1434h213l119 -1133l535 1133h223l127 -1125l512 1125h231l-661 -1434h-238l-129 1126zM1411 1583l-162 -53l-211 319l176 111z" glyph-name="Wgrave" horiz-adv-x="2086" unicode="Ẁ"/><glyph d="M508 0h-244l-119 1024h209l74 -786l373 786h223l88 -780l344 780h225l-477 -1024h-241l-89 772zM1114 1196l-162 -53l-211 319l177 111z" glyph-name="wgrave" horiz-adv-x="1650" unicode="ẁ"/><glyph d="M629 0h-244l-158 1434h213l119 -1133l535 1133h223l127 -1125l512 1125h231l-661 -1434h-238l-129 1126zM1245 1530l-141 78l323 352l138 -137z" glyph-name="Wacute" horiz-adv-x="2086" unicode="Ẃ"/><glyph d="M508 0h-244l-119 1024h209l74 -786l373 786h223l88 -780l344 780h225l-477 -1024h-241l-89 772zM950 1143l-141 78l324 352l137 -137z" glyph-name="wacute" horiz-adv-x="1650" unicode="ẃ"/><glyph d="M629 0h-244l-158 1434h213l119 -1133l535 1133h223l127 -1125l512 1125h231l-661 -1434h-238l-129 1126zM961 1681q0 55 41.5 94.5t97.5 39.5q49 0 81.5 -34t32.5 -81q0 -55 -40.5 -94t-96.5 -39q-49 0 -82.5 33.5t-33.5 80.5zM1329 1681q0 55 41 94.5t96 39.5 q49 0 83 -33t34 -82q0 -55 -42 -94t-97 -39q-49 0 -82 33.5t-33 80.5z" glyph-name="Wdieresis" horiz-adv-x="2086" unicode="Ẅ"/><glyph d="M508 0h-244l-119 1024h209l74 -786l373 786h223l88 -780l344 780h225l-477 -1024h-241l-89 772zM664 1294q0 55 42 94t97 39q49 0 82 -33.5t33 -80.5q0 -55 -41 -94t-97 -39q-49 0 -82.5 33.5t-33.5 80.5zM1032 1294q0 55 41 94t96 39q51 0 84 -33.5t33 -80.5 q0 -55 -42 -94t-97 -39q-49 0 -82 33.5t-33 80.5z" glyph-name="wdieresis" horiz-adv-x="1650" unicode="ẅ"/><glyph d="M508 186l131 150q174 -164 375 -164q143 0 221 80t78 199q0 102 -76 164.5t-221 62.5q-49 0 -103 -10l-49 137l469 348q-242 119 -452 119q-356 0 -420 -354l-162 -918h-205l170 961q39 229 199 366t411 137q176 0 366 -63.5t331 -143.5l-31 -174l-328 -247 q135 -27 222.5 -126.5t87.5 -246.5q0 -121 -51.5 -227.5t-169 -181t-283.5 -74.5q-287 -1 -510 206z" glyph-name="uni1E9E" horiz-adv-x="1636" unicode="ẞ"/><glyph d="M418 1434l305 -705l553 705h266l-739 -926l-88 -508h-205l88 508l-414 926h234zM1059 1583l-162 -53l-211 319l176 111z" glyph-name="Ygrave" horiz-adv-x="1402" unicode="Ỳ"/><glyph d="M-6 -428l-60 182q266 72 424 262l-227 1008h213l156 -782l438 782h233l-548 -946q-252 -436 -629 -506zM848 1196l-162 -53l-211 319l176 111z" glyph-name="ygrave" horiz-adv-x="1118" unicode="ỳ"/><glyph d="M1016 690l-33 -184h-838l33 184h838z" glyph-name="endash" horiz-adv-x="1134" unicode="–"/><glyph d="M1290 690l-33 -184h-1112l33 184h1112z" glyph-name="emdash" horiz-adv-x="1406" unicode="—"/><glyph d="M473 1491l84 -94q-180 -143 -195 -271q61 16 106.5 -20.5t45.5 -91.5q0 -59 -46 -102.5t-108 -43.5q-66 0 -109.5 48.5t-43.5 132.5q0 117 76.5 238.5t189.5 203.5z" glyph-name="quoteleft" horiz-adv-x="542" unicode="‘"/><glyph d="M293 842l-84 94q180 143 194 270q-61 -16 -106 21t-45 92q0 59 46 102t108 43q66 0 109.5 -48t43.5 -132q0 -117 -76.5 -238.5t-189.5 -203.5z" glyph-name="quoteright" horiz-adv-x="536" unicode="’"/><glyph d="M76 -377l-84 94q180 143 194 271q-61 -16 -106 20.5t-45 91.5q0 59 46 102.5t107 43.5q66 0 110 -48t44 -132q0 -117 -76.5 -239t-189.5 -204z" glyph-name="quotesinglbase" horiz-adv-x="520" unicode="‚"/><glyph d="M473 1491l84 -94q-180 -143 -195 -271q61 16 106.5 -20.5t45.5 -91.5q0 -59 -46 -102.5t-108 -43.5q-66 0 -109.5 48.5t-43.5 132.5q0 117 76.5 238.5t189.5 203.5zM893 1491l84 -94q-180 -143 -195 -271q61 16 106.5 -20.5t45.5 -91.5q0 -59 -46 -102.5t-108 -43.5 q-66 0 -109.5 48.5t-43.5 132.5q0 117 76.5 238.5t189.5 203.5z" glyph-name="quotedblleft" horiz-adv-x="962" unicode="“"/><glyph d="M293 842l-84 94q180 143 194 270q-61 -16 -106 21t-45 92q0 59 46 102t108 43q66 0 109.5 -48t43.5 -132q0 -117 -76.5 -238.5t-189.5 -203.5zM711 842l-84 94q180 143 194 270q-61 -16 -106 21t-45 92q0 59 46 102t107 43q66 0 110 -48t44 -132q0 -117 -76.5 -238.5 t-189.5 -203.5z" glyph-name="quotedblright" horiz-adv-x="954" unicode="”"/><glyph d="M76 -377l-84 94q180 143 194 271q-61 -16 -106 20.5t-45 91.5q0 59 46 102.5t107 43.5q66 0 110 -48t44 -132q0 -117 -76.5 -239t-189.5 -204zM496 -377l-84 94q180 143 194 271q-61 -16 -106 20.5t-45 91.5q0 59 46 102.5t107 43.5q66 0 110 -48t44 -132 q0 -117 -76.5 -239t-189.5 -204z" glyph-name="quotedblbase" horiz-adv-x="940" unicode="„"/><glyph d="M954 1073l-32 -180h-277l-156 -893h-186l158 893h-277l33 180h277l63 361h184l-63 -361h276z" glyph-name="dagger" horiz-adv-x="974" unicode="†"/><glyph d="M954 1073l-30 -180h-277l-63 -352h276l-31 -181h-276l-66 -360h-182l64 360h-277l31 181h276l64 352h-277l31 180h277l63 361h184l-63 -361h276z" glyph-name="daggerdbl" horiz-adv-x="974" unicode="‡"/><glyph d="M180 580q0 98 72 168.5t168 70.5q90 0 146.5 -60.5t56.5 -144.5q0 -98 -72 -168.5t-168 -70.5q-90 0 -146.5 60.5t-56.5 144.5z" glyph-name="bullet" horiz-adv-x="774" unicode="•"/><glyph d="M57 96q0 57 43 98.5t101 41.5q51 0 84.5 -35t33.5 -84q0 -57 -43 -97t-100 -40q-51 0 -85 33.5t-34 82.5zM481 96q0 57 43 98.5t101 41.5q51 0 84.5 -35t33.5 -84q0 -57 -43 -97t-100 -40q-51 0 -85 33.5t-34 82.5zM905 96q0 57 43 98.5t99 41.5q51 0 85.5 -35t34.5 -84 q0 -57 -43 -97t-100 -40q-51 0 -85 33.5t-34 82.5z" glyph-name="ellipsis" horiz-adv-x="1351" unicode="…"/><glyph d="M352 0h-221l1286 1434h221zM182 1081q0 154 112 263.5t257 109.5q141 0 230 -91t89 -222q0 -154 -111.5 -263.5t-256.5 -109.5q-141 0 -230.5 91t-89.5 222zM543 1284q-78 0 -132.5 -57.5t-54.5 -136.5q0 -66 42 -109t112 -43q78 0 132 57.5t54 137.5q0 66 -41.5 108.5 t-111.5 42.5zM901 293q0 154 111.5 263.5t257.5 109.5q141 0 230 -91.5t89 -222.5q0 -154 -111.5 -263t-256.5 -109q-141 0 -230.5 91t-89.5 222zM1262 496q-78 0 -132.5 -57.5t-54.5 -137.5q0 -66 42 -108.5t112 -42.5q78 0 132 57t54 137q0 66 -41.5 109t-111.5 43z M1679 293q0 154 112 263.5t257 109.5q141 0 230 -91.5t89 -222.5q0 -154 -111.5 -263t-256.5 -109q-141 0 -230.5 91t-89.5 222zM2040 496q-78 0 -132.5 -57.5t-54.5 -137.5q0 -66 42 -108.5t112 -42.5q78 0 132 57t54 137q0 66 -41.5 109t-111.5 43z" glyph-name="perthousand" horiz-adv-x="2463" unicode="‰"/><glyph d="M322 508l153 -295l-156 -98l-229 413l375 416l131 -121z" glyph-name="guilsinglleft" horiz-adv-x="653" unicode="‹"/><glyph d="M336 551l-154 295l156 98l229 -414l-374 -415l-132 121z" glyph-name="guilsinglright" horiz-adv-x="651" unicode="›"/><glyph d="M-297 0h-174l1155 1434h174z" glyph-name="fraction" horiz-adv-x="321" unicode="⁄"/><glyph d="M166 934q0 113 39 225.5t130 199.5t212 87q143 0 217 -94.5t74 -241.5q0 -113 -39 -225.5t-129 -199.5t-211 -87q-145 0 -219 94.5t-74 241.5zM543 1294q-86 0 -147.5 -106.5t-61.5 -253.5q0 -184 129 -184q84 0 145.5 106.5t61.5 253.5q0 184 -127 184z" glyph-name="uni2070" horiz-adv-x="825" unicode="⁰"/><glyph d="M606 608h-160l29 162h-366l20 115l293 549h184l-282 -512h178l41 227l168 45l-49 -272h110l-27 -152h-110z" glyph-name="uni2074" horiz-adv-x="759" unicode="⁴"/><glyph d="M293 1434h459l-27 -152h-303l-29 -164q154 -2 231.5 -72.5t77.5 -175.5q0 -43 -13 -86t-44 -87t-92 -71.5t-145 -27.5q-172 0 -310 107l99 120q121 -78 206 -77q70 0 102 32.5t32 77.5q0 49 -47.5 85t-155.5 36h-123z" glyph-name="uni2075" horiz-adv-x="716" unicode="⁵"/><glyph d="M735 1434l-243 -263q115 0 184 -69.5t69 -175.5q0 -133 -94 -230.5t-229 -97.5q-129 0 -205 81t-76 191q0 80 38 143.5t110 141.5l258 279h188zM459 1042q-63 0 -108.5 -51t-45.5 -117q0 -53 34 -89.5t89 -36.5q61 0 106.5 51t45.5 119q0 53 -33 88.5t-88 35.5z" glyph-name="uni2076" horiz-adv-x="741" unicode="⁶"/><glyph d="M197 1282l26 152h518l-20 -123l-416 -703h-188l409 674h-329z" glyph-name="uni2077" horiz-adv-x="638" unicode="⁷"/><glyph d="M754 856q0 -106 -82 -182t-226 -76q-137 0 -222 64.5t-85 166.5q0 174 168 236q-70 51 -69 137q0 104 78.5 174t197.5 70q123 0 200 -61.5t77 -155.5q0 -141 -129 -199q92 -63 92 -174zM442 737q82 0 115 39t33 86q0 49 -35 80t-98.5 31t-106.5 -35t-43 -98q0 -45 36 -74 t99 -29zM504 1104q61 0 93 36t32 81q0 39 -29 64.5t-84 25.5q-57 0 -88 -35t-31 -78q0 -41 29 -67.5t78 -26.5z" glyph-name="uni2078" horiz-adv-x="776" unicode="⁸"/><glyph d="M184 608l244 264q-115 0 -184.5 70t-69.5 176q0 133 94 230.5t230 97.5q129 0 204.5 -81t75.5 -191q0 -80 -38 -143.5t-109 -141.5l-258 -281h-189zM461 1001q63 0 108 51.5t45 116.5q0 53 -33.5 90t-88.5 37q-61 0 -106.5 -51t-45.5 -119q0 -53 33 -89t88 -36z" glyph-name="uni2079" horiz-adv-x="739" unicode="⁹"/><glyph d="M-8 -49q0 113 39 225.5t130 199.5t212 87q143 0 217 -94.5t74 -241.5q0 -113 -39 -225.5t-129 -199.5t-211 -87q-145 0 -219 94.5t-74 241.5zM369 311q-86 0 -147.5 -106.5t-61.5 -253.5q0 -184 129 -184q84 0 145.5 106.5t61.5 253.5q0 184 -127 184z" glyph-name="uni2080" horiz-adv-x="825" unicode="₀"/><glyph d="M55 -375l107 617l-160 -82l33 184l207 107h120l-145 -826h-162z" glyph-name="uni2081" horiz-adv-x="501" unicode="₁"/><glyph d="M512 -223l-29 -152h-551l21 119q258 178 371 295q94 98 94 178q0 43 -25.5 68.5t-73.5 25.5q-45 0 -85.5 -31.5t-51.5 -117.5h-159q10 88 43.5 151.5t82 94t92.5 43t87 12.5q117 0 188.5 -64.5t71.5 -162.5q0 -147 -154 -302q-78 -78 -186 -157h264z" glyph-name="uni2082" horiz-adv-x="729" unicode="₂"/><glyph d="M-72 -279l101 121q123 -78 209 -78q127 0 127 97q0 49 -49.5 80.5t-149.5 33.5l24 131q109 -2 164.5 36t55.5 96q0 37 -28 60.5t-69 23.5q-104 0 -114 -101h-158q6 127 93 184.5t188 57.5q106 0 179.5 -59.5t73.5 -149.5q0 -158 -157 -221q113 -61 112 -168 q0 -109 -74.5 -179.5t-215.5 -70.5q-169 0 -312 106z" glyph-name="uni2083" horiz-adv-x="729" unicode="₃"/><glyph d="M432 -375h-160l29 162h-367l21 115l293 549h184l-282 -512h178l41 227l168 45l-50 -272h111l-27 -152h-110z" glyph-name="uni2084" horiz-adv-x="759" unicode="₄"/><glyph d="M119 451h459l-27 -152h-303l-29 -164q154 -2 231.5 -72.5t77.5 -175.5q0 -43 -13 -86t-44 -87t-92.5 -71.5t-145.5 -27.5q-172 0 -309 106l99 121q121 -78 206 -78q70 0 101.5 33t31.5 78q0 49 -47 85t-155 36h-123z" glyph-name="uni2085" horiz-adv-x="716" unicode="₅"/><glyph d="M561 451l-244 -263q115 0 184.5 -69.5t69.5 -175.5q0 -133 -94 -230.5t-229 -97.5q-129 0 -205 81t-76 191q0 80 38 143.5t110 141.5l258 279h188zM285 59q-63 0 -108.5 -51t-45.5 -117q0 -53 34 -90t89 -37q61 0 106.5 51.5t45.5 118.5q0 53 -33 89t-88 36z" glyph-name="uni2086" horiz-adv-x="741" unicode="₆"/><glyph d="M25 299l26 152h518l-20 -123l-416 -703h-188l409 674h-329z" glyph-name="uni2087" horiz-adv-x="638" unicode="₇"/><glyph d="M580 -127q0 -106 -82 -182t-226 -76q-137 0 -222 64.5t-85 166.5q0 174 168 236q-70 51 -70 137q0 104 79 174t198 70q123 0 199.5 -61.5t76.5 -155.5q0 -141 -129 -199q93 -63 93 -174zM268 -246q82 0 115 39t33 86q0 49 -35 80t-98.5 31t-106.5 -35t-43 -98 q0 -45 36 -74t99 -29zM330 121q61 0 93 36t32 81q0 39 -29 64.5t-84 25.5q-57 0 -88 -35t-31 -78q0 -41 29 -67.5t78 -26.5z" glyph-name="uni2088" horiz-adv-x="776" unicode="₈"/><glyph d="M10 -375l244 264q-115 0 -184.5 70t-69.5 176q0 133 94 230.5t230 97.5q129 0 204.5 -81t75.5 -192q0 -80 -38 -143t-109 -141l-258 -281h-189zM287 18q63 0 108 51.5t45 116.5q0 53 -33.5 90t-89.5 37q-61 0 -106 -51t-45 -119q0 -53 33 -89t88 -36z" glyph-name="uni2089" horiz-adv-x="739" unicode="₉"/><glyph d="M147 700l35 193l180 53l87 488h206l-75 -424l542 159l-32 -190l-543 -160l-21 -110l543 159l-33 -190l-542 -160l-58 -325h199q264 0 346 288l197 -35q-68 -227 -197 -336.5t-360 -109.5h-424l79 453l-182 -54l35 193l180 53l21 109z" glyph-name="lira" horiz-adv-x="1267" unicode="₤"/><glyph d="M639 0h-260l-2 477h-279l33 185h244v122h-221l32 185h187l-2 465h207v-1086l374 1086h246l-14 -1078l381 1078h217l-168 -465h188l-33 -185h-221l-45 -122h244l-33 -185h-276l-172 -477h-260l8 1071z" glyph-name="uni20A9" horiz-adv-x="1828" unicode="₩"/><glyph d="M1196 272l111 -149q-190 -143 -412 -143q-236 0 -395.5 132t-208.5 347h-201l31 166h151v14q0 57 19 166h-139l30 166h160q94 225 280.5 354t405.5 129q295 0 475 -221l-157 -123q-127 152 -326 152q-137 0 -258 -77t-195 -214h717l-74 -166h-706q-20 -86 -21 -162v-18 h660l-76 -166h-557q45 -131 147.5 -209t249.5 -78q152 0 289 100z" glyph-name="Euro" horiz-adv-x="1476" unicode="€"/><glyph d="M219 889l33 178h420q-47 182 -293 182h-94l32 185h861l-82 -179h-293q68 -78 84 -188h225l-80 -178h-153q-37 -178 -154 -285.5t-287 -130.5l357 -473h-248l-393 512l26 150h148q272 0 336 227h-445z" glyph-name="uni20B9" horiz-adv-x="1101" unicode="₹"/><glyph d="M74 258l30 184h125l17 99h-123l33 190h125l122 703h396q236 0 352.5 -113t116.5 -285q0 -217 -141.5 -356t-358.5 -139h-319l-19 -99h377l-33 -184h-377l-45 -258h-200l45 258h-123zM481 731h281q127 0 211 81t84 206q0 100 -67.5 162.5t-205.5 62.5h-213z" glyph-name="uni20BD" horiz-adv-x="1265" unicode="₽"/><glyph d="M139 350l-69 156l204 115l97 542q33 190 126 280.5t222 90.5q117 0 190.5 -70.5t73.5 -195.5q0 -168 -127 -361.5t-395 -374.5l-27 -157q-6 -41 -6 -76q0 -137 109 -137q84 0 174 127l135 -115q-147 -195 -330 -194q-145 0 -217 86t-72 229q0 55 9 102zM575 1180 l-71 -400q135 104 218 235.5t83 229.5q0 51 -24.5 81t-69.5 30q-103 0 -136 -176z" glyph-name="afii61289" horiz-adv-x="960" unicode="ℓ"/><glyph d="M1618 440l27 152h616l-27 -152h-616zM315 0h-204l251 1434h209l609 -1131l198 1131h205l-252 -1434h-207l-610 1126zM1671 1032q0 166 112.5 284t272.5 118q158 0 250 -94.5t92 -231.5q0 -166 -112.5 -283.5t-272.5 -117.5q-158 0 -250 94t-92 231zM2052 1282 q-86 0 -149.5 -69.5t-63.5 -174.5q0 -78 47 -129t131 -51q86 0 149.5 69.5t63.5 174.5q0 78 -47 129t-131 51z" glyph-name="afii61352" horiz-adv-x="2396" unicode="№"/><glyph d="M1319 897h-129l55 317l-180 -249h-76l-88 270l-59 -338h-127l94 537h133l107 -322l229 322h135zM215 1311l23 123h487l-23 -123h-180l-71 -414h-127l71 414h-180z" glyph-name="trademark" horiz-adv-x="1417" unicode="™"/><glyph d="M1520 694h-1137l-72 -409q76 -115 198 -181.5t273 -66.5q162 0 321 85t283 269l48 -35q-131 -195 -304.5 -285.5t-349.5 -90.5q-281 0 -458 197.5t-177 469.5q0 211 107.5 398.5t284 298t368.5 110.5q279 0 450 -192.5t171 -462.5q0 -54 -6 -105zM907 1397 q-229 0 -430 -168l-84 -475h897l72 401q-76 113 -193 177.5t-262 64.5z" glyph-name="estimated" horiz-adv-x="1576" unicode="℮"/><glyph d="M295 0h-174l1155 1434h174zM248 608l106 617l-159 -82l32 184l207 107h121l-145 -826h-162zM1548 248q0 -106 -82 -182t-225 -76q-137 0 -222 64.5t-85 166.5q0 174 168 236q-70 51 -70 137q0 104 79 174t198 70q123 0 199.5 -61.5t76.5 -155.5q0 -141 -129 -199 q92 -63 92 -174zM1237 129q82 0 114.5 39t32.5 86q0 49 -34.5 80t-98 31t-106.5 -35t-43 -99q0 -45 36 -73.5t99 -28.5zM1298 496q61 0 93 35.5t32 80.5q0 39 -28.5 64.5t-83.5 25.5q-57 0 -88 -34.5t-31 -77.5q0 -41 28.5 -67.5t77.5 -26.5z" glyph-name="oneeighth" horiz-adv-x="1683" unicode="⅛"/><glyph d="M494 0h-175l1156 1434h174zM1749 248q0 -106 -82 -182t-225 -76q-137 0 -222 64.5t-85 166.5q0 174 168 236q-70 51 -70 137q0 104 79 174t197 70q123 0 200 -61.5t77 -155.5q0 -141 -129 -199q92 -63 92 -174zM1438 129q82 0 114.5 39t32.5 86q0 49 -34.5 80t-98 31 t-106.5 -35t-43 -99q0 -45 36 -73.5t99 -28.5zM1499 496q61 0 93 35.5t32 80.5q0 39 -28.5 64.5t-84.5 25.5q-57 0 -87.5 -34.5t-30.5 -77.5q0 -41 28.5 -67.5t77.5 -26.5zM117 705l100 120q123 -78 209 -77q127 0 127 96q0 49 -49 80.5t-150 33.5l25 132q109 -2 164 35.5 t55 95.5q0 37 -27.5 60.5t-68.5 23.5q-104 0 -115 -101h-158q6 127 93.5 184.5t187.5 57.5q106 0 180 -59.5t74 -149.5q0 -158 -158 -221q113 -61 113 -168q0 -109 -75 -179.5t-216 -70.5q-168 1 -311 107z" glyph-name="threeeighths" horiz-adv-x="1882" unicode="⅜"/><glyph d="M469 0h-174l1155 1434h174zM309 1434h459l-27 -152h-303l-28 -164q154 -2 231.5 -72.5t77.5 -175.5q0 -43 -13.5 -86t-44 -87t-92 -71.5t-145.5 -27.5q-172 0 -309 107l98 120q121 -78 207 -77q70 0 101.5 32.5t31.5 77.5q0 49 -47 85t-156 36h-123zM1722 248 q0 -106 -81.5 -182t-225.5 -76q-137 0 -222 64.5t-85 166.5q0 174 168 236q-70 51 -70 137q0 104 79 174t198 70q123 0 199.5 -61.5t76.5 -155.5q0 -141 -129 -199q92 -63 92 -174zM1411 129q82 0 115 39t33 86q0 49 -35 80t-98.5 31t-106.5 -35t-43 -99q0 -45 36 -73.5 t99 -28.5zM1473 496q61 0 92.5 35.5t31.5 80.5q0 39 -28.5 64.5t-83.5 25.5q-57 0 -88 -34.5t-31 -77.5q0 -41 29 -67.5t78 -26.5z" glyph-name="fiveeighths" horiz-adv-x="1859" unicode="⅝"/><glyph d="M283 0h-174l1155 1434h174zM1540 248q0 -106 -82 -182t-225 -76q-137 0 -222 64.5t-85 166.5q0 174 168 236q-70 51 -70 137q0 104 79 174t197 70q123 0 200 -61.5t77 -155.5q0 -141 -129 -199q92 -63 92 -174zM1229 129q82 0 114.5 39t32.5 86q0 49 -34.5 80t-98 31 t-106.5 -35t-43 -99q0 -45 36 -73.5t99 -28.5zM1290 496q61 0 93 35.5t32 80.5q0 39 -28.5 64.5t-83.5 25.5q-57 0 -88 -34.5t-31 -77.5q0 -41 28.5 -67.5t77.5 -26.5zM221 1282l27 152h518l-21 -123l-415 -703h-189l410 674h-330z" glyph-name="seveneighths" horiz-adv-x="1675" unicode="⅞"/><glyph d="M717 86l-139 -115l-488 607l703 606l116 -137l-436 -377h827l-32 -183h-875z" glyph-name="arrowleft" horiz-adv-x="1370" unicode="←"/><glyph d="M190 475l-114 141l698 607l488 -607l-140 -118l-313 393l-156 -891h-184l149 846z" glyph-name="arrowup" horiz-adv-x="1300" unicode="↑"/><glyph d="M676 1069l137 115l487 -606l-700 -607l-119 138l439 378h-830l33 183h874z" glyph-name="arrowright" horiz-adv-x="1370" unicode="→"/><glyph d="M1139 727l114 -141l-698 -609l-487 609l139 116l313 -393l158 891h182l-149 -846z" glyph-name="arrowdown" horiz-adv-x="1296" unicode="↓"/><glyph d="M274 117h-180l160 907h881l-31 -180h-590l539 -676l-140 -117l-532 668z" glyph-name="uni2196" horiz-adv-x="1232" unicode="↖"/><glyph d="M244 844l32 180h883l-160 -907h-180l103 579l-742 -645l-119 137l750 656h-567z" glyph-name="uni2197" horiz-adv-x="1230" unicode="↗"/><glyph d="M961 907h180l-160 -907h-883l33 180h588l-539 678l139 115l533 -670z" glyph-name="uni2198" horiz-adv-x="1232" unicode="↘"/><glyph d="M1053 973l118 -137l-751 -656h567l-31 -180h-884l159 907h183l-103 -579z" glyph-name="uni2199" horiz-adv-x="1232" unicode="↙"/><glyph d="M539 1360l163 127q180 -193 293 -421t113 -454q0 -268 -156.5 -450t-396.5 -182q-207 0 -332 133t-125 327q0 221 146.5 377t355.5 156q150 0 254 -86q-82 229 -315 473zM623 799q-133 0 -226.5 -103.5t-93.5 -251.5q0 -119 70.5 -199.5t191.5 -80.5q145 0 236.5 117.5 t91.5 250.5q0 113 -77.5 190t-192.5 77z" glyph-name="partialdiff" horiz-adv-x="1208" unicode="∂"/><glyph d="M934 1434l244 -1434h-1209l746 1434h219zM786 1161l-493 -971h649z" glyph-name="uni2206" horiz-adv-x="1323" unicode="∆"/><glyph d="M1522 1434l-35 -195h-164l-217 -1239h-203l217 1239h-536l-217 -1239h-203l217 1239h-160l33 195h1268z" glyph-name="product" horiz-adv-x="1447" unicode="∏"/><glyph d="M-49 -238l29 164l712 676l-475 668l29 164h1059l-33 -189h-795l473 -665l-667 -633h759l-32 -185h-1059z" glyph-name="summation" horiz-adv-x="1230" unicode="∑"/><glyph d="M952 762l-32 -182h-754l33 182h753z" glyph-name="minus" horiz-adv-x="1067" unicode="−"/><glyph d="M385 641l104 -631l854 1424h232l-1010 -1672h-229l-123 687h-188l32 192h328z" glyph-name="radical" horiz-adv-x="1406" unicode="√"/><glyph d="M1311 1028q152 0 238.5 -93t86.5 -228q0 -162 -113.5 -276t-275.5 -114q-180 0 -366 234q-135 -129 -228.5 -181.5t-185.5 -52.5q-152 0 -239 93.5t-87 228.5q0 162 114 275.5t275 113.5q180 0 367 -233q135 129 228.5 181t185.5 52zM514 850q-78 0 -133 -59.5 t-55 -135.5q0 -66 43 -112.5t114 -46.5q61 0 122 38.5t167 141.5q-125 174 -258 174zM1264 496q78 0 133 59t55 135q0 66 -43 113t-115 47q-61 0 -121.5 -39t-166.5 -141q125 -174 258 -174z" glyph-name="infinity" horiz-adv-x="1726" unicode="∞"/><glyph d="M-156 -350l80 155q74 -39 152 -38q63 0 108 38.5t66 147.5l203 1153q61 348 348 348q154 0 272 -80l-80 -153q-88 49 -170 49q-66 0 -109.5 -39t-64.5 -148l-205 -1153q-59 -348 -348 -348q-129 0 -252 68z" glyph-name="integral" horiz-adv-x="919" unicode="∫"/><glyph d="M334 694l-146 86q125 215 285 215q68 0 152 -48t112 -48q61 0 135 115l144 -86q-123 -217 -285 -217q-68 0 -151.5 49t-112.5 49q-63 0 -133 -115zM270 332l-145 86q125 215 285 215q68 0 151.5 -48t112.5 -48q61 0 135 112l143 -84q-125 -217 -284 -217q-68 0 -152 48 t-113 48q-65 1 -133 -112z" glyph-name="approxequal" horiz-adv-x="1083" unicode="≈"/><glyph d="M211 807l31 180h458l140 197l129 -82l-82 -115h127l-31 -180h-223l-189 -268h365l-33 -181h-459l-137 -196l-131 80l82 116h-127l33 181h221l188 268h-362z" glyph-name="notequal" horiz-adv-x="1093" unicode="≠"/><glyph d="M203 764l35 194l831 349l-37 -215l-600 -238l516 -240l-35 -198zM893 305l-31 -182h-772l31 182h772z" glyph-name="lessequal" horiz-adv-x="1103" unicode="≤"/><glyph d="M1026 958l-33 -194l-833 -348l37 215l602 237l-516 240l34 199zM913 305l-32 -182h-772l32 182h772z" glyph-name="greaterequal" horiz-adv-x="1095" unicode="≥"/><glyph d="M127 649q0 332 239.5 569.5t553.5 237.5q309 0 495.5 -196.5t186.5 -475.5q0 -332 -240 -569.5t-555 -237.5q-307 0 -493.5 196.5t-186.5 475.5zM913 1280q-244 0 -421 -184.5t-177 -438.5q0 -211 136.5 -357t361.5 -146q244 0 422 184t178 438q0 211 -136.5 357.5 t-363.5 146.5zM715 817l24 148l191 92h104l-119 -680h-137l90 514z" glyph-name="uni2460" unicode="①"/><glyph d="M127 649q0 332 239.5 569.5t553.5 237.5q309 0 495.5 -196.5t186.5 -475.5q0 -332 -240 -569.5t-555 -237.5q-307 0 -493.5 196.5t-186.5 475.5zM913 1280q-244 0 -421 -184.5t-177 -438.5q0 -211 136.5 -357t361.5 -146q244 0 422 184t178 438q0 211 -136.5 357.5 t-363.5 146.5zM1092 537l-23 -134h-487l20 109q227 133 316.5 217t89.5 156q0 33 -21.5 57.5t-73.5 24.5q-100 0 -116 -127h-138q14 131 91 192.5t172 61.5q109 0 168 -59.5t59 -141.5q0 -178 -268 -356h211z" glyph-name="uni2461" unicode="②"/><glyph d="M127 649q0 332 239.5 569.5t553.5 237.5q309 0 495.5 -196.5t186.5 -475.5q0 -332 -240 -569.5t-555 -237.5q-307 0 -493.5 196.5t-186.5 475.5zM913 1280q-244 0 -421 -184.5t-177 -438.5q0 -211 136.5 -357t361.5 -146q244 0 422 184t178 438q0 211 -136.5 357.5 t-363.5 146.5zM584 473l86 107q92 -63 182 -64q109 0 109 72q0 35 -44.5 62.5t-134.5 27.5l21 117q193 0 192 98q0 31 -24.5 50.5t-65.5 19.5q-88 0 -102 -80h-131q10 109 82.5 155.5t156.5 46.5q98 0 161 -51t63 -131q0 -59 -34 -107t-95 -69q94 -51 94 -139 q0 -90 -68.5 -146.5t-183.5 -56.5q-145 0 -264 88z" glyph-name="uni2462" unicode="③"/><glyph d="M127 649q0 332 239.5 569.5t553.5 237.5q309 0 495.5 -196.5t186.5 -475.5q0 -332 -240 -569.5t-555 -237.5q-307 0 -493.5 196.5t-186.5 475.5zM913 1280q-244 0 -421 -184.5t-177 -438.5q0 -211 136.5 -357t361.5 -146q244 0 422 184t178 438q0 211 -136.5 357.5 t-363.5 146.5zM1004 395h-138l23 133h-326l19 103l254 444h159l-245 -416h161l31 170l143 43l-36 -213h98l-23 -131h-98z" glyph-name="uni2463" unicode="④"/><glyph d="M127 649q0 332 239.5 569.5t553.5 237.5q309 0 495.5 -196.5t186.5 -475.5q0 -332 -240 -569.5t-555 -237.5q-307 0 -493.5 196.5t-186.5 475.5zM913 1280q-244 0 -421 -184.5t-177 -438.5q0 -211 136.5 -357t361.5 -146q244 0 422 184t178 438q0 211 -136.5 357.5 t-363.5 146.5zM743 1057h396l-23 -131h-262l-23 -125q147 -4 209 -67.5t62 -141.5q0 -98 -66.5 -161.5t-191.5 -63.5q-139 0 -262 88l86 106q94 -63 182 -63q104 0 104 88q0 90 -168 90h-110z" glyph-name="uni2464" unicode="⑤"/><glyph d="M127 649q0 332 239.5 569.5t553.5 237.5q309 0 495.5 -196.5t186.5 -475.5q0 -332 -240 -569.5t-555 -237.5q-307 0 -493.5 196.5t-186.5 475.5zM913 1280q-244 0 -421 -184.5t-177 -438.5q0 -211 136.5 -357t361.5 -146q244 0 422 184t178 438q0 211 -136.5 357.5 t-363.5 146.5zM1100 1075l-205 -207q100 -4 157.5 -69.5t57.5 -147.5q0 -111 -83 -188.5t-193 -77.5q-113 0 -179.5 70.5t-66.5 156.5q0 115 121 236l225 227h166zM860 756q-66 0 -102.5 -40t-36.5 -91q0 -47 33.5 -80t85.5 -33q53 0 95 40t42 91q0 41 -32 77t-85 36z" glyph-name="uni2465" unicode="⑥"/><glyph d="M127 649q0 332 239.5 569.5t553.5 237.5q309 0 495.5 -196.5t186.5 -475.5q0 -332 -240 -569.5t-555 -237.5q-307 0 -493.5 196.5t-186.5 475.5zM913 1280q-244 0 -421 -184.5t-177 -438.5q0 -211 136.5 -357t361.5 -146q244 0 422 184t178 438q0 211 -136.5 357.5 t-363.5 146.5zM709 915l22 134h463l-18 -113l-363 -567h-162l355 546h-297z" glyph-name="uni2466" unicode="⑦"/><glyph d="M127 649q0 332 239.5 569.5t553.5 237.5q309 0 495.5 -196.5t186.5 -475.5q0 -332 -240 -569.5t-555 -237.5q-307 0 -493.5 196.5t-186.5 475.5zM913 1280q-244 0 -421 -184.5t-177 -438.5q0 -211 136.5 -357t361.5 -146q244 0 422 184t178 438q0 211 -136.5 357.5 t-363.5 146.5zM1120 600q0 -102 -76.5 -163.5t-187.5 -61.5q-119 0 -192.5 54t-73.5 146q0 61 31.5 111.5t91.5 75.5q-47 45 -47 104q0 106 74.5 157.5t164.5 51.5q113 0 176.5 -52t63.5 -128q0 -113 -94 -164q69 -49 69 -131zM983 594q0 37 -31.5 66.5t-97.5 29.5 q-49 0 -88 -28.5t-39 -75.5q0 -41 35 -66.5t94 -25.5q55 0 91 29.5t36 70.5zM1014 887q0 27 -25.5 50.5t-83.5 23.5q-45 0 -76.5 -24t-31.5 -63q0 -31 26.5 -54t85.5 -23q49 0 77 25.5t28 64.5z" glyph-name="uni2467" unicode="⑧"/><glyph d="M127 649q0 332 239.5 569.5t553.5 237.5q309 0 495.5 -196.5t186.5 -475.5q0 -332 -240 -569.5t-555 -237.5q-307 0 -493.5 196.5t-186.5 475.5zM913 1280q-244 0 -421 -184.5t-177 -438.5q0 -211 136.5 -357t361.5 -146q244 0 422 184t178 438q0 211 -136.5 357.5 t-363.5 146.5zM653 377l205 207q-100 4 -157.5 69.5t-57.5 147.5q0 111 83 188.5t194 77.5q113 0 179 -70.5t66 -156.5q0 -115 -121 -236l-225 -227h-166zM893 696q66 0 102.5 40t36.5 91q0 47 -33.5 80t-85.5 33q-53 0 -95 -40t-42 -91q0 -41 32 -77t85 -36z" glyph-name="uni2468" unicode="⑨"/><glyph d="M127 649q0 332 239.5 569.5t553.5 237.5q309 0 495.5 -196.5t186.5 -475.5q0 -332 -240 -569.5t-555 -237.5q-307 0 -493.5 196.5t-186.5 475.5zM913 1280q-244 0 -421 -184.5t-177 -438.5q0 -211 136.5 -357t361.5 -146q244 0 422 184t178 438q0 211 -136.5 357.5 t-363.5 146.5zM584 645q0 96 30.5 188.5t106.5 163t182 70.5q131 0 195.5 -78t64.5 -201q0 -96 -30.5 -188t-106.5 -162.5t-182 -70.5q-131 0 -195.5 77.5t-64.5 200.5zM897 938q-82 0 -129 -94t-47 -195q0 -154 127 -153q84 0 131 94t47 194q0 154 -129 154z" glyph-name="uni24EA" unicode="⓪"/><glyph d="M127 649q0 332 239.5 569.5t553.5 237.5q309 0 495.5 -196.5t186.5 -475.5q0 -332 -240 -569.5t-555 -237.5q-307 0 -493.5 196.5t-186.5 475.5zM584 645q0 -123 64.5 -200.5t195.5 -77.5q106 0 182 70.5t106.5 162.5t30.5 188q0 123 -64.5 201t-195.5 78 q-106 0 -182 -70.5t-106.5 -163t-30.5 -188.5zM897 938q129 0 129 -154q0 -100 -47 -194t-131 -94q-127 0 -127 153q0 100 47 194.5t129 94.5z" glyph-name="uni24FF" unicode="⓿"/><glyph d="M1186 717l-672 -737l-412 737l672 737zM553 295l403 448l-221 396l-403 -449z" glyph-name="lozenge" horiz-adv-x="1218" unicode="◊"/><glyph d="M127 649q0 332 239.5 569.5t553.5 237.5q309 0 495.5 -196.5t186.5 -475.5q0 -332 -240 -569.5t-555 -237.5q-307 0 -493.5 196.5t-186.5 475.5zM913 1280q-244 0 -421 -184.5t-177 -438.5q0 -211 136.5 -357t361.5 -146q244 0 422 184t178 438q0 211 -136.5 357.5 t-363.5 146.5z" glyph-name="circle" unicode="○"/><glyph d="M127 649q0 332 239.5 569.5t553.5 237.5q309 0 495.5 -196.5t186.5 -475.5q0 -332 -240 -569.5t-555 -237.5q-307 0 -493.5 196.5t-186.5 475.5z" glyph-name="H18533" unicode="●"/><glyph d="M127 649q0 332 239.5 569.5t553.5 237.5q309 0 495.5 -196.5t186.5 -475.5q0 -332 -240 -569.5t-555 -237.5q-307 0 -493.5 196.5t-186.5 475.5zM739 965l-24 -148l153 74l-90 -514h137l119 680h-104z" glyph-name="uni2776" unicode="❶"/><glyph d="M127 649q0 332 239.5 569.5t553.5 237.5q309 0 495.5 -196.5t186.5 -475.5q0 -332 -240 -569.5t-555 -237.5q-307 0 -493.5 196.5t-186.5 475.5zM1069 403l23 134h-211q268 178 268 356q0 82 -59.5 141.5t-167.5 59.5q-94 0 -171 -61.5t-92 -192.5h138q16 127 116 127 q51 0 73 -24.5t22 -57.5q0 -72 -89.5 -156t-316.5 -217l-20 -109h487z" glyph-name="uni2777" unicode="❷"/><glyph d="M127 649q0 332 239.5 569.5t553.5 237.5q309 0 495.5 -196.5t186.5 -475.5q0 -332 -240 -569.5t-555 -237.5q-307 0 -493.5 196.5t-186.5 475.5zM866 395h138l22 133h98l23 131h-98l36 213l-143 -43l-31 -170h-161l245 416h-159l-254 -444l-19 -103h326z" glyph-name="uni2779" unicode="❹"/><glyph d="M127 649q0 332 239.5 569.5t553.5 237.5q309 0 495.5 -196.5t186.5 -475.5q0 -332 -240 -569.5t-555 -237.5q-307 0 -493.5 196.5t-186.5 475.5zM1139 1057h-396l-67 -381h110q168 0 168 -90q0 -88 -104 -88q-88 0 -182 63l-86 -106q123 -88 262 -88q125 0 191.5 63.5 t66.5 161.5q0 78 -61.5 141.5t-209.5 67.5l23 125h262z" glyph-name="uni2780" unicode="➀"/><glyph d="M127 649q0 332 239.5 569.5t553.5 237.5q309 0 495.5 -196.5t186.5 -475.5q0 -332 -240 -569.5t-555 -237.5q-307 0 -493.5 196.5t-186.5 475.5zM895 868l205 207h-166l-225 -227q-121 -121 -121 -236q0 -86 66.5 -156.5t179.5 -70.5q111 0 193.5 78t82.5 188 q0 82 -57.5 147.5t-157.5 69.5zM860 756q53 0 85 -36t32 -77q0 -51 -42 -91t-95 -40q-51 0 -85 33t-34 80q0 51 36.5 91t102.5 40z" glyph-name="uni2781" unicode="➁"/><glyph d="M127 649q0 332 239.5 569.5t553.5 237.5q309 0 495.5 -196.5t186.5 -475.5q0 -332 -240 -569.5t-555 -237.5q-307 0 -493.5 196.5t-186.5 475.5zM731 1049l-22 -134h297l-355 -546h162l363 567l18 113h-463z" glyph-name="uni2782" unicode="➂"/><glyph d="M127 649q0 332 239.5 569.5t553.5 237.5q309 0 495.5 -196.5t186.5 -475.5q0 -332 -240 -569.5t-555 -237.5q-307 0 -493.5 196.5t-186.5 475.5zM1120 600q0 82 -69 131q94 51 94 164q0 76 -63.5 128t-176.5 52q-90 0 -164.5 -51t-74.5 -158q0 -59 47 -104 q-59 -25 -91 -75t-32 -112q0 -92 73.5 -146t192.5 -54q111 0 187.5 61.5t76.5 163.5zM983 594q0 -41 -36 -70.5t-91 -29.5q-59 0 -94 25.5t-35 66.5q0 47 39 75.5t88 28.5q66 0 97.5 -29.5t31.5 -66.5zM1014 887q0 -39 -28 -64.5t-77 -25.5q-59 0 -85.5 23.5t-26.5 53.5 q0 39 31.5 63t76.5 24q57 0 83 -23.5t26 -50.5z" glyph-name="uni2783" unicode="➃"/><glyph d="M127 649q0 332 239.5 569.5t553.5 237.5q309 0 495.5 -196.5t186.5 -475.5q0 -332 -240 -569.5t-555 -237.5q-307 0 -493.5 196.5t-186.5 475.5zM858 584l-205 -207h166l225 227q121 121 121 236q0 86 -66.5 156.5t-178.5 70.5q-111 0 -194 -78t-83 -188 q0 -82 57.5 -147.5t157.5 -69.5zM893 696q-53 0 -85 36t-32 77q0 51 42 91t95 40q51 0 85 -33t34 -80q0 -51 -36.5 -91t-102.5 -40z" glyph-name="uni2784" unicode="➄"/><glyph d="M127 649q0 332 239.5 569.5t553.5 237.5q309 0 495.5 -196.5t186.5 -475.5q0 -332 -240 -569.5t-555 -237.5q-307 0 -493.5 196.5t-186.5 475.5zM670 580l-86 -107q119 -88 264 -88q115 0 183.5 56.5t68.5 146.5q0 88 -94 139q61 20 95 68.5t34 107.5q0 80 -62.5 131 t-161.5 51q-84 0 -156.5 -47t-82.5 -155h131q14 80 102 80q41 0 65.5 -19.5t24.5 -50.5q0 -98 -192 -98l-21 -117q90 0 134.5 -27.5t44.5 -62.5q0 -72 -109 -72q-90 1 -182 64z" glyph-name="uni2786" unicode="➆"/><glyph d="M565 1434q147 0 230 -109l16 94h162l-123 -700h-162l10 59q-90 -72 -198 -71q-141 0 -223 91t-82 226q0 164 106 287t264 123zM532 840q92 0 157 80.5t65 179.5q0 84 -46 141t-126 57q-90 0 -155 -80.5t-65 -183.5q0 -82 46 -138t124 -56z" glyph-name="uniE001" horiz-adv-x="972" unicode=""/><glyph d="M834 0l22 131q-133 -152 -330 -151q-199 0 -312.5 131t-113.5 327q0 150 60.5 287t183.5 229.5t279 92.5q260 0 358 -209l33 186h200l-180 -1024h-200zM584 164q147 0 247.5 119.5t100.5 281.5q0 127 -74 212t-201 85q-150 0 -249 -123t-99 -282q0 -127 73 -210t202 -83z " glyph-name="uniE020" horiz-adv-x="1286" unicode=""/><glyph d="M131 408l160 909l215 67l-64 -360h355l-33 -182h-354l-82 -471q-8 -47 -9 -74q0 -135 138 -135q72 0 164 43l45 -168q-121 -57 -240 -57q-307 0 -307 292q0 60 12 136z" glyph-name="uniE021" horiz-adv-x="768" unicode=""/><glyph d="M1495 -131l-113 -166l-528 315l117 154zM145 639q0 330 223.5 572.5t555.5 242.5q301 0 479 -190.5t178 -468.5q0 -330 -223 -572.5t-555 -242.5q-301 0 -479.5 190t-178.5 469zM911 1260q-231 0 -393 -183.5t-162 -427.5q0 -201 124 -338t333 -137q231 0 394 183.5 t163 426.5q0 201 -124 338.5t-335 137.5z" glyph-name="uniE022" unicode=""/><glyph d="M834 0l22 131q-133 -152 -330 -151q-199 0 -312.5 131t-113.5 327q0 150 60.5 287t183.5 229.5t279 92.5q260 0 358 -209l33 186h200l-180 -1024h-200zM584 164q147 0 247.5 119.5t100.5 281.5q0 127 -74 212t-201 85q-150 0 -249 -123t-99 -282q0 -127 73 -210t202 -83z M924 1196l-162 -53l-211 319l176 111z" glyph-name="uniE030" horiz-adv-x="1286" unicode=""/><glyph d="M834 0l22 131q-133 -152 -330 -151q-199 0 -312.5 131t-113.5 327q0 150 60.5 287t183.5 229.5t279 92.5q260 0 358 -209l33 186h200l-180 -1024h-200zM584 164q147 0 247.5 119.5t100.5 281.5q0 127 -74 212t-201 85q-150 0 -249 -123t-99 -282q0 -127 73 -210t202 -83z M756 1143l-142 78l324 352l137 -137z" glyph-name="uniE031" horiz-adv-x="1286" unicode=""/><glyph d="M834 0l22 131q-133 -152 -330 -151q-199 0 -312.5 131t-113.5 327q0 150 60.5 287t183.5 229.5t279 92.5q260 0 358 -209l33 186h200l-180 -1024h-200zM584 164q147 0 247.5 119.5t100.5 281.5q0 127 -74 212t-201 85q-150 0 -249 -123t-99 -282q0 -127 73 -210t202 -83z M807 1309l-238 -160l-96 131l352 236l277 -238l-109 -125z" glyph-name="uniE032" horiz-adv-x="1286" unicode=""/><glyph d="M834 0l22 131q-133 -152 -330 -151q-199 0 -312.5 131t-113.5 327q0 150 60.5 287t183.5 229.5t279 92.5q260 0 358 -209l33 186h200l-180 -1024h-200zM584 164q147 0 247.5 119.5t100.5 281.5q0 127 -74 212t-201 85q-150 0 -249 -123t-99 -282q0 -127 73 -210t202 -83z M580 1200h-168q16 139 80.5 225t179.5 86q100 0 170 -98q6 -8 23.5 -35.5t28.5 -38t26 -10.5q33 0 50 38t29 114h168q-16 -139 -80.5 -225.5t-179.5 -86.5q-100 0 -170 99q-8 10 -19 28.5t-18.5 28.5t-17.5 18.5t-23 8.5q-33 0 -50 -38t-29 -114z" glyph-name="uniE033" horiz-adv-x="1286" unicode=""/><glyph d="M834 0l22 131q-133 -152 -330 -151q-199 0 -312.5 131t-113.5 327q0 150 60.5 287t183.5 229.5t279 92.5q260 0 358 -209l33 186h200l-180 -1024h-200zM584 164q147 0 247.5 119.5t100.5 281.5q0 127 -74 212t-201 85q-150 0 -249 -123t-99 -282q0 -127 73 -210t202 -83z M471 1294q0 55 42 94t97 39q49 0 82 -33.5t33 -80.5q0 -55 -41 -94t-96 -39q-49 0 -83 33.5t-34 80.5zM840 1294q0 55 41 94t96 39q51 0 84 -33.5t33 -80.5q0 -55 -42 -94t-98 -39q-49 0 -81.5 33.5t-32.5 80.5z" glyph-name="uniE034" horiz-adv-x="1286" unicode=""/><glyph d="M834 0l22 131q-133 -152 -330 -151q-199 0 -312.5 131t-113.5 327q0 150 60.5 287t183.5 229.5t279 92.5q260 0 358 -209l33 186h200l-180 -1024h-200zM584 164q147 0 247.5 119.5t100.5 281.5q0 127 -74 212t-201 85q-150 0 -249 -123t-99 -282q0 -127 73 -210t202 -83z M557 1348q0 106 77 185t179 79q100 0 162.5 -64.5t62.5 -154.5q0 -106 -77.5 -185.5t-180.5 -79.5q-98 0 -160.5 65t-62.5 155zM807 1479q-43 0 -79 -34t-36 -91q0 -39 26.5 -65.5t69.5 -26.5t79 33.5t36 90.5q0 39 -26.5 66t-69.5 27z" glyph-name="uniE035" horiz-adv-x="1286" unicode=""/><glyph d="M834 0l22 131q-133 -152 -330 -151q-199 0 -312.5 131t-113.5 327q0 150 60.5 287t183.5 229.5t279 92.5q260 0 358 -209l33 186h200l-180 -1024h-200zM584 164q147 0 247.5 119.5t100.5 281.5q0 127 -74 212t-201 85q-150 0 -249 -123t-99 -282q0 -127 73 -210t202 -83z M1083 1391l-30 -172h-564l31 172h563z" glyph-name="uniE036" horiz-adv-x="1286" unicode=""/><glyph d="M834 0l22 131q-133 -152 -330 -151q-199 0 -312.5 131t-113.5 327q0 150 60.5 287t183.5 229.5t279 92.5q260 0 358 -209l33 186h200l-180 -1024h-200zM584 164q147 0 247.5 119.5t100.5 281.5q0 127 -74 212t-201 85q-150 0 -249 -123t-99 -282q0 -127 73 -210t202 -83z M985 1479l148 -70q-137 -248 -355 -248q-119 0 -198.5 68.5t-110.5 179.5l158 70q47 -150 159 -150q117 0 199 150z" glyph-name="uniE037" horiz-adv-x="1286" unicode=""/><glyph d="M834 0l22 131q-133 -152 -330 -151q-199 0 -312.5 131t-113.5 327q0 150 60.5 287t183.5 229.5t279 92.5q260 0 358 -209l33 186h200l-180 -1024q-213 -172 -213 -279q0 -66 82 -65q23 0 47 4l4 -160q-35 -8 -71 -8q-109 0 -170.5 47t-61.5 129q0 96 60.5 173t167.5 159 h-45zM584 164q147 0 247.5 119.5t100.5 281.5q0 127 -74 212t-201 85q-150 0 -249 -123t-99 -282q0 -127 73 -210t202 -83z" glyph-name="uniE038" horiz-adv-x="1286" unicode=""/><glyph d="M1808 276l101 -147q-160 -150 -406 -149q-172 0 -281.5 77.5t-150.5 210.5l-47 -268h-178l22 133q-143 -154 -341.5 -153.5t-312.5 131.5t-114 327q0 150 60.5 287t183.5 229.5t279 92.5q258 0 368 -209l33 186h178l-35 -201q162 223 443 224q178 0 285.5 -87.5 t107.5 -211.5q0 -154 -158.5 -256.5t-472.5 -102.5h-141q18 -104 89 -166.5t193 -62.5q164 -1 295 116zM584 164q147 0 247.5 119.5t100.5 281.5q0 127 -74 212t-201 85q-150 0 -249 -123t-99 -282q0 -127 73 -210t202 -83zM1614 866q-145 0 -246.5 -84t-132.5 -231h129 q221 0 326.5 52t105.5 136q0 57 -50 92t-132 35z" glyph-name="uniE039" horiz-adv-x="2074" unicode=""/><glyph d="M1808 276l101 -147q-160 -150 -406 -149q-172 0 -281.5 77.5t-150.5 210.5l-47 -268h-178l22 133q-143 -154 -341.5 -153.5t-312.5 131.5t-114 327q0 150 60.5 287t183.5 229.5t279 92.5q258 0 368 -209l33 186h178l-35 -201q162 223 443 224q178 0 285.5 -87.5 t107.5 -211.5q0 -154 -158.5 -256.5t-472.5 -102.5h-141q18 -104 89 -166.5t193 -62.5q164 -1 295 116zM584 164q147 0 247.5 119.5t100.5 281.5q0 127 -74 212t-201 85q-150 0 -249 -123t-99 -282q0 -127 73 -210t202 -83zM1614 866q-145 0 -246.5 -84t-132.5 -231h129 q221 0 326.5 52t105.5 136q0 57 -50 92t-132 35zM1184 1143l-142 78l324 352l137 -137z" glyph-name="uniE040" horiz-adv-x="2074" unicode=""/><glyph d="M1190 1212l57 -157q-135 -63 -217 -150q68 -80 68 -192q0 -166 -123 -274.5t-328 -108.5q-172 0 -282 57q-43 -8 -77 -35.5t-34 -68.5q0 -37 31.5 -60.5t93.5 -23.5h244q432 0 432 -260q0 -80 -36 -141.5t-91.5 -99.5t-130 -61.5t-147 -33t-148.5 -9.5q-225 0 -345 73 t-120 186q0 131 127 206q-109 55 -109 177q0 176 195 241q-59 78 -60 185q0 174 128 279.5t323 105.5q168 0 283 -60q127 170 266 225zM655 881q-121 0 -191.5 -59.5t-70.5 -153.5q0 -78 63.5 -125t178.5 -47q121 0 191.5 57t70.5 152q0 78 -63.5 127t-178.5 49zM610 20 h-248q-31 0 -45 3q-90 -51 -90 -129q0 -127 285 -127q41 0 89 5t109.5 19t101.5 45t40 76q0 108 -242 108z" glyph-name="uniE044" horiz-adv-x="1202" unicode=""/><glyph d="M1190 1212l57 -157q-135 -63 -217 -150q68 -80 68 -192q0 -166 -123 -274.5t-328 -108.5q-172 0 -282 57q-43 -8 -77 -35.5t-34 -68.5q0 -37 31.5 -60.5t93.5 -23.5h244q432 0 432 -260q0 -80 -36 -141.5t-91.5 -99.5t-130 -61.5t-147 -33t-148.5 -9.5q-225 0 -345 73 t-120 186q0 131 127 206q-109 55 -109 177q0 176 195 241q-59 78 -60 185q0 174 128 279.5t323 105.5q168 0 283 -60q127 170 266 225zM655 881q-121 0 -191.5 -59.5t-70.5 -153.5q0 -78 63.5 -125t178.5 -47q121 0 191.5 57t70.5 152q0 78 -63.5 127t-178.5 49zM610 20 h-248q-31 0 -45 3q-90 -51 -90 -129q0 -127 285 -127q41 0 89 5t109.5 19t101.5 45t40 76q0 108 -242 108zM963 1479l147 -70q-137 -248 -354 -248q-119 0 -199 68.5t-111 179.5l158 70q47 -150 160 -150q117 0 199 150z" glyph-name="uniE045" horiz-adv-x="1202" unicode=""/><glyph d="M1190 1212l57 -157q-135 -63 -217 -150q68 -80 68 -192q0 -166 -123 -274.5t-328 -108.5q-172 0 -282 57q-43 -8 -77 -35.5t-34 -68.5q0 -37 31.5 -60.5t93.5 -23.5h244q432 0 432 -260q0 -80 -36 -141.5t-91.5 -99.5t-130 -61.5t-147 -33t-148.5 -9.5q-225 0 -345 73 t-120 186q0 131 127 206q-109 55 -109 177q0 176 195 241q-59 78 -60 185q0 174 128 279.5t323 105.5q168 0 283 -60q127 170 266 225zM655 881q-121 0 -191.5 -59.5t-70.5 -153.5q0 -78 63.5 -125t178.5 -47q121 0 191.5 57t70.5 152q0 78 -63.5 127t-178.5 49zM610 20 h-248q-31 0 -45 3q-90 -51 -90 -129q0 -127 285 -127q41 0 89 5t109.5 19t101.5 45t40 76q0 108 -242 108zM637 1294q0 55 41 94t96 39q49 0 83 -33.5t34 -80.5q0 -55 -42 -94t-97 -39q-49 0 -82 33.5t-33 80.5z" glyph-name="uniE046" horiz-adv-x="1202" unicode=""/><glyph d="M1190 1212l57 -157q-135 -63 -217 -150q68 -80 68 -192q0 -166 -123 -274.5t-328 -108.5q-172 0 -282 57q-43 -8 -77 -35.5t-34 -68.5q0 -37 31.5 -60.5t93.5 -23.5h244q432 0 432 -260q0 -80 -36 -141.5t-91.5 -99.5t-130 -61.5t-147 -33t-148.5 -9.5q-225 0 -345 73 t-120 186q0 131 127 206q-109 55 -109 177q0 176 195 241q-59 78 -60 185q0 174 128 279.5t323 105.5q168 0 283 -60q127 170 266 225zM655 881q-121 0 -191.5 -59.5t-70.5 -153.5q0 -78 63.5 -125t178.5 -47q121 0 191.5 57t70.5 152q0 78 -63.5 127t-178.5 49zM610 20 h-248q-31 0 -45 3q-90 -51 -90 -129q0 -127 285 -127q41 0 89 5t109.5 19t101.5 45t40 76q0 108 -242 108zM336 -977l-72 76q131 113 150 194q-49 -8 -85 22t-36 75q0 49 37 83.5t86 34.5q51 0 87 -36.5t36 -104.5q0 -88 -58.5 -182t-144.5 -162z" glyph-name="uniE047" horiz-adv-x="1202" unicode=""/><glyph d="M131 408l160 909l215 67l-64 -360h355l-33 -182h-354l-82 -471q-8 -47 -9 -74q0 -135 138 -135q72 0 164 43l45 -168q-121 -57 -240 -57q-307 0 -307 292q0 60 12 136zM231 -614l-71 75q131 113 149 195q-49 -8 -85 21.5t-36 74.5q0 49 37 84t86 35q51 0 87 -37t36 -104 q0 -88 -58.5 -182t-144.5 -162z" glyph-name="uniE050" horiz-adv-x="768" unicode=""/><glyph d="M131 408l160 909l215 67l-64 -360h355l-33 -182h-354l-82 -471q-8 -47 -9 -74q0 -135 138 -135q72 0 164 43l45 -168q-121 -57 -240 -57q-307 0 -307 292q0 60 12 136zM688 1120l-72 76q131 113 150 195q-49 -8 -85 21.5t-36 74.5q0 49 37 84t86 35q51 0 87 -37t36 -105 q0 -88 -58.5 -182t-144.5 -162z" glyph-name="uniE051" horiz-adv-x="768" unicode=""/><glyph d="M129 408l160 909l215 67l-64 -360h355l-33 -182h-354l-82 -471q-8 -47 -9 -74q0 -135 138 -135q72 0 163 43l46 -168q-121 -57 -240 -57q-37 0 -55 2l-50 -86q76 -14 119 -63.5t43 -115.5q0 -92 -64.5 -158.5t-183.5 -66.5q-127 0 -239 76l90 139q78 -55 143 -55 q94 0 94.5 71.5t-128.5 73.5l-27 49l96 160q-145 66 -145 266q0 60 12 136z" glyph-name="uniE052" horiz-adv-x="768" unicode=""/><glyph d="M131 408l160 909l215 67l-64 -360h355l-33 -182h-354l-35 -193h272l-31 -168h-270l-18 -110q-8 -47 -9 -74q0 -135 138 -135q72 0 164 43l45 -168q-121 -57 -240 -57q-307 0 -307 292q0 60 12 136z" glyph-name="uniE053" horiz-adv-x="770" unicode=""/><glyph d="M707 1010q-164 0 -268.5 -156t-104.5 -354q0 -147 71.5 -237.5t206.5 -90.5q164 0 268.5 155.5t104.5 354.5q0 147 -71.5 237.5t-206.5 90.5zM125 494q0 297 172 502.5t416 205.5q229 0 355 -144.5t126 -369.5q0 -297 -172 -502.5t-416 -205.5q-229 0 -355 144.5 t-126 369.5z" glyph-name="uniE100" horiz-adv-x="1290" unicode=""/><glyph d="M121 764l43 233l356 185h166l-209 -1182h-203l162 924z" glyph-name="uniE101" horiz-adv-x="751" unicode=""/><glyph d="M997 193l-32 -193h-936l28 158q385 186 568 305q74 47 123 88t93 111.5t44 146.5q0 88 -62.5 144.5t-167 56.5t-188.5 -71t-102 -239h-203q14 143 69.5 248t134 157t154.5 74.5t152 22.5q188 0 307 -105.5t119 -267.5q0 -166 -98.5 -288.5t-272.5 -231.5 q-98 -59 -211 -116h481z" glyph-name="uniE102" horiz-adv-x="1171" unicode=""/><glyph d="M-37 -96l119 164q205 -147 401 -148q123 0 200 60.5t77 160.5q0 104 -104.5 172t-290.5 68l34 190q188 -4 314.5 65t126.5 195q0 82 -62.5 131.5t-165.5 49.5q-104 0 -173.5 -55.5t-73.5 -143.5h-203q8 180 141 284.5t322 104.5q186 0 308 -99t122 -253 q0 -141 -85 -241.5t-235 -141.5q238 -106 238 -322q0 -174 -132 -295.5t-368 -121.5q-272 0 -510 176z" glyph-name="uniE103" horiz-adv-x="1153" unicode=""/><glyph d="M819 -252h-205l54 301h-666l27 150l534 983h236l-525 -942h428l82 458l213 64l-92 -522h207l-35 -191h-205z" glyph-name="uniE104" horiz-adv-x="1218" unicode=""/><glyph d="M309 1182h768l-33 -195h-565l-65 -371q295 -4 436 -125.5t141 -304.5q0 -193 -129 -325.5t-375 -132.5q-274 0 -514 176l119 164q207 -147 402 -148q127 0 203.5 65.5t76.5 188.5q0 109 -99.5 180.5t-326.5 71.5h-172z" glyph-name="uniE105" horiz-adv-x="1150" unicode=""/><glyph d="M1081 1434l-454 -469q25 4 53 4q190 0 305 -125t115 -307q0 -229 -157 -393t-388 -164q-209 0 -334 132t-125 320q0 135 60.5 250t183.5 248l465 504h276zM629 793q-135 0 -229.5 -106.5t-94.5 -246.5q0 -115 70.5 -191.5t189.5 -76.5q135 0 230.5 104.5t95.5 247.5 q0 115 -70.5 192t-191.5 77z" glyph-name="uniE106" horiz-adv-x="1189" unicode=""/><glyph d="M160 987l35 195h897l-29 -164l-778 -1270h-252l776 1239h-649z" glyph-name="uniE107" horiz-adv-x="1040" unicode=""/><glyph d="M1106 432q0 -201 -144.5 -326.5t-367.5 -125.5q-229 0 -367.5 112.5t-138.5 286.5q0 143 87 257t226 155q-133 96 -133 253q0 178 133.5 294t329.5 116q201 0 325 -102.5t124 -259.5q0 -121 -65.5 -217.5t-182.5 -139.5q174 -104 174 -303zM598 164q125 0 213 72.5 t88 197.5q0 104 -79 172t-212 68q-129 0 -217 -76t-88 -201q0 -100 79 -166.5t216 -66.5zM713 844q117 0 188.5 67.5t71.5 163.5q0 84 -65.5 140.5t-180.5 56.5q-113 0 -184.5 -66.5t-71.5 -158.5q0 -86 68 -144.5t174 -58.5z" glyph-name="uniE108" horiz-adv-x="1239" unicode=""/><glyph d="M137 -252l455 469q-25 -4 -53 -4q-190 0 -305 125t-115 307q0 229 156.5 393t388.5 164q209 0 333.5 -132t124.5 -320q0 -135 -60.5 -250t-182.5 -248l-465 -504h-277zM590 389q135 0 229 106.5t94 245.5q0 115 -70.5 192t-189.5 77q-135 0 -230 -104.5t-95 -248.5 q0 -115 70.5 -191.5t191.5 -76.5z" glyph-name="uniE109" horiz-adv-x="1189" unicode=""/><glyph d="M100 532q0 217 71 425t214 352.5t326 144.5q219 0 327.5 -154.5t108.5 -398.5q0 -217 -70.5 -425t-214 -352t-325.5 -144q-219 0 -328 154t-109 398zM704.5 1260q-112.5 0 -205.5 -117t-141.5 -282t-48.5 -324q0 -166 60.5 -264.5t173 -98.5t206 117t141.5 281.5 t48 324.5q0 166 -60.5 264.5t-173 98.5z" glyph-name="uniE120" horiz-adv-x="1177" unicode=""/><glyph d="M274 1018l39 231l416 185h166l-217 -1239h344l-35 -195h-893l33 195h346l174 991z" glyph-name="uniE121" horiz-adv-x="1177" unicode=""/><glyph d="M1004 195l-33 -195h-944l26 160q418 289 633 489q68 63 113 112.5t89 132.5t44 159q0 92 -60.5 150.5t-169.5 58.5q-113 0 -194.5 -73t-101.5 -239h-203q29 258 176 381t340 123q188 0 308 -108.5t120 -276.5q0 -256 -320 -551q-147 -139 -407 -323h584z" glyph-name="uniE122" horiz-adv-x="1177" unicode=""/><glyph d="M20 156l119 163q205 -147 402 -147q123 0 199.5 60.5t76.5 160.5q0 104 -104.5 172t-290.5 68l35 190q188 -4 314 64.5t126 195.5q0 82 -62.5 131.5t-164.5 49.5q-104 0 -174 -55.5t-74 -143.5h-203q8 180 141.5 284.5t321.5 104.5q186 0 308 -99.5t122 -252.5 q0 -141 -85 -241.5t-234 -141.5q238 -106 237 -322q0 -174 -132 -295.5t-368 -121.5q-272 0 -510 176z" glyph-name="uniE123" horiz-adv-x="1177" unicode=""/><glyph d="M819 0h-201l54 301h-635l26 150l517 983h235l-508 -942h398l81 458l211 64l-92 -522h203l-33 -191h-203z" glyph-name="uniE124" horiz-adv-x="1177" unicode=""/><glyph d="M371 1434h768l-33 -195h-565l-66 -371q295 -4 436.5 -125.5t141.5 -304.5q0 -193 -129 -325.5t-375 -132.5q-274 0 -514 176l119 163q207 -147 401 -147q127 0 204 65.5t77 188.5q0 109 -99.5 180.5t-326.5 71.5h-172z" glyph-name="uniE125" horiz-adv-x="1177" unicode=""/><glyph d="M1073 1434l-455 -469q25 4 54 4q190 0 305 -125t115 -307q0 -229 -157 -393t-388 -164q-209 0 -334 132t-125 320q0 135 60.5 250t183.5 248l465 504h276zM621 793q-135 0 -229.5 -106.5t-94.5 -246.5q0 -115 70.5 -191.5t189.5 -76.5q135 0 230.5 104.5t95.5 247.5 q0 115 -70.5 192t-191.5 77z" glyph-name="uniE126" horiz-adv-x="1177" unicode=""/><glyph d="M254 1239l35 195h919l-28 -164l-791 -1270h-250l787 1239h-672z" glyph-name="uniE127" horiz-adv-x="1177" unicode=""/><glyph d="M1075 432q0 -201 -144.5 -326.5t-367.5 -125.5q-229 0 -367.5 112.5t-138.5 286.5q0 143 87 257t227 155q-133 96 -133 253q0 178 133 294t329 116q201 0 325 -102.5t124 -259.5q0 -121 -65.5 -217.5t-182.5 -139.5q174 -104 174 -303zM567 164q125 0 213 72.5t88 197.5 q0 104 -78.5 172t-211.5 68q-129 0 -217.5 -76t-88.5 -201q0 -100 79 -166.5t216 -66.5zM682 844q117 0 188.5 67.5t71.5 163.5q0 84 -65.5 140.5t-180.5 56.5q-113 0 -184.5 -66.5t-71.5 -158.5q0 -86 68 -144.5t174 -58.5z" glyph-name="uniE128" horiz-adv-x="1177" unicode=""/><glyph d="M174 0l455 469q-25 -4 -54 -4q-190 0 -304.5 125t-114.5 307q0 229 156.5 393t387.5 164q209 0 334 -132t125 -321q0 -135 -60.5 -249.5t-183.5 -247.5l-464 -504h-277zM627 641q135 0 229 106.5t94 245.5q0 115 -70.5 192t-189.5 77q-135 0 -230 -104.5t-95 -248.5 q0 -115 70.5 -191.5t191.5 -76.5z" glyph-name="uniE129" horiz-adv-x="1177" unicode=""/><glyph d="M954 254l113 -148q-162 -127 -352 -126q-236 0 -371 131t-162 348h-155l30 166h119q6 82 25 180h-113l29 166h131q84 229 242.5 356t363.5 127q283 0 430 -207l-158 -121q-92 135 -276 136q-123 0 -220.5 -75t-158.5 -216h569l-73 -166h-551q-25 -104 -29 -180h510 l-76 -166h-424q25 -133 108 -210t224 -77q125 0 225 82z" glyph-name="uniE140" horiz-adv-x="1177" unicode=""/><glyph d="M106 0l27 150q221 164 229 415h-186l31 180h141q-4 16 -17.5 81t-18.5 106t-5 84q0 190 120 314t310 124q160 0 273.5 -95t113.5 -265q0 -35 -6 -72h-198q4 37 4 53q0 96 -52.5 145.5t-132.5 49.5q-100 0 -164.5 -75t-64.5 -187q0 -37 7 -79t18.5 -96.5t15.5 -87.5h340 l-33 -180h-295q-20 -236 -166 -381h557l-28 -184h-820z" glyph-name="uniE141" horiz-adv-x="1177" unicode=""/><glyph d="M625 791l391 643h237l-471 -729h242l-31 -175h-303l-24 -135h303l-31 -174h-303l-39 -221h-203l39 221h-303l31 174h303l24 135h-303l31 175h240l-213 729h215z" glyph-name="uniE142" horiz-adv-x="1177" unicode=""/><glyph d="M375 -172l39 231q-150 35 -236 124t-86 216v23l201 41v-29q0 -102 75.5 -157.5t206.5 -55.5q109 0 186 44t77 143q0 25 -6.5 46t-26 40.5t-31.5 33t-46 32t-47 26.5t-58 28.5t-56 26.5q-162 80 -252 170t-90 221q0 166 119 263.5t305 101.5l39 211h184l-41 -230 q295 -78 295 -397v-12h-200v8q0 74 -27 124t-71 73.5t-81.5 33t-76.5 9.5q-106 0 -173 -48.5t-67 -132.5q0 -41 17.5 -73.5t60.5 -62.5t71.5 -45t92.5 -46q184 -88 277 -175t93 -220q0 -176 -122.5 -271.5t-323.5 -99.5l-37 -215h-184z" glyph-name="uniE143" horiz-adv-x="1177" unicode=""/><glyph d="M256 889l33 178h420q-47 182 -293 182h-94l32 185h860l-81 -179h-293q68 -78 84 -188h225l-80 -178h-154q-37 -178 -153.5 -285.5t-286.5 -130.5l356 -473h-247l-394 512l27 150h148q272 0 335 227h-444z" glyph-name="uniE144" horiz-adv-x="1177" unicode=""/><glyph d="M115 705l32 188l181 53l86 488h204l-75 -422l524 155l-35 -190l-522 -156l-21 -110l523 155l-33 -190l-522 -156l-58 -325h185q254 0 336 286l192 -35q-61 -221 -187 -333.5t-347 -112.5h-416l80 457l-181 -54l33 189l180 53l21 113z" glyph-name="uniE145" horiz-adv-x="1177" unicode=""/><glyph d="M387 0h-221l24 483h-174l31 174h154l6 131h-137l30 173h117l25 473h194l-69 -963l274 963h219l-67 -947l266 947h201l-144 -473h119l-33 -173h-137l-39 -131h154l-31 -174h-174l-146 -483h-221l62 969z" glyph-name="uniE146" horiz-adv-x="1177" unicode=""/><glyph d="M61 258l33 184h123l16 99h-120l32 190h123l123 703h336q229 0 346 -115t117 -287q0 -207 -139.5 -349t-368.5 -142h-250l-16 -99h364l-30 -184h-367l-45 -258h-199l45 258h-123zM467 731h201q152 0 232.5 84t80.5 203q0 98 -67.5 161.5t-202.5 63.5h-154z" glyph-name="uniE147" horiz-adv-x="1177" unicode=""/><glyph d="M614 1681l148 -118q-201 -236 -310.5 -533t-109.5 -612q0 -305 119 -580l-182 -88q-147 311 -148 674q0 346 121.5 667.5t361.5 589.5z" glyph-name="uniE300" horiz-adv-x="657" unicode=""/><glyph d="M117 -248l-148 119q201 236 310.5 532.5t109.5 612.5q0 305 -119 579l183 88q147 -311 147 -673q0 -346 -121.5 -668t-361.5 -590z" glyph-name="uniE301" horiz-adv-x="657" unicode=""/><glyph d="M784 809l-32 -184h-578l33 184h577z" glyph-name="uniE302" horiz-adv-x="892" unicode=""/><glyph d="M1044 809l-32 -184h-838l33 184h837z" glyph-name="uniE303" horiz-adv-x="1153" unicode=""/><glyph d="M1319 809l-33 -184h-1112l33 184h1112z" glyph-name="uniE304" horiz-adv-x="1425" unicode=""/><glyph d="M608 6l-33 -188h-497l317 1800h498l-33 -188h-295l-252 -1424h295z" glyph-name="uniE305" horiz-adv-x="774" unicode=""/><glyph d="M238 1430l32 188h498l-317 -1800h-498l33 188h295l251 1424h-294z" glyph-name="uniE306" horiz-adv-x="774" unicode=""/><glyph d="M70 623l32 188h66q104 0 152.5 55.5t68.5 167.5l49 279q53 305 342 305h162l-33 -188h-98q-96 0 -132 -48.5t-52 -144.5l-37 -215q-25 -143 -66 -217t-141 -103q109 -55 109 -194q0 -41 -11 -102l-37 -199q-8 -53 -8 -74q0 -127 137 -127h84l-32 -188h-115 q-137 0 -210 73.5t-73 192.5q0 35 6 72l43 243q6 37 7 66q0 158 -189 158h-24z" glyph-name="uniE307" horiz-adv-x="825" unicode=""/><glyph d="M827 813l-32 -188h-66q-104 0 -152.5 -55.5t-68.5 -168.5l-49 -278q-53 -305 -342 -305h-162l33 188h98q96 0 132 48t52 145l37 215q25 143 66 217t141 102q-109 53 -108 195q0 41 10 102l37 199q8 53 8 74q0 127 -137 127h-84l32 188h115q137 0 210 -74t73 -192 q0 -35 -6 -72l-43 -244q-6 -37 -7 -65q0 -158 189 -158h24z" glyph-name="uniE308" horiz-adv-x="825" unicode=""/><glyph d="M403 1655h164l-329 -1874h-164z" glyph-name="uniE309" horiz-adv-x="567" unicode=""/><glyph d="M403 1655h164l-143 -811h-162zM215 586h164l-141 -805h-164z" glyph-name="uniE310" horiz-adv-x="567" unicode=""/><glyph d="M365 696l153 -295l-156 -98l-229 414l375 416l131 -121z" glyph-name="uniE311" horiz-adv-x="677" unicode=""/><glyph d="M381 737l-154 295l156 98l229 -413l-374 -416l-132 121z" glyph-name="uniE312" horiz-adv-x="673" unicode=""/><glyph d="M365 696l153 -295l-156 -98l-229 414l375 416l131 -121zM846 696l153 -295l-155 -98l-230 414l375 416l131 -121z" glyph-name="uniE313" horiz-adv-x="1159" unicode=""/><glyph d="M381 737l-154 295l156 98l229 -413l-374 -416l-132 121zM862 737l-153 295l155 98l230 -413l-375 -416l-131 121z" glyph-name="uniE314" horiz-adv-x="1155" unicode=""/><glyph d="M197 698q0 98 71.5 169t167.5 71q90 0 146.5 -60.5t56.5 -144.5q0 -98 -71.5 -168.5t-168.5 -70.5q-90 0 -146 60t-56 144z" glyph-name="uniE315" horiz-adv-x="768" unicode=""/><glyph d="M172 700q0 61 44 103.5t106 42.5q53 0 88.5 -36t35.5 -87q0 -59 -45 -102t-104 -43q-53 0 -89 35.5t-36 86.5z" glyph-name="uniE316" horiz-adv-x="557" unicode=""/><glyph d="M741 225l-139 -114l-487 606l702 606l117 -137l-436 -377h827l-33 -182h-874z" glyph-name="uniE330" horiz-adv-x="1370" unicode=""/><glyph d="M1161 852l115 -141l-698 -609l-488 609l139 116l314 -393l157 891h183l-150 -846z" glyph-name="uniE331" horiz-adv-x="1298" unicode=""/><glyph d="M207 580l-115 141l699 606l487 -606l-139 -119l-314 393l-155 -891h-185l150 846z" glyph-name="uniE332" horiz-adv-x="1296" unicode=""/><glyph d="M702 1206l138 115l487 -606l-700 -606l-119 137l438 379h-829l33 182h874z" glyph-name="uniE333" horiz-adv-x="1370" unicode=""/><glyph d="M342 526h-180l160 908h880l-31 -181h-589l538 -675l-139 -117l-532 667z" glyph-name="uniE334" horiz-adv-x="1239" unicode=""/><glyph d="M319 1253l33 181h883l-160 -908h-180l102 580l-741 -645l-119 137l750 655h-568z" glyph-name="uniE335" horiz-adv-x="1230" unicode=""/><glyph d="M510 1090l235 344h197l-297 -402h162l-23 -131h-219l-8 -55h217l-22 -131h-220l-18 -107h-162l19 107h-217l24 131h215l8 55h-215l23 131h162l-154 402h176z" glyph-name="uniE400" horiz-adv-x="837" unicode=""/><glyph d="M223 1098l27 147h135l66 189h153l-65 -189h118l64 189h156l-66 -189h113l-27 -147h-135l-53 -158h112l-26 -147h-138l-61 -185h-154l62 185h-119l-61 -185h-156l63 185h-108l24 147h134l55 158h-113zM489 1098l-53 -158h119l53 158h-119z" glyph-name="uniE401" horiz-adv-x="866" unicode=""/><glyph d="M356 604h-170l738 830h170zM186 1223q0 88 68 155.5t160 67.5q90 0 147 -59.5t57 -141.5q0 -88 -67.5 -155.5t-159.5 -67.5q-90 0 -147.5 59.5t-57.5 141.5zM408 1321q-37 0 -63 -28.5t-26 -63.5t21.5 -58.5t56.5 -23.5q37 0 62.5 28.5t25.5 63.5t-21 58.5t-56 23.5z M664 799q0 88 67.5 155.5t159.5 67.5q90 0 147.5 -59.5t57.5 -141.5q0 -88 -67.5 -155.5t-160.5 -67.5q-90 0 -147 59.5t-57 141.5zM885 897q-37 0 -62.5 -28.5t-25.5 -63.5t21.5 -58.5t55.5 -23.5q37 0 63 28.5t26 63.5t-21.5 58.5t-56.5 23.5z" glyph-name="uniE402" horiz-adv-x="1101" unicode=""/><glyph d="M121 608l20 121q96 68 123 178h-108l24 148h80q-23 125 -22 137q0 111 71.5 182.5t188.5 71.5q98 0 170.5 -56.5t72.5 -160.5q0 -25 -4 -53h-157q2 14 2 28q0 43 -22.5 67.5t-59.5 24.5q-43 0 -70 -31.5t-27 -82.5q0 -18 23 -127h180l-26 -148h-156q-18 -82 -82 -149h309 l-24 -150h-506z" glyph-name="uniE403" horiz-adv-x="698" unicode=""/><glyph d="M739 985l-63 -119h-250q53 -117 192 -116q82 0 148 49l86 -117q-111 -84 -246 -84q-137 0 -230 73.5t-124 194.5h-115l23 119h80q0 29 6 66h-74l21 120h90q53 127 163.5 201t231.5 74q182 0 287 -133l-123 -96q-59 78 -168 77q-133 0 -213 -123h362l-63 -120h-346 q-8 -31 -8 -66h333z" glyph-name="uniE404" horiz-adv-x="890" unicode=""/><glyph d="M195 1114l22 117h223q-25 76 -121 76h-90l23 127h516l-49 -119h-141q23 -43 28 -84h125l-49 -117h-80q-18 -92 -80.5 -154.5t-156.5 -80.5l196 -271h-190l-213 291l20 113h98q121 0 158 102h-239z" glyph-name="uniE405" horiz-adv-x="673" unicode=""/><glyph d="M176 1022l27 145l106 31l41 236h160l-33 -187l291 84l-27 -145l-290 -84l-9 -51l291 84l-24 -146l-293 -84l-25 -145h90q129 0 176 160l152 -27q-47 -154 -128 -219.5t-232 -65.5h-244l43 250l-107 -31l27 146l106 31l9 49z" glyph-name="uniE406" horiz-adv-x="798" unicode=""/><glyph d="M496 608h-195v240h-158l25 147h133v58h-123l27 145h96v236h160l-8 -555l186 555h182l-16 -557l186 557h168l-84 -236h99l-25 -145h-125l-20 -58h133l-25 -147h-160l-84 -240h-196l10 547z" glyph-name="uniE407" horiz-adv-x="1136" unicode=""/><glyph d="M121 715l24 139h88l11 51h-90l26 150h90l68 379h268q123 0 188.5 -68t65.5 -166q0 -125 -84 -210t-219 -85h-154l-10 -51h199l-25 -139h-198l-17 -101h-159l16 101h-88zM430 1055h121q61 0 102 35.5t41 95.5q0 43 -28.5 71.5t-83.5 28.5h-113z" glyph-name="uniE408" horiz-adv-x="804" unicode=""/><glyph d="M176 440l27 152h614l-24 -152h-617zM229 1032q0 166 113 284t272 118q158 0 250 -94.5t92 -231.5q0 -166 -112.5 -283.5t-272.5 -117.5q-158 0 -250 94t-92 231zM610 1282q-86 0 -149.5 -69.5t-63.5 -174.5q0 -78 47.5 -129t130.5 -51q86 0 149.5 69.5t63.5 174.5 q0 78 -47 129t-131 51z" glyph-name="uniE409" horiz-adv-x="989" unicode=""/><glyph d="M182 440l27 152h651l-26 -152h-652zM596 1434q147 0 229 -109l17 94h162l-123 -700h-162l10 59q-90 -72 -199 -71q-141 0 -223 91t-82 226q0 164 106.5 287t264.5 123zM563 840q92 0 156.5 80.5t64.5 179.5q0 84 -46 141t-126 57q-90 0 -154.5 -80.5t-64.5 -183.5 q0 -82 46 -138t124 -56z" glyph-name="uniE410" horiz-adv-x="1013" unicode=""/><glyph d="M182 440l29 152h649l-26 -152h-652zM596 1434q147 0 229 -109l17 94h162l-123 -700h-162l10 59q-90 -72 -199 -71q-141 0 -223 91t-82 226q0 164 106.5 287t264.5 123zM563 840q92 0 156.5 80.5t64.5 179.5q0 84 -46 141t-126 57q-90 0 -154.5 -80.5t-64.5 -183.5 q0 -82 46 -138t124 -56z" glyph-name="uniE411" horiz-adv-x="1013" unicode=""/><glyph d="M233 645q0 96 31 188.5t106.5 163t182.5 70.5q131 0 195.5 -78t64.5 -201q0 -96 -30.5 -188t-106.5 -162.5t-182 -70.5q-131 0 -196 77.5t-65 200.5zM547 938q-82 0 -129 -94t-47 -195q0 -154 127 -153q84 0 131 94t47 194q0 154 -129 154z" glyph-name="uniE450" horiz-adv-x="796" unicode=""/><glyph d="M125 817l25 148l190 92h104l-118 -680h-138l91 514z" glyph-name="uniE451" horiz-adv-x="483" unicode=""/><glyph d="M580 510l-23 -133h-487l20 108q227 133 316.5 217t89.5 156q0 33 -21.5 57.5t-73.5 24.5q-100 0 -116 -127h-138q14 131 91 192.5t172 61.5q109 0 168 -59.5t59 -141.5q0 -178 -268 -356h211z" glyph-name="uniE452" horiz-adv-x="671" unicode=""/><glyph d="M72 455l86 106q92 -63 182 -63q109 0 109 71q0 35 -44.5 62.5t-134.5 27.5l21 117q193 0 192 98q0 31 -24.5 50.5t-65.5 19.5q-88 0 -102 -80h-131q10 109 82.5 156t156.5 47q98 0 161 -51t63 -131q0 -59 -34 -107.5t-95 -68.5q94 -51 94 -140q0 -90 -68.5 -146 t-183.5 -56q-145 0 -264 88z" glyph-name="uniE453" horiz-adv-x="669" unicode=""/><glyph d="M514 377h-137l22 133h-325l18 102l254 445h160l-246 -416h162l31 170l143 43l-37 -213h98l-22 -131h-98z" glyph-name="uniE454" horiz-adv-x="706" unicode=""/><glyph d="M225 1057h396l-23 -131h-262l-23 -125q147 -4 209 -67.5t62 -141.5q0 -98 -66.5 -161.5t-191.5 -63.5q-139 0 -263 88l87 106q94 -63 182 -63q104 0 104 88q0 90 -168 90h-110z" glyph-name="uniE455" horiz-adv-x="655" unicode=""/><glyph d="M610 1057l-204 -207q100 -4 157.5 -69.5t57.5 -147.5q0 -111 -83 -188.5t-194 -77.5q-113 0 -179.5 70.5t-66.5 156.5q0 115 121 235l225 228h166zM371 737q-66 0 -103 -40t-37 -91q0 -47 34 -79.5t85 -32.5q53 0 95 39.5t42 91.5q0 41 -31.5 76.5t-84.5 35.5z" glyph-name="uniE456" horiz-adv-x="677" unicode=""/><glyph d="M143 924l23 133h463l-19 -113l-362 -567h-162l354 547h-297z" glyph-name="uniE457" horiz-adv-x="602" unicode=""/><glyph d="M631 592q0 -102 -77 -163.5t-187 -61.5q-119 0 -193 54t-74 146q0 61 32 111.5t91 75.5q-47 45 -47 104q0 106 75 157.5t165 51.5q113 0 176 -52t63 -128q0 -113 -94 -164q70 -49 70 -131zM494 586q0 37 -32 66.5t-97 29.5q-49 0 -88 -28.5t-39 -75.5q0 -41 34.5 -67 t94.5 -26q55 0 91 30t36 71zM524 879q0 27 -25.5 50t-82.5 23q-45 0 -77 -23.5t-32 -62.5q0 -31 26.5 -54.5t86.5 -23.5q49 0 76.5 26t27.5 65z" glyph-name="uniE458" horiz-adv-x="706" unicode=""/><glyph d="M139 377l205 207q-100 4 -157.5 69.5t-57.5 147.5q0 111 83 188.5t194 77.5q113 0 179 -70.5t66 -156.5q0 -115 -121 -236l-225 -227h-166zM379 696q66 0 102.5 40t36.5 91q0 47 -33.5 80t-85.5 33q-53 0 -95 -40t-42 -91q0 -41 32 -77t85 -36z" glyph-name="uniE459" horiz-adv-x="677" unicode=""/><glyph d="M59 330q0 113 39 225.5t130 199.5t212 87q143 0 217 -94.5t74 -241.5q0 -113 -39 -225.5t-129 -199.5t-211 -87q-145 0 -219 94.5t-74 241.5zM436 690q-86 0 -147.5 -106.5t-61.5 -253.5q0 -184 129 -185q84 0 145.5 106.5t61.5 254.5q0 184 -127 184z" glyph-name="uniE500" horiz-adv-x="825" unicode=""/><glyph d="M121 2l106 616l-159 -81l32 184l207 106h121l-145 -825h-162z" glyph-name="uniE501" horiz-adv-x="501" unicode=""/><glyph d="M580 154l-29 -152h-551l20 119q258 178 371 295q94 98 94 178q0 43 -25.5 68.5t-72.5 25.5q-45 0 -86 -31.5t-51 -117.5h-160q10 88 44 151.5t82 94t92 43t87 12.5q117 0 188.5 -64.5t71.5 -163.5q0 -147 -153 -301q-78 -78 -187 -157h265z" glyph-name="uniE502" horiz-adv-x="729" unicode=""/><glyph d="M-6 100l100 121q123 -78 209 -78q127 0 127 97q0 49 -49 80.5t-150 33.5l25 131q109 -2 164 36t55 95q0 37 -27.5 60.5t-68.5 23.5q-104 0 -115 -100h-158q6 127 93.5 184.5t187.5 57.5q106 0 180 -59.5t74 -149.5q0 -158 -158 -221q113 -61 113 -168q0 -109 -75 -179.5 t-216 -70.5q-168 0 -311 106z" glyph-name="uniE503" horiz-adv-x="729" unicode=""/><glyph d="M500 2h-160l29 162h-367l21 115l292 548h185l-283 -512h178l41 228l168 45l-49 -273h111l-27 -151h-111z" glyph-name="uniE504" horiz-adv-x="759" unicode=""/><glyph d="M184 827h459l-27 -151h-303l-28 -164q154 -2 231.5 -72.5t77.5 -175.5q0 -43 -13.5 -86t-44 -87t-92 -71.5t-145.5 -27.5q-172 0 -309 106l98 121q121 -78 207 -78q70 0 101.5 33t31.5 78q0 49 -47 85t-156 36h-123z" glyph-name="uniE505" horiz-adv-x="716" unicode=""/><glyph d="M627 827l-244 -262q115 0 184.5 -69.5t69.5 -176.5q0 -133 -94 -230t-230 -97q-129 0 -204.5 81t-75.5 191q0 80 38 143.5t109 141.5l258 278h189zM350 436q-63 0 -108 -51t-45 -117q0 -53 33.5 -90t88.5 -37q61 0 106.5 51.5t45.5 118.5q0 53 -33 89t-88 36z" glyph-name="uniE506" horiz-adv-x="741" unicode=""/><glyph d="M90 676l27 151h518l-21 -122l-415 -703h-189l410 674h-330z" glyph-name="uniE507" horiz-adv-x="638" unicode=""/><glyph d="M647 252q0 -106 -82 -182t-225 -76q-137 0 -222 64.5t-85 166.5q0 174 168 236q-70 51 -70 137q0 104 79 174t198 70q123 0 199.5 -61.5t76.5 -155.5q0 -141 -129 -199q92 -63 92 -174zM336 133q82 0 114.5 39t32.5 86q0 49 -34.5 80t-98 31t-106.5 -35t-43 -98 q0 -45 36 -74t99 -29zM397 500q61 0 93 35.5t32 80.5q0 39 -28.5 65t-83.5 26q-57 0 -88 -35t-31 -78q0 -41 28.5 -67.5t77.5 -26.5z" glyph-name="uniE508" horiz-adv-x="776" unicode=""/><glyph d="M76 2l243 264q-115 0 -184 70t-69 176q0 133 94 230.5t229 97.5q129 0 205 -81t76 -192q0 -80 -38 -143.5t-110 -140.5l-258 -281h-188zM352 395q63 0 108.5 51.5t45.5 116.5q0 53 -34 90t-89 37q-61 0 -106.5 -51t-45.5 -119q0 -53 33 -89t88 -36z" glyph-name="uniE509" horiz-adv-x="739" unicode=""/><glyph d="M213 1200q0 113 39 225.5t130 199.5t212 87q143 0 217 -94t74 -242q0 -113 -39 -225.5t-129 -199.5t-211 -87q-145 0 -219 94.5t-74 241.5zM590 1561q-86 0 -147.5 -106.5t-61.5 -254.5q0 -184 129 -184q84 0 145.5 106.5t61.5 253.5q0 185 -127 185z" glyph-name="uniE520" horiz-adv-x="825" unicode=""/><glyph d="M274 874l107 617l-160 -82l33 184l207 107h121l-146 -826h-162z" glyph-name="uniE521" horiz-adv-x="501" unicode=""/><glyph d="M733 1026l-28 -152h-551l20 119q258 178 371 295q94 98 94 178q0 43 -25.5 69t-72.5 26q-45 0 -86 -32t-52 -118h-159q10 88 44 151.5t82 94.5t92 43t87 12q117 0 188.5 -64.5t71.5 -162.5q0 -147 -154 -301q-78 -78 -186 -158h264z" glyph-name="uniE522" horiz-adv-x="729" unicode=""/><glyph d="M147 971l101 121q123 -78 209 -78q127 0 127 96q0 49 -49.5 81t-149.5 34l25 131q109 -2 164 36t55 95q0 37 -28 60.5t-69 23.5q-104 0 -114 -101h-158q6 127 93 184.5t188 57.5q106 0 180 -59.5t74 -149.5q0 -158 -158 -221q113 -61 113 -168q0 -109 -75 -179.5 t-216 -70.5q-169 1 -312 107z" glyph-name="uniE523" horiz-adv-x="729" unicode=""/><glyph d="M653 874h-159l28 162h-366l20 115l293 549h184l-282 -512h178l41 227l168 45l-49 -272h110l-26 -152h-111z" glyph-name="uniE524" horiz-adv-x="759" unicode=""/><glyph d="M340 1700h459l-27 -152h-303l-29 -164q154 -2 232 -72.5t78 -174.5q0 -43 -13.5 -86t-44 -87t-92 -72t-145.5 -28q-172 0 -310 107l99 121q121 -78 207 -78q70 0 101.5 32.5t31.5 77.5q0 49 -47.5 85t-155.5 36h-123z" glyph-name="uniE525" horiz-adv-x="716" unicode=""/><glyph d="M782 1700l-243 -262q115 0 184.5 -70t69.5 -176q0 -133 -94.5 -230.5t-229.5 -97.5q-129 0 -205 81t-76 192q0 80 38 143t110 141l258 279h188zM506 1309q-63 0 -108.5 -51.5t-45.5 -116.5q0 -53 34 -90t89 -37q61 0 106.5 51t45.5 119q0 53 -33 89t-88 36z" glyph-name="uniE526" horiz-adv-x="741" unicode=""/><glyph d="M244 1548l26 152h518l-20 -123l-416 -703h-188l409 674h-329z" glyph-name="uniE527" horiz-adv-x="638" unicode=""/><glyph d="M801 1122q0 -106 -82 -182t-225 -76q-137 0 -222.5 64.5t-85.5 167.5q0 174 168 235q-70 51 -69 137q0 104 78.5 174t197.5 70q123 0 200 -61.5t77 -155.5q0 -141 -129 -199q92 -63 92 -174zM489 1004q82 0 115 38.5t33 85.5q0 49 -35 80t-98.5 31t-106.5 -35t-43 -98 q0 -45 36 -73.5t99 -28.5zM551 1370q61 0 93 36t32 81q0 39 -29 64.5t-84 25.5q-57 0 -88 -35t-31 -78q0 -41 29 -67.5t78 -26.5z" glyph-name="uniE528" horiz-adv-x="776" unicode=""/><glyph d="M231 874l244 265q-115 0 -184.5 69.5t-69.5 175.5q0 133 94.5 230.5t229.5 97.5q129 0 204.5 -81t75.5 -191q0 -80 -37.5 -143.5t-109.5 -141.5l-258 -281h-189zM508 1268q63 0 108.5 51t45.5 117q0 53 -34 90t-89 37q-61 0 -106.5 -51.5t-45.5 -118.5q0 -53 33 -89 t88 -36z" glyph-name="uniE529" horiz-adv-x="739" unicode=""/><glyph d="M59 250l181 147q-39 74 -39 160q0 143 94 254l-111 150l142 108l108 -147q84 39 170 39q106 0 189 -50l190 158l111 -139l-181 -148q39 -74 39 -159q0 -143 -94 -254l111 -150l-142 -108l-108 147q-84 -39 -170 -39q-106 0 -189 49l-190 -157zM596 786 q-82 0 -140.5 -67.5t-58.5 -153.5q0 -74 43 -123t117 -49q82 0 140.5 67.5t58.5 153.5q0 74 -42 123t-118 49z" glyph-name="uniE600" horiz-adv-x="1128" unicode=""/><glyph d="M197 721l32 176h187l98 285h182l-98 -285h238l98 285h184l-98 -285h158l-31 -176h-186l-89 -260h160l-31 -176h-188l-96 -285h-185l97 285h-238l-96 -285h-182l96 285h-156l31 176h184l88 260h-159zM539 721l-88 -260h237l88 260h-237z" glyph-name="uniE601" horiz-adv-x="1204" unicode=""/><glyph d="M305 -141l33 192q-127 29 -198.5 105.5t-71.5 183.5v14l192 27v-14q0 -78 60.5 -120t173.5 -42q190 0 190 114q0 39 -33 75t-66.5 55.5t-105.5 54.5q-14 6 -20 10q-137 70 -213 143.5t-76 182.5q0 141 103.5 221t258.5 84l31 178h176l-34 -199q244 -70 243 -313v-18h-190 v18q0 82 -63.5 123t-153.5 41q-68 0 -120 -27.5t-52 -89.5q0 -31 13 -57.5t45 -49t57.5 -37t76.5 -38.5q82 -41 128 -66.5t98.5 -67.5t76 -91.5t23.5 -110.5q0 -131 -93.5 -216t-281.5 -89l-31 -176h-176z" glyph-name="uniE602" horiz-adv-x="1019" unicode=""/><glyph d="M152 872q0 137 95 232.5t226 95.5q127 0 204 -80t77 -192q0 -137 -95.5 -232.5t-226.5 -95.5q-127 0 -203.5 79.5t-76.5 192.5zM460.5 1040q-59.5 0 -102.5 -46t-43 -109q0 -53 35 -89t94.5 -36t102.5 46t43 109q0 53 -35 89t-94.5 36zM367 0h-197l1061 1182h196z M846 254q0 137 95 232.5t226 95.5q127 0 204 -80t77 -193q0 -137 -95.5 -232t-226.5 -95q-127 0 -203.5 79.5t-76.5 192.5zM1155 422q-59 0 -102 -46t-43 -110q0 -53 34.5 -89t94 -36t102.5 46t43 110q0 53 -35 89t-94 36z" glyph-name="uniE603" horiz-adv-x="1570" unicode=""/><glyph d="M330 0l32 190q-117 37 -182 133.5t-65 221.5q0 172 108.5 305t282.5 156l31 176h176l-33 -193q180 -59 229 -256l-190 -59q-31 156 -176 155q-98 0 -164 -85t-66 -191q0 -88 48.5 -144.5t132.5 -56.5q131 0 211 158l176 -66q-53 -113 -144.5 -183.5t-199.5 -84.5 l-31 -176h-176z" glyph-name="uniE604" horiz-adv-x="976" unicode=""/><glyph d="M55 0l25 137q156 119 186 309h-157l30 170h121q-35 174 -35 222q0 178 109.5 271t253.5 93q139 0 233 -83t94 -220q0 -41 -4 -63h-186q2 25 2 41q0 70 -41 109.5t-100 39.5q-72 0 -123 -53t-51 -144q0 -31 6 -64.5t17 -76.5t16 -72h272l-29 -170h-239q-20 -152 -115 -260 h444l-30 -186h-699z" glyph-name="uniE605" horiz-adv-x="960" unicode=""/><glyph d="M602 645l369 537h246l-441 -598h242l-29 -172h-317l-13 -78h316l-31 -172h-315l-29 -162h-201l29 162h-315l30 172h316l12 78h-313l30 172h240l-225 598h219z" glyph-name="uniE606" horiz-adv-x="1185" unicode=""/><glyph d="M152 872q0 137 95 232.5t226 95.5q127 0 204 -80t77 -192q0 -137 -95.5 -232.5t-226.5 -95.5q-127 0 -203.5 79.5t-76.5 192.5zM460.5 1040q-59.5 0 -102.5 -46t-43 -109q0 -53 35 -89t94.5 -36t102.5 46t43 109q0 53 -35 89t-94.5 36zM367 0h-197l1061 1182h196z M846 254q0 137 95 232.5t226 95.5q127 0 204 -80t77 -193q0 -137 -95.5 -232t-226.5 -95q-127 0 -203.5 79.5t-76.5 192.5zM1155 422q-59 0 -102 -46t-43 -110q0 -53 34.5 -89t94 -36t102.5 46t43 110q0 53 -35 89t-94 36zM1511 254q0 137 95.5 232.5t226.5 95.5 q127 0 204 -80t77 -193q0 -137 -95.5 -232t-226.5 -95q-127 0 -204 79.5t-77 192.5zM1820.5 422q-59.5 0 -102.5 -46t-43 -110q0 -53 35 -89t94.5 -36t102.5 46t43 110q0 53 -35 89t-94.5 36z" glyph-name="uniE607" horiz-adv-x="2215" unicode=""/><glyph d="M969 242l104 -148q-156 -115 -332 -114q-193 0 -323.5 105t-173.5 275h-170l28 160h123q0 61 13 135h-111l29 162h133q82 180 235.5 283.5t327.5 103.5q256 0 397 -192l-155 -119q-92 121 -250 121q-96 0 -183.5 -51.5t-146.5 -145.5h543l-70 -162h-538q-16 -72 -17 -135 h504l-70 -160h-405q80 -193 297 -192q113 0 211 74z" glyph-name="uniE608" horiz-adv-x="1257" unicode=""/><glyph d="M170 725l29 168h323q-47 115 -198 115h-105l31 174h721l-76 -166h-225q43 -47 59 -123h191l-76 -168h-123q-31 -139 -120 -224t-222 -108l278 -393h-241l-299 424l24 141h138q182 0 239 160h-348z" glyph-name="uniE609" horiz-adv-x="954" unicode=""/><glyph d="M565 0h-248l-2 377h-231l31 176h198v84h-184l31 174h151l-2 371h205l-4 -838l281 838h235l-20 -828l288 828h215l-135 -371h150l-31 -174h-182l-31 -84h199l-31 -176h-231l-136 -377h-247l18 846z" glyph-name="uniE610" horiz-adv-x="1583" unicode=""/><glyph d="M59 174l31 180h100l15 76h-101l33 182h99l100 570h346q193 0 289 -95.5t96 -238.5q0 -170 -110.5 -294t-303.5 -124h-252l-14 -76h295l-31 -180h-295l-30 -174h-197l31 174h-101zM432 612h207q98 0 159.5 63.5t61.5 155.5q0 76 -52 122t-163 46h-145z" glyph-name="uniE611" horiz-adv-x="1097" unicode=""/><glyph d="M131 590l33 180l145 43l66 369h203l-56 -308l434 130l-32 -181l-432 -129l-17 -88l434 129l-32 -182l-433 -127l-43 -242h150q201 0 272 236l187 -47q-57 -193 -168 -283t-301 -90h-373l63 365l-147 -43l33 180l145 43l17 88z" glyph-name="uniE612" horiz-adv-x="1112" unicode=""/><glyph d="M1028 305l203 -305h-252l-113 172q-254 -193 -452 -192q-168 0 -262.5 86t-94.5 217q0 160 117 274.5t307 206.5q-98 164 -98 299q0 166 113.5 279.5t283.5 113.5q154 0 245 -88t91 -215q0 -74 -31.5 -141.5t-72.5 -114.5t-114 -98t-118 -77t-123 -67 q-219 -111 -284 -163q-111 -88 -111 -185q0 -63 44 -106t126 -43q84 0 177 54t231 169q115 96 329 330l131 -127q-143 -164 -272 -279zM924 1135q0 63 -40 103t-112 40q-80 0 -135 -59.5t-55 -143.5q0 -86 84 -219q4 2 29.5 16.5t34.5 19.5t33.5 20.5t35 24.5t31 25.5 t30.5 29t24.5 30.5t21.5 34.5t12.5 37.5t5.5 41z" glyph-name="uniE650" horiz-adv-x="1353" unicode=""/><glyph d="M731 915l-92 -172q-98 37 -156 127q-80 -61 -126 -155t-46 -199q0 -147 102.5 -250.5t268.5 -103.5q180 0 301 131t121 307q0 72 -27 141l-98 -55q-127 -68 -127 -172q0 -53 35 -88l-144 -117q-80 94 -79 203q0 195 227 326l344 194q131 76 131 172q0 57 -47 101l143 122 q98 -92 99 -215q0 -201 -234 -331l-76 -43q49 -111 49 -230q0 -268 -186 -452.5t-442 -184.5q-252 0 -406.5 157t-154.5 380q0 166 85 312.5t232 234.5q0 174 115.5 289.5t281.5 115.5q133 0 222.5 -70.5t117.5 -177.5l-176 -65q-12 53 -57 90t-111 37q-74 0 -134 -54.5 t-60 -144.5q0 -115 104 -160z" glyph-name="uniE651" horiz-adv-x="1533" unicode=""/><glyph d="M264 76l98 -37q-262 -203 -262 -318q0 -66 82 -65q23 0 47 4l4 -160q-35 -8 -71 -8q-109 0 -170.5 47t-61.5 129q0 51 23.5 102.5t48.5 86t84 84t83.5 68t94.5 67.5z" glyph-name="uniE700" horiz-adv-x="346" unicode=""/><glyph d="M35 -614l-72 75q131 113 150 195q-49 -8 -85 21.5t-36 74.5q0 49 37 84t86 35q51 0 87 -37t36 -104q0 -88 -58.5 -182t-144.5 -162z" glyph-name="uniF6C3" horiz-adv-x="284" unicode=""/><glyph d="M317 608l23 131q-82 27 -128 94.5t-46 155.5q0 119 76.5 212t199.5 112l21 121h139l-22 -134q131 -45 163 -184l-153 -47q-23 98 -113 98q-66 0 -106.5 -52t-40.5 -122q0 -53 29.5 -87t82.5 -34q90 0 136 99l147 -47q-78 -172 -248 -197l-20 -119h-140z" glyph-name="uniF6E0" horiz-adv-x="714" unicode=""/><glyph d="M299 514l25 133q-90 20 -140.5 74.5t-50.5 126.5v12l158 25v-8q0 -104 153 -105q117 0 117 68q0 25 -22.5 47t-46 35.5t-78.5 40.5q-102 51 -156.5 101t-54.5 128q0 98 73.5 155.5t182.5 61.5l20 119h139l-24 -135q78 -23 125 -78t43 -129v-29h-158v8q0 104 -131 105 q-104 0 -104 -74q0 -33 28.5 -55.5t87.5 -48.5q119 -57 179.5 -109.5t60.5 -130.5q0 -88 -64.5 -151.5t-201.5 -67.5l-21 -119h-139z" glyph-name="uniF6E4" horiz-adv-x="739" unicode=""/><glyph d="M1253 674q-12 -4 -17 -11.5t-2 -15.5t13 -14l51 -37q16 -10 14.5 -20.5t-20.5 -12.5l-61 -12q-18 -2 -21.5 -14.5t7.5 -24.5l43 -45q14 -12 11 -22.5t-24 -8.5l-63 2q-18 0 -24.5 -10t3.5 -27l33 -53q8 -16 3 -24.5t-21 -1.5l-62 14q-16 4 -25.5 -5t-3.5 -26l21 -59 q6 -16 -1 -23.5t-24 0.5l-57 27q-35 16 -35 -25l10 -61q2 -18 -6 -23.5t-22 4.5l-51 41q-14 10 -25.5 5t-13.5 -23l-2 -64q-6 -37 -33 -10l-41 49q-27 29 -41 -8l-18 -61q-4 -18 -14.5 -19.5t-18.5 15.5l-31 55q-20 37 -43 0l-27 -55q-6 -10 -13 -14.5t-13 0.5t-8 18l-19 61 q-12 39 -39 8l-43 -49q-27 -31 -30 10l-5 64q-4 41 -41 18l-49 -41q-14 -10 -22 -5t-4 24l8 61q2 18 -9.5 25.5t-27.5 -0.5l-55 -27q-16 -8 -23.5 -1t-1.5 24l21 59q6 16 -2.5 25.5t-24.5 5.5l-63 -14q-16 -6 -22.5 3t3.5 23l35 53q8 16 2 26.5t-23 10.5l-65 -2 q-18 -2 -22.5 8.5t8.5 22.5l47 45q12 12 7 24.5t-24 14.5l-61 12q-18 2 -20.5 12.5t14.5 20.5l51 37q10 6 12 10q18 10 33 -12l29 -53q6 -12 12 -15.5t11 0.5t9 17l17 57q6 20 18 23.5t23 -13.5l43 -47q10 -14 19 -10t11 22l5 62q8 43 40 16l50 -37q14 -12 22 -7t4 24l-6 61 q-2 18 7.5 25.5t25.5 -0.5l57 -27q16 -8 23.5 -1t-0.5 24l-19 61q-6 16 2.5 24.5t24.5 6.5l35 -10q51 -66 84 -194t33 -206q-12 -14 -42 -24.5t-56.5 -4t-26.5 32.5q0 35 -24 60.5t-64 25.5q-35 0 -60.5 -26.5t-25.5 -63.5q0 -51 43 -85t114 -34q141 0 277 115 q98 84 156.5 203t58.5 215q0 70 -32 108.5t-83 38.5q-43 0 -72.5 -30.5t-29.5 -73.5t29.5 -75t70.5 -32q-23 -115 -84 -196q0 119 -40 226.5t-109 152.5q-4 4 -5 8l-45 43q-29 29 13 41l63 10q10 2 15.5 7t3.5 12.5t-13 13.5l-53 37q-35 25 4 41l57 26q18 4 18.5 14.5 t-18.5 18.5l-57 25q-23 2 -18 24q12 6 14 15l31 55q4 10 11 14t13 -1t9 -15l18 -62q14 -41 41 -10l41 51q27 27 33 -12l2 -61q2 -20 13 -24.5t26 5.5l51 39q14 10 22.5 5t5.5 -23l-10 -62q0 -41 35 -24l57 28q16 8 23.5 1t1.5 -25l-21 -60q-6 -16 3.5 -25.5t25.5 -4.5l62 14 q16 6 21 -1t-3 -24l-33 -53q-20 -39 21 -39l63 4q20 2 23.5 -9t-10.5 -23l-43 -46q-10 -12 -7.5 -24t21.5 -14l61 -11q18 -4 20.5 -14t-14.5 -18l-51 -37q-10 -6 -13 -15.5t2 -16.5t17 -11l58 -23q31 -16 0 -35z" glyph-name="uniF8FF" horiz-adv-x="1374" unicode=""/></font>
</defs>
</svg>
