<?xml version="1.0" standalone="no"?>
<!DOCTYPE svg PUBLIC "-//W3C//DTD SVG 1.1//EN" "http://www.w3.org/Graphics/SVG/1.1/DTD/svg11.dtd">
<svg xmlns="http://www.w3.org/2000/svg"><metadata>This SVG WebFont was generated by YouWorkForThem.
Copyright (c) 2018 by Ryan Martinson. All rights reserved.</metadata><defs><font horiz-adv-x="1277" id="ywftsvg"><font-face ascent="1638" bbox="-438 -913 2650 1970" cap-height="1434" descent="-410" font-family="" font-stretch="normal" font-weight="375" panose-1="2 11 4 3 4 0 0 2 0 3" underline-position="0" underline-thickness="0" unicode-range="U+0020-FB04" units-per-em="2048" x-height="1006"/><missing-glyph d="M233 0l252 1434h746l-252 -1434h-746zM344 92h557l221 1249h-557z" horiz-adv-x="1390"/><glyph d="M121 905l18 101h189l24 137q55 317 307 317q127 0 232 -76l-47 -86q-80 59 -176 60q-76 0 -130.5 -48t-78.5 -180l-23 -124h367l-19 -101h-364l-174 -985q-57 -322 -307 -321q-119 0 -222 63l47 88q78 -49 166 -49q76 0 130.5 49t78.5 182l172 973h-190zM1049 1292 q0 37 26.5 61.5t63.5 24.5q31 0 52 -20.5t21 -52.5q0 -35 -26.5 -60.5t-61.5 -25.5q-33 0 -54 21t-21 52zM569 -369l37 95q37 -16 80 -17q113 0 141 162l199 1135h109l-201 -1145q-45 -254 -248 -254q-62 -1 -117 24z" glyph-name="uniE200" horiz-adv-x="1236" unicode="fj"/><glyph d="M870 905l19 101h184l25 137q55 317 307 317q127 0 231 -76l-47 -86q-80 59 -176 60q-76 0 -130 -48t-79 -180l-22 -124h366l-18 -101h-365l-174 -985q-57 -322 -307 -321q-119 0 -221 63l47 88q78 -49 166 -49q76 0 130 49t79 182l172 973h-187zM121 905l18 101h189 l24 137q55 317 307 317q137 0 242 -80l-47 -84q-90 61 -186 62q-76 0 -130.5 -48t-78.5 -180l-23 -124h363l-19 -101h-360l-174 -985q-57 -322 -307 -321q-119 0 -222 63l47 88q78 -49 166 -49q76 0 130.5 49t78.5 182l172 973h-190zM1794 1292q0 37 26.5 61.5t63.5 24.5 q31 0 52.5 -20.5t21.5 -52.5q0 -35 -26.5 -60.5t-61.5 -25.5q-33 0 -54.5 21t-21.5 52zM1315 -369l37 95q37 -16 80 -17q113 0 141 162l199 1135h108l-201 -1145q-45 -254 -247 -254q-62 -1 -117 24z" glyph-name="uniE201" horiz-adv-x="1982" unicode="ffj"/><glyph d="M121 905l18 101h189l24 137q55 317 307 317q127 0 232 -76l-47 -86q-80 59 -176 60q-76 0 -130.5 -48t-78.5 -180l-23 -124h367l-19 -101h-364l-174 -985q-57 -322 -307 -321q-119 0 -222 63l47 88q78 -49 166 -49q76 0 130.5 49t78.5 182l172 973h-190zM1210 1434 l-108 -611q150 203 381 203q195 0 308.5 -128t113.5 -320q0 -236 -147.5 -416t-373.5 -180q-143 0 -241.5 72.5t-141.5 193.5l-43 -248h-108l252 1434h108zM1460 924q-178 0 -300 -143.5t-122 -336.5q0 -156 90.5 -258t243.5 -102q178 0 300 145.5t122 335.5 q0 154 -89 256.5t-245 102.5z" glyph-name="uniE202" horiz-adv-x="2025" unicode="fb"/><glyph d="M870 905l19 101h184l25 137q55 317 307 317q127 0 231 -76l-47 -86q-80 59 -176 60q-76 0 -130 -48t-79 -180l-22 -124h366l-18 -101h-365l-174 -985q-57 -322 -307 -321q-119 0 -221 63l47 88q78 -49 166 -49q76 0 130 49t79 182l172 973h-187zM121 905l18 101h189 l24 137q55 317 307 317q137 0 242 -80l-47 -84q-90 61 -186 62q-76 0 -130.5 -48t-78.5 -180l-23 -124h363l-19 -101h-360l-174 -985q-57 -322 -307 -321q-119 0 -222 63l47 88q78 -49 166 -49q76 0 130.5 49t78.5 182l172 973h-190zM1956 1434l-109 -611q150 203 381 203 q195 0 308.5 -128t113.5 -320q0 -236 -147.5 -416t-372.5 -180q-143 0 -241.5 72.5t-141.5 193.5l-43 -248h-109l252 1434h109zM2206 924q-178 0 -300 -143.5t-122 -336.5q0 -156 90 -258t244 -102q178 0 300 145.5t122 335.5q0 154 -89 256.5t-245 102.5z" glyph-name="uniE203" horiz-adv-x="2770" unicode="ffb"/><glyph d="M121 905l18 101h189l24 137q55 317 307 317q127 0 232 -76l-47 -86q-80 59 -176 60q-76 0 -130.5 -48t-78.5 -180l-23 -124h367l-19 -101h-364l-174 -985q-57 -322 -307 -321q-119 0 -222 63l47 88q78 -49 166 -49q76 0 130.5 49t78.5 182l172 973h-190zM1571 0l-258 451 h-277l-78 -451h-108l252 1434h108l-155 -881h260l373 453h131l-418 -508l287 -498h-117z" glyph-name="uniE204" horiz-adv-x="1818" unicode="fk"/><glyph d="M870 905l19 101h184l25 137q55 317 307 317q127 0 231 -76l-47 -86q-80 59 -176 60q-76 0 -130 -48t-79 -180l-22 -124h366l-18 -101h-365l-174 -985q-57 -322 -307 -321q-119 0 -221 63l47 88q78 -49 166 -49q76 0 130 49t79 182l172 973h-187zM121 905l18 101h189 l24 137q55 317 307 317q137 0 242 -80l-47 -84q-90 61 -186 62q-76 0 -130.5 -48t-78.5 -180l-23 -124h363l-19 -101h-360l-174 -985q-57 -322 -307 -321q-119 0 -222 63l47 88q78 -49 166 -49q76 0 130.5 49t78.5 182l172 973h-190zM2316 0l-258 451h-276l-78 -451h-109 l252 1434h109l-156 -881h260l373 453h131l-418 -508l287 -498h-117z" glyph-name="uniE205" horiz-adv-x="2566" unicode="ffk"/><glyph d="M121 905l18 101h189l24 137q55 317 307 317q127 0 232 -76l-47 -86q-80 59 -176 60q-76 0 -130.5 -48t-78.5 -180l-23 -124h367l-19 -101h-364l-174 -985q-57 -322 -307 -321q-119 0 -222 63l47 88q78 -49 166 -49q76 0 130.5 49t78.5 182l172 973h-190zM1593 0l99 561 q10 51 10 111q0 129 -64.5 191.5t-179.5 62.5q-152 0 -263.5 -106.5t-139.5 -270.5l-97 -549h-108l252 1434h108l-108 -615q137 207 381 207q156 0 242.5 -90t86.5 -250q0 -47 -10 -115l-100 -571h-109z" glyph-name="uniE206" horiz-adv-x="1964" unicode="fh"/><glyph d="M870 905l19 101h184l25 137q55 317 307 317q127 0 231 -76l-47 -86q-80 59 -176 60q-76 0 -130 -48t-79 -180l-22 -124h366l-18 -101h-365l-174 -985q-57 -322 -307 -321q-119 0 -221 63l47 88q78 -49 166 -49q76 0 130 49t79 182l172 973h-187zM121 905l18 101h189 l24 137q55 317 307 317q137 0 242 -80l-47 -84q-90 61 -186 62q-76 0 -130.5 -48t-78.5 -180l-23 -124h363l-19 -101h-360l-174 -985q-57 -322 -307 -321q-119 0 -222 63l47 88q78 -49 166 -49q76 0 130.5 49t78.5 182l172 973h-190zM2339 0l98 561q10 51 10 111 q0 129 -64.5 191.5t-178.5 62.5q-152 0 -263.5 -106.5t-140.5 -270.5l-96 -549h-109l252 1434h109l-109 -615q137 207 381 207q156 0 243 -90t87 -250q0 -47 -10 -115l-101 -571h-108z" glyph-name="uniE207" horiz-adv-x="2709" unicode="ffh"/><glyph d="M121 905l18 101h189l24 137q55 317 307 317q127 0 232 -76l-47 -86q-80 59 -176 60q-76 0 -130.5 -48t-78.5 -180l-23 -124h363l-19 -101h-360l-174 -985q-57 -322 -307 -321q-119 0 -222 63l47 88q78 -49 166 -49q76 0 130.5 49t78.5 182l172 973h-190zM870 905l19 101 h184l57 323l117 43l-65 -366h387l-19 -101h-385l-100 -567q-10 -57 -10 -90q0 -90 44 -128t128 -38q82 0 170 43l28 -92q-102 -51 -208 -51q-268 0 -269 258q0 43 10 108l99 557h-187z" glyph-name="uniE208" horiz-adv-x="1533" unicode="ft"/><glyph d="M870 905l19 101h184l25 137q55 317 307 317q127 0 231 -76l-47 -86q-80 59 -176 60q-76 0 -130 -48t-79 -180l-22 -124h362l-18 -101h-361l-174 -985q-57 -322 -307 -321q-119 0 -221 63l47 88q78 -49 166 -49q76 0 130 49t79 182l172 973h-187zM121 905l18 101h189 l24 137q55 317 307 317q137 0 242 -80l-47 -84q-90 61 -186 62q-76 0 -130.5 -48t-78.5 -180l-23 -124h363l-19 -101h-360l-174 -985q-57 -322 -307 -321q-119 0 -222 63l47 88q78 -49 166 -49q76 0 130.5 49t78.5 182l172 973h-190zM1616 905l18 101h185l57 323l117 43 l-66 -366h387l-18 -101h-385l-101 -567q-10 -57 -10 -90q0 -90 44 -128t128 -38q82 0 170 43l29 -92q-102 -51 -209 -51q-268 0 -268 258q0 43 10 108l98 557h-186z" glyph-name="uniE209" horiz-adv-x="2279" unicode="fft"/><glyph d="M113 905l18 101h188l58 323l117 43l-66 -366h385l-18 -101h-383l-101 -567q-10 -57 -10 -90q0 -90 44 -128t128 -38q82 0 170 43l29 -92q-102 -51 -209 -51q-268 0 -268 258q0 43 10 108l98 557h-190zM889 905l18 101h187l57 323l117 43l-66 -366h385l-16 -101h-385 l-101 -567q-10 -57 -10 -90q0 -90 44 -128t128 -38q82 0 170 43l29 -92q-102 -51 -209 -51q-268 0 -268 258q0 43 10 108l98 557h-188z" glyph-name="uniE210" horiz-adv-x="1554" unicode="tt"/><glyph d="M870 905l19 101h184l25 137q55 317 307 317q137 0 242 -80l-48 -84q-90 61 -186 62q-76 0 -130 -48t-79 -180l-22 -124h366l-18 -101h-365l-174 -985q-57 -322 -307 -321q-119 0 -221 63l47 88q78 -49 166 -49q76 0 130 49t79 182l172 973h-187zM121 905l18 101h189 l24 137q55 317 307 317q137 0 242 -80l-47 -84q-90 61 -186 62q-76 0 -130.5 -48t-78.5 -180l-23 -124h363l-19 -101h-360l-174 -985q-57 -322 -307 -321q-119 0 -222 63l47 88q78 -49 166 -49q76 0 130.5 49t78.5 182l172 973h-190z" glyph-name="uniFB00" horiz-adv-x="1497" unicode="ff"/><glyph d="M121 905l18 101h189l24 137q55 317 307 317q127 0 232 -76l-47 -86q-80 59 -176 60q-76 0 -130.5 -48t-78.5 -180l-23 -124h367l-19 -101h-364l-174 -985q-57 -322 -307 -321q-119 0 -222 63l47 88q78 -49 166 -49q76 0 130.5 49t78.5 182l172 973h-190zM1051 1292 q0 37 25.5 61.5t62.5 24.5q33 0 53 -20.5t20 -52.5q0 -35 -25.5 -60.5t-62.5 -25.5q-33 0 -53 21t-20 52zM850 0l176 1006h109l-177 -1006h-108z" glyph-name="uniFB01" horiz-adv-x="1236" unicode="fi"/><glyph d="M121 905l18 101h189l24 137q55 317 307 317q127 0 232 -76l-47 -86q-80 59 -176 60q-76 0 -130.5 -48t-78.5 -180l-23 -124h367l-19 -101h-364l-174 -985q-57 -322 -307 -321q-119 0 -222 63l47 88q78 -49 166 -49q76 0 130.5 49t78.5 182l172 973h-190zM850 0l252 1434 h108l-252 -1434h-108z" glyph-name="uniFB02" horiz-adv-x="1236" unicode="fl"/><glyph d="M870 905l19 101h184l25 137q55 317 307 317q127 0 231 -76l-47 -86q-80 59 -176 60q-76 0 -130 -48t-79 -180l-22 -124h366l-18 -101h-365l-174 -985q-57 -322 -307 -321q-119 0 -221 63l47 88q78 -49 166 -49q76 0 130 49t79 182l172 973h-187zM121 905l18 101h189 l24 137q55 317 307 317q137 0 242 -80l-47 -84q-90 61 -186 62q-76 0 -130.5 -48t-78.5 -180l-23 -124h363l-19 -101h-360l-174 -985q-57 -322 -307 -321q-119 0 -222 63l47 88q78 -49 166 -49q76 0 130.5 49t78.5 182l172 973h-190zM1796 1292q0 37 25.5 61.5t62.5 24.5 q33 0 53.5 -20.5t20.5 -52.5q0 -35 -25.5 -60.5t-62.5 -25.5q-33 0 -53.5 21t-20.5 52zM1595 0l177 1006h108l-176 -1006h-109z" glyph-name="uniFB03" horiz-adv-x="1982" unicode="ffi"/><glyph d="M870 905l19 101h184l25 137q55 317 307 317q127 0 231 -76l-47 -86q-80 59 -176 60q-76 0 -130 -48t-79 -180l-22 -124h366l-18 -101h-365l-174 -985q-57 -322 -307 -321q-119 0 -221 63l47 88q78 -49 166 -49q76 0 130 49t79 182l172 973h-187zM121 905l18 101h189 l24 137q55 317 307 317q137 0 242 -80l-47 -84q-90 61 -186 62q-76 0 -130.5 -48t-78.5 -180l-23 -124h363l-19 -101h-360l-174 -985q-57 -322 -307 -321q-119 0 -222 63l47 88q78 -49 166 -49q76 0 130.5 49t78.5 182l172 973h-190zM1595 0l252 1434h109l-252 -1434h-109z " glyph-name="uniFB04" horiz-adv-x="1982" unicode="ffl"/><glyph d="M233 0l252 1434h746l-252 -1434h-746zM344 92h557l221 1249h-557z" glyph-name=".notdef" horiz-adv-x="1390"/><glyph glyph-name="glyph1" horiz-adv-x="0"/><glyph glyph-name="glyph2" horiz-adv-x="681"/><glyph glyph-name="space" horiz-adv-x="571" unicode=" "/><glyph d="M377 1434h121l-199 -1028h-84zM109 59q0 41 27.5 68t66.5 27q35 0 57.5 -24t22.5 -56q0 -39 -29 -65.5t-66 -26.5q-33 0 -56 22t-23 55z" glyph-name="exclam" horiz-adv-x="548" unicode="!"/><glyph d="M336 852h-96l92 582h114zM729 852h-96l92 582h115z" glyph-name="quotedbl" horiz-adv-x="851" unicode="&quot;"/><glyph d="M258 928l18 102h244l137 404h105l-137 -404h407l137 404h105l-137 -404h229l-18 -102h-246l-144 -422h230l-19 -103h-245l-136 -403h-104l135 403h-407l-136 -403h-104l135 403h-227l18 103h244l143 422h-227zM590 928l-144 -422h408l143 422h-407z" glyph-name="numbersign" horiz-adv-x="1370" unicode="#"/><glyph d="M395 -184l41 239q-156 25 -250 114t-94 214v18l109 21v-19q0 -115 95 -186.5t257 -71.5q139 0 239.5 60.5t100.5 181.5q0 96 -68.5 151.5t-244.5 139.5q-170 82 -257 162t-87 215q0 156 120.5 247t305.5 91h10l41 225h102l-41 -236q317 -59 318 -374v-9h-109v11 q0 88 -37 149.5t-94 87t-102 34.5t-88 9q-137 0 -226.5 -62.5t-89.5 -172.5q0 -70 45 -126.5t84 -79t131 -65.5q18 -10 29 -14q76 -37 114.5 -56.5t96 -57.5t86.5 -72.5t50.5 -86t21.5 -110.5q0 -156 -121 -249t-328 -93h-16l-41 -229h-103z" glyph-name="dollar" horiz-adv-x="1142" unicode="$"/><glyph d="M289 0h-131l1284 1434h129zM197 1102q0 139 100 244.5t244 105.5q133 0 216 -87t83 -210q0 -139 -100.5 -244.5t-243.5 -105.5q-133 0 -216 87t-83 210zM539 1354q-98 0 -170 -74t-72 -174q0 -86 55.5 -144.5t147.5 -58.5q98 0 168.5 74t70.5 174q0 86 -55 144.5 t-145 58.5zM891 279q0 139 100.5 244.5t243.5 105.5q133 0 216 -87t83 -210q0 -139 -100.5 -244.5t-243.5 -105.5q-133 0 -216 87t-83 210zM1233 530q-98 0 -170 -73.5t-72 -173.5q0 -86 55.5 -144.5t147.5 -58.5q98 0 169 73.5t71 174.5q0 86 -55.5 144t-145.5 58z" glyph-name="percent" horiz-adv-x="1656" unicode="%"/><glyph d="M1163 0h-135l-145 225q-272 -244 -488 -243q-152 0 -236.5 80.5t-84.5 201.5q0 72 30.5 138.5t69.5 111.5t110.5 96.5t119 78t131.5 69.5q-125 195 -125 332q0 156 104 259t254 103q135 0 215 -79t80 -195q0 -145 -100.5 -249t-272.5 -202l219 -336q102 104 258 303 l78 -67q-150 -190 -280 -322zM401 82q180 0 424 231l-233 361q-14 -8 -57 -30.5t-67 -36t-67 -40t-68.5 -47t-57 -50.5t-50 -58.5t-31 -63.5t-12.5 -72q0 -82 57.5 -138t161.5 -56zM764 1352q-94 0 -169 -70t-75 -190q0 -113 115 -281q172 98 233 162q90 90 90 196 q0 80 -52 131.5t-142 51.5z" glyph-name="ampersand" horiz-adv-x="1310" unicode="&amp;"/><glyph d="M336 852h-96l92 582h114z" glyph-name="quotesingle" horiz-adv-x="458" unicode="'"/><glyph d="M600 1487l78 -66q-217 -240 -335 -540.5t-118 -614.5q0 -330 142 -635l-99 -49q-154 313 -153 678q0 330 121.5 647.5t363.5 579.5z" glyph-name="parenleft" horiz-adv-x="598" unicode="("/><glyph d="M10 -418l-78 66q217 240 335 540.5t118 614.5q0 328 -141 635l98 49q154 -313 154 -678q0 -330 -122 -647.5t-364 -579.5z" glyph-name="parenright" horiz-adv-x="598" unicode=")"/><glyph d="M684 1427l-66 -315l306 84l14 -94l-311 -60l151 -264l-88 -51l-127 277l-219 -246l-68 65l236 228l-283 114l50 90l266 -137l43 318z" glyph-name="asterisk" horiz-adv-x="954" unicode="*"/><glyph d="M145 721h320l61 352h103l-64 -352h326l-19 -103h-325l-62 -352h-100l61 352h-319z" glyph-name="plus" horiz-adv-x="960" unicode="+"/><glyph d="M96 -350l-55 57q76 66 120 143.5t46 139.5q-45 -20 -81 4t-36 67q0 41 31 70t72 29q45 0 75.5 -35t30.5 -100q0 -94 -57.5 -197.5t-145.5 -177.5z" glyph-name="comma" horiz-adv-x="499" unicode=","/><glyph d="M739 649l-16 -102h-549l16 102h549z" glyph-name="hyphen" horiz-adv-x="884" unicode="-"/><glyph d="M84 61q0 41 29.5 70t68.5 29q33 0 56.5 -23.5t23.5 -58.5q0 -41 -29.5 -68.5t-68.5 -27.5q-33 0 -56.5 23t-23.5 56z" glyph-name="period" horiz-adv-x="481" unicode="."/><glyph d="M868 1434h117l-866 -1434h-119z" glyph-name="slash" horiz-adv-x="913" unicode="/"/><glyph d="M166 543q0 160 43 320.5t121 292.5t197.5 214t258.5 82q217 0 329 -157.5t112 -403.5q0 -160 -43 -320.5t-121 -293t-198 -214t-259 -81.5q-217 0 -328.5 157.5t-111.5 403.5zM782 1348q-147 0 -267 -127t-179.5 -308.5t-59.5 -365.5q0 -205 86.5 -333t247.5 -128 q147 0 267 127t179.5 308t59.5 366q0 205 -86 333t-248 128z" glyph-name="zero" horiz-adv-x="1316" unicode="0"/><glyph d="M180 1126l23 127l342 181h90l-252 -1434h-109l228 1292z" glyph-name="one" horiz-adv-x="706" unicode="1"/><glyph d="M952 104l-16 -104h-899l16 84q449 319 672 532q78 74 129 132.5t97 150.5t46 178q0 119 -78.5 195t-213.5 76q-139 0 -243 -88.5t-128 -280.5h-109q27 242 166 357.5t320 115.5q178 0 288.5 -101.5t110.5 -260.5q0 -254 -307 -545q-195 -184 -551 -441h700z" glyph-name="two" horiz-adv-x="1150" unicode="2"/><glyph d="M39 152l65 88q203 -154 420 -154q168 0 261.5 85t93.5 204q0 135 -122 222t-319 87l19 107q201 -4 352.5 75.5t151.5 245.5q0 104 -82 170t-209 66q-131 0 -220.5 -71t-95.5 -173h-108q8 154 130 251t300 97q174 0 286.5 -93t112.5 -237q0 -137 -92 -246.5t-278 -146.5 q135 -47 211.5 -138t76.5 -212q0 -154 -121.5 -275.5t-353.5 -121.5q-252 0 -479 170z" glyph-name="three" horiz-adv-x="1155" unicode="3"/><glyph d="M799 0h-111l57 322h-692l15 77l563 1035h125l-553 -1008h561l98 551l115 33l-105 -584h228l-19 -104h-227z" glyph-name="four" horiz-adv-x="1185" unicode="4"/><glyph d="M381 1434h719l-19 -105h-610l-88 -491h51q295 0 433.5 -120t138.5 -304q0 -176 -120 -304t-356 -128q-258 0 -481 170l64 88q203 -154 422 -154q176 0 268 94t92 228q0 141 -114.5 232t-370.5 91h-154z" glyph-name="five" horiz-adv-x="1142" unicode="5"/><glyph d="M989 1434l-465 -498q61 23 129 22q190 0 305 -123.5t115 -306.5q0 -219 -150.5 -382.5t-371.5 -163.5q-197 0 -315.5 127t-118.5 311q0 133 55 238.5t164 222.5l504 553h149zM633 858q-166 0 -285 -131t-119 -305q0 -141 88.5 -238.5t235.5 -97.5q168 0 288 131t120 309 q0 141 -89 236.5t-239 95.5z" glyph-name="six" horiz-adv-x="1177" unicode="6"/><glyph d="M207 1329l18 105h854l-16 -86l-842 -1348h-133l838 1329h-719z" glyph-name="seven" horiz-adv-x="980" unicode="7"/><glyph d="M1073 420q0 -174 -129 -306t-356 -132q-217 0 -346 108.5t-129 271.5q0 147 95 268.5t259 155.5q-168 88 -168 273q0 174 127 283.5t307 109.5q188 0 303 -97.5t115 -244.5q0 -133 -80 -232.5t-213 -132.5q102 -49 158.5 -134t56.5 -191zM592 84q154 0 261.5 93 t107.5 243q0 127 -96.5 211t-260.5 84q-166 0 -271.5 -100.5t-105.5 -241.5q0 -123 97.5 -206t267.5 -83zM713 811q129 0 227 77t98 214q0 106 -82 177t-225 71q-133 0 -227 -79t-94 -204q0 -109 85 -182.5t218 -73.5z" glyph-name="eight" horiz-adv-x="1230" unicode="8"/><glyph d="M262 0l465 498q-61 -23 -129 -23q-190 0 -305 124t-115 306q0 219 150.5 383t371.5 164q197 0 316 -127t119 -311q0 -133 -55.5 -238.5t-164.5 -222.5l-503 -553h-150zM618 575q166 0 285 131.5t119 305.5q0 141 -88 238.5t-236 97.5q-168 0 -287.5 -131.5t-119.5 -309.5 q0 -141 88.5 -236.5t238.5 -95.5z" glyph-name="nine" horiz-adv-x="1177" unicode="9"/><glyph d="M92 61q0 41 30 70t68 29q33 0 56.5 -23.5t23.5 -58.5q0 -41 -29.5 -68.5t-68.5 -27.5q-33 0 -56.5 23t-23.5 56zM240 905q0 41 29.5 70t68.5 29q33 0 56.5 -24t23.5 -58q0 -41 -30 -69t-69 -28q-33 0 -56 23.5t-23 56.5z" glyph-name="colon" horiz-adv-x="512" unicode=":"/><glyph d="M111 -350l-56 57q76 66 120 143.5t46 139.5q-45 -20 -81 4t-36 67q0 41 31 70t72 29q45 0 75.5 -35t30.5 -100q0 -94 -57 -197.5t-145 -177.5zM254 905q0 41 29.5 70t68.5 29q33 0 56.5 -24t23.5 -58q0 -41 -29.5 -69t-68.5 -28q-33 0 -56.5 23.5t-23.5 56.5z" glyph-name="semicolon" horiz-adv-x="571" unicode=";"/><glyph d="M115 625l16 94l813 371l-22 -123l-668 -301l561 -301l-20 -109z" glyph-name="less" horiz-adv-x="1003" unicode="&lt;"/><glyph d="M236 844l18 100h745l-18 -100h-745zM158 401l18 103h748l-19 -103h-747z" glyph-name="equal" horiz-adv-x="1103" unicode="="/><glyph d="M946 719l-16 -94l-813 -371l22 123l668 301l-561 301l20 108z" glyph-name="greater" horiz-adv-x="1003" unicode=">"/><glyph d="M477 403h-106l14 84q18 98 78.5 162t183.5 142q145 92 193 145q68 76 67 172q0 104 -75.5 173t-202.5 69q-129 0 -226.5 -78t-105.5 -215h-109q16 195 147.5 296t301.5 101q172 0 277.5 -95t105.5 -243q0 -94 -42 -170t-98.5 -122t-160.5 -111q-70 -45 -91.5 -59.5 t-60.5 -47.5t-54 -63.5t-24 -71.5zM279 59q0 41 28.5 68t67.5 27q33 0 55.5 -22.5t22.5 -55.5q0 -41 -28 -67.5t-67 -26.5q-35 0 -57 22t-22 55z" glyph-name="question" horiz-adv-x="1019" unicode="?"/><glyph d="M907 899q94 0 160 -46t96 -124l27 152h92l-78 -443q-8 -47 -8 -96q0 -180 137 -180q111 0 185.5 137t74.5 330q0 266 -171 445t-459 179q-309 0 -530.5 -237.5t-221.5 -560.5q0 -268 170 -453.5t457 -185.5q193 0 358 102l37 -63q-184 -111 -397 -111q-322 0 -512.5 205 t-190.5 502q0 356 246 617t584 261q324 0 516 -201.5t192 -500.5q0 -238 -101.5 -389.5t-244.5 -151.5q-90 0 -150.5 57.5t-68.5 167.5q-102 -137 -260 -137q-141 0 -223 90t-82 223q0 166 108 289t258 123zM856 256q117 0 198 94t81 219q0 104 -58.5 174t-161.5 70 q-117 0 -197.5 -97.5t-80.5 -223.5q0 -100 58.5 -168t160.5 -68z" glyph-name="at" horiz-adv-x="1798" unicode="@"/><glyph d="M819 1434h125l363 -1434h-115l-84 336h-825l-201 -336h-127zM866 1311l-520 -869h735z" glyph-name="A" horiz-adv-x="1437" unicode="A"/><glyph d="M145 0l252 1434h568q190 0 288.5 -95.5t98.5 -234.5q0 -129 -73 -234.5t-196 -148.5q100 -41 154.5 -125t54.5 -186q0 -168 -121.5 -289t-349.5 -121h-676zM901 678h-528l-101 -574h551q170 0 263.5 89.5t93.5 218.5q0 109 -71 187.5t-208 78.5zM952 1329h-465l-96 -549 h565q115 0 199 96.5t84 215.5q0 102 -71 169.5t-216 67.5z" glyph-name="B" horiz-adv-x="1458" unicode="B"/><glyph d="M1368 449l102 -39q-100 -201 -282 -314.5t-385 -113.5q-291 0 -464 188t-173 465q0 213 98 400.5t275.5 302t390.5 114.5q231 0 390 -124t216 -324l-109 -33q-49 170 -180 273.5t-323 103.5q-268 0 -458 -214t-190 -495q0 -233 144.5 -393t386.5 -160q168 0 320.5 96.5 t240.5 266.5z" glyph-name="C" horiz-adv-x="1570" unicode="C"/><glyph d="M145 0l252 1434h430q299 0 453 -167t154 -431q0 -111 -25 -223.5t-82 -224.5t-141 -197t-213 -138t-287 -53h-541zM807 1329h-320l-215 -1225h418q131 0 239.5 45.5t179.5 118t120 168.5t70.5 195.5t21.5 199.5q0 225 -127 361.5t-387 136.5z" glyph-name="D" horiz-adv-x="1523" unicode="D"/><glyph d="M145 0l252 1434h932l-18 -105h-824l-98 -557h680l-18 -106h-680l-99 -562h826l-21 -104h-932z" glyph-name="E" horiz-adv-x="1275" unicode="E"/><glyph d="M145 0l252 1434h897l-18 -105h-789l-110 -624h719l-19 -105h-719l-104 -600h-109z" glyph-name="F" horiz-adv-x="1228" unicode="F"/><glyph d="M821 631l21 106h635l-129 -737h-105l47 272q-174 -291 -512 -290q-285 0 -447.5 183t-162.5 456q0 340 220 585.5t544 245.5q197 0 342 -91t221 -247l-100 -51q-63 131 -185.5 208t-283.5 77q-272 0 -459.5 -216.5t-187.5 -502.5q0 -231 134 -387t373 -156 q211 0 360.5 141.5t207.5 403.5h-533z" glyph-name="G" horiz-adv-x="1589" unicode="G"/><glyph d="M1427 1434h109l-252 -1434h-108l116 664h-921l-117 -664h-109l252 1434h109l-117 -664h922z" glyph-name="H" horiz-adv-x="1607" unicode="H"/><glyph d="M397 1434h109l-252 -1434h-109z" glyph-name="I" horiz-adv-x="577" unicode="I"/><glyph d="M471 1329l18 105h762l-174 -992q-39 -213 -179 -336.5t-335 -123.5q-227 0 -347 123.5t-120 314.5q0 47 10 108l25 140h109l-25 -138q-10 -57 -10 -98q0 -156 92 -251t268 -95q154 0 264.5 101.5t143.5 279.5l151 862h-653z" glyph-name="J" horiz-adv-x="1302" unicode="J"/><glyph d="M1102 0l-338 664h-393l-117 -664h-109l252 1434h109l-117 -664h373l530 664h135l-571 -715l367 -719h-121z" glyph-name="K" horiz-adv-x="1355" unicode="K"/><glyph d="M397 1434h109l-234 -1330h779l-19 -104h-887z" glyph-name="L" horiz-adv-x="1171" unicode="L"/><glyph d="M254 0h-109l252 1434h107l389 -1049l776 1049h107l-252 -1434h-109l211 1202l-702 -952h-90l-365 973z" glyph-name="M" horiz-adv-x="1847" unicode="M"/><glyph d="M254 0h-109l252 1434h111l709 -1272l223 1272h108l-252 -1434h-110l-709 1270z" glyph-name="N" horiz-adv-x="1617" unicode="N"/><glyph d="M168 635q0 334 223 575.5t541 241.5q293 0 466 -188.5t173 -464.5q0 -334 -223.5 -575.5t-542.5 -241.5q-291 0 -464 188.5t-173 464.5zM926 1348q-268 0 -457.5 -213t-189.5 -496q0 -233 144 -393t388 -160q270 0 459.5 213t189.5 496q0 233 -144 393t-390 160z" glyph-name="O" horiz-adv-x="1662" unicode="O"/><glyph d="M145 0l252 1434h465q231 0 356 -127t125 -316q0 -219 -149.5 -382t-417.5 -163h-444l-78 -446h-109zM350 553h418q221 0 343 129t122 311q0 147 -99.5 241.5t-297.5 94.5h-349z" glyph-name="P" horiz-adv-x="1374" unicode="P"/><glyph d="M168 635q0 334 223 575.5t541 241.5q293 0 466 -188.5t173 -464.5q0 -287 -172 -516.5t-459 -288.5q199 -254 428 -254q96 0 199 59l43 -94q-115 -72 -246 -72q-291 0 -559 349q-291 0 -464 188.5t-173 464.5zM926 1348q-268 0 -457.5 -213t-189.5 -496q0 -233 145 -393 t387 -160q270 0 459.5 213t189.5 496q0 233 -144 393t-390 160z" glyph-name="Q" horiz-adv-x="1662" unicode="Q"/><glyph d="M397 1434h508q217 0 332 -116t115 -288q0 -178 -106.5 -312t-272.5 -177l268 -541h-123l-260 522h-512l-92 -522h-109zM365 627h448q193 0 308.5 112.5t115.5 284.5q0 133 -87 219t-267 86h-396z" glyph-name="R" horiz-adv-x="1429" unicode="R"/><glyph d="M102 387l111 21q-2 -23 -2 -35q0 -145 125 -217t311 -72q156 0 265.5 67.5t109.5 192.5q0 59 -25.5 107.5t-86 89.5t-107.5 65.5t-144 65.5q-98 43 -153 72.5t-123 81t-99.5 116t-31.5 145.5q0 170 135 267.5t342 97.5q231 0 367.5 -110.5t136.5 -313.5v-10h-111v8 q0 160 -107.5 241t-293.5 81q-164 0 -260 -74t-96 -187q0 -59 25.5 -106t82.5 -87t105.5 -64.5t138.5 -65.5q86 -39 131 -60.5t109.5 -62.5t97 -79t57.5 -94t25 -122q0 -170 -138.5 -267t-357.5 -97q-227 0 -384 97t-157 275q0 13 2 33z" glyph-name="S" horiz-adv-x="1292" unicode="S"/><glyph d="M201 1329l20 105h1098l-19 -105h-493l-234 -1329h-108l233 1329h-497z" glyph-name="T" horiz-adv-x="1214" unicode="T"/><glyph d="M1405 1434h108l-167 -955q-41 -231 -201 -364t-391 -133q-264 0 -401.5 137t-137.5 348q0 51 10 117l150 850h108l-149 -852q-10 -61 -10 -105q0 -174 109.5 -282.5t324.5 -108.5q188 0 318 108.5t165 307.5z" glyph-name="U" horiz-adv-x="1564" unicode="U"/><glyph d="M678 0h-127l-342 1434h115l307 -1303l766 1303h127z" glyph-name="V" horiz-adv-x="1404" unicode="V"/><glyph d="M549 0h-131l-174 1434h112l154 -1274l610 1274h123l154 -1272l600 1272h125l-680 -1434h-129l-156 1268z" glyph-name="W" horiz-adv-x="2031" unicode="W"/><glyph d="M1413 1434l-641 -717l402 -717h-130l-354 639l-575 -639h-150l653 721l-389 713h131l338 -639l566 639h149z" glyph-name="X" horiz-adv-x="1314" unicode="X"/><glyph d="M332 1434l364 -787l643 787h144l-744 -906l-90 -528h-110l92 528l-422 906h123z" glyph-name="Y" horiz-adv-x="1361" unicode="Y"/><glyph d="M254 1329l18 105h1026l-16 -91l-1116 -1239h897l-19 -104h-1050l14 90l1118 1239h-872z" glyph-name="Z" horiz-adv-x="1228" unicode="Z"/><glyph d="M526 -262l-18 -105h-440l317 1801h440l-18 -105h-332l-278 -1591h329z" glyph-name="bracketleft" horiz-adv-x="729" unicode="["/><glyph d="M233 1434h107l371 -1434h-107z" glyph-name="backslash" horiz-adv-x="868" unicode="\"/><glyph d="M213 1329l18 105h441l-318 -1801h-440l18 105h332l279 1591h-330z" glyph-name="bracketright" horiz-adv-x="729" unicode="]"/><glyph d="M602 1434h96l191 -691h-109l-145 560l-346 -560h-121z" glyph-name="asciicircum" horiz-adv-x="962" unicode="^"/><glyph d="M805 -168l-19 -100h-923l18 100h924z" glyph-name="underscore" horiz-adv-x="923" unicode="_"/><glyph d="M637 1595l-88 -36l-189 301l95 61z" glyph-name="grave" horiz-adv-x="526" unicode="`"/><glyph d="M891 0l33 184q-150 -203 -381 -202q-195 0 -308.5 128t-113.5 320q0 236 147.5 416t372.5 180q143 0 241.5 -72.5t141.5 -193.5l43 246h109l-177 -1006h-108zM565 84q178 0 300 143.5t122 335.5q0 156 -90 258.5t-244 102.5q-178 0 -300 -145.5t-122 -336.5 q0 -154 89 -256t245 -102z" glyph-name="a" unicode="a"/><glyph d="M461 1434l-109 -611q150 203 381 203q195 0 308.5 -128t113.5 -320q0 -236 -147.5 -416t-372.5 -180q-143 0 -241.5 72.5t-141.5 193.5l-43 -248h-109l252 1434h109zM711 924q-178 0 -300 -143.5t-122 -336.5q0 -156 90 -258t244 -102q178 0 299.5 145.5t121.5 335.5 q0 154 -88.5 256.5t-244.5 102.5z" glyph-name="b" unicode="b"/><glyph d="M942 332l100 -37q-72 -147 -200.5 -230t-276.5 -83q-203 0 -323.5 133t-120.5 327q0 238 156.5 411t381.5 173q162 0 273.5 -88t150.5 -231l-104 -33q-29 113 -113 181.5t-213 68.5q-180 0 -301 -145.5t-121 -336.5q0 -154 89.5 -257t248.5 -103q113 0 215.5 66.5 t157.5 183.5z" glyph-name="c" horiz-adv-x="1163" unicode="c"/><glyph d="M891 0l33 184q-150 -203 -381 -202q-195 0 -308.5 128t-113.5 320q0 236 147.5 416t372.5 180q143 0 241.5 -72.5t141.5 -193.5l119 674h108l-252 -1434h-108zM565 84q178 0 300 143.5t122 335.5q0 156 -90 258.5t-244 102.5q-178 0 -300 -145.5t-122 -336.5 q0 -154 89 -256t245 -102z" glyph-name="d" unicode="d"/><glyph d="M909 217l58 -82q-158 -154 -392 -153q-213 0 -333.5 131t-120.5 325q0 244 161.5 416t405.5 172q162 0 260.5 -77t98.5 -193q0 -147 -160 -244.5t-481 -97.5h-177q10 -145 100.5 -238.5t250.5 -93.5q188 0 329 135zM233 508h170q270 0 401.5 68.5t131.5 175.5 q0 76 -66.5 124t-179.5 48q-172 0 -300 -109.5t-157 -306.5z" glyph-name="e" horiz-adv-x="1140" unicode="e"/><glyph d="M121 905l18 101h189l24 137q55 317 307 317q137 0 242 -80l-47 -84q-90 61 -186 62q-76 0 -130.5 -48t-78.5 -180l-23 -124h367l-19 -101h-364l-174 -985q-57 -322 -307 -321q-119 0 -222 63l47 88q78 -49 166 -49q76 0 130.5 49t78.5 182l172 973h-190z" glyph-name="f" horiz-adv-x="751" unicode="f"/><glyph d="M125 459q0 227 142.5 397t355.5 170q141 0 238 -69.5t138 -188.5l41 238h109l-160 -912q-25 -143 -76 -243.5t-119.5 -151.5t-136 -72.5t-145.5 -21.5q-279 0 -465 221l76 78q174 -197 391 -197q299 0 367 387l20 119q-143 -184 -362 -184q-193 0 -303.5 123t-110.5 307z M637 924q-166 0 -283.5 -134.5t-117.5 -320.5q0 -147 88 -243.5t235 -96.5q168 0 287 134t119 310q0 150 -89 250.5t-239 100.5z" glyph-name="g" horiz-adv-x="1251" unicode="g"/><glyph d="M844 0l98 561q10 51 10 111q0 129 -64.5 191.5t-178.5 62.5q-152 0 -263.5 -106.5t-140.5 -270.5l-96 -549h-109l252 1434h109l-109 -615q137 207 381 207q156 0 243 -90t87 -250q0 -47 -10 -115l-101 -571h-108z" glyph-name="h" horiz-adv-x="1216" unicode="h"/><glyph d="M301 1292q0 37 25.5 61.5t62.5 24.5q33 0 53.5 -20.5t20.5 -52.5q0 -35 -25.5 -60.5t-62.5 -25.5q-33 0 -53.5 21t-20.5 52zM100 0l176 1006h109l-176 -1006h-109z" glyph-name="i" horiz-adv-x="487" unicode="i"/><glyph d="M313 1292q0 37 27 61.5t63 24.5q31 0 52.5 -20.5t21.5 -52.5q0 -35 -26.5 -60.5t-61.5 -25.5q-33 0 -54.5 21t-21.5 52zM-166 -369l37 95q37 -16 80 -17q113 0 141 162l199 1135h108l-200 -1145q-45 -254 -248 -254q-62 -1 -117 24z" glyph-name="j" horiz-adv-x="501" unicode="j"/><glyph d="M821 0l-258 451h-276l-78 -451h-109l252 1434h109l-156 -881h260l373 453h131l-418 -508l287 -498h-117z" glyph-name="k" horiz-adv-x="1071" unicode="k"/><glyph d="M100 0l252 1434h109l-252 -1434h-109z" glyph-name="l" horiz-adv-x="487" unicode="l"/><glyph d="M1442 0l106 608q10 61 11 94q0 111 -57.5 167.5t-160.5 56.5q-137 0 -235 -95.5t-123 -234.5l-104 -596h-109l107 608q10 57 10 97q0 111 -56.5 166t-158.5 55q-139 0 -236.5 -94.5t-122.5 -233.5l-104 -598h-109l176 1006h109l-31 -177q121 197 348 197q119 0 194 -59.5 t95 -167.5q59 106 156.5 166.5t218.5 60.5q143 0 223 -81t80 -224q0 -45 -10 -103l-109 -618h-108z" glyph-name="m" horiz-adv-x="1816" unicode="m"/><glyph d="M844 0l98 561q10 51 10 111q0 129 -64.5 191.5t-178.5 62.5q-152 0 -263.5 -106.5t-140.5 -270.5l-96 -549h-109l176 1006h109l-33 -187q137 207 381 207q156 0 243 -90t87 -250q0 -61 -10 -113l-101 -573h-108z" glyph-name="n" horiz-adv-x="1216" unicode="n"/><glyph d="M121 444q0 240 159.5 411t387.5 171q209 0 331.5 -133t122.5 -330q0 -240 -159.5 -410.5t-387.5 -170.5q-209 0 -331.5 132.5t-122.5 329.5zM662 924q-180 0 -306.5 -143.5t-126.5 -334.5q0 -154 93.5 -258t257.5 -104q182 0 308 143.5t126 333.5q0 156 -93 259.5 t-259 103.5z" glyph-name="o" horiz-adv-x="1243" unicode="o"/><glyph d="M387 1006l-33 -183q150 203 381 203q195 0 308.5 -128t113.5 -320q0 -236 -147.5 -416t-372.5 -180q-143 0 -241.5 72.5t-141.5 193.5l-109 -615h-108l242 1373h108zM713 924q-178 0 -300 -143.5t-122 -336.5q0 -156 90 -258t244 -102q178 0 300 145.5t122 335.5 q0 154 -89 256.5t-245 102.5z" glyph-name="p" unicode="p"/><glyph d="M825 -367l99 551q-150 -203 -381 -202q-195 0 -308.5 128t-113.5 320q0 236 147.5 416t372.5 180q143 0 241.5 -72.5t141.5 -193.5l43 246h109l-242 -1373h-109zM565 84q178 0 300 143.5t122 335.5q0 156 -90 258.5t-244 102.5q-178 0 -300 -145.5t-122 -336.5 q0 -154 89 -256t245 -102z" glyph-name="q" unicode="q"/><glyph d="M385 1006l-61 -349q76 133 202.5 240t268.5 129l-21 -125q-162 -33 -312.5 -177t-178.5 -304l-74 -420h-109l176 1006h109z" glyph-name="r" horiz-adv-x="757" unicode="r"/><glyph d="M74 260l108 25v-6q0 -100 86 -150.5t209 -50.5q131 0 204 45t73 123q0 18 -5.5 35.5t-11.5 31t-20.5 27.5t-23.5 23.5t-30.5 20.5t-31.5 17.5t-37 17.5t-37 14t-39 14.5t-37 13.5q-152 55 -229.5 117.5t-77.5 171.5q0 133 110.5 204.5t266.5 71.5q172 0 274.5 -77 t102.5 -218v-2h-109v4q0 98 -74.5 146.5t-191.5 48.5t-192.5 -43t-75.5 -131q0 -76 59 -116t209 -93q154 -55 232.5 -116.5t78.5 -174.5q0 -127 -104.5 -199.5t-276.5 -72.5q-182 0 -295.5 75.5t-113.5 202.5z" glyph-name="s" horiz-adv-x="1026" unicode="s"/><glyph d="M113 905l18 101h188l58 323l117 43l-66 -366h387l-18 -101h-385l-101 -567q-10 -57 -10 -90q0 -90 44 -128t128 -38q82 0 170 43l29 -92q-102 -51 -209 -51q-268 0 -268 258q0 43 10 108l98 557h-190z" glyph-name="t" horiz-adv-x="780" unicode="t"/><glyph d="M371 1006l-99 -562q-10 -51 -10 -108q0 -129 64.5 -191.5t179.5 -62.5q152 0 263.5 105.5t139.5 269.5l97 549h108l-176 -1006h-109l33 186q-137 -205 -381 -204q-156 0 -242.5 89t-86.5 248q0 61 10 113l100 574h109z" glyph-name="u" horiz-adv-x="1214" unicode="u"/><glyph d="M516 0h-121l-248 1006h113l211 -885l520 885h127z" glyph-name="v" horiz-adv-x="1087" unicode="v"/><glyph d="M428 0h-135l-137 1006h110l115 -883l436 883h129l119 -875l422 875h121l-494 -1006h-133l-119 872z" glyph-name="w" horiz-adv-x="1589" unicode="w"/><glyph d="M1063 1006l-469 -502l299 -504h-125l-250 430l-399 -430h-146l480 508l-293 498h125l243 -422l392 422h143z" glyph-name="x" horiz-adv-x="1044" unicode="x"/><glyph d="M-27 -414l-30 99q49 10 84.5 22t101.5 44t134.5 97.5t133.5 159.5l-247 998h112l211 -877l520 877h127l-571 -951q-84 -139 -170 -234t-166 -141.5t-130.5 -65t-109.5 -28.5z" glyph-name="y" horiz-adv-x="1085" unicode="y"/><glyph d="M172 905l18 101h762l-16 -80l-752 -826h609l-19 -100h-762l15 80l749 825h-604z" glyph-name="z" horiz-adv-x="964" unicode="z"/><glyph d="M37 479l18 107h68q66 0 112 19.5t72.5 58t38.5 75.5t23 92l51 297q25 143 94.5 224.5t222.5 81.5h119l-18 -105h-90q-63 0 -105.5 -18.5t-66 -58.5t-34 -72.5t-20.5 -92.5l-47 -270q-25 -129 -66.5 -199.5t-144.5 -95.5q117 -53 117 -200q0 -45 -8 -84l-45 -250 q-10 -51 -11 -90q0 -160 172 -160h66l-16 -105h-76q-131 0 -193.5 70t-62.5 178q0 25 8 78l47 272q6 37 6 72q0 176 -213 176h-18z" glyph-name="braceleft" horiz-adv-x="761" unicode="{"/><glyph d="M397 1507h95l-330 -1874h-94z" glyph-name="bar" horiz-adv-x="538" unicode="|"/><glyph d="M735 588l-18 -107h-68q-66 0 -111.5 -19.5t-72.5 -58t-39 -75.5t-23 -92l-51 -297q-25 -143 -94.5 -224.5t-222.5 -81.5h-119l18 105h91q63 0 105 18.5t65.5 58.5t34 72.5t20.5 92.5l47 270q25 129 67 199.5t144 95.5q-117 53 -117 200q0 45 8 84l45 250q10 51 11 90 q0 160 -172 160h-66l16 105h76q131 0 193.5 -70t62.5 -178q0 -25 -8 -78l-47 -272q-6 -37 -6 -72q0 -176 213 -176h18z" glyph-name="braceright" horiz-adv-x="763" unicode="}"/><glyph d="M262 451h-98q16 115 71.5 193.5t153.5 78.5q59 0 95 -28.5t71 -82.5q2 -4 10 -16t10.5 -16.5t9.5 -13.5t10 -13t10 -11t12.5 -9.5t12.5 -6.5t14 -5t15 -1q86 0 121 178h99q-16 -113 -70.5 -191.5t-153.5 -78.5q-57 0 -95 27.5t-73 81.5q-4 6 -12 19l-12 19.5t-12.5 16.5 t-14.5 15t-14 11.5t-18.5 8.5t-20.5 2q-88 0 -121 -178z" glyph-name="asciitilde" horiz-adv-x="1015" unicode="~"/><glyph glyph-name="uni00A0" horiz-adv-x="571" unicode=" "/><glyph d="M143 -428h-120l198 1028h84zM412 946q0 -41 -28 -67.5t-67 -26.5q-35 0 -57 22.5t-22 57.5q0 39 28.5 65.5t65.5 26.5q33 0 56.5 -22.5t23.5 -55.5z" glyph-name="exclamdown" horiz-adv-x="495" unicode="¡"/><glyph d="M897 563l98 -39q-72 -139 -187.5 -209.5t-234.5 -70.5l-41 -244h-100l41 252q-150 31 -232.5 142.5t-82.5 264.5q0 127 53 244t167 199t261 88l45 244h100l-45 -252q115 -23 191 -98.5t106 -182.5l-104 -33q-27 96 -99.5 159t-187.5 63q-162 0 -269.5 -127t-107.5 -299 q0 -137 81 -228.5t224 -91.5q90 0 178.5 56.5t145.5 162.5z" glyph-name="cent" horiz-adv-x="1087" unicode="¢"/><glyph d="M76 0l14 82q242 195 242 471q0 33 -2 51h-180l18 103h149q-2 18 -16 91.5t-19.5 120t-5.5 93.5q0 190 114 315t298 125q150 0 250 -92t100 -246q0 -16 -4 -53h-106q2 14 2 43q0 117 -67.5 182.5t-176.5 65.5q-133 0 -218 -97.5t-85 -244.5q0 -43 7 -90.5t20.5 -114 t19.5 -98.5h371l-19 -103h-342v-47q-4 -272 -198 -457h614l-16 -100h-764z" glyph-name="sterling" horiz-adv-x="1052" unicode="£"/><glyph d="M135 348l191 156q-49 80 -50 176q0 160 107 268l-115 156l78 59l111 -151q90 59 192 59q121 0 205 -67l193 159l61 -78l-190 -155q49 -80 49 -176q0 -160 -107 -269l115 -155l-78 -60l-111 152q-90 -59 -192 -60q-121 0 -205 68l-192 -160zM645 971q-104 0 -182 -88 t-78 -197q0 -94 57.5 -158.5t155.5 -64.5q104 0 182 88t78 197q0 94 -57.5 158.5t-155.5 64.5z" glyph-name="currency" horiz-adv-x="1171" unicode="¤"/><glyph d="M604 645l524 789h132l-566 -834h314l-19 -102h-350l-35 -201h350l-18 -102h-350l-33 -195h-109l33 195h-350l18 102h351l34 201h-348l19 102h309l-268 834h116z" glyph-name="yen" horiz-adv-x="1181" unicode="¥"/><glyph d="M209 438h94l-141 -805h-94zM397 1507h95l-144 -811h-92z" glyph-name="brokenbar" horiz-adv-x="538" unicode="¦"/><glyph d="M961 688q0 -160 -179 -244q96 -76 97 -182q0 -131 -94.5 -205.5t-254.5 -74.5q-166 0 -278.5 69.5t-112.5 200.5v8l101 23v-17q0 -96 86 -145t202 -49q123 0 184.5 53t61.5 129q0 41 -21.5 74.5t-64.5 58.5t-78 38t-90 32q-68 23 -117 44t-101 56t-80.5 83t-28.5 105 q0 80 49 145.5t131 96.5q-98 78 -99 184q0 125 90.5 203t258.5 78t279.5 -71.5t111.5 -206.5v-23h-103v14q0 98 -83 147.5t-203 49.5q-123 0 -183.5 -53.5t-60.5 -128.5q0 -41 21.5 -75t63.5 -58.5t77 -38t90 -31.5q68 -23 117 -44.5t101 -56t81 -83t29 -105.5zM584 889 q-72 25 -115 43q-168 -43 -168 -178q2 -125 268 -209q80 -27 115 -43q72 16 121 62t49 114q0 43 -25.5 79t-71.5 61.5t-84 40t-89 30.5z" glyph-name="section" horiz-adv-x="1077" unicode="§"/><glyph d="M326 1673q0 41 27.5 67.5t66.5 26.5q33 0 56.5 -22.5t23.5 -54.5q0 -41 -28 -68t-66 -27q-33 0 -56.5 22.5t-23.5 55.5zM676 1673q0 41 27.5 67.5t66.5 26.5q33 0 56.5 -22.5t23.5 -54.5q0 -41 -27.5 -68t-66.5 -27q-33 0 -56.5 22.5t-23.5 55.5z" glyph-name="dieresis" horiz-adv-x="606" unicode="¨"/><glyph d="M1116 604l72 -33q-53 -104 -140 -164.5t-194 -60.5q-143 0 -232.5 96.5t-89.5 233.5q0 166 113 288.5t270 122.5q115 0 196 -63t108 -166l-78 -24q-23 80 -81.5 127t-146.5 47q-125 0 -211 -98.5t-86 -231.5q0 -106 64.5 -179t175.5 -73q170 0 260 178zM166 637 q0 336 227.5 575.5t542.5 239.5q295 0 470 -190.5t175 -466.5q0 -336 -228.5 -574.5t-543.5 -238.5q-293 0 -468 190.5t-175 464.5zM932 1374q-285 0 -485.5 -218t-200.5 -517q0 -246 153.5 -413t415.5 -167q285 0 485.5 218.5t200.5 517.5q0 246 -153.5 412.5t-415.5 166.5 z" glyph-name="copyright" horiz-adv-x="1671" unicode="©"/><glyph d="M578 1434q174 0 245 -152l25 137h94l-119 -674h-94l16 95q-102 -109 -233 -109q-135 0 -213 89t-78 220q0 170 109 282t248 112zM526 813q106 0 185.5 93t79.5 210q0 96 -58.5 166t-152.5 70q-106 0 -185.5 -94.5t-79.5 -208.5q0 -98 58.5 -167t152.5 -69z" glyph-name="ordfeminine" horiz-adv-x="962" unicode="ª"/><glyph d="M240 508l180 -320l-88 -55l-223 387l360 389l72 -69zM702 508l181 -320l-88 -55l-224 387l361 389l72 -69z" glyph-name="guillemotleft" horiz-adv-x="1083" unicode="«"/><glyph d="M977 379l74 424h-852l18 100h950l-92 -524h-98z" glyph-name="logicalnot" horiz-adv-x="1282" unicode="¬"/><glyph d="M215 967q0 199 142.5 342t328.5 143q182 0 293 -117.5t111 -283.5q0 -199 -142.5 -342.5t-329.5 -143.5q-182 0 -292.5 118t-110.5 284zM682 1391q-156 0 -281 -124t-125 -298q0 -143 94.5 -242.5t252.5 -99.5q156 0 280.5 123.5t124.5 298.5q0 143 -94 242.5t-252 99.5z M543 1225h168q72 0 106.5 -46t24.5 -106q-16 -100 -121 -121l82 -153h-66l-82 151h-104l-27 -151h-57zM705 1169h-115l-29 -163h121q86 0 102 73q8 37 -10 63.5t-69 26.5z" glyph-name="registered" horiz-adv-x="1132" unicode="®"/><glyph d="M885 1731l-19 -99h-540l18 99h541z" glyph-name="macron" horiz-adv-x="645" unicode="¯"/><glyph d="M225 1100q0 141 102.5 246.5t247.5 105.5q129 0 211 -86t82 -209q0 -141 -102 -246.5t-248 -105.5q-129 0 -211 86t-82 209zM573 1354q-98 0 -171.5 -71t-73.5 -179q0 -84 53 -142.5t139 -58.5q98 0 172 70.5t74 179.5q0 84 -53.5 142.5t-139.5 58.5z" glyph-name="degree" horiz-adv-x="884" unicode="°"/><glyph d="M889 274l-19 -102h-745l16 102h748zM250 885h319l62 352h102l-63 -352h325l-18 -103h-326l-61 -352h-101l62 352h-320z" glyph-name="plusminus" horiz-adv-x="1110" unicode="±"/><glyph d="M647 721l-16 -90h-512l12 69q264 188 383 308q119 123 119 217q0 57 -38 93t-103 36q-61 0 -115.5 -40t-67.5 -143h-92q8 80 39 137.5t75 85t83 39t80 11.5q104 0 169.5 -59.5t65.5 -151.5q0 -137 -151 -289q-90 -90 -269 -223h338z" glyph-name="uni00B2" horiz-adv-x="702" unicode="²"/><glyph d="M121 719l57 72q119 -80 228 -80q90 0 128.5 42t38.5 95q0 63 -60 106t-165 45l14 82q125 -6 190.5 43.5t65.5 118.5q0 49 -39.5 83t-97 34t-103.5 -28.5t-52 -94.5h-93q6 104 83 155.5t171 51.5q96 0 162 -54.5t66 -138.5q0 -78 -49.5 -135t-130.5 -82q137 -55 137 -182 q0 -90 -63.5 -160.5t-205.5 -70.5q-155 0 -282 98z" glyph-name="uni00B3" horiz-adv-x="708" unicode="³"/><glyph d="M510 1556l-80 52l293 313l78 -76z" glyph-name="acute" horiz-adv-x="512" unicode="´"/><glyph d="M872 0l33 186q-137 -205 -381 -204q-184 0 -270 122l-82 -471h-109l242 1373h109l-99 -560q-10 -51 -10 -110q0 -129 64.5 -191.5t179.5 -62.5q152 0 263.5 105.5t139.5 269.5l97 549h108l-176 -1006h-109z" glyph-name="uni00B5" horiz-adv-x="1286" unicode="µ"/><glyph d="M528 0l93 528h-5q-223 0 -334.5 113t-111.5 285q0 215 136 361.5t374 146.5h547l-252 -1434h-109l232 1329h-230l-231 -1329h-109zM760 1329h-84q-186 0 -289.5 -114.5t-103.5 -282.5q0 -131 81.5 -215t251.5 -84h23z" glyph-name="paragraph" horiz-adv-x="1298" unicode="¶"/><glyph d="M178 588q0 41 30 69.5t68 28.5q33 0 56.5 -23.5t23.5 -58.5q0 -41 -29.5 -68.5t-68.5 -27.5q-33 0 -56.5 23.5t-23.5 56.5z" glyph-name="periodcentered" horiz-adv-x="505" unicode="·"/><glyph d="M180 10h82l-76 -131q88 -8 138.5 -57t50.5 -117q0 -76 -55.5 -135t-165.5 -59q-119 0 -230 75l53 84q82 -63 175 -63q127 0 127 102q0 100 -173 103l-20 36z" glyph-name="cedilla" horiz-adv-x="442" unicode="¸"/><glyph d="M244 631l118 680l-167 -86l18 108l193 101h71l-141 -803h-92z" glyph-name="uni00B9" horiz-adv-x="464" unicode="¹"/><glyph d="M219 1047q0 166 111.5 276.5t253.5 110.5q145 0 231 -91.5t86 -224.5q0 -166 -111.5 -276.5t-252.5 -110.5q-145 0 -231.5 92.5t-86.5 223.5zM582 1343q-100 0 -183.5 -83.5t-83.5 -210.5q0 -98 59.5 -163t164.5 -65q100 0 183 84t83 211q0 98 -59.5 162.5t-163.5 64.5z " glyph-name="ordmasculine" horiz-adv-x="923" unicode="º"/><glyph d="M385 535l-180 319l88 55l223 -387l-360 -389l-72 70zM848 535l-180 319l88 55l223 -387l-361 -389l-71 70z" glyph-name="guillemotright" horiz-adv-x="1081" unicode="»"/><glyph d="M227 0h-106l1155 1434h108zM270 631l119 680l-168 -86l19 108l192 101h72l-142 -803h-92zM1317 0h-92l28 172h-374l12 66l305 565h107l-297 -541h264l49 279l98 24l-53 -303h121l-17 -90h-120z" glyph-name="onequarter" horiz-adv-x="1595" unicode="¼"/><glyph d="M223 0h-106l1155 1434h108zM264 631l119 680l-168 -86l18 108l193 101h72l-142 -803h-92zM1427 90l-16 -90h-512l12 70q264 188 383 307q119 123 119 217q0 57 -38 93t-103 36q-61 0 -115.5 -40t-66.5 -142h-93q8 80 39 137t75 85t83 39t80 11q104 0 169.5 -59.5 t65.5 -151.5q0 -137 -151 -289q-90 -90 -268 -223h337z" glyph-name="onehalf" horiz-adv-x="1597" unicode="½"/><glyph d="M436 0h-106l1155 1434h108zM1524 0h-92l28 172h-375l13 66l305 565h106l-297 -541h265l49 279l98 24l-53 -303h121l-17 -90h-121zM141 719l58 72q119 -80 227 -80q90 0 129 42t39 95q0 63 -60.5 106t-164.5 45l14 82q125 -6 190.5 43.5t65.5 118.5q0 49 -40 83t-97.5 34 t-103.5 -28.5t-52 -94.5h-92q6 104 83 155.5t171 51.5q96 0 161.5 -54.5t65.5 -138.5q0 -78 -49 -135t-131 -82q137 -55 137 -182q0 -90 -63.5 -160.5t-204.5 -70.5q-156 0 -283 98z" glyph-name="threequarters" horiz-adv-x="1804" unicode="¾"/><glyph d="M524 602h107l-15 -84q-18 -98 -78.5 -161.5t-183.5 -141.5q-145 -92 -192 -145q-68 -76 -68 -172q0 -104 76 -173t203 -69q129 0 226 78t106 215h108q-16 -195 -147 -296.5t-301 -101.5q-172 0 -277.5 95.5t-105.5 242.5q0 94 42 170t98 122t161 112q70 45 91 59.5t60 47 t54.5 63.5t23.5 72zM723 946q0 -41 -28.5 -67.5t-67.5 -26.5q-33 0 -55.5 22.5t-22.5 55.5q0 41 27.5 67.5t66.5 26.5q35 0 57.5 -22.5t22.5 -55.5z" glyph-name="questiondown" horiz-adv-x="993" unicode="¿"/><glyph d="M819 1434h125l363 -1434h-115l-84 336h-825l-201 -336h-127zM866 1311l-520 -869h735zM1047 1595l-89 -36l-188 301l94 61z" glyph-name="Agrave" horiz-adv-x="1437" unicode="À"/><glyph d="M819 1434h125l363 -1434h-115l-84 336h-825l-201 -336h-127zM866 1311l-520 -869h735zM889 1556l-80 52l293 313l78 -76z" glyph-name="Aacute" horiz-adv-x="1437" unicode="Á"/><glyph d="M819 1434h125l363 -1434h-115l-84 336h-825l-201 -336h-127zM866 1311l-520 -869h735zM944 1745l-254 -178l-55 75l319 226l246 -226l-65 -71z" glyph-name="Acircumflex" horiz-adv-x="1437" unicode="Â"/><glyph d="M819 1434h125l363 -1434h-115l-84 336h-825l-201 -336h-127zM866 1311l-520 -869h735zM686 1608h-98q16 115 71.5 193.5t153.5 78.5q59 0 95 -28.5t71 -82.5q2 -4 10 -16t10 -16t9.5 -13.5t10.5 -13.5t10 -11t12.5 -9t12.5 -6.5t14 -5.5t15 -1q86 0 121 178h99 q-16 -113 -70.5 -191.5t-153.5 -78.5q-57 0 -95 27.5t-73 81.5q-4 6 -12 19l-12 19.5t-12.5 16.5t-14.5 15t-14 11.5t-18.5 8.5t-20.5 2q-88 0 -121 -178z" glyph-name="Atilde" horiz-adv-x="1437" unicode="Ã"/><glyph d="M819 1434h125l363 -1434h-115l-84 336h-825l-201 -336h-127zM866 1311l-520 -869h735zM678 1673q0 41 27.5 67.5t66.5 26.5q33 0 56.5 -22.5t23.5 -54.5q0 -41 -27.5 -68t-66.5 -27q-33 0 -56.5 22.5t-23.5 55.5zM1028 1673q0 41 27.5 67.5t66.5 26.5q33 0 56.5 -22.5 t23.5 -54.5q0 -41 -27.5 -68t-66.5 -27q-33 0 -56.5 22.5t-23.5 55.5z" glyph-name="Adieresis" horiz-adv-x="1437" unicode="Ä"/><glyph d="M819 1434h125l363 -1434h-115l-84 336h-825l-201 -336h-127zM866 1311l-520 -869h735zM733 1731q0 94 68.5 166.5t165.5 72.5q90 0 146 -59.5t56 -143.5q0 -94 -68.5 -166.5t-164.5 -72.5q-90 0 -146.5 59.5t-56.5 143.5zM962.5 1886q-57.5 0 -102.5 -44t-45 -107 q0 -53 34 -88t91 -35t102 44t45 107q0 53 -33.5 88t-91 35z" glyph-name="Aring" horiz-adv-x="1437" unicode="Å"/><glyph d="M1139 1434h942l-19 -105h-813l-98 -557h668l-21 -106h-665l-99 -562h815l-20 -104h-922l64 365h-598l-305 -365h-140zM461 469h528l139 797z" glyph-name="AE" horiz-adv-x="2027" unicode="Æ"/><glyph d="M1370 449l103 -39q-100 -201 -282.5 -314.5t-385.5 -113.5h-25l-59 -103q88 -8 138 -57t50 -117q0 -76 -55 -135t-166 -59q-119 0 -229 75l53 84q82 -63 174 -63q127 0 127 102q0 100 -172 103l-20 36l81 142q-248 33 -391 214t-143 431q0 330 221 573.5t543 243.5 q231 0 390 -124t216 -324l-108 -33q-49 170 -180.5 273.5t-323.5 103.5q-268 0 -457.5 -214t-189.5 -495q0 -233 144 -393t386 -160q168 0 320.5 96.5t240.5 266.5z" glyph-name="Ccedilla" horiz-adv-x="1570" unicode="Ç"/><glyph d="M1020 1595l-88 -36l-189 301l95 61zM145 0l252 1434h932l-18 -105h-824l-98 -557h680l-18 -106h-680l-99 -562h826l-21 -104h-932z" glyph-name="Egrave" horiz-adv-x="1275" unicode="È"/><glyph d="M864 1556l-80 52l293 313l78 -76zM145 0l252 1434h932l-18 -105h-824l-98 -557h680l-18 -106h-680l-99 -562h826l-21 -104h-932z" glyph-name="Eacute" horiz-adv-x="1275" unicode="É"/><glyph d="M145 0l252 1434h932l-18 -105h-824l-98 -557h680l-18 -106h-680l-99 -562h826l-21 -104h-932zM920 1745l-254 -178l-56 75l320 226l246 -226l-66 -71z" glyph-name="Ecircumflex" horiz-adv-x="1275" unicode="Ê"/><glyph d="M653 1673q0 41 28 67.5t67 26.5q33 0 56 -22.5t23 -54.5q0 -41 -27.5 -68t-66.5 -27q-33 0 -56.5 22.5t-23.5 55.5zM1004 1673q0 41 27.5 67.5t66.5 26.5q33 0 56.5 -22.5t23.5 -54.5q0 -41 -28 -68t-67 -27q-33 0 -56 22.5t-23 55.5zM145 0l252 1434h932l-18 -105h-824 l-98 -557h680l-18 -106h-680l-99 -562h826l-21 -104h-932z" glyph-name="Edieresis" horiz-adv-x="1275" unicode="Ë"/><glyph d="M397 1434h109l-252 -1434h-109zM602 1595l-88 -36l-188 301l94 61z" glyph-name="Igrave" horiz-adv-x="577" unicode="Ì"/><glyph d="M397 1434h109l-252 -1434h-109zM432 1556l-80 52l293 313l78 -76z" glyph-name="Iacute" horiz-adv-x="577" unicode="Í"/><glyph d="M397 1434h109l-252 -1434h-109zM510 1745l-254 -178l-55 75l319 226l246 -226l-66 -71z" glyph-name="Icircumflex" horiz-adv-x="577" unicode="Î"/><glyph d="M397 1434h109l-252 -1434h-109zM229 1673q0 41 28 67.5t67 26.5q33 0 56 -22.5t23 -54.5q0 -41 -27.5 -68t-66.5 -27q-33 0 -56.5 22.5t-23.5 55.5zM580 1673q0 41 27.5 67.5t66.5 26.5q33 0 56.5 -22.5t23.5 -54.5q0 -41 -28 -68t-67 -27q-33 0 -56 22.5t-23 55.5z" glyph-name="Idieresis" horiz-adv-x="577" unicode="Ï"/><glyph d="M123 664l18 106h162l117 664h430q299 0 452.5 -167t153.5 -431q0 -111 -24.5 -223.5t-82 -224.5t-141.5 -197t-213 -138t-286 -53h-541l117 664h-162zM877 664h-484l-98 -560h416q131 0 240.5 45.5t180 118t119.5 168.5t70.5 195.5t21.5 199.5q0 225 -126.5 361.5 t-387.5 136.5h-319l-98 -559h483z" glyph-name="Eth" horiz-adv-x="1546" unicode="Ð"/><glyph d="M254 0h-109l252 1434h111l709 -1272l223 1272h108l-252 -1434h-110l-709 1270zM772 1608h-98q16 115 71.5 193.5t153.5 78.5q59 0 95 -28.5t71 -82.5q2 -4 10 -16t10 -16t9.5 -13.5t10.5 -13.5t10 -11t12.5 -9t12.5 -6.5t14 -5.5t15 -1q86 0 121 178h99 q-16 -113 -70.5 -191.5t-153.5 -78.5q-57 0 -95 27.5t-73 81.5q-4 6 -12 19l-12 19.5t-12.5 16.5t-14.5 15t-14 11.5t-18.5 8.5t-20.5 2q-88 0 -121 -178z" glyph-name="Ntilde" horiz-adv-x="1617" unicode="Ñ"/><glyph d="M168 635q0 334 223 575.5t541 241.5q293 0 466 -188.5t173 -464.5q0 -334 -223.5 -575.5t-542.5 -241.5q-291 0 -464 188.5t-173 464.5zM926 1348q-268 0 -457.5 -213t-189.5 -496q0 -233 144 -393t388 -160q270 0 459.5 213t189.5 496q0 233 -144 393t-390 160z M1159 1595l-88 -36l-188 301l94 61z" glyph-name="Ograve" horiz-adv-x="1662" unicode="Ò"/><glyph d="M168 635q0 334 223 575.5t541 241.5q293 0 466 -188.5t173 -464.5q0 -334 -223.5 -575.5t-542.5 -241.5q-291 0 -464 188.5t-173 464.5zM926 1348q-268 0 -457.5 -213t-189.5 -496q0 -233 144 -393t388 -160q270 0 459.5 213t189.5 496q0 233 -144 393t-390 160z M1001 1556l-79 52l292 313l78 -76z" glyph-name="Oacute" horiz-adv-x="1662" unicode="Ó"/><glyph d="M168 635q0 334 223 575.5t541 241.5q293 0 466 -188.5t173 -464.5q0 -334 -223.5 -575.5t-542.5 -241.5q-291 0 -464 188.5t-173 464.5zM926 1348q-268 0 -457.5 -213t-189.5 -496q0 -233 144 -393t388 -160q270 0 459.5 213t189.5 496q0 233 -144 393t-390 160z M1055 1745l-254 -178l-56 75l320 226l246 -226l-66 -71z" glyph-name="Ocircumflex" horiz-adv-x="1662" unicode="Ô"/><glyph d="M168 635q0 334 223 575.5t541 241.5q293 0 466 -188.5t173 -464.5q0 -334 -223.5 -575.5t-542.5 -241.5q-291 0 -464 188.5t-173 464.5zM926 1348q-268 0 -457.5 -213t-189.5 -496q0 -233 144 -393t388 -160q270 0 459.5 213t189.5 496q0 233 -144 393t-390 160z M801 1608h-99q16 115 71.5 193.5t154.5 78.5q59 0 95 -28.5t71 -82.5q2 -4 10 -16t10 -16t9 -13.5t10.5 -13.5t10.5 -11t12 -9t12.5 -6.5t14.5 -5.5t15 -1q86 0 121 178h98q-16 -113 -70.5 -191.5t-152.5 -78.5q-57 0 -95 27.5t-73 81.5q-4 6 -12 19t-12.5 19.5t-12.5 16.5 t-14 15t-14.5 11.5t-18.5 8.5t-20 2q-88 0 -121 -178z" glyph-name="Otilde" horiz-adv-x="1662" unicode="Õ"/><glyph d="M168 635q0 334 223 575.5t541 241.5q293 0 466 -188.5t173 -464.5q0 -334 -223.5 -575.5t-542.5 -241.5q-291 0 -464 188.5t-173 464.5zM926 1348q-268 0 -457.5 -213t-189.5 -496q0 -233 144 -393t388 -160q270 0 459.5 213t189.5 496q0 233 -144 393t-390 160z M793 1673q0 41 27.5 67.5t66.5 26.5q33 0 56.5 -22.5t23.5 -54.5q0 -41 -28 -68t-67 -27q-33 0 -56 22.5t-23 55.5zM1143 1673q0 41 27.5 67.5t66.5 26.5q33 0 56.5 -22.5t23.5 -54.5q0 -41 -27.5 -68t-66.5 -27q-33 0 -56.5 22.5t-23.5 55.5z" glyph-name="Odieresis" horiz-adv-x="1662" unicode="Ö"/><glyph d="M186 301l-67 76l346 303l-238 301l78 66l236 -299l342 299l67 -76l-346 -303l238 -301l-78 -66l-238 299z" glyph-name="multiply" horiz-adv-x="1011" unicode="×"/><glyph d="M170 633q0 336 222 577.5t542 241.5q272 0 448 -172l158 154h131l-227 -224q129 -174 129 -411q0 -350 -230.5 -583.5t-533.5 -233.5q-272 0 -447 168l-153 -150h-131l223 219q-131 172 -131 414zM930 1348q-266 0 -457.5 -210t-191.5 -499q0 -193 102 -340l920 901 q-148 148 -373 148zM813 86q270 0 459.5 215t189.5 494q0 193 -100 335l-920 -901q148 -143 371 -143z" glyph-name="Oslash" horiz-adv-x="1669" unicode="Ø"/><glyph d="M1405 1434h108l-167 -955q-41 -231 -201 -364t-391 -133q-264 0 -401.5 137t-137.5 348q0 51 10 117l150 850h108l-149 -852q-10 -61 -10 -105q0 -174 109.5 -282.5t324.5 -108.5q188 0 318 108.5t165 307.5zM1104 1595l-88 -36l-189 301l95 61z" glyph-name="Ugrave" horiz-adv-x="1564" unicode="Ù"/><glyph d="M1405 1434h108l-167 -955q-41 -231 -201 -364t-391 -133q-264 0 -401.5 137t-137.5 348q0 51 10 117l150 850h108l-149 -852q-10 -61 -10 -105q0 -174 109.5 -282.5t324.5 -108.5q188 0 318 108.5t165 307.5zM948 1556l-80 52l293 313l78 -76z" glyph-name="Uacute" horiz-adv-x="1564" unicode="Ú"/><glyph d="M1405 1434h108l-167 -955q-41 -231 -201 -364t-391 -133q-264 0 -401.5 137t-137.5 348q0 51 10 117l150 850h108l-149 -852q-10 -61 -10 -105q0 -174 109.5 -282.5t324.5 -108.5q188 0 318 108.5t165 307.5zM1001 1745l-253 -178l-56 75l320 226l245 -226l-65 -71z" glyph-name="Ucircumflex" horiz-adv-x="1564" unicode="Û"/><glyph d="M1405 1434h108l-167 -955q-41 -231 -201 -364t-391 -133q-264 0 -401.5 137t-137.5 348q0 51 10 117l150 850h108l-149 -852q-10 -61 -10 -105q0 -174 109.5 -282.5t324.5 -108.5q188 0 318 108.5t165 307.5zM737 1673q0 41 28 67.5t66 26.5q33 0 56.5 -22.5t23.5 -54.5 q0 -41 -27.5 -68t-66.5 -27q-33 0 -56.5 22.5t-23.5 55.5zM1087 1673q0 41 28 67.5t67 26.5q33 0 56.5 -22.5t23.5 -54.5q0 -41 -28 -68t-67 -27q-33 0 -56.5 22.5t-23.5 55.5z" glyph-name="Udieresis" horiz-adv-x="1564" unicode="Ü"/><glyph d="M332 1434l364 -787l643 787h144l-744 -906l-90 -528h-110l92 528l-422 906h123zM850 1556l-80 52l293 313l78 -76z" glyph-name="Yacute" horiz-adv-x="1361" unicode="Ý"/><glyph d="M145 0l252 1434h109l-41 -226h356q231 0 356.5 -127t125.5 -315q0 -219 -149.5 -382t-418.5 -163h-442l-39 -221h-109zM311 328h416q221 0 343 129t122 311q0 147 -99.5 241.5t-297.5 94.5h-349z" glyph-name="Thorn" horiz-adv-x="1388" unicode="Þ"/><glyph d="M330 90l55 88q49 -39 127 -67.5t150 -28.5q143 0 227 81t84 208q0 141 -120 226t-280 85l19 98q207 -4 327.5 86t120.5 246q0 113 -77.5 180.5t-200.5 67.5q-147 0 -249.5 -104.5t-133.5 -284.5l-170 -971h-109l170 981q39 219 171 349t325 130q172 0 278.5 -97 t106.5 -247q0 -129 -82 -241.5t-246 -153.5q119 -47 189.5 -137t70.5 -213q0 -164 -108.5 -276.5t-310.5 -112.5q-180 -1 -334 108z" glyph-name="germandbls" horiz-adv-x="1232" unicode="ß"/><glyph d="M891 0l33 184q-150 -203 -381 -202q-195 0 -308.5 128t-113.5 320q0 236 147.5 416t372.5 180q143 0 241.5 -72.5t141.5 -193.5l43 246h109l-177 -1006h-108zM565 84q178 0 300 143.5t122 335.5q0 156 -90 258.5t-244 102.5q-178 0 -300 -145.5t-122 -336.5 q0 -154 89 -256t245 -102zM881 1200l-88 -37l-189 301l94 62z" glyph-name="agrave" unicode="à"/><glyph d="M891 0l33 184q-150 -203 -381 -202q-195 0 -308.5 128t-113.5 320q0 236 147.5 416t372.5 180q143 0 241.5 -72.5t141.5 -193.5l43 246h109l-177 -1006h-108zM565 84q178 0 300 143.5t122 335.5q0 156 -90 258.5t-244 102.5q-178 0 -300 -145.5t-122 -336.5 q0 -154 89 -256t245 -102zM723 1161l-80 51l293 314l78 -76z" glyph-name="aacute" unicode="á"/><glyph d="M891 0l33 184q-150 -203 -381 -202q-195 0 -308.5 128t-113.5 320q0 236 147.5 416t372.5 180q143 0 241.5 -72.5t141.5 -193.5l43 246h109l-177 -1006h-108zM565 84q178 0 300 143.5t122 335.5q0 156 -90 258.5t-244 102.5q-178 0 -300 -145.5t-122 -336.5 q0 -154 89 -256t245 -102zM803 1350l-254 -179l-55 76l319 226l246 -226l-66 -71z" glyph-name="acircumflex" unicode="â"/><glyph d="M891 0l33 184q-150 -203 -381 -202q-195 0 -308.5 128t-113.5 320q0 236 147.5 416t372.5 180q143 0 241.5 -72.5t141.5 -193.5l43 246h109l-177 -1006h-108zM565 84q178 0 300 143.5t122 335.5q0 156 -90 258.5t-244 102.5q-178 0 -300 -145.5t-122 -336.5 q0 -154 89 -256t245 -102zM522 1212h-98q16 115 71.5 194t153.5 79q59 0 95 -29t71 -82q2 -4 10.5 -16t10.5 -16.5t9 -13.5t10 -13t10 -11.5t12.5 -9.5t12.5 -6t14 -5t16 -1q86 0 120 178h99q-16 -113 -70.5 -191.5t-153.5 -78.5q-57 0 -95 27.5t-72 80.5q-4 6 -12.5 19.5 t-12.5 19.5t-12.5 16.5t-14.5 15.5t-14 11t-18.5 8.5t-20.5 2.5q-88 -1 -121 -179z" glyph-name="atilde" unicode="ã"/><glyph d="M891 0l33 184q-150 -203 -381 -202q-195 0 -308.5 128t-113.5 320q0 236 147.5 416t372.5 180q143 0 241.5 -72.5t141.5 -193.5l43 246h109l-177 -1006h-108zM565 84q178 0 300 143.5t122 335.5q0 156 -90 258.5t-244 102.5q-178 0 -300 -145.5t-122 -336.5 q0 -154 89 -256t245 -102zM512 1278q0 41 27.5 67.5t66.5 26.5q33 0 56.5 -22.5t23.5 -55.5q0 -41 -27.5 -67.5t-66.5 -26.5q-33 0 -56.5 22.5t-23.5 55.5zM862 1278q0 41 28 67.5t66 26.5q33 0 56.5 -22.5t23.5 -55.5q0 -41 -27.5 -67.5t-66.5 -26.5q-33 0 -56.5 22.5 t-23.5 55.5z" glyph-name="adieresis" unicode="ä"/><glyph d="M891 0l33 184q-150 -203 -381 -202q-195 0 -308.5 128t-113.5 320q0 236 147.5 416t372.5 180q143 0 241.5 -72.5t141.5 -193.5l43 246h109l-177 -1006h-108zM565 84q178 0 300 143.5t122 335.5q0 156 -90 258.5t-244 102.5q-178 0 -300 -145.5t-122 -336.5 q0 -154 89 -256t245 -102zM569 1335q0 94 69 167t165 73q90 0 146.5 -59.5t56.5 -143.5q0 -94 -69 -166.5t-165 -72.5q-90 0 -146.5 59t-56.5 143zM798.5 1491q-57.5 0 -102.5 -44t-45 -108q0 -53 34 -87.5t91.5 -34.5t102.5 44t45 107q0 53 -34 88t-91.5 35z" glyph-name="aring" unicode="å"/><glyph d="M1806 217l60 -82q-160 -154 -391 -153q-172 0 -282 88t-144 233l-54 -303h-98l31 184q-150 -203 -385 -202q-195 0 -308.5 128t-113.5 320q0 236 147.5 416t372.5 180q145 0 245.5 -73.5t141.5 -196.5l45 250h98l-41 -228q76 119 196 183.5t259 64.5q164 0 262.5 -77 t98.5 -193q0 -147 -160 -244.5t-481 -97.5h-177q8 -143 98.5 -237.5t250.5 -94.5q188 0 329 135zM565 84q178 0 300 143.5t122 335.5q0 156 -90 258.5t-244 102.5q-178 0 -300 -145.5t-122 -336.5q0 -154 89 -256t245 -102zM1139 541l-6 -33h170q270 0 401 68.5t131 175.5 q0 76 -67.5 124t-180.5 48q-166 0 -290.5 -102.5t-157.5 -280.5z" glyph-name="ae" horiz-adv-x="2037" unicode="æ"/><glyph d="M942 332l100 -37q-72 -147 -200.5 -230t-276.5 -83h-2l-59 -103q88 -8 138 -57t50 -117q0 -76 -55 -135t-166 -59q-119 0 -229 75l53 84q82 -63 174 -63q127 0 127 102q0 100 -172 103l-21 36l82 140q-170 27 -267 153.5t-97 300.5q0 238 156.5 411t381.5 173 q162 0 273.5 -88t150.5 -231l-104 -33q-29 113 -113 181.5t-213 68.5q-180 0 -301 -145.5t-121 -336.5q0 -154 89.5 -257t248.5 -103q113 0 215.5 66.5t157.5 183.5z" glyph-name="ccedilla" horiz-adv-x="1163" unicode="ç"/><glyph d="M909 217l58 -82q-158 -154 -392 -153q-213 0 -333.5 131t-120.5 325q0 244 161.5 416t405.5 172q162 0 260.5 -77t98.5 -193q0 -147 -160 -244.5t-481 -97.5h-177q10 -145 100.5 -238.5t250.5 -93.5q188 0 329 135zM233 508h170q270 0 401.5 68.5t131.5 175.5 q0 76 -66.5 124t-179.5 48q-172 0 -300 -109.5t-157 -306.5zM872 1200l-88 -37l-188 301l94 62z" glyph-name="egrave" horiz-adv-x="1140" unicode="è"/><glyph d="M909 217l58 -82q-158 -154 -392 -153q-213 0 -333.5 131t-120.5 325q0 244 161.5 416t405.5 172q162 0 260.5 -77t98.5 -193q0 -147 -160 -244.5t-481 -97.5h-177q10 -145 100.5 -238.5t250.5 -93.5q188 0 329 135zM233 508h170q270 0 401.5 68.5t131.5 175.5 q0 76 -66.5 124t-179.5 48q-172 0 -300 -109.5t-157 -306.5zM717 1161l-80 51l293 314l78 -76z" glyph-name="eacute" horiz-adv-x="1140" unicode="é"/><glyph d="M909 217l58 -82q-158 -154 -392 -153q-213 0 -333.5 131t-120.5 325q0 244 161.5 416t405.5 172q162 0 260.5 -77t98.5 -193q0 -147 -160 -244.5t-481 -97.5h-177q10 -145 100.5 -238.5t250.5 -93.5q188 0 329 135zM233 508h170q270 0 401.5 68.5t131.5 175.5 q0 76 -66.5 124t-179.5 48q-172 0 -300 -109.5t-157 -306.5zM774 1350l-254 -179l-55 76l319 226l246 -226l-65 -71z" glyph-name="ecircumflex" horiz-adv-x="1140" unicode="ê"/><glyph d="M909 217l58 -82q-158 -154 -392 -153q-213 0 -333.5 131t-120.5 325q0 244 161.5 416t405.5 172q162 0 260.5 -77t98.5 -193q0 -147 -160 -244.5t-481 -97.5h-177q10 -145 100.5 -238.5t250.5 -93.5q188 0 329 135zM233 508h170q270 0 401.5 68.5t131.5 175.5 q0 76 -66.5 124t-179.5 48q-172 0 -300 -109.5t-157 -306.5zM438 1278q0 41 28 67.5t66 26.5q33 0 56.5 -22.5t23.5 -55.5q0 -41 -27.5 -67.5t-66.5 -26.5q-33 0 -56.5 22.5t-23.5 55.5zM788 1278q0 41 28 67.5t67 26.5q33 0 56.5 -22.5t23.5 -55.5q0 -41 -28 -67.5 t-67 -26.5q-33 0 -56.5 22.5t-23.5 55.5z" glyph-name="edieresis" horiz-adv-x="1140" unicode="ë"/><glyph d="M100 0l176 1006h109l-176 -1006h-109zM487 1200l-88 -37l-188 301l94 62z" glyph-name="igrave" horiz-adv-x="487" unicode="ì"/><glyph d="M100 0l176 1006h109l-176 -1006h-109zM317 1161l-79 51l292 314l78 -76z" glyph-name="iacute" horiz-adv-x="487" unicode="í"/><glyph d="M100 0l176 1006h109l-176 -1006h-109zM395 1348l-254 -179l-55 76l320 225l245 -225l-65 -71z" glyph-name="icircumflex" horiz-adv-x="487" unicode="î"/><glyph d="M100 0l176 1006h109l-176 -1006h-109zM113 1276q0 41 27.5 67.5t66.5 26.5q33 0 56.5 -22.5t23.5 -55.5q0 -41 -28 -67.5t-66 -26.5q-33 0 -56.5 22.5t-23.5 55.5zM463 1276q0 41 27.5 67.5t66.5 26.5q33 0 56.5 -22.5t23.5 -55.5q0 -41 -27.5 -67.5t-66.5 -26.5 q-33 0 -56.5 22.5t-23.5 55.5z" glyph-name="idieresis" horiz-adv-x="487" unicode="ï"/><glyph d="M961 1409l26 -92l-203 -86l220 -451q61 -127 61 -274q0 -227 -148.5 -375.5t-363.5 -148.5q-199 0 -318.5 128t-119.5 314q0 213 142 376t357 163q119 0 203 -54l-139 279l-219 -92l-29 92l205 86l-80 160h131l55 -117zM625 860q-166 0 -281 -126t-115 -310 q0 -145 89.5 -241.5t240.5 -96.5q168 0 282.5 124t114.5 290q0 156 -90.5 258t-240.5 102z" glyph-name="eth" horiz-adv-x="1196" unicode="ð"/><glyph d="M844 0l98 561q10 51 10 111q0 129 -64.5 191.5t-178.5 62.5q-152 0 -263.5 -106.5t-140.5 -270.5l-96 -549h-109l176 1006h109l-33 -187q137 207 381 207q156 0 243 -90t87 -250q0 -61 -10 -113l-101 -573h-108zM504 1212h-98q16 115 71 194t154 79q59 0 95 -29t71 -82 q2 -4 10 -16t10 -16.5t9.5 -13.5t10.5 -13t10 -11.5t12 -9.5t12.5 -6t14.5 -5t15 -1q86 0 121 178h98q-16 -113 -70.5 -191.5t-152.5 -78.5q-57 0 -95 27.5t-73 80.5q-4 6 -12 19.5t-12.5 19.5t-12.5 16.5t-14 15.5t-14.5 11t-18.5 8.5t-20 2.5q-88 -1 -121 -179z" glyph-name="ntilde" horiz-adv-x="1216" unicode="ñ"/><glyph d="M121 444q0 240 159.5 411t387.5 171q209 0 331.5 -133t122.5 -330q0 -240 -159.5 -410.5t-387.5 -170.5q-209 0 -331.5 132.5t-122.5 329.5zM662 924q-180 0 -306.5 -143.5t-126.5 -334.5q0 -154 93.5 -258t257.5 -104q182 0 308 143.5t126 333.5q0 156 -93 259.5 t-259 103.5zM872 1200l-88 -37l-188 301l94 62z" glyph-name="ograve" horiz-adv-x="1243" unicode="ò"/><glyph d="M121 444q0 240 159.5 411t387.5 171q209 0 331.5 -133t122.5 -330q0 -240 -159.5 -410.5t-387.5 -170.5q-209 0 -331.5 132.5t-122.5 329.5zM662 924q-180 0 -306.5 -143.5t-126.5 -334.5q0 -154 93.5 -258t257.5 -104q182 0 308 143.5t126 333.5q0 156 -93 259.5 t-259 103.5zM717 1161l-80 51l293 314l78 -76z" glyph-name="oacute" horiz-adv-x="1243" unicode="ó"/><glyph d="M121 444q0 240 159.5 411t387.5 171q209 0 331.5 -133t122.5 -330q0 -240 -159.5 -410.5t-387.5 -170.5q-209 0 -331.5 132.5t-122.5 329.5zM662 924q-180 0 -306.5 -143.5t-126.5 -334.5q0 -154 93.5 -258t257.5 -104q182 0 308 143.5t126 333.5q0 156 -93 259.5 t-259 103.5zM774 1350l-254 -179l-55 76l319 226l246 -226l-65 -71z" glyph-name="ocircumflex" horiz-adv-x="1243" unicode="ô"/><glyph d="M121 444q0 240 159.5 411t387.5 171q209 0 331.5 -133t122.5 -330q0 -240 -159.5 -410.5t-387.5 -170.5q-209 0 -331.5 132.5t-122.5 329.5zM662 924q-180 0 -306.5 -143.5t-126.5 -334.5q0 -154 93.5 -258t257.5 -104q182 0 308 143.5t126 333.5q0 156 -93 259.5 t-259 103.5zM514 1212h-98q16 115 71.5 194t153.5 79q59 0 95 -29t71 -82q2 -4 10 -16t10 -16.5t9.5 -13.5t10.5 -13t10 -11.5t12 -9.5t12.5 -6t14.5 -5t15 -1q86 0 121 178h98q-16 -113 -70 -191.5t-153 -78.5q-57 0 -95 27.5t-73 80.5q-4 6 -12 19.5t-12 19.5t-12.5 16.5 t-14.5 15.5t-14 11t-18.5 8.5t-20.5 2.5q-88 -1 -121 -179z" glyph-name="otilde" horiz-adv-x="1243" unicode="õ"/><glyph d="M121 444q0 240 159.5 411t387.5 171q209 0 331.5 -133t122.5 -330q0 -240 -159.5 -410.5t-387.5 -170.5q-209 0 -331.5 132.5t-122.5 329.5zM662 924q-180 0 -306.5 -143.5t-126.5 -334.5q0 -154 93.5 -258t257.5 -104q182 0 308 143.5t126 333.5q0 156 -93 259.5 t-259 103.5zM506 1278q0 41 27.5 67.5t66.5 26.5q33 0 56.5 -22.5t23.5 -55.5q0 -41 -27.5 -67.5t-66.5 -26.5q-33 0 -56.5 22.5t-23.5 55.5zM856 1278q0 41 27.5 67.5t66.5 26.5q33 0 56.5 -22.5t23.5 -55.5q0 -41 -27.5 -67.5t-66.5 -26.5q-33 0 -56.5 22.5t-23.5 55.5z " glyph-name="odieresis" horiz-adv-x="1243" unicode="ö"/><glyph d="M952 721l-18 -103h-746l19 103h745zM422 317q0 39 29.5 67t66.5 28q33 0 55.5 -23.5t22.5 -56.5q0 -39 -28.5 -66.5t-65.5 -27.5q-33 0 -56.5 23t-23.5 56zM545 1008q0 39 29.5 66.5t66.5 27.5q33 0 55.5 -23.5t22.5 -56.5q0 -39 -28.5 -65.5t-65.5 -26.5 q-33 0 -56.5 22.5t-23.5 55.5z" glyph-name="divide" horiz-adv-x="1083" unicode="÷"/><glyph d="M119 442q0 231 157.5 407.5t391.5 176.5q184 0 307 -113l92 93h119l-154 -154q90 -121 90 -291q0 -231 -155.5 -405t-391.5 -174q-182 0 -305 106l-88 -88h-119l150 150q-94 126 -94 292zM664 924q-182 0 -307.5 -143.5t-125.5 -338.5q0 -121 60 -215l608 611 q-92 86 -235 86zM582 82q180 0 305 143.5t125 335.5q0 119 -58 211l-608 -608q93 -82 236 -82z" glyph-name="oslash" horiz-adv-x="1245" unicode="ø"/><glyph d="M371 1006l-99 -562q-10 -51 -10 -108q0 -129 64.5 -191.5t179.5 -62.5q152 0 263.5 105.5t139.5 269.5l97 549h108l-176 -1006h-109l33 186q-137 -205 -381 -204q-156 0 -242.5 89t-86.5 248q0 61 10 113l100 574h109zM850 1200l-88 -37l-189 301l95 62z" glyph-name="ugrave" horiz-adv-x="1214" unicode="ù"/><glyph d="M371 1006l-99 -562q-10 -51 -10 -108q0 -129 64.5 -191.5t179.5 -62.5q152 0 263.5 105.5t139.5 269.5l97 549h108l-176 -1006h-109l33 186q-137 -205 -381 -204q-156 0 -242.5 89t-86.5 248q0 61 10 113l100 574h109zM692 1161l-80 51l293 314l78 -76z" glyph-name="uacute" horiz-adv-x="1214" unicode="ú"/><glyph d="M371 1006l-99 -562q-10 -51 -10 -108q0 -129 64.5 -191.5t179.5 -62.5q152 0 263.5 105.5t139.5 269.5l97 549h108l-176 -1006h-109l33 186q-137 -205 -381 -204q-156 0 -242.5 89t-86.5 248q0 61 10 113l100 574h109zM754 1350l-254 -179l-56 76l320 226l246 -226 l-66 -71z" glyph-name="ucircumflex" horiz-adv-x="1214" unicode="û"/><glyph d="M371 1006l-99 -562q-10 -51 -10 -108q0 -129 64.5 -191.5t179.5 -62.5q152 0 263.5 105.5t139.5 269.5l97 549h108l-176 -1006h-109l33 186q-137 -205 -381 -204q-156 0 -242.5 89t-86.5 248q0 61 10 113l100 574h109zM481 1278q0 41 28 67.5t66 26.5q33 0 56.5 -22.5 t23.5 -55.5q0 -41 -27.5 -67.5t-66.5 -26.5q-33 0 -56.5 22.5t-23.5 55.5zM831 1278q0 41 28 67.5t67 26.5q33 0 56.5 -22.5t23.5 -55.5q0 -41 -28 -67.5t-67 -26.5q-33 0 -56.5 22.5t-23.5 55.5z" glyph-name="udieresis" horiz-adv-x="1214" unicode="ü"/><glyph d="M-27 -414l-30 99q49 10 84.5 22t101.5 44t134.5 97.5t133.5 159.5l-247 998h112l211 -877l520 877h127l-571 -951q-84 -139 -170 -234t-166 -141.5t-130.5 -65t-109.5 -28.5zM641 1161l-80 51l293 314l78 -76z" glyph-name="yacute" horiz-adv-x="1085" unicode="ý"/><glyph d="M461 1434l-109 -611q150 203 381 203q195 0 308.5 -128t113.5 -320q0 -236 -147.5 -416t-372.5 -180q-143 0 -241.5 72.5t-141.5 193.5l-109 -615h-108l317 1801h109zM711 924q-178 0 -300 -143.5t-122 -336.5q0 -156 90 -258t244 -102q178 0 299.5 145.5t121.5 335.5 q0 154 -88.5 256.5t-244.5 102.5z" glyph-name="thorn" horiz-adv-x="1275" unicode="þ"/><glyph d="M-27 -414l-30 99q49 10 84.5 22t101.5 44t134.5 97.5t133.5 159.5l-247 998h112l211 -877l520 877h127l-571 -951q-84 -139 -170 -234t-166 -141.5t-130.5 -65t-109.5 -28.5zM430 1278q0 41 27.5 67.5t66.5 26.5q33 0 56.5 -22.5t23.5 -55.5q0 -41 -27.5 -67.5 t-66.5 -26.5q-33 0 -56.5 22.5t-23.5 55.5zM780 1278q0 41 28 67.5t66 26.5q33 0 56.5 -22.5t23.5 -55.5q0 -41 -27.5 -67.5t-66.5 -26.5q-33 0 -56.5 22.5t-23.5 55.5z" glyph-name="ydieresis" horiz-adv-x="1085" unicode="ÿ"/><glyph d="M819 1434h125l363 -1434h-115l-84 336h-825l-201 -336h-127zM866 1311l-520 -869h735zM1219 1731l-19 -99h-541l19 99h541z" glyph-name="Amacron" horiz-adv-x="1437" unicode="Ā"/><glyph d="M891 0l33 184q-150 -203 -381 -202q-195 0 -308.5 128t-113.5 320q0 236 147.5 416t372.5 180q143 0 241.5 -72.5t141.5 -193.5l43 246h109l-177 -1006h-108zM565 84q178 0 300 143.5t122 335.5q0 156 -90 258.5t-244 102.5q-178 0 -300 -145.5t-122 -336.5 q0 -154 89 -256t245 -102zM1055 1335l-19 -98h-540l18 98h541z" glyph-name="amacron" unicode="ā"/><glyph d="M819 1434h125l363 -1434h-115l-84 336h-825l-201 -336h-127zM866 1311l-520 -869h735zM1178 1837l84 -41q-123 -223 -326 -223q-106 0 -182 62.5t-107 160.5l92 41q25 -78 76 -123t125 -45q146 0 238 168z" glyph-name="Abreve" horiz-adv-x="1437" unicode="Ă"/><glyph d="M891 0l33 184q-150 -203 -381 -202q-195 0 -308.5 128t-113.5 320q0 236 147.5 416t372.5 180q143 0 241.5 -72.5t141.5 -193.5l43 246h109l-177 -1006h-108zM565 84q178 0 300 143.5t122 335.5q0 156 -90 258.5t-244 102.5q-178 0 -300 -145.5t-122 -336.5 q0 -154 89 -256t245 -102zM1014 1442l84 -41q-123 -223 -326 -223q-106 0 -182 62.5t-107 160.5l92 41q25 -78 76 -123t125 -45q146 0 238 168z" glyph-name="abreve" unicode="ă"/><glyph d="M819 1434h125l363 -1434q-66 -55 -101 -86t-84 -100.5t-49 -122.5q0 -84 107 -84q25 0 49 6l4 -94q-33 -8 -66 -8q-92 0 -143 41.5t-51 115.5q0 86 60.5 165t166.5 167h-8l-84 336h-825l-201 -336h-127zM866 1311l-520 -869h735z" glyph-name="Aogonek" horiz-adv-x="1437" unicode="Ą"/><glyph d="M891 0l33 184q-150 -203 -381 -202q-195 0 -308.5 128t-113.5 320q0 236 147.5 416t372.5 180q143 0 241.5 -72.5t141.5 -193.5l43 246h109l-177 -1006q-66 -55 -100.5 -86t-83.5 -100.5t-49 -122.5q0 -84 106 -84q25 0 50 6l4 -94q-33 -8 -66 -8q-92 0 -143 41.5 t-51 115.5q0 86 60 165t167 167h-2zM565 84q178 0 300 143.5t122 335.5q0 156 -90 258.5t-244 102.5q-178 0 -300 -145.5t-122 -336.5q0 -154 89 -256t245 -102z" glyph-name="aogonek" unicode="ą"/><glyph d="M1368 449l102 -39q-100 -201 -282 -314.5t-385 -113.5q-291 0 -464 188t-173 465q0 213 98 400.5t275.5 302t390.5 114.5q231 0 390 -124t216 -324l-109 -33q-49 170 -180 273.5t-323 103.5q-268 0 -458 -214t-190 -495q0 -233 144.5 -393t386.5 -160q168 0 320.5 96.5 t240.5 266.5zM995 1556l-80 52l293 313l78 -76z" glyph-name="Cacute" horiz-adv-x="1570" unicode="Ć"/><glyph d="M942 332l100 -37q-72 -147 -200.5 -230t-276.5 -83q-203 0 -323.5 133t-120.5 327q0 238 156.5 411t381.5 173q162 0 273.5 -88t150.5 -231l-104 -33q-29 113 -113 181.5t-213 68.5q-180 0 -301 -145.5t-121 -336.5q0 -154 89.5 -257t248.5 -103q113 0 215.5 66.5 t157.5 183.5zM711 1161l-80 51l293 314l77 -76z" glyph-name="cacute" horiz-adv-x="1163" unicode="ć"/><glyph d="M1368 449l102 -39q-100 -201 -282 -314.5t-385 -113.5q-291 0 -464 188t-173 465q0 213 98 400.5t275.5 302t390.5 114.5q231 0 390 -124t216 -324l-109 -33q-49 170 -180 273.5t-323 103.5q-268 0 -458 -214t-190 -495q0 -233 144.5 -393t386.5 -160q168 0 320.5 96.5 t240.5 266.5zM963 1673q0 41 27.5 67.5t66.5 26.5q33 0 56.5 -22.5t23.5 -54.5q0 -41 -28 -68t-67 -27q-33 0 -56 22.5t-23 55.5z" glyph-name="Cdotaccent" horiz-adv-x="1570" unicode="Ċ"/><glyph d="M942 332l100 -37q-72 -147 -200.5 -230t-276.5 -83q-203 0 -323.5 133t-120.5 327q0 238 156.5 411t381.5 173q162 0 273.5 -88t150.5 -231l-104 -33q-29 113 -113 181.5t-213 68.5q-180 0 -301 -145.5t-121 -336.5q0 -154 89.5 -257t248.5 -103q113 0 215.5 66.5 t157.5 183.5zM678 1278q0 41 27.5 67.5t66.5 26.5q33 0 56.5 -22.5t23.5 -55.5q0 -41 -27.5 -67.5t-66.5 -26.5q-33 0 -56.5 22.5t-23.5 55.5z" glyph-name="cdotaccent" horiz-adv-x="1163" unicode="ċ"/><glyph d="M1368 449l102 -39q-100 -201 -282 -314.5t-385 -113.5q-291 0 -464 188t-173 465q0 213 98 400.5t275.5 302t390.5 114.5q231 0 390 -124t216 -324l-109 -33q-49 170 -180 273.5t-323 103.5q-268 0 -458 -214t-190 -495q0 -233 144.5 -393t386.5 -160q168 0 320.5 96.5 t240.5 266.5zM1032 1681l254 179l55 -76l-319 -225l-246 225l66 71z" glyph-name="Ccaron" horiz-adv-x="1570" unicode="Č"/><glyph d="M942 332l100 -37q-72 -147 -200.5 -230t-276.5 -83q-203 0 -323.5 133t-120.5 327q0 238 156.5 411t381.5 173q162 0 273.5 -88t150.5 -231l-104 -33q-29 113 -113 181.5t-213 68.5q-180 0 -301 -145.5t-121 -336.5q0 -154 89.5 -257t248.5 -103q113 0 215.5 66.5 t157.5 183.5zM725 1286l254 178l55 -75l-319 -226l-246 226l66 71z" glyph-name="ccaron" horiz-adv-x="1163" unicode="č"/><glyph d="M145 0l252 1434h430q299 0 453 -167t154 -431q0 -111 -25 -223.5t-82 -224.5t-141 -197t-213 -138t-287 -53h-541zM807 1329h-320l-215 -1225h418q131 0 239.5 45.5t179.5 118t120 168.5t70.5 195.5t21.5 199.5q0 225 -127 361.5t-387 136.5zM969 1681l254 179l55 -76 l-320 -225l-245 225l65 71z" glyph-name="Dcaron" horiz-adv-x="1523" unicode="Ď"/><glyph d="M891 0l33 184q-150 -203 -381 -202q-195 0 -308.5 128t-113.5 320q0 236 147.5 416t372.5 180q143 0 241.5 -72.5t141.5 -193.5l119 674h108l-252 -1434h-108zM565 84q178 0 300 143.5t122 335.5q0 156 -90 258.5t-244 102.5q-178 0 -300 -145.5t-122 -336.5 q0 -154 89 -256t245 -102zM1407 1051l-47 47q113 113 127 202q-37 -14 -67.5 7.5t-30.5 58.5t25.5 61.5t62 24.5t63.5 -27.5t27 -81.5q0 -59 -41 -141.5t-119 -150.5z" glyph-name="dcaron" horiz-adv-x="1345" unicode="ď"/><glyph d="M123 664l18 106h162l117 664h430q299 0 452.5 -167t153.5 -431q0 -111 -24.5 -223.5t-82 -224.5t-141.5 -197t-213 -138t-286 -53h-541l117 664h-162zM877 664h-484l-98 -560h416q131 0 240.5 45.5t180 118t119.5 168.5t70.5 195.5t21.5 199.5q0 225 -126.5 361.5 t-387.5 136.5h-319l-98 -559h483z" glyph-name="Dcroat" horiz-adv-x="1546" unicode="Đ"/><glyph d="M891 0l33 184q-150 -203 -381 -202q-195 0 -308.5 128t-113.5 320q0 236 147.5 416t372.5 180q143 0 241.5 -72.5t141.5 -193.5l72 414h-338l18 100h338l29 160h108l-28 -160h155l-18 -100h-156l-205 -1174h-108zM565 84q178 0 300 143.5t122 335.5q0 156 -90 258.5 t-244 102.5q-178 0 -300 -145.5t-122 -336.5q0 -154 89 -256t245 -102z" glyph-name="dcroat" horiz-adv-x="1288" unicode="đ"/><glyph d="M145 0l252 1434h932l-18 -105h-824l-98 -557h680l-18 -106h-680l-99 -562h826l-21 -104h-932zM1194 1731l-18 -99h-541l18 99h541z" glyph-name="Emacron" horiz-adv-x="1275" unicode="Ē"/><glyph d="M909 217l58 -82q-158 -154 -392 -153q-213 0 -333.5 131t-120.5 325q0 244 161.5 416t405.5 172q162 0 260.5 -77t98.5 -193q0 -147 -160 -244.5t-481 -97.5h-177q10 -145 100.5 -238.5t250.5 -93.5q188 0 329 135zM233 508h170q270 0 401.5 68.5t131.5 175.5 q0 76 -66.5 124t-179.5 48q-172 0 -300 -109.5t-157 -306.5zM1047 1335l-19 -98h-541l19 98h541z" glyph-name="emacron" horiz-adv-x="1140" unicode="ē"/><glyph d="M145 0l252 1434h932l-18 -105h-824l-98 -557h680l-18 -106h-680l-99 -562h826l-21 -104h-932zM831 1673q0 41 28 67.5t67 26.5q33 0 56.5 -22.5t23.5 -54.5q0 -41 -28 -68t-67 -27q-33 0 -56.5 22.5t-23.5 55.5z" glyph-name="Edotaccent" horiz-adv-x="1275" unicode="Ė"/><glyph d="M909 217l58 -82q-158 -154 -392 -153q-213 0 -333.5 131t-120.5 325q0 244 161.5 416t405.5 172q162 0 260.5 -77t98.5 -193q0 -147 -160 -244.5t-481 -97.5h-177q10 -145 100.5 -238.5t250.5 -93.5q188 0 329 135zM233 508h170q270 0 401.5 68.5t131.5 175.5 q0 76 -66.5 124t-179.5 48q-172 0 -300 -109.5t-157 -306.5zM682 1278q0 41 27.5 67.5t66.5 26.5q33 0 56.5 -22.5t23.5 -55.5q0 -41 -27.5 -67.5t-66.5 -26.5q-33 0 -56.5 22.5t-23.5 55.5z" glyph-name="edotaccent" horiz-adv-x="1140" unicode="ė"/><glyph d="M145 0l252 1434h932l-18 -105h-824l-98 -557h680l-18 -106h-680l-99 -562h826l-21 -104q-66 -55 -100.5 -86t-83.5 -100.5t-49 -122.5q0 -84 106 -84q25 0 49 6l5 -94q-33 -8 -66 -8q-92 0 -143.5 41.5t-51.5 115.5q0 86 60.5 165t167.5 167h-826z" glyph-name="Eogonek" horiz-adv-x="1275" unicode="Ę"/><glyph d="M909 217l58 -82q-59 -59 -148 -100q-63 -51 -100 -83t-84 -81t-69.5 -93t-22.5 -87q0 -84 106 -84q25 0 49 6l4 -94q-33 -8 -65 -8q-92 0 -143.5 41.5t-51.5 115.5q0 141 213 320q-33 -6 -80 -6q-213 0 -333.5 131t-120.5 325q0 244 161.5 416t405.5 172q162 0 260.5 -77 t98.5 -193q0 -147 -160 -244.5t-481 -97.5h-177q10 -145 100.5 -238.5t250.5 -93.5q188 0 329 135zM233 508h170q270 0 401.5 68.5t131.5 175.5q0 76 -66.5 124t-179.5 48q-172 0 -300 -109.5t-157 -306.5z" glyph-name="eogonek" horiz-adv-x="1140" unicode="ę"/><glyph d="M145 0l252 1434h932l-18 -105h-824l-98 -557h680l-18 -106h-680l-99 -562h826l-21 -104h-932zM901 1681l254 179l55 -76l-319 -225l-246 225l66 71z" glyph-name="Ecaron" horiz-adv-x="1275" unicode="Ě"/><glyph d="M909 217l58 -82q-158 -154 -392 -153q-213 0 -333.5 131t-120.5 325q0 244 161.5 416t405.5 172q162 0 260.5 -77t98.5 -193q0 -147 -160 -244.5t-481 -97.5h-177q10 -145 100.5 -238.5t250.5 -93.5q188 0 329 135zM233 508h170q270 0 401.5 68.5t131.5 175.5 q0 76 -66.5 124t-179.5 48q-172 0 -300 -109.5t-157 -306.5zM764 1286l254 178l55 -75l-319 -226l-246 226l65 71z" glyph-name="ecaron" horiz-adv-x="1140" unicode="ě"/><glyph d="M821 631l21 106h635l-129 -737h-105l47 272q-174 -291 -512 -290q-285 0 -447.5 183t-162.5 456q0 340 220 585.5t544 245.5q197 0 342 -91t221 -247l-100 -51q-63 131 -185.5 208t-283.5 77q-272 0 -459.5 -216.5t-187.5 -502.5q0 -231 134 -387t373 -156 q211 0 360.5 141.5t207.5 403.5h-533zM1290 1837l84 -41q-123 -223 -325 -223q-106 0 -182 62.5t-107 160.5l92 41q25 -78 76 -123t125 -45q145 0 237 168z" glyph-name="Gbreve" horiz-adv-x="1589" unicode="Ğ"/><glyph d="M125 459q0 227 142.5 397t355.5 170q141 0 238 -69.5t138 -188.5l41 238h109l-160 -912q-25 -143 -76 -243.5t-119.5 -151.5t-136 -72.5t-145.5 -21.5q-279 0 -465 221l76 78q174 -197 391 -197q299 0 367 387l20 119q-143 -184 -362 -184q-193 0 -303.5 123t-110.5 307z M637 924q-166 0 -283.5 -134.5t-117.5 -320.5q0 -147 88 -243.5t235 -96.5q168 0 287 134t119 310q0 150 -89 250.5t-239 100.5zM997 1442l84 -41q-123 -223 -325 -223q-106 0 -182 62.5t-107 160.5l92 41q25 -78 76 -123t125 -45q145 0 237 168z" glyph-name="gbreve" horiz-adv-x="1251" unicode="ğ"/><glyph d="M821 631l21 106h635l-129 -737h-105l47 272q-174 -291 -512 -290q-285 0 -447.5 183t-162.5 456q0 340 220 585.5t544 245.5q197 0 342 -91t221 -247l-100 -51q-63 131 -185.5 208t-283.5 77q-272 0 -459.5 -216.5t-187.5 -502.5q0 -231 134 -387t373 -156 q211 0 360.5 141.5t207.5 403.5h-533zM967 1673q0 41 27.5 67.5t66.5 26.5q33 0 56.5 -22.5t23.5 -54.5q0 -41 -28 -68t-66 -27q-33 0 -56.5 22.5t-23.5 55.5z" glyph-name="Gdotaccent" horiz-adv-x="1589" unicode="Ġ"/><glyph d="M125 459q0 227 142.5 397t355.5 170q141 0 238 -69.5t138 -188.5l41 238h109l-160 -912q-25 -143 -76 -243.5t-119.5 -151.5t-136 -72.5t-145.5 -21.5q-279 0 -465 221l76 78q174 -197 391 -197q299 0 367 387l20 119q-143 -184 -362 -184q-193 0 -303.5 123t-110.5 307z M637 924q-166 0 -283.5 -134.5t-117.5 -320.5q0 -147 88 -243.5t235 -96.5q168 0 287 134t119 310q0 150 -89 250.5t-239 100.5zM676 1278q0 41 27.5 67.5t66.5 26.5q33 0 56.5 -22.5t23.5 -55.5q0 -41 -27.5 -67.5t-66.5 -26.5q-33 0 -56.5 22.5t-23.5 55.5z" glyph-name="gdotaccent" horiz-adv-x="1251" unicode="ġ"/><glyph d="M821 631l21 106h635l-129 -737h-105l47 272q-174 -291 -512 -290q-285 0 -447.5 183t-162.5 456q0 340 220 585.5t544 245.5q197 0 342 -91t221 -247l-100 -51q-63 131 -185.5 208t-283.5 77q-272 0 -459.5 -216.5t-187.5 -502.5q0 -231 134 -387t373 -156 q211 0 360.5 141.5t207.5 403.5h-533zM659 -555l-47 47q113 113 127 203q-37 -14 -67.5 7.5t-30.5 58t25.5 61t62.5 24.5t63.5 -27.5t26.5 -80.5q0 -59 -41 -142t-119 -151z" glyph-name="Gcommaaccent" horiz-adv-x="1589" unicode="Ģ"/><glyph d="M125 459q0 227 142.5 397t355.5 170q141 0 238 -69.5t138 -188.5l41 238h109l-160 -912q-25 -143 -76 -243.5t-119.5 -151.5t-136 -72.5t-145.5 -21.5q-279 0 -465 221l76 78q174 -197 391 -197q299 0 367 387l20 119q-143 -184 -362 -184q-193 0 -303.5 123t-110.5 307z M637 924q-166 0 -283.5 -134.5t-117.5 -320.5q0 -147 88 -243.5t235 -96.5q168 0 287 134t119 310q0 150 -89 250.5t-239 100.5zM387 -913l-47 47q113 113 127 202q-37 -14 -67.5 7.5t-30.5 58.5t25.5 61.5t62.5 24.5t63.5 -27.5t26.5 -81.5q0 -59 -41 -141.5t-119 -150.5z " glyph-name="gcommaaccent" horiz-adv-x="1251" unicode="ģ"/><glyph d="M1432 1434h108l-49 -283h125l-19 -102h-124l-185 -1049h-108l116 664h-921l-117 -664h-108l184 1049h-133l18 102h133l49 283h109l-49 -283h921zM393 770h922l49 279h-922z" glyph-name="Hbar" horiz-adv-x="1613" unicode="Ħ"/><glyph d="M172 1174l18 100h144l28 160h109l-29 -160h349l-17 -100h-350l-62 -355q137 207 381 207q156 0 243 -90t87 -250q0 -47 -10 -115l-100 -571h-109l98 561q10 51 11 111q0 129 -64.5 191.5t-179.5 62.5q-152 0 -263.5 -106.5t-140.5 -270.5l-96 -549h-108l204 1174h-143z " glyph-name="hbar" horiz-adv-x="1224" unicode="ħ"/><glyph d="M397 1434h109l-252 -1434h-109zM238 1608h-99q16 115 71.5 193.5t154.5 78.5q59 0 95 -28.5t70 -82.5q2 -4 10.5 -16t10.5 -16t9 -13.5t10 -13.5t10.5 -11t12.5 -9t12 -6.5t14.5 -5.5t15.5 -1q86 0 121 178h98q-16 -113 -70.5 -191.5t-152.5 -78.5q-57 0 -95 27.5 t-73 81.5q-4 6 -12.5 19t-12.5 19.5t-12 16.5t-14 15t-14.5 11.5t-18.5 8.5t-21 2q-87 0 -120 -178z" glyph-name="Itilde" horiz-adv-x="577" unicode="Ĩ"/><glyph d="M100 0l176 1006h109l-176 -1006h-109zM123 1212h-98q16 115 71.5 194t153.5 79q59 0 95 -29t71 -82q2 -4 10 -16t10 -16.5t9.5 -13.5t10.5 -13t10 -11.5t12 -9.5t12.5 -6t14.5 -5t15 -1q86 0 121 178h98q-16 -113 -70.5 -191.5t-152.5 -78.5q-57 0 -95 27.5t-73 80.5 q-4 6 -12 19.5t-12.5 19.5t-12.5 16.5t-14 15.5t-14.5 11t-18.5 8.5t-20 2.5q-88 -1 -121 -179z" glyph-name="itilde" horiz-adv-x="487" unicode="ĩ"/><glyph d="M397 1434h109l-252 -1434h-109zM770 1731l-18 -99h-541l18 99h541z" glyph-name="Imacron" horiz-adv-x="577" unicode="Ī"/><glyph d="M100 0l176 1006h109l-176 -1006h-109zM655 1335l-18 -98h-541l19 98h540z" glyph-name="imacron" horiz-adv-x="487" unicode="ī"/><glyph d="M397 1434h109l-252 -1434h-109zM729 1837l84 -41q-123 -223 -326 -223q-106 0 -182 62.5t-106 160.5l92 41q25 -78 76 -123t125 -45q145 0 237 168z" glyph-name="Ibreve" horiz-adv-x="577" unicode="Ĭ"/><glyph d="M100 0l176 1006h109l-176 -1006h-109zM614 1442l84 -41q-123 -223 -325 -223q-106 0 -182 62.5t-107 160.5l92 41q25 -78 76 -123t125 -45q145 0 237 168z" glyph-name="ibreve" horiz-adv-x="487" unicode="ĭ"/><glyph d="M397 1434h109l-252 -1434q-66 -55 -100.5 -86t-84 -100.5t-49.5 -122.5q0 -84 107 -84q25 0 49 6l4 -94q-33 -8 -65 -8q-92 0 -143.5 41.5t-51.5 115.5q0 86 60.5 165t166.5 167h-2z" glyph-name="Iogonek" horiz-adv-x="577" unicode="Į"/><glyph d="M100 0l176 1006h109l-176 -1006q-66 -55 -100.5 -86t-84 -100.5t-49.5 -122.5q0 -84 107 -84q25 0 49 6l4 -94q-33 -8 -65 -8q-92 0 -143.5 41.5t-51.5 115.5q0 86 60.5 165t166.5 167h-2zM301 1292q0 37 25.5 61.5t62.5 24.5q33 0 53.5 -20.5t20.5 -52.5 q0 -35 -25.5 -60.5t-62.5 -25.5q-33 0 -53.5 21t-20.5 52z" glyph-name="iogonek" horiz-adv-x="487" unicode="į"/><glyph d="M397 1434h109l-252 -1434h-109zM408 1673q0 41 27.5 67.5t66.5 26.5q33 0 56.5 -22.5t23.5 -54.5q0 -41 -28 -68t-67 -27q-33 0 -56 22.5t-23 55.5z" glyph-name="Idotaccent" horiz-adv-x="577" unicode="İ"/><glyph d="M100 0l176 1006h109l-176 -1006h-109z" glyph-name="dotlessi" horiz-adv-x="487" unicode="ı"/><glyph d="M397 1434h109l-252 -1434h-109zM1055 1329l18 105h762l-174 -992q-39 -213 -179.5 -336.5t-334.5 -123.5q-227 0 -347 123.5t-120 314.5q0 47 10 108l25 140h108l-24 -138q-10 -57 -11 -98q0 -156 92.5 -251t268.5 -95q154 0 264.5 101.5t142.5 279.5l152 862h-653z" glyph-name="IJ" horiz-adv-x="1886" unicode="Ĳ"/><glyph d="M301 1292q0 37 25.5 61.5t62.5 24.5q33 0 53.5 -20.5t20.5 -52.5q0 -35 -25.5 -60.5t-62.5 -25.5q-33 0 -53.5 21t-20.5 52zM100 0l176 1006h109l-176 -1006h-109zM797 1292q0 37 26.5 61.5t63.5 24.5q31 0 52.5 -20.5t21.5 -52.5q0 -35 -27 -60.5t-62 -25.5 q-33 0 -54 21t-21 52zM317 -369l37 95q37 -16 80 -17q113 0 141 162l199 1135h109l-201 -1145q-45 -254 -248 -254q-62 -1 -117 24z" glyph-name="ij" horiz-adv-x="985" unicode="ĳ"/><glyph d="M471 1329l18 105h762l-174 -992q-39 -213 -179 -336.5t-335 -123.5q-227 0 -347 123.5t-120 314.5q0 47 10 108l25 140h109l-25 -138q-10 -57 -10 -98q0 -156 92 -251t268 -95q154 0 264.5 101.5t143.5 279.5l151 862h-653zM936 1745l-254 -178l-55 75l319 226l246 -226 l-66 -71z" glyph-name="Jcircumflex" horiz-adv-x="1302" unicode="Ĵ"/><glyph d="M-166 -369l37 95q37 -16 80 -17q113 0 141 162l199 1135h108l-202 -1149q-43 -250 -246 -250q-62 -1 -117 24zM408 1350l-254 -179l-56 76l320 226l246 -226l-66 -71z" glyph-name="jcircumflex" horiz-adv-x="501" unicode="ĵ"/><glyph d="M1102 0l-338 664h-393l-117 -664h-109l252 1434h109l-117 -664h373l530 664h135l-571 -715l367 -719h-121zM532 -555l-47 47q113 113 127 203q-37 -14 -67.5 7.5t-30.5 58t25.5 61t62.5 24.5t63.5 -27.5t26.5 -80.5q0 -59 -41 -142t-119 -151z" glyph-name="Kcommaaccent" horiz-adv-x="1355" unicode="Ķ"/><glyph d="M821 0l-258 451h-276l-78 -451h-109l252 1434h109l-156 -881h260l373 453h131l-418 -508l287 -498h-117zM367 -555l-48 47q113 113 127 203q-37 -14 -67.5 7.5t-30.5 58t25.5 61t62.5 24.5t63.5 -27.5t26.5 -80.5q0 -59 -40.5 -142t-118.5 -151z" glyph-name="kcommaaccent" horiz-adv-x="1071" unicode="ķ"/><glyph d="M397 1434h109l-234 -1330h779l-19 -104h-887zM440 1556l-80 52l293 313l78 -76z" glyph-name="Lacute" horiz-adv-x="1171" unicode="Ĺ"/><glyph d="M100 0l252 1434h109l-252 -1434h-109zM387 1556l-80 52l293 313l78 -76z" glyph-name="lacute" horiz-adv-x="487" unicode="ĺ"/><glyph d="M397 1434h109l-234 -1330h779l-19 -104h-887zM485 -555l-47 47q113 113 127 203q-37 -14 -67.5 7.5t-30.5 58t25.5 61t62.5 24.5t63.5 -27.5t26.5 -80.5q0 -59 -41 -142t-119 -151z" glyph-name="Lcommaaccent" horiz-adv-x="1171" unicode="Ļ"/><glyph d="M47 -555l-47 47q113 113 127 203q-37 -14 -67.5 7.5t-30.5 58t25.5 61t62.5 24.5t63.5 -27.5t26.5 -80.5q0 -59 -41 -142t-119 -151zM100 0l252 1434h109l-252 -1434h-109z" glyph-name="lcommaaccent" horiz-adv-x="487" unicode="ļ"/><glyph d="M397 1434h109l-234 -1330h779l-19 -104h-887zM713 1051l-47 47q113 113 127 202q-37 -14 -68 7.5t-31 58.5t25.5 61.5t62.5 24.5t63.5 -27.5t26.5 -81.5q0 -59 -40.5 -141.5t-118.5 -150.5z" glyph-name="Lcaron" horiz-adv-x="1173" unicode="Ľ"/><glyph d="M100 0l252 1434h109l-252 -1434h-109zM590 1051l-47 47q113 113 127 202q-37 -14 -68 7.5t-31 58.5t26 61.5t62.5 24.5t63.5 -27.5t27 -81.5q0 -59 -41 -141.5t-119 -150.5z" glyph-name="lcaron" horiz-adv-x="550" unicode="ľ"/><glyph d="M397 1434h109l-234 -1330h779l-19 -104h-887zM758 713q0 41 27.5 67.5t66.5 26.5q33 0 56.5 -22.5t23.5 -55.5q0 -41 -27.5 -67.5t-66.5 -26.5q-33 0 -56.5 22.5t-23.5 55.5z" glyph-name="Ldot" horiz-adv-x="1175" unicode="Ŀ"/><glyph d="M100 0l252 1434h109l-252 -1434h-109zM430 713q0 41 27.5 67.5t66.5 26.5q33 0 56.5 -22.5t23.5 -55.5q0 -41 -27.5 -67.5t-66.5 -26.5q-33 0 -56.5 22.5t-23.5 55.5z" glyph-name="ldot" horiz-adv-x="550" unicode="ŀ"/><glyph d="M418 1434h108l-110 -631l356 227l-24 -127l-355 -225l-100 -574h778l-18 -104h-887l104 600l-194 -125l24 129l193 123z" glyph-name="Lslash" horiz-adv-x="1191" unicode="Ł"/><glyph d="M129 631l23 127l143 90l102 586h109l-90 -510l135 86l-23 -127l-135 -86l-139 -797h-109l127 721z" glyph-name="lslash" horiz-adv-x="569" unicode="ł"/><glyph d="M254 0h-109l252 1434h111l709 -1272l223 1272h108l-252 -1434h-110l-709 1270zM975 1556l-80 52l293 313l78 -76z" glyph-name="Nacute" horiz-adv-x="1617" unicode="Ń"/><glyph d="M844 0l98 561q10 51 10 111q0 129 -64.5 191.5t-178.5 62.5q-152 0 -263.5 -106.5t-140.5 -270.5l-96 -549h-109l176 1006h109l-33 -187q137 207 381 207q156 0 243 -90t87 -250q0 -61 -10 -113l-101 -573h-108zM705 1161l-80 51l293 314l77 -76z" glyph-name="nacute" horiz-adv-x="1216" unicode="ń"/><glyph d="M254 0h-109l252 1434h111l709 -1272l223 1272h108l-252 -1434h-110l-709 1270zM627 -555l-47 47q113 113 127 203q-37 -14 -68 7.5t-31 58t25.5 61t62.5 24.5t63.5 -27.5t26.5 -80.5q0 -59 -40.5 -142t-118.5 -151z" glyph-name="Ncommaaccent" horiz-adv-x="1617" unicode="Ņ"/><glyph d="M844 0l98 561q10 51 10 111q0 129 -64.5 191.5t-178.5 62.5q-152 0 -263.5 -106.5t-140.5 -270.5l-96 -549h-109l176 1006h109l-33 -187q137 207 381 207q156 0 243 -90t87 -250q0 -61 -10 -113l-101 -573h-108zM426 -555l-47 47q113 113 127 203q-37 -14 -67.5 7.5 t-30.5 58t25.5 61t62 24.5t63.5 -27.5t27 -80.5q0 -59 -41 -142t-119 -151z" glyph-name="ncommaaccent" horiz-adv-x="1216" unicode="ņ"/><glyph d="M254 0h-109l252 1434h111l709 -1272l223 1272h108l-252 -1434h-110l-709 1270zM1010 1681l254 179l55 -76l-320 -225l-245 225l65 71z" glyph-name="Ncaron" horiz-adv-x="1617" unicode="Ň"/><glyph d="M844 0l98 561q10 51 10 111q0 129 -64.5 191.5t-178.5 62.5q-152 0 -263.5 -106.5t-140.5 -270.5l-96 -549h-109l176 1006h109l-33 -187q137 207 381 207q156 0 243 -90t87 -250q0 -61 -10 -113l-101 -573h-108zM750 1286l254 178l55 -75l-320 -226l-245 226l65 71z" glyph-name="ncaron" horiz-adv-x="1216" unicode="ň"/><glyph d="M1067 0l98 561q10 51 11 111q0 129 -64.5 191.5t-179.5 62.5q-152 0 -263.5 -106.5t-140.5 -270.5l-96 -549h-108l176 1006h108l-33 -187q137 207 381 207q156 0 243 -90t87 -250q0 -61 -10 -113l-100 -573h-109zM233 946l-55 58q76 66 120 143.5t46 138.5 q-45 -20 -81 4.5t-36 67.5q0 41 31 69.5t72 28.5q45 0 75.5 -35t30.5 -100q0 -94 -57.5 -197.5t-145.5 -177.5z" glyph-name="napostrophe" horiz-adv-x="1437" unicode="ŉ"/><glyph d="M254 0h-109l252 1434h111l706 -1270l226 1270h108l-278 -1581q-43 -250 -266 -250q-80 0 -170 32l36 95q61 -25 131 -25q135 0 162 164l23 131l-709 1270z" glyph-name="Eng" horiz-adv-x="1617" unicode="Ŋ"/><glyph d="M565 -369l37 95q33 -16 80 -17q111 0 139 162l123 690q33 182 -32.5 273.5t-202.5 91.5q-152 0 -262.5 -104.5t-139.5 -268.5l-98 -553h-109l179 1006h108l-33 -185q139 205 379 205q182 0 270.5 -123t49.5 -336l-125 -710q-43 -250 -246 -250q-64 -1 -117 24z" glyph-name="eng" horiz-adv-x="1216" unicode="ŋ"/><glyph d="M168 635q0 334 223 575.5t541 241.5q293 0 466 -188.5t173 -464.5q0 -334 -223.5 -575.5t-542.5 -241.5q-291 0 -464 188.5t-173 464.5zM926 1348q-268 0 -457.5 -213t-189.5 -496q0 -233 144 -393t388 -160q270 0 459.5 213t189.5 496q0 233 -144 393t-390 160z M1333 1731l-18 -99h-541l19 99h540z" glyph-name="Omacron" horiz-adv-x="1662" unicode="Ō"/><glyph d="M121 444q0 240 159.5 411t387.5 171q209 0 331.5 -133t122.5 -330q0 -240 -159.5 -410.5t-387.5 -170.5q-209 0 -331.5 132.5t-122.5 329.5zM662 924q-180 0 -306.5 -143.5t-126.5 -334.5q0 -154 93.5 -258t257.5 -104q182 0 308 143.5t126 333.5q0 156 -93 259.5 t-259 103.5zM1049 1335l-19 -98h-541l19 98h541z" glyph-name="omacron" horiz-adv-x="1243" unicode="ō"/><glyph d="M168 635q0 334 223 575.5t541 241.5q293 0 466 -188.5t173 -464.5q0 -334 -223.5 -575.5t-542.5 -241.5q-291 0 -464 188.5t-173 464.5zM926 1348q-268 0 -457.5 -213t-189.5 -496q0 -233 144 -393t388 -160q270 0 459.5 213t189.5 496q0 233 -144 393t-390 160z M1292 1837l84 -41q-123 -223 -325 -223q-106 0 -182 62.5t-107 160.5l92 41q25 -78 76 -123t125 -45q145 0 237 168z" glyph-name="Obreve" horiz-adv-x="1662" unicode="Ŏ"/><glyph d="M121 444q0 240 159.5 411t387.5 171q209 0 331.5 -133t122.5 -330q0 -240 -159.5 -410.5t-387.5 -170.5q-209 0 -331.5 132.5t-122.5 329.5zM662 924q-180 0 -306.5 -143.5t-126.5 -334.5q0 -154 93.5 -258t257.5 -104q182 0 308 143.5t126 333.5q0 156 -93 259.5 t-259 103.5zM1006 1442l84 -41q-123 -223 -326 -223q-106 0 -182 62.5t-107 160.5l92 41q25 -78 76 -123t125 -45q146 0 238 168z" glyph-name="obreve" horiz-adv-x="1243" unicode="ŏ"/><glyph d="M168 635q0 334 223 575.5t541 241.5q293 0 466 -188.5t173 -464.5q0 -334 -223.5 -575.5t-542.5 -241.5q-291 0 -464 188.5t-173 464.5zM926 1348q-268 0 -457.5 -213t-189.5 -496q0 -233 144 -393t388 -160q270 0 459.5 213t189.5 496q0 233 -144 393t-390 160z M850 1556l-78 46l293 319l76 -70zM1247 1556l-78 46l293 319l76 -70z" glyph-name="Ohungarumlaut" horiz-adv-x="1662" unicode="Ő"/><glyph d="M121 444q0 240 159.5 411t387.5 171q209 0 331.5 -133t122.5 -330q0 -240 -159.5 -410.5t-387.5 -170.5q-209 0 -331.5 132.5t-122.5 329.5zM662 924q-180 0 -306.5 -143.5t-126.5 -334.5q0 -154 93.5 -258t257.5 -104q182 0 308 143.5t126 333.5q0 156 -93 259.5 t-259 103.5zM563 1161l-78 45l293 320l76 -70zM961 1161l-78 45l293 320l75 -70z" glyph-name="ohungarumlaut" horiz-adv-x="1243" unicode="ő"/><glyph d="M1837 0h-932q-356 0 -545.5 185.5t-189.5 461.5q0 156 53 295t156.5 251t271.5 176.5t381 64.5h1057l-18 -105h-811l-99 -557h668l-21 -106h-665l-99 -562h811zM907 104h27l217 1225h-121q-182 0 -328.5 -54t-236.5 -148.5t-137 -214t-47 -255.5q0 -236 161.5 -394.5 t464.5 -158.5z" glyph-name="OE" horiz-adv-x="2035" unicode="Œ"/><glyph d="M121 444q0 240 159.5 411t387.5 171q154 0 263 -76t159 -202q74 127 201.5 202.5t283.5 75.5q162 0 260 -77t98 -193q0 -147 -159.5 -244.5t-481.5 -97.5h-176q10 -145 100.5 -238.5t249.5 -93.5q188 0 330 135l57 -82q-158 -154 -391 -153q-158 0 -266.5 74.5 t-157.5 199.5q-74 -125 -195.5 -199.5t-267.5 -74.5q-209 0 -331.5 132.5t-122.5 329.5zM662 924q-180 0 -306.5 -143.5t-126.5 -334.5q0 -154 93.5 -258t257.5 -104q182 0 308 143.5t126 333.5q0 156 -93 259.5t-259 103.5zM1120 508h170q270 0 401.5 68.5t131.5 175.5 q0 76 -66.5 124t-179.5 48q-172 0 -300 -109.5t-157 -306.5z" glyph-name="oe" horiz-adv-x="2027" unicode="œ"/><glyph d="M905 1434q217 0 332 -116t115 -288q0 -178 -106.5 -312t-272.5 -177l268 -541h-123l-260 522h-512l-92 -522h-109l252 1434h508zM813 627q193 0 308.5 112.5t115.5 284.5q0 133 -87 219t-267 86h-396l-122 -702h448zM909 1556l-80 52l293 313l78 -76z" glyph-name="Racute" horiz-adv-x="1429" unicode="Ŕ"/><glyph d="M385 1006l-61 -349q76 133 202.5 240t268.5 129l-21 -125q-162 -33 -312.5 -177t-178.5 -304l-74 -420h-109l176 1006h109zM535 1161l-80 51l293 314l77 -76z" glyph-name="racute" horiz-adv-x="757" unicode="ŕ"/><glyph d="M397 1434h508q217 0 332 -116t115 -288q0 -178 -106.5 -312t-272.5 -177l268 -541h-123l-260 522h-512l-92 -522h-109zM365 627h448q193 0 308.5 112.5t115.5 284.5q0 133 -87 219t-267 86h-396zM524 -555l-47 47q113 113 127 203q-37 -14 -67.5 7.5t-30.5 58t25.5 61 t62.5 24.5t63.5 -27.5t26.5 -80.5q0 -59 -41 -142t-119 -151z" glyph-name="Rcommaaccent" horiz-adv-x="1429" unicode="Ŗ"/><glyph d="M385 1006l-61 -349q76 133 202.5 240t268.5 129l-21 -125q-162 -33 -312.5 -177t-178.5 -304l-74 -420h-109l176 1006h109zM45 -555l-47 47q113 113 127 203q-37 -14 -67.5 7.5t-30.5 58t25.5 61t62.5 24.5t63.5 -27.5t26.5 -80.5q0 -59 -41 -142t-119 -151z" glyph-name="rcommaaccent" horiz-adv-x="757" unicode="ŗ"/><glyph d="M905 1434q217 0 332 -116t115 -288q0 -178 -106.5 -312t-272.5 -177l268 -541h-123l-260 522h-512l-92 -522h-109l252 1434h508zM813 627q193 0 308.5 112.5t115.5 284.5q0 133 -87 219t-267 86h-396l-122 -702h448zM954 1681l254 179l56 -76l-320 -225l-246 225l66 71z " glyph-name="Rcaron" horiz-adv-x="1429" unicode="Ř"/><glyph d="M385 1006l-61 -349q76 133 202.5 240t268.5 129l-21 -125q-162 -33 -312.5 -177t-178.5 -304l-74 -420h-109l176 1006h109zM575 1286l254 178l56 -75l-320 -226l-246 226l66 71z" glyph-name="rcaron" horiz-adv-x="757" unicode="ř"/><glyph d="M102 387l111 21q-2 -23 -2 -35q0 -145 125 -217t311 -72q156 0 265.5 67.5t109.5 192.5q0 59 -25.5 107.5t-86 89.5t-107.5 65.5t-144 65.5q-98 43 -153 72.5t-123 81t-99.5 116t-31.5 145.5q0 170 135 267.5t342 97.5q231 0 367.5 -110.5t136.5 -313.5v-10h-111v8 q0 160 -107.5 241t-293.5 81q-164 0 -260 -74t-96 -187q0 -59 25.5 -106t82.5 -87t105.5 -64.5t138.5 -65.5q86 -39 131 -60.5t109.5 -62.5t97 -79t57.5 -94t25 -122q0 -170 -138.5 -267t-357.5 -97q-227 0 -384 97t-157 275q0 13 2 33zM788 1556l-79 52l292 313l78 -76z " glyph-name="Sacute" horiz-adv-x="1292" unicode="Ś"/><glyph d="M74 260l108 25v-6q0 -100 86 -150.5t209 -50.5q131 0 204 45t73 123q0 18 -5.5 35.5t-11.5 31t-20.5 27.5t-23.5 23.5t-30.5 20.5t-31.5 17.5t-37 17.5t-37 14t-39 14.5t-37 13.5q-152 55 -229.5 117.5t-77.5 171.5q0 133 110.5 204.5t266.5 71.5q172 0 274.5 -77 t102.5 -218v-2h-109v4q0 98 -74.5 146.5t-191.5 48.5t-192.5 -43t-75.5 -131q0 -76 59 -116t209 -93q154 -55 232.5 -116.5t78.5 -174.5q0 -127 -104.5 -199.5t-276.5 -72.5q-182 0 -295.5 75.5t-113.5 202.5zM590 1161l-80 51l293 314l78 -76z" glyph-name="sacute" horiz-adv-x="1026" unicode="ś"/><glyph d="M102 387l111 21q-2 -23 -2 -35q0 -145 125 -217t311 -72q156 0 265.5 67.5t109.5 192.5q0 59 -25.5 107.5t-86 89.5t-107.5 65.5t-144 65.5q-98 43 -153 72.5t-123 81t-99.5 116t-31.5 145.5q0 170 135 267.5t342 97.5q231 0 367.5 -110.5t136.5 -313.5v-10h-111v8 q0 160 -107.5 241t-293.5 81q-164 0 -260 -74t-96 -187q0 -59 25.5 -106t82.5 -87t105.5 -64.5t138.5 -65.5q86 -39 131 -60.5t109.5 -62.5t97 -79t57.5 -94t25 -122q0 -170 -138.5 -267t-357.5 -97q-227 0 -384 97t-157 275q0 13 2 33zM852 1745l-254 -178l-55 75l319 226 l246 -226l-66 -71z" glyph-name="Scircumflex" horiz-adv-x="1292" unicode="Ŝ"/><glyph d="M74 260l108 25v-6q0 -100 86 -150.5t209 -50.5q131 0 204 45t73 123q0 18 -5.5 35.5t-11.5 31t-20.5 27.5t-23.5 23.5t-30.5 20.5t-31.5 17.5t-37 17.5t-37 14t-39 14.5t-37 13.5q-152 55 -229.5 117.5t-77.5 171.5q0 133 110.5 204.5t266.5 71.5q172 0 274.5 -77 t102.5 -218v-2h-109v4q0 98 -74.5 146.5t-191.5 48.5t-192.5 -43t-75.5 -131q0 -76 59 -116t209 -93q154 -55 232.5 -116.5t78.5 -174.5q0 -127 -104.5 -199.5t-276.5 -72.5q-182 0 -295.5 75.5t-113.5 202.5zM655 1350l-254 -179l-55 76l320 226l245 -226l-65 -71z" glyph-name="scircumflex" horiz-adv-x="1026" unicode="ŝ"/><glyph d="M102 387l111 21q-2 -23 -2 -35q0 -145 125 -217t311 -72q156 0 265.5 67.5t109.5 192.5q0 59 -25.5 107.5t-86 89.5t-107.5 65.5t-144 65.5q-98 43 -153 72.5t-123 81t-99.5 116t-31.5 145.5q0 170 135 267.5t342 97.5q231 0 367.5 -110.5t136.5 -313.5v-10h-111v8 q0 160 -107.5 241t-293.5 81q-164 0 -260 -74t-96 -187q0 -59 25.5 -106t82.5 -87t105.5 -64.5t138.5 -65.5q86 -39 131 -60.5t109.5 -62.5t97 -79t57.5 -94t25 -122q0 -170 -138.5 -267t-357.5 -97h-27l-59 -103q88 -8 138 -57t50 -117q0 -76 -55 -135t-166 -59 q-119 0 -229 75l53 84q82 -63 174 -63q127 0 127 102q0 100 -172 103l-20 36l80 140q-190 20 -312.5 115.5t-122.5 250.5q0 13 2 33z" glyph-name="Scedilla" horiz-adv-x="1292" unicode="Ş"/><glyph d="M74 260l108 25v-6q0 -100 86 -150.5t209 -50.5q131 0 204 45t73 123q0 18 -5.5 35.5t-11.5 31t-20.5 27.5t-23.5 23.5t-30.5 20.5t-31.5 17.5t-37 17.5t-37 14t-39 14.5t-37 13.5q-152 55 -229.5 117.5t-77.5 171.5q0 133 110.5 204.5t266.5 71.5q172 0 274.5 -77 t102.5 -218v-2h-109v4q0 98 -74.5 146.5t-191.5 48.5t-192.5 -43t-75.5 -131q0 -76 59 -116t209 -93q154 -55 232.5 -116.5t78.5 -174.5q0 -127 -104.5 -199.5t-276.5 -72.5h-10l-59 -103q88 -8 138 -57t50 -117q0 -76 -55 -135t-166 -59q-119 0 -229 75l53 84 q82 -63 174 -63q127 0 127 102q0 100 -172 103l-21 36l80 140q-145 16 -232 88.5t-87 183.5z" glyph-name="scedilla" horiz-adv-x="1026" unicode="ş"/><glyph d="M102 387l111 21q-2 -23 -2 -35q0 -145 125 -217t311 -72q156 0 265.5 67.5t109.5 192.5q0 59 -25.5 107.5t-86 89.5t-107.5 65.5t-144 65.5q-98 43 -153 72.5t-123 81t-99.5 116t-31.5 145.5q0 170 135 267.5t342 97.5q231 0 367.5 -110.5t136.5 -313.5v-10h-111v8 q0 160 -107.5 241t-293.5 81q-164 0 -260 -74t-96 -187q0 -59 25.5 -106t82.5 -87t105.5 -64.5t138.5 -65.5q86 -39 131 -60.5t109.5 -62.5t97 -79t57.5 -94t25 -122q0 -170 -138.5 -267t-357.5 -97q-227 0 -384 97t-157 275q0 13 2 33zM821 1681l254 179l55 -76l-319 -225 l-246 225l66 71z" glyph-name="Scaron" horiz-adv-x="1292" unicode="Š"/><glyph d="M74 260l108 25v-6q0 -100 86 -150.5t209 -50.5q131 0 204 45t73 123q0 18 -5.5 35.5t-11.5 31t-20.5 27.5t-23.5 23.5t-30.5 20.5t-31.5 17.5t-37 17.5t-37 14t-39 14.5t-37 13.5q-152 55 -229.5 117.5t-77.5 171.5q0 133 110.5 204.5t266.5 71.5q172 0 274.5 -77 t102.5 -218v-2h-109v4q0 98 -74.5 146.5t-191.5 48.5t-192.5 -43t-75.5 -131q0 -76 59 -116t209 -93q154 -55 232.5 -116.5t78.5 -174.5q0 -127 -104.5 -199.5t-276.5 -72.5q-182 0 -295.5 75.5t-113.5 202.5zM633 1286l254 178l55 -75l-319 -226l-246 226l65 71z" glyph-name="scaron" horiz-adv-x="1026" unicode="š"/><glyph d="M201 1329l20 105h1098l-19 -105h-493l-234 -1329h-18l-57 -121q88 -8 138 -57t50 -117q0 -76 -55.5 -135t-165.5 -59q-119 0 -229 75l53 84q82 -63 174 -63q127 0 127 102q0 100 -172 103l-21 36l84 152h-16l233 1329h-497z" glyph-name="Tcommaaccent" horiz-adv-x="1214" unicode="Ţ"/><glyph d="M113 905l18 101h188l58 323l117 43l-66 -366h387l-18 -101h-385l-101 -567q-10 -57 -10 -90q0 -90 44 -128t128 -38q82 0 170 43l29 -92q-102 -51 -209 -51q-23 0 -64 4l-61 -107q88 -8 138 -57t50 -117q0 -76 -55 -135t-166 -59q-119 0 -229 75l53 84q82 -63 174 -63 q127 0 127 102q0 100 -172 103l-20 36l90 156q-133 51 -133 236q0 43 10 108l98 557h-190z" glyph-name="tcommaaccent" horiz-adv-x="782" unicode="ţ"/><glyph d="M201 1329l20 105h1098l-19 -105h-493l-234 -1329h-108l233 1329h-497zM815 1681l254 179l55 -76l-319 -225l-246 225l66 71z" glyph-name="Tcaron" horiz-adv-x="1214" unicode="Ť"/><glyph d="M113 905l18 101h188l58 323l117 43l-66 -366h387l-18 -101h-385l-101 -567q-10 -57 -10 -90q0 -90 44 -128t128 -38q82 0 170 43l29 -92q-102 -51 -209 -51q-268 0 -268 258q0 43 10 108l98 557h-190zM686 1126l-47 48q113 113 127 202q-37 -14 -67.5 7.5t-30.5 58.5 t25.5 61.5t62.5 24.5t63.5 -27.5t26.5 -81.5q0 -59 -41 -142t-119 -151z" glyph-name="tcaron" horiz-adv-x="780" unicode="ť"/><glyph d="M209 1329l20 105h1098l-18 -105h-494l-98 -557h239l-16 -98h-242l-116 -674h-109l119 674h-238l17 98h237l99 557h-498z" glyph-name="Tbar" horiz-adv-x="1232" unicode="Ŧ"/><glyph d="M123 905l18 101h189l57 323l117 43l-66 -366h387l-18 -101h-385l-51 -287h305l-19 -100h-305l-30 -180q-10 -57 -11 -90q0 -90 44 -128t128 -38q82 0 170 43l29 -92q-102 -51 -209 -51q-268 0 -268 258q0 43 10 108l29 170h-156l18 100h156l51 287h-190z" glyph-name="tbar" horiz-adv-x="794" unicode="ŧ"/><glyph d="M1405 1434h108l-167 -955q-41 -231 -201 -364t-391 -133q-264 0 -401.5 137t-137.5 348q0 51 10 117l150 850h108l-149 -852q-10 -61 -10 -105q0 -174 109.5 -282.5t324.5 -108.5q188 0 318 108.5t165 307.5zM745 1608h-98q16 115 71.5 193.5t153.5 78.5q59 0 95.5 -28.5 t70.5 -82.5q2 -4 10.5 -16t10.5 -16t9 -13.5t10 -13.5t10.5 -11t12.5 -9t12 -6.5t14.5 -5.5t15.5 -1q86 0 121 178h98q-16 -113 -70.5 -191.5t-152.5 -78.5q-57 0 -95 27.5t-73 81.5q-4 6 -12.5 19t-12.5 19.5t-12 16.5t-14.5 15t-14.5 11.5t-18 8.5t-21 2q-88 0 -121 -178z " glyph-name="Utilde" horiz-adv-x="1564" unicode="Ũ"/><glyph d="M371 1006l-99 -562q-10 -51 -10 -108q0 -129 64.5 -191.5t179.5 -62.5q152 0 263.5 105.5t139.5 269.5l97 549h108l-176 -1006h-109l33 186q-137 -205 -381 -204q-156 0 -242.5 89t-86.5 248q0 61 10 113l100 574h109zM492 1212h-99q16 115 71.5 194t153.5 79 q59 0 95.5 -29t70.5 -82q2 -4 10.5 -16t10.5 -16.5t9 -13.5t10 -13t10.5 -11.5t12.5 -9.5t12 -6t14.5 -5t15.5 -1q86 0 121 178h98q-16 -113 -70.5 -191.5t-152.5 -78.5q-57 0 -95 27.5t-73 80.5q-4 6 -12.5 19.5t-12.5 19.5t-12 16.5t-14.5 15.5t-14.5 11t-18 8.5t-21 2.5 q-87 -1 -120 -179z" glyph-name="utilde" horiz-adv-x="1214" unicode="ũ"/><glyph d="M1405 1434h108l-167 -955q-41 -231 -201 -364t-391 -133q-264 0 -401.5 137t-137.5 348q0 51 10 117l150 850h108l-149 -852q-10 -61 -10 -105q0 -174 109.5 -282.5t324.5 -108.5q188 0 318 108.5t165 307.5zM1278 1731l-18 -99h-541l18 99h541z" glyph-name="Umacron" horiz-adv-x="1564" unicode="Ū"/><glyph d="M371 1006l-99 -562q-10 -51 -10 -108q0 -129 64.5 -191.5t179.5 -62.5q152 0 263.5 105.5t139.5 269.5l97 549h108l-176 -1006h-109l33 186q-137 -205 -381 -204q-156 0 -242.5 89t-86.5 248q0 61 10 113l100 574h109zM1024 1335l-18 -98h-541l18 98h541z" glyph-name="umacron" horiz-adv-x="1214" unicode="ū"/><glyph d="M1405 1434h108l-167 -955q-41 -231 -201 -364t-391 -133q-264 0 -401.5 137t-137.5 348q0 51 10 117l150 850h108l-149 -852q-10 -61 -10 -105q0 -174 109.5 -282.5t324.5 -108.5q188 0 318 108.5t165 307.5zM1237 1837l84 -41q-123 -223 -326 -223q-106 0 -182 62.5 t-106 160.5l92 41q25 -78 76 -123t124 -45q146 0 238 168z" glyph-name="Ubreve" horiz-adv-x="1564" unicode="Ŭ"/><glyph d="M371 1006l-99 -562q-10 -51 -10 -108q0 -129 64.5 -191.5t179.5 -62.5q152 0 263.5 105.5t139.5 269.5l97 549h108l-176 -1006h-109l33 186q-137 -205 -381 -204q-156 0 -242.5 89t-86.5 248q0 61 10 113l100 574h109zM983 1442l84 -41q-123 -223 -326 -223 q-106 0 -182 62.5t-106 160.5l92 41q25 -78 76 -123t124 -45q146 0 238 168z" glyph-name="ubreve" horiz-adv-x="1214" unicode="ŭ"/><glyph d="M1405 1434h108l-167 -955q-41 -231 -201 -364t-391 -133q-264 0 -401.5 137t-137.5 348q0 51 10 117l150 850h108l-149 -852q-10 -61 -10 -105q0 -174 109.5 -282.5t324.5 -108.5q188 0 318 108.5t165 307.5zM793 1731q0 94 68.5 166.5t164.5 72.5q90 0 146.5 -59.5 t56.5 -143.5q0 -94 -68.5 -166.5t-165.5 -72.5q-90 0 -146 59.5t-56 143.5zM1022 1886q-57 0 -102.5 -44t-45.5 -107q0 -53 34 -88t91.5 -35t102.5 44t45 107q0 53 -34 88t-91 35z" glyph-name="Uring" horiz-adv-x="1564" unicode="Ů"/><glyph d="M371 1006l-99 -562q-10 -51 -10 -108q0 -129 64.5 -191.5t179.5 -62.5q152 0 263.5 105.5t139.5 269.5l97 549h108l-176 -1006h-109l33 186q-137 -205 -381 -204q-156 0 -242.5 89t-86.5 248q0 61 10 113l100 574h109zM539 1335q0 94 68.5 167t164.5 73q90 0 146.5 -59.5 t56.5 -143.5q0 -94 -68.5 -166.5t-165.5 -72.5q-90 0 -146 59t-56 143zM768 1491q-57 0 -102 -44t-45 -108q0 -53 33.5 -87.5t91 -34.5t102.5 44t45 107q0 53 -34 88t-91 35z" glyph-name="uring" horiz-adv-x="1214" unicode="ů"/><glyph d="M1405 1434h108l-167 -955q-41 -231 -201 -364t-391 -133q-264 0 -401.5 137t-137.5 348q0 51 10 117l150 850h108l-149 -852q-10 -61 -10 -105q0 -174 109.5 -282.5t324.5 -108.5q188 0 318 108.5t165 307.5zM795 1556l-78 46l293 319l75 -70zM1192 1556l-78 46l293 319 l76 -70z" glyph-name="Uhungarumlaut" horiz-adv-x="1564" unicode="Ű"/><glyph d="M371 1006l-99 -562q-10 -51 -10 -108q0 -129 64.5 -191.5t179.5 -62.5q152 0 263.5 105.5t139.5 269.5l97 549h108l-176 -1006h-109l33 186q-137 -205 -381 -204q-156 0 -242.5 89t-86.5 248q0 61 10 113l100 574h109zM541 1161l-78 45l293 320l75 -70zM938 1161l-78 45 l293 320l76 -70z" glyph-name="uhungarumlaut" horiz-adv-x="1214" unicode="ű"/><glyph d="M1405 1434h108l-167 -955q-59 -322 -328 -444q-84 -66 -135.5 -112t-97.5 -111.5t-46 -120.5q0 -84 107 -84q25 0 49 6l4 -94q-33 -8 -65 -8q-92 0 -143.5 41.5t-51.5 115.5q0 143 213 320q-49 -6 -98 -6q-264 0 -401.5 137t-137.5 348q0 51 10 117l150 850h108 l-149 -852q-10 -61 -10 -105q0 -174 109.5 -282.5t324.5 -108.5q188 0 318 108.5t165 307.5z" glyph-name="Uogonek" horiz-adv-x="1564" unicode="Ų"/><glyph d="M371 1006l-99 -562q-10 -51 -10 -108q0 -129 64.5 -191.5t179.5 -62.5q152 0 263.5 105.5t139.5 269.5l97 549h108l-176 -1006q-61 -51 -100 -85t-87.5 -102.5t-48.5 -121.5q0 -84 107 -84q25 0 49 6l4 -94q-33 -8 -65 -8q-92 0 -143.5 41.5t-51.5 115.5q0 86 60.5 165 t166.5 167l33 186q-137 -205 -381 -204q-156 0 -242.5 89t-86.5 248q0 61 10 113l100 574h109z" glyph-name="uogonek" horiz-adv-x="1214" unicode="ų"/><glyph d="M549 0h-131l-174 1434h112l154 -1274l610 1274h123l154 -1272l600 1272h125l-680 -1434h-129l-156 1268zM1262 1745l-254 -178l-56 75l320 226l246 -226l-66 -71z" glyph-name="Wcircumflex" horiz-adv-x="2031" unicode="Ŵ"/><glyph d="M428 0h-135l-137 1006h110l115 -883l436 883h129l119 -875l422 875h121l-494 -1006h-133l-119 872zM958 1350l-253 -179l-56 76l320 226l245 -226l-65 -71z" glyph-name="wcircumflex" horiz-adv-x="1589" unicode="ŵ"/><glyph d="M332 1434l364 -787l643 787h144l-744 -906l-90 -528h-110l92 528l-422 906h123zM913 1745l-254 -178l-55 75l320 226l245 -226l-65 -71z" glyph-name="Ycircumflex" horiz-adv-x="1361" unicode="Ŷ"/><glyph d="M-27 -414l-30 99q49 10 84.5 22t101.5 44t134.5 97.5t133.5 159.5l-247 998h112l211 -877l520 877h127l-571 -951q-84 -139 -170 -234t-166 -141.5t-130.5 -65t-109.5 -28.5zM707 1350l-254 -179l-56 76l320 226l246 -226l-66 -71z" glyph-name="ycircumflex" horiz-adv-x="1085" unicode="ŷ"/><glyph d="M332 1434l364 -787l643 787h144l-744 -906l-90 -528h-110l92 528l-422 906h123zM639 1673q0 41 27.5 67.5t66.5 26.5q33 0 56.5 -22.5t23.5 -54.5q0 -41 -27.5 -68t-66.5 -27q-33 0 -56.5 22.5t-23.5 55.5zM989 1673q0 41 27.5 67.5t66.5 26.5q33 0 56.5 -22.5 t23.5 -54.5q0 -41 -27.5 -68t-66.5 -27q-33 0 -56.5 22.5t-23.5 55.5z" glyph-name="Ydieresis" horiz-adv-x="1361" unicode="Ÿ"/><glyph d="M254 1329l18 105h1026l-16 -91l-1116 -1239h897l-19 -104h-1050l14 90l1118 1239h-872zM788 1556l-79 52l292 313l78 -76z" glyph-name="Zacute" horiz-adv-x="1228" unicode="Ź"/><glyph d="M172 905l18 101h762l-16 -80l-752 -826h609l-19 -100h-762l15 80l749 825h-604zM573 1161l-79 51l292 314l78 -76z" glyph-name="zacute" horiz-adv-x="964" unicode="ź"/><glyph d="M254 1329l18 105h1026l-16 -91l-1116 -1239h897l-19 -104h-1050l14 90l1118 1239h-872zM756 1673q0 41 27.5 67.5t66.5 26.5q33 0 56.5 -22.5t23.5 -54.5q0 -41 -28 -68t-66 -27q-33 0 -56.5 22.5t-23.5 55.5z" glyph-name="Zdotaccent" horiz-adv-x="1228" unicode="Ż"/><glyph d="M172 905l18 101h762l-16 -80l-752 -826h609l-19 -100h-762l15 80l749 825h-604zM539 1278q0 41 27.5 67.5t66.5 26.5q33 0 56.5 -22.5t23.5 -55.5q0 -41 -28 -67.5t-67 -26.5q-33 0 -56 22.5t-23 55.5z" glyph-name="zdotaccent" horiz-adv-x="964" unicode="ż"/><glyph d="M254 1329l18 105h1026l-16 -91l-1116 -1239h897l-19 -104h-1050l14 90l1118 1239h-872zM825 1681l254 179l56 -76l-320 -225l-246 225l66 71z" glyph-name="Zcaron" horiz-adv-x="1228" unicode="Ž"/><glyph d="M172 905l18 101h762l-16 -80l-752 -826h609l-19 -100h-762l15 80l749 825h-604zM610 1286l254 178l56 -75l-320 -226l-246 226l66 71z" glyph-name="zcaron" horiz-adv-x="964" unicode="ž"/><glyph d="M164 784l24 103h189l65 250q80 315 332 315q135 0 240 -78l-58 -84q-80 59 -178 60q-80 0 -138 -47.5t-93 -180.5l-62 -235h369l-27 -103h-368l-223 -864q-84 -317 -330 -317q-119 0 -217 65l53 86q70 -49 160 -49q170 0 229 229l219 850h-186z" glyph-name="florin" horiz-adv-x="913" unicode="ƒ"/><glyph d="M1636 1556l-80 52l293 313l78 -76zM1139 1434h942l-19 -105h-813l-98 -557h668l-21 -106h-665l-99 -562h815l-20 -104h-922l64 365h-598l-305 -365h-140zM461 469h528l139 797z" glyph-name="AEacute" horiz-adv-x="2027" unicode="Ǽ"/><glyph d="M1806 217l60 -82q-160 -154 -391 -153q-172 0 -282 88t-144 233l-54 -303h-98l31 184q-150 -203 -385 -202q-195 0 -308.5 128t-113.5 320q0 236 147.5 416t372.5 180q145 0 245.5 -73.5t141.5 -196.5l45 250h98l-41 -228q76 119 196 183.5t259 64.5q164 0 262.5 -77 t98.5 -193q0 -147 -160 -244.5t-481 -97.5h-177q8 -143 98.5 -237.5t250.5 -94.5q188 0 329 135zM565 84q178 0 300 143.5t122 335.5q0 156 -90 258.5t-244 102.5q-178 0 -300 -145.5t-122 -336.5q0 -154 89 -256t245 -102zM1139 541l-6 -33h170q270 0 401 68.5t131 175.5 q0 76 -67.5 124t-180.5 48q-166 0 -290.5 -102.5t-157.5 -280.5zM1153 1161l-80 51l293 314l78 -76z" glyph-name="aeacute" horiz-adv-x="2037" unicode="ǽ"/><glyph d="M1008 1556l-80 52l293 313l77 -76zM170 633q0 336 222 577.5t542 241.5q272 0 448 -172l158 154h131l-227 -224q129 -174 129 -411q0 -350 -230.5 -583.5t-533.5 -233.5q-272 0 -447 168l-153 -150h-131l223 219q-131 172 -131 414zM930 1348q-266 0 -457.5 -210 t-191.5 -499q0 -193 102 -340l920 901q-148 148 -373 148zM813 86q270 0 459.5 215t189.5 494q0 193 -100 335l-920 -901q148 -143 371 -143z" glyph-name="Oslashacute" horiz-adv-x="1669" unicode="Ǿ"/><glyph d="M119 442q0 231 157.5 407.5t391.5 176.5q184 0 307 -113l92 93h119l-154 -154q90 -121 90 -291q0 -231 -155.5 -405t-391.5 -174q-182 0 -305 106l-88 -88h-119l150 150q-94 126 -94 292zM664 924q-182 0 -307.5 -143.5t-125.5 -338.5q0 -121 60 -215l608 611 q-92 86 -235 86zM582 82q180 0 305 143.5t125 335.5q0 119 -58 211l-608 -608q93 -82 236 -82zM721 1161l-80 51l293 314l78 -76z" glyph-name="oslashacute" horiz-adv-x="1245" unicode="ǿ"/><glyph d="M102 387l111 21q-2 -23 -2 -35q0 -145 125 -217t311 -72q156 0 265.5 67.5t109.5 192.5q0 59 -25.5 107.5t-86 89.5t-107.5 65.5t-144 65.5q-98 43 -153 72.5t-123 81t-99.5 116t-31.5 145.5q0 170 135 267.5t342 97.5q231 0 367.5 -110.5t136.5 -313.5v-10h-111v8 q0 160 -107.5 241t-293.5 81q-164 0 -260 -74t-96 -187q0 -59 25.5 -106t82.5 -87t105.5 -64.5t138.5 -65.5q86 -39 131 -60.5t109.5 -62.5t97 -79t57.5 -94t25 -122q0 -170 -138.5 -267t-357.5 -97q-227 0 -384 97t-157 275q0 13 2 33zM473 -555l-47 47q113 113 127 203 q-37 -14 -67.5 7.5t-30.5 58t25.5 61t62.5 24.5t63.5 -27.5t26.5 -80.5q0 -59 -41 -142t-119 -151z" glyph-name="Scommaaccent" horiz-adv-x="1292" unicode="Ș"/><glyph d="M74 260l108 25v-6q0 -100 86 -150.5t209 -50.5q131 0 204 45t73 123q0 18 -5.5 35.5t-11.5 31t-20.5 27.5t-23.5 23.5t-30.5 20.5t-31.5 17.5t-37 17.5t-37 14t-39 14.5t-37 13.5q-152 55 -229.5 117.5t-77.5 171.5q0 133 110.5 204.5t266.5 71.5q172 0 274.5 -77 t102.5 -218v-2h-109v4q0 98 -74.5 146.5t-191.5 48.5t-192.5 -43t-75.5 -131q0 -76 59 -116t209 -93q154 -55 232.5 -116.5t78.5 -174.5q0 -127 -104.5 -199.5t-276.5 -72.5q-182 0 -295.5 75.5t-113.5 202.5zM334 -555l-47 47q113 113 127 203q-37 -14 -68 7.5t-31 58 t26 61t62.5 24.5t63.5 -27.5t27 -80.5q0 -59 -41 -142t-119 -151z" glyph-name="scommaaccent" horiz-adv-x="1026" unicode="ș"/><glyph d="M201 1329l20 105h1098l-19 -105h-493l-234 -1329h-108l233 1329h-497zM422 -555l-47 47q113 113 127 203q-37 -14 -68 7.5t-31 58t26 61t62.5 24.5t63.5 -27.5t27 -80.5q0 -59 -41 -142t-119 -151z" glyph-name="uni021A" horiz-adv-x="1214" unicode="Ț"/><glyph d="M113 905l18 101h188l58 323l117 43l-66 -366h387l-18 -101h-385l-101 -567q-10 -57 -10 -90q0 -90 44 -128t128 -38q82 0 170 43l29 -92q-102 -51 -209 -51q-268 0 -268 258q0 43 10 108l98 557h-190zM287 -555l-47 47q113 113 127 203q-37 -14 -68 7.5t-31 58t25.5 61 t62.5 24.5t63.5 -27.5t26.5 -80.5q0 -59 -40.5 -142t-118.5 -151z" glyph-name="uni021B" horiz-adv-x="780" unicode="ț"/><glyph d="M612 1745l-254 -178l-55 75l320 226l245 -226l-65 -71z" glyph-name="circumflex" horiz-adv-x="618" unicode="ˆ"/><glyph d="M582 1681l254 179l55 -76l-320 -225l-245 225l65 71z" glyph-name="caron" horiz-adv-x="618" unicode="ˇ"/><glyph d="M838 1837l84 -41q-123 -223 -326 -223q-106 0 -182 62.5t-107 160.5l92 41q25 -78 76 -123t125 -45q146 0 238 168z" glyph-name="breve" horiz-adv-x="630" unicode="˘"/><glyph d="M289 1673q0 41 27.5 67.5t66.5 26.5q33 0 56.5 -22.5t23.5 -54.5q0 -41 -27.5 -68t-66.5 -27q-33 0 -56.5 22.5t-23.5 55.5z" glyph-name="dotaccent" horiz-adv-x="165" unicode="˙"/><glyph d="M297 1731q0 94 68.5 166.5t164.5 72.5q90 0 146.5 -59.5t56.5 -143.5q0 -94 -68.5 -166.5t-164.5 -72.5q-90 0 -146.5 59.5t-56.5 143.5zM526.5 1886q-57.5 0 -102.5 -44t-45 -107q0 -53 33.5 -88t91 -35t102.5 44t45 107q0 53 -33.5 88t-91 35z" glyph-name="ring" horiz-adv-x="350" unicode="˚"/><glyph d="M207 35l63 -35q-66 -55 -100.5 -86t-83.5 -100.5t-49 -122.5q0 -84 106 -84q25 0 50 6l4 -94q-33 -8 -66 -8q-92 0 -143 41.5t-51 115.5q0 94 70.5 178.5t199.5 188.5z" glyph-name="ogonek" horiz-adv-x="299" unicode="˛"/><glyph d="M379 1608h-98q16 115 71.5 193.5t153.5 78.5q59 0 95 -28.5t71 -82.5q2 -4 10 -16t10 -16t9.5 -13.5t10.5 -13.5t10 -11t12 -9t12.5 -6.5t14.5 -5.5t15 -1q86 0 121 178h98q-16 -113 -70.5 -191.5t-152.5 -78.5q-57 0 -95 27.5t-73 81.5q-4 6 -12 19t-12.5 19.5 t-12.5 16.5t-14 15t-14.5 11.5t-18.5 8.5t-20 2q-88 0 -121 -178z" glyph-name="tilde" horiz-adv-x="694" unicode="˜"/><glyph d="M344 1556l-78 46l293 319l76 -70zM741 1556l-77 46l292 319l76 -70z" glyph-name="hungarumlaut" horiz-adv-x="729" unicode="˝"/><glyph d="M1432 104l-17 -104h-528l18 104q238 43 395.5 240t157.5 447q0 233 -143.5 395t-378.5 162q-260 0 -454.5 -210t-194.5 -493q0 -182 94 -328.5t248 -212.5l-19 -104h-526l16 104h328q-119 92 -185.5 233.5t-66.5 307.5q0 336 230.5 571.5t533.5 235.5q283 0 458 -191.5 t175 -463.5q0 -207 -105.5 -396.5t-289.5 -296.5h254z" glyph-name="Omega" horiz-adv-x="1685" unicode="Ω"/><glyph d="M1221 1006l-19 -101h-166l-159 -905h-109l160 905h-502l-160 -905h-106l157 905h-165l18 101h1051z" glyph-name="pi" horiz-adv-x="1214" unicode="π"/><glyph d="M549 0h-131l-174 1434h112l154 -1274l610 1274h123l154 -1272l600 1272h125l-680 -1434h-129l-156 1268zM1352 1595l-88 -36l-189 301l94 61z" glyph-name="Wgrave" horiz-adv-x="2031" unicode="Ẁ"/><glyph d="M428 0h-135l-137 1006h110l115 -883l436 883h129l119 -875l422 875h121l-494 -1006h-133l-119 872zM1049 1200l-88 -37l-189 301l94 62z" glyph-name="wgrave" horiz-adv-x="1589" unicode="ẁ"/><glyph d="M549 0h-131l-174 1434h112l154 -1274l610 1274h123l154 -1272l600 1272h125l-680 -1434h-129l-156 1268zM1196 1556l-80 52l293 313l78 -76z" glyph-name="Wacute" horiz-adv-x="2031" unicode="Ẃ"/><glyph d="M428 0h-135l-137 1006h110l115 -883l436 883h129l119 -875l422 875h121l-494 -1006h-133l-119 872zM895 1161l-80 51l293 314l78 -76z" glyph-name="wacute" horiz-adv-x="1589" unicode="ẃ"/><glyph d="M549 0h-131l-174 1434h112l154 -1274l610 1274h123l154 -1272l600 1272h125l-680 -1434h-129l-156 1268zM985 1673q0 41 27.5 67.5t66.5 26.5q33 0 56.5 -22.5t23.5 -54.5q0 -41 -27.5 -68t-66.5 -27q-33 0 -56.5 22.5t-23.5 55.5zM1335 1673q0 41 28 67.5t67 26.5 q33 0 56 -22.5t23 -54.5q0 -41 -27.5 -68t-66.5 -27q-33 0 -56.5 22.5t-23.5 55.5z" glyph-name="Wdieresis" horiz-adv-x="2031" unicode="Ẅ"/><glyph d="M428 0h-135l-137 1006h110l115 -883l436 883h129l119 -875l422 875h121l-494 -1006h-133l-119 872zM684 1278q0 41 27.5 67.5t66.5 26.5q33 0 56.5 -22.5t23.5 -55.5q0 -41 -27.5 -67.5t-66.5 -26.5q-33 0 -56.5 22.5t-23.5 55.5zM1034 1278q0 41 28 67.5t66 26.5 q33 0 56.5 -22.5t23.5 -55.5q0 -41 -27.5 -67.5t-66.5 -26.5q-33 0 -56.5 22.5t-23.5 55.5z" glyph-name="wdieresis" horiz-adv-x="1589" unicode="ẅ"/><glyph d="M502 188l71 82q203 -184 441 -184q182 0 279.5 104.5t97.5 249.5q0 127 -92.5 205t-262.5 80q-41 0 -88 -10l-30 80l516 401q-274 160 -543 160q-209 0 -332 -106.5t-158 -303.5l-165 -946h-109l170 965q39 229 190.5 362t401.5 133q184 0 363.5 -66.5t303.5 -144.5 l-16 -98l-424 -332q176 -8 280.5 -111.5t104.5 -263.5q0 -199 -134 -330.5t-353 -131.5q-283 -1 -512 206z" glyph-name="uni1E9E" horiz-adv-x="1634" unicode="ẞ"/><glyph d="M332 1434l364 -787l643 787h144l-744 -906l-90 -528h-110l92 528l-422 906h123zM1008 1595l-88 -36l-189 301l94 61z" glyph-name="Ygrave" horiz-adv-x="1361" unicode="Ỳ"/><glyph d="M-27 -414l-30 99q49 10 84.5 22t101.5 44t134.5 97.5t133.5 159.5l-247 998h112l211 -877l520 877h127l-571 -951q-84 -139 -170 -234t-166 -141.5t-130.5 -65t-109.5 -28.5zM797 1200l-88 -37l-189 301l94 62z" glyph-name="ygrave" horiz-adv-x="1085" unicode="ỳ"/><glyph d="M985 649l-18 -102h-793l16 102h795z" glyph-name="endash" horiz-adv-x="1130" unicode="–"/><glyph d="M1257 649l-18 -102h-1065l16 102h1067z" glyph-name="emdash" horiz-adv-x="1402" unicode="—"/><glyph d="M444 1470l56 -57q-76 -66 -120 -143.5t-46 -139.5q45 20 81 -4t36 -67q0 -41 -31 -69.5t-72 -28.5q-45 0 -75.5 34.5t-30.5 100.5q0 94 57 197t145 177z" glyph-name="quoteleft" horiz-adv-x="497" unicode="‘"/><glyph d="M293 946l-55 58q76 66 119.5 143.5t45.5 138.5q-45 -20 -80.5 4.5t-35.5 67.5q0 41 30.5 69.5t71.5 28.5q45 0 76 -35t31 -100q0 -94 -57.5 -197.5t-145.5 -177.5z" glyph-name="quoteright" horiz-adv-x="489" unicode="’"/><glyph d="M55 -350l-55 57q76 66 120 143.5t46 139.5q-45 -20 -81 4t-36 67q0 41 31 70t72 29q45 0 75.5 -35t30.5 -100q0 -94 -57.5 -197.5t-145.5 -177.5z" glyph-name="quotesinglbase" horiz-adv-x="458" unicode="‚"/><glyph d="M444 1470l56 -57q-76 -66 -120 -143.5t-46 -139.5q45 20 81 -4t36 -67q0 -41 -31 -69.5t-72 -28.5q-45 0 -75.5 34.5t-30.5 100.5q0 94 57 197t145 177zM793 1470l55 -57q-76 -66 -120 -143.5t-46 -139.5q45 20 81 -4t36 -67q0 -41 -31 -69.5t-72 -28.5q-45 0 -75.5 34.5 t-30.5 100.5q0 94 57.5 197t145.5 177z" glyph-name="quotedblleft" horiz-adv-x="845" unicode="“"/><glyph d="M293 946l-55 58q76 66 119.5 143.5t45.5 138.5q-45 -20 -80.5 4.5t-35.5 67.5q0 41 30.5 69.5t71.5 28.5q45 0 76 -35t31 -100q0 -94 -57.5 -197.5t-145.5 -177.5zM639 946l-55 58q76 66 120 143.5t46 138.5q-45 -20 -81 4.5t-36 67.5q0 41 30.5 69.5t71.5 28.5 q45 0 76 -35t31 -100q0 -94 -57.5 -197.5t-145.5 -177.5z" glyph-name="quotedblright" horiz-adv-x="837" unicode="”"/><glyph d="M55 -350l-55 57q76 66 120 143.5t46 139.5q-45 -20 -81 4t-36 67q0 41 31 70t72 29q45 0 75.5 -35t30.5 -100q0 -94 -57.5 -197.5t-145.5 -177.5zM406 -350l-56 57q76 66 120 143.5t46 139.5q-45 -20 -81 4t-36 67q0 41 31 70t72 29q45 0 75.5 -35t30.5 -100 q0 -94 -57 -197.5t-145 -177.5z" glyph-name="quotedblbase" horiz-adv-x="806" unicode="„"/><glyph d="M899 1040l-16 -102h-289l-164 -938h-102l166 938h-289l18 102h287l70 394h102l-70 -394h287z" glyph-name="dagger" horiz-adv-x="935" unicode="†"/><glyph d="M901 1040l-18 -102h-287l-78 -442h287l-19 -103h-284l-72 -393h-102l71 393h-288l18 103h287l78 442h-287l18 102h287l70 394h102l-70 -394h287z" glyph-name="daggerdbl" horiz-adv-x="935" unicode="‡"/><glyph d="M207 580q0 86 63.5 152.5t153.5 66.5q80 0 130 -53.5t50 -127.5q0 -86 -63.5 -152.5t-153.5 -66.5q-80 0 -130 53.5t-50 127.5z" glyph-name="bullet" horiz-adv-x="780" unicode="•"/><glyph d="M82 59q0 41 28.5 68t67.5 27q33 0 56.5 -22.5t23.5 -55.5q0 -41 -28.5 -67.5t-67.5 -26.5q-33 0 -56.5 22t-23.5 55zM463 59q0 41 28.5 68t67.5 27q33 0 55.5 -22.5t22.5 -55.5q0 -41 -27.5 -67.5t-66.5 -26.5q-33 0 -56.5 22t-23.5 55zM844 59q0 41 28.5 68t67.5 27 q33 0 55.5 -22.5t22.5 -55.5q0 -41 -27.5 -67.5t-66.5 -26.5q-35 0 -57.5 22t-22.5 55z" glyph-name="ellipsis" horiz-adv-x="1236" unicode="…"/><glyph d="M289 0h-131l1284 1434h129zM197 1102q0 139 100 244.5t244 105.5q133 0 216 -87t83 -210q0 -139 -100.5 -244.5t-243.5 -105.5q-133 0 -216 87t-83 210zM539 1354q-98 0 -170 -74t-72 -174q0 -86 55.5 -144.5t147.5 -58.5q98 0 168.5 74t70.5 174q0 86 -55 144.5 t-145 58.5zM891 279q0 139 100.5 244.5t243.5 105.5q133 0 216 -87t83 -210q0 -139 -100.5 -244.5t-243.5 -105.5q-133 0 -216 87t-83 210zM1233 530q-98 0 -170 -73.5t-72 -173.5q0 -86 55.5 -144.5t147.5 -58.5q98 0 169 73.5t71 174.5q0 86 -55.5 144t-145.5 58z M1659 279q0 139 100.5 244.5t243.5 105.5q133 0 216 -87t83 -210q0 -139 -100.5 -244.5t-243.5 -105.5q-133 0 -216 87t-83 210zM2001 530q-98 0 -170 -73.5t-72 -173.5q0 -86 55.5 -144.5t147.5 -58.5q98 0 169 73.5t71 174.5q0 86 -55.5 144t-145.5 58z" glyph-name="perthousand" horiz-adv-x="2404" unicode="‰"/><glyph d="M240 508l180 -320l-88 -55l-223 387l360 389l72 -69z" glyph-name="guilsinglleft" horiz-adv-x="618" unicode="‹"/><glyph d="M385 535l-180 319l88 55l223 -387l-360 -389l-72 70z" glyph-name="guilsinglright" horiz-adv-x="618" unicode="›"/><glyph d="M-332 0h-106l1155 1434h108z" glyph-name="fraction" horiz-adv-x="317" unicode="⁄"/><glyph d="M184 940q0 193 100.5 348.5t256.5 155.5q127 0 192.5 -90t65.5 -230q0 -193 -100.5 -348t-256.5 -155q-127 0 -192.5 90t-65.5 229zM539 1354q-109 0 -183.5 -125t-74.5 -287q0 -104 40.5 -167.5t122.5 -63.5q109 0 183.5 125t74.5 286q0 104 -40.5 168t-122.5 64z" glyph-name="uni2070" horiz-adv-x="796" unicode="⁰"/><glyph d="M563 631h-92l29 172h-375l12 65l305 566h107l-297 -541h264l49 278l99 25l-54 -303h121l-16 -90h-121z" glyph-name="uni2074" horiz-adv-x="729" unicode="⁴"/><glyph d="M303 1434h416l-14 -91h-326l-43 -233h33q150 0 225.5 -68.5t75.5 -169.5q0 -94 -64.5 -172.5t-208.5 -78.5q-154 0 -278 98l57 72q115 -80 223 -80q90 0 133 47t43 110q0 66 -55 111t-176 45h-115z" glyph-name="uni2075" horiz-adv-x="692" unicode="⁵"/><glyph d="M674 1434l-244 -267q18 4 37 4q106 0 174 -68.5t68 -170.5q0 -125 -86 -218t-211 -93q-119 0 -187.5 75.5t-68.5 177.5q0 123 120 250l283 310h115zM315 1028q-61 -61 -61 -149q0 -70 43 -119t117 -49q82 0 140 64.5t58 150.5q0 70 -43 118t-116 48q-81 -1 -138 -64z" glyph-name="uni2076" horiz-adv-x="712" unicode="⁶"/><glyph d="M211 1343l16 91h486l-13 -72l-448 -731h-109l441 712h-373z" glyph-name="uni2077" horiz-adv-x="614" unicode="⁷"/><glyph d="M717 870q0 -106 -78 -177.5t-207 -71.5q-123 0 -199.5 62t-76.5 157q0 82 49 145.5t133 85.5q-82 53 -82 145.5t68.5 160t183.5 67.5q113 0 179.5 -55.5t66.5 -141.5q0 -152 -146 -203q109 -57 109 -174zM428 705q96 0 144.5 49t48.5 116q0 63 -46.5 102.5t-128.5 39.5 q-94 0 -144 -50.5t-50 -121.5q0 -57 48 -96t128 -39zM494 1094q78 0 121.5 46t43.5 103q0 51 -38.5 85t-112.5 34q-70 0 -114 -43t-44 -102q0 -51 40.5 -87t103.5 -36z" glyph-name="uni2078" horiz-adv-x="749" unicode="⁸"/><glyph d="M225 631l244 266q-18 -4 -37 -4q-106 0 -174 68.5t-68 171.5q0 125 86 218t211 93q119 0 187.5 -76t68.5 -178q0 -123 -120 -250l-283 -309h-115zM584 1036q61 61 61 150q0 70 -43 119t-117 49q-82 0 -140 -64.5t-58 -150.5q0 -70 43 -118t116 -48q81 0 138 63z" glyph-name="uni2079" horiz-adv-x="712" unicode="⁹"/><glyph d="M10 -53q0 193 100.5 348.5t256.5 155.5q127 0 192.5 -90.5t65.5 -229.5q0 -193 -100.5 -348.5t-256.5 -155.5q-127 0 -192.5 90.5t-65.5 229.5zM365 360q-109 0 -184 -124.5t-75 -286.5q0 -104 41 -168t123 -64q109 0 183.5 125t74.5 287q0 104 -40.5 167.5t-122.5 63.5z " glyph-name="uni2080" horiz-adv-x="796" unicode="₀"/><glyph d="M70 -362l118 679l-168 -86l19 109l192 100h72l-141 -802h-92z" glyph-name="uni2081" horiz-adv-x="464" unicode="₁"/><glyph d="M473 -272l-16 -90h-512l12 69q264 188 383 307q119 123 119 217q0 57 -38 93t-104 36q-61 0 -115.5 -39.5t-66.5 -142.5h-92q8 80 39 137.5t75 85t83 39t79 11.5q104 0 170 -59.5t66 -151.5q0 -137 -152 -289q-90 -90 -268 -223h338z" glyph-name="uni2082" horiz-adv-x="702" unicode="₂"/><glyph d="M-53 -274l57 71q119 -80 227 -80q90 0 129 42t39 96q0 63 -60 106t-165 45l14 82q125 -6 190.5 43t65.5 119q0 49 -39.5 83t-97 34t-103.5 -29t-52 -94h-93q6 104 83 155.5t171 51.5q96 0 162 -54.5t66 -138.5q0 -78 -49.5 -135t-131.5 -82q137 -55 138 -182 q0 -90 -63.5 -161t-205.5 -71q-155 1 -282 99z" glyph-name="uni2083" horiz-adv-x="708" unicode="₃"/><glyph d="M389 -362h-92l29 172h-375l12 65l305 565h107l-297 -540h264l49 278l98 25l-53 -303h121l-16 -90h-121z" glyph-name="uni2084" horiz-adv-x="729" unicode="₄"/><glyph d="M129 440h416l-15 -90h-325l-43 -233h33q150 0 225.5 -68.5t75.5 -169.5q0 -94 -64.5 -173t-208.5 -79q-154 0 -278 99l57 71q115 -80 223 -80q90 0 133 47.5t43 110.5q0 66 -55 111t-176 45h-115z" glyph-name="uni2085" horiz-adv-x="692" unicode="₅"/><glyph d="M500 440l-244 -266q18 4 37 4q106 0 174 -68.5t68 -170.5q0 -125 -86.5 -218.5t-210.5 -93.5q-119 0 -187.5 76t-68.5 178q0 123 120 250l283 309h115zM141 35q-61 -61 -61 -150q0 -70 43 -119t117 -49q82 0 140 64.5t58 150.5q0 70 -43 118t-116 48q-81 0 -138 -63z" glyph-name="uni2086" horiz-adv-x="712" unicode="₆"/><glyph d="M37 350l16 90h486l-13 -71l-448 -731h-109l441 712h-373z" glyph-name="uni2087" horiz-adv-x="614" unicode="₇"/><glyph d="M543 -123q0 -106 -78 -178t-207 -72q-123 0 -199.5 62.5t-76.5 156.5q0 82 49 145.5t133 86.5q-82 53 -82 145t68.5 160t183.5 68q113 0 179.5 -55.5t66.5 -141.5q0 -152 -146 -203q109 -57 109 -174zM254 -289q96 0 144 49.5t48 116.5q0 63 -46 102t-128 39 q-94 0 -144 -50t-50 -122q0 -57 48 -96t128 -39zM319 100q78 0 122 46.5t44 103.5q0 51 -38.5 85t-112.5 34q-70 0 -114 -43t-44 -103q0 -51 40 -87t103 -36z" glyph-name="uni2088" horiz-adv-x="749" unicode="₈"/><glyph d="M49 -362l244 266q-18 -4 -37 -4q-106 0 -174 68.5t-68 170.5q0 125 86 218.5t211 93.5q119 0 187.5 -76t68.5 -178q0 -123 -121 -250l-282 -309h-115zM408 43q61 61 61 150q0 70 -43 118.5t-117 48.5q-82 0 -140 -64.5t-58 -150.5q0 -70 43 -117.5t116 -47.5q81 0 138 63 z" glyph-name="uni2089" horiz-adv-x="712" unicode="₉"/><glyph d="M160 715l20 110l182 56l99 553h110l-92 -519l608 183l-18 -113l-610 -182l-31 -176l610 180l-20 -111l-610 -182l-72 -410h266q158 0 265.5 87.5t146.5 234.5l106 -18q-121 -408 -526 -408h-385l84 479l-184 -55l18 113l184 55l33 176z" glyph-name="lira" horiz-adv-x="1224" unicode="₤"/><glyph d="M561 0h-141l-12 541h-291l18 106h271l-5 164h-237l18 104h217l-12 519h113l24 -1250l461 1250h135l17 -1239l465 1239h116l-196 -519h219l-19 -104h-239l-62 -164h271l-19 -106h-291l-202 -541h-144l-16 1231z" glyph-name="uni20A9" horiz-adv-x="1781" unicode="₩"/><glyph d="M1239 199l64 -82q-193 -135 -400 -135q-240 0 -398.5 139t-199.5 362h-201l19 101h172v41q0 106 29 225h-154l16 98h168q90 233 277.5 368.5t406.5 135.5q283 0 461 -211l-86 -65q-152 172 -379 172q-176 0 -328.5 -106.5t-232.5 -293.5h832l-43 -98h-824 q-33 -111 -32 -240v-26h753l-43 -101h-696q39 -178 167 -287.5t320 -109.5q172 0 332 113z" glyph-name="Euro" horiz-adv-x="1490" unicode="€"/><glyph d="M242 942l18 105h485q-10 121 -99 201.5t-257 80.5h-80l21 105h813l-47 -105h-387q139 -100 149 -282h217l-47 -105h-174q-33 -195 -167 -311.5t-333 -118.5h-28l428 -512h-138l-446 528l16 88h154q160 0 267.5 89.5t131.5 236.5h-497z" glyph-name="uni20B9" horiz-adv-x="1079" unicode="₹"/><glyph d="M94 326l19 104h131l24 139h-133l21 105h131l133 760h356q231 0 348 -111t117 -279q0 -207 -139 -341t-350 -134h-375l-25 -139h428l-18 -104h-428l-58 -326h-108l57 326h-131zM395 674h357q164 0 270 105.5t106 256.5q0 127 -89 210t-269 83h-260z" glyph-name="uni20BD" horiz-adv-x="1243" unicode="₽"/><glyph d="M123 375l-41 90q156 88 186 108l107 611q29 170 108.5 252t186.5 82q96 0 156.5 -61.5t60.5 -170.5q0 -186 -144.5 -399t-373.5 -365l-29 -166q-10 -61 -10 -98q0 -176 143 -176q104 0 201 135l76 -63q-125 -172 -283 -172q-121 0 -182.5 73.5t-61.5 200.5q0 63 10 115 l13 73zM485 1186l-92 -522q172 125 281.5 298t109.5 312q0 66 -30.5 103.5t-89.5 37.5q-138 0 -179 -229z" glyph-name="afii61289" horiz-adv-x="884" unicode="ℓ"/><glyph d="M1616 508l16 90h570l-17 -90h-569zM254 0h-109l252 1434h111l709 -1272l223 1272h108l-252 -1434h-110l-709 1270zM1659 1047q0 166 111.5 276.5t252.5 110.5q145 0 231.5 -91.5t86.5 -224.5q0 -166 -111.5 -276.5t-253.5 -110.5q-145 0 -231 92.5t-86 223.5zM2021 1343 q-100 0 -183 -83.5t-83 -210.5q0 -98 59.5 -163t163.5 -65q100 0 183.5 84t83.5 211q0 98 -60 162.5t-164 64.5z" glyph-name="afii61352" horiz-adv-x="2349" unicode="№"/><glyph d="M1255 918h-79l65 368l-217 -299h-59l-111 311l-66 -380h-79l90 516h84l123 -357l256 357h86zM233 1356l13 78h456l-14 -78h-188l-76 -438h-80l76 438h-187z" glyph-name="trademark" horiz-adv-x="1372" unicode="™"/><glyph d="M1530 694h-1149l-70 -395q76 -125 202 -196.5t285.5 -71.5t320.5 86t284 268l41 -29q-129 -193 -301 -283.5t-346 -90.5q-281 0 -457 197.5t-176 467.5q0 315 229.5 560t526.5 245q274 0 446 -191.5t172 -461.5q0 -35 -8 -105zM922 1403q-242 0 -449 -184l-82 -474h928 l70 398q-74 121 -193.5 190.5t-273.5 69.5z" glyph-name="estimated" horiz-adv-x="1603" unicode="℮"/><glyph d="M223 0h-106l1155 1434h108zM266 631l119 680l-168 -86l19 108l192 101h72l-142 -803h-92zM1466 240q0 -106 -77.5 -178t-206.5 -72q-123 0 -200 62.5t-77 156.5q0 82 49.5 145.5t132.5 85.5q-82 53 -81.5 145.5t69 160t182.5 67.5q113 0 179.5 -55.5t66.5 -141.5 q0 -152 -145 -202q108 -57 108 -174zM1178 74q96 0 144 49t48 117q0 63 -46 102t-128 39q-94 0 -144.5 -50t-50.5 -122q0 -57 48.5 -96t128.5 -39zM1243 463q78 0 122 46t44 103q0 51 -39 85t-113 34q-70 0 -113.5 -43t-43.5 -102q0 -51 40 -87t103 -36z" glyph-name="oneeighth" horiz-adv-x="1613" unicode="⅛"/><glyph d="M438 0h-106l1155 1434h108zM1681 240q0 -106 -77.5 -178t-206.5 -72q-123 0 -200 62.5t-77 156.5q0 82 49.5 145.5t133.5 85.5q-82 53 -82 145.5t68.5 160t183.5 67.5q113 0 179 -55.5t66 -141.5q0 -152 -145 -202q108 -57 108 -174zM1393 74q96 0 144 49t48 117 q0 63 -46 102t-128 39q-94 0 -144 -50t-50 -122q0 -57 48 -96t128 -39zM1458 463q78 0 122 46t44 103q0 51 -39 85t-112 34q-70 0 -114 -43t-44 -102q0 -51 40 -87t103 -36zM137 719l58 72q119 -80 227 -80q90 0 129 42t39 95q0 63 -60.5 106t-164.5 45l14 82 q125 -6 190.5 43.5t65.5 118.5q0 49 -40 83t-97.5 34t-103.5 -28.5t-52 -94.5h-92q6 104 83 155.5t171 51.5q96 0 161.5 -54.5t65.5 -138.5q0 -78 -49 -135t-131 -82q137 -55 137 -182q0 -90 -63.5 -160.5t-204.5 -70.5q-156 0 -283 98z" glyph-name="threeeighths" horiz-adv-x="1828" unicode="⅜"/><glyph d="M414 0h-107l1155 1434h109zM319 1434h416l-14 -91h-326l-43 -233h33q150 0 225.5 -68.5t75.5 -169.5q0 -94 -64.5 -172.5t-207.5 -78.5q-154 0 -279 98l58 72q115 -80 223 -80q90 0 133 47t43 110q0 66 -55.5 111t-176.5 45h-114zM1657 240q0 -106 -78 -178t-207 -72 q-123 0 -199.5 62.5t-76.5 156.5q0 82 49 145.5t133 85.5q-82 53 -82 145.5t68.5 160t183.5 67.5q113 0 179.5 -55.5t66.5 -141.5q0 -152 -146 -202q109 -57 109 -174zM1368 74q96 0 144.5 49t48.5 117q0 63 -46.5 102t-128.5 39q-94 0 -144 -50t-50 -122q0 -57 48 -96 t128 -39zM1434 463q78 0 121.5 46t43.5 103q0 51 -38.5 85t-112.5 34q-70 0 -114 -43t-44 -102q0 -51 40.5 -87t103.5 -36z" glyph-name="fiveeighths" horiz-adv-x="1804" unicode="⅝"/><glyph d="M223 0h-106l1155 1434h108zM1468 240q0 -106 -77.5 -178t-206.5 -72q-123 0 -200 62.5t-77 156.5q0 82 49.5 145.5t133.5 85.5q-82 53 -82 145.5t68.5 160t183.5 67.5q113 0 179 -55.5t66 -141.5q0 -152 -145 -202q108 -57 108 -174zM1180 74q96 0 144 49t48 117 q0 63 -46 102t-128 39q-94 0 -144 -50t-50 -122q0 -57 48 -96t128 -39zM1245 463q78 0 122 46t44 103q0 51 -39 85t-112 34q-70 0 -114 -43t-44 -102q0 -51 40 -87t103 -36zM233 1343l17 91h485l-12 -72l-449 -731h-108l440 712h-373z" glyph-name="seveneighths" horiz-adv-x="1615" unicode="⅞"/><glyph d="M647 51l-78 -63l-463 579l666 578l68 -76l-525 -453h957l-17 -100h-981z" glyph-name="arrowleft" horiz-adv-x="1359" unicode="←"/><glyph d="M150 532l-66 78l666 580l460 -580l-77 -65l-365 459l-176 -1004h-100l172 979z" glyph-name="arrowup" horiz-adv-x="1257" unicode="↑"/><glyph d="M735 1081l78 64l463 -578l-668 -579l-65 75l520 453h-954l18 100h981z" glyph-name="arrowright" horiz-adv-x="1359" unicode="→"/><glyph d="M1137 639l63 -80l-663 -579l-463 579l78 66l362 -459l178 1003h101l-175 -981z" glyph-name="arrowdown" horiz-adv-x="1255" unicode="↓"/><glyph d="M227 141h-102l154 865h839l-18 -101h-676l598 -753l-78 -64l-596 748z" glyph-name="uni2196" horiz-adv-x="1226" unicode="↖"/><glyph d="M266 905l17 101h841l-151 -865h-103l121 684l-844 -737l-67 76l848 741h-662z" glyph-name="uni2197" horiz-adv-x="1224" unicode="↗"/><glyph d="M999 864h103l-154 -864h-839l18 100h678l-600 754l78 64l594 -748z" glyph-name="uni2198" horiz-adv-x="1226" unicode="↘"/><glyph d="M1077 918l68 -76l-850 -742h663l-16 -100h-842l152 864h102l-123 -684z" glyph-name="uni2199" horiz-adv-x="1224" unicode="↙"/><glyph d="M594 1399l86 69q166 -168 283.5 -399t117.5 -467q0 -256 -147.5 -438t-382.5 -182q-195 0 -314.5 131t-119.5 317q0 217 148.5 374t352.5 157q209 0 326 -154q-76 313 -350 592zM625 862q-156 0 -277 -125t-121 -309q0 -145 89.5 -245.5t238.5 -100.5q127 0 223 75.5 t141.5 177t43.5 202.5q-2 137 -99.5 231t-238.5 94z" glyph-name="partialdiff" horiz-adv-x="1200" unicode="∂"/><glyph d="M858 1434l258 -1434h-1139l760 1434h121zM778 1284l-622 -1180h831z" glyph-name="uni2206" horiz-adv-x="1267" unicode="∆"/><glyph d="M1470 1434l-18 -105h-166l-233 -1329h-111l236 1329h-656l-235 -1329h-109l234 1329h-164l18 105h1204z" glyph-name="product" horiz-adv-x="1404" unicode="∏"/><glyph d="M-51 -238l16 93l793 749l-531 737l17 93h1026l-19 -103h-884l532 -741l-770 -727h864l-18 -101h-1026z" glyph-name="summation" horiz-adv-x="1198" unicode="∑"/><glyph d="M950 721l-18 -103h-737l16 103h739z" glyph-name="minus" horiz-adv-x="1091" unicode="−"/><glyph d="M313 610l144 -721l973 1545h124l-1054 -1672h-127l-150 744h-182l18 104h254z" glyph-name="radical" horiz-adv-x="1398" unicode="√"/><glyph d="M1307 1004q135 0 216 -86.5t81 -210.5q0 -160 -111 -261.5t-246 -101.5q-100 0 -185 60.5t-183 197.5q-152 -147 -237 -202.5t-181 -55.5q-135 0 -216 86t-81 211q0 160 110.5 261.5t245.5 101.5q100 0 185.5 -60.5t183.5 -198.5q152 147 237 203t181 56zM508 901 q-90 0 -165 -72.5t-75 -179.5q0 -86 56.5 -145.5t146.5 -59.5q76 0 138.5 45.5t207.5 186.5q-84 121 -155.5 173t-153.5 52zM1260 446q90 0 164.5 73t74.5 179q0 86 -56.5 145.5t-146.5 59.5q-76 0 -138 -45t-208 -186q84 -121 156 -173.5t154 -52.5z" glyph-name="infinity" horiz-adv-x="1714" unicode="∞"/><glyph d="M-143 -338l49 88q84 -49 166 -49q76 0 130 49t79 182l213 1203q55 317 305 317q133 0 241 -78l-49 -84q-88 59 -184 60q-76 0 -131 -49.5t-78 -182.5l-213 -1202q-55 -317 -307 -317q-119 0 -221 63z" glyph-name="integral" horiz-adv-x="892" unicode="∫"/><glyph d="M303 719l-84 53q115 166 252 166q66 0 152 -50t129 -50q84 0 168 112l84 -53q-117 -164 -256 -164q-66 0 -151 49t-128 49q-90 1 -166 -112zM246 393l-84 51q117 166 254 166q66 0 150.5 -50t127.5 -50q84 0 168 113l84 -52q-115 -166 -254 -165q-66 0 -151.5 50 t-128.5 50q-86 0 -166 -113z" glyph-name="approxequal" horiz-adv-x="1103" unicode="≈"/><glyph d="M236 844l18 100h477l146 186l75 -51l-106 -135h153l-18 -100h-213l-264 -340h420l-19 -103h-481l-143 -184l-76 51l102 133h-147l16 103h211l266 340h-417z" glyph-name="notequal" horiz-adv-x="1103" unicode="≠"/><glyph d="M238 793l16 100l809 358l-21 -118l-673 -295l569 -295l-18 -109zM891 276l-17 -102h-747l18 102h746z" glyph-name="lessequal" horiz-adv-x="1132" unicode="≤"/><glyph d="M1018 893l-17 -100l-808 -359l20 119l674 295l-570 295l19 108zM911 276l-18 -102h-746l17 102h747z" glyph-name="greaterequal" horiz-adv-x="1120" unicode="≥"/><glyph d="M135 647q0 332 237.5 569.5t549.5 237.5q305 0 489 -195.5t184 -472.5q0 -332 -237.5 -569t-548.5 -237q-305 0 -489.5 195.5t-184.5 471.5zM920 1350q-268 0 -471 -206t-203 -491q0 -238 153.5 -403.5t411.5 -165.5q268 0 471 206t203 490q0 238 -153.5 404t-411.5 166z M750 874l16 95l182 90h66l-121 -684h-84l100 577z" glyph-name="uni2460" horiz-adv-x="1654" unicode="①"/><glyph d="M135 647q0 332 237.5 569.5t549.5 237.5q305 0 489 -195.5t184 -472.5q0 -332 -237.5 -569t-548.5 -237q-305 0 -489.5 195.5t-184.5 471.5zM920 1350q-268 0 -471 -206t-203 -491q0 -238 153.5 -403.5t411.5 -165.5q268 0 471 206t203 490q0 238 -153.5 404t-411.5 166z M1073 483l-12 -82h-469l12 66q250 145 350.5 245.5t100.5 184.5q0 47 -32 82t-103 35q-61 0 -106.5 -39t-53.5 -119h-84q12 121 83.5 180.5t164.5 59.5q106 0 161.5 -58.5t55.5 -140.5q0 -102 -84 -196.5t-277 -217.5h293z" glyph-name="uni2461" horiz-adv-x="1654" unicode="②"/><glyph d="M135 647q0 332 237.5 569.5t549.5 237.5q305 0 489 -195.5t184 -472.5q0 -332 -237.5 -569t-548.5 -237q-305 0 -489.5 195.5t-184.5 471.5zM920 1350q-268 0 -471 -206t-203 -491q0 -238 153.5 -403.5t411.5 -165.5q268 0 471 206t203 490q0 238 -153.5 404t-411.5 166z M596 469l53 66q96 -68 201 -68q158 0 158 108q0 47 -56.5 86t-156.5 41l14 78q233 0 233 131q0 39 -33.5 68t-95.5 29q-51 0 -93 -26t-48 -77h-82q10 92 79 137t146 45q96 0 154.5 -51t58.5 -123q0 -137 -159 -180q125 -51 125 -160q0 -88 -69 -139t-177 -51q-135 0 -252 86 z" glyph-name="uni2462" horiz-adv-x="1654" unicode="③"/><glyph d="M135 647q0 332 237.5 569.5t549.5 237.5q305 0 489 -195.5t184 -472.5q0 -332 -237.5 -569t-548.5 -237q-305 0 -489.5 195.5t-184.5 471.5zM920 1350q-268 0 -471 -206t-203 -491q0 -238 153.5 -403.5t411.5 -165.5q268 0 471 206t203 490q0 238 -153.5 404t-411.5 166z M985 393h-86l25 146h-344l10 63l274 475h99l-267 -456h242l41 227l88 26l-43 -253h111l-15 -82h-110z" glyph-name="uni2463" horiz-adv-x="1654" unicode="④"/><glyph d="M135 647q0 332 237.5 569.5t549.5 237.5q305 0 489 -195.5t184 -472.5q0 -332 -237.5 -569t-548.5 -237q-305 0 -489.5 195.5t-184.5 471.5zM920 1350q-268 0 -471 -206t-203 -491q0 -238 153.5 -403.5t411.5 -165.5q268 0 471 206t203 490q0 238 -153.5 404t-411.5 166z M756 1059h377l-15 -82h-293l-34 -191h14q158 0 224.5 -64.5t66.5 -141.5q0 -92 -65.5 -153.5t-182.5 -61.5q-131 0 -252 86l53 65q100 -68 199 -67q63 0 101 24.5t47.5 49t9.5 48.5q0 133 -218 134h-96z" glyph-name="uni2464" horiz-adv-x="1654" unicode="⑤"/><glyph d="M135 647q0 332 237.5 569.5t549.5 237.5q305 0 489 -195.5t184 -472.5q0 -332 -237.5 -569t-548.5 -237q-305 0 -489.5 195.5t-184.5 471.5zM920 1350q-268 0 -471 -206t-203 -491q0 -238 153.5 -403.5t411.5 -165.5q268 0 471 206t203 490q0 238 -153.5 404t-411.5 166z M1067 1087l-215 -217q16 2 29 2q100 0 161.5 -67.5t61.5 -151.5q0 -104 -80 -182t-184 -78q-96 0 -167 64.5t-71 160.5q0 100 107 211l252 258h106zM868 799q-70 0 -126 -50.5t-56 -125.5q0 -63 45 -105.5t111 -42.5q72 0 125 53.5t53 120.5q0 57 -40 103.5t-112 46.5z" glyph-name="uni2465" horiz-adv-x="1654" unicode="⑥"/><glyph d="M135 647q0 332 237.5 569.5t549.5 237.5q305 0 489 -195.5t184 -472.5q0 -332 -237.5 -569t-548.5 -237q-305 0 -489.5 195.5t-184.5 471.5zM920 1350q-268 0 -471 -206t-203 -491q0 -238 153.5 -403.5t411.5 -165.5q268 0 471 206t203 490q0 238 -153.5 404t-411.5 166z M725 969l14 82h449l-12 -68l-402 -616h-100l395 602h-344z" glyph-name="uni2466" horiz-adv-x="1654" unicode="⑦"/><glyph d="M135 647q0 332 237.5 569.5t549.5 237.5q305 0 489 -195.5t184 -472.5q0 -332 -237.5 -569t-548.5 -237q-305 0 -489.5 195.5t-184.5 471.5zM920 1350q-268 0 -471 -206t-203 -491q0 -238 153.5 -403.5t411.5 -165.5q268 0 471 206t203 490q0 238 -153.5 404t-411.5 166z M1112 588q0 -96 -74.5 -155.5t-181.5 -59.5q-123 0 -189.5 56t-66.5 136q0 147 148 195q-68 43 -68 121q0 86 66.5 141t162.5 55q109 0 169.5 -51t60.5 -123q0 -55 -32 -101t-87 -67q92 -51 92 -147zM1026 586q0 51 -45 88t-131 37q-61 0 -112.5 -38t-51.5 -104 q0 -47 42 -82.5t130 -35.5q68 0 118 37t50 98zM1055 901q0 39 -35 69.5t-113 30.5q-55 0 -99 -30.5t-44 -83.5q0 -45 37 -76t114 -31q61 0 100.5 34t39.5 87z" glyph-name="uni2467" horiz-adv-x="1654" unicode="⑧"/><glyph d="M135 647q0 332 237.5 569.5t549.5 237.5q305 0 489 -195.5t184 -472.5q0 -332 -237.5 -569t-548.5 -237q-305 0 -489.5 195.5t-184.5 471.5zM920 1350q-268 0 -471 -206t-203 -491q0 -238 153.5 -403.5t411.5 -165.5q268 0 471 206t203 490q0 238 -153.5 404t-411.5 166z M694 375l215 217q-16 -2 -28 -2q-100 0 -162 67.5t-62 151.5q0 104 80 182t185 78q96 0 166.5 -64.5t70.5 -160.5q0 -100 -106 -211l-252 -258h-107zM893 664q70 0 126 50t56 126q0 63 -45 105t-110 42q-72 0 -125.5 -53t-53.5 -121q0 -57 40 -103t112 -46z" glyph-name="uni2468" horiz-adv-x="1654" unicode="⑨"/><glyph d="M135 647q0 332 237.5 569.5t549.5 237.5q305 0 489 -195.5t184 -472.5q0 -332 -237.5 -569t-548.5 -237q-305 0 -489.5 195.5t-184.5 471.5zM920 1350q-268 0 -471 -206t-203 -491q0 -238 153.5 -403.5t411.5 -165.5q268 0 471 206t203 490q0 238 -153.5 404t-411.5 166z M600 641q0 96 32 190.5t105.5 166t173.5 71.5q127 0 187.5 -75.5t60.5 -200.5q0 -96 -31.5 -190.5t-105.5 -166t-174 -71.5q-127 0 -187.5 75.5t-60.5 200.5zM907 987q-72 0 -125 -61.5t-74.5 -138t-21.5 -150.5q0 -190 168 -191q104 0 161.5 114t57.5 237q0 88 -41 139 t-125 51z" glyph-name="uni24EA" horiz-adv-x="1654" unicode="⓪"/><glyph d="M135 647q0 332 237.5 569.5t549.5 237.5q305 0 489 -195.5t184 -472.5q0 -332 -237.5 -569t-548.5 -237q-305 0 -489.5 195.5t-184.5 471.5zM600 641q0 -125 60.5 -200.5t187.5 -75.5q100 0 174 71.5t105.5 165.5t31.5 191q0 125 -60.5 200.5t-187.5 75.5 q-100 0 -173.5 -71.5t-105.5 -166t-32 -190.5zM907 987q84 0 125 -51t41 -139q0 -123 -57.5 -237t-161.5 -114q-168 0 -168 191q0 74 21.5 150.5t74.5 138t125 61.5z" glyph-name="uni24FF" horiz-adv-x="1654" unicode="⓿"/><glyph d="M1206 717l-676 -735l-417 735l678 735zM553 160l522 571l-307 543l-524 -572z" glyph-name="lozenge" horiz-adv-x="1247" unicode="◊"/><glyph d="M135 647q0 332 237.5 569.5t549.5 237.5q305 0 489 -195.5t184 -472.5q0 -332 -237.5 -569t-548.5 -237q-305 0 -489.5 195.5t-184.5 471.5zM920 1350q-268 0 -471 -206t-203 -491q0 -238 153.5 -403.5t411.5 -165.5q268 0 471 206t203 490q0 238 -153.5 404t-411.5 166z " glyph-name="circle" horiz-adv-x="1654" unicode="○"/><glyph d="M135 647q0 332 237.5 569.5t549.5 237.5q305 0 489 -195.5t184 -472.5q0 -332 -237.5 -569t-548.5 -237q-305 0 -489.5 195.5t-184.5 471.5z" glyph-name="H18533" horiz-adv-x="1654" unicode="●"/><glyph d="M135 647q0 332 237.5 569.5t549.5 237.5q305 0 489 -195.5t184 -472.5q0 -332 -237.5 -569t-548.5 -237q-305 0 -489.5 195.5t-184.5 471.5zM766 969l-16 -95l159 78l-100 -577h84l121 684h-66z" glyph-name="uni2776" horiz-adv-x="1654" unicode="❶"/><glyph d="M135 647q0 332 237.5 569.5t549.5 237.5q305 0 489 -195.5t184 -472.5q0 -332 -237.5 -569t-548.5 -237q-305 0 -489.5 195.5t-184.5 471.5zM1061 401l12 82h-293q193 123 277 217.5t84 196.5q0 82 -55.5 140.5t-161.5 58.5q-92 0 -164 -59.5t-84 -180.5h84q8 80 53 119 t107 39q72 0 103.5 -35t31.5 -82q0 -84 -100.5 -184.5t-350.5 -245.5l-12 -66h469z" glyph-name="uni2777" horiz-adv-x="1654" unicode="❷"/><glyph d="M135 647q0 332 237.5 569.5t549.5 237.5q305 0 489 -195.5t184 -472.5q0 -332 -237.5 -569t-548.5 -237q-305 0 -489.5 195.5t-184.5 471.5zM899 393h86l25 146h110l15 82h-111l43 253l-88 -26l-41 -227h-242l267 456h-99l-274 -475l-10 -63h344z" glyph-name="uni2779" horiz-adv-x="1654" unicode="❹"/><glyph d="M135 647q0 332 237.5 569.5t549.5 237.5q305 0 489 -195.5t184 -472.5q0 -332 -237.5 -569t-548.5 -237q-305 0 -489.5 195.5t-184.5 471.5zM1133 1059h-377l-64 -354h96q217 0 218 -134q0 -25 -9.5 -49t-47.5 -48.5t-101 -24.5q-98 0 -199 67l-53 -65q121 -86 252 -86 q117 0 182.5 61t65.5 154q0 78 -66.5 142t-224.5 64h-14l34 191h293z" glyph-name="uni2780" horiz-adv-x="1654" unicode="➀"/><glyph d="M135 647q0 332 237.5 569.5t549.5 237.5q305 0 489 -195.5t184 -472.5q0 -332 -237.5 -569t-548.5 -237q-305 0 -489.5 195.5t-184.5 471.5zM852 870l215 217h-106l-252 -258q-106 -111 -107 -211q0 -96 70.5 -160.5t167.5 -64.5q104 0 184 78t80 182q0 84 -61.5 151.5 t-161.5 67.5q-13 0 -29 -2zM868 799q72 0 112 -46t40 -104q0 -68 -53.5 -121t-124.5 -53q-66 0 -111 42t-45 106q0 76 56 126t126 50z" glyph-name="uni2781" horiz-adv-x="1654" unicode="➁"/><glyph d="M135 647q0 332 237.5 569.5t549.5 237.5q305 0 489 -195.5t184 -472.5q0 -332 -237.5 -569t-548.5 -237q-305 0 -489.5 195.5t-184.5 471.5zM739 1051l-14 -82h344l-395 -602h100l402 616l12 68h-449z" glyph-name="uni2782" horiz-adv-x="1654" unicode="➂"/><glyph d="M135 647q0 332 237.5 569.5t549.5 237.5q305 0 489 -195.5t184 -472.5q0 -332 -237.5 -569t-548.5 -237q-305 0 -489.5 195.5t-184.5 471.5zM1112 588q0 96 -92 147q55 20 87 66.5t32 101.5q0 72 -60.5 123t-169.5 51q-96 0 -162.5 -55t-66.5 -141q0 -78 68 -121 q-147 -47 -148 -195q0 -80 66.5 -136t189.5 -56q106 0 181 59.5t75 155.5zM1026 586q0 -61 -50 -98t-118 -37q-88 0 -130 35.5t-42 82.5q0 66 51 104t113 38q86 0 131 -37t45 -88zM1055 901q0 -53 -39 -87t-101 -34q-78 0 -114.5 31t-36.5 76q0 53 44 83.5t99 30.5 q78 0 113 -30.5t35 -69.5z" glyph-name="uni2783" horiz-adv-x="1654" unicode="➃"/><glyph d="M135 647q0 332 237.5 569.5t549.5 237.5q305 0 489 -195.5t184 -472.5q0 -332 -237.5 -569t-548.5 -237q-305 0 -489.5 195.5t-184.5 471.5zM909 592l-215 -217h107l252 258q106 111 106 211q0 96 -70.5 160.5t-166.5 64.5q-104 0 -184.5 -78t-80.5 -182 q0 -84 61.5 -151.5t162.5 -67.5q12 0 28 2zM893 664q-72 0 -112 46t-40 103q0 68 53.5 121t125.5 53q66 0 110.5 -42t44.5 -105q0 -76 -56 -126t-126 -50z" glyph-name="uni2784" horiz-adv-x="1654" unicode="➄"/><glyph d="M135 647q0 332 237.5 569.5t549.5 237.5q305 0 489 -195.5t184 -472.5q0 -332 -237.5 -569t-548.5 -237q-305 0 -489.5 195.5t-184.5 471.5zM649 535l-53 -66q117 -86 252 -86q109 0 177.5 51t68.5 139q0 109 -125 160q160 43 159 180q0 72 -58 123t-155 51 q-78 0 -146.5 -45t-78.5 -137h82q6 51 48 77t93 26q61 0 95 -29t34 -68q0 -131 -233 -131l-14 -78q100 -2 156.5 -40.5t56.5 -86.5q0 -109 -158 -108q-105 0 -201 68z" glyph-name="uni2786" horiz-adv-x="1654" unicode="➆"/><glyph d="M578 1434q174 0 245 -152l25 137h94l-119 -674h-94l16 95q-102 -109 -233 -109q-135 0 -213 89t-78 220q0 170 109 282t248 112zM526 813q106 0 185.5 93t79.5 210q0 96 -58.5 166t-152.5 70q-106 0 -185.5 -94.5t-79.5 -208.5q0 -98 58.5 -167t152.5 -69z" glyph-name="uniE001" horiz-adv-x="962" unicode=""/><glyph d="M891 0l33 184q-150 -203 -381 -202q-195 0 -308.5 128t-113.5 320q0 236 147.5 416t372.5 180q143 0 241.5 -72.5t141.5 -193.5l43 246h109l-177 -1006h-108zM565 84q178 0 300 143.5t122 335.5q0 156 -90 258.5t-244 102.5q-178 0 -300 -145.5t-122 -336.5 q0 -154 89 -256t245 -102z" glyph-name="uniE020" unicode=""/><glyph d="M152 348l172 981l116 43l-65 -366h387l-19 -101h-385l-100 -567q-10 -57 -10 -90q0 -90 44 -128t128 -38q82 0 170 43l28 -92q-102 -51 -208 -51q-268 0 -269 258q1 42 11 108z" glyph-name="uniE021" horiz-adv-x="727" unicode=""/><glyph d="M1475 -182l-60 -90l-493 290l71 80zM168 635q0 334 223 575.5t541 241.5q293 0 466 -188.5t173 -464.5q0 -334 -223.5 -575.5t-542.5 -241.5q-291 0 -464 188.5t-173 464.5zM926 1348q-268 0 -457.5 -213t-189.5 -496q0 -233 144 -393t388 -160q270 0 459.5 213 t189.5 496q0 233 -144 393t-390 160z" glyph-name="uniE022" horiz-adv-x="1662" unicode=""/><glyph d="M891 0l33 184q-150 -203 -381 -202q-195 0 -308.5 128t-113.5 320q0 236 147.5 416t372.5 180q143 0 241.5 -72.5t141.5 -193.5l43 246h109l-177 -1006h-108zM565 84q178 0 300 143.5t122 335.5q0 156 -90 258.5t-244 102.5q-178 0 -300 -145.5t-122 -336.5 q0 -154 89 -256t245 -102zM881 1200l-88 -37l-189 301l94 62z" glyph-name="uniE030" unicode=""/><glyph d="M891 0l33 184q-150 -203 -381 -202q-195 0 -308.5 128t-113.5 320q0 236 147.5 416t372.5 180q143 0 241.5 -72.5t141.5 -193.5l43 246h109l-177 -1006h-108zM565 84q178 0 300 143.5t122 335.5q0 156 -90 258.5t-244 102.5q-178 0 -300 -145.5t-122 -336.5 q0 -154 89 -256t245 -102zM723 1161l-80 51l293 314l78 -76z" glyph-name="uniE031" unicode=""/><glyph d="M891 0l33 184q-150 -203 -381 -202q-195 0 -308.5 128t-113.5 320q0 236 147.5 416t372.5 180q143 0 241.5 -72.5t141.5 -193.5l43 246h109l-177 -1006h-108zM565 84q178 0 300 143.5t122 335.5q0 156 -90 258.5t-244 102.5q-178 0 -300 -145.5t-122 -336.5 q0 -154 89 -256t245 -102zM803 1350l-254 -179l-55 76l319 226l246 -226l-66 -71z" glyph-name="uniE032" unicode=""/><glyph d="M891 0l33 184q-150 -203 -381 -202q-195 0 -308.5 128t-113.5 320q0 236 147.5 416t372.5 180q143 0 241.5 -72.5t141.5 -193.5l43 246h109l-177 -1006h-108zM565 84q178 0 300 143.5t122 335.5q0 156 -90 258.5t-244 102.5q-178 0 -300 -145.5t-122 -336.5 q0 -154 89 -256t245 -102zM522 1212h-98q16 115 71.5 194t153.5 79q59 0 95 -29t71 -82q2 -4 10.5 -16t10.5 -16.5t9 -13.5t10 -13t10 -11.5t12.5 -9.5t12.5 -6t14 -5t16 -1q86 0 120 178h99q-16 -113 -70.5 -191.5t-153.5 -78.5q-57 0 -95 27.5t-72 80.5q-4 6 -12.5 19.5 t-12.5 19.5t-12.5 16.5t-14.5 15.5t-14 11t-18.5 8.5t-20.5 2.5q-88 -1 -121 -179z" glyph-name="uniE033" unicode=""/><glyph d="M891 0l33 184q-150 -203 -381 -202q-195 0 -308.5 128t-113.5 320q0 236 147.5 416t372.5 180q143 0 241.5 -72.5t141.5 -193.5l43 246h109l-177 -1006h-108zM565 84q178 0 300 143.5t122 335.5q0 156 -90 258.5t-244 102.5q-178 0 -300 -145.5t-122 -336.5 q0 -154 89 -256t245 -102zM512 1278q0 41 27.5 67.5t66.5 26.5q33 0 56.5 -22.5t23.5 -55.5q0 -41 -27.5 -67.5t-66.5 -26.5q-33 0 -56.5 22.5t-23.5 55.5zM862 1278q0 41 28 67.5t66 26.5q33 0 56.5 -22.5t23.5 -55.5q0 -41 -27.5 -67.5t-66.5 -26.5q-33 0 -56.5 22.5 t-23.5 55.5z" glyph-name="uniE034" unicode=""/><glyph d="M891 0l33 184q-150 -203 -381 -202q-195 0 -308.5 128t-113.5 320q0 236 147.5 416t372.5 180q143 0 241.5 -72.5t141.5 -193.5l43 246h109l-177 -1006h-108zM565 84q178 0 300 143.5t122 335.5q0 156 -90 258.5t-244 102.5q-178 0 -300 -145.5t-122 -336.5 q0 -154 89 -256t245 -102zM569 1335q0 94 69 167t165 73q90 0 146.5 -59.5t56.5 -143.5q0 -94 -69 -166.5t-165 -72.5q-90 0 -146.5 59t-56.5 143zM798.5 1491q-57.5 0 -102.5 -44t-45 -108q0 -53 34 -87.5t91.5 -34.5t102.5 44t45 107q0 53 -34 88t-91.5 35z" glyph-name="uniE035" unicode=""/><glyph d="M891 0l33 184q-150 -203 -381 -202q-195 0 -308.5 128t-113.5 320q0 236 147.5 416t372.5 180q143 0 241.5 -72.5t141.5 -193.5l43 246h109l-177 -1006h-108zM565 84q178 0 300 143.5t122 335.5q0 156 -90 258.5t-244 102.5q-178 0 -300 -145.5t-122 -336.5 q0 -154 89 -256t245 -102zM1055 1335l-19 -98h-540l18 98h541z" glyph-name="uniE036" unicode=""/><glyph d="M891 0l33 184q-150 -203 -381 -202q-195 0 -308.5 128t-113.5 320q0 236 147.5 416t372.5 180q143 0 241.5 -72.5t141.5 -193.5l43 246h109l-177 -1006h-108zM565 84q178 0 300 143.5t122 335.5q0 156 -90 258.5t-244 102.5q-178 0 -300 -145.5t-122 -336.5 q0 -154 89 -256t245 -102zM1014 1442l84 -41q-123 -223 -326 -223q-106 0 -182 62.5t-107 160.5l92 41q25 -78 76 -123t125 -45q146 0 238 168z" glyph-name="uniE037" unicode=""/><glyph d="M891 0l33 184q-150 -203 -381 -202q-195 0 -308.5 128t-113.5 320q0 236 147.5 416t372.5 180q143 0 241.5 -72.5t141.5 -193.5l43 246h109l-177 -1006q-66 -55 -100.5 -86t-83.5 -100.5t-49 -122.5q0 -84 106 -84q25 0 50 6l4 -94q-33 -8 -66 -8q-92 0 -143 41.5 t-51 115.5q0 86 60 165t167 167h-2zM565 84q178 0 300 143.5t122 335.5q0 156 -90 258.5t-244 102.5q-178 0 -300 -145.5t-122 -336.5q0 -154 89 -256t245 -102z" glyph-name="uniE038" unicode=""/><glyph d="M1806 217l60 -82q-160 -154 -391 -153q-172 0 -282 88t-144 233l-54 -303h-98l31 184q-150 -203 -385 -202q-195 0 -308.5 128t-113.5 320q0 236 147.5 416t372.5 180q145 0 245.5 -73.5t141.5 -196.5l45 250h98l-41 -228q76 119 196 183.5t259 64.5q164 0 262.5 -77 t98.5 -193q0 -147 -160 -244.5t-481 -97.5h-177q8 -143 98.5 -237.5t250.5 -94.5q188 0 329 135zM565 84q178 0 300 143.5t122 335.5q0 156 -90 258.5t-244 102.5q-178 0 -300 -145.5t-122 -336.5q0 -154 89 -256t245 -102zM1139 541l-6 -33h170q270 0 401 68.5t131 175.5 q0 76 -67.5 124t-180.5 48q-166 0 -290.5 -102.5t-157.5 -280.5z" glyph-name="uniE039" horiz-adv-x="2037" unicode=""/><glyph d="M1806 217l60 -82q-160 -154 -391 -153q-172 0 -282 88t-144 233l-54 -303h-98l31 184q-150 -203 -385 -202q-195 0 -308.5 128t-113.5 320q0 236 147.5 416t372.5 180q145 0 245.5 -73.5t141.5 -196.5l45 250h98l-41 -228q76 119 196 183.5t259 64.5q164 0 262.5 -77 t98.5 -193q0 -147 -160 -244.5t-481 -97.5h-177q8 -143 98.5 -237.5t250.5 -94.5q188 0 329 135zM565 84q178 0 300 143.5t122 335.5q0 156 -90 258.5t-244 102.5q-178 0 -300 -145.5t-122 -336.5q0 -154 89 -256t245 -102zM1139 541l-6 -33h170q270 0 401 68.5t131 175.5 q0 76 -67.5 124t-180.5 48q-166 0 -290.5 -102.5t-157.5 -280.5zM1153 1161l-80 51l293 314l78 -76z" glyph-name="uniE040" horiz-adv-x="2037" unicode=""/><glyph d="M1186 1165l31 -90q-143 -70 -232 -166q78 -82 78 -196q0 -154 -117 -259.5t-311 -105.5q-162 0 -270 60q-66 -8 -122.5 -45t-56.5 -101q0 -47 38 -76.5t110 -29.5h280q403 0 404 -230q0 -90 -50 -156.5t-132 -100.5t-167 -50t-175 -16q-209 0 -324 69.5t-115 180.5 q0 141 146 223q-123 43 -123 162q0 86 56 145t153 84q-76 76 -76 195q0 156 117.5 260t310.5 104q176 0 283 -68q125 150 264 207zM649 930q-131 0 -230.5 -67.5t-99.5 -198.5q0 -98 81 -159t227 -61q162 0 244.5 79t82.5 186q0 98 -81 159.5t-224 61.5zM598 57h-287 q-63 -27 -106 -76t-43 -110q0 -82 87 -125t249 -43q53 0 114.5 8t132 29.5t116.5 67t46 106.5q0 68 -66.5 105.5t-242.5 37.5z" glyph-name="uniE044" horiz-adv-x="1169" unicode=""/><glyph d="M1186 1165l31 -90q-143 -70 -232 -166q78 -82 78 -196q0 -154 -117 -259.5t-311 -105.5q-162 0 -270 60q-66 -8 -122.5 -45t-56.5 -101q0 -47 38 -76.5t110 -29.5h280q403 0 404 -230q0 -90 -50 -156.5t-132 -100.5t-167 -50t-175 -16q-209 0 -324 69.5t-115 180.5 q0 141 146 223q-123 43 -123 162q0 86 56 145t153 84q-76 76 -76 195q0 156 117.5 260t310.5 104q176 0 283 -68q125 150 264 207zM649 930q-131 0 -230.5 -67.5t-99.5 -198.5q0 -98 81 -159t227 -61q162 0 244.5 79t82.5 186q0 98 -81 159.5t-224 61.5zM598 57h-287 q-63 -27 -106 -76t-43 -110q0 -82 87 -125t249 -43q53 0 114.5 8t132 29.5t116.5 67t46 106.5q0 68 -66.5 105.5t-242.5 37.5zM989 1442l84 -41q-123 -223 -325 -223q-106 0 -182.5 62.5t-106.5 160.5l92 41q25 -78 76 -123t125 -45q145 0 237 168z" glyph-name="uniE045" horiz-adv-x="1169" unicode=""/><glyph d="M1186 1165l31 -90q-143 -70 -232 -166q78 -82 78 -196q0 -154 -117 -259.5t-311 -105.5q-162 0 -270 60q-66 -8 -122.5 -45t-56.5 -101q0 -47 38 -76.5t110 -29.5h280q403 0 404 -230q0 -90 -50 -156.5t-132 -100.5t-167 -50t-175 -16q-209 0 -324 69.5t-115 180.5 q0 141 146 223q-123 43 -123 162q0 86 56 145t153 84q-76 76 -76 195q0 156 117.5 260t310.5 104q176 0 283 -68q125 150 264 207zM649 930q-131 0 -230.5 -67.5t-99.5 -198.5q0 -98 81 -159t227 -61q162 0 244.5 79t82.5 186q0 98 -81 159.5t-224 61.5zM598 57h-287 q-63 -27 -106 -76t-43 -110q0 -82 87 -125t249 -43q53 0 114.5 8t132 29.5t116.5 67t46 106.5q0 68 -66.5 105.5t-242.5 37.5zM668 1278q0 41 27.5 67.5t66.5 26.5q33 0 56.5 -22.5t23.5 -55.5q0 -41 -28 -67.5t-66 -26.5q-33 0 -56.5 22.5t-23.5 55.5z" glyph-name="uniE046" horiz-adv-x="1169" unicode=""/><glyph d="M1186 1165l31 -90q-143 -70 -232 -166q78 -82 78 -196q0 -154 -117 -259.5t-311 -105.5q-162 0 -270 60q-66 -8 -122.5 -45t-56.5 -101q0 -47 38 -76.5t110 -29.5h280q403 0 404 -230q0 -90 -50 -156.5t-132 -100.5t-167 -50t-175 -16q-209 0 -324 69.5t-115 180.5 q0 141 146 223q-123 43 -123 162q0 86 56 145t153 84q-76 76 -76 195q0 156 117.5 260t310.5 104q176 0 283 -68q125 150 264 207zM649 930q-131 0 -230.5 -67.5t-99.5 -198.5q0 -98 81 -159t227 -61q162 0 244.5 79t82.5 186q0 98 -81 159.5t-224 61.5zM598 57h-287 q-63 -27 -106 -76t-43 -110q0 -82 87 -125t249 -43q53 0 114.5 8t132 29.5t116.5 67t46 106.5q0 68 -66.5 105.5t-242.5 37.5zM344 -913l-47 47q113 113 127 202q-37 -14 -67.5 7.5t-30.5 58.5t25.5 61.5t62.5 24.5t63.5 -27.5t26.5 -81.5q0 -59 -41 -141.5t-119 -150.5z " glyph-name="uniE047" horiz-adv-x="1169" unicode=""/><glyph d="M152 348l172 981l116 43l-65 -366h387l-19 -101h-385l-100 -567q-10 -57 -10 -90q0 -90 44 -128t128 -38q82 0 170 43l28 -92q-102 -51 -208 -51q-268 0 -269 258q1 42 11 108zM229 -555l-47 47q113 113 127 203q-37 -14 -67.5 7.5t-30.5 58t25.5 61t62.5 24.5 t63.5 -27.5t26.5 -80.5q0 -59 -41 -142t-119 -151z" glyph-name="uniE050" horiz-adv-x="727" unicode=""/><glyph d="M152 348l172 981l116 43l-65 -366h387l-19 -101h-385l-100 -567q-10 -57 -10 -90q0 -90 44 -128t128 -38q82 0 170 43l28 -92q-102 -51 -208 -51q-268 0 -269 258q1 42 11 108zM629 1126l-47 48q113 113 127 202q-37 -14 -68 7.5t-31 58.5t26 61.5t62.5 24.5t63 -27.5 t26.5 -81.5q0 -59 -40.5 -142t-118.5 -151z" glyph-name="uniE051" horiz-adv-x="727" unicode=""/><glyph d="M150 348l172 981l116 43l-65 -366h387l-19 -101h-385l-100 -567q-10 -57 -10 -90q0 -90 44 -128t128 -38q82 0 170 43l28 -92q-102 -51 -208 -51q-37 0 -68 6l-61 -109q88 -8 138 -57t50 -117q0 -76 -55.5 -135t-165.5 -59q-119 0 -230 75l54 84q82 -63 174 -63 q127 0 127 102q0 100 -172 103l-21 36l92 158q-131 53 -131 234q1 42 11 108z" glyph-name="uniE052" horiz-adv-x="727" unicode=""/><glyph d="M152 348l172 981l116 43l-65 -366h387l-19 -101h-385l-51 -287h303l-18 -100h-303l-31 -180q-10 -57 -10 -90q0 -90 44 -128t128 -38q82 0 170 43l28 -92q-102 -51 -208 -51q-268 0 -269 258q1 42 11 108z" glyph-name="uniE053" horiz-adv-x="729" unicode=""/><glyph d="M719 1096q-203 0 -332 -185.5t-129 -418.5q0 -180 91 -293t259 -113q203 0 332 185.5t129 418.5q0 180 -91 293t-259 113zM145 487q0 178 70 340t204 267.5t302 105.5q219 0 340 -141t121 -365q0 -276 -162 -494t-412 -218q-221 0 -342 141t-121 364z" glyph-name="uniE100" horiz-adv-x="1296" unicode=""/><glyph d="M147 874l23 127l342 181h90l-209 -1182h-108l184 1040z" glyph-name="uniE101" horiz-adv-x="700" unicode=""/><glyph d="M954 104l-18 -104h-893l14 84q403 209 602 342q135 90 217 186.5t82 225.5q0 113 -81.5 185.5t-212.5 72.5q-59 0 -114.5 -17.5t-112 -55.5t-94.5 -115t-48 -181h-111q12 133 64.5 230.5t126.5 147.5t147.5 72.5t149.5 22.5q176 0 287.5 -99.5t111.5 -254.5 q0 -84 -27.5 -159t-82 -137.5t-110.5 -109.5t-138 -100q-147 -98 -410 -236h651z" glyph-name="uniE102" horiz-adv-x="1150" unicode=""/><glyph d="M-16 -100l65 88q203 -154 420 -154q168 0 261 85t93 204q0 135 -121.5 222t-318.5 87l18 107q201 -4 352.5 75.5t151.5 245.5q0 104 -82 170t-209 66q-131 0 -220 -71t-95 -173h-109q8 154 130 251t301 97q174 0 286.5 -93t112.5 -237q0 -137 -92 -246.5t-279 -146.5 q135 -47 212 -138t77 -212q0 -72 -27.5 -139.5t-83 -127t-149.5 -95t-215 -35.5q-252 0 -479 170z" glyph-name="uniE103" horiz-adv-x="1136" unicode=""/><glyph d="M760 -252h-111l58 322h-693l15 77l563 1035h125l-553 -1008h561l98 551l115 33l-104 -584h227l-19 -104h-227z" glyph-name="uniE104" horiz-adv-x="1185" unicode=""/><glyph d="M330 1182h719l-19 -105h-610l-88 -491h51q295 0 433 -120t138 -304q0 -176 -119.5 -304t-355.5 -128q-258 0 -481 170l63 88q203 -154 422 -154q176 0 268.5 94.5t92.5 227.5q0 141 -115 232t-371 91h-153z" glyph-name="uniE105" horiz-adv-x="1136" unicode=""/><glyph d="M985 1434l-465 -498q61 23 129 22q190 0 305 -123.5t115 -306.5q0 -219 -150.5 -382.5t-371.5 -163.5q-197 0 -315.5 127t-118.5 311q0 133 55 238.5t164 222.5l504 553h149zM629 858q-166 0 -285 -131t-119 -305q0 -141 88 -238.5t236 -97.5q168 0 287.5 131t119.5 309 q0 141 -88.5 236.5t-238.5 95.5z" glyph-name="uniE106" horiz-adv-x="1167" unicode=""/><glyph d="M193 1077l18 105h854l-16 -86l-842 -1348h-133l837 1329h-718z" glyph-name="uniE107" horiz-adv-x="1021" unicode=""/><glyph d="M1067 420q0 -174 -129 -306t-356 -132q-217 0 -346.5 108.5t-129.5 271.5q0 147 95.5 268.5t259.5 155.5q-168 88 -168 273q0 174 127 283.5t307 109.5q188 0 303 -97.5t115 -244.5q0 -133 -80 -232.5t-213 -132.5q102 -49 158.5 -134t56.5 -191zM586 84q154 0 261 93 t107 243q0 127 -96 211t-260 84q-166 0 -271.5 -100.5t-105.5 -241.5q0 -123 97.5 -206t267.5 -83zM707 811q129 0 227 77t98 214q0 106 -82 177t-225 71q-133 0 -227.5 -79t-94.5 -204q0 -109 85.5 -182.5t218.5 -73.5z" glyph-name="uniE108" horiz-adv-x="1218" unicode=""/><glyph d="M213 -252l465 498q-61 -23 -129 -23q-190 0 -305 124t-115 306q0 219 150.5 383t371.5 164q197 0 315.5 -127t118.5 -311q0 -133 -55 -238.5t-164 -222.5l-504 -553h-149zM569 324q166 0 285 131t119 305q0 141 -88 238.5t-236 97.5q-168 0 -287.5 -131t-119.5 -310 q0 -141 88.5 -236t238.5 -95z" glyph-name="uniE109" horiz-adv-x="1167" unicode=""/><glyph d="M125 526q0 215 69.5 424t210 355.5t314.5 146.5q199 0 301 -152.5t102 -392.5q0 -215 -69.5 -424t-208.5 -355t-314 -146q-201 0 -303 152t-102 392zM715 1348q-135 0 -248 -130.5t-171 -316.5t-58 -373q0 -197 74.5 -319.5t219.5 -122.5q135 0 248 130t171.5 316.5 t58.5 372.5q0 199 -75 321t-220 122z" glyph-name="uniE120" horiz-adv-x="1173" unicode=""/><glyph d="M317 1128l23 125l420 181h90l-234 -1330h373l-18 -104h-854l18 104h373l211 1199z" glyph-name="uniE121" horiz-adv-x="1173" unicode=""/><glyph d="M963 104l-17 -104h-899l16 84q449 319 672 532q78 74 129 132.5t97.5 150.5t46.5 178q0 119 -79 195t-214 76q-139 0 -242.5 -88.5t-128.5 -280.5h-108q27 242 166 357.5t319 115.5q178 0 288.5 -101.5t110.5 -260.5q0 -254 -307 -545q-195 -184 -551 -441h701z" glyph-name="uniE122" horiz-adv-x="1173" unicode=""/><glyph d="M47 152l66 88q203 -154 419 -154q168 0 261.5 85t93.5 204q0 135 -122 222t-319 87l19 107q201 -4 352.5 75.5t151.5 245.5q0 104 -82 170t-209 66q-131 0 -220 -71t-96 -173h-108q8 154 130 251t300 97q174 0 286.5 -93t112.5 -237q0 -137 -92 -246.5t-278 -146.5 q135 -47 211.5 -138t76.5 -212q0 -154 -121.5 -275.5t-353.5 -121.5q-252 0 -479 170z" glyph-name="uniE123" horiz-adv-x="1173" unicode=""/><glyph d="M774 0h-108l55 322h-658l15 77l547 1035h127l-541 -1008h528l99 551l114 33l-104 -584h229l-18 -104h-230z" glyph-name="uniE124" horiz-adv-x="1173" unicode=""/><glyph d="M397 1434h719l-18 -105h-611l-88 -491h52q295 0 433 -120t138 -304q0 -176 -120 -304t-355 -128q-258 0 -481 170l63 88q203 -154 422 -154q176 0 268 94t92 228q0 141 -114.5 232t-370.5 91h-154z" glyph-name="uniE125" horiz-adv-x="1173" unicode=""/><glyph d="M985 1434l-465 -498q61 23 129 22q190 0 305 -123.5t115 -306.5q0 -219 -150.5 -382.5t-371.5 -163.5q-197 0 -315.5 127t-118.5 311q0 133 55 238.5t164 222.5l504 553h149zM629 858q-166 0 -285 -131t-119 -305q0 -141 88 -238.5t236 -97.5q168 0 287.5 131t119.5 309 q0 141 -88.5 236.5t-238.5 95.5z" glyph-name="uniE126" horiz-adv-x="1173" unicode=""/><glyph d="M285 1329l20 105h887l-16 -86l-859 -1348h-133l854 1329h-753z" glyph-name="uniE127" horiz-adv-x="1173" unicode=""/><glyph d="M1044 420q0 -174 -129 -306t-356 -132q-217 0 -346 108.5t-129 271.5q0 147 95 268.5t259 155.5q-168 88 -168 273q0 174 127 283.5t308 109.5q188 0 302.5 -97.5t114.5 -244.5q0 -133 -79.5 -232.5t-213.5 -132.5q102 -49 158.5 -134t56.5 -191zM563 84q154 0 261.5 93 t107.5 243q0 127 -96.5 211t-260.5 84q-166 0 -271 -100.5t-105 -241.5q0 -123 97 -206t267 -83zM684 811q129 0 227.5 77t98.5 214q0 106 -82 177t-226 71q-133 0 -227 -79t-94 -204q0 -109 85 -182.5t218 -73.5z" glyph-name="uniE128" horiz-adv-x="1173" unicode=""/><glyph d="M260 0l465 498q-61 -23 -129 -23q-190 0 -305 124t-115 306q0 219 150.5 383t371.5 164q197 0 316 -127t119 -311q0 -133 -55.5 -238.5t-164.5 -222.5l-503 -553h-150zM616 575q166 0 285 131.5t119 305.5q0 141 -88 238.5t-236 97.5q-168 0 -287.5 -131.5t-119.5 -309.5 q0 -141 88.5 -236.5t238.5 -95.5z" glyph-name="uniE129" horiz-adv-x="1173" unicode=""/><glyph d="M973 180l63 -80q-150 -119 -334 -118q-233 0 -359 137t-144 364h-152l19 101h131q2 125 34 266h-118l16 98h133q80 240 233.5 372t356.5 132q266 0 405 -195l-86 -65q-104 156 -321 156q-158 0 -278.5 -103.5t-192.5 -296.5h659l-45 -98h-645q-35 -145 -39 -266h576 l-43 -101h-531q18 -182 116.5 -289.5t281.5 -107.5q145 0 264 94z" glyph-name="uniE140" horiz-adv-x="1173" unicode=""/><glyph d="M137 0l15 82q242 195 241 471q0 33 -2 51h-180l18 103h150q-2 18 -16.5 91.5t-19.5 120t-5 93.5q0 190 113.5 315t298.5 125q150 0 250 -92t100 -246q0 -16 -4 -53h-107q2 14 2 43q0 117 -67.5 182.5t-175.5 65.5q-133 0 -218.5 -97.5t-85.5 -244.5q0 -43 7.5 -90.5 t20.5 -114t20 -98.5h370l-18 -103h-342v-47q-4 -272 -199 -457h615l-17 -100h-764z" glyph-name="uniE141" horiz-adv-x="1173" unicode=""/><glyph d="M610 692l482 742h129l-523 -789h281l-18 -102h-318l-35 -203h316l-19 -100h-315l-43 -240h-107l41 240h-315l16 100h318l35 203h-316l19 102h278l-246 789h115z" glyph-name="uniE142" horiz-adv-x="1173" unicode=""/><glyph d="M412 -184l41 239q-156 25 -250 114t-94 214v18l108 21v-19q0 -115 95.5 -186.5t256.5 -71.5q139 0 239.5 60.5t100.5 181.5q0 96 -68.5 151.5t-244.5 139.5q-170 82 -257 162t-87 215q0 156 121 247t305 91h10l41 225h102l-40 -236q317 -59 317 -374v-9h-109v11 q0 88 -36.5 149.5t-94 87t-102.5 34.5t-88 9q-137 0 -226.5 -62.5t-89.5 -172.5q0 -70 45.5 -126.5t84 -79t131.5 -65.5q18 -10 28 -14q76 -37 115 -56.5t96.5 -57.5t86 -72.5t50 -86t21.5 -110.5q0 -156 -121 -249t-328 -93h-16l-41 -229h-102z" glyph-name="uniE143" horiz-adv-x="1173" unicode=""/><glyph d="M287 942l18 105h486q-10 121 -99.5 201.5t-257.5 80.5h-80l21 105h813l-47 -105h-387q139 -100 149 -282h217l-47 -105h-174q-33 -195 -167 -311.5t-333 -118.5h-28l428 -512h-137l-447 528l16 88h154q160 0 267.5 89.5t131.5 236.5h-497z" glyph-name="uniE144" horiz-adv-x="1173" unicode=""/><glyph d="M141 719l19 108l184 54l96 553h111l-92 -519l596 179l-19 -109l-598 -178l-30 -180l596 178l-21 -111l-596 -178l-72 -412h263q154 0 258 87.5t145 234.5l102 -18q-49 -184 -178 -296t-330 -112h-387l84 483l-184 -55l21 109l184 55l31 180z" glyph-name="uniE145" horiz-adv-x="1173" unicode=""/><glyph d="M348 0h-133l27 545h-191l19 98h176l8 170h-156l19 98h143l25 523h108l-65 -1176l356 1176h131l-63 -1174l352 1174h113l-162 -523h143l-18 -98h-154l-53 -170h178l-18 -98h-191l-166 -545h-133l62 1178z" glyph-name="uniE146" horiz-adv-x="1173" unicode=""/><glyph d="M92 326l19 104h131l24 139h-131l19 105h131l133 760h301q223 0 336.5 -112t113.5 -280q0 -195 -136 -334t-369 -139h-289l-25 -139h414l-19 -104h-413l-58 -326h-108l57 326h-131zM393 674h260q197 0 301.5 109.5t104.5 252.5q0 127 -88 210t-262 83h-203z" glyph-name="uniE147" horiz-adv-x="1173" unicode=""/><glyph d="M639 1669l78 -65q-217 -240 -335 -541t-118 -614q0 -330 142 -635l-99 -50q-154 313 -153 678q0 330 121.5 647.5t363.5 579.5z" glyph-name="uniE300" horiz-adv-x="618" unicode=""/><glyph d="M57 -236l-77 66q217 240 334.5 541t117.5 614q0 330 -141 635l98 49q154 -313 154 -678q0 -330 -122 -647.5t-364 -579.5z" glyph-name="uniE301" horiz-adv-x="618" unicode=""/><glyph d="M768 768l-16 -102h-549l16 102h549z" glyph-name="uniE302" horiz-adv-x="903" unicode=""/><glyph d="M1014 768l-19 -102h-792l16 102h795z" glyph-name="uniE303" horiz-adv-x="1148" unicode=""/><glyph d="M1286 768l-18 -102h-1065l16 102h1067z" glyph-name="uniE304" horiz-adv-x="1421" unicode=""/><glyph d="M569 -78l-18 -104h-440l317 1800h440l-18 -105h-332l-278 -1591h329z" glyph-name="uniE305" horiz-adv-x="745" unicode=""/><glyph d="M250 1513l18 105h441l-318 -1800h-440l18 104h332l279 1591h-330z" glyph-name="uniE306" horiz-adv-x="745" unicode=""/><glyph d="M76 664l18 106h68q66 0 111.5 19.5t72.5 58.5t39 76t23 92l51 297q25 143 94.5 224t222.5 81h119l-18 -105h-91q-63 0 -105 -18t-65.5 -58t-34 -73t-20.5 -92l-47 -271q-25 -129 -66.5 -199.5t-144.5 -94.5q117 -53 117 -201q0 -45 -8 -84l-45 -250q-10 -51 -11 -90 q0 -160 172 -160h66l-16 -104h-76q-131 0 -193.5 69.5t-62.5 178.5q0 25 8 77l47 273q6 37 6 71q0 176 -213 177h-18z" glyph-name="uniE307" horiz-adv-x="772" unicode=""/><glyph d="M772 772l-18 -106h-68q-66 0 -112 -19.5t-72.5 -58.5t-38.5 -76t-23 -92l-51 -297q-25 -143 -94.5 -224t-222.5 -81h-119l18 104h90q63 0 105.5 18.5t66 58.5t33.5 72.5t21 92.5l47 270q25 129 66.5 200t144.5 95q-117 53 -117 201q0 45 8 84l45 250q10 51 11 90 q0 160 -173 159h-65l16 105h76q131 0 193.5 -69.5t62.5 -178.5q0 -25 -8 -78l-47 -272q-6 -37 -6 -72q0 -176 213 -176h18z" glyph-name="uniE308" horiz-adv-x="772" unicode=""/><glyph d="M436 1655h94l-329 -1874h-95z" glyph-name="uniE309" horiz-adv-x="563" unicode=""/><glyph d="M248 586h94l-141 -805h-95zM436 1655h94l-143 -811h-92z" glyph-name="uniE310" horiz-adv-x="563" unicode=""/><glyph d="M283 702l180 -319l-88 -55l-223 387l360 389l72 -70z" glyph-name="uniE311" horiz-adv-x="643" unicode=""/><glyph d="M430 731l-180 320l88 55l223 -387l-360 -389l-72 69z" glyph-name="uniE312" horiz-adv-x="638" unicode=""/><glyph d="M283 702l180 -319l-88 -55l-223 387l360 389l72 -70zM745 702l181 -319l-88 -55l-224 387l361 389l72 -70z" glyph-name="uniE313" horiz-adv-x="1105" unicode=""/><glyph d="M430 731l-180 320l88 55l223 -387l-360 -389l-72 69zM893 731l-180 320l88 55l223 -387l-360 -389l-72 69z" glyph-name="uniE314" horiz-adv-x="1101" unicode=""/><glyph d="M221 698q0 86 63.5 153t153.5 67q80 0 130 -53.5t50 -127.5q0 -86 -63 -152.5t-154 -66.5q-80 0 -130 53t-50 127z" glyph-name="uniE315" horiz-adv-x="776" unicode=""/><glyph d="M205 707q0 41 29.5 69.5t68.5 28.5q33 0 56.5 -23.5t23.5 -58.5q0 -41 -29.5 -68.5t-68.5 -27.5q-33 0 -56.5 23.5t-23.5 56.5z" glyph-name="uniE316" horiz-adv-x="522" unicode=""/><glyph d="M672 201l-78 -64l-463 580l666 577l67 -75l-524 -453h956l-16 -100h-981z" glyph-name="uniE330" horiz-adv-x="1357" unicode=""/><glyph d="M1161 780l64 -80l-664 -579l-463 579l78 66l363 -459l178 1004h100l-174 -981z" glyph-name="uniE331" horiz-adv-x="1255" unicode=""/><glyph d="M170 653l-66 78l666 580l461 -580l-78 -65l-365 458l-176 -1003h-100l172 979z" glyph-name="uniE332" horiz-adv-x="1253" unicode=""/><glyph d="M764 1231l78 63l463 -577l-668 -580l-66 76l521 453h-955l19 100h981z" glyph-name="uniE333" horiz-adv-x="1359" unicode=""/><glyph d="M293 569h-103l154 865h840l-19 -101h-676l598 -753l-77 -64l-596 748z" glyph-name="uniE334" horiz-adv-x="1226" unicode=""/><glyph d="M344 1333l16 101h842l-151 -865h-103l121 684l-844 -737l-67 76l848 741h-662z" glyph-name="uniE335" horiz-adv-x="1218" unicode=""/><glyph d="M483 1028l297 406h115l-328 -439h187l-15 -84h-225l-16 -90h227l-16 -84h-226l-18 -106h-92l18 106h-223l14 84h224l16 90h-223l14 84h186l-170 439h101z" glyph-name="uniE400" horiz-adv-x="800" unicode=""/><glyph d="M238 1133l16 90h137l72 211h92l-72 -211h183l71 211h94l-71 -211h119l-15 -90h-135l-70 -203h121l-14 -90h-137l-70 -209h-94l70 209h-183l-69 -209h-95l72 209h-119l15 90h135l69 203h-122zM453 1133l-70 -203h182l70 203h-182z" glyph-name="uniE401" horiz-adv-x="833" unicode=""/><glyph d="M301 623h-108l718 811h109zM205 1239q0 92 61.5 148.5t139.5 56.5q80 0 131 -52.5t51 -123.5q0 -92 -61.5 -148.5t-139.5 -56.5q-80 0 -131 52t-51 124zM403 1364q-51 0 -83.5 -36t-32.5 -81q0 -43 28.5 -73.5t73.5 -30.5q51 0 84 35.5t33 81.5q0 43 -29 73.5t-74 30.5z M627 797q0 92 61.5 148t138.5 56q80 0 131.5 -52t51.5 -124q0 -92 -61.5 -148t-139.5 -56q-80 0 -131 52t-51 124zM825 922q-51 0 -83.5 -36t-32.5 -81q0 -43 28.5 -74t73.5 -31q51 0 84 36t33 81q0 43 -29 74t-74 31z" glyph-name="uniE402" horiz-adv-x="1026" unicode=""/><glyph d="M135 631l12 71q127 96 136 246h-109l16 90h84q-23 117 -22 158q0 117 68.5 182.5t168.5 65.5q88 0 149.5 -52.5t61.5 -140.5q0 -12 -4 -41h-92q2 10 2 27q0 53 -32.5 85t-84.5 32q-61 0 -101 -41t-40 -115q0 -2 23 -160h196l-16 -90h-174q-4 -127 -101 -227h328l-16 -90 h-453z" glyph-name="uniE403" horiz-adv-x="663" unicode=""/><glyph d="M735 985l-41 -88h-334q23 -86 86.5 -136t159.5 -50q94 0 174 57l51 -70q-104 -78 -229 -77q-135 0 -225 76.5t-115 199.5h-106l16 88h82q0 43 10 94h-76l17 88h86q51 129 156.5 204t226.5 75q166 0 268 -123l-72 -57q-76 90 -198 90q-82 0 -159 -50.5t-120 -138.5h426 l-41 -88h-418q-10 -45 -10 -94h385z" glyph-name="uniE404" horiz-adv-x="882" unicode=""/><glyph d="M213 1153l14 78h254q-8 53 -48 88t-109 35h-74l14 80h469l-31 -78h-176q45 -55 52 -125h120l-32 -78h-91v-4q-18 -102 -90.5 -168t-183.5 -74l225 -276h-114l-240 289l14 73h86q170 0 207 160h-266z" glyph-name="uniE405" horiz-adv-x="651" unicode=""/><glyph d="M186 1032l17 92l104 31l49 279h95l-43 -250l321 94l-16 -92l-322 -94l-14 -82l321 94l-16 -92l-322 -94l-34 -197h127q162 0 213 172l90 -16q-74 -246 -324 -246h-217l45 258l-104 -31l16 92l104 31l15 82z" glyph-name="uniE406" horiz-adv-x="759" unicode=""/><glyph d="M444 631h-116l-6 272h-160l16 90h144l-3 90h-124l14 91h110l-4 260h95l4 -650l235 650h111l2 -648l233 648h99l-97 -260h111l-16 -91h-127l-33 -90h145l-16 -90h-162l-100 -272h-119l-4 633z" glyph-name="uniE407" horiz-adv-x="1083" unicode=""/><glyph d="M141 780l15 88h92l12 68h-92l16 90h92l72 408h240q113 0 174 -63.5t61 -158.5q0 -115 -78.5 -195.5t-212.5 -80.5h-180l-12 -68h223l-14 -88h-225l-25 -147h-92l24 147h-90zM369 1026h163q88 0 141.5 52t53.5 130q0 59 -40 97t-112 38h-151z" glyph-name="uniE408" horiz-adv-x="776" unicode=""/><glyph d="M215 508l14 90h570l-15 -90h-569zM258 1047q0 166 111.5 276.5t253.5 110.5q145 0 231 -91.5t86 -224.5q0 -166 -111.5 -276.5t-253.5 -110.5q-145 0 -231 92.5t-86 223.5zM621 1343q-100 0 -183.5 -83.5t-83.5 -210.5q0 -98 59.5 -163t164.5 -65q100 0 183 84t83 211 q0 98 -59.5 162.5t-163.5 64.5z" glyph-name="uniE409" horiz-adv-x="993" unicode=""/><glyph d="M221 508l17 90h596l-17 -90h-596zM610 1434q174 0 246 -152l25 137h94l-119 -674h-94l16 95q-102 -109 -233 -109q-135 0 -213 89t-78 220q0 170 108.5 282t247.5 112zM559 813q106 0 185 93t79 210q0 96 -58 166t-153 70q-106 0 -185 -94.5t-79 -208.5q0 -98 58.5 -167 t152.5 -69z" glyph-name="uniE410" horiz-adv-x="1007" unicode=""/><glyph d="M221 508l17 90h596l-17 -90h-596zM610 1434q174 0 246 -152l25 137h94l-119 -674h-94l16 95q-102 -109 -233 -109q-135 0 -213 89t-78 220q0 170 108.5 282t247.5 112zM559 813q106 0 185 93t79 210q0 96 -58 166t-153 70q-106 0 -185 -94.5t-79 -208.5q0 -98 58.5 -167 t152.5 -69z" glyph-name="uniE411" horiz-adv-x="1007" unicode=""/><glyph d="M256 641q0 96 31.5 190.5t105.5 166t174 71.5q127 0 187.5 -75.5t60.5 -200.5q0 -96 -31.5 -190.5t-105.5 -166t-174 -71.5q-127 0 -187.5 75.5t-60.5 200.5zM563 987q-72 0 -125 -61.5t-74.5 -138t-21.5 -150.5q0 -190 168 -191q104 0 161.5 114t57.5 237q0 88 -41 139 t-125 51z" glyph-name="uniE450" horiz-adv-x="819" unicode=""/><glyph d="M143 874l17 95l182 90h66l-121 -684h-84l100 577z" glyph-name="uniE451" horiz-adv-x="466" unicode=""/><glyph d="M565 457l-12 -82h-469l12 65q250 145 350.5 245.5t100.5 184.5q0 47 -32 82t-103 35q-61 0 -106.5 -39t-53.5 -119h-84q12 121 84 180.5t164 59.5q106 0 161.5 -58.5t55.5 -140.5q0 -102 -84 -196t-277 -217h293z" glyph-name="uniE452" horiz-adv-x="677" unicode=""/><glyph d="M88 451l53 65q96 -68 201 -67q158 0 158 108q0 47 -56.5 86t-156.5 41l14 78q233 0 234 131q0 39 -34 67.5t-95 28.5q-51 0 -93.5 -25.5t-48.5 -76.5h-82q10 92 79 137t147 45q96 0 154.5 -51t58.5 -123q0 -137 -160 -180q125 -51 125 -160q0 -88 -68.5 -139t-177.5 -51 q-135 0 -252 86z" glyph-name="uniE453" horiz-adv-x="681" unicode=""/><glyph d="M494 375h-86l24 145h-344l10 64l275 475h98l-266 -457h241l41 227l88 27l-43 -254h111l-14 -82h-111z" glyph-name="uniE454" horiz-adv-x="704" unicode=""/><glyph d="M242 1059h376l-14 -82h-293l-35 -191h15q158 0 224.5 -64.5t66.5 -141.5q0 -92 -65.5 -153.5t-182.5 -61.5q-131 0 -252 86l53 65q100 -68 199 -67q63 0 101 24.5t47.5 49t9.5 48.5q0 133 -218 134h-96z" glyph-name="uniE455" horiz-adv-x="663" unicode=""/><glyph d="M578 1059l-216 -217q16 2 29 2q100 0 161.5 -67.5t61.5 -151.5q0 -104 -79.5 -182t-184.5 -78q-96 0 -166.5 64.5t-70.5 160.5q0 100 106 211l252 258h107zM379 770q-70 0 -126 -50t-56 -126q0 -63 45 -105.5t110 -42.5q74 0 126 53.5t52 121.5q0 57 -39.5 103t-111.5 46 z" glyph-name="uniE456" horiz-adv-x="681" unicode=""/><glyph d="M158 977l14 82h449l-13 -68l-401 -616h-101l396 602h-344z" glyph-name="uniE457" horiz-adv-x="598" unicode=""/><glyph d="M627 579.5q0 -96.5 -75 -155.5t-181 -59q-123 0 -189.5 56t-66.5 136q0 147 147 195q-68 43 -67 120q0 86 66.5 141.5t162.5 55.5q109 0 169 -51t60 -123q0 -55 -31.5 -101t-86.5 -67q92 -51 92 -147.5zM541 578q0 51 -45 87.5t-131 36.5q-61 0 -112.5 -37.5 t-51.5 -103.5q0 -47 42 -83t130 -36q68 0 118 37.5t50 98.5zM569 893q0 39 -34.5 69.5t-112.5 30.5q-55 0 -99 -30.5t-44 -83.5q0 -45 36.5 -76t114.5 -31q61 0 100 34t39 87z" glyph-name="uniE458" horiz-adv-x="716" unicode=""/><glyph d="M178 375l215 217q-16 -2 -28 -2q-100 0 -162 67.5t-62 151.5q0 104 80 182t185 78q96 0 166.5 -64.5t70.5 -160.5q0 -100 -106 -211l-252 -258h-107zM377 664q70 0 126 50t56 126q0 63 -45 105t-111 42q-72 0 -125 -53t-53 -121q0 -57 40 -103t112 -46z" glyph-name="uniE459" horiz-adv-x="679" unicode=""/><glyph d="M74 313q0 193 100 348.5t256 155.5q127 0 192.5 -90t65.5 -229q0 -193 -100.5 -348.5t-255.5 -155.5q-127 0 -192.5 90t-65.5 229zM428 727q-109 0 -183.5 -125t-74.5 -287q0 -104 41 -167.5t123 -63.5q109 0 183.5 125t74.5 287q0 104 -41 167.5t-123 63.5z" glyph-name="uniE500" horiz-adv-x="796" unicode=""/><glyph d="M133 0l119 680l-168 -86l18 108l193 101h72l-142 -803h-92z" glyph-name="uniE501" horiz-adv-x="464" unicode=""/><glyph d="M537 90l-17 -90h-512l12 70q264 188 383 307q119 123 119 217q0 57 -38 93t-103 36q-61 0 -115.5 -40t-66.5 -142h-93q8 80 39 137t75 85t83 39t80 11q104 0 169.5 -59.5t65.5 -151.5q0 -137 -151 -289q-90 -90 -268 -223h338z" glyph-name="uniE502" horiz-adv-x="702" unicode=""/><glyph d="M10 92l58 72q119 -80 227 -80q90 0 129 42t39 95q0 63 -60.5 106.5t-164.5 45.5l14 82q125 -6 190.5 43t65.5 118q0 49 -40 83t-97.5 34t-103.5 -28.5t-52 -94.5h-92q6 104 83 155.5t171 51.5q96 0 161.5 -54t65.5 -138q0 -78 -49 -135.5t-131 -81.5q137 -55 137 -183 q0 -90 -63.5 -160.5t-204.5 -70.5q-156 0 -283 98z" glyph-name="uniE503" horiz-adv-x="708" unicode=""/><glyph d="M453 0h-93l29 172h-375l13 66l305 565h106l-297 -541h265l49 279l98 24l-53 -303h121l-17 -90h-121z" glyph-name="uniE504" horiz-adv-x="729" unicode=""/><glyph d="M190 807h416l-14 -90h-326l-43 -234h33q150 0 225.5 -68.5t75.5 -168.5q0 -94 -64.5 -173t-207.5 -79q-154 0 -279 98l57 72q115 -80 224 -80q90 0 133 47t43 111q0 66 -55.5 110.5t-176.5 44.5h-114z" glyph-name="uniE505" horiz-adv-x="692" unicode=""/><glyph d="M561 807l-244 -266q18 4 37 4q106 0 174 -68.5t68 -171.5q0 -125 -86 -218t-211 -93q-119 0 -187.5 75.5t-68.5 178.5q0 123 121 250l282 309h115zM203 401q-61 -61 -62 -149q0 -70 43 -119t117 -49q82 0 140.5 64.5t58.5 150.5q0 70 -43 118t-117 48q-80 -1 -137 -64z " glyph-name="uniE506" horiz-adv-x="712" unicode=""/><glyph d="M100 713l17 90h485l-12 -72l-449 -731h-108l440 713h-373z" glyph-name="uniE507" horiz-adv-x="614" unicode=""/><glyph d="M606 244q0 -106 -77.5 -178t-206.5 -72q-123 0 -200 62.5t-77 156.5q0 82 49 145.5t133 85.5q-82 53 -82 145.5t69 160t183 67.5q113 0 179.5 -55t66.5 -141q0 -152 -145 -203q108 -57 108 -174zM317 78q96 0 144.5 49t48.5 117q0 63 -46 102t-128 39q-94 0 -144.5 -50 t-50.5 -122q0 -57 48 -96t128 -39zM383 467q78 0 122 46t44 103q0 51 -39 85t-113 34q-70 0 -113.5 -43t-43.5 -102q0 -51 40 -87t103 -36z" glyph-name="uniE508" horiz-adv-x="749" unicode=""/><glyph d="M113 0l243 266q-18 -4 -37 -4q-106 0 -173.5 68.5t-67.5 171.5q0 125 86 218t211 93q119 0 187.5 -75.5t68.5 -178.5q0 -123 -121 -250l-283 -309h-114zM471 406q61 61 61 149q0 70 -43 119t-116 49q-82 0 -140.5 -64.5t-58.5 -150.5q0 -70 43 -118t117 -48q80 1 137 64z " glyph-name="uniE509" horiz-adv-x="712" unicode=""/><glyph d="M229 1196q0 193 100.5 348.5t256.5 155.5q127 0 192.5 -90t65.5 -230q0 -193 -100.5 -348t-256.5 -155q-127 0 -192.5 90t-65.5 229zM584 1610q-109 0 -183.5 -125t-74.5 -287q0 -104 41 -167.5t122 -63.5q109 0 184 125t75 286q0 104 -41 168t-123 64z" glyph-name="uniE520" horiz-adv-x="796" unicode=""/><glyph d="M289 887l119 680l-168 -86l18 108l193 101h71l-141 -803h-92z" glyph-name="uniE521" horiz-adv-x="464" unicode=""/><glyph d="M692 977l-16 -90h-512l12 69q264 188 383 308q119 123 119 217q0 57 -38 93t-103 36q-61 0 -115.5 -40t-67.5 -143h-92q8 80 39 137.5t75 85t83 39t80 11.5q104 0 169.5 -59.5t65.5 -151.5q0 -137 -151 -289q-90 -90 -269 -223h338z" glyph-name="uniE522" horiz-adv-x="702" unicode=""/><glyph d="M166 975l57 72q119 -80 228 -80q90 0 128.5 42t38.5 95q0 63 -60 106t-165 45l15 82q125 -6 190.5 43.5t65.5 118.5q0 49 -40 83t-97.5 34t-103.5 -28.5t-52 -94.5h-92q6 104 82.5 155.5t170.5 51.5q96 0 162 -54.5t66 -138.5q0 -78 -49 -135t-131 -82q137 -55 137 -182 q0 -90 -63.5 -160.5t-204.5 -70.5q-156 0 -283 98z" glyph-name="uniE523" horiz-adv-x="708" unicode=""/><glyph d="M608 887h-92l29 172h-375l12 65l305 566h107l-297 -541h264l49 278l99 25l-54 -303h121l-16 -90h-121z" glyph-name="uniE524" horiz-adv-x="729" unicode=""/><glyph d="M348 1690h416l-14 -91h-326l-43 -233h33q150 0 225.5 -68.5t75.5 -169.5q0 -94 -64.5 -172.5t-208.5 -78.5q-154 0 -278 98l57 72q115 -80 223 -80q90 0 133.5 47t43.5 110q0 66 -55.5 111t-176.5 45h-115z" glyph-name="uniE525" horiz-adv-x="692" unicode=""/><glyph d="M719 1690l-244 -267q18 4 37 4q106 0 174 -68.5t68 -170.5q0 -125 -86 -218t-211 -93q-119 0 -187.5 75.5t-68.5 177.5q0 123 121 250l282 310h115zM360 1284q-61 -61 -61 -149q0 -70 43 -119t117 -49q82 0 140 64.5t58 150.5q0 70 -43 118t-116 48q-81 -1 -138 -64z" glyph-name="uniE526" horiz-adv-x="712" unicode=""/><glyph d="M256 1599l16 91h486l-13 -72l-448 -731h-109l441 712h-373z" glyph-name="uniE527" horiz-adv-x="614" unicode=""/><glyph d="M762 1126q0 -106 -78 -177.5t-207 -71.5q-123 0 -199.5 62t-76.5 157q0 82 49 145.5t133 85.5q-82 53 -82 145.5t68.5 160t183.5 67.5q113 0 179.5 -55.5t66.5 -141.5q0 -152 -146 -203q109 -57 109 -174zM473 961q96 0 144.5 49t48.5 116q0 63 -46.5 102.5t-127.5 39.5 q-94 0 -144.5 -50.5t-50.5 -121.5q0 -57 48 -96t128 -39zM539 1350q78 0 122 46t44 103q0 51 -39 85t-113 34q-70 0 -114 -43t-44 -102q0 -51 40.5 -87t103.5 -36z" glyph-name="uniE528" horiz-adv-x="749" unicode=""/><glyph d="M270 887l244 266q-18 -4 -37 -4q-106 0 -173.5 68.5t-67.5 171.5q0 125 86 218t210 93q119 0 187.5 -76t68.5 -178q0 -123 -120 -250l-283 -309h-115zM629 1292q61 61 61 150q0 70 -43 119t-117 49q-82 0 -140 -64.5t-58 -150.5q0 -70 43 -118t117 -48q80 0 137 63z" glyph-name="uniE529" horiz-adv-x="712" unicode=""/><glyph d="M78 221l190 156q-49 80 -49 176q0 160 107 268l-115 156l78 59l110 -151q90 59 193 59q121 0 205 -67l192 159l62 -78l-191 -155q49 -80 49 -176q0 -160 -106 -269l115 -155l-78 -60l-111 152q-90 -59 -192 -59q-121 0 -205 67l-193 -160zM588 844q-104 0 -182 -88 t-78 -197q0 -94 57 -158.5t156 -64.5q104 0 182 88t78 197q0 94 -57.5 158.5t-155.5 64.5z" glyph-name="uniE600" horiz-adv-x="1099" unicode=""/><glyph d="M213 754l18 102h197l111 326h104l-111 -326h320l111 326h104l-111 -326h179l-19 -102h-194l-111 -326h180l-18 -102h-197l-110 -326h-105l111 326h-320l-110 -326h-105l111 326h-178l18 102h195l110 326h-180zM498 754l-111 -326h320l110 326h-319z" glyph-name="uniE601" horiz-adv-x="1179" unicode=""/><glyph d="M340 -152l33 197q-139 23 -215 96.5t-76 180.5v16l108 14v-20q0 -92 79 -144.5t220 -52.5q260 0 261 176q0 20 -7.5 41t-15.5 36t-29.5 33.5t-34 29t-42 27t-43 23.5t-49 24.5t-46.5 23.5q-72 37 -110.5 59.5t-87.5 61.5t-70.5 86t-21.5 106q0 133 100 208t254 75h18 l35 188h102l-36 -200q119 -25 191.5 -100t72.5 -193v-21h-107v23q0 104 -83 153t-197 49q-111 0 -176.5 -46t-65.5 -130q0 -43 17.5 -75.5t60.5 -63.5t69.5 -45t90.5 -45q84 -39 128 -63.5t97 -64.5t75.5 -86t22.5 -103q0 -123 -92 -205t-272 -82h-27l-31 -187h-100z" glyph-name="uniE602" horiz-adv-x="1011" unicode=""/><glyph d="M172 893q0 123 84 214t209 91q113 0 184.5 -72.5t71.5 -175.5q0 -123 -84 -214t-209 -91q-113 0 -184.5 73t-71.5 175zM459 1104q-80 0 -135.5 -60.5t-55.5 -144.5q0 -68 46 -114t120 -46q80 0 135.5 60.5t55.5 144.5q0 68 -46 114t-120 46zM287 0h-117l1059 1182h117z M795 229q0 123 84 214.5t208 91.5q113 0 184.5 -73t71.5 -175q0 -123 -83.5 -214t-208.5 -91q-113 0 -184.5 72.5t-71.5 174.5zM1081 440q-80 0 -135 -60.5t-55 -143.5q0 -68 46 -114t120 -46q80 0 135 60.5t55 144.5q0 68 -46 113.5t-120 45.5z" glyph-name="uniE603" horiz-adv-x="1482" unicode=""/><glyph d="M356 0l35 203q-119 25 -187.5 120t-68.5 220q0 172 111.5 305t283.5 139l33 195h103l-37 -205q96 -23 156.5 -86.5t82.5 -149.5l-104 -32q-20 78 -76.5 128t-150.5 50q-125 0 -208 -102.5t-83 -237.5q0 -109 61.5 -180.5t169.5 -71.5q168 0 262 182l99 -41 q-123 -231 -346 -241l-33 -195h-103z" glyph-name="uniE604" horiz-adv-x="948" unicode=""/><glyph d="M74 0l12 80q195 156 201 403h-156l19 99h126q-4 29 -14 79t-16 93t-6 82q0 166 99 265t245 99q127 0 211 -78t84 -200q0 -14 -5 -52h-104q4 29 4 41q0 86 -55 137.5t-137 51.5q-98 0 -168 -72t-70 -199q0 -37 6 -76.5t17.5 -91t15.5 -79.5h299l-16 -99h-275 q0 -227 -151 -379h493l-16 -104h-643z" glyph-name="uniE605" horiz-adv-x="931" unicode=""/><glyph d="M580 547l464 635h136l-504 -672h293l-19 -102h-334l-22 -132h334l-19 -102h-334l-30 -174h-107l31 174h-334l17 102h333l23 132h-332l19 102h288l-262 672h121z" glyph-name="uniE606" horiz-adv-x="1167" unicode=""/><glyph d="M172 893q0 123 84 214t209 91q113 0 184.5 -72.5t71.5 -175.5q0 -123 -84 -214t-209 -91q-113 0 -184.5 73t-71.5 175zM459 1104q-80 0 -135.5 -60.5t-55.5 -144.5q0 -68 46 -114t120 -46q80 0 135.5 60.5t55.5 144.5q0 68 -46 114t-120 46zM287 0h-117l1059 1182h117z M795 229q0 123 84 214.5t208 91.5q113 0 184.5 -73t71.5 -175q0 -123 -83.5 -214t-208.5 -91q-113 0 -184.5 72.5t-71.5 174.5zM1081 440q-80 0 -135 -60.5t-55 -143.5q0 -68 46 -114t120 -46q80 0 135 60.5t55 144.5q0 68 -46 113.5t-120 45.5zM1438 229q0 123 84 214.5 t209 91.5q113 0 184.5 -73t71.5 -175q0 -123 -84 -214t-209 -91q-113 0 -184.5 72.5t-71.5 174.5zM1724 440q-80 0 -135 -60.5t-55 -143.5q0 -68 46 -114t120 -46q80 0 135 60.5t55 144.5q0 68 -46 113.5t-120 45.5z" glyph-name="uniE607" horiz-adv-x="2099" unicode=""/><glyph d="M1004 172l57 -84q-150 -106 -318 -106q-199 0 -327.5 112.5t-165.5 292.5h-162l18 98h132v29q0 92 24 180h-119l17 99h133q76 190 230.5 298.5t332.5 108.5q244 0 385 -180l-86 -66q-113 141 -303 142q-135 0 -254 -80t-184 -223h659l-43 -99h-653q-25 -106 -25 -180v-29 h600l-43 -98h-542q33 -135 132 -218t253 -83q131 0 252 86z" glyph-name="uniE608" horiz-adv-x="1267" unicode=""/><glyph d="M199 772l18 102h385q-12 88 -77.5 147.5t-182.5 59.5h-90l18 101h678l-45 -101h-303q102 -78 113 -207h180l-43 -102h-141q-27 -162 -139.5 -257t-278.5 -97l338 -418h-135l-355 434l15 86h131q125 0 206.5 68.5t106.5 183.5h-399z" glyph-name="uniE609" horiz-adv-x="952" unicode=""/><glyph d="M492 0h-138l-10 434h-238l17 103h219l-2 125h-195l17 100h176l-8 420h110l17 -996l364 996h133l7 -994l368 994h117l-158 -420h176l-18 -100h-195l-47 -125h221l-18 -103h-242l-161 -434h-138l-10 999z" glyph-name="uniE610" horiz-adv-x="1540" unicode=""/><glyph d="M86 244l18 106h105l18 109h-104l18 102h105l108 621h308q190 0 285 -91.5t95 -230.5q0 -160 -106.5 -280.5t-296.5 -120.5h-301l-21 -109h347l-19 -106h-346l-41 -244h-111l43 244h-104zM354 561h283q127 0 209 83t82 208q0 100 -68.5 163.5t-218.5 63.5h-195z" glyph-name="uniE611" horiz-adv-x="1081" unicode=""/><glyph d="M143 592l19 108l155 45l76 437h109l-72 -402l492 146l-19 -109l-493 -145l-25 -142l494 146l-19 -107l-493 -145l-56 -322h209q129 0 213 71t119 192l102 -27q-102 -338 -440 -338h-328l68 389l-154 -45l19 107l153 45l25 141z" glyph-name="uniE612" horiz-adv-x="1073" unicode=""/><glyph d="M965 305l198 -305h-135l-145 225q-272 -244 -488 -243q-152 0 -236.5 80.5t-84.5 201.5q0 74 32.5 143.5t73.5 114.5t116 97.5t117 75t122 63.5q-125 195 -125 332q0 156 104 259t254 103q135 0 215 -79t80 -195q0 -72 -31 -138.5t-70.5 -112.5t-107.5 -95.5t-112 -75 t-115 -64.5q-14 -6 -62.5 -31.5t-68 -37t-64.5 -37t-66.5 -42t-56.5 -43t-53 -50t-37.5 -52t-28 -59.5t-8.5 -64q0 -82 57.5 -138t161.5 -56q184 0 463 266q129 123 303 346l78 -67q-149 -191 -280 -322zM958 1169q0 80 -51 131.5t-143 51.5q-94 0 -169 -70t-75 -190 q0 -113 115 -281q57 33 91 53.5t84 57t77.5 70.5t49 81t21.5 96z" glyph-name="uniE650" horiz-adv-x="1310" unicode=""/><glyph d="M713 893l-49 -96q-111 41 -164 155q-119 -68 -190.5 -190.5t-71.5 -261.5q0 -176 122.5 -297t323.5 -121q205 0 347.5 150.5t142.5 363.5q0 117 -52 209l-155 -88q-162 -88 -162 -213q0 -74 49 -119l-78 -72q-80 80 -80 189q0 178 222 301l339 192q166 94 166 217 q0 76 -65 123l78 74q94 -74 94 -195q0 -178 -223 -305l-90 -51q63 -117 63 -256q0 -256 -172 -440.5t-426 -184.5q-248 0 -400.5 151t-152.5 368q0 174 90 322.5t252 234.5q-2 16 -2 49q0 141 105.5 248.5t256.5 107.5q119 0 202 -64.5t110 -160.5l-99 -37q-18 68 -75.5 113 t-139.5 45q-102 0 -176.5 -76t-74.5 -184q0 -70 36 -122t99 -79z" glyph-name="uniE651" horiz-adv-x="1519" unicode=""/><glyph d="M258 74l61 -35q-88 -70 -137 -114t-97 -111.5t-48 -122.5q0 -84 106 -84q25 0 50 6l4 -94q-33 -8 -66 -8q-92 0 -143 41.5t-51 115.5q0 98 78.5 189.5t242.5 216.5z" glyph-name="uniE700" horiz-adv-x="299" unicode=""/><glyph d="M23 -555l-48 47q113 113 127 203q-37 -14 -67.5 7.5t-30.5 58t25.5 61t62.5 24.5t63.5 -27.5t26.5 -80.5q0 -59 -40.5 -142t-118.5 -151z" glyph-name="uniF6C3" horiz-adv-x="227" unicode=""/><glyph d="M332 631l22 133q-82 20 -128 85.5t-46 149.5q0 115 78 206t193 100l22 129h84l-22 -138q127 -37 161 -168l-88 -28q-39 115 -143 114q-80 0 -134.5 -63.5t-54.5 -151.5q0 -68 39 -110.5t107 -42.5q113 0 168 117l86 -33q-74 -158 -238 -172l-22 -127h-84z" glyph-name="uniF6E0" horiz-adv-x="675" unicode=""/><glyph d="M319 530l23 134q-94 20 -145.5 73.5t-46.5 126.5l94 15q-4 -66 48 -102t144 -36q70 0 116 27t46 80q0 12 -3 24.5t-9 22.5t-12.5 18.5t-18.5 16.5t-20.5 14t-25.5 14.5t-25.5 12.5t-30 13t-29.5 13q-100 45 -150.5 92.5t-50.5 122.5q0 90 69.5 143.5t176.5 53.5h6l23 125 h86l-25 -135q86 -20 135 -74.5t43 -142.5h-94q2 72 -45 106.5t-131 34.5q-55 0 -101.5 -26.5t-46.5 -79.5q0 -47 36 -78t110 -64q59 -27 91 -44t69 -45t53 -60.5t16 -75.5q0 -90 -72.5 -142.5t-181.5 -52.5h-12l-22 -125h-87z" glyph-name="uniF6E4" horiz-adv-x="718" unicode=""/><glyph d="M1253 674q-12 -4 -17 -11.5t-2 -15.5t13 -14l51 -37q16 -10 14.5 -20.5t-20.5 -12.5l-61 -12q-18 -2 -21.5 -14.5t7.5 -24.5l43 -45q14 -12 11 -22.5t-24 -8.5l-63 2q-18 0 -24.5 -10t3.5 -27l33 -53q8 -16 3 -24.5t-21 -1.5l-62 14q-16 4 -25.5 -5t-3.5 -26l21 -59 q6 -16 -1 -23.5t-24 0.5l-57 27q-35 16 -35 -25l10 -61q2 -18 -6 -23.5t-22 4.5l-51 41q-14 10 -25.5 5t-13.5 -23l-2 -64q-6 -37 -33 -10l-41 49q-27 29 -41 -8l-18 -61q-4 -18 -14.5 -19.5t-18.5 15.5l-31 55q-20 37 -43 0l-27 -55q-6 -10 -13 -14.5t-13 0.5t-8 18l-19 61 q-12 39 -39 8l-43 -49q-27 -31 -30 10l-5 64q-4 41 -41 18l-49 -41q-14 -10 -22 -5t-4 24l8 61q2 18 -9.5 25.5t-27.5 -0.5l-55 -27q-16 -8 -23.5 -1t-1.5 24l21 59q6 16 -2.5 25.5t-24.5 5.5l-63 -14q-16 -6 -22.5 3t3.5 23l35 53q8 16 2 26.5t-23 10.5l-65 -2 q-18 -2 -22.5 8.5t8.5 22.5l47 45q12 12 7 24.5t-24 14.5l-61 12q-18 2 -20.5 12.5t14.5 20.5l51 37q10 6 12 10q18 10 33 -12l29 -53q6 -12 12 -15.5t11 0.5t9 17l17 57q6 20 18 23.5t23 -13.5l43 -47q10 -14 19 -10t11 22l5 62q8 43 40 16l50 -37q14 -12 22 -7t4 24l-6 61 q-2 18 7.5 25.5t25.5 -0.5l57 -27q16 -8 23.5 -1t-0.5 24l-19 61q-6 16 2.5 24.5t24.5 6.5l35 -10q51 -66 84 -194t33 -206q-12 -14 -42 -24.5t-56.5 -4t-26.5 32.5q0 35 -24 60.5t-64 25.5q-35 0 -60.5 -26.5t-25.5 -63.5q0 -51 43 -85t114 -34q141 0 277 115 q98 84 156.5 203t58.5 215q0 70 -32 108.5t-83 38.5q-43 0 -72.5 -30.5t-29.5 -73.5t29.5 -75t70.5 -32q-23 -115 -84 -196q0 119 -40 226.5t-109 152.5q-4 4 -5 8l-45 43q-29 29 13 41l63 10q10 2 15.5 7t3.5 12.5t-13 13.5l-53 37q-35 25 4 41l57 26q18 4 18.5 14.5 t-18.5 18.5l-57 25q-23 2 -18 24q12 6 14 15l31 55q4 10 11 14t13 -1t9 -15l18 -62q14 -41 41 -10l41 51q27 27 33 -12l2 -61q2 -20 13 -24.5t26 5.5l51 39q14 10 22.5 5t5.5 -23l-10 -62q0 -41 35 -24l57 28q16 8 23.5 1t1.5 -25l-21 -60q-6 -16 3.5 -25.5t25.5 -4.5l62 14 q16 6 21 -1t-3 -24l-33 -53q-20 -39 21 -39l63 4q20 2 23.5 -9t-10.5 -23l-43 -46q-10 -12 -7.5 -24t21.5 -14l61 -11q18 -4 20.5 -14t-14.5 -18l-51 -37q-10 -6 -13 -15.5t2 -16.5t17 -11l58 -23q31 -16 0 -35z" glyph-name="uniF8FF" horiz-adv-x="1398" unicode=""/></font>
</defs>
</svg>
