<?xml version="1.0" standalone="no"?>
<!DOCTYPE svg PUBLIC "-//W3C//DTD SVG 1.1//EN" "http://www.w3.org/Graphics/SVG/1.1/DTD/svg11.dtd">
<svg xmlns="http://www.w3.org/2000/svg"><metadata>This SVG WebFont was generated by YouWorkForThem.
Copyright (c) 2018 by Ryan Martinson. All rights reserved.</metadata><defs><font horiz-adv-x="1669" id="ywftsvg"><font-face ascent="1638" bbox="-395 -983 2834 2001" cap-height="1434" descent="-410" font-family="" font-stretch="normal" font-weight="500" panose-1="2 11 6 3 4 0 0 2 0 3" underline-position="0" underline-thickness="0" unicode-range="U+0020-FB04" units-per-em="2048" x-height="1024"/><missing-glyph d="M276 0v1434h838v-1434h-838zM442 160h506v1114h-506v-1114z" horiz-adv-x="1390"/><glyph d="M55 836v188h189v70q0 197 90 289t244 92q113 0 229 -50l-51 -170q-76 33 -138 33q-78 0 -121.5 -42t-43.5 -154v-68h338v-188h-338v-836h-209v836h-189zM782 -381l31 180q51 -10 70 -10q102 0 102 133v1102h209v-1120q0 -152 -76 -227.5t-207 -75.5q-68 0 -129 18z M1089.5 1184q-57.5 0 -95.5 39t-38 94t38 94t95.5 39t96.5 -39t39 -94t-39 -94t-96.5 -39z" glyph-name="uniE200" horiz-adv-x="1355" unicode="fj"/><glyph d="M55 836v188h189v70q0 197 90 289t244 92q131 0 253 -58l-55 -166q-86 37 -158 37q-78 0 -121.5 -42t-43.5 -154v-68h327v-188h-327v-836h-209v836h-189zM877 836v188h180v70q0 197 89 289t243 92q113 0 229 -50l-51 -170q-72 33 -137 33q-78 0 -122 -42t-44 -154v-68h340 v-188h-340v-836h-207v836h-180zM1593 -381l31 180q51 -10 70 -10q102 0 102 133v1102h209v-1120q0 -152 -76 -227.5t-207 -75.5q-68 0 -129 18zM1900.5 1184q-57.5 0 -95.5 39t-38 94t38 94t95.5 39t96.5 -39t39 -94t-39 -94t-96.5 -39z" glyph-name="uniE201" horiz-adv-x="2166" unicode="ffj"/><glyph d="M55 836v188h189v70q0 197 90 289t244 92q113 0 229 -50l-51 -170q-76 33 -138 33q-78 0 -121.5 -42t-43.5 -154v-68h338v-188h-338v-836h-209v836h-189zM1190 1434v-570q123 182 356 183q209 0 342 -153t133 -382t-133 -380.5t-342 -151.5q-236 0 -356 180v-160h-207 v1434h207zM1186 512q0 -147 89 -244.5t222 -97.5q135 0 223 97.5t88 244.5t-88 245.5t-223 98.5q-133 0 -222 -98.5t-89 -245.5z" glyph-name="uniE202" horiz-adv-x="2129" unicode="fb"/><glyph d="M55 836v188h189v70q0 197 90 289t244 92q131 0 253 -58l-55 -166q-86 37 -158 37q-78 0 -121.5 -42t-43.5 -154v-68h327v-188h-327v-836h-209v836h-189zM877 836v188h180v70q0 197 89 289t243 92q113 0 229 -50l-51 -170q-72 33 -137 33q-78 0 -122 -42t-44 -154v-68h340 v-188h-340v-836h-207v836h-180zM2003 1434v-570q123 182 356 183q209 0 342 -153t133 -382t-133 -380.5t-342 -151.5q-236 0 -356 180v-160h-207v1434h207zM1999 512q0 -147 89 -244.5t222 -97.5q135 0 223 97.5t88 244.5t-88 245.5t-223 98.5q-133 0 -222 -98.5t-89 -245.5 z" glyph-name="uniE203" horiz-adv-x="2940" unicode="ffb"/><glyph d="M55 836v188h189v70q0 197 90 289t244 92q113 0 229 -50l-51 -170q-76 33 -138 33q-78 0 -121.5 -42t-43.5 -154v-68h338v-188h-338v-836h-209v836h-189zM1696 0l-279 418h-225v-418h-209v1434h209v-828h221l252 418h227l-305 -504l348 -520h-239z" glyph-name="uniE204" horiz-adv-x="1976" unicode="fk"/><glyph d="M55 836v188h189v70q0 197 90 289t244 92q131 0 253 -58l-55 -166q-86 37 -158 37q-78 0 -121.5 -42t-43.5 -154v-68h327v-188h-327v-836h-209v836h-189zM877 836v188h180v70q0 197 89 289t243 92q113 0 229 -50l-51 -170q-72 33 -137 33q-78 0 -122 -42t-44 -154v-68h340 v-188h-340v-836h-207v836h-180zM2509 0l-279 418h-225v-418h-209v1434h209v-828h221l252 418h227l-305 -504l348 -520h-239z" glyph-name="uniE205" horiz-adv-x="2789" unicode="ffk"/><glyph d="M55 836v188h189v70q0 197 90 289t244 92q113 0 229 -50l-51 -170q-76 33 -138 33q-78 0 -121.5 -42t-43.5 -154v-68h338v-188h-338v-836h-209v836h-189zM1716 0v588q0 137 -62.5 202.5t-162.5 65.5q-131 0 -215 -96t-84 -228v-532h-209v1434h209v-572q117 184 352 185 q174 0 277.5 -108t103.5 -323v-616h-209z" glyph-name="uniE206" horiz-adv-x="2076" unicode="fh"/><glyph d="M55 836v188h189v70q0 197 90 289t244 92q131 0 253 -58l-55 -166q-86 37 -158 37q-78 0 -121.5 -42t-43.5 -154v-68h327v-188h-327v-836h-209v836h-189zM877 836v188h180v70q0 197 89 289t243 92q113 0 229 -50l-51 -170q-72 33 -137 33q-78 0 -122 -42t-44 -154v-68h340 v-188h-340v-836h-207v836h-180zM2529 0v588q0 137 -62.5 202.5t-162.5 65.5q-131 0 -215 -96t-84 -228v-532h-209v1434h209v-572q117 184 352 185q174 0 277.5 -108t103.5 -323v-616h-209z" glyph-name="uniE207" horiz-adv-x="2889" unicode="ffh"/><glyph d="M55 836v188h189v70q0 197 90 289t244 92q113 0 229 -50l-51 -170q-76 33 -138 33q-78 0 -121.5 -42t-43.5 -154v-68h327v-188h-327v-836h-209v836h-189zM877 836v188h180v293l209 69v-362h362v-188h-362v-471q0 -195 153 -195q74 0 178 61l72 -172q-119 -80 -278 -79 q-334 0 -334 397v459h-180z" glyph-name="uniE208" horiz-adv-x="1697" unicode="ft"/><glyph d="M55 836v188h189v70q0 197 90 289t244 92q131 0 253 -58l-55 -166q-86 37 -158 37q-78 0 -121.5 -42t-43.5 -154v-68h327v-188h-327v-836h-209v836h-189zM877 836v188h180v70q0 197 89 289t243 92q113 0 229 -50l-51 -170q-72 33 -137 33q-78 0 -122 -42t-44 -154v-68h329 v-188h-329v-836h-207v836h-180zM1690 836v188h178v293l209 69v-362h364v-188h-364v-471q0 -195 153 -195q72 0 180 61l72 -172q-123 -80 -280 -79q-334 0 -334 397v459h-178z" glyph-name="uniE209" horiz-adv-x="2508" unicode="fft"/><glyph d="M913 836v188h181v293l209 69v-362h364v-188h-364v-471q0 -195 153 -195q72 0 180 61l72 -172q-123 -80 -281 -79q-334 0 -333 397v459h-181zM47 836v188h191v293l206 69v-362h357v-188h-357v-471q0 -195 156 -195q74 0 178 61l72 -172q-119 -80 -279 -79q-334 0 -333 397 v459h-191z" glyph-name="uniE210" horiz-adv-x="1734" unicode="tt"/><glyph d="M55 836v188h189v70q0 197 90 289t244 92q131 0 253 -58l-55 -166q-86 37 -158 37q-78 0 -121.5 -42t-43.5 -154v-68h327v-188h-327v-836h-209v836h-189zM877 836v188h180v70q0 197 89 289t243 92q135 0 253 -58l-55 -166q-86 37 -157 37q-78 0 -122 -42t-44 -154v-68h340 v-188h-340v-836h-207v836h-180z" glyph-name="uniFB00" horiz-adv-x="1640" unicode="ff"/><glyph d="M55 836v188h189v70q0 197 90 289t244 92q113 0 229 -50l-51 -170q-76 33 -138 33q-78 0 -121.5 -42t-43.5 -154v-68h338v-188h-338v-836h-209v836h-189zM983 0v1024h209v-1024h-209zM1085 1184q-55 0 -94 39t-39 94t39 94t94 39q57 0 96.5 -39t39.5 -94t-39.5 -94 t-96.5 -39z" glyph-name="uniFB01" horiz-adv-x="1355" unicode="fi"/><glyph d="M55 836v188h189v70q0 197 90 289t244 92q113 0 229 -50l-51 -170q-76 33 -138 33q-78 0 -121.5 -42t-43.5 -154v-68h338v-188h-338v-836h-209v836h-189zM983 0v1434h209v-1434h-209z" glyph-name="uniFB02" horiz-adv-x="1355" unicode="fl"/><glyph d="M55 836v188h189v70q0 197 90 289t244 92q131 0 253 -58l-55 -166q-86 37 -158 37q-78 0 -121.5 -42t-43.5 -154v-68h327v-188h-327v-836h-209v836h-189zM877 836v188h178v70q0 197 90 289t244 92q113 0 229 -50l-51 -170q-76 33 -137 33q-78 0 -122 -42t-44 -154v-68h340 v-188h-340v-836h-209v836h-178zM1796 0v1024h209v-1024h-209zM1898 1184q-55 0 -94 39t-39 94t39 94t94 39q57 0 96.5 -39t39.5 -94t-39.5 -94t-96.5 -39z" glyph-name="uniFB03" horiz-adv-x="2166" unicode="ffi"/><glyph d="M55 836v188h189v70q0 197 90 289t244 92q131 0 253 -58l-55 -166q-86 37 -158 37q-78 0 -121.5 -42t-43.5 -154v-68h327v-188h-327v-836h-209v836h-189zM877 836v188h180v70q0 197 89 289t243 92q113 0 229 -50l-51 -170q-72 33 -137 33q-78 0 -122 -42t-44 -154v-68h340 v-188h-340v-836h-207v836h-180zM1796 0v1434h209v-1434h-209z" glyph-name="uniFB04" horiz-adv-x="2166" unicode="ffl"/><glyph d="M276 0v1434h838v-1434h-838zM442 160h506v1114h-506v-1114z" glyph-name=".notdef" horiz-adv-x="1390"/><glyph glyph-name="glyph1" horiz-adv-x="0"/><glyph glyph-name="glyph2" horiz-adv-x="681"/><glyph glyph-name="space" horiz-adv-x="536" unicode=" "/><glyph d="M172 1434h242l-47 -992h-148zM160 111q0 53 39 92t94 39q53 0 92 -39t39 -92q0 -55 -39 -93t-92 -38q-55 0 -94 38t-39 93z" glyph-name="exclam" horiz-adv-x="585" unicode="!"/><glyph d="M342 819h-174l-23 615h220zM758 819h-174l-23 615h219z" glyph-name="quotedbl" horiz-adv-x="925" unicode="&quot;"/><glyph d="M176 891v182h250l59 361h187l-60 -361h330l59 361h187l-60 -361h218v-182h-248l-60 -348h222v-183h-252l-60 -360h-186l59 360h-329l-60 -360h-184l59 360h-217v183h248l57 348h-219zM582 891l-60 -348h330l59 348h-329z" glyph-name="numbersign" horiz-adv-x="1435" unicode="#"/><glyph d="M492 -172v221q-168 23 -271.5 112t-120.5 242l201 56q20 -229 297 -230q123 0 192.5 47.5t69.5 129.5q0 23 -5 42t-17.5 35.5t-23.5 29.5t-34.5 26.5t-38 20.5t-48.5 19.5t-49 17.5t-55 18.5t-54 17.5q-201 66 -310.5 155t-109.5 250q0 150 101 245t276 110v215h184v-222 q162 -27 261 -126t99 -263v-28h-202v16q0 113 -74 169t-195 56q-113 0 -175 -47t-62 -127q0 -47 19.5 -80.5t60.5 -57.5t79.5 -39t100.5 -36q14 -4 20 -6q233 -76 348 -163t115 -248q0 -156 -105.5 -250.5t-289.5 -110.5v-217h-184z" glyph-name="dollar" horiz-adv-x="1167" unicode="$"/><glyph d="M80 1110q0 143 100.5 243.5t247.5 100.5t248.5 -100.5t101.5 -243.5q0 -145 -101.5 -245.5t-248.5 -100.5t-247.5 100.5t-100.5 245.5zM260 1110q0 -72 48 -121t120 -49t121 49t49 121t-49 121t-121 49t-120 -49t-48 -121zM418 0h-211l1061 1434h213zM909 324 q0 145 101.5 245.5t249.5 100.5q145 0 246.5 -100.5t101.5 -245.5q0 -143 -101.5 -243.5t-246.5 -100.5q-147 0 -249 100.5t-102 243.5zM1090 323.5q0 -71.5 48 -120.5t119.5 -49t120.5 49t49 120.5t-49 121t-120.5 49.5t-119.5 -49.5t-48 -121z" glyph-name="percent" horiz-adv-x="1687" unicode="%"/><glyph d="M1389 0h-281l-178 197q-233 -217 -465 -217q-168 0 -270.5 92t-102.5 237q0 139 87 239.5t251 205.5q-150 186 -149 346q0 152 108.5 253t269.5 101q158 0 260.5 -95t102.5 -237q0 -119 -76 -213t-211 -186l209 -234q100 115 203 263l158 -117q-98 -143 -230 -291z M483 164q141 0 318 176l-242 270q-131 -82 -194.5 -143t-63.5 -139q0 -70 49 -117t133 -47zM487 1098q0 -92 121 -236q111 70 165 127.5t54 124.5q0 72 -46 115t-117 43q-78 0 -127.5 -49t-49.5 -125z" glyph-name="ampersand" horiz-adv-x="1411" unicode="&amp;"/><glyph d="M342 819h-174l-23 615h220z" glyph-name="quotesingle" horiz-adv-x="509" unicode="'"/><glyph d="M408 1501l174 -108q-246 -377 -246 -858q0 -483 246 -861l-174 -108q-293 434 -293 969q0 536 293 966z" glyph-name="parenleft" horiz-adv-x="651" unicode="("/><glyph d="M70 1393l174 108q293 -430 293 -966q0 -535 -293 -969l-174 108q246 377 245 861q1 481 -245 858z" glyph-name="parenright" horiz-adv-x="651" unicode=")"/><glyph d="M582 1434l-21 -301l277 114l53 -162l-293 -71l197 -230l-138 -100l-159 254l-162 -254l-137 100l194 230l-291 71l54 162l276 -114l-20 301h170z" glyph-name="asterisk" horiz-adv-x="993" unicode="*"/><glyph d="M104 764h302v319h188v-319h301v-189h-301v-319h-188v319h-302v189z" glyph-name="plus" horiz-adv-x="999" unicode="+"/><glyph d="M268 -383l-104 88q152 158 145 283q-61 -23 -119.5 16t-58.5 107q0 57 40 100t105 43q74 0 129.5 -58.5t55.5 -172.5q0 -109 -55.5 -219.5t-137.5 -186.5z" glyph-name="comma" horiz-adv-x="569" unicode=","/><glyph d="M743 694v-190h-593v190h593z" glyph-name="hyphen" horiz-adv-x="892" unicode="-"/><glyph d="M127 116.5q0 57.5 41 97.5t98.5 40t98.5 -40t41 -97.5t-41 -97t-98.5 -39.5t-98.5 39.5t-41 97z" glyph-name="period" horiz-adv-x="530" unicode="."/><glyph d="M702 1434h207l-639 -1434h-209z" glyph-name="slash" horiz-adv-x="974" unicode="/"/><glyph d="M123 717q0 317 144.5 527t406.5 210q264 0 409.5 -210t145.5 -527.5t-145.5 -527t-409.5 -209.5q-262 0 -406.5 211t-144.5 526zM342 716.5q0 -239.5 90 -388t242 -148.5q156 0 246 147.5t90 389.5q0 240 -91.5 388t-244.5 148q-152 0 -242 -148.5t-90 -388z" glyph-name="zero" horiz-adv-x="1351" unicode="0"/><glyph d="M74 1022v227l334 185h170v-1434h-213v1182z" glyph-name="one" horiz-adv-x="780" unicode="1"/><glyph d="M1083 201v-201h-968v166q301 246 469 419t217 264t49 171q0 109 -69.5 172t-178.5 63q-115 0 -191.5 -70.5t-76.5 -213.5v-23h-211v25q0 123 43 219t113.5 151.5t153.5 83t173 27.5q193 0 328 -116.5t135 -309.5q0 -172 -134 -359.5t-466 -467.5h614z" glyph-name="two" horiz-adv-x="1202" unicode="2"/><glyph d="M78 111l90 186q231 -119 391 -119q127 0 206 58.5t79 156.5q0 109 -117 172.5t-328 63.5v196q203 0 302.5 72t99.5 170q0 88 -69.5 139t-168.5 51q-100 0 -169.5 -53t-69.5 -133v-10h-211v24q0 164 133 266.5t317 102.5q186 0 321.5 -103.5t135.5 -273.5 q0 -240 -250 -344q293 -98 293 -350q0 -184 -139.5 -293.5t-362.5 -109.5q-247 0 -483 131z" glyph-name="three" horiz-adv-x="1183" unicode="3"/><glyph d="M971 0h-209v299h-684v156l368 979h234l-363 -938h445v454l209 64v-518h211v-197h-211v-299z" glyph-name="four" horiz-adv-x="1255" unicode="4"/><glyph d="M199 1434h790v-201h-579v-363h75q295 0 443.5 -130t148.5 -332q0 -195 -133 -311.5t-369 -116.5q-248 0 -483 131l90 186q225 -119 393 -119q133 0 207 62.5t74 169.5q0 117 -102.5 190.5t-331.5 73.5h-223v760z" glyph-name="five" horiz-adv-x="1179" unicode="5"/><glyph d="M930 1434l-365 -473q47 10 94 10q201 0 332 -136.5t131 -345.5q0 -217 -145.5 -363t-360.5 -146q-217 0 -363.5 144t-146.5 357q0 195 146 393l403 560h275zM618 786q-127 0 -210.5 -88t-83.5 -217q0 -131 82.5 -217t207.5 -86q127 0 210 86t83 217q0 133 -83 219 t-206 86z" glyph-name="six" horiz-adv-x="1216" unicode="6"/><glyph d="M70 1231v203h919v-170l-581 -1264h-248l583 1231h-673z" glyph-name="seven" horiz-adv-x="1048" unicode="7"/><glyph d="M1159 403q0 -195 -149.5 -309t-370.5 -114t-370.5 114.5t-149.5 308.5q0 252 241 359q-188 94 -188 307q0 176 134 280.5t333 104.5t333 -104.5t134 -280.5q0 -211 -188 -307q241 -107 241 -359zM942 414q0 113 -87 183.5t-216 70.5t-216 -71t-87 -183q0 -109 84 -176.5 t219 -67.5q133 0 218 67.5t85 176.5zM893 1059q0 90 -70.5 148.5t-183.5 58.5t-183.5 -58.5t-70.5 -148.5q0 -92 72.5 -150.5t181.5 -58.5t181.5 58.5t72.5 150.5z" glyph-name="eight" horiz-adv-x="1277" unicode="8"/><glyph d="M287 0l364 473q-47 -10 -94 -10q-201 0 -332 136t-131 345q0 217 145.5 363.5t360.5 146.5q217 0 363.5 -144.5t146.5 -357.5q0 -195 -145 -393l-404 -559h-274zM598 647q127 0 211 88t84 217q0 131 -83 217t-208 86q-127 0 -210 -86t-83 -217q0 -133 83 -219t206 -86z " glyph-name="nine" horiz-adv-x="1216" unicode="9"/><glyph d="M139 116.5q0 57.5 41 97.5t98.5 40t98.5 -40t41 -97.5t-41 -97t-98.5 -39.5t-98.5 39.5t-41 97zM139 884.5q0 57.5 41 97.5t98.5 40t98.5 -40t41 -97.5t-41 -97t-98.5 -39.5t-98.5 39.5t-41 97z" glyph-name="colon" horiz-adv-x="557" unicode=":"/><glyph d="M287 -383l-105 88q152 158 146 283q-61 -23 -119.5 16t-58.5 107q0 57 39.5 100t105.5 43q74 0 129 -58.5t55 -172.5q0 -109 -55 -219.5t-137 -186.5zM152 884.5q0 57.5 40.5 97.5t98 40t98.5 -40t41 -97.5t-41 -97t-98.5 -39.5t-98 39.5t-40.5 97z" glyph-name="semicolon" horiz-adv-x="616" unicode=";"/><glyph d="M88 582v180l791 381v-217l-555 -254l555 -254v-217z" glyph-name="less" horiz-adv-x="1032" unicode="&lt;"/><glyph d="M162 803v188h790v-188h-790zM162 354v189h790v-189h-790z" glyph-name="equal" horiz-adv-x="1114" unicode="="/><glyph d="M944 762v-180l-790 -381v217l555 254l-555 254v217z" glyph-name="greater" horiz-adv-x="1030" unicode=">"/><glyph d="M336 111q0 55 39 93t94 38t94 -38t39 -93q0 -53 -39 -92t-94 -39t-94 39t-39 92zM569 436h-198v66q0 106 49 180t147 152q12 10 41 31.5t40 30.5t32.5 28.5t31 33t21.5 33t16.5 40t4.5 42.5q0 84 -62.5 136.5t-156.5 52.5q-104 0 -176 -62.5t-72 -167.5v-14h-211v29 q0 195 139 304t328 109q182 0 306 -104.5t124 -278.5q0 -86 -37 -158.5t-79 -111.5t-112 -92q-98 -74 -137 -120t-39 -112v-47z" glyph-name="question" horiz-adv-x="1058" unicode="?"/><glyph d="M864 922q145 0 242 -101v84h168v-444q0 -119 39 -172t100 -53q74 0 125 83.5t51 229.5q0 299 -190.5 492.5t-480.5 193.5q-293 0 -486.5 -200.5t-193.5 -499.5q0 -297 195.5 -499t484.5 -202q242 0 413 141l70 -96q-201 -160 -486 -160q-342 0 -573 233.5t-231 582.5 q0 350 229 584.5t575 234.5q344 0 573.5 -230.5t229.5 -572.5q0 -215 -93 -327.5t-228 -112.5q-182 0 -256 176q-96 -137 -275 -137q-156 0 -257 109.5t-101 275t101 276.5t255 111zM1108 535q0 104 -60.5 172.5t-154.5 68.5q-92 0 -151.5 -68.5t-59.5 -173t60.5 -173 t152.5 -68.5t152.5 70t60.5 172z" glyph-name="at" horiz-adv-x="1839" unicode="@"/><glyph d="M635 1434h235l609 -1434h-232l-119 285h-755l-117 -285h-229zM752 1200l-297 -719h594z" glyph-name="A" horiz-adv-x="1503" unicode="A"/><glyph d="M203 0v1434h671q207 0 321 -107.5t114 -273.5q0 -221 -187 -318q121 -41 187.5 -131t66.5 -217q0 -168 -116.5 -277.5t-321.5 -109.5h-735zM918 635h-504v-442h504q113 0 176 61t63 153.5t-63 160t-176 67.5zM856 1239h-442v-414h477q88 0 143.5 62.5t55.5 148.5 q0 88 -61.5 145.5t-172.5 57.5z" glyph-name="B" horiz-adv-x="1492" unicode="B"/><glyph d="M1290 522l205 -67q-74 -211 -254 -343t-412 -132q-303 0 -509.5 211.5t-206.5 525t206.5 525.5t509.5 212q231 0 411.5 -132t254.5 -343l-205 -68q-55 154 -178 247t-281 93q-211 0 -354 -153.5t-143 -381t143.5 -381t353.5 -153.5q158 0 281 93t178 247z" glyph-name="C" horiz-adv-x="1579" unicode="C"/><glyph d="M203 0v1434h571q317 0 497.5 -198t180.5 -519.5t-181 -519t-497 -197.5h-571zM758 1233h-344v-1032h344q233 0 353 139t120 376.5t-120 377t-353 139.5z" glyph-name="D" horiz-adv-x="1570" unicode="D"/><glyph d="M203 0v1434h1026v-201h-815v-416h663v-196h-663v-420h815v-201h-1026z" glyph-name="E" horiz-adv-x="1339" unicode="E"/><glyph d="M203 0v1434h987v-201h-776v-485h704v-199h-704v-549h-211z" glyph-name="F" horiz-adv-x="1282" unicode="F"/><glyph d="M799 580v194h684v-774h-187v231q-152 -252 -485 -251q-303 0 -499.5 209.5t-196.5 527.5q0 313 206.5 525t512.5 212q190 0 345.5 -90t252.5 -248l-181 -112q-68 115 -177 182t-240 67q-213 0 -355.5 -153.5t-142.5 -383t137 -383t350 -153.5q170 0 295 104.5t158 295.5 h-477z" glyph-name="G" horiz-adv-x="1622" unicode="G"/><glyph d="M1237 1434h211v-1434h-211v616h-823v-616h-211v1434h211v-617h823v617z" glyph-name="H" horiz-adv-x="1650" unicode="H"/><glyph d="M203 1434h213v-1434h-213v1434z" glyph-name="I" horiz-adv-x="618" unicode="I"/><glyph d="M317 1233v201h846v-918q0 -236 -142 -386t-394 -150t-395.5 150.5t-143.5 385.5v174h213v-151q0 -166 86 -262.5t239.5 -96.5t238.5 96.5t85 262.5v694h-633z" glyph-name="J" horiz-adv-x="1347" unicode="J"/><glyph d="M1165 0l-420 616h-329v-616h-213v1434h213v-617h321l391 617h246l-450 -713l491 -721h-250z" glyph-name="K" horiz-adv-x="1441" unicode="K"/><glyph d="M203 0v1434h211v-1231h768v-203h-979z" glyph-name="L" horiz-adv-x="1239" unicode="L"/><glyph d="M414 0h-211v1434h217l530 -963l533 963h215v-1434h-211v1036l-453 -815h-168l-452 815v-1036z" glyph-name="M" horiz-adv-x="1900" unicode="M"/><glyph d="M414 0h-211v1434h215l827 -1102v1102h211v-1434h-215l-827 1100v-1100z" glyph-name="N" horiz-adv-x="1658" unicode="N"/><glyph d="M115 716.5q0 315.5 206.5 526.5t516.5 211q311 0 518 -211t207 -526.5t-208 -526t-517.5 -210.5t-516 210.5t-206.5 526zM336 716.5q0 -227.5 144.5 -382t357.5 -154.5q215 0 358 153.5t143 383.5q0 227 -143 380.5t-358 153.5q-213 0 -357.5 -153.5t-144.5 -381z" glyph-name="O" horiz-adv-x="1675" unicode="O"/><glyph d="M203 0v1434h579q256 0 402.5 -148.5t146.5 -370t-146.5 -370t-402.5 -148.5h-368v-397h-211zM414 598h323q188 0 280.5 85t92.5 232q0 150 -92 235t-281 85h-323v-637z" glyph-name="P" horiz-adv-x="1427" unicode="P"/><glyph d="M115 716.5q0 315.5 206.5 526.5t516.5 211q311 0 518 -211t207 -526q0 -244 -129 -431.5t-342 -262.5q221 -203 413 -203q111 0 201 65l94 -172q-119 -94 -284 -94q-51 0 -102.5 8t-100.5 25.5t-89 34t-86 47t-74 48t-71 54.5t-59 51.5t-56 51t-44 41.5 q-307 2 -513 211.5t-206 525zM336 716.5q0 -227.5 144.5 -382t357.5 -154.5q215 0 358 153.5t143 383.5q0 227 -143 380.5t-358 153.5q-213 0 -357.5 -153.5t-144.5 -381z" glyph-name="Q" horiz-adv-x="1675" unicode="Q"/><glyph d="M203 0v1434h616q240 0 375 -137.5t135 -344.5q0 -147 -72.5 -265t-207.5 -173l356 -514h-256l-328 473h-407v-473h-211zM414 672h368q164 0 246 76.5t82 203.5q0 129 -82 206t-246 77h-368v-563z" glyph-name="R" horiz-adv-x="1482" unicode="R"/><glyph d="M115 365l213 57q14 -127 113.5 -188.5t260.5 -61.5q156 0 242 53.5t86 143.5q0 49 -25.5 87t-80 64.5t-108.5 45t-138 42.5q-31 8 -45 13q-113 33 -187.5 63.5t-154.5 81.5t-120 126t-40 173q0 180 141.5 284.5t382.5 104.5q244 0 399.5 -110.5t155.5 -315.5v-27h-211v11 q0 123 -93 186.5t-253 63.5q-145 0 -223 -54.5t-78 -144.5q0 -43 19.5 -77t46 -56.5t80 -46t92.5 -35.5t112 -33q111 -33 173.5 -53.5t144.5 -59t125 -79.5t73.5 -105.5t30.5 -146.5q0 -186 -147.5 -288.5t-401.5 -102.5q-244 0 -402 98.5t-183 286.5z" glyph-name="S" horiz-adv-x="1361" unicode="S"/><glyph d="M59 1233v201h1178v-201h-483v-1233h-211v1233h-484z" glyph-name="T" horiz-adv-x="1296" unicode="T"/><glyph d="M1208 1434h213v-852q0 -264 -163.5 -433t-456.5 -169t-456 168.5t-163 433.5v852h213v-834q0 -197 106.5 -308.5t299.5 -111.5q195 0 301 110.5t106 309.5v834z" glyph-name="U" horiz-adv-x="1603" unicode="U"/><glyph d="M852 0h-236l-587 1434h233l473 -1174l471 1174h234z" glyph-name="V" horiz-adv-x="1468" unicode="V"/><glyph d="M727 0h-250l-418 1434h228l325 -1135l338 1135h232l336 -1131l325 1131h228l-418 -1434h-250l-338 1133z" glyph-name="W" horiz-adv-x="2129" unicode="W"/><glyph d="M1370 1434l-506 -715l522 -719h-268l-409 575l-408 -575h-268l524 719l-506 715h264l394 -584l395 584h266z" glyph-name="X" horiz-adv-x="1419" unicode="X"/><glyph d="M281 1434l438 -707l440 707h258l-592 -930v-504h-211v508l-591 926h258z" glyph-name="Y" horiz-adv-x="1439" unicode="Y"/><glyph d="M115 1231v203h1118v-179l-858 -1052h858v-203h-1145v178l858 1053h-831z" glyph-name="Z" horiz-adv-x="1333" unicode="Z"/><glyph d="M705 -172v-195h-512v1801h512v-195h-304v-1411h304z" glyph-name="bracketleft" horiz-adv-x="778" unicode="["/><glyph d="M66 1434h206l641 -1434h-208z" glyph-name="backslash" horiz-adv-x="974" unicode="\"/><glyph d="M74 -367v195h303v1411h-303v195h512v-1801h-512z" glyph-name="bracketright" horiz-adv-x="778" unicode="]"/><glyph d="M436 1434h182l334 -723h-213l-213 489l-211 -489h-213z" glyph-name="asciicircum" horiz-adv-x="1054" unicode="^"/><glyph d="M995 -158v-184h-995v184h995z" glyph-name="underscore" horiz-adv-x="995" unicode="_"/><glyph d="M430 1593l-158 -65l-272 309l162 125z" glyph-name="grave" horiz-adv-x="585" unicode="`"/><glyph d="M236 766l-91 164q188 117 408 117q209 0 335 -115t126 -377v-555h-205v137q-150 -158 -348 -157q-164 0 -263.5 86t-99.5 239q0 162 108.5 253t293.5 91q154 0 309 -67q-8 279 -272 278q-141 0 -301 -94zM506 141q180 0 303 164v129q-125 66 -266 66q-111 0 -172.5 -49.5 t-61.5 -135.5q0 -84 56.5 -129t140.5 -45z" glyph-name="a" horiz-adv-x="1163" unicode="a"/><glyph d="M371 1434v-570q123 182 356 183q209 0 342 -153t133 -382t-133 -380.5t-342 -151.5q-236 0 -356 180v-160h-207v1434h207zM367 512q0 -147 89 -244.5t222 -97.5q135 0 223 97.5t88 244.5t-88 245.5t-223 98.5q-133 0 -222 -98.5t-89 -245.5z" glyph-name="b" horiz-adv-x="1308" unicode="b"/><glyph d="M909 383l195 -61q-55 -156 -183 -249t-298 -93q-223 0 -371 152.5t-148 379.5t147.5 381t371.5 154q170 0 298 -94.5t183 -250.5l-195 -61q-35 98 -109.5 156.5t-174.5 58.5q-135 0 -221.5 -97t-86.5 -247t86 -246t222 -96q100 0 174.5 57.5t109.5 155.5z" glyph-name="c" horiz-adv-x="1185" unicode="c"/><glyph d="M938 864v570h209v-1434h-209v160q-125 -180 -354 -180q-211 0 -344.5 151.5t-133.5 380.5t133.5 382t344.5 153q229 -1 354 -183zM942 512q0 147 -89 245.5t-222 98.5q-135 0 -223.5 -98.5t-88.5 -245.5t88.5 -244.5t223.5 -97.5q133 0 222 97.5t89 244.5z" glyph-name="d" horiz-adv-x="1308" unicode="d"/><glyph d="M936 293l119 -143q-158 -170 -414 -170q-248 0 -392.5 153.5t-144.5 378.5q0 229 144.5 382t363.5 153q223 0 360.5 -154t137.5 -346q0 -47 -10 -98h-778q18 -127 103 -206t224 -79q162 0 287 129zM614 860q-111 0 -187.5 -68.5t-100.5 -181.5h567q-20 109 -93 179.5 t-186 70.5z" glyph-name="e" horiz-adv-x="1206" unicode="e"/><glyph d="M55 836v188h189v70q0 197 90 289t244 92q131 0 253 -58l-53 -170q-92 41 -162 41q-78 0 -120.5 -42t-42.5 -154v-68h338v-188h-338v-836h-209v836h-189z" glyph-name="f" horiz-adv-x="827" unicode="f"/><glyph d="M106 539q0 221 127 364.5t332 143.5q221 0 344 -173v150h209v-870q0 -293 -134 -425t-351 -132q-274 0 -486 184l113 162q193 -158 354 -158q295 0 295 344v74q-123 -170 -344 -170q-205 0 -332 143.5t-127 362.5zM319 538.5q0 -137.5 85 -226.5t212 -89q129 0 213 89 t84 226.5t-84 227.5t-213 90q-127 0 -212 -90t-85 -227.5z" glyph-name="g" horiz-adv-x="1280" unicode="g"/><glyph d="M897 0v588q0 137 -62.5 202.5t-162.5 65.5q-131 0 -215 -96t-84 -228v-532h-209v1434h209v-572q117 184 352 185q174 0 277.5 -108t103.5 -323v-616h-209z" glyph-name="h" horiz-adv-x="1257" unicode="h"/><glyph d="M164 0v1024h209v-1024h-209zM266 1184q-55 0 -94 39t-39 94t39 94t94 39q57 0 96 -39t39 -94t-39 -94t-96 -39z" glyph-name="i" horiz-adv-x="534" unicode="i"/><glyph d="M-27 -381l31 180q51 -10 70 -10q102 0 102 133v1102h209v-1120q0 -152 -76 -227.5t-207 -75.5q-68 0 -129 18zM280.5 1184q-57.5 0 -95.5 39t-38 94t38 94t95.5 39t96.5 -39t39 -94t-39 -94t-96.5 -39z" glyph-name="j" horiz-adv-x="548" unicode="j"/><glyph d="M877 0l-279 418h-225v-418h-209v1434h209v-828h221l252 418h227l-305 -504l348 -520h-239z" glyph-name="k" horiz-adv-x="1155" unicode="k"/><glyph d="M164 0v1434h209v-1434h-209z" glyph-name="l" horiz-adv-x="534" unicode="l"/><glyph d="M1526 0v610q0 125 -58.5 185.5t-150.5 60.5q-117 0 -190.5 -87t-73.5 -206v-563h-209v610q0 125 -58.5 185.5t-148.5 60.5q-117 0 -190.5 -87t-73.5 -206v-563h-209v1024h209v-168q98 190 325 191q229 0 316 -199q113 199 354 199q168 0 267.5 -103.5t99.5 -306.5v-637 h-209z" glyph-name="m" horiz-adv-x="1886" unicode="m"/><glyph d="M897 0v588q0 137 -62.5 202.5t-162.5 65.5q-131 0 -215 -96t-84 -228v-532h-209v1024h209v-162q117 184 352 185q174 0 277.5 -108t103.5 -323v-616h-209z" glyph-name="n" horiz-adv-x="1257" unicode="n"/><glyph d="M104 512q0 227 152 381t377 154t375.5 -154t150.5 -381t-150.5 -379.5t-375.5 -152.5t-377 152.5t-152 379.5zM317 512q0 -150 89.5 -246t226.5 -96t226 96t89 246t-89 247t-226 97t-226.5 -97t-89.5 -247z" glyph-name="o" horiz-adv-x="1265" unicode="o"/><glyph d="M371 162v-529h-207v1391h207v-160q123 182 356 183q209 0 342 -153t133 -380q0 -229 -133 -381.5t-342 -152.5q-233 0 -356 182zM367 514q0 -150 89 -247t222 -97q135 0 223 97.5t88 246.5q0 147 -88 244.5t-223 97.5q-133 0 -222 -98.5t-89 -243.5z" glyph-name="p" horiz-adv-x="1308" unicode="p"/><glyph d="M938 -367v529q-125 -182 -354 -182q-211 0 -344.5 152.5t-133.5 381.5q0 227 133.5 380t344.5 153q229 0 354 -183v160h209v-1391h-209zM942 514q0 145 -89 243.5t-222 98.5q-135 0 -223.5 -97t-88.5 -245q0 -150 88.5 -247t223.5 -97q133 0 222 97t89 247z" glyph-name="q" horiz-adv-x="1308" unicode="q"/><glyph d="M373 1024v-362q51 141 157.5 253.5t247.5 128.5v-241q-152 -27 -278.5 -154t-126.5 -276v-373h-209v1024h209z" glyph-name="r" horiz-adv-x="831" unicode="r"/><glyph d="M106 246l199 65q33 -158 250 -157q215 0 215 112q0 23 -8 41.5t-28.5 33.5t-38 25.5t-52.5 20.5t-51.5 15.5t-58 14.5t-52.5 11q-170 41 -268 114.5t-98 207.5q0 139 109.5 218t295.5 79q190 0 312 -83t122 -235v-8h-206v2q0 150 -226 149q-94 0 -145 -32.5t-51 -85.5 q0 -16 4 -31.5t16 -28t22.5 -21.5t31 -18.5t33.5 -14.5t41 -13.5t42 -11.5t46 -10t44 -11q82 -20 139.5 -41t116 -56.5t89 -91t30.5 -131.5q0 -143 -112.5 -218.5t-309.5 -75.5q-184 0 -305 67.5t-148 198.5z" glyph-name="s" horiz-adv-x="1085" unicode="s"/><glyph d="M47 836v188h191v293l206 69v-362h365v-188h-365v-471q0 -195 156 -195q74 0 178 61l72 -172q-119 -80 -279 -79q-334 0 -333 397v459h-191z" glyph-name="t" horiz-adv-x="876" unicode="t"/><glyph d="M358 1024v-588q0 -137 62.5 -201.5t165.5 -64.5q131 0 215 96t84 228v530h209v-1024h-209v166q-119 -186 -355 -186q-172 0 -276 106.5t-104 321.5v616h208z" glyph-name="u" horiz-adv-x="1257" unicode="u"/><glyph d="M690 0h-225l-422 1024h227l308 -791l305 791h227z" glyph-name="v" horiz-adv-x="1153" unicode="v"/><glyph d="M618 0h-253l-306 1024h224l215 -795l235 795h232l233 -795l217 795h223l-305 -1024h-254l-231 776z" glyph-name="w" horiz-adv-x="1697" unicode="w"/><glyph d="M1079 1024l-372 -510l383 -514h-256l-269 375l-266 -375h-258l387 514l-375 510h254l258 -369l262 369h252z" glyph-name="x" horiz-adv-x="1134" unicode="x"/><glyph d="M156 -416l-76 191q256 76 377 235l-414 1014h227l303 -793l310 793h227l-375 -905q-192 -465 -579 -535z" glyph-name="y" horiz-adv-x="1148" unicode="y"/><glyph d="M100 836v188h836v-145l-551 -689h551v-190h-836v145l553 691h-553z" glyph-name="z" horiz-adv-x="1036" unicode="z"/><glyph d="M49 436v193h60q106 0 149 58t43 169v258q0 141 79 230.5t241 89.5h143v-195h-90q-96 0 -129 -48t-33 -138v-203q0 -131 -28.5 -207t-116.5 -111q88 -35 116.5 -110.5t28.5 -204.5v-205q0 -88 33 -136t129 -48h90v-195h-143q-162 0 -241 89.5t-79 230.5v258q0 111 -43 168 t-149 57h-60z" glyph-name="braceleft" horiz-adv-x="839" unicode="{"/><glyph d="M193 1507h169v-1874h-169v1874z" glyph-name="bar" horiz-adv-x="555" unicode="|"/><glyph d="M791 629v-193h-60q-106 0 -149 -57t-43 -168v-258q0 -141 -79 -230.5t-241 -89.5h-143v195h90q96 0 129 48t33 136v205q0 129 28.5 205t116.5 110q-88 35 -116.5 111t-28.5 207v203q0 90 -33 138t-129 48h-90v195h143q162 0 241 -89.5t79 -230.5v-258q0 -111 43 -169 t149 -58h60z" glyph-name="braceright" horiz-adv-x="839" unicode="}"/><glyph d="M330 430h-176q-6 139 49 227t170 88q96 0 186 -98q12 -12 26.5 -29.5t20.5 -24.5t14.5 -15.5t14.5 -10.5t14 -2q66 0 58 150h174q10 -137 -47.5 -226.5t-167.5 -89.5q-102 0 -189 97q-10 10 -24.5 29.5t-23.5 28.5t-20.5 17.5t-23.5 8.5q-63 0 -55 -150z" glyph-name="asciitilde" horiz-adv-x="1030" unicode="~"/><glyph glyph-name="uni00A0" horiz-adv-x="536" unicode=" "/><glyph d="M393 -410h-241l47 992h147zM406 913q0 -53 -39 -92t-95 -39q-53 0 -92 39t-39 92q0 55 39 93t92 38q55 0 94.5 -38t39.5 -93z" glyph-name="exclamdown" horiz-adv-x="546" unicode="¡"/><glyph d="M502 0v229q-176 31 -286 166t-110 321.5t110 322t286 165.5v230h186v-230q127 -25 221.5 -107.5t134.5 -201.5l-192 -61q-31 88 -98.5 140t-159.5 52q-123 0 -201 -87t-78 -222t78 -222t201 -87q92 0 159.5 52t98.5 140l192 -61q-41 -121 -135 -204t-221 -106v-229h-186z " glyph-name="cent" horiz-adv-x="1138" unicode="¢"/><glyph d="M150 0v154q166 139 165 338q0 35 -6 71h-192v185h137q-4 10 -16.5 42.5t-17.5 46t-15 42t-14.5 47t-10.5 45t-8 51.5t-2 49q0 174 116.5 278.5t291.5 104.5q178 0 299.5 -110.5t121.5 -301.5v-24h-204v14q0 111 -58.5 172.5t-148.5 61.5q-88 0 -146.5 -59.5t-58.5 -157.5 q0 -35 9 -76t19.5 -67.5t32 -81t29.5 -76.5h346v-185h-303q4 -37 4 -57q0 -178 -114 -316h583v-190h-839z" glyph-name="sterling" horiz-adv-x="1114" unicode="£"/><glyph d="M137 365l146 149q-57 90 -57.5 202.5t59.5 201.5l-148 151l131 129l150 -156q84 47 188 48q96 0 187 -48l151 156l129 -129l-147 -151q59 -92 59 -201t-59 -201l147 -151l-129 -129l-151 155q-84 -47 -187 -47q-104 0 -188 47l-150 -155zM428 717q0 -82 51 -137.5 t127 -55.5t127 55.5t51 137.5t-51 137t-127 55t-127 -55t-51 -137z" glyph-name="currency" horiz-adv-x="1212" unicode="¤"/><glyph d="M623 756l317 678h234l-375 -756h270v-178h-340v-131h340v-181h-340v-188h-211v188h-340v181h340v131h-340v178h271l-375 756h233z" glyph-name="yen" horiz-adv-x="1247" unicode="¥"/><glyph d="M193 1507h169v-811h-169v811zM193 438h169v-805h-169v805z" glyph-name="brokenbar" horiz-adv-x="555" unicode="¦"/><glyph d="M131 737q0 139 119 217q-111 80 -111 215q0 133 104.5 209t284.5 76q182 0 301 -83t119 -232v-17h-194v13q0 78 -60.5 118.5t-158.5 40.5q-92 0 -143.5 -32.5t-51.5 -87.5q0 -25 8 -45.5t30.5 -37t37 -25.5t55.5 -21.5t55.5 -16.5t63.5 -16q82 -20 137 -41t118.5 -56.5 t96.5 -90t33 -128.5q0 -139 -121 -217q113 -86 113 -213q0 -133 -105.5 -209.5t-283.5 -76.5q-170 0 -280 68.5t-134 203.5l188 55q8 -86 67.5 -127t151.5 -41q94 0 144.5 33t50.5 90q0 66 -58.5 97.5t-170.5 58.5q-14 2 -21 4q-63 16 -109.5 30.5t-101.5 40t-90 57.5 t-59.5 80t-24.5 107zM602 584q33 -8 76 -23q94 37 94 121q0 39 -19.5 66.5t-62.5 46t-71.5 27.5t-88.5 22q-18 4 -26 6q-45 10 -78 20q-92 -37 -92 -118q0 -39 19.5 -67t62.5 -46t71.5 -27.5t87.5 -21.5q19 -4 27 -6z" glyph-name="section" horiz-adv-x="1107" unicode="§"/><glyph d="M25 1691.5q0 53.5 36.5 90.5t92.5 37q53 0 90 -37t37 -90.5t-37 -90t-90 -36.5q-55 0 -92 36.5t-37 90zM401 1691.5q0 53.5 38 90.5t91.5 37t90 -37t36.5 -90.5t-36.5 -90t-90 -36.5t-91.5 36.5t-38 90z" glyph-name="dieresis" horiz-adv-x="706" unicode="¨"/><glyph d="M1051 629l125 -45q-37 -106 -125 -172t-205 -66q-154 0 -256.5 106.5t-102.5 264t102.5 264t256.5 106.5q117 0 205 -65.5t125 -171.5l-125 -45q-59 150 -205 149q-96 0 -157.5 -68.5t-61.5 -168.5q0 -102 61.5 -170t157.5 -68q146 0 205 150zM113 717q0 309 208.5 523 t512 214t513 -214t209.5 -523t-208.5 -523t-513.5 -214q-303 0 -512 214t-209 523zM244 717q0 -258 170 -434.5t420 -176.5q252 0 422.5 176.5t170.5 434.5t-171 434t-422 176q-250 0 -420 -176t-170 -434z" glyph-name="copyright" unicode="©"/><glyph d="M221 1217l-74 137q129 80 285 80q326 0 326 -338v-379h-168v84q-96 -96 -232 -96q-106 0 -175.5 59t-69.5 164q0 111 76.5 173t205.5 62q106 0 193 -41q-10 158 -164 158q-99 0 -203 -63zM403 831q106 0 187 103v70q-82 41 -164 40q-143 0 -143 -110q0 -47 33.5 -75 t86.5 -28z" glyph-name="ordfeminine" horiz-adv-x="907" unicode="ª"/><glyph d="M332 528l215 -301l-148 -114l-311 415l311 418l148 -115zM813 528l215 -301l-147 -114l-312 415l312 418l147 -115z" glyph-name="guillemotleft" horiz-adv-x="1148" unicode="«"/><glyph d="M961 369v376h-820v187h1000v-563h-180z" glyph-name="logicalnot" horiz-adv-x="1306" unicode="¬"/><glyph d="M115 999.5q0 190.5 133 322.5t321 132q190 0 323.5 -132t133.5 -322.5t-133 -323.5t-324 -133q-188 0 -321 133t-133 323.5zM205 999q0 -156 106.5 -261t257.5 -105q156 0 261.5 105.5t105.5 260.5q0 154 -105.5 259.5t-261.5 105.5q-152 0 -258 -105.5t-106 -259.5z M408 1217h198q72 0 113 -42t41 -106q0 -102 -92 -137l104 -146h-90l-96 138h-101v-138h-77v431zM600 1143h-115v-150h115q39 0 61.5 22.5t22.5 53.5t-22.5 52.5t-61.5 21.5z" glyph-name="registered" horiz-adv-x="1140" unicode="®"/><glyph d="M621 1782v-178h-578v178h578z" glyph-name="macron" horiz-adv-x="688" unicode="¯"/><glyph d="M102 1110q0 143 100.5 243.5t248 100.5t249 -100.5t101.5 -243.5q0 -145 -101.5 -245.5t-249 -100.5t-248 100.5t-100.5 245.5zM283 1110q0 -72 48 -121t119.5 -49t121 49t49.5 121t-49.5 121t-121 49t-119.5 -49t-48 -121z" glyph-name="degree" horiz-adv-x="901" unicode="°"/><glyph d="M162 944h301v320h188v-320h301v-188h-301v-320h-188v320h-301v188zM952 309v-188h-790v188h790z" glyph-name="plusminus" horiz-adv-x="1114" unicode="±"/><glyph d="M653 764v-156h-567v121q393 303 393 447q0 53 -30.5 83.5t-77.5 30.5q-49 0 -85 -32.5t-36 -100.5v-14h-166v16q0 143 87 215t204 72q115 0 195.5 -69.5t80.5 -182.5q0 -193 -268 -430h270z" glyph-name="uni00B2" horiz-adv-x="743" unicode="²"/><glyph d="M72 674l71 141q119 -63 207 -63q131 0 131 92q0 111 -219 110v136q106 0 152.5 35.5t46.5 86.5q0 41 -29 64.5t-72 23.5q-47 0 -77.5 -23.5t-30.5 -68.5v-6h-166v19q0 102 81 163.5t193 61.5q111 0 191 -61.5t80 -167.5q0 -125 -121 -191q145 -55 145 -192 q0 -106 -83 -172t-216 -66q-149 0 -284 78z" glyph-name="uni00B3" horiz-adv-x="739" unicode="³"/><glyph d="M291 1528l-158 65l266 369l162 -125z" glyph-name="acute" horiz-adv-x="577" unicode="´"/><glyph d="M397 1024v-582q0 -135 65.5 -203.5t170.5 -68.5q127 0 209 96t82 226v532h209v-1024h-209v162q-117 -182 -346 -182q-100 0 -181 36v-383h-209v1391h209z" glyph-name="uni00B5" horiz-adv-x="1320" unicode="µ"/><glyph d="M623 0v489h-45q-236 0 -365 135.5t-129 336.5q0 203 129 338t365 135h583v-1434h-198v1245h-142v-1245h-198zM291 961q0 -123 73.5 -203t215.5 -80h43v567h-43q-141 0 -215 -79.5t-74 -204.5z" glyph-name="paragraph" horiz-adv-x="1366" unicode="¶"/><glyph d="M133 596q0 57 41 97t98.5 40t98.5 -40t41 -97t-41 -97t-98.5 -40t-98.5 40t-41 97z" glyph-name="periodcentered" horiz-adv-x="544" unicode="·"/><glyph d="M197 12h118l-41 -110q94 -14 145.5 -69.5t51.5 -133.5q0 -92 -67.5 -150.5t-182.5 -58.5q-121 0 -225 57l70 154q72 -45 141 -45q96 0 96 61q0 82 -141 76l-35 51z" glyph-name="cedilla" horiz-adv-x="485" unicode="¸"/><glyph d="M217 608v623l-151 -82v178l194 107h127v-826h-170z" glyph-name="uni00B9" horiz-adv-x="518" unicode="¹"/><glyph d="M102 1069q0 156 105.5 260.5t263.5 104.5t264.5 -104.5t106.5 -260.5t-106.5 -260t-264.5 -104t-263.5 104t-105.5 260zM276 1069q0 -90 55.5 -149.5t139.5 -59.5q86 0 141.5 59.5t55.5 149.5t-55.5 148.5t-141.5 58.5q-84 0 -139.5 -58.5t-55.5 -148.5z" glyph-name="ordmasculine" horiz-adv-x="944" unicode="º"/><glyph d="M336 530l-215 301l147 115l312 -416l-312 -417l-147 114zM817 530l-215 301l148 115l311 -416l-311 -417l-148 114z" glyph-name="guillemotright" horiz-adv-x="1148" unicode="»"/><glyph d="M371 0h-168l938 1434h168zM238 608v623l-152 -82v178l195 107h127v-826h-170zM1495 0h-164v160h-377v119l201 546h180l-194 -510h190v226l164 45v-271h113v-155h-113v-160z" glyph-name="onequarter" horiz-adv-x="1671" unicode="¼"/><glyph d="M365 0h-168l938 1434h168zM231 608v623l-151 -82v178l194 107h127v-826h-170zM1561 156v-156h-568v121q393 303 393 446q0 53 -30.5 84t-77.5 31q-49 0 -85 -33t-36 -100v-14h-166v16q0 143 86 215t205 72q115 0 196 -70t81 -182q0 -193 -269 -430h271z" glyph-name="onehalf" horiz-adv-x="1656" unicode="½"/><glyph d="M539 0h-168l938 1434h168zM1663 0h-164v160h-377v119l201 546h180l-194 -510h190v226l164 45v-271h113v-155h-113v-160zM94 674l72 141q119 -63 207 -63q131 0 131 92q0 111 -219 110v136q106 0 152 35.5t46 86.5q0 41 -28.5 64.5t-71.5 23.5q-47 0 -78 -23.5t-31 -68.5 v-6h-165v19q0 102 80.5 163.5t193.5 61.5q111 0 190.5 -61.5t79.5 -167.5q0 -125 -121 -191q145 -55 146 -192q0 -106 -83 -172t-216 -66q-150 0 -285 78z" glyph-name="threequarters" horiz-adv-x="1839" unicode="¾"/><glyph d="M713 913q0 -55 -39 -93t-94.5 -38t-94.5 38t-39 93q0 53 39 92t94.5 39t94.5 -39t39 -92zM479 588h199v-66q0 -106 -49 -180t-148 -152q-12 -10 -40.5 -31.5t-40 -30.5t-33 -28.5t-30.5 -33t-21.5 -33t-16.5 -40t-4 -42.5q0 -84 62.5 -136.5t156.5 -52.5q104 0 176 62.5 t72 167.5v14h211v-29q0 -195 -139.5 -304t-327.5 -109q-182 0 -306 104.5t-124 278.5q0 86 37 158.5t78.5 111.5t111.5 92q98 74 137 120t39 112v47z" glyph-name="questiondown" horiz-adv-x="1042" unicode="¿"/><glyph d="M635 1434h235l609 -1434h-232l-119 285h-755l-117 -285h-229zM752 1200l-297 -719h594zM915 1593l-157 -65l-273 309l162 125z" glyph-name="Agrave" horiz-adv-x="1503" unicode="À"/><glyph d="M635 1434h235l609 -1434h-232l-119 285h-755l-117 -285h-229zM752 1200l-297 -719h594zM750 1528l-158 65l266 369l162 -125z" glyph-name="Aacute" horiz-adv-x="1503" unicode="Á"/><glyph d="M635 1434h235l609 -1434h-232l-119 285h-755l-117 -285h-229zM752 1200l-297 -719h594zM1077 1667l-106 -131l-217 158l-219 -158l-107 131l326 240z" glyph-name="Acircumflex" horiz-adv-x="1503" unicode="Â"/><glyph d="M635 1434h235l609 -1434h-232l-119 285h-755l-117 -285h-229zM752 1200l-297 -719h594zM563 1585h-176q-6 139 49.5 227.5t169.5 88.5q96 0 187 -99q12 -12 26.5 -29.5t20.5 -24.5t14 -15.5t14 -10.5t15 -2q66 0 57 150h174q10 -137 -47 -226.5t-168 -89.5 q-102 0 -188 97q-10 10 -24.5 29.5t-24 28.5t-20.5 17.5t-24 8.5q-63 0 -55 -150z" glyph-name="Atilde" horiz-adv-x="1503" unicode="Ã"/><glyph d="M635 1434h235l609 -1434h-232l-119 285h-755l-117 -285h-229zM752 1200l-297 -719h594zM436 1691.5q0 53.5 37 90.5t92 37q53 0 90 -37t37 -90.5t-37 -90t-90 -36.5q-55 0 -92 36.5t-37 90zM813 1691.5q0 53.5 38 90.5t91 37t90 -37t37 -90.5t-37 -90t-90 -36.5t-91 36.5 t-38 90z" glyph-name="Adieresis" horiz-adv-x="1503" unicode="Ä"/><glyph d="M635 1434h235l609 -1434h-232l-119 285h-755l-117 -285h-229zM752 1200l-297 -719h594zM510 1757.5q0 102.5 69.5 173t172 70.5t174 -70.5t71.5 -173t-71.5 -173.5t-174 -71t-172 71t-69.5 173.5zM649 1757q0 -43 30 -73.5t73 -30.5q45 0 75.5 30.5t30.5 73.5 q0 45 -30.5 75t-75.5 30q-43 0 -73 -30t-30 -75z" glyph-name="Aring" horiz-adv-x="1503" unicode="Å"/><glyph d="M934 1434h1044v-201h-780v-416h629v-196h-629v-420h780v-201h-991v303h-549l-192 -303h-250zM565 500h422v657z" glyph-name="AE" horiz-adv-x="2088" unicode="Æ"/><glyph d="M1290 522l205 -67q-68 -199 -232.5 -328t-377.5 -145l-29 -80q94 -14 145.5 -69.5t51.5 -133.5q0 -92 -67.5 -150.5t-182.5 -58.5q-121 0 -225 57l69 154q72 -45 141 -45q96 0 97 61q0 82 -142 76l-34 51l57 138q-281 23 -467 230.5t-186 504.5q0 313 206.5 525 t509.5 212q231 0 411.5 -132t254.5 -343l-205 -68q-55 154 -178 247t-281 93q-211 0 -354 -153.5t-143 -381t143.5 -381t353.5 -153.5q158 0 281 93t178 247z" glyph-name="Ccedilla" horiz-adv-x="1579" unicode="Ç"/><glyph d="M203 0v1434h1026v-201h-815v-416h663v-196h-663v-420h815v-201h-1026zM877 1593l-158 -65l-273 309l162 125z" glyph-name="Egrave" horiz-adv-x="1339" unicode="È"/><glyph d="M203 0v1434h1026v-201h-815v-416h663v-196h-663v-420h815v-201h-1026zM713 1528l-158 65l266 369l162 -125z" glyph-name="Eacute" horiz-adv-x="1339" unicode="É"/><glyph d="M203 0v1434h1026v-201h-815v-416h663v-196h-663v-420h815v-201h-1026zM1040 1667l-106 -131l-217 158l-219 -158l-107 131l326 240z" glyph-name="Ecircumflex" horiz-adv-x="1339" unicode="Ê"/><glyph d="M203 0v1434h1026v-201h-815v-416h663v-196h-663v-420h815v-201h-1026zM399 1691.5q0 53.5 37 90.5t92 37q53 0 90 -37t37 -90.5t-36.5 -90t-90.5 -36.5q-55 0 -92 36.5t-37 90zM776 1691.5q0 53.5 38 90.5t91 37t90 -37t37 -90.5t-37 -90t-90 -36.5t-91 36.5t-38 90z" glyph-name="Edieresis" horiz-adv-x="1339" unicode="Ë"/><glyph d="M203 1434h213v-1434h-213v1434zM487 1593l-157 -65l-273 309l162 125z" glyph-name="Igrave" horiz-adv-x="618" unicode="Ì"/><glyph d="M203 1434h213v-1434h-213v1434zM289 1528l-158 65l266 369l162 -125z" glyph-name="Iacute" horiz-adv-x="618" unicode="Í"/><glyph d="M203 1434h213v-1434h-213v1434zM633 1667l-107 -131l-217 158l-219 -158l-106 131l325 240z" glyph-name="Icircumflex" horiz-adv-x="618" unicode="Î"/><glyph d="M203 1434h213v-1434h-213v1434zM-8 1691.5q0 53.5 37 90.5t92 37q53 0 90 -37t37 -90.5t-37 -90t-90 -36.5q-55 0 -92 36.5t-37 90zM369 1691.5q0 53.5 37.5 90.5t91 37t90.5 -37t37 -90.5t-37 -90t-90.5 -36.5t-91 36.5t-37.5 90z" glyph-name="Idieresis" horiz-adv-x="618" unicode="Ï"/><glyph d="M84 618v197h160v619h569q317 0 498.5 -198t181.5 -519.5t-181.5 -519t-498.5 -197.5h-569v618h-160zM881 618h-426v-417h342q233 0 354 139t121 376.5t-121 377t-354 139.5h-342v-418h426v-197z" glyph-name="Eth" horiz-adv-x="1609" unicode="Ð"/><glyph d="M414 0h-211v1434h215l827 -1102v1102h211v-1434h-215l-827 1100v-1100zM641 1585h-176q-6 139 49 227.5t170 88.5q96 0 186 -99q12 -12 26.5 -29.5t21 -24.5t14.5 -15.5t14 -10.5t15 -2q66 0 57 150h174q10 -137 -47.5 -226.5t-167.5 -89.5q-102 0 -189 97 q-10 10 -24 29.5t-23.5 28.5t-20.5 17.5t-24 8.5q-63 0 -55 -150z" glyph-name="Ntilde" horiz-adv-x="1658" unicode="Ñ"/><glyph d="M115 716.5q0 315.5 206.5 526.5t516.5 211q311 0 518 -211t207 -526.5t-208 -526t-517.5 -210.5t-516 210.5t-206.5 526zM336 716.5q0 -227.5 144.5 -382t357.5 -154.5q215 0 358 153.5t143 383.5q0 227 -143 380.5t-358 153.5q-213 0 -357.5 -153.5t-144.5 -381z M999 1593l-157 -65l-273 309l162 125z" glyph-name="Ograve" horiz-adv-x="1675" unicode="Ò"/><glyph d="M115 716.5q0 315.5 206.5 526.5t516.5 211q311 0 518 -211t207 -526.5t-208 -526t-517.5 -210.5t-516 210.5t-206.5 526zM336 716.5q0 -227.5 144.5 -382t357.5 -154.5q215 0 358 153.5t143 383.5q0 227 -143 380.5t-358 153.5q-213 0 -357.5 -153.5t-144.5 -381z M836 1528l-158 65l266 369l162 -125z" glyph-name="Oacute" horiz-adv-x="1675" unicode="Ó"/><glyph d="M115 716.5q0 315.5 206.5 526.5t516.5 211q311 0 518 -211t207 -526.5t-208 -526t-517.5 -210.5t-516 210.5t-206.5 526zM336 716.5q0 -227.5 144.5 -382t357.5 -154.5q215 0 358 153.5t143 383.5q0 227 -143 380.5t-358 153.5q-213 0 -357.5 -153.5t-144.5 -381z M1163 1667l-106 -131l-217 158l-219 -158l-107 131l326 240z" glyph-name="Ocircumflex" horiz-adv-x="1675" unicode="Ô"/><glyph d="M115 716.5q0 315.5 206.5 526.5t516.5 211q311 0 518 -211t207 -526.5t-208 -526t-517.5 -210.5t-516 210.5t-206.5 526zM336 716.5q0 -227.5 144.5 -382t357.5 -154.5q215 0 358 153.5t143 383.5q0 227 -143 380.5t-358 153.5q-213 0 -357.5 -153.5t-144.5 -381z M649 1585h-176q-6 139 49.5 227.5t169.5 88.5q96 0 187 -99q12 -12 26.5 -29.5t20.5 -24.5t14 -15.5t14.5 -10.5t14.5 -2q66 0 57 150h174q10 -137 -47 -226.5t-168 -89.5q-102 0 -188 97q-10 10 -24.5 29.5t-24 28.5t-20.5 17.5t-23 8.5q-64 0 -56 -150z" glyph-name="Otilde" horiz-adv-x="1675" unicode="Õ"/><glyph d="M115 716.5q0 315.5 206.5 526.5t516.5 211q311 0 518 -211t207 -526.5t-208 -526t-517.5 -210.5t-516 210.5t-206.5 526zM336 716.5q0 -227.5 144.5 -382t357.5 -154.5q215 0 358 153.5t143 383.5q0 227 -143 380.5t-358 153.5q-213 0 -357.5 -153.5t-144.5 -381z M522 1691.5q0 53.5 37 90.5t92 37q53 0 90 -37t37 -90.5t-36.5 -90t-90.5 -36.5q-55 0 -92 36.5t-37 90zM899 1691.5q0 53.5 38 90.5t91 37t90 -37t37 -90.5t-37 -90t-90 -36.5t-91 36.5t-38 90z" glyph-name="Odieresis" horiz-adv-x="1675" unicode="Ö"/><glyph d="M258 272l-133 129l270 273l-270 272l133 129l266 -270l269 270l133 -129l-271 -272l271 -273l-133 -129l-269 271z" glyph-name="multiply" horiz-adv-x="1050" unicode="×"/><glyph d="M121 717q0 315 207 526t518 211q221 0 399 -117l78 97h225l-170 -209q190 -207 191 -508q0 -315 -207 -526t-516 -211q-223 0 -400 112l-75 -92h-226l168 205q-192 205 -192 512zM342 717q0 -199 111 -344l657 801q-121 78 -264 77q-215 0 -359.5 -152.5t-144.5 -381.5z M1348 717q0 193 -109 340l-659 -803q119 -74 266 -74q213 0 357.5 154t144.5 383z" glyph-name="Oslash" horiz-adv-x="1687" unicode="Ø"/><glyph d="M1208 1434h213v-852q0 -264 -163.5 -433t-456.5 -169t-456 168.5t-163 433.5v852h213v-834q0 -197 106.5 -308.5t299.5 -111.5q195 0 301 110.5t106 309.5v834zM963 1593l-158 -65l-273 309l162 125z" glyph-name="Ugrave" horiz-adv-x="1603" unicode="Ù"/><glyph d="M1208 1434h213v-852q0 -264 -163.5 -433t-456.5 -169t-456 168.5t-163 433.5v852h213v-834q0 -197 106.5 -308.5t299.5 -111.5q195 0 301 110.5t106 309.5v834zM799 1528l-158 65l266 369l162 -125z" glyph-name="Uacute" horiz-adv-x="1603" unicode="Ú"/><glyph d="M1208 1434h213v-852q0 -264 -163.5 -433t-456.5 -169t-456 168.5t-163 433.5v852h213v-834q0 -197 106.5 -308.5t299.5 -111.5q195 0 301 110.5t106 309.5v834zM1126 1667l-106 -131l-217 158l-219 -158l-107 131l326 240z" glyph-name="Ucircumflex" horiz-adv-x="1603" unicode="Û"/><glyph d="M1208 1434h213v-852q0 -264 -163.5 -433t-456.5 -169t-456 168.5t-163 433.5v852h213v-834q0 -197 106.5 -308.5t299.5 -111.5q195 0 301 110.5t106 309.5v834zM485 1691.5q0 53.5 37 90.5t92 37q53 0 90 -37t37 -90.5t-36.5 -90t-90.5 -36.5q-55 0 -92 36.5t-37 90z M862 1691.5q0 53.5 38 90.5t91 37t90 -37t37 -90.5t-37 -90t-90 -36.5t-91 36.5t-38 90z" glyph-name="Udieresis" horiz-adv-x="1603" unicode="Ü"/><glyph d="M281 1434l438 -707l440 707h258l-592 -930v-504h-211v508l-591 926h258zM719 1528l-158 65l266 369l162 -125z" glyph-name="Yacute" horiz-adv-x="1439" unicode="Ý"/><glyph d="M203 0v1434h211v-201h368q256 0 402.5 -148.5t146.5 -369.5t-146.5 -369.5t-402.5 -148.5h-368v-197h-211zM414 395h323q188 0 280.5 85t92.5 234.5t-92 233.5t-281 84h-323v-637z" glyph-name="Thorn" horiz-adv-x="1441" unicode="Þ"/><glyph d="M465 41l63 182q88 -55 201 -55q100 0 167 55.5t67 159.5q0 129 -105.5 193.5t-279.5 64.5v180q139 0 231 64.5t92 179.5q0 104 -70.5 161.5t-177.5 57.5q-131 0 -205.5 -92t-74.5 -246v-946h-209v942q0 242 137 387.5t352 145.5q195 0 327 -112t132 -294 q0 -225 -205 -332q266 -100 267 -372q0 -180 -118 -282.5t-317 -102.5q-165 0 -274 61z" glyph-name="germandbls" horiz-adv-x="1277" unicode="ß"/><glyph d="M236 766l-91 164q188 117 408 117q209 0 335 -115t126 -377v-555h-205v137q-150 -158 -348 -157q-164 0 -263.5 86t-99.5 239q0 162 108.5 253t293.5 91q154 0 309 -67q-8 279 -272 278q-141 0 -301 -94zM506 141q180 0 303 164v129q-125 66 -266 66q-111 0 -172.5 -49.5 t-61.5 -135.5q0 -84 56.5 -129t140.5 -45zM735 1206l-157 -65l-273 309l162 125z" glyph-name="agrave" horiz-adv-x="1163" unicode="à"/><glyph d="M236 766l-91 164q188 117 408 117q209 0 335 -115t126 -377v-555h-205v137q-150 -158 -348 -157q-164 0 -263.5 86t-99.5 239q0 162 108.5 253t293.5 91q154 0 309 -67q-8 279 -272 278q-141 0 -301 -94zM506 141q180 0 303 164v129q-125 66 -266 66q-111 0 -172.5 -49.5 t-61.5 -135.5q0 -84 56.5 -129t140.5 -45zM573 1141l-157 65l266 369l162 -125z" glyph-name="aacute" horiz-adv-x="1163" unicode="á"/><glyph d="M236 766l-91 164q188 117 408 117q209 0 335 -115t126 -377v-555h-205v137q-150 -158 -348 -157q-164 0 -263.5 86t-99.5 239q0 162 108.5 253t293.5 91q154 0 309 -67q-8 279 -272 278q-141 0 -301 -94zM506 141q180 0 303 164v129q-125 66 -266 66q-111 0 -172.5 -49.5 t-61.5 -135.5q0 -84 56.5 -129t140.5 -45zM901 1280l-106 -131l-217 158l-220 -158l-106 131l326 240z" glyph-name="acircumflex" horiz-adv-x="1163" unicode="â"/><glyph d="M236 766l-91 164q188 117 408 117q209 0 335 -115t126 -377v-555h-205v137q-150 -158 -348 -157q-164 0 -263.5 86t-99.5 239q0 162 108.5 253t293.5 91q154 0 309 -67q-8 279 -272 278q-141 0 -301 -94zM506 141q180 0 303 164v129q-125 66 -266 66q-111 0 -172.5 -49.5 t-61.5 -135.5q0 -84 56.5 -129t140.5 -45zM387 1198h-176q-6 139 49 227t170 88q96 0 186 -98q12 -12 26.5 -29.5t21 -24.5t14.5 -15.5t14 -10.5t15 -2q66 0 57 150h174q10 -137 -47 -226.5t-168 -89.5q-102 0 -188 97q-10 10 -24.5 29.5t-24 28.5t-20.5 17.5t-24 8.5 q-63 0 -55 -150z" glyph-name="atilde" horiz-adv-x="1163" unicode="ã"/><glyph d="M236 766l-91 164q188 117 408 117q209 0 335 -115t126 -377v-555h-205v137q-150 -158 -348 -157q-164 0 -263.5 86t-99.5 239q0 162 108.5 253t293.5 91q154 0 309 -67q-8 279 -272 278q-141 0 -301 -94zM506 141q180 0 303 164v129q-125 66 -266 66q-111 0 -172.5 -49.5 t-61.5 -135.5q0 -84 56.5 -129t140.5 -45zM260 1304.5q0 53.5 37 90.5t92 37q53 0 90 -37t37 -90.5t-37 -90t-90 -36.5q-55 0 -92 36.5t-37 90zM637 1304.5q0 53.5 38 90.5t91 37t90 -37t37 -90.5t-37 -90t-90 -36.5t-91 36.5t-38 90z" glyph-name="adieresis" horiz-adv-x="1163" unicode="ä"/><glyph d="M236 766l-91 164q188 117 408 117q209 0 335 -115t126 -377v-555h-205v137q-150 -158 -348 -157q-164 0 -263.5 86t-99.5 239q0 162 108.5 253t293.5 91q154 0 309 -67q-8 279 -272 278q-141 0 -301 -94zM506 141q180 0 303 164v129q-125 66 -266 66q-111 0 -172.5 -49.5 t-61.5 -135.5q0 -84 56.5 -129t140.5 -45zM334 1370.5q0 102.5 69.5 173t172 70.5t174 -70.5t71.5 -173t-71.5 -173.5t-174 -71t-172 71t-69.5 173.5zM473 1370q0 -43 29.5 -73.5t72.5 -30.5q45 0 76 30.5t31 73.5q0 45 -30.5 75t-76.5 30q-43 0 -72.5 -30t-29.5 -75z" glyph-name="aring" horiz-adv-x="1163" unicode="å"/><glyph d="M1634 293l119 -143q-156 -170 -412 -170q-274 0 -423 190q-201 -190 -449 -190q-166 0 -268.5 85t-102.5 240q0 162 108.5 253t293.5 91q156 0 307 -67v2l2 2q-12 274 -272 274q-141 0 -301 -94l-91 164q188 117 408 117q264 0 379 -170q147 170 379 170q223 0 360 -154 t137 -346q0 -47 -10 -98h-778q18 -127 103 -206t225 -79q165 0 286 129zM510 141q92 0 182 47.5t148 120.5q-20 57 -31 125q-121 66 -266 66q-111 0 -172.5 -49.5t-61.5 -135.5q0 -84 56.5 -129t144.5 -45zM1313 860q-111 0 -187.5 -68.5t-101.5 -181.5h567 q-18 109 -91.5 179.5t-186.5 70.5z" glyph-name="ae" horiz-adv-x="1906" unicode="æ"/><glyph d="M909 383l195 -61q-49 -143 -161 -233.5t-263 -104.5l-31 -82q94 -14 145.5 -69.5t51.5 -133.5q0 -92 -67.5 -150.5t-182.5 -58.5q-121 0 -225 57l69 154q72 -45 142 -45q96 0 96 61q0 82 -141 76l-35 51l57 140q-201 23 -328 170t-127 358q0 227 147.5 381t371.5 154 q170 0 298 -94.5t183 -250.5l-195 -61q-35 98 -109.5 156.5t-174.5 58.5q-135 0 -221.5 -97t-86.5 -247t86 -246t222 -96q100 0 174.5 57.5t109.5 155.5z" glyph-name="ccedilla" horiz-adv-x="1185" unicode="ç"/><glyph d="M936 293l119 -143q-158 -170 -414 -170q-248 0 -392.5 153.5t-144.5 378.5q0 229 144.5 382t363.5 153q223 0 360.5 -154t137.5 -346q0 -47 -10 -98h-778q18 -127 103 -206t224 -79q162 0 287 129zM614 860q-111 0 -187.5 -68.5t-100.5 -181.5h567q-20 109 -93 179.5 t-186 70.5zM774 1206l-158 -65l-272 309l162 125z" glyph-name="egrave" horiz-adv-x="1206" unicode="è"/><glyph d="M936 293l119 -143q-158 -170 -414 -170q-248 0 -392.5 153.5t-144.5 378.5q0 229 144.5 382t363.5 153q223 0 360.5 -154t137.5 -346q0 -47 -10 -98h-778q18 -127 103 -206t224 -79q162 0 287 129zM614 860q-111 0 -187.5 -68.5t-100.5 -181.5h567q-20 109 -93 179.5 t-186 70.5zM610 1141l-157 65l266 369l162 -125z" glyph-name="eacute" horiz-adv-x="1206" unicode="é"/><glyph d="M936 293l119 -143q-158 -170 -414 -170q-248 0 -392.5 153.5t-144.5 378.5q0 229 144.5 382t363.5 153q223 0 360.5 -154t137.5 -346q0 -47 -10 -98h-778q18 -127 103 -206t224 -79q162 0 287 129zM614 860q-111 0 -187.5 -68.5t-100.5 -181.5h567q-20 109 -93 179.5 t-186 70.5zM936 1280l-107 -131l-217 158l-219 -158l-106 131l325 240z" glyph-name="ecircumflex" horiz-adv-x="1206" unicode="ê"/><glyph d="M936 293l119 -143q-158 -170 -414 -170q-248 0 -392.5 153.5t-144.5 378.5q0 229 144.5 382t363.5 153q223 0 360.5 -154t137.5 -346q0 -47 -10 -98h-778q18 -127 103 -206t224 -79q162 0 287 129zM614 860q-111 0 -187.5 -68.5t-100.5 -181.5h567q-20 109 -93 179.5 t-186 70.5zM295 1304.5q0 53.5 37 90.5t92 37q53 0 90 -37t37 -90.5t-37 -90t-90 -36.5q-55 0 -92 36.5t-37 90zM672 1304.5q0 53.5 38 90.5t91 37t90 -37t37 -90.5t-37 -90t-90 -36.5t-91 36.5t-38 90z" glyph-name="edieresis" horiz-adv-x="1206" unicode="ë"/><glyph d="M164 0v1024h209v-1024h-209zM446 1206l-157 -65l-273 309l162 125z" glyph-name="igrave" horiz-adv-x="534" unicode="ì"/><glyph d="M164 0v1024h209v-1024h-209zM248 1141l-158 65l266 369l162 -125z" glyph-name="iacute" horiz-adv-x="534" unicode="í"/><glyph d="M164 0v1024h209v-1024h-209zM592 1280l-107 -131l-217 158l-219 -158l-106 131l325 240z" glyph-name="icircumflex" horiz-adv-x="534" unicode="î"/><glyph d="M164 0v1024h209v-1024h-209zM-49 1304.5q0 53.5 37 90.5t92 37q53 0 90 -37t37 -90.5t-37 -90t-90 -36.5q-55 0 -92 36.5t-37 90zM328 1304.5q0 53.5 37.5 90.5t91 37t90.5 -37t37 -90.5t-37 -90t-90.5 -36.5t-91 36.5t-37.5 90z" glyph-name="idieresis" horiz-adv-x="534" unicode="ï"/><glyph d="M440 1247l-143 187h274l68 -97l201 93l73 -156l-172 -78l234 -322q145 -199 145 -393q0 -213 -146.5 -357t-363.5 -144q-215 0 -360.5 146t-145.5 363q0 209 131.5 345.5t331.5 136.5q47 0 95 -10l-115 147l-209 -94l-72 155zM608 786q-123 0 -206 -86t-83 -219 q0 -131 83 -217t210 -86q125 0 208 86t83 217q0 129 -84 217t-211 88z" glyph-name="eth" horiz-adv-x="1222" unicode="ð"/><glyph d="M897 0v588q0 137 -62.5 202.5t-162.5 65.5q-131 0 -215 -96t-84 -228v-532h-209v1024h209v-162q117 184 352 185q174 0 277.5 -108t103.5 -323v-616h-209zM446 1198h-176q-6 139 49.5 227t169.5 88q96 0 187 -98q12 -12 26.5 -29.5t20.5 -24.5t14 -15.5t14.5 -10.5 t14.5 -2q66 0 57 150h174q10 -137 -47 -226.5t-168 -89.5q-102 0 -188 97q-10 10 -24.5 29.5t-23.5 28.5t-20.5 17.5t-23.5 8.5q-64 0 -56 -150z" glyph-name="ntilde" horiz-adv-x="1257" unicode="ñ"/><glyph d="M104 512q0 227 152 381t377 154t375.5 -154t150.5 -381t-150.5 -379.5t-375.5 -152.5t-377 152.5t-152 379.5zM317 512q0 -150 89.5 -246t226.5 -96t226 96t89 246t-89 247t-226 97t-226.5 -97t-89.5 -247zM793 1206l-158 -65l-273 309l162 125z" glyph-name="ograve" horiz-adv-x="1265" unicode="ò"/><glyph d="M104 512q0 227 152 381t377 154t375.5 -154t150.5 -381t-150.5 -379.5t-375.5 -152.5t-377 152.5t-152 379.5zM317 512q0 -150 89.5 -246t226.5 -96t226 96t89 246t-89 247t-226 97t-226.5 -97t-89.5 -247zM631 1141l-158 65l266 369l162 -125z" glyph-name="oacute" horiz-adv-x="1265" unicode="ó"/><glyph d="M104 512q0 227 152 381t377 154t375.5 -154t150.5 -381t-150.5 -379.5t-375.5 -152.5t-377 152.5t-152 379.5zM317 512q0 -150 89.5 -246t226.5 -96t226 96t89 246t-89 247t-226 97t-226.5 -97t-89.5 -247zM956 1280l-106 -131l-217 158l-219 -158l-107 131l326 240z" glyph-name="ocircumflex" horiz-adv-x="1265" unicode="ô"/><glyph d="M104 512q0 227 152 381t377 154t375.5 -154t150.5 -381t-150.5 -379.5t-375.5 -152.5t-377 152.5t-152 379.5zM317 512q0 -150 89.5 -246t226.5 -96t226 96t89 246t-89 247t-226 97t-226.5 -97t-89.5 -247zM444 1198h-176q-6 139 49.5 227t169.5 88q96 0 187 -98 q12 -12 26.5 -29.5t20.5 -24.5t14 -15.5t14.5 -10.5t14.5 -2q66 0 57 150h174q10 -137 -47 -226.5t-168 -89.5q-102 0 -188 97q-10 10 -24.5 29.5t-23.5 28.5t-20.5 17.5t-23.5 8.5q-64 0 -56 -150z" glyph-name="otilde" horiz-adv-x="1265" unicode="õ"/><glyph d="M104 512q0 227 152 381t377 154t375.5 -154t150.5 -381t-150.5 -379.5t-375.5 -152.5t-377 152.5t-152 379.5zM317 512q0 -150 89.5 -246t226.5 -96t226 96t89 246t-89 247t-226 97t-226.5 -97t-89.5 -247zM315 1304.5q0 53.5 37 90.5t92 37q53 0 90 -37t37 -90.5 t-36.5 -90t-90.5 -36.5q-55 0 -92 36.5t-37 90zM692 1304.5q0 53.5 38 90.5t91 37t90 -37t37 -90.5t-37 -90t-90 -36.5t-91 36.5t-38 90z" glyph-name="odieresis" horiz-adv-x="1265" unicode="ö"/><glyph d="M930 764v-189h-791v189h791zM408 1044.5q0 53.5 36.5 91.5t90 38t90.5 -38t37 -91.5t-37 -90t-90.5 -36.5t-90 36.5t-36.5 90zM408 295q0 53 36.5 91t90 38t90.5 -38t37 -91t-37 -90t-90.5 -37t-90 37t-36.5 90z" glyph-name="divide" horiz-adv-x="1069" unicode="÷"/><glyph d="M109 512q0 227 151.5 381t376.5 154q145 0 266 -70l37 47h201l-115 -145q137 -150 137 -367q0 -227 -150.5 -379.5t-375.5 -152.5q-145 0 -268 67l-37 -47h-201l115 145q-137 150 -137 367zM317 512q0 -117 56 -205l409 516q-66 35 -145 35q-139 0 -228.5 -97t-91.5 -249 zM954 512q0 115 -57 205l-408 -516q66 -35 148 -35q137 0 227 98t90 248z" glyph-name="oslash" horiz-adv-x="1271" unicode="ø"/><glyph d="M358 1024v-588q0 -137 62.5 -201.5t165.5 -64.5q131 0 215 96t84 228v530h209v-1024h-209v166q-119 -186 -355 -186q-172 0 -276 106.5t-104 321.5v616h208zM782 1206l-157 -65l-273 309l162 125z" glyph-name="ugrave" horiz-adv-x="1257" unicode="ù"/><glyph d="M358 1024v-588q0 -137 62.5 -201.5t165.5 -64.5q131 0 215 96t84 228v530h209v-1024h-209v166q-119 -186 -355 -186q-172 0 -276 106.5t-104 321.5v616h208zM621 1141l-158 65l266 369l162 -125z" glyph-name="uacute" horiz-adv-x="1257" unicode="ú"/><glyph d="M358 1024v-588q0 -137 62.5 -201.5t165.5 -64.5q131 0 215 96t84 228v530h209v-1024h-209v166q-119 -186 -355 -186q-172 0 -276 106.5t-104 321.5v616h208zM946 1280l-106 -131l-217 158l-220 -158l-106 131l326 240z" glyph-name="ucircumflex" horiz-adv-x="1257" unicode="û"/><glyph d="M358 1024v-588q0 -137 62.5 -201.5t165.5 -64.5q131 0 215 96t84 228v530h209v-1024h-209v166q-119 -186 -355 -186q-172 0 -276 106.5t-104 321.5v616h208zM305 1304.5q0 53.5 37 90.5t92 37q53 0 90 -37t37 -90.5t-37 -90t-90 -36.5q-55 0 -92 36.5t-37 90zM682 1304.5 q0 53.5 38 90.5t91 37t90 -37t37 -90.5t-37 -90t-90 -36.5t-91 36.5t-38 90z" glyph-name="udieresis" horiz-adv-x="1257" unicode="ü"/><glyph d="M156 -416l-76 191q256 76 377 235l-414 1014h227l303 -793l310 793h227l-375 -905q-192 -465 -579 -535zM578 1141l-158 65l266 369l162 -125z" glyph-name="yacute" horiz-adv-x="1148" unicode="ý"/><glyph d="M373 1434v-568q123 180 354 181q209 0 342 -153t133 -380q0 -229 -133 -381.5t-342 -152.5q-231 0 -354 178v-525h-209v1801h209zM367 514q0 -150 89 -247t222 -97q135 0 223 97.5t88 246.5q0 147 -88 244.5t-223 97.5q-133 0 -222 -98.5t-89 -243.5z" glyph-name="thorn" horiz-adv-x="1308" unicode="þ"/><glyph d="M156 -416l-76 191q256 76 377 235l-414 1014h227l303 -793l310 793h227l-375 -905q-192 -465 -579 -535zM262 1304.5q0 53.5 37 90.5t92 37q53 0 90 -37t37 -90.5t-37 -90t-90 -36.5q-55 0 -92 36.5t-37 90zM639 1304.5q0 53.5 38 90.5t91 37t90 -37t37 -90.5t-37 -90 t-90 -36.5t-91 36.5t-38 90z" glyph-name="ydieresis" horiz-adv-x="1148" unicode="ÿ"/><glyph d="M635 1434h235l609 -1434h-232l-119 285h-755l-117 -285h-229zM752 1200l-297 -719h594zM1040 1782v-178h-577v178h577z" glyph-name="Amacron" horiz-adv-x="1503" unicode="Ā"/><glyph d="M236 766l-91 164q188 117 408 117q209 0 335 -115t126 -377v-555h-205v137q-150 -158 -348 -157q-164 0 -263.5 86t-99.5 239q0 162 108.5 253t293.5 91q154 0 309 -67q-8 279 -272 278q-141 0 -301 -94zM506 141q180 0 303 164v129q-125 66 -266 66q-111 0 -172.5 -49.5 t-61.5 -135.5q0 -84 56.5 -129t140.5 -45zM866 1395v-178h-577v178h577z" glyph-name="amacron" horiz-adv-x="1163" unicode="ā"/><glyph d="M635 1434h235l609 -1434h-232l-119 285h-755l-117 -285h-229zM752 1200l-297 -719h594zM932 1868l158 -72q-47 -115 -135.5 -182.5t-203 -67.5t-201.5 67.5t-134 182.5l157 72q68 -150 179 -150q112 0 180 150z" glyph-name="Abreve" horiz-adv-x="1503" unicode="Ă"/><glyph d="M236 766l-91 164q188 117 408 117q209 0 335 -115t126 -377v-555h-205v137q-150 -158 -348 -157q-164 0 -263.5 86t-99.5 239q0 162 108.5 253t293.5 91q154 0 309 -67q-8 279 -272 278q-141 0 -301 -94zM506 141q180 0 303 164v129q-125 66 -266 66q-111 0 -172.5 -49.5 t-61.5 -135.5q0 -84 56.5 -129t140.5 -45zM756 1481l157 -72q-47 -115 -135 -182.5t-202.5 -67.5t-201.5 67.5t-134 182.5l157 72q68 -150 178 -150q113 0 181 150z" glyph-name="abreve" horiz-adv-x="1163" unicode="ă"/><glyph d="M635 1434h235l609 -1434q-170 -160 -170 -264q0 -74 88 -74q23 0 61 8l27 -166q-43 -14 -105 -14q-109 0 -174 51t-65 148q0 147 178 311h-72l-119 285h-755l-117 -285h-229zM752 1200l-297 -719h594z" glyph-name="Aogonek" horiz-adv-x="1503" unicode="Ą"/><glyph d="M236 766l-91 164q188 117 408 117q209 0 335 -115t126 -377v-555q-170 -160 -170 -264q0 -74 88 -74q23 0 61 8l27 -166q-43 -14 -105 -14q-109 0 -174 51t-65 148q0 147 178 311h-45v137q-150 -158 -348 -157q-164 0 -263.5 86t-99.5 239q0 162 108.5 253t293.5 91 q154 0 309 -67q-8 279 -272 278q-141 0 -301 -94zM506 141q180 0 303 164v129q-125 66 -266 66q-111 0 -172.5 -49.5t-61.5 -135.5q0 -84 56.5 -129t140.5 -45z" glyph-name="aogonek" horiz-adv-x="1163" unicode="ą"/><glyph d="M1290 522l205 -67q-74 -211 -254 -343t-412 -132q-303 0 -509.5 211.5t-206.5 525t206.5 525.5t509.5 212q231 0 411.5 -132t254.5 -343l-205 -68q-55 154 -178 247t-281 93q-211 0 -354 -153.5t-143 -381t143.5 -381t353.5 -153.5q158 0 281 93t178 247zM829 1528 l-157 65l266 369l162 -125z" glyph-name="Cacute" horiz-adv-x="1579" unicode="Ć"/><glyph d="M909 383l195 -61q-55 -156 -183 -249t-298 -93q-223 0 -371 152.5t-148 379.5t147.5 381t371.5 154q170 0 298 -94.5t183 -250.5l-195 -61q-35 98 -109.5 156.5t-174.5 58.5q-135 0 -221.5 -97t-86.5 -247t86 -246t222 -96q100 0 174.5 57.5t109.5 155.5zM621 1141 l-158 65l266 369l162 -125z" glyph-name="cacute" horiz-adv-x="1185" unicode="ć"/><glyph d="M1290 522l205 -67q-74 -211 -254 -343t-412 -132q-303 0 -509.5 211.5t-206.5 525t206.5 525.5t509.5 212q231 0 411.5 -132t254.5 -343l-205 -68q-55 154 -178 247t-281 93q-211 0 -354 -153.5t-143 -381t143.5 -381t353.5 -153.5q158 0 281 93t178 247zM702 1691.5 q0 53.5 38 90.5t91.5 37t90 -37t36.5 -90.5t-36.5 -90t-90 -36.5t-91.5 36.5t-38 90z" glyph-name="Cdotaccent" horiz-adv-x="1579" unicode="Ċ"/><glyph d="M909 383l195 -61q-55 -156 -183 -249t-298 -93q-223 0 -371 152.5t-148 379.5t147.5 381t371.5 154q170 0 298 -94.5t183 -250.5l-195 -61q-35 98 -109.5 156.5t-174.5 58.5q-135 0 -221.5 -97t-86.5 -247t86 -246t222 -96q100 0 174.5 57.5t109.5 155.5zM496 1304.5 q0 53.5 37.5 90.5t91 37t90.5 -37t37 -90.5t-37 -90t-90.5 -36.5t-91 36.5t-37.5 90z" glyph-name="cdotaccent" horiz-adv-x="1185" unicode="ċ"/><glyph d="M1290 522l205 -67q-74 -211 -254 -343t-412 -132q-303 0 -509.5 211.5t-206.5 525t206.5 525.5t509.5 212q231 0 411.5 -132t254.5 -343l-205 -68q-55 154 -178 247t-281 93q-211 0 -354 -153.5t-143 -381t143.5 -381t353.5 -153.5q158 0 281 93t178 247zM1049 1898 l106 -133l-324 -237l-325 237l106 133l219 -157z" glyph-name="Ccaron" horiz-adv-x="1579" unicode="Č"/><glyph d="M909 383l195 -61q-55 -156 -183 -249t-298 -93q-223 0 -371 152.5t-148 379.5t147.5 381t371.5 154q170 0 298 -94.5t183 -250.5l-195 -61q-35 98 -109.5 156.5t-174.5 58.5q-135 0 -221.5 -97t-86.5 -247t86 -246t222 -96q100 0 174.5 57.5t109.5 155.5zM842 1511 l106 -133l-323 -237l-326 237l107 133l219 -157z" glyph-name="ccaron" horiz-adv-x="1185" unicode="č"/><glyph d="M203 0v1434h571q317 0 497.5 -198t180.5 -519.5t-181 -519t-497 -197.5h-571zM758 1233h-344v-1032h344q233 0 353 139t120 376.5t-120 377t-353 139.5zM1004 1898l106 -133l-324 -237l-325 237l106 133l219 -157z" glyph-name="Dcaron" horiz-adv-x="1570" unicode="Ď"/><glyph d="M938 1434h209v-1434h-209v160q-125 -180 -354 -180q-211 0 -344.5 151.5t-133.5 380.5t133.5 382t344.5 153q229 0 354 -183v570zM942 512q0 147 -89 245.5t-222 98.5q-135 0 -223.5 -98.5t-88.5 -245.5t88.5 -244.5t223.5 -97.5q133 0 222 97.5t89 244.5zM1348 965 l-80 71q119 119 114 199q-49 -16 -95 16.5t-46 87.5q0 45 33 80t88 35q59 0 99 -41t40 -129q1 -169 -153 -319z" glyph-name="dcaron" horiz-adv-x="1454" unicode="ď"/><glyph d="M84 618v197h160v619h569q317 0 498.5 -198t181.5 -519.5t-181.5 -519t-498.5 -197.5h-569v618h-160zM881 618h-426v-417h342q233 0 354 139t121 376.5t-121 377t-354 139.5h-342v-418h426v-197z" glyph-name="Dcroat" horiz-adv-x="1609" unicode="Đ"/><glyph d="M938 1313v121h209v-121h137v-174h-137v-1139h-209v160q-125 -180 -354 -180q-211 0 -344.5 151.5t-133.5 380.5t133.5 382t344.5 153q229 0 354 -183v275h-320v174h320zM942 512q0 147 -89 245.5t-222 98.5q-135 0 -223.5 -98.5t-88.5 -245.5t88.5 -244.5t223.5 -97.5 q133 0 222 97.5t89 244.5z" glyph-name="dcroat" horiz-adv-x="1327" unicode="đ"/><glyph d="M203 0v1434h1026v-201h-815v-416h663v-196h-663v-420h815v-201h-1026zM1006 1782v-178h-578v178h578z" glyph-name="Emacron" horiz-adv-x="1339" unicode="Ē"/><glyph d="M936 293l119 -143q-158 -170 -414 -170q-248 0 -392.5 153.5t-144.5 378.5q0 229 144.5 382t363.5 153q223 0 360.5 -154t137.5 -346q0 -47 -10 -98h-778q18 -127 103 -206t224 -79q162 0 287 129zM614 860q-111 0 -187.5 -68.5t-100.5 -181.5h567q-20 109 -93 179.5 t-186 70.5zM901 1395v-178h-577v178h577z" glyph-name="emacron" horiz-adv-x="1206" unicode="ē"/><glyph d="M203 0v1434h1026v-201h-815v-416h663v-196h-663v-420h815v-201h-1026zM586 1691.5q0 53.5 38 90.5t91 37t90 -37t37 -90.5t-37 -90t-90 -36.5t-91 36.5t-38 90z" glyph-name="Edotaccent" horiz-adv-x="1339" unicode="Ė"/><glyph d="M936 293l119 -143q-158 -170 -414 -170q-248 0 -392.5 153.5t-144.5 378.5q0 229 144.5 382t363.5 153q223 0 360.5 -154t137.5 -346q0 -47 -10 -98h-778q18 -127 103 -206t224 -79q162 0 287 129zM614 860q-111 0 -187.5 -68.5t-100.5 -181.5h567q-20 109 -93 179.5 t-186 70.5zM483 1304.5q0 53.5 38 90.5t91.5 37t90 -37t36.5 -90.5t-36.5 -90t-90 -36.5t-91.5 36.5t-38 90z" glyph-name="edotaccent" horiz-adv-x="1206" unicode="ė"/><glyph d="M203 0v1434h1026v-201h-815v-416h663v-196h-663v-420h815v-201q-170 -160 -170 -264q0 -74 88 -74q23 0 61 8l27 -166q-43 -14 -105 -14q-109 0 -174 51t-65 148q0 147 178 311h-866z" glyph-name="Eogonek" horiz-adv-x="1339" unicode="Ę"/><glyph d="M936 293l119 -143q-66 -72 -156 -115q-207 -182 -207 -299q0 -74 88 -74q20 0 60 8l28 -166q-43 -14 -106 -14q-106 0 -172 51t-66 148q0 141 156 293q-12 -2 -39 -2q-248 0 -392.5 153.5t-144.5 378.5q0 229 144.5 382t363.5 153q223 0 360.5 -154t137.5 -346 q0 -47 -10 -98h-778q18 -127 103 -206t224 -79q162 0 287 129zM614 860q-111 0 -187.5 -68.5t-100.5 -181.5h567q-20 109 -93 179.5t-186 70.5z" glyph-name="eogonek" horiz-adv-x="1206" unicode="ę"/><glyph d="M203 0v1434h1026v-201h-815v-416h663v-196h-663v-420h815v-201h-1026zM934 1898l106 -133l-323 -237l-326 237l107 133l219 -157z" glyph-name="Ecaron" horiz-adv-x="1339" unicode="Ě"/><glyph d="M936 293l119 -143q-158 -170 -414 -170q-248 0 -392.5 153.5t-144.5 378.5q0 229 144.5 382t363.5 153q223 0 360.5 -154t137.5 -346q0 -47 -10 -98h-778q18 -127 103 -206t224 -79q162 0 287 129zM614 860q-111 0 -187.5 -68.5t-100.5 -181.5h567q-20 109 -93 179.5 t-186 70.5zM829 1511l107 -133l-324 -237l-325 237l106 133l219 -157z" glyph-name="ecaron" horiz-adv-x="1206" unicode="ě"/><glyph d="M799 580v194h684v-774h-187v231q-152 -252 -485 -251q-303 0 -499.5 209.5t-196.5 527.5q0 313 206.5 525t512.5 212q190 0 345.5 -90t252.5 -248l-181 -112q-68 115 -177 182t-240 67q-213 0 -355.5 -153.5t-142.5 -383t137 -383t350 -153.5q170 0 295 104.5t158 295.5 h-477zM1014 1868l157 -72q-47 -115 -135 -182.5t-202.5 -67.5t-201.5 67.5t-134 182.5l157 72q68 -150 179 -150q112 0 180 150z" glyph-name="Gbreve" horiz-adv-x="1622" unicode="Ğ"/><glyph d="M106 539q0 221 127 364.5t332 143.5q221 0 344 -173v150h209v-870q0 -293 -134 -425t-351 -132q-274 0 -486 184l113 162q193 -158 354 -158q295 0 295 344v74q-123 -170 -344 -170q-205 0 -332 143.5t-127 362.5zM319 538.5q0 -137.5 85 -226.5t212 -89q129 0 213 89 t84 226.5t-84 227.5t-213 90q-127 0 -212 -90t-85 -227.5zM813 1481l158 -72q-47 -115 -135 -182.5t-203 -67.5t-202 67.5t-134 182.5l158 72q68 -150 178 -150q112 0 180 150z" glyph-name="gbreve" horiz-adv-x="1280" unicode="ğ"/><glyph d="M799 580v194h684v-774h-187v231q-152 -252 -485 -251q-303 0 -499.5 209.5t-196.5 527.5q0 313 206.5 525t512.5 212q190 0 345.5 -90t252.5 -248l-181 -112q-68 115 -177 182t-240 67q-213 0 -355.5 -153.5t-142.5 -383t137 -383t350 -153.5q170 0 295 104.5t158 295.5 h-477zM705 1691.5q0 53.5 37.5 90.5t91 37t90.5 -37t37 -90.5t-37 -90t-90.5 -36.5t-91 36.5t-37.5 90z" glyph-name="Gdotaccent" horiz-adv-x="1622" unicode="Ġ"/><glyph d="M106 539q0 221 127 364.5t332 143.5q221 0 344 -173v150h209v-870q0 -293 -134 -425t-351 -132q-274 0 -486 184l113 162q193 -158 354 -158q295 0 295 344v74q-123 -170 -344 -170q-205 0 -332 143.5t-127 362.5zM319 538.5q0 -137.5 85 -226.5t212 -89q129 0 213 89 t84 226.5t-84 227.5t-213 90q-127 0 -212 -90t-85 -227.5zM504 1304.5q0 53.5 38 90.5t91 37t90 -37t37 -90.5t-37 -90t-90 -36.5t-91 36.5t-38 90z" glyph-name="gdotaccent" horiz-adv-x="1280" unicode="ġ"/><glyph d="M799 580v194h684v-774h-187v231q-152 -252 -485 -251q-303 0 -499.5 209.5t-196.5 527.5q0 313 206.5 525t512.5 212q190 0 345.5 -90t252.5 -248l-181 -112q-68 115 -177 182t-240 67q-213 0 -355.5 -153.5t-142.5 -383t137 -383t350 -153.5q170 0 295 104.5t158 295.5 h-477zM817 -616l-80 71q119 119 115 199q-49 -16 -95 16.5t-46 87.5q0 45 32.5 80t87.5 35q59 0 99.5 -41t40.5 -129q0 -169 -154 -319z" glyph-name="Gcommaaccent" horiz-adv-x="1622" unicode="Ģ"/><glyph d="M106 539q0 221 127 364.5t332 143.5q221 0 344 -173v150h209v-870q0 -293 -134 -425t-351 -132q-274 0 -486 184l113 162q193 -158 354 -158q295 0 295 344v74q-123 -170 -344 -170q-205 0 -332 143.5t-127 362.5zM319 538.5q0 -137.5 85 -226.5t212 -89q129 0 213 89 t84 226.5t-84 227.5t-213 90q-127 0 -212 -90t-85 -227.5zM635 -983l-80 72q119 119 115 198q-49 -16 -95.5 16.5t-46.5 88.5q0 45 33 79.5t88 34.5q59 0 99 -42t40 -128q1 -169 -153 -319z" glyph-name="gcommaaccent" horiz-adv-x="1280" unicode="ģ"/><glyph d="M1247 1434h211v-222h119v-180h-119v-1032h-211v616h-823v-616h-211v1032h-121v180h121v222h211v-222h823v222zM424 817h823v215h-823v-215z" glyph-name="Hbar" unicode="Ħ"/><glyph d="M43 1139v174h139v121h209v-121h320v-174h-320v-277q117 184 352 185q174 0 277.5 -108t103.5 -323v-616h-209v588q0 137 -62 202.5t-163 65.5q-131 0 -215 -96t-84 -228v-532h-209v1139h-139z" glyph-name="hbar" horiz-adv-x="1275" unicode="ħ"/><glyph d="M203 1434h213v-1434h-213v1434zM121 1585h-176q-6 139 49 227.5t170 88.5q96 0 186 -99q12 -12 26.5 -29.5t20.5 -24.5t14.5 -15.5t14.5 -10.5t14 -2q66 0 58 150h174q10 -137 -47.5 -226.5t-167.5 -89.5q-102 0 -189 97q-10 10 -24.5 29.5t-23.5 28.5t-20.5 17.5 t-23.5 8.5q-63 0 -55 -150z" glyph-name="Itilde" horiz-adv-x="618" unicode="Ĩ"/><glyph d="M164 0v1024h209v-1024h-209zM80 1198h-176q-6 139 49 227t170 88q96 0 186 -98q12 -12 26.5 -29.5t20.5 -24.5t14.5 -15.5t14.5 -10.5t14 -2q66 0 58 150h174q10 -137 -47.5 -226.5t-167.5 -89.5q-102 0 -189 97q-10 10 -24.5 29.5t-23.5 28.5t-20.5 17.5t-23.5 8.5 q-63 0 -55 -150z" glyph-name="itilde" horiz-adv-x="534" unicode="ĩ"/><glyph d="M203 1434h213v-1434h-213v1434zM598 1782v-178h-578v178h578z" glyph-name="Imacron" horiz-adv-x="618" unicode="Ī"/><glyph d="M164 0v1024h209v-1024h-209zM557 1395v-178h-577v178h577z" glyph-name="imacron" horiz-adv-x="534" unicode="ī"/><glyph d="M203 1434h213v-1434h-213v1434zM489 1868l158 -72q-47 -115 -135 -182.5t-202.5 -67.5t-202 67.5t-134.5 182.5l158 72q68 -150 178 -150q112 0 180 150z" glyph-name="Ibreve" horiz-adv-x="618" unicode="Ĭ"/><glyph d="M164 0v1024h209v-1024h-209zM446 1481l158 -72q-47 -115 -135 -182.5t-202.5 -67.5t-202 67.5t-134.5 182.5l158 72q68 -150 178 -150q112 0 180 150z" glyph-name="ibreve" horiz-adv-x="534" unicode="ĭ"/><glyph d="M203 1434h213v-1434q-170 -160 -170 -264q0 -74 88 -74q23 0 61 8l27 -166q-43 -14 -105 -14q-109 0 -174 51t-65 148q0 147 178 311h-53v1434z" glyph-name="Iogonek" horiz-adv-x="618" unicode="Į"/><glyph d="M164 0v1024h209v-1024q-170 -160 -170 -264q0 -74 88 -74q23 0 61 8l27 -166q-43 -14 -105 -14q-109 0 -174 51t-65 148q0 147 178 311h-49zM266 1184q-55 0 -94 39t-39 94t39 94t94 39q57 0 96 -39t39 -94t-39 -94t-96 -39z" glyph-name="iogonek" horiz-adv-x="534" unicode="į"/><glyph d="M203 1434h213v-1434h-213v1434zM180 1691.5q0 53.5 38 90.5t91 37t90 -37t37 -90.5t-37 -90t-90 -36.5t-91 36.5t-38 90z" glyph-name="Idotaccent" horiz-adv-x="618" unicode="İ"/><glyph d="M164 0v1024h209v-1024h-209z" glyph-name="dotlessi" horiz-adv-x="534" unicode="ı"/><glyph d="M203 1434h213v-1434h-213v1434zM922 1233v201h845v-918q0 -236 -142 -386t-394 -150t-395.5 150.5t-143.5 385.5v174h213v-151q0 -166 86 -262.5t239.5 -96.5t238.5 96.5t85 262.5v694h-632z" glyph-name="IJ" horiz-adv-x="1951" unicode="Ĳ"/><glyph d="M164 0v1024h209v-1024h-209zM266 1184q-55 0 -94 39t-39 94t39 94t94 39q57 0 96 -39t39 -94t-39 -94t-96 -39zM502 -381l30 180q51 -10 70 -10q102 0 103 133v1102h208v-1120q0 -152 -75.5 -227.5t-206.5 -75.5q-68 0 -129 18zM809 1184q-57 0 -95 39t-38 94t38 94 t95 39t96 -39t39 -94t-39 -94t-96 -39z" glyph-name="ij" horiz-adv-x="1075" unicode="ĳ"/><glyph d="M317 1233v201h846v-918q0 -236 -142 -386t-394 -150t-395.5 150.5t-143.5 385.5v174h213v-151q0 -166 86 -262.5t239.5 -96.5t238.5 96.5t85 262.5v694h-633zM1065 1667l-107 -131l-217 158l-219 -158l-106 131l325 240z" glyph-name="Jcircumflex" horiz-adv-x="1347" unicode="Ĵ"/><glyph d="M-27 -381l31 180q51 -10 70 -10q102 0 102 133v1102h209v-1120q0 -152 -76 -227.5t-207 -75.5q-68 0 -129 18zM604 1280l-106 -131l-217 158l-220 -158l-106 131l326 240z" glyph-name="jcircumflex" horiz-adv-x="548" unicode="ĵ"/><glyph d="M1165 0l-420 616h-329v-616h-213v1434h213v-617h321l391 617h246l-450 -713l491 -721h-250zM735 -616l-80 71q119 119 115 199q-49 -16 -95 16.5t-46 87.5q0 45 32.5 80t88.5 35q59 0 99 -41t40 -129q0 -169 -154 -319z" glyph-name="Kcommaaccent" horiz-adv-x="1441" unicode="Ķ"/><glyph d="M877 0l-279 418h-225v-418h-209v1434h209v-828h221l252 418h227l-305 -504l348 -520h-239zM575 -616l-79 71q119 119 114 199q-49 -16 -95 16.5t-46 87.5q0 45 33 80t88 35q59 0 99 -41t40 -129q0 -169 -154 -319z" glyph-name="kcommaaccent" horiz-adv-x="1155" unicode="ķ"/><glyph d="M203 0v1434h211v-1231h768v-203h-979zM307 1528l-157 65l266 369l162 -125z" glyph-name="Lacute" horiz-adv-x="1239" unicode="Ĺ"/><glyph d="M164 0v1434h209v-1434h-209zM248 1528l-158 65l266 369l162 -125z" glyph-name="lacute" horiz-adv-x="534" unicode="ĺ"/><glyph d="M203 0v1434h211v-1231h768v-203h-979zM668 -616l-80 71q119 119 114 199q-49 -16 -95 16.5t-46 87.5q0 45 33 80t88 35q59 0 99 -41t40 -129q1 -169 -153 -319z" glyph-name="Lcommaaccent" horiz-adv-x="1239" unicode="Ļ"/><glyph d="M250 -616l-80 71q119 119 115 199q-49 -16 -95.5 16.5t-46.5 87.5q0 45 33 80t88 35q59 0 99 -41t40 -129q1 -169 -153 -319zM164 0v1434h209v-1434h-209z" glyph-name="lcommaaccent" horiz-adv-x="534" unicode="ļ"/><glyph d="M203 0v1434h211v-1231h768v-203h-979zM680 965l-80 71q119 119 115 199q-49 -16 -95.5 16.5t-46.5 87.5q0 45 33 80t88 35q59 0 99.5 -41t40.5 -129q0 -169 -154 -319z" glyph-name="Lcaron" horiz-adv-x="1241" unicode="Ľ"/><glyph d="M164 0v1434h209v-1434h-209zM573 965l-79 71q119 119 114 199q-49 -16 -95 16.5t-46 87.5q0 45 32.5 80t88.5 35q59 0 99 -41t40 -129q0 -169 -154 -319z" glyph-name="lcaron" horiz-adv-x="677" unicode="ľ"/><glyph d="M203 0v1434h211v-1231h768v-203h-979zM696 727q0 53 38 90t91.5 37t90 -37t36.5 -90t-36.5 -90t-90 -37t-91.5 37t-38 90z" glyph-name="Ldot" horiz-adv-x="1241" unicode="Ŀ"/><glyph d="M164 0v1434h209v-1434h-209zM446 725q0 53 38 90t91.5 37t90 -37t36.5 -90t-36.5 -90t-90 -37t-91.5 37t-38 90z" glyph-name="ldot" horiz-adv-x="692" unicode="ŀ"/><glyph d="M80 420v227l151 105v682h211v-535l293 205v-227l-293 -205v-469h768v-203h-979v524z" glyph-name="Lslash" horiz-adv-x="1267" unicode="Ł"/><glyph d="M98 492v227l121 84v631h209v-484l121 84v-229l-121 -84v-721h-209v575z" glyph-name="lslash" horiz-adv-x="645" unicode="ł"/><glyph d="M414 0h-211v1434h215l827 -1102v1102h211v-1434h-215l-827 1100v-1100zM827 1528l-157 65l266 369l162 -125z" glyph-name="Nacute" horiz-adv-x="1658" unicode="Ń"/><glyph d="M897 0v588q0 137 -62.5 202.5t-162.5 65.5q-131 0 -215 -96t-84 -228v-532h-209v1024h209v-162q117 184 352 185q174 0 277.5 -108t103.5 -323v-616h-209zM633 1141l-158 65l266 369l162 -125z" glyph-name="nacute" horiz-adv-x="1257" unicode="ń"/><glyph d="M414 0h-211v1434h215l827 -1102v1102h211v-1434h-215l-827 1100v-1100zM809 -616l-80 71q119 119 115 199q-49 -16 -95.5 16.5t-46.5 87.5q0 45 33 80t88 35q59 0 99.5 -41t40.5 -129q0 -169 -154 -319z" glyph-name="Ncommaaccent" horiz-adv-x="1658" unicode="Ņ"/><glyph d="M897 0v588q0 137 -62.5 202.5t-162.5 65.5q-131 0 -215 -96t-84 -228v-532h-209v1024h209v-162q117 184 352 185q174 0 277.5 -108t103.5 -323v-616h-209zM618 -616l-79 71q119 119 114 199q-49 -16 -95 16.5t-46 87.5q0 45 33 80t88 35q59 0 99 -41t40 -129 q0 -169 -154 -319z" glyph-name="ncommaaccent" horiz-adv-x="1257" unicode="ņ"/><glyph d="M414 0h-211v1434h215l827 -1102v1102h211v-1434h-215l-827 1100v-1100zM1047 1898l106 -133l-324 -237l-325 237l106 133l219 -157z" glyph-name="Ncaron" horiz-adv-x="1658" unicode="Ň"/><glyph d="M897 0v588q0 137 -62.5 202.5t-162.5 65.5q-131 0 -215 -96t-84 -228v-532h-209v1024h209v-162q117 184 352 185q174 0 277.5 -108t103.5 -323v-616h-209zM852 1511l106 -133l-323 -237l-326 237l107 133l219 -157z" glyph-name="ncaron" horiz-adv-x="1257" unicode="ň"/><glyph d="M1206 0v588q0 137 -62.5 202.5t-162.5 65.5q-131 0 -215 -96t-84 -228v-532h-209v1024h209v-162q117 184 352 185q174 0 277.5 -108t103.5 -323v-616h-209zM199 834l-105 88q152 158 146 282q-61 -23 -120 16.5t-59 106.5q0 57 40 100t106 43q74 0 129 -58t55 -173 q0 -109 -55 -219t-137 -186z" glyph-name="napostrophe" horiz-adv-x="1566" unicode="ŉ"/><glyph d="M414 0h-211v1434h215l827 -1102v1102h211v-1530q0 -156 -81 -234t-216 -78q-86 0 -184 31l35 189q61 -23 116 -23q119 0 119 133v72l-831 1106v-1100z" glyph-name="Eng" horiz-adv-x="1658" unicode="Ŋ"/><glyph d="M694 -381l31 180q51 -10 70 -10q102 0 102 133v666q0 137 -62.5 202.5t-162.5 65.5q-131 0 -215 -96t-84 -228v-532h-209v1024h209v-162q117 184 352 185q174 0 277.5 -108t103.5 -323v-712q0 -152 -76 -227.5t-207 -75.5q-68 0 -129 18z" glyph-name="eng" horiz-adv-x="1257" unicode="ŋ"/><glyph d="M115 716.5q0 315.5 206.5 526.5t516.5 211q311 0 518 -211t207 -526.5t-208 -526t-517.5 -210.5t-516 210.5t-206.5 526zM336 716.5q0 -227.5 144.5 -382t357.5 -154.5q215 0 358 153.5t143 383.5q0 227 -143 380.5t-358 153.5q-213 0 -357.5 -153.5t-144.5 -381z M1128 1782v-178h-577v178h577z" glyph-name="Omacron" horiz-adv-x="1675" unicode="Ō"/><glyph d="M104 512q0 227 152 381t377 154t375.5 -154t150.5 -381t-150.5 -379.5t-375.5 -152.5t-377 152.5t-152 379.5zM317 512q0 -150 89.5 -246t226.5 -96t226 96t89 246t-89 247t-226 97t-226.5 -97t-89.5 -247zM922 1395v-178h-578v178h578z" glyph-name="omacron" horiz-adv-x="1265" unicode="ō"/><glyph d="M115 716.5q0 315.5 206.5 526.5t516.5 211q311 0 518 -211t207 -526.5t-208 -526t-517.5 -210.5t-516 210.5t-206.5 526zM336 716.5q0 -227.5 144.5 -382t357.5 -154.5q215 0 358 153.5t143 383.5q0 227 -143 380.5t-358 153.5q-213 0 -357.5 -153.5t-144.5 -381z M1018 1868l158 -72q-47 -115 -135.5 -182.5t-203 -67.5t-201.5 67.5t-134 182.5l157 72q68 -150 179 -150q112 0 180 150z" glyph-name="Obreve" horiz-adv-x="1675" unicode="Ŏ"/><glyph d="M104 512q0 227 152 381t377 154t375.5 -154t150.5 -381t-150.5 -379.5t-375.5 -152.5t-377 152.5t-152 379.5zM317 512q0 -150 89.5 -246t226.5 -96t226 96t89 246t-89 247t-226 97t-226.5 -97t-89.5 -247zM813 1481l158 -72q-47 -115 -135 -182.5t-203 -67.5t-202 67.5 t-134 182.5l158 72q68 -150 178 -150q112 0 180 150z" glyph-name="obreve" horiz-adv-x="1265" unicode="ŏ"/><glyph d="M115 716.5q0 315.5 206.5 526.5t516.5 211q311 0 518 -211t207 -526.5t-208 -526t-517.5 -210.5t-516 210.5t-206.5 526zM336 716.5q0 -227.5 144.5 -382t357.5 -154.5q215 0 358 153.5t143 383.5q0 227 -143 380.5t-358 153.5q-213 0 -357.5 -153.5t-144.5 -381z M1087 1528l-157 65l266 369l162 -125zM666 1528l-156 65l266 369l162 -125z" glyph-name="Ohungarumlaut" horiz-adv-x="1675" unicode="Ő"/><glyph d="M104 512q0 227 152 381t377 154t375.5 -154t150.5 -381t-150.5 -379.5t-375.5 -152.5t-377 152.5t-152 379.5zM317 512q0 -150 89.5 -246t226.5 -96t226 96t89 246t-89 247t-226 97t-226.5 -97t-89.5 -247zM881 1141l-158 65l266 369l162 -125zM459 1141l-156 65l266 369 l162 -125z" glyph-name="ohungarumlaut" horiz-adv-x="1265" unicode="ő"/><glyph d="M115 716.5q0 325.5 215 521.5t610 196h1030v-201h-780v-416h629v-196h-629v-420h780v-201h-1030q-395 0 -610 195.5t-215 521zM920 201h57v1032h-57q-281 0 -433.5 -139.5t-152.5 -377t152.5 -376.5t433.5 -139z" glyph-name="OE" horiz-adv-x="2080" unicode="Œ"/><glyph d="M104 512q0 227 152 381t377 154q129 0 238.5 -54.5t181.5 -150.5q147 205 405 205q223 0 360.5 -154t137.5 -346q0 -47 -10 -98h-779q18 -127 103.5 -206t224.5 -79q170 0 285 125l121 -139q-158 -170 -414 -170q-285 0 -434 202q-154 -203 -420 -202q-225 0 -377 152.5 t-152 379.5zM317 512q0 -150 89.5 -246t226.5 -96t226 96t89 246t-89 247t-226 97t-226.5 -97t-89.5 -247zM1460 860q-111 0 -187.5 -68.5t-101.5 -181.5h568q-20 109 -93 179.5t-186 70.5z" glyph-name="oe" horiz-adv-x="2052" unicode="œ"/><glyph d="M203 1434h616q240 0 375 -137.5t135 -344.5q0 -147 -72.5 -265t-207.5 -173l356 -514h-256l-328 473h-407v-473h-211v1434zM782 672q164 0 246 76.5t82 203.5q0 129 -82 206t-246 77h-368v-563h368zM760 1528l-158 65l266 369l162 -125z" glyph-name="Racute" horiz-adv-x="1482" unicode="Ŕ"/><glyph d="M373 1024v-362q51 141 157.5 253.5t247.5 128.5v-241q-152 -27 -278.5 -154t-126.5 -276v-373h-209v1024h209zM469 1141l-158 65l267 369l161 -125z" glyph-name="racute" horiz-adv-x="831" unicode="ŕ"/><glyph d="M203 0v1434h616q240 0 375 -137.5t135 -344.5q0 -147 -72.5 -265t-207.5 -173l356 -514h-256l-328 473h-407v-473h-211zM414 672h368q164 0 246 76.5t82 203.5q0 129 -82 206t-246 77h-368v-563zM719 -616l-80 71q119 119 115 199q-49 -16 -95.5 16.5t-46.5 87.5 q0 45 33 80t88 35q59 0 99 -41t40 -129q1 -169 -153 -319z" glyph-name="Rcommaaccent" horiz-adv-x="1482" unicode="Ŗ"/><glyph d="M373 1024v-362q51 141 157.5 253.5t247.5 128.5v-241q-152 -27 -278.5 -154t-126.5 -276v-373h-209v1024h209zM248 -616l-80 71q119 119 115 199q-49 -16 -95.5 16.5t-46.5 87.5q0 45 33 80t88 35q59 0 99 -41t40 -129q1 -169 -153 -319z" glyph-name="rcommaaccent" horiz-adv-x="831" unicode="ŗ"/><glyph d="M203 1434h616q240 0 375 -137.5t135 -344.5q0 -147 -72.5 -265t-207.5 -173l356 -514h-256l-328 473h-407v-473h-211v1434zM782 672q164 0 246 76.5t82 203.5q0 129 -82 206t-246 77h-368v-563h368zM981 1898l106 -133l-323 -237l-326 237l107 133l219 -157z" glyph-name="Rcaron" horiz-adv-x="1482" unicode="Ř"/><glyph d="M373 1024v-362q51 141 157.5 253.5t247.5 128.5v-241q-152 -27 -278.5 -154t-126.5 -276v-373h-209v1024h209zM688 1511l107 -133l-324 -237l-326 237l107 133l219 -157z" glyph-name="rcaron" horiz-adv-x="831" unicode="ř"/><glyph d="M115 365l213 57q14 -127 113.5 -188.5t260.5 -61.5q156 0 242 53.5t86 143.5q0 49 -25.5 87t-80 64.5t-108.5 45t-138 42.5q-31 8 -45 13q-113 33 -187.5 63.5t-154.5 81.5t-120 126t-40 173q0 180 141.5 284.5t382.5 104.5q244 0 399.5 -110.5t155.5 -315.5v-27h-211v11 q0 123 -93 186.5t-253 63.5q-145 0 -223 -54.5t-78 -144.5q0 -43 19.5 -77t46 -56.5t80 -46t92.5 -35.5t112 -33q111 -33 173.5 -53.5t144.5 -59t125 -79.5t73.5 -105.5t30.5 -146.5q0 -186 -147.5 -288.5t-401.5 -102.5q-244 0 -402 98.5t-183 286.5zM653 1528l-157 65 l266 369l162 -125z" glyph-name="Sacute" horiz-adv-x="1361" unicode="Ś"/><glyph d="M106 246l199 65q33 -158 250 -157q215 0 215 112q0 23 -8 41.5t-28.5 33.5t-38 25.5t-52.5 20.5t-51.5 15.5t-58 14.5t-52.5 11q-170 41 -268 114.5t-98 207.5q0 139 109.5 218t295.5 79q190 0 312 -83t122 -235v-8h-206v2q0 150 -226 149q-94 0 -145 -32.5t-51 -85.5 q0 -16 4 -31.5t16 -28t22.5 -21.5t31 -18.5t33.5 -14.5t41 -13.5t42 -11.5t46 -10t44 -11q82 -20 139.5 -41t116 -56.5t89 -91t30.5 -131.5q0 -143 -112.5 -218.5t-309.5 -75.5q-184 0 -305 67.5t-148 198.5zM518 1141l-158 65l267 369l161 -125z" glyph-name="sacute" horiz-adv-x="1085" unicode="ś"/><glyph d="M115 365l213 57q14 -127 113.5 -188.5t260.5 -61.5q156 0 242 53.5t86 143.5q0 49 -25.5 87t-80 64.5t-108.5 45t-138 42.5q-31 8 -45 13q-113 33 -187.5 63.5t-154.5 81.5t-120 126t-40 173q0 180 141.5 284.5t382.5 104.5q244 0 399.5 -110.5t155.5 -315.5v-27h-211v11 q0 123 -93 186.5t-253 63.5q-145 0 -223 -54.5t-78 -144.5q0 -43 19.5 -77t46 -56.5t80 -46t92.5 -35.5t112 -33q111 -33 173.5 -53.5t144.5 -59t125 -79.5t73.5 -105.5t30.5 -146.5q0 -186 -147.5 -288.5t-401.5 -102.5q-244 0 -402 98.5t-183 286.5zM979 1667l-107 -131 l-217 158l-219 -158l-106 131l325 240z" glyph-name="Scircumflex" horiz-adv-x="1361" unicode="Ŝ"/><glyph d="M106 246l199 65q33 -158 250 -157q215 0 215 112q0 23 -8 41.5t-28.5 33.5t-38 25.5t-52.5 20.5t-51.5 15.5t-58 14.5t-52.5 11q-170 41 -268 114.5t-98 207.5q0 139 109.5 218t295.5 79q190 0 312 -83t122 -235v-8h-206v2q0 150 -226 149q-94 0 -145 -32.5t-51 -85.5 q0 -16 4 -31.5t16 -28t22.5 -21.5t31 -18.5t33.5 -14.5t41 -13.5t42 -11.5t46 -10t44 -11q82 -20 139.5 -41t116 -56.5t89 -91t30.5 -131.5q0 -143 -112.5 -218.5t-309.5 -75.5q-184 0 -305 67.5t-148 198.5zM846 1280l-107 -131l-217 158l-219 -158l-106 131l325 240z" glyph-name="scircumflex" horiz-adv-x="1085" unicode="ŝ"/><glyph d="M115 365l213 57q14 -127 113.5 -188.5t260.5 -61.5q156 0 242 53.5t86 143.5q0 49 -25.5 87t-80 64.5t-108.5 45t-138 42.5q-31 8 -45 13q-113 33 -187.5 63.5t-154.5 81.5t-120 126t-40 173q0 180 141.5 284.5t382.5 104.5q244 0 399.5 -110.5t155.5 -315.5v-27h-211v11 q0 123 -93 186.5t-253 63.5q-145 0 -223 -54.5t-78 -144.5q0 -43 19.5 -77t46 -56.5t80 -46t92.5 -35.5t112 -33q111 -33 173.5 -53.5t144.5 -59t125 -79.5t73.5 -105.5t30.5 -146.5q0 -176 -132 -277.5t-361 -111.5l-29 -80q94 -14 145.5 -69.5t51.5 -133.5 q0 -92 -68 -150.5t-182 -58.5q-121 0 -225 57l69 154q72 -45 141 -45q96 0 97 61q0 82 -142 76l-34 51l57 138q-219 12 -358 110.5t-164 272.5z" glyph-name="Scedilla" horiz-adv-x="1361" unicode="Ş"/><glyph d="M106 246l199 65q33 -158 250 -157q215 0 215 112q0 23 -8 41.5t-28.5 33.5t-38 25.5t-52.5 20.5t-51.5 15.5t-58 14.5t-52.5 11q-170 41 -268 114.5t-98 207.5q0 139 109.5 218t295.5 79q190 0 312 -83t122 -235v-8h-206v2q0 150 -226 149q-94 0 -145 -32.5t-51 -85.5 q0 -16 4 -31.5t16 -28t22.5 -21.5t31 -18.5t33.5 -14.5t41 -13.5t42 -11.5t46 -10t44 -11q82 -20 139.5 -41t116 -56.5t89 -91t30.5 -131.5q0 -133 -97.5 -207.5t-269.5 -84.5l-28 -80q94 -14 145 -69.5t51 -133.5q0 -92 -67.5 -150.5t-182.5 -58.5q-121 0 -225 57l70 154 q72 -45 141 -45q96 0 96 61q0 82 -141 76l-35 51l58 138q-160 10 -262.5 77.5t-127.5 186.5z" glyph-name="scedilla" horiz-adv-x="1085" unicode="ş"/><glyph d="M115 365l213 57q14 -127 113.5 -188.5t260.5 -61.5q156 0 242 53.5t86 143.5q0 49 -25.5 87t-80 64.5t-108.5 45t-138 42.5q-31 8 -45 13q-113 33 -187.5 63.5t-154.5 81.5t-120 126t-40 173q0 180 141.5 284.5t382.5 104.5q244 0 399.5 -110.5t155.5 -315.5v-27h-211v11 q0 123 -93 186.5t-253 63.5q-145 0 -223 -54.5t-78 -144.5q0 -43 19.5 -77t46 -56.5t80 -46t92.5 -35.5t112 -33q111 -33 173.5 -53.5t144.5 -59t125 -79.5t73.5 -105.5t30.5 -146.5q0 -186 -147.5 -288.5t-401.5 -102.5q-244 0 -402 98.5t-183 286.5zM872 1898l107 -133 l-324 -237l-325 237l106 133l219 -157z" glyph-name="Scaron" horiz-adv-x="1361" unicode="Š"/><glyph d="M106 246l199 65q33 -158 250 -157q215 0 215 112q0 23 -8 41.5t-28.5 33.5t-38 25.5t-52.5 20.5t-51.5 15.5t-58 14.5t-52.5 11q-170 41 -268 114.5t-98 207.5q0 139 109.5 218t295.5 79q190 0 312 -83t122 -235v-8h-206v2q0 150 -226 149q-94 0 -145 -32.5t-51 -85.5 q0 -16 4 -31.5t16 -28t22.5 -21.5t31 -18.5t33.5 -14.5t41 -13.5t42 -11.5t46 -10t44 -11q82 -20 139.5 -41t116 -56.5t89 -91t30.5 -131.5q0 -143 -112.5 -218.5t-309.5 -75.5q-184 0 -305 67.5t-148 198.5zM739 1511l107 -133l-324 -237l-325 237l106 133l219 -157z" glyph-name="scaron" horiz-adv-x="1085" unicode="š"/><glyph d="M59 1233v201h1178v-201h-483v-1233h-47l-25 -98q94 -14 145.5 -69.5t51.5 -133.5q0 -92 -68 -150.5t-182 -58.5q-121 0 -226 57l70 154q72 -45 141 -45q96 0 97 61q0 82 -142 76l-34 51l55 156h-47v1233h-484z" glyph-name="Tcommaaccent" horiz-adv-x="1296" unicode="Ţ"/><glyph d="M47 836v188h191v293l206 69v-362h365v-188h-365v-471q0 -195 156 -195q74 0 178 61l72 -172q-119 -80 -279 -79h-16l-29 -78q94 -14 145.5 -69.5t51.5 -133.5q0 -92 -67.5 -150.5t-182.5 -58.5q-121 0 -225 57l69 154q72 -45 142 -45q96 0 96 61q0 82 -141 76l-35 51 l63 154q-205 66 -204 379v459h-191z" glyph-name="tcommaaccent" horiz-adv-x="876" unicode="ţ"/><glyph d="M59 1233v201h1178v-201h-483v-1233h-211v1233h-484zM866 1898l107 -133l-324 -237l-325 237l106 133l219 -157z" glyph-name="Tcaron" horiz-adv-x="1296" unicode="Ť"/><glyph d="M47 836v188h191v293l206 69v-362h365v-188h-365v-471q0 -195 156 -195q74 0 178 61l72 -172q-119 -80 -279 -79q-334 0 -333 397v459h-191zM662 1118l-80 72q119 119 114 199q-49 -16 -95 16.5t-46 87.5q0 45 33 80t88 35q59 0 99 -42t40 -128q1 -170 -153 -320z" glyph-name="tcaron" horiz-adv-x="876" unicode="ť"/><glyph d="M68 1233v201h1177v-201h-483v-436h231v-185h-231v-612h-211v612h-236v185h236v436h-483z" glyph-name="Tbar" horiz-adv-x="1310" unicode="Ŧ"/><glyph d="M55 836v188h191v293l207 69v-362h364v-188h-364v-183h280v-174h-280v-114q0 -195 155 -195q74 0 178 61l72 -172q-121 -80 -278 -79q-334 0 -334 397v102h-156v174h156v183h-191z" glyph-name="tbar" horiz-adv-x="886" unicode="ŧ"/><glyph d="M1208 1434h213v-852q0 -264 -163.5 -433t-456.5 -169t-456 168.5t-163 433.5v852h213v-834q0 -197 106.5 -308.5t299.5 -111.5q195 0 301 110.5t106 309.5v834zM612 1585h-176q-6 139 49.5 227.5t169.5 88.5q96 0 187 -99q12 -12 26.5 -29.5t20.5 -24.5t14 -15.5 t14.5 -10.5t14.5 -2q66 0 57 150h174q10 -137 -47 -226.5t-168 -89.5q-102 0 -188 97q-10 10 -24.5 29.5t-24 28.5t-20.5 17.5t-23 8.5q-64 0 -56 -150z" glyph-name="Utilde" horiz-adv-x="1603" unicode="Ũ"/><glyph d="M358 1024v-588q0 -137 62.5 -201.5t165.5 -64.5q131 0 215 96t84 228v530h209v-1024h-209v166q-119 -186 -355 -186q-172 0 -276 106.5t-104 321.5v616h208zM434 1198h-176q-6 139 49 227t170 88q96 0 187 -98q12 -12 26.5 -29.5t20.5 -24.5t14 -15.5t14 -10.5t15 -2 q66 0 57 150h174q10 -137 -47 -226.5t-168 -89.5q-102 0 -188 97q-10 10 -24.5 29.5t-24 28.5t-20.5 17.5t-24 8.5q-63 0 -55 -150z" glyph-name="utilde" horiz-adv-x="1257" unicode="ũ"/><glyph d="M1208 1434h213v-852q0 -264 -163.5 -433t-456.5 -169t-456 168.5t-163 433.5v852h213v-834q0 -197 106.5 -308.5t299.5 -111.5q195 0 301 110.5t106 309.5v834zM1092 1782v-178h-578v178h578z" glyph-name="Umacron" horiz-adv-x="1603" unicode="Ū"/><glyph d="M358 1024v-588q0 -137 62.5 -201.5t165.5 -64.5q131 0 215 96t84 228v530h209v-1024h-209v166q-119 -186 -355 -186q-172 0 -276 106.5t-104 321.5v616h208zM911 1395v-178h-577v178h577z" glyph-name="umacron" horiz-adv-x="1257" unicode="ū"/><glyph d="M1208 1434h213v-852q0 -264 -163.5 -433t-456.5 -169t-456 168.5t-163 433.5v852h213v-834q0 -197 106.5 -308.5t299.5 -111.5q195 0 301 110.5t106 309.5v834zM981 1868l158 -72q-47 -115 -135.5 -182.5t-203 -67.5t-201.5 67.5t-134 182.5l158 72q68 -150 178 -150 q112 0 180 150z" glyph-name="Ubreve" horiz-adv-x="1603" unicode="Ŭ"/><glyph d="M358 1024v-588q0 -137 62.5 -201.5t165.5 -64.5q131 0 215 96t84 228v530h209v-1024h-209v166q-119 -186 -355 -186q-172 0 -276 106.5t-104 321.5v616h208zM801 1481l157 -72q-47 -115 -135 -182.5t-202.5 -67.5t-201.5 67.5t-134 182.5l157 72q68 -150 179 -150 q112 0 180 150z" glyph-name="ubreve" horiz-adv-x="1257" unicode="ŭ"/><glyph d="M1208 1434h213v-852q0 -264 -163.5 -433t-456.5 -169t-456 168.5t-163 433.5v852h213v-834q0 -197 106.5 -308.5t299.5 -111.5q195 0 301 110.5t106 309.5v834zM559 1757.5q0 102.5 69.5 173t172 70.5t174.5 -70.5t72 -173t-72 -173.5t-174.5 -71t-172 71t-69.5 173.5z M698 1757q0 -43 30 -73.5t73 -30.5q45 0 75.5 30.5t30.5 73.5q0 45 -30.5 75t-75.5 30q-43 0 -73 -30t-30 -75z" glyph-name="Uring" horiz-adv-x="1603" unicode="Ů"/><glyph d="M358 1024v-588q0 -137 62.5 -201.5t165.5 -64.5q131 0 215 96t84 228v530h209v-1024h-209v166q-119 -186 -355 -186q-172 0 -276 106.5t-104 321.5v616h208zM379 1370.5q0 102.5 69.5 173t172 70.5t174 -70.5t71.5 -173t-71.5 -173.5t-174 -71t-172 71t-69.5 173.5z M518 1370q0 -43 30 -73.5t73 -30.5q45 0 75.5 30.5t30.5 73.5q0 45 -30.5 75t-75.5 30q-43 0 -73 -30t-30 -75z" glyph-name="uring" horiz-adv-x="1257" unicode="ů"/><glyph d="M1208 1434h213v-852q0 -264 -163.5 -433t-456.5 -169t-456 168.5t-163 433.5v852h213v-834q0 -197 106.5 -308.5t299.5 -111.5q195 0 301 110.5t106 309.5v834zM1051 1528l-158 65l266 369l162 -125zM629 1528l-156 65l266 369l162 -125z" glyph-name="Uhungarumlaut" horiz-adv-x="1603" unicode="Ű"/><glyph d="M358 1024v-588q0 -137 62.5 -201.5t165.5 -64.5q131 0 215 96t84 228v530h209v-1024h-209v166q-119 -186 -355 -186q-172 0 -276 106.5t-104 321.5v616h208zM870 1141l-157 65l266 369l162 -125zM449 1141l-156 65l266 369l162 -125z" glyph-name="uhungarumlaut" horiz-adv-x="1257" unicode="ű"/><glyph d="M1208 1434h213v-852q0 -190 -87 -335t-249 -214q-205 -180 -204 -297q0 -74 88 -74q20 0 59 8l29 -166q-43 -14 -107 -14q-106 0 -171.5 51t-65.5 148q0 139 157 293q-29 -2 -69 -2q-293 0 -456 168.5t-163 433.5v852h213v-834q0 -197 106.5 -308.5t299.5 -111.5 q195 0 301 110.5t106 309.5v834z" glyph-name="Uogonek" horiz-adv-x="1603" unicode="Ų"/><glyph d="M358 1024v-588q0 -137 62.5 -201.5t165.5 -64.5q131 0 215 96t84 228v530h209v-1024q-170 -160 -170 -264q0 -74 88 -74q23 0 61 8l27 -166q-43 -14 -105 -14q-109 0 -174 51t-65 148q0 147 178 311h-49v166q-119 -186 -355 -186q-172 0 -276 106.5t-104 321.5v616h208z " glyph-name="uogonek" horiz-adv-x="1257" unicode="ų"/><glyph d="M727 0h-250l-418 1434h228l325 -1135l338 1135h232l336 -1131l325 1131h228l-418 -1434h-250l-338 1133zM1389 1667l-107 -131l-217 158l-219 -158l-107 131l326 240z" glyph-name="Wcircumflex" horiz-adv-x="2129" unicode="Ŵ"/><glyph d="M618 0h-253l-306 1024h224l215 -795l235 795h232l233 -795l217 795h223l-305 -1024h-254l-231 776zM1174 1280l-107 -131l-217 158l-219 -158l-107 131l326 240z" glyph-name="wcircumflex" horiz-adv-x="1697" unicode="ŵ"/><glyph d="M281 1434l438 -707l440 707h258l-592 -930v-504h-211v508l-591 926h258zM1044 1667l-106 -131l-217 158l-219 -158l-107 131l326 240z" glyph-name="Ycircumflex" horiz-adv-x="1439" unicode="Ŷ"/><glyph d="M156 -416l-76 191q256 76 377 235l-414 1014h227l303 -793l310 793h227l-375 -905q-192 -465 -579 -535zM903 1280l-106 -131l-217 158l-220 -158l-106 131l326 240z" glyph-name="ycircumflex" horiz-adv-x="1148" unicode="ŷ"/><glyph d="M281 1434l438 -707l440 707h258l-592 -930v-504h-211v508l-591 926h258zM403 1691.5q0 53.5 37 90.5t92 37q53 0 90 -37t37 -90.5t-36.5 -90t-90.5 -36.5q-55 0 -92 36.5t-37 90zM780 1691.5q0 53.5 38 90.5t91.5 37t90 -37t36.5 -90.5t-36.5 -90t-90 -36.5t-91.5 36.5 t-38 90z" glyph-name="Ydieresis" horiz-adv-x="1439" unicode="Ÿ"/><glyph d="M115 1231v203h1118v-179l-858 -1052h858v-203h-1145v178l858 1053h-831zM672 1528l-158 65l266 369l162 -125z" glyph-name="Zacute" horiz-adv-x="1333" unicode="Ź"/><glyph d="M100 836v188h836v-145l-551 -689h551v-190h-836v145l553 691h-553zM516 1141l-158 65l267 369l161 -125z" glyph-name="zacute" horiz-adv-x="1036" unicode="ź"/><glyph d="M115 1231v203h1118v-179l-858 -1052h858v-203h-1145v178l858 1053h-831zM545 1691.5q0 53.5 38 90.5t91 37t90 -37t37 -90.5t-37 -90t-90 -36.5t-91 36.5t-38 90z" glyph-name="Zdotaccent" horiz-adv-x="1333" unicode="Ż"/><glyph d="M100 836v188h836v-145l-551 -689h551v-190h-836v145l553 691h-553zM389 1304.5q0 53.5 38 90.5t91 37t90 -37t37 -90.5t-37 -90t-90 -36.5t-91 36.5t-38 90z" glyph-name="zdotaccent" horiz-adv-x="1036" unicode="ż"/><glyph d="M115 1231v203h1118v-179l-858 -1052h858v-203h-1145v178l858 1053h-831zM891 1898l106 -133l-323 -237l-326 237l107 133l219 -157z" glyph-name="Zcaron" horiz-adv-x="1333" unicode="Ž"/><glyph d="M100 836v188h836v-145l-551 -689h551v-190h-836v145l553 691h-553zM735 1511l107 -133l-324 -237l-325 237l106 133l219 -157z" glyph-name="zcaron" horiz-adv-x="1036" unicode="ž"/><glyph d="M119 705l16 188h187l16 182q18 197 115.5 288t251.5 91q133 0 251 -57l-71 -168q-86 35 -154 35q-80 0 -128 -42t-56 -153l-15 -176h340l-16 -188h-340l-61 -734q-16 -195 -114.5 -287t-252.5 -92q-129 0 -248 56l70 170q86 -35 151 -35q80 0 128.5 42t56.5 152l61 728 h-188z" glyph-name="florin" horiz-adv-x="997" unicode="ƒ"/><glyph d="M1454 1528l-158 65l267 369l161 -125zM934 1434h1044v-201h-780v-416h629v-196h-629v-420h780v-201h-991v303h-549l-192 -303h-250zM565 500h422v657z" glyph-name="AEacute" horiz-adv-x="2088" unicode="Ǽ"/><glyph d="M1634 293l119 -143q-156 -170 -412 -170q-274 0 -423 190q-201 -190 -449 -190q-166 0 -268.5 85t-102.5 240q0 162 108.5 253t293.5 91q156 0 307 -67v2l2 2q-12 274 -272 274q-141 0 -301 -94l-91 164q188 117 408 117q264 0 379 -170q147 170 379 170q223 0 360 -154 t137 -346q0 -47 -10 -98h-778q18 -127 103 -206t225 -79q165 0 286 129zM510 141q92 0 182 47.5t148 120.5q-20 57 -31 125q-121 66 -266 66q-111 0 -172.5 -49.5t-61.5 -135.5q0 -84 56.5 -129t144.5 -45zM1313 860q-111 0 -187.5 -68.5t-101.5 -181.5h567 q-18 109 -91.5 179.5t-186.5 70.5zM948 1141l-157 65l266 369l162 -125z" glyph-name="aeacute" horiz-adv-x="1906" unicode="ǽ"/><glyph d="M844 1528l-158 65l266 369l162 -125zM121 717q0 315 207 526t518 211q221 0 399 -117l78 97h225l-170 -209q190 -207 191 -508q0 -315 -207 -526t-516 -211q-223 0 -400 112l-75 -92h-226l168 205q-192 205 -192 512zM342 717q0 -199 111 -344l657 801q-121 78 -264 77 q-215 0 -359.5 -152.5t-144.5 -381.5zM1348 717q0 193 -109 340l-659 -803q119 -74 266 -74q213 0 357.5 154t144.5 383z" glyph-name="Oslashacute" horiz-adv-x="1687" unicode="Ǿ"/><glyph d="M109 512q0 227 151.5 381t376.5 154q145 0 266 -70l37 47h201l-115 -145q137 -150 137 -367q0 -227 -150.5 -379.5t-375.5 -152.5q-145 0 -268 67l-37 -47h-201l115 145q-137 150 -137 367zM317 512q0 -117 56 -205l409 516q-66 35 -145 35q-139 0 -228.5 -97t-91.5 -249 zM954 512q0 115 -57 205l-408 -516q66 -35 148 -35q137 0 227 98t90 248zM635 1141l-158 65l266 369l162 -125z" glyph-name="oslashacute" horiz-adv-x="1271" unicode="ǿ"/><glyph d="M115 365l213 57q14 -127 113.5 -188.5t260.5 -61.5q156 0 242 53.5t86 143.5q0 49 -25.5 87t-80 64.5t-108.5 45t-138 42.5q-31 8 -45 13q-113 33 -187.5 63.5t-154.5 81.5t-120 126t-40 173q0 180 141.5 284.5t382.5 104.5q244 0 399.5 -110.5t155.5 -315.5v-27h-211v11 q0 123 -93 186.5t-253 63.5q-145 0 -223 -54.5t-78 -144.5q0 -43 19.5 -77t46 -56.5t80 -46t92.5 -35.5t112 -33q111 -33 173.5 -53.5t144.5 -59t125 -79.5t73.5 -105.5t30.5 -146.5q0 -186 -147.5 -288.5t-401.5 -102.5q-244 0 -402 98.5t-183 286.5zM676 -616l-80 71 q119 119 115 199q-49 -16 -95.5 16.5t-46.5 87.5q0 45 33 80t88 35q59 0 99 -41t40 -129q1 -169 -153 -319z" glyph-name="Scommaaccent" horiz-adv-x="1361" unicode="Ș"/><glyph d="M106 246l199 65q33 -158 250 -157q215 0 215 112q0 23 -8 41.5t-28.5 33.5t-38 25.5t-52.5 20.5t-51.5 15.5t-58 14.5t-52.5 11q-170 41 -268 114.5t-98 207.5q0 139 109.5 218t295.5 79q190 0 312 -83t122 -235v-8h-206v2q0 150 -226 149q-94 0 -145 -32.5t-51 -85.5 q0 -16 4 -31.5t16 -28t22.5 -21.5t31 -18.5t33.5 -14.5t41 -13.5t42 -11.5t46 -10t44 -11q82 -20 139.5 -41t116 -56.5t89 -91t30.5 -131.5q0 -143 -112.5 -218.5t-309.5 -75.5q-184 0 -305 67.5t-148 198.5zM537 -616l-80 71q119 119 114 199q-49 -16 -95 16.5t-46 87.5 q0 45 33 80t88 35q59 0 99 -41t40 -129q1 -169 -153 -319z" glyph-name="scommaaccent" horiz-adv-x="1085" unicode="ș"/><glyph d="M59 1233v201h1178v-201h-483v-1233h-211v1233h-484zM629 -616l-80 71q119 119 115 199q-49 -16 -95.5 16.5t-46.5 87.5q0 45 33 80t88 35q59 0 99 -41t40 -129q1 -169 -153 -319z" glyph-name="uni021A" horiz-adv-x="1296" unicode="Ț"/><glyph d="M47 836v188h191v293l206 69v-362h365v-188h-365v-471q0 -195 156 -195q74 0 178 61l72 -172q-119 -80 -279 -79q-334 0 -333 397v459h-191zM510 -616l-80 71q119 119 115 199q-49 -16 -95.5 16.5t-46.5 87.5q0 45 33 80t88 35q59 0 99.5 -41t40.5 -129q0 -169 -154 -319z " glyph-name="uni021B" horiz-adv-x="876" unicode="ț"/><glyph d="M666 1667l-107 -131l-217 158l-219 -158l-107 131l326 240z" glyph-name="circumflex" horiz-adv-x="698" unicode="ˆ"/><glyph d="M559 1898l107 -133l-324 -237l-326 237l107 133l219 -157z" glyph-name="caron" horiz-adv-x="698" unicode="ˇ"/><glyph d="M518 1868l158 -72q-47 -115 -135 -182.5t-203 -67.5t-202 67.5t-134 182.5l158 72q68 -150 178 -150q112 0 180 150z" glyph-name="breve" horiz-adv-x="708" unicode="˘"/><glyph d="M-10 1691.5q0 53.5 38 90.5t91 37t90 -37t37 -90.5t-37 -90t-90 -36.5t-91 36.5t-38 90z" glyph-name="dotaccent" horiz-adv-x="245" unicode="˙"/><glyph d="M-12 1757.5q0 102.5 69.5 173t172 70.5t174 -70.5t71.5 -173t-71.5 -173.5t-174 -71t-172 71t-69.5 173.5zM127 1757q0 -43 29.5 -73.5t72.5 -30.5q45 0 76 30.5t31 73.5q0 45 -31 75t-76 30q-43 0 -72.5 -30t-29.5 -75z" glyph-name="ring" horiz-adv-x="305" unicode="˚"/><glyph d="M207 39l117 -39q-170 -160 -170 -264q0 -74 88 -74q23 0 61 8l27 -166q-43 -14 -105 -14q-109 0 -174 51t-65 148q0 72 44 147.5t79 110.5t98 92z" glyph-name="ogonek" horiz-adv-x="356" unicode="˛"/><glyph d="M172 1585h-176q-6 139 49 227.5t170 88.5q96 0 186 -99q12 -12 26.5 -29.5t21 -24.5t14.5 -15.5t14 -10.5t15 -2q66 0 57 150h174q10 -137 -47.5 -226.5t-167.5 -89.5q-102 0 -189 97q-10 10 -24 29.5t-23.5 28.5t-20.5 17.5t-24 8.5q-63 0 -55 -150z" glyph-name="tilde" horiz-adv-x="743" unicode="˜"/><glyph d="M537 1528l-158 65l266 369l162 -125zM115 1528l-156 65l266 369l162 -125z" glyph-name="hungarumlaut" horiz-adv-x="808" unicode="˝"/><glyph d="M1534 201v-201h-555v201q160 49 262 191.5t102 326.5q0 223 -143 377.5t-352 154.5q-211 0 -355.5 -154.5t-144.5 -377.5q0 -184 102.5 -327.5t264.5 -190.5v-201h-557v201h194q-225 213 -225 532q0 307 208 514t513 207q303 0 510 -207t207 -514q0 -319 -228 -532h197z " glyph-name="Omega" horiz-adv-x="1691" unicode="Ω"/><glyph d="M1231 1024v-190h-166v-834h-207v834h-409v-834h-207v834h-166v190h1155z" glyph-name="pi" horiz-adv-x="1306" unicode="π"/><glyph d="M727 0h-250l-418 1434h228l325 -1135l338 1135h232l336 -1131l325 1131h228l-418 -1434h-250l-338 1133zM1227 1593l-158 -65l-272 309l161 125z" glyph-name="Wgrave" horiz-adv-x="2129" unicode="Ẁ"/><glyph d="M618 0h-253l-306 1024h224l215 -795l235 795h232l233 -795l217 795h223l-305 -1024h-254l-231 776zM1010 1206l-158 -65l-272 309l161 125z" glyph-name="wgrave" horiz-adv-x="1697" unicode="ẁ"/><glyph d="M727 0h-250l-418 1434h228l325 -1135l338 1135h232l336 -1131l325 1131h228l-418 -1434h-250l-338 1133zM1063 1528l-158 65l266 369l162 -125z" glyph-name="Wacute" horiz-adv-x="2129" unicode="Ẃ"/><glyph d="M618 0h-253l-306 1024h224l215 -795l235 795h232l233 -795l217 795h223l-305 -1024h-254l-231 776zM848 1141l-158 65l266 369l162 -125z" glyph-name="wacute" horiz-adv-x="1697" unicode="ẃ"/><glyph d="M727 0h-250l-418 1434h228l325 -1135l338 1135h232l336 -1131l325 1131h228l-418 -1434h-250l-338 1133zM750 1691.5q0 53.5 36.5 90.5t92.5 37q53 0 90 -37t37 -90.5t-37 -90t-90 -36.5q-55 0 -92 36.5t-37 90zM1126 1691.5q0 53.5 38 90.5t91.5 37t90 -37t36.5 -90.5 t-36.5 -90t-90 -36.5t-91.5 36.5t-38 90z" glyph-name="Wdieresis" horiz-adv-x="2129" unicode="Ẅ"/><glyph d="M618 0h-253l-306 1024h224l215 -795l235 795h232l233 -795l217 795h223l-305 -1024h-254l-231 776zM532 1304.5q0 53.5 37 90.5t93 37q53 0 89.5 -37t36.5 -90.5t-36.5 -90t-89.5 -36.5q-55 0 -92.5 36.5t-37.5 90zM909 1304.5q0 53.5 38 90.5t91.5 37t90 -37t36.5 -90.5 t-36.5 -90t-90 -36.5t-91.5 36.5t-38 90z" glyph-name="wdieresis" horiz-adv-x="1697" unicode="ẅ"/><glyph d="M575 145l111 170q188 -137 373 -137q137 0 218 69.5t81 184.5q0 117 -84 185.5t-225 68.5q-63 0 -146 -22l-78 135l418 385q-236 84 -428 82q-217 -2 -318.5 -107.5t-101.5 -286.5v-872h-211v901q0 242 156 402.5t467 160.5q315 0 668 -151v-180l-289 -269 q158 -18 272.5 -132t114.5 -302q0 -201 -135 -325.5t-361 -124.5q-264 -1 -502 165z" glyph-name="uni1E9E" horiz-adv-x="1677" unicode="ẞ"/><glyph d="M281 1434l438 -707l440 707h258l-592 -930v-504h-211v508l-591 926h258zM881 1593l-158 -65l-272 309l161 125z" glyph-name="Ygrave" horiz-adv-x="1439" unicode="Ỳ"/><glyph d="M156 -416l-76 191q256 76 377 235l-414 1014h227l303 -793l310 793h227l-375 -905q-192 -465 -579 -535zM739 1206l-157 -65l-273 309l162 125z" glyph-name="ygrave" horiz-adv-x="1148" unicode="ỳ"/><glyph d="M1012 694v-190h-862v190h862z" glyph-name="endash" horiz-adv-x="1159" unicode="–"/><glyph d="M1290 694v-190h-1140v190h1140z" glyph-name="emdash" horiz-adv-x="1439" unicode="—"/><glyph d="M305 1497l105 -88q-152 -158 -146 -283q61 23 119.5 -16t58.5 -106q0 -57 -40 -100.5t-105 -43.5q-74 0 -129 58.5t-55 173.5q0 109 55 219t137 186z" glyph-name="quoteleft" horiz-adv-x="555" unicode="‘"/><glyph d="M248 834l-105 88q152 158 146 282q-61 -23 -119.5 16.5t-58.5 106.5q0 57 39.5 100t105.5 43q74 0 129 -58t55 -173q0 -109 -55 -219t-137 -186z" glyph-name="quoteright" horiz-adv-x="548" unicode="’"/><glyph d="M242 -383l-105 88q152 158 146 283q-61 -23 -120 16t-59 107q0 57 40 100t106 43q74 0 129 -58.5t55 -172.5q0 -109 -55 -219.5t-137 -186.5z" glyph-name="quotesinglbase" horiz-adv-x="542" unicode="‚"/><glyph d="M305 1497l105 -88q-152 -158 -146 -283q61 23 119.5 -16t58.5 -106q0 -57 -40 -100.5t-105 -43.5q-74 0 -129 58.5t-55 173.5q0 109 55 219t137 186zM725 1497l104 -88q-152 -158 -145 -283q61 23 119.5 -16t58.5 -106q0 -57 -40 -100.5t-105 -43.5q-74 0 -129.5 58.5 t-55.5 173.5q0 109 55.5 219t137.5 186z" glyph-name="quotedblleft" horiz-adv-x="974" unicode="“"/><glyph d="M248 834l-105 88q152 158 146 282q-61 -23 -119.5 16.5t-58.5 106.5q0 57 39.5 100t105.5 43q74 0 129 -58t55 -173q0 -109 -55 -219t-137 -186zM666 834l-105 88q152 158 146 282q-61 -23 -120 16.5t-59 106.5q0 57 40 100t106 43q74 0 129 -58t55 -173q0 -109 -55 -219 t-137 -186z" glyph-name="quotedblright" horiz-adv-x="966" unicode="”"/><glyph d="M242 -383l-105 88q152 158 146 283q-61 -23 -120 16t-59 107q0 57 40 100t106 43q74 0 129 -58.5t55 -172.5q0 -109 -55 -219.5t-137 -186.5zM659 -383l-104 88q152 158 145 283q-61 -23 -119.5 16t-58.5 107q0 57 40 100t106 43q74 0 129 -58.5t55 -172.5 q0 -109 -55.5 -219.5t-137.5 -186.5z" glyph-name="quotedblbase" horiz-adv-x="960" unicode="„"/><glyph d="M881 1075v-184h-283v-891h-190v891h-285v184h285v359h190v-359h283z" glyph-name="dagger" horiz-adv-x="1005" unicode="†"/><glyph d="M881 1075v-184h-283v-348h283v-185h-283v-358h-190v358h-285v185h285v348h-285v184h285v359h190v-359h283z" glyph-name="daggerdbl" horiz-adv-x="1005" unicode="‡"/><glyph d="M170 598q0 90 66.5 156.5t158.5 66.5t159 -66.5t67 -156.5q0 -94 -67 -159.5t-159 -65.5t-158.5 65.5t-66.5 159.5z" glyph-name="bullet" horiz-adv-x="790" unicode="•"/><glyph d="M127 109q0 55 39 94t92 39q55 0 94 -39t39 -94q0 -53 -39 -91t-94 -38q-53 0 -92 38t-39 91zM565 109q0 55 39 94t92.5 39t92 -39t38.5 -94q0 -53 -38.5 -91t-92 -38t-92.5 38t-39 91zM997 109q0 55 39 94t94 39q53 0 92.5 -39t39.5 -94q0 -53 -39 -91t-93 -38 q-55 0 -94 38t-39 91z" glyph-name="ellipsis" horiz-adv-x="1386" unicode="…"/><glyph d="M80 1110q0 143 100.5 243.5t247.5 100.5t248.5 -100.5t101.5 -243.5q0 -145 -101.5 -245.5t-248.5 -100.5t-247.5 100.5t-100.5 245.5zM260 1110q0 -72 48 -121t120 -49t121 49t49 121t-49 121t-121 49t-120 -49t-48 -121zM418 0h-211l1061 1434h213zM909 324 q0 145 101.5 245.5t249.5 100.5q145 0 246.5 -100.5t101.5 -245.5q0 -143 -101.5 -243.5t-246.5 -100.5q-147 0 -249 100.5t-102 243.5zM1090 323.5q0 -71.5 48 -120.5t119.5 -49t120.5 49t49 120.5t-49 121t-120.5 49.5t-119.5 -49.5t-48 -121zM1706 324q0 145 101.5 245.5 t248.5 100.5q145 0 246.5 -100.5t101.5 -245.5q0 -143 -101 -243.5t-247 -100.5q-147 0 -248.5 100.5t-101.5 243.5zM1886 323.5q0 -71.5 48 -120.5t122 -49q72 0 120 49t48 120.5t-48 121t-120 49.5q-74 0 -122 -49.5t-48 -121z" glyph-name="perthousand" horiz-adv-x="2471" unicode="‰"/><glyph d="M332 528l215 -301l-148 -114l-311 415l311 418l148 -115z" glyph-name="guilsinglleft" horiz-adv-x="667" unicode="‹"/><glyph d="M336 530l-215 301l147 115l312 -416l-312 -417l-147 114z" glyph-name="guilsinglright" horiz-adv-x="667" unicode="›"/><glyph d="M-227 0h-168l938 1434h168z" glyph-name="fraction" horiz-adv-x="321" unicode="⁄"/><glyph d="M84 1020q0 184 89 305t247 121q160 0 248 -121t88 -305t-88 -304t-248 -120q-158 0 -247 121t-89 303zM258 1020q0 -121 44 -194.5t118 -73.5q76 0 120 73.5t44 194.5t-44 194.5t-120 73.5t-119 -73.5t-43 -194.5z" glyph-name="uni2070" horiz-adv-x="841" unicode="⁰"/><glyph d="M604 608h-164v160h-377v119l201 547h180l-194 -510h190v225l164 45v-270h113v-156h-113v-160z" glyph-name="uni2074" horiz-adv-x="778" unicode="⁴"/><glyph d="M127 1434h473v-156h-307v-160h18q168 0 255 -74.5t87 -193.5q0 -115 -78.5 -184.5t-220.5 -69.5q-150 0 -288 78l77 135q121 -59 205 -59q133 0 133 102q0 123 -211 123h-143v459z" glyph-name="uni2075" horiz-adv-x="727" unicode="⁵"/><glyph d="M575 1434l-196 -263q10 2 31 3q119 0 197.5 -78t78.5 -201q0 -129 -88 -214t-219 -85q-129 0 -218 85t-89 210q0 104 100 246l213 297h190zM379 1038q-59 0 -97 -41t-38 -104q0 -61 37.5 -101t97 -40t97.5 39.5t38 103t-39 103.5t-96 40z" glyph-name="uni2076" horiz-adv-x="753" unicode="⁶"/><glyph d="M66 1276v158h534v-127l-309 -699h-185l306 668h-346z" glyph-name="uni2077" horiz-adv-x="655" unicode="⁷"/><glyph d="M711 844q0 -115 -91.5 -181.5t-224.5 -66.5t-223 66.5t-90 181.5q0 135 125 203q-94 57 -94 165.5t81.5 171t200.5 62.5q121 0 203 -62.5t82 -171.5q0 -106 -96 -165q127 -70 127 -203zM539 850q0 55 -40 87t-103.5 32t-102.5 -32t-39 -87q0 -51 38 -82t103.5 -31 t104.5 31t39 82zM512 1206q0 45 -29.5 73t-87.5 28q-53 0 -83.5 -28t-30.5 -73t31.5 -73.5t82.5 -28.5t84 28.5t33 73.5z" glyph-name="uni2078" horiz-adv-x="792" unicode="⁸"/><glyph d="M176 608l197 262q-10 -2 -31 -2q-119 0 -197.5 78t-78.5 201q0 129 88 214t219 85q129 0 218 -85t89 -210q0 -104 -100 -246l-213 -297h-191zM373 1004q59 0 97 40.5t38 104.5q0 61 -38 101t-97.5 40t-97 -40t-37.5 -103.5t39 -103t96 -39.5z" glyph-name="uni2079" horiz-adv-x="753" unicode="⁹"/><glyph d="M84 37q0 184 89 305t247 121q160 0 248 -121t88 -305t-88 -304t-248 -120q-158 0 -247 121t-89 303zM258 37q0 -121 44 -194.5t118 -73.5q76 0 120 73.5t44 194.5t-44 194.5t-120 73.5t-119 -73.5t-43 -194.5z" glyph-name="uni2080" horiz-adv-x="841" unicode="₀"/><glyph d="M217 -375v623l-151 -82v178l194 107h127v-826h-170z" glyph-name="uni2081" horiz-adv-x="518" unicode="₁"/><glyph d="M653 -219v-156h-567v121q393 303 393 447q0 53 -30.5 83.5t-77.5 30.5q-49 0 -85 -32.5t-36 -100.5v-14h-166v16q0 143 87 215t204 72q115 0 195.5 -69.5t80.5 -182.5q0 -193 -268 -430h270z" glyph-name="uni2082" horiz-adv-x="743" unicode="₂"/><glyph d="M72 -309l71 141q119 -63 207 -63q131 0 131 92q0 111 -219 110v135q106 0 152.5 36t46.5 87q0 41 -29 64.5t-72 23.5q-47 0 -77.5 -23.5t-30.5 -68.5v-6h-166v19q0 102 81 163.5t193 61.5q111 0 191 -61.5t80 -168.5q0 -125 -121 -190q145 -55 145 -193 q0 -106 -83 -171.5t-216 -65.5q-149 0 -284 78z" glyph-name="uni2083" horiz-adv-x="739" unicode="₃"/><glyph d="M604 -375h-164v160h-377v119l201 547h180l-194 -510h190v225l164 45v-270h113v-156h-113v-160z" glyph-name="uni2084" horiz-adv-x="778" unicode="₄"/><glyph d="M127 451h473v-156h-307v-160h18q168 0 255 -74.5t87 -193.5q0 -115 -78.5 -184.5t-220.5 -69.5q-150 0 -288 78l77 135q121 -59 205 -59q133 0 133 102q0 123 -211 123h-143v459z" glyph-name="uni2085" horiz-adv-x="727" unicode="₅"/><glyph d="M575 451l-196 -263q10 2 31 2q119 0 197.5 -77.5t78.5 -200.5q0 -129 -88 -214t-219 -85q-129 0 -218 85t-89 210q0 104 100 246l213 297h190zM379 55q-59 0 -97 -41t-38 -104q0 -61 37.5 -101t97 -40t97.5 39.5t38 103t-39 103.5t-96 40z" glyph-name="uni2086" horiz-adv-x="753" unicode="₆"/><glyph d="M66 293v158h534v-127l-309 -699h-185l306 668h-346z" glyph-name="uni2087" horiz-adv-x="655" unicode="₇"/><glyph d="M711 -139q0 -115 -91.5 -181.5t-224.5 -66.5t-223 66.5t-90 181.5q0 135 125 202q-94 57 -94 166t81.5 171.5t200.5 62.5q121 0 203 -62.5t82 -171.5q0 -106 -96 -166q127 -69 127 -202zM539 -133q0 55 -40 87t-103.5 32t-102.5 -32t-39 -87q0 -51 38 -82t103.5 -31 t104.5 31t39 82zM512 223q0 45 -29.5 73t-87.5 28q-53 0 -83.5 -28t-30.5 -73t31.5 -73.5t82.5 -28.5t84 28.5t33 73.5z" glyph-name="uni2088" horiz-adv-x="792" unicode="₈"/><glyph d="M176 -375l197 262q-10 -2 -31 -2q-119 0 -197.5 78t-78.5 201q0 129 88 214t219 85q129 0 218 -85t89 -210q0 -104 -100 -246l-213 -297h-191zM373 20q59 0 97 41t38 105q0 61 -38 101t-97.5 40t-97 -40t-37.5 -103.5t39 -103.5t96 -40z" glyph-name="uni2089" horiz-adv-x="753" unicode="₉"/><glyph d="M117 700v197l178 53v484h211v-418l526 160v-197l-526 -160v-104l526 159v-198l-526 -160v-317h180q285 0 330 286l207 -36q-37 -227 -170 -338t-391 -111h-367v453l-178 -54v197l178 53v105z" glyph-name="lira" horiz-adv-x="1298" unicode="₤"/><glyph d="M752 0h-269l-88 473h-284v191h247l-22 118h-225v191h190l-86 461h217l195 -1084l186 1084h254l184 -1088l195 1088h219l-86 -461h190v-191h-227l-22 -118h249v-191h-284l-88 -473h-271l-186 1071z" glyph-name="uni20A9" horiz-adv-x="1880" unicode="₩"/><glyph d="M1151 629l-47 -172h-580q59 -129 171 -204t253 -75q182 0 320 127l135 -145q-195 -180 -455 -180q-229 0 -406 131t-249 346h-193v172h156q-4 57 -4 88q0 55 4 84h-156v172h191q72 217 249 349t408 132q260 0 455 -180l-135 -146q-133 127 -320 127q-143 0 -254.5 -75.5 t-171.5 -206.5h711l-47 -172h-711q-4 -57 -4 -84q0 -45 6 -88h674z" glyph-name="Euro" horiz-adv-x="1509" unicode="€"/><glyph d="M162 885v182h432q-63 176 -307 176h-125v191h882l-49 -185h-268q68 -76 92 -182h225l-49 -182h-168q-16 -156 -109 -261.5t-253 -140.5l457 -483h-271l-489 510v156h125q274 0 319 219h-444z" glyph-name="uni20B9" horiz-adv-x="1130" unicode="₹"/><glyph d="M119 254v188h125v97h-125v196h125v699h481q227 0 355 -128t128 -320.5t-128 -319.5t-355 -127h-270v-97h385v-188h-385v-254h-211v254h-125zM455 735h258q131 0 204.5 71t73.5 179q0 111 -73.5 181.5t-204.5 70.5h-258v-502z" glyph-name="uni20BD" horiz-adv-x="1290" unicode="₽"/><glyph d="M174 311l-100 154q135 88 188 127v543q0 197 86 299t225 102q131 0 215 -82t84 -242q0 -352 -403 -690v-155q0 -199 133 -199q88 0 160 139l158 -102q-123 -225 -332 -225q-152 0 -237 106.5t-89 284.5q-16 -13 -88 -60zM469 1171v-399q221 229 221 436q0 66 -28.5 106 t-81.5 40q-111 -1 -111 -183z" glyph-name="afii61289" horiz-adv-x="974" unicode="ℓ"/><glyph d="M1634 434v158h633v-158h-633zM414 0h-211v1434h215l827 -1102v1102h211v-1434h-215l-827 1100v-1100zM1579 1069q0 156 105.5 260.5t263 104.5t264 -104.5t106.5 -260.5t-106.5 -260t-264 -104t-263 104t-105.5 260zM1753 1069q0 -90 55.5 -149.5t139.5 -59.5 q86 0 141 59.5t55 149.5t-55 148.5t-141 58.5q-84 0 -139.5 -58.5t-55.5 -148.5z" glyph-name="afii61352" horiz-adv-x="2416" unicode="№"/><glyph d="M1292 895h-131v328l-139 -260h-80l-139 260v-328h-131v539h139l170 -324l172 324h139v-539zM86 1307v127h500v-127h-185v-412h-131v412h-184z" glyph-name="trademark" horiz-adv-x="1458" unicode="™"/><glyph d="M1505 694h-1157v-436q197 -217 479 -217q178 0 331 95t239 253l51 -33q-94 -170 -260 -272t-361 -102q-293 0 -502.5 216t-209.5 519q0 305 203.5 520t490.5 215t491.5 -215t204.5 -518v-25zM809 1393q-270 0 -461 -211v-428h922v428q-191 211 -461 211z" glyph-name="estimated" horiz-adv-x="1597" unicode="℮"/><glyph d="M369 0h-168l938 1434h168zM236 608v623l-152 -82v178l195 107h127v-826h-170zM1604 236q0 -115 -91.5 -181.5t-224.5 -66.5t-223 66.5t-90 181.5q0 135 125 202q-94 57 -94 166t81.5 171.5t200.5 62.5q121 0 203 -62.5t82 -171.5q0 -106 -96 -166q127 -69 127 -202z M1432 242q0 53 -40 85.5t-103.5 32.5t-102.5 -31.5t-39 -86.5q0 -51 38 -82t103.5 -31t104.5 31t39 82zM1405 598q0 45 -29.5 72.5t-87.5 27.5q-53 0 -83.5 -27.5t-30.5 -72.5t31.5 -73.5t82.5 -28.5t84 28.5t33 73.5z" glyph-name="oneeighth" horiz-adv-x="1689" unicode="⅛"/><glyph d="M549 0h-168l938 1434h168zM1782 236q0 -115 -91.5 -181.5t-224.5 -66.5t-223 66.5t-90 181.5q0 135 125 202q-94 57 -94 166t82 171.5t200 62.5q121 0 203 -62.5t82 -171.5q0 -106 -96 -166q127 -69 127 -202zM1610 242q0 53 -40 85.5t-103.5 32.5t-102.5 -31.5 t-39 -86.5q0 -51 38 -82t103.5 -31t104.5 31t39 82zM1583 598q0 45 -29.5 72.5t-87.5 27.5q-53 0 -83.5 -27.5t-30.5 -72.5t31.5 -73.5t83 -28.5t84 28.5t32.5 73.5zM92 674l72 141q119 -63 207 -63q131 0 131 92q0 111 -219 110v136q106 0 152 35.5t46 86.5 q0 41 -28.5 64.5t-71.5 23.5q-47 0 -78 -23.5t-31 -68.5v-6h-166v19q0 102 81 163.5t194 61.5q111 0 190.5 -61.5t79.5 -167.5q0 -125 -121 -191q145 -55 146 -192q0 -106 -83 -172t-216 -66q-150 0 -285 78z" glyph-name="threeeighths" horiz-adv-x="1869" unicode="⅜"/><glyph d="M545 0h-168l938 1434h168zM150 1434h473v-156h-308v-160h19q168 0 255 -74.5t87 -193.5q0 -115 -79 -184.5t-220 -69.5q-150 0 -289 78l78 135q121 -59 205 -59q133 0 133 102q0 123 -211 123h-143v459zM1780 236q0 -115 -91.5 -181.5t-224.5 -66.5t-223 66.5t-90 181.5 q0 135 125 202q-94 57 -94 166t82 171.5t200 62.5q121 0 203 -62.5t82 -171.5q0 -106 -96 -166q127 -69 127 -202zM1608 242q0 53 -40 85.5t-103.5 32.5t-102.5 -31.5t-39 -86.5q0 -51 38 -82t103.5 -31t104.5 31t39 82zM1581 598q0 45 -29.5 72.5t-87.5 27.5 q-53 0 -83.5 -27.5t-30.5 -72.5t31.5 -73.5t83 -28.5t84 28.5t32.5 73.5z" glyph-name="fiveeighths" horiz-adv-x="1867" unicode="⅝"/><glyph d="M362 0h-167l938 1434h167zM1597 236q0 -115 -91 -181.5t-224 -66.5t-223 66.5t-90 181.5q0 135 125 202q-94 57 -94.5 166t81.5 171.5t201 62.5q121 0 203 -62.5t82 -171.5q0 -106 -97 -166q127 -69 127 -202zM1425 242q0 53 -39.5 85.5t-103 32.5t-102.5 -31.5 t-39 -86.5q0 -51 38 -82t103.5 -31t104 31t38.5 82zM1399 598q0 45 -30 72.5t-87 27.5q-53 0 -84 -27.5t-31 -72.5t32 -73.5t83 -28.5t84 28.5t33 73.5zM90 1276v158h535v-127l-310 -699h-184l305 668h-346z" glyph-name="seveneighths" horiz-adv-x="1683" unicode="⅞"/><glyph d="M823 100l-135 -131l-608 609l608 610l135 -131l-385 -383h867v-189h-869z" glyph-name="arrowleft" horiz-adv-x="1402" unicode="←"/><glyph d="M188 481l-131 135l609 609l610 -609l-131 -135l-385 385v-866h-189v866z" glyph-name="arrowup" horiz-adv-x="1333" unicode="↑"/><glyph d="M582 1057l133 131l610 -610l-612 -609l-131 131l385 385h-869v189h867z" glyph-name="arrowright" horiz-adv-x="1402" unicode="→"/><glyph d="M1143 721l131 -131l-608 -613l-611 611l133 133l383 -383v866h189v-866z" glyph-name="arrowdown" horiz-adv-x="1331" unicode="↓"/><glyph d="M352 115h-188v909h907v-186h-590l658 -660l-133 -131l-654 653v-585z" glyph-name="uni2196" horiz-adv-x="1257" unicode="↖"/><glyph d="M186 838v186h908v-909h-187v587l-655 -655l-131 131l655 660h-590z" glyph-name="uni2197" horiz-adv-x="1257" unicode="↗"/><glyph d="M909 911h187v-911h-908v186h592l-659 660l133 131l655 -655v589z" glyph-name="uni2198" horiz-adv-x="1261" unicode="↘"/><glyph d="M1006 977l133 -131l-658 -658h590v-188h-907v911h188v-587z" glyph-name="uni2199" horiz-adv-x="1259" unicode="↙"/><glyph d="M379 1337l143 148q260 -203 428 -458t168 -511q0 -238 -146.5 -387t-359.5 -149t-360.5 147t-147.5 367q0 207 134.5 341t328.5 134q115 0 217 -58q-120 207 -405 426zM606 795q-121 0 -205 -87t-84 -222.5t84 -225.5t211 -90q125 0 208 91t83 237v4q0 135 -91 214 t-206 79z" glyph-name="partialdiff" horiz-adv-x="1226" unicode="∂"/><glyph d="M786 1434l512 -1434h-1243l510 1434h221zM676 1155l-332 -956h662z" glyph-name="uni2206" horiz-adv-x="1351" unicode="∆"/><glyph d="M1395 1434v-201h-168v-1233h-211v1233h-547v-1233h-211v1233h-168v201h1305z" glyph-name="product" horiz-adv-x="1484" unicode="∏"/><glyph d="M86 -238v168l606 668l-606 668v168h1088v-195h-793l586 -641l-586 -645h793v-191h-1088z" glyph-name="summation" horiz-adv-x="1267" unicode="∑"/><glyph d="M930 764v-189h-774v189h774z" glyph-name="minus" horiz-adv-x="1085" unicode="−"/><glyph d="M389 643l217 -625l623 1416h227l-743 -1672h-228l-245 682h-197v199h346z" glyph-name="radical" horiz-adv-x="1441" unicode="√"/><glyph d="M1280 1030q160 0 261 -103.5t101 -252.5q0 -152 -101 -255.5t-261 -103.5q-96 0 -186 52.5t-211 179.5q-121 -127 -212 -179.5t-188 -52.5q-160 0 -261 103.5t-101 255.5q0 150 102.5 253t259.5 103q96 0 187.5 -53t212.5 -180q119 129 209 181t188 52zM1282 500 q74 0 123 50t49 124q0 72 -49 122t-123 50q-121 0 -278 -174q155 -172 278 -172zM481 846q-74 0 -123 -50.5t-49 -121.5q0 -74 49.5 -124t122.5 -50q121 0 279 172q-158 174 -279 174z" glyph-name="infinity" horiz-adv-x="1763" unicode="∞"/><glyph d="M-10 -362l57 169q86 -37 158 -36q78 0 122 43t44 153v1108q0 197 90 288t244 91q137 0 256 -57l-56 -168q-88 35 -160 35q-78 0 -121.5 -42t-43.5 -153v-1110q0 -197 -90.5 -288t-243.5 -91q-129 1 -256 58z" glyph-name="integral" horiz-adv-x="952" unicode="∫"/><glyph d="M309 694l-162 86q100 219 263 219q70 0 162 -47t122 -47q63 0 113 111l162 -86q-102 -221 -264 -221q-70 0 -161 48t-122 48q-62 0 -113 -111zM309 330l-162 86q100 219 263 219q70 0 162 -47t122 -47q63 0 113 108l162 -86q-100 -219 -264 -219q-70 0 -161 47t-122 47 q-62 1 -113 -108z" glyph-name="approxequal" horiz-adv-x="1112" unicode="≈"/><glyph d="M160 803v188h475l106 197l142 -70l-68 -127h137v-188h-237l-140 -260h377v-189h-477l-104 -196l-142 69l68 127h-137v189h237l138 260h-375z" glyph-name="notequal" horiz-adv-x="1114" unicode="≠"/><glyph d="M156 762v201l792 348v-213l-569 -234l569 -237v-211zM948 307v-186h-792v186h792z" glyph-name="lessequal" horiz-adv-x="1128" unicode="≤"/><glyph d="M973 963v-201l-793 -346v211l570 237l-570 234v213zM180 121v186h793v-186h-793z" glyph-name="greaterequal" horiz-adv-x="1128" unicode="≥"/><glyph d="M90 717q0 309 216 523t530 214q311 0 528 -214t217 -523t-217 -523t-528 -214q-313 0 -529.5 214t-216.5 523zM285 716.5q0 -235.5 159.5 -398t391 -162.5t391 162.5t159.5 398t-159.5 398.5t-391 163t-391 -163t-159.5 -398.5zM647 821v144l178 92h111v-680h-143v520z " glyph-name="uni2460" unicode="①"/><glyph d="M90 717q0 309 216 523t530 214q311 0 528 -214t217 -523t-217 -523t-528 -214q-313 0 -529.5 214t-216.5 523zM285 716.5q0 -235.5 159.5 -398t391 -162.5t391 162.5t159.5 398t-159.5 398.5t-391 163t-391 -163t-159.5 -398.5zM1087 539v-136h-497v111q346 219 346 354 q0 43 -27.5 69t-72.5 26t-75 -28t-30 -85v-12h-141v14q0 121 75.5 181.5t176 60.5t170 -61.5t69.5 -160.5q0 -164 -225 -333h231z" glyph-name="uni2461" unicode="②"/><glyph d="M90 717q0 309 216 523t530 214q311 0 528 -214t217 -523t-217 -523t-528 -214q-313 0 -529.5 214t-216.5 523zM285 716.5q0 -235.5 159.5 -398t391 -162.5t391 162.5t159.5 398t-159.5 398.5t-391 163t-391 -163t-159.5 -398.5zM582 451l69 118q90 -49 178 -49 q113 0 113 70q0 86 -194 86v121q92 0 135 27.5t43 66.5q0 31 -28 49t-67 18q-41 0 -69.5 -20t-28.5 -55v-2h-135v12q0 90 69.5 141t163.5 51q96 0 166 -52t70 -138q0 -102 -98 -156q119 -49 118 -157q0 -88 -70.5 -142.5t-185.5 -54.5q-126 0 -249 66z" glyph-name="uni2462" unicode="③"/><glyph d="M90 717q0 309 216 523t530 214q311 0 528 -214t217 -523t-217 -523t-528 -214q-313 0 -529.5 214t-216.5 523zM285 716.5q0 -235.5 159.5 -398t391 -162.5t391 162.5t159.5 398t-159.5 398.5t-391 163t-391 -163t-159.5 -398.5zM1022 395h-139v131h-334v107l180 442h154 l-174 -413h174v167l139 43v-210h100v-136h-100v-131z" glyph-name="uni2463" unicode="④"/><glyph d="M90 717q0 309 216 523t530 214q311 0 528 -214t217 -523t-217 -523t-528 -214q-313 0 -529.5 214t-216.5 523zM285 716.5q0 -235.5 159.5 -398t391 -162.5t391 162.5t159.5 398t-159.5 398.5t-391 163t-391 -163t-159.5 -398.5zM637 1057h407v-135h-268v-119h17 q145 0 219.5 -62.5t74.5 -162.5q0 -94 -66.5 -152.5t-186.5 -58.5q-129 0 -254 65l67 119q106 -49 180 -49q59 0 85 15t26 63q0 92 -178 92h-123v385z" glyph-name="uni2464" unicode="⑤"/><glyph d="M90 717q0 309 216 523t530 214q311 0 528 -214t217 -523t-217 -523t-528 -214q-313 0 -529.5 214t-216.5 523zM285 716.5q0 -235.5 159.5 -398t391 -162.5t391 162.5t159.5 398t-159.5 398.5t-391 163t-391 -163t-159.5 -398.5zM999 1075l-168 -205h13q106 0 174.5 -65.5 t68.5 -167.5q0 -109 -76.5 -180.5t-187 -71.5t-187.5 71.5t-77 176.5q0 96 90 211l182 231h168zM821.5 754q-55.5 0 -91.5 -34t-36 -85t36 -85t91.5 -34t92 34t36.5 85t-36.5 85t-92 34z" glyph-name="uni2465" unicode="⑥"/><glyph d="M90 717q0 309 216 523t530 214q311 0 528 -214t217 -523t-217 -523t-528 -214q-313 0 -529.5 214t-216.5 523zM285 716.5q0 -235.5 159.5 -398t391 -162.5t391 162.5t159.5 398t-159.5 398.5t-391 163t-391 -163t-159.5 -398.5zM625 911v138h475v-117l-277 -563h-159 l274 542h-313z" glyph-name="uni2466" unicode="⑦"/><glyph d="M90 717q0 309 216 523t530 214q311 0 528 -214t217 -523t-217 -523t-528 -214q-313 0 -529.5 214t-216.5 523zM285 716.5q0 -235.5 159.5 -398t391 -162.5t391 162.5t159.5 398t-159.5 398.5t-391 163t-391 -163t-159.5 -398.5zM1108 586q0 -98 -78 -154.5t-192.5 -56.5 t-192.5 56t-78 155q0 111 97 159q-70 47 -70 137.5t70.5 141.5t173 51t173 -51t70.5 -141t-69 -138q96 -50 96 -159zM965 590q0 43 -35 69.5t-92 26.5q-59 0 -93 -26.5t-34 -69.5q0 -39 34.5 -65.5t92 -26.5t92.5 26.5t35 65.5zM946 881q0 33 -28.5 54t-80 21t-80 -21.5 t-28.5 -53.5q0 -35 28.5 -58.5t80 -23.5t80 23.5t28.5 58.5z" glyph-name="uni2467" unicode="⑧"/><glyph d="M90 717q0 309 216 523t530 214q311 0 528 -214t217 -523t-217 -523t-528 -214q-313 0 -529.5 214t-216.5 523zM285 716.5q0 -235.5 159.5 -398t391 -162.5t391 162.5t159.5 398t-159.5 398.5t-391 163t-391 -163t-159.5 -398.5zM670 377l168 205h-13q-106 0 -174.5 65.5 t-68.5 167.5q0 109 76.5 180.5t187 71.5t187.5 -71.5t77 -176.5q0 -96 -90 -211l-182 -231h-168zM848 698q55 0 91 34t36 85t-36 85t-91 34t-92 -34t-37 -85t37 -85t92 -34z" glyph-name="uni2468" unicode="⑨"/><glyph d="M90 717q0 309 216 523t530 214q311 0 528 -214t217 -523t-217 -523t-528 -214q-313 0 -529.5 214t-216.5 523zM285 716.5q0 -235.5 159.5 -398t391 -162.5t391 162.5t159.5 398t-159.5 398.5t-391 163t-391 -163t-159.5 -398.5zM547 716.5q0 153.5 73.5 252t215 98.5 t215 -98.5t73.5 -252t-73.5 -251.5t-215 -98t-215 98t-73.5 251.5zM690 716.5q0 -104.5 38 -160.5t108 -56q145 0 145 217t-145 217q-70 0 -108 -56.5t-38 -161z" glyph-name="uni24EA" unicode="⓪"/><glyph d="M90 717q0 309 216 523t530 214q311 0 528 -214t217 -523t-217 -523t-528 -214q-313 0 -529.5 214t-216.5 523zM547 716.5q0 -153.5 73.5 -251.5t215 -98t215 98t73.5 251.5t-73.5 252t-215 98.5t-215 -98.5t-73.5 -252zM690 716.5q0 104.5 38 161t108 56.5 q145 0 145 -217t-145 -217q-70 0 -108 56t-38 160.5z" glyph-name="uni24FF" unicode="⓿"/><glyph d="M1176 717l-558 -737l-557 737l557 737zM618 307l314 410l-314 409l-313 -409z" glyph-name="lozenge" horiz-adv-x="1236" unicode="◊"/><glyph d="M90 717q0 309 216 523t530 214q311 0 528 -214t217 -523t-217 -523t-528 -214q-313 0 -529.5 214t-216.5 523zM285 716.5q0 -235.5 159.5 -398t391 -162.5t391 162.5t159.5 398t-159.5 398.5t-391 163t-391 -163t-159.5 -398.5z" glyph-name="circle" unicode="○"/><glyph d="M90 717q0 309 216 523t530 214q311 0 528 -214t217 -523t-217 -523t-528 -214q-313 0 -529.5 214t-216.5 523z" glyph-name="H18533" unicode="●"/><glyph d="M90 717q0 309 216 523t530 214q311 0 528 -214t217 -523t-217 -523t-528 -214q-313 0 -529.5 214t-216.5 523zM647 965v-144l146 76v-520h143v680h-111z" glyph-name="uni2776" unicode="❶"/><glyph d="M90 717q0 309 216 523t530 214q311 0 528 -214t217 -523t-217 -523t-528 -214q-313 0 -529.5 214t-216.5 523zM1087 403v136h-231q225 170 225 333q0 98 -69.5 160t-170 62t-176 -60.5t-75.5 -181.5v-14h141v12q0 57 30 85t75 28t72.5 -26t27.5 -69q0 -135 -346 -354 v-111h497z" glyph-name="uni2777" unicode="❷"/><glyph d="M90 717q0 309 216 523t530 214q311 0 528 -214t217 -523t-217 -523t-528 -214q-313 0 -529.5 214t-216.5 523zM883 395h139v131h100v136h-100v210l-139 -43v-167h-174l174 413h-154l-180 -442v-107h334v-131z" glyph-name="uni2779" unicode="❹"/><glyph d="M90 717q0 309 216 523t530 214q311 0 528 -214t217 -523t-217 -523t-528 -214q-313 0 -529.5 214t-216.5 523zM1044 1057h-407v-385h123q178 0 178 -92q0 -47 -25.5 -62.5t-85.5 -15.5q-74 0 -180 49l-67 -119q125 -66 254 -65q121 0 187 58t66 153q0 100 -74.5 162.5 t-219.5 62.5h-17v119h268v135z" glyph-name="uni2780" unicode="➀"/><glyph d="M90 717q0 309 216 523t530 214q311 0 528 -214t217 -523t-217 -523t-528 -214q-313 0 -529.5 214t-216.5 523zM831 870l168 205h-168l-182 -231q-90 -115 -90 -211q0 -104 77 -176t187.5 -72t187 71.5t76.5 180.5q0 102 -68.5 167.5t-174.5 65.5h-13zM821.5 754 q55.5 0 92 -34t36.5 -85t-36.5 -85t-92 -34t-91.5 34t-36 85t36 85t91.5 34z" glyph-name="uni2781" unicode="➁"/><glyph d="M90 717q0 309 216 523t530 214q311 0 528 -214t217 -523t-217 -523t-528 -214q-313 0 -529.5 214t-216.5 523zM625 1049v-138h313l-274 -542h159l277 563v117h-475z" glyph-name="uni2782" unicode="➂"/><glyph d="M90 717q0 309 216 523t530 214q311 0 528 -214t217 -523t-217 -523t-528 -214q-313 0 -529.5 214t-216.5 523zM1108 586q0 109 -96 159q70 47 69.5 137.5t-71 141.5t-173 51t-173 -51t-70.5 -141t70 -138q-96 -49 -97 -159q0 -98 78 -154.5t192.5 -56.5t192.5 56.5 t78 154.5zM965 590q0 -39 -35 -65.5t-92.5 -26.5t-92 26.5t-34.5 65.5q0 43 33.5 69.5t93.5 26.5q57 0 92 -26.5t35 -69.5zM946 881q0 -35 -28.5 -58.5t-80 -23.5t-80 23.5t-28.5 58.5q0 33 28.5 54t80 21t80 -21t28.5 -54z" glyph-name="uni2783" unicode="➃"/><glyph d="M90 717q0 309 216 523t530 214q311 0 528 -214t217 -523t-217 -523t-528 -214q-313 0 -529.5 214t-216.5 523zM838 582l-168 -205h168l182 231q90 115 90 211q0 104 -77 176t-187.5 72t-187 -71.5t-76.5 -180.5q0 -102 68.5 -167.5t174.5 -65.5h13zM848 698q-55 0 -92 34 t-37 85t37 85t92 34t91 -34t36 -85t-36 -85t-91 -34z" glyph-name="uni2784" unicode="➄"/><glyph d="M90 717q0 309 216 523t530 214q311 0 528 -214t217 -523t-217 -523t-528 -214q-313 0 -529.5 214t-216.5 523zM651 569l-69 -118q123 -66 249 -66q115 0 185.5 54.5t70.5 142.5q0 109 -118 157q98 53 98 156q0 86 -69.5 138t-166.5 52q-94 0 -163.5 -51t-69.5 -141v-12 h135v2q0 35 29 55t69 20q39 0 67 -18t28 -49q0 -39 -43 -66.5t-135 -27.5v-121q195 0 194 -86q0 -70 -113 -70q-88 0 -178 49z" glyph-name="uni2786" unicode="➆"/><glyph d="M444 1434q131 0 222 -91v76h168v-702h-168v78q-90 -90 -222 -90q-147 0 -243.5 104t-96.5 258q0 156 96.5 261.5t243.5 105.5zM666 1067q0 94 -55.5 160.5t-139.5 66.5q-82 0 -137 -65.5t-55 -161.5q0 -94 55 -158.5t137 -64.5t138.5 64.5t56.5 158.5z" glyph-name="uniE001" horiz-adv-x="993" unicode=""/><glyph d="M584 1047q229 0 354 -183v160h209v-1024h-209v160q-125 -180 -354 -180q-211 0 -344.5 151.5t-133.5 380.5t133.5 382t344.5 153zM942 512q0 147 -89 245.5t-222 98.5q-135 0 -223.5 -98.5t-88.5 -245.5t88.5 -244.5t223.5 -97.5q133 0 222 97.5t89 244.5z" glyph-name="uniE020" horiz-adv-x="1308" unicode=""/><glyph d="M694 231l72 -172q-123 -80 -281 -79q-334 0 -333 397v940l208 69v-362h363v-188h-363v-471q0 -195 154 -195q71 0 180 61z" glyph-name="uniE021" horiz-adv-x="792" unicode=""/><glyph d="M115 716.5q0 315.5 206.5 526.5t516.5 211q311 0 518 -211t207 -526q0 -201 -89.5 -366t-242.5 -261l405 -207l-94 -184l-557 295q-82 -14 -147 -14q-309 0 -516 210.5t-207 526zM336 716.5q0 -227.5 144.5 -382t357.5 -154.5q215 0 358 153.5t143 383.5 q0 227 -143 380.5t-358 153.5q-213 0 -357.5 -153.5t-144.5 -381z" glyph-name="uniE022" horiz-adv-x="1675" unicode=""/><glyph d="M584 1047q229 0 354 -183v160h209v-1024h-209v160q-125 -180 -354 -180q-211 0 -344.5 151.5t-133.5 380.5t133.5 382t344.5 153zM942 512q0 147 -89 245.5t-222 98.5q-135 0 -223.5 -98.5t-88.5 -245.5t88.5 -244.5t223.5 -97.5q133 0 222 97.5t89 244.5zM805 1206 l-158 -65l-272 309l162 125z" glyph-name="uniE030" horiz-adv-x="1308" unicode=""/><glyph d="M584 1047q229 0 354 -183v160h209v-1024h-209v160q-125 -180 -354 -180q-211 0 -344.5 151.5t-133.5 380.5t133.5 382t344.5 153zM942 512q0 147 -89 245.5t-222 98.5q-135 0 -223.5 -98.5t-88.5 -245.5t88.5 -244.5t223.5 -97.5q133 0 222 97.5t89 244.5zM643 1141 l-158 65l267 369l161 -125z" glyph-name="uniE031" horiz-adv-x="1308" unicode=""/><glyph d="M584 1047q229 0 354 -183v160h209v-1024h-209v160q-125 -180 -354 -180q-211 0 -344.5 151.5t-133.5 380.5t133.5 382t344.5 153zM942 512q0 147 -89 245.5t-222 98.5q-135 0 -223.5 -98.5t-88.5 -245.5t88.5 -244.5t223.5 -97.5q133 0 222 97.5t89 244.5zM971 1280 l-107 -131l-217 158l-219 -158l-106 131l325 240z" glyph-name="uniE032" horiz-adv-x="1308" unicode=""/><glyph d="M584 1047q229 0 354 -183v160h209v-1024h-209v160q-125 -180 -354 -180q-211 0 -344.5 151.5t-133.5 380.5t133.5 382t344.5 153zM942 512q0 147 -89 245.5t-222 98.5q-135 0 -223.5 -98.5t-88.5 -245.5t88.5 -244.5t223.5 -97.5q133 0 222 97.5t89 244.5zM459 1198h-176 q-6 139 49 227t170 88q96 0 186 -98q12 -12 26.5 -29.5t20.5 -24.5t14.5 -15.5t14.5 -10.5t14 -2q66 0 58 150h174q10 -137 -47.5 -226.5t-167.5 -89.5q-102 0 -189 97q-10 10 -24.5 29.5t-23.5 28.5t-20.5 17.5t-23.5 8.5q-63 0 -55 -150z" glyph-name="uniE033" horiz-adv-x="1308" unicode=""/><glyph d="M584 1047q229 0 354 -183v160h209v-1024h-209v160q-125 -180 -354 -180q-211 0 -344.5 151.5t-133.5 380.5t133.5 382t344.5 153zM942 512q0 147 -89 245.5t-222 98.5q-135 0 -223.5 -98.5t-88.5 -245.5t88.5 -244.5t223.5 -97.5q133 0 222 97.5t89 244.5zM330 1304.5 q0 53.5 36.5 90.5t92.5 37q53 0 90 -37t37 -90.5t-37 -90t-90 -36.5q-55 0 -92 36.5t-37 90zM707 1304.5q0 53.5 37.5 90.5t91 37t90.5 -37t37 -90.5t-37 -90t-90.5 -36.5t-91 36.5t-37.5 90z" glyph-name="uniE034" horiz-adv-x="1308" unicode=""/><glyph d="M584 1047q229 0 354 -183v160h209v-1024h-209v160q-125 -180 -354 -180q-211 0 -344.5 151.5t-133.5 380.5t133.5 382t344.5 153zM942 512q0 147 -89 245.5t-222 98.5q-135 0 -223.5 -98.5t-88.5 -245.5t88.5 -244.5t223.5 -97.5q133 0 222 97.5t89 244.5zM403 1370.5 q0 102.5 70 173t172.5 70.5t174 -70.5t71.5 -173t-71.5 -173.5t-174 -71t-172.5 71t-70 173.5zM543 1370q0 -43 29.5 -73.5t72.5 -30.5q45 0 76 30.5t31 73.5q0 45 -31 75t-76 30q-43 0 -72.5 -30t-29.5 -75z" glyph-name="uniE035" horiz-adv-x="1308" unicode=""/><glyph d="M584 1047q229 0 354 -183v160h209v-1024h-209v160q-125 -180 -354 -180q-211 0 -344.5 151.5t-133.5 380.5t133.5 382t344.5 153zM942 512q0 147 -89 245.5t-222 98.5q-135 0 -223.5 -98.5t-88.5 -245.5t88.5 -244.5t223.5 -97.5q133 0 222 97.5t89 244.5zM936 1395v-178 h-578v178h578z" glyph-name="uniE036" horiz-adv-x="1308" unicode=""/><glyph d="M584 1047q229 0 354 -183v160h209v-1024h-209v160q-125 -180 -354 -180q-211 0 -344.5 151.5t-133.5 380.5t133.5 382t344.5 153zM942 512q0 147 -89 245.5t-222 98.5q-135 0 -223.5 -98.5t-88.5 -245.5t88.5 -244.5t223.5 -97.5q133 0 222 97.5t89 244.5zM825 1481 l158 -72q-47 -115 -135 -182.5t-203 -67.5t-202 67.5t-134 182.5l158 72q68 -150 178 -150q112 0 180 150z" glyph-name="uniE037" horiz-adv-x="1308" unicode=""/><glyph d="M584 1047q229 0 354 -183v160h209v-1024q-170 -160 -170 -264q0 -74 86 -74q31 0 55 6l35 -164q-43 -14 -104 -14q-109 0 -174.5 51t-65.5 148q0 147 178 311h-49v160q-125 -180 -354 -180q-211 0 -344.5 151.5t-133.5 380.5t133.5 382t344.5 153zM942 512 q0 147 -89 245.5t-222 98.5q-135 0 -223.5 -98.5t-88.5 -245.5t88.5 -244.5t223.5 -97.5q133 0 222 97.5t89 244.5z" glyph-name="uniE038" horiz-adv-x="1308" unicode=""/><glyph d="M1847 293l119 -143q-158 -170 -412 -170q-285 0 -419 210v-190h-185v158q-127 -178 -366 -178q-211 0 -344.5 151.5t-133.5 378.5q0 229 133.5 383t344.5 154q240 0 366 -181v158h185v-193q137 215 397 216q219 0 354 -154t135 -346q0 -47 -10 -98h-778q18 -127 103 -206 t225 -79q165 0 286 129zM942 512q0 147 -89 245.5t-222 98.5q-135 0 -223.5 -98.5t-88.5 -247.5q0 -145 88.5 -242.5t223.5 -97.5q133 0 222 97.5t89 244.5zM1526 860q-111 0 -187.5 -68.5t-101.5 -181.5h567q-18 109 -91.5 179.5t-186.5 70.5z" glyph-name="uniE039" horiz-adv-x="2117" unicode=""/><glyph d="M1847 293l119 -143q-158 -170 -412 -170q-285 0 -419 210v-190h-185v158q-127 -178 -366 -178q-211 0 -344.5 151.5t-133.5 378.5q0 229 133.5 383t344.5 154q240 0 366 -181v158h185v-193q137 215 397 216q219 0 354 -154t135 -346q0 -47 -10 -98h-778q18 -127 103 -206 t225 -79q165 0 286 129zM942 512q0 147 -89 245.5t-222 98.5q-135 0 -223.5 -98.5t-88.5 -247.5q0 -145 88.5 -242.5t223.5 -97.5q133 0 222 97.5t89 244.5zM1526 860q-111 0 -187.5 -68.5t-101.5 -181.5h567q-18 109 -91.5 179.5t-186.5 70.5zM1061 1141l-158 65l266 369 l162 -125z" glyph-name="uniE040" horiz-adv-x="2117" unicode=""/><glyph d="M1085 1214l95 -157q-113 -59 -183 -142q88 -92 88 -229q0 -164 -124.5 -260t-335.5 -96q-141 0 -244 43q-82 -29 -82 -90q0 -78 133 -78h344q219 0 312.5 -80t93.5 -203q0 -164 -152.5 -247t-406.5 -83q-236 0 -354.5 69t-118.5 192q0 109 100 182q-150 53 -150 207 q0 139 156 213q-92 92 -92 231q0 166 125 263.5t336 97.5q141 0 256 -50q95 166 204 217zM373 688q0 -88 68.5 -136t183 -48t183.5 48t69 136t-69 135t-183 47q-117 0 -184.5 -47t-67.5 -135zM748 14h-330q-76 -51 -76 -125q0 -117 291 -116q141 0 240.5 33.5t99.5 99.5 q0 108 -225 108z" glyph-name="uniE044" horiz-adv-x="1230" unicode=""/><glyph d="M1085 1214l95 -157q-113 -59 -183 -142q88 -92 88 -229q0 -164 -124.5 -260t-335.5 -96q-141 0 -244 43q-82 -29 -82 -90q0 -78 133 -78h344q219 0 312.5 -80t93.5 -203q0 -164 -152.5 -247t-406.5 -83q-236 0 -354.5 69t-118.5 192q0 109 100 182q-150 53 -150 207 q0 139 156 213q-92 92 -92 231q0 166 125 263.5t336 97.5q141 0 256 -50q95 166 204 217zM373 688q0 -88 68.5 -136t183 -48t183.5 48t69 136t-69 135t-183 47q-117 0 -184.5 -47t-67.5 -135zM748 14h-330q-76 -51 -76 -125q0 -117 291 -116q141 0 240.5 33.5t99.5 99.5 q0 108 -225 108zM805 1481l158 -72q-47 -115 -135.5 -182.5t-203 -67.5t-201.5 67.5t-134 182.5l157 72q68 -150 179 -150q112 0 180 150z" glyph-name="uniE045" horiz-adv-x="1230" unicode=""/><glyph d="M1085 1214l95 -157q-113 -59 -183 -142q88 -92 88 -229q0 -164 -124.5 -260t-335.5 -96q-141 0 -244 43q-82 -29 -82 -90q0 -78 133 -78h344q219 0 312.5 -80t93.5 -203q0 -164 -152.5 -247t-406.5 -83q-236 0 -354.5 69t-118.5 192q0 109 100 182q-150 53 -150 207 q0 139 156 213q-92 92 -92 231q0 166 125 263.5t336 97.5q141 0 256 -50q95 166 204 217zM373 688q0 -88 68.5 -136t183 -48t183.5 48t69 136t-69 135t-183 47q-117 0 -184.5 -47t-67.5 -135zM748 14h-330q-76 -51 -76 -125q0 -117 291 -116q141 0 240.5 33.5t99.5 99.5 q0 108 -225 108zM496 1304.5q0 53.5 37.5 90.5t91 37t90.5 -37t37 -90.5t-37 -90t-90.5 -36.5t-91 36.5t-37.5 90z" glyph-name="uniE046" horiz-adv-x="1230" unicode=""/><glyph d="M1085 1214l95 -157q-113 -59 -183 -142q88 -92 88 -229q0 -164 -124.5 -260t-335.5 -96q-141 0 -244 43q-82 -29 -82 -90q0 -78 133 -78h344q219 0 312.5 -80t93.5 -203q0 -164 -152.5 -247t-406.5 -83q-236 0 -354.5 69t-118.5 192q0 109 100 182q-150 53 -150 207 q0 139 156 213q-92 92 -92 231q0 166 125 263.5t336 97.5q141 0 256 -50q95 166 204 217zM373 688q0 -88 68.5 -136t183 -48t183.5 48t69 136t-69 135t-183 47q-117 0 -184.5 -47t-67.5 -135zM748 14h-330q-76 -51 -76 -125q0 -117 291 -116q141 0 240.5 33.5t99.5 99.5 q0 108 -225 108zM590 -979l-80 72q119 119 115 198q-49 -16 -95.5 17t-46.5 88q0 45 33 80t88 35q59 0 99 -42t40 -128q1 -170 -153 -320z" glyph-name="uniE047" horiz-adv-x="1230" unicode=""/><glyph d="M694 231l72 -172q-123 -80 -281 -79q-334 0 -333 397v940l208 69v-362h363v-188h-363v-471q0 -195 154 -195q71 0 180 61zM428 -616l-80 71q119 119 115 199q-49 -16 -95 16.5t-46 87.5q0 45 32.5 80t87.5 35q59 0 99.5 -41t40.5 -129q0 -169 -154 -319z" glyph-name="uniE050" horiz-adv-x="792" unicode=""/><glyph d="M694 231l72 -172q-123 -80 -281 -79q-334 0 -333 397v940l208 69v-362h363v-188h-363v-471q0 -195 154 -195q71 0 180 61zM580 1118l-80 72q119 119 114 199q-49 -16 -95 16.5t-46 87.5q0 45 33 80t88 35q59 0 99 -42t40 -128q1 -170 -153 -320z" glyph-name="uniE051" horiz-adv-x="792" unicode=""/><glyph d="M694 231l72 -172q-123 -80 -281 -79h-16l-29 -78q94 -14 145.5 -69.5t51.5 -133.5q0 -92 -67.5 -150.5t-182.5 -58.5q-121 0 -225 57l69 154q72 -45 142 -45q96 0 96 61q0 82 -141 76l-35 51l63 154q-205 66 -204 379v940l208 69v-362h363v-188h-363v-471 q0 -195 154 -195q71 0 180 61z" glyph-name="uniE052" horiz-adv-x="792" unicode=""/><glyph d="M694 231l72 -172q-123 -80 -281 -79q-334 0 -333 397v940l208 69v-362h363v-188h-363v-183h279v-174h-279v-114q0 -195 154 -195q71 0 180 61z" glyph-name="uniE053" horiz-adv-x="794" unicode=""/><glyph d="M336 590q0 -184 88 -297t231 -113q145 0 232.5 113t87.5 297t-87 297.5t-233 113.5q-143 0 -231 -113.5t-88 -297.5zM119 590q0 270 148.5 441t388 171t388 -171t148.5 -441q0 -268 -149.5 -439t-387 -171t-387 171t-149.5 439z" glyph-name="uniE100" horiz-adv-x="1310" unicode=""/><glyph d="M82 770v227l332 185h172v-1182h-213v930z" glyph-name="uniE101" horiz-adv-x="770" unicode=""/><glyph d="M1075 199v-199h-958v164q229 117 377.5 209t222.5 165.5t99.5 128t25.5 117.5q0 98 -68.5 157.5t-173.5 59.5q-113 0 -188.5 -69.5t-75.5 -212.5v-21h-211v23q0 164 74.5 276.5t179 158.5t227.5 46q190 0 322.5 -112.5t132.5 -296.5q0 -166 -111.5 -304.5t-382.5 -289.5 h508z" glyph-name="uniE102" horiz-adv-x="1193" unicode=""/><glyph d="M70 -141l90 186q231 -119 391 -119q127 0 206 58.5t79 156.5q0 109 -117 172.5t-328 63.5v196q203 0 302.5 72t99.5 170q0 88 -70 139.5t-168 51.5q-100 0 -170 -53.5t-70 -133.5v-10h-211v25q0 164 133.5 266t317.5 102q186 0 321.5 -103.5t135.5 -273.5 q0 -240 -250 -344q293 -98 293 -350q0 -184 -139.5 -293.5t-362.5 -109.5q-247 0 -483 131z" glyph-name="uniE103" horiz-adv-x="1167" unicode=""/><glyph d="M977 -252h-209v299h-684v156l369 979h233l-362 -938h444v454l209 64v-518h211v-197h-211v-299z" glyph-name="uniE104" horiz-adv-x="1255" unicode=""/><glyph d="M190 1182h791v-201h-580v-363h76q295 0 443.5 -130t148.5 -332q0 -195 -133 -311.5t-369 -116.5q-248 0 -483 131l90 186q225 -119 393 -119q133 0 207 62.5t74 169.5q0 117 -102.5 190.5t-331.5 73.5h-224v760z" glyph-name="uniE105" horiz-adv-x="1169" unicode=""/><glyph d="M924 1434l-365 -473q47 10 94 10q201 0 332 -136.5t131 -345.5q0 -217 -145.5 -363t-360.5 -146q-217 0 -363.5 144t-146.5 357q0 195 146 393l403 560h275zM612 786q-127 0 -211 -88t-84 -217q0 -131 83 -217t208 -86q127 0 210 86t83 217q0 133 -83 219t-206 86z" glyph-name="uniE106" horiz-adv-x="1206" unicode=""/><glyph d="M86 979v203h920v-170l-582 -1264h-248l584 1231h-674z" glyph-name="uniE107" horiz-adv-x="1067" unicode=""/><glyph d="M1153 403q0 -195 -149.5 -309t-370.5 -114t-370.5 114.5t-149.5 308.5q0 252 241 359q-188 94 -188 307q0 176 134 280.5t332.5 104.5t333 -104.5t134.5 -280.5q0 -211 -189 -307q242 -107 242 -359zM936 414q0 113 -87 183.5t-216 70.5t-216 -71t-87 -183 q0 -109 84 -176.5t219 -67.5q133 0 218 67.5t85 176.5zM887 1059q0 90 -71 148.5t-183.5 58.5t-183 -58.5t-70.5 -148.5q0 -92 72.5 -150.5t181 -58.5t181.5 58.5t73 150.5z" glyph-name="uniE108" horiz-adv-x="1265" unicode=""/><glyph d="M281 -252l364 473q-47 -10 -94 -10q-201 0 -332 136t-131 345q0 217 145.5 363.5t360.5 146.5q217 0 363.5 -144.5t146.5 -357.5q0 -195 -146 -393l-403 -559h-274zM592 395q127 0 211 88t84 217q0 131 -83 217.5t-208 86.5q-127 0 -210 -86.5t-83 -217.5q0 -133 83 -219 t206 -86z" glyph-name="uniE109" horiz-adv-x="1206" unicode=""/><glyph d="M86 716.5q0 315.5 136 526.5t380 211t380 -211t136 -526.5t-135 -526t-381 -210.5t-381 210.5t-135 526zM305 717q0 -238 81 -387.5t216 -149.5t216 149.5t81 387.5q0 240 -81 388t-216 148t-216 -148t-81 -388z" glyph-name="uniE120" horiz-adv-x="1202" unicode=""/><glyph d="M182 1022v227l393 185h170v-1233h355v-201h-918v201h353v991z" glyph-name="uniE121" horiz-adv-x="1202" unicode=""/><glyph d="M1083 201v-201h-968v166q301 246 469 419t217 264t49 171q0 109 -69.5 172t-178.5 63q-115 0 -191.5 -70.5t-76.5 -213.5v-23h-211v25q0 123 43 219t113.5 151.5t153.5 83t173 27.5q193 0 328 -116.5t135 -309.5q0 -172 -134 -359.5t-466 -467.5h614z" glyph-name="uniE122" horiz-adv-x="1202" unicode=""/><glyph d="M88 111l90 186q231 -119 391 -119q127 0 206 58.5t79 156.5q0 109 -116.5 172.5t-327.5 63.5v196q203 0 302 72t99 170q0 88 -69.5 139t-168.5 51q-100 0 -169.5 -53t-69.5 -133v-10h-211v24q0 164 133 266.5t317 102.5q186 0 321.5 -103.5t135.5 -273.5 q0 -240 -250 -344q293 -98 293 -350q0 -184 -139 -293.5t-363 -109.5q-247 0 -483 131z" glyph-name="uniE123" horiz-adv-x="1202" unicode=""/><glyph d="M930 0h-209v299h-651v156l352 979h231l-346 -938h414v452l209 66v-518h209v-197h-209v-299z" glyph-name="uniE124" horiz-adv-x="1202" unicode=""/><glyph d="M211 1434h790v-201h-579v-363h76q295 0 443.5 -130t148.5 -332q0 -195 -133.5 -311.5t-368.5 -116.5q-248 0 -484 131l91 186q225 -119 393 -119q133 0 206.5 62.5t73.5 169.5q0 117 -102 190.5t-332 73.5h-223v760z" glyph-name="uniE125" horiz-adv-x="1202" unicode=""/><glyph d="M922 1434l-365 -473q47 10 94 10q201 0 332 -136.5t131 -345.5q0 -217 -145.5 -363t-360.5 -146q-217 0 -363.5 144t-146.5 357q0 195 146 393l403 560h275zM610 786q-127 0 -211 -88t-84 -217q0 -131 83 -217t208 -86q127 0 210 86t83 217q0 133 -83 219t-206 86z" glyph-name="uniE126" horiz-adv-x="1202" unicode=""/><glyph d="M135 1231v203h944v-170l-594 -1264h-247l593 1231h-696z" glyph-name="uniE127" horiz-adv-x="1202" unicode=""/><glyph d="M1122 403q0 -195 -149.5 -309t-370.5 -114t-370.5 114.5t-149.5 308.5q0 252 242 359q-188 94 -189 307q0 176 134 280.5t333 104.5t333 -104.5t134 -280.5q0 -211 -188 -307q241 -107 241 -359zM905 414q0 113 -87 183.5t-216 70.5t-216 -71t-87 -183q0 -109 84 -176.5 t219 -67.5q133 0 218 67.5t85 176.5zM856 1059q0 90 -70.5 148.5t-183.5 58.5t-183.5 -58.5t-70.5 -148.5q0 -92 73 -150.5t181.5 -58.5t181 58.5t72.5 150.5z" glyph-name="uniE128" horiz-adv-x="1202" unicode=""/><glyph d="M279 0l364 473q-47 -10 -94 -10q-201 0 -332 136t-131 345q0 217 145.5 363.5t360.5 146.5q217 0 363.5 -144.5t146.5 -357.5q0 -195 -146 -393l-403 -559h-274zM590 647q127 0 211 88t84 217q0 131 -83 217t-208 86q-127 0 -210 -86t-83 -217q0 -133 83 -219t206 -86z " glyph-name="uniE129" horiz-adv-x="1202" unicode=""/><glyph d="M895 629l-47 -172h-434q90 -279 356 -279q164 0 262 111l137 -146q-168 -164 -403 -163q-225 0 -374.5 128t-205.5 349h-153v172h129q-4 57 -4 88q0 55 2 84h-127v172h153q53 223 203 352t377 129q236 0 403 -164l-137 -145q-98 111 -262 110q-268 0 -358 -282h569 l-47 -172h-555q-2 -29 -2 -84q0 -31 4 -88h514z" glyph-name="uniE140" horiz-adv-x="1202" unicode=""/><glyph d="M195 0v154q166 139 165 338q0 35 -6 71h-192v185h137q-4 10 -16.5 42.5t-17.5 46t-15 42t-14.5 47t-10.5 45t-8 51.5t-2 49q0 174 117 278.5t291 104.5q178 0 299.5 -110.5t121.5 -301.5v-24h-204v14q0 111 -58.5 172.5t-148.5 61.5q-88 0 -146.5 -59.5t-58.5 -157.5 q0 -35 9 -76t19.5 -67.5t32 -81t29.5 -76.5h346v-185h-303q4 -37 4 -57q0 -178 -114 -316h583v-190h-839z" glyph-name="uniE141" horiz-adv-x="1202" unicode=""/><glyph d="M602 793l285 641h235l-350 -725h246v-179h-311v-133h311v-178h-311v-219h-211v219h-312v178h312v133h-312v179h244l-348 725h235z" glyph-name="uniE142" horiz-adv-x="1202" unicode=""/><glyph d="M508 -172v221q-168 23 -271.5 112t-119.5 242l200 56q20 -229 297 -230q123 0 193 47.5t70 129.5q0 23 -5.5 42t-17.5 35.5t-23.5 29.5t-35 26.5t-38 20.5t-48 19.5t-49 17.5t-55.5 18.5t-54 17.5q-201 66 -310.5 155t-109.5 250q0 150 101.5 245t275.5 110v215h184v-222 q162 -27 261.5 -126t99.5 -263v-28h-203v16q0 113 -74 169t-194 56q-113 0 -175.5 -47t-62.5 -127q0 -47 19.5 -80.5t60.5 -57.5t80 -39t100 -36l21 -6q233 -76 347.5 -163t114.5 -248q0 -156 -105 -250.5t-290 -110.5v-217h-184z" glyph-name="uniE143" horiz-adv-x="1202" unicode=""/><glyph d="M197 885v182h432q-63 176 -307 176h-125v191h882l-49 -185h-268q68 -76 92 -182h225l-49 -182h-168q-16 -156 -109.5 -261.5t-252.5 -140.5l456 -483h-270l-489 510v156h125q274 0 319 219h-444z" glyph-name="uniE144" horiz-adv-x="1202" unicode=""/><glyph d="M80 702v197l176 53v482h211v-418l506 155v-196l-506 -156v-104l506 155v-196l-506 -156v-317h158q281 0 325 284l207 -36q-39 -229 -166 -339t-385 -110h-350v455l-176 -54v195l176 53v107z" glyph-name="uniE145" horiz-adv-x="1202" unicode=""/><glyph d="M492 0h-240l-57 479h-177v178h154l-14 129h-140v179h117l-55 469h201l102 -975l106 975h226l104 -973l103 973h202l-57 -469h117v-179h-140l-14 -129h154v-178h-176l-58 -479h-237l-111 975z" glyph-name="uniE146" horiz-adv-x="1202" unicode=""/><glyph d="M111 254v188h122v97h-122v196h122v699h412q227 0 354 -128t127 -320.5t-127 -319.5t-354 -127h-203v-97h373v-188h-373v-254h-209v254h-122zM442 735h191q131 0 204.5 71t73.5 179.5t-73.5 180t-204.5 71.5h-191v-502z" glyph-name="uniE147" horiz-adv-x="1202" unicode=""/><glyph d="M412 1683l174 -108q-246 -377 -246 -858q0 -483 246 -860l-174 -109q-293 434 -293 969q0 536 293 966z" glyph-name="uniE300" horiz-adv-x="667" unicode=""/><glyph d="M82 1575l174 108q293 -430 293 -966q0 -535 -293 -969l-174 109q246 377 246 860q0 481 -246 858z" glyph-name="uniE301" horiz-adv-x="667" unicode=""/><glyph d="M750 813v-190h-594v190h594z" glyph-name="uniE302" horiz-adv-x="907" unicode=""/><glyph d="M1018 813v-190h-862v190h862z" glyph-name="uniE303" horiz-adv-x="1173" unicode=""/><glyph d="M1296 813v-190h-1140v190h1140z" glyph-name="uniE304" horiz-adv-x="1454" unicode=""/><glyph d="M715 12v-194h-512v1800h512v-195h-303v-1411h303z" glyph-name="uniE305" horiz-adv-x="794" unicode=""/><glyph d="M78 -182v194h303v1411h-303v195h512v-1800h-512z" glyph-name="uniE306" horiz-adv-x="794" unicode=""/><glyph d="M55 621v192h60q106 0 149 58.5t43 168.5v258q0 141 79 230.5t241 89.5h143v-195h-90q-96 0 -129 -48t-33 -138v-203q0 -131 -28.5 -206.5t-116.5 -110.5q88 -35 116.5 -111t28.5 -205v-204q0 -88 33 -136.5t129 -48.5h90v-194h-143q-162 0 -241 89t-79 230v258 q0 111 -43 168.5t-149 57.5h-60z" glyph-name="uniE307" horiz-adv-x="849" unicode=""/><glyph d="M795 813v-192h-60q-106 0 -149 -57.5t-43 -168.5v-258q0 -141 -79 -230t-241 -89h-143v194h90q96 0 129 48.5t33 136.5v204q0 129 28.5 205t116.5 111q-88 35 -116.5 110.5t-28.5 206.5v203q0 90 -33 138t-129 48h-90v195h143q162 0 241 -89t79 -231v-258q0 -111 43 -169 t149 -58h60z" glyph-name="uniE308" horiz-adv-x="849" unicode=""/><glyph d="M203 1655h170v-1874h-170v1874z" glyph-name="uniE309" horiz-adv-x="575" unicode=""/><glyph d="M203 1655h170v-811h-170v811zM203 586h170v-805h-170v805z" glyph-name="uniE310" horiz-adv-x="575" unicode=""/><glyph d="M340 717l215 -301l-147 -115l-312 416l312 418l147 -115z" glyph-name="uniE311" horiz-adv-x="686" unicode=""/><glyph d="M348 717l-215 301l148 115l311 -416l-311 -418l-148 115z" glyph-name="uniE312" horiz-adv-x="688" unicode=""/><glyph d="M340 717l215 -301l-147 -115l-312 416l312 418l147 -115zM821 717l215 -301l-147 -115l-311 416l311 418l147 -115z" glyph-name="uniE313" horiz-adv-x="1167" unicode=""/><glyph d="M348 717l-215 301l148 115l311 -416l-311 -418l-148 115zM829 717l-215 301l148 115l311 -416l-311 -418l-148 115z" glyph-name="uniE314" horiz-adv-x="1169" unicode=""/><glyph d="M168 717q0 90 66.5 156.5t158.5 66.5t158.5 -66.5t66.5 -156.5q0 -94 -66.5 -159.5t-158.5 -65.5t-158.5 65.5t-66.5 159.5z" glyph-name="uniE315" horiz-adv-x="784" unicode=""/><glyph d="M141 714.5q0 57.5 41 97.5t98.5 40t98.5 -40t41 -97.5t-41 -97t-98.5 -39.5t-98.5 39.5t-41 97z" glyph-name="uniE316" horiz-adv-x="559" unicode=""/><glyph d="M823 240l-135 -131l-608 608l608 610l135 -131l-385 -383h867v-188h-869z" glyph-name="uniE330" horiz-adv-x="1404" unicode=""/><glyph d="M1145 846l131 -131l-608 -613l-611 611l133 133l383 -383v866h189v-866z" glyph-name="uniE331" horiz-adv-x="1333" unicode=""/><glyph d="M186 586l-131 135l609 608l610 -608l-131 -135l-385 385v-867h-189v867z" glyph-name="uniE332" horiz-adv-x="1331" unicode=""/><glyph d="M584 1194l133 131l610 -610l-612 -609l-131 132l385 385h-869v188h867z" glyph-name="uniE333" horiz-adv-x="1404" unicode=""/><glyph d="M348 524h-188v910h907v-187h-590l658 -659l-134 -131l-653 653v-586z" glyph-name="uniE334" horiz-adv-x="1261" unicode=""/><glyph d="M195 1247v187h907v-910h-187v588l-655 -655l-131 131l655 659h-589z" glyph-name="uniE335" horiz-adv-x="1261" unicode=""/><glyph d="M430 1092l180 342h193l-230 -400h164v-135h-223v-51h223v-135h-223v-105h-168v105h-223v135h223v51h-223v135h162l-226 400h191z" glyph-name="uniE400" horiz-adv-x="860" unicode=""/><glyph d="M125 1094v153h137l33 187h154l-33 -187h133l33 187h153l-33 -187h115v-153h-139l-27 -154h117v-152h-141l-31 -180h-154l31 180h-133l-31 -180h-153l30 180h-110v152h135l27 154h-113zM391 1094l-26 -154h133l26 154h-133z" glyph-name="uniE401" horiz-adv-x="892" unicode=""/><glyph d="M61 1231q0 90 63.5 152.5t156.5 62.5q94 0 157.5 -62.5t63.5 -152.5t-63.5 -151.5t-157.5 -61.5q-92 0 -156 61.5t-64 151.5zM199 1231q0 -35 23.5 -59.5t58 -24.5t59.5 24.5t25 59.5t-25 59.5t-59.5 24.5t-58 -24.5t-23.5 -59.5zM330 602h-160l610 832h162zM612 809 q0 90 63.5 151.5t155.5 61.5q94 0 158 -61.5t64 -151.5t-63.5 -151.5t-158.5 -61.5q-92 0 -155.5 61.5t-63.5 151.5zM750 809q0 -35 23.5 -59.5t58 -24.5t58 24.5t23.5 59.5t-23.5 59.5t-58 24.5t-58 -24.5t-23.5 -59.5z" glyph-name="uniE402" horiz-adv-x="1114" unicode=""/><glyph d="M104 606v125q88 72 95 172h-113v152h78q-47 106 -47 168q0 102 71.5 162.5t178.5 60.5q111 0 188.5 -65.5t77.5 -188.5v-18h-164v10q0 49 -25.5 77.5t-66.5 28.5q-37 0 -61.5 -23.5t-24.5 -70.5q0 -18 6 -39.5t20.5 -53.5t20.5 -48h186v-152h-162q-6 -78 -57 -141h320 v-156h-521z" glyph-name="uniE403" horiz-adv-x="716" unicode=""/><glyph d="M666 985l-35 -125h-256q70 -109 198 -108q96 0 162 65l107 -112q-117 -109 -273 -109q-133 0 -234.5 71.5t-146.5 192.5h-110v125h84v62h-84v124h108q41 125 145.5 200t237.5 75q156 0 273 -109l-107 -112q-66 66 -162 65q-139 0 -204 -119h352l-35 -124h-352v-27 q0 -25 2 -35h330z" glyph-name="uniE404" horiz-adv-x="915" unicode=""/><glyph d="M94 1110v121h228q-37 72 -132 72h-96v131h531l-29 -121h-133q20 -31 35 -82h127l-29 -121h-90q-10 -82 -58.5 -143.5t-130.5 -85.5l250 -273h-207l-266 289v117h96q115 0 142 96h-238z" glyph-name="uniE405" horiz-adv-x="694" unicode=""/><glyph d="M88 1022v149l105 31v232h165v-183l281 84v-149l-281 -84v-49l281 84v-148l-281 -84v-143h82q137 0 162 160l158 -27q-25 -147 -103.5 -217t-238.5 -70h-225v248l-105 -31v148l105 31v49z" glyph-name="uniE406" horiz-adv-x="819" unicode=""/><glyph d="M494 608h-201l-43 236h-164v151h137l-10 56h-127v149h98l-41 234h168l90 -557l88 557h191l86 -549l92 549h168l-43 -234h98v-149h-125l-10 -56h135v-151h-161l-43 -236h-205l-88 553z" glyph-name="uniE407" horiz-adv-x="1167" unicode=""/><glyph d="M86 711v143h94v49h-94v154h94v377h297q135 0 210 -76t75 -191q0 -113 -75 -188.5t-210 -75.5h-133v-49h201v-143h-201v-97h-164v97h-94zM344 1057h115q61 0 97 31.5t36 78.5q0 51 -35 82t-98 31h-115v-223z" glyph-name="uniE408" horiz-adv-x="823" unicode=""/><glyph d="M135 1067q0 158 105.5 262.5t263.5 104.5t263 -104.5t105 -262.5q0 -156 -105 -259t-263 -103t-263.5 103t-105.5 259zM307 1067q0 -88 56.5 -147.5t140.5 -59.5t139 58.5t55 148.5q0 92 -55 150.5t-139 58.5t-140.5 -59.5t-56.5 -149.5zM188 434v158h633v-158h-633z" glyph-name="uniE409" horiz-adv-x="1007" unicode=""/><glyph d="M176 434v158h610v-158h-610zM250 1217l-74 137q129 80 285 80q326 0 325 -338v-379h-168v84q-96 -96 -231 -96q-106 0 -176 59t-70 164q0 111 77 173t206 62q106 0 192 -41q-10 158 -163 158q-99 0 -203 -63zM432 831q106 0 186 103v70q-82 41 -163 40q-143 0 -144 -110 q0 -47 34 -75t87 -28z" glyph-name="uniE410" horiz-adv-x="950" unicode=""/><glyph d="M195 434v158h667v-158h-667zM473 1434q131 0 221 -91v76h168v-702h-168v78q-90 -90 -221 -90q-147 0 -243.5 104t-96.5 258q0 156 96.5 261.5t243.5 105.5zM694 1067q0 94 -55 160.5t-139 66.5q-82 0 -137.5 -65.5t-55.5 -161.5q0 -94 55.5 -158.5t137.5 -64.5t138 64.5 t56 158.5z" glyph-name="uniE411" horiz-adv-x="1032" unicode=""/><glyph d="M119 716.5q0 153.5 73.5 252t215 98.5t215 -98.5t73.5 -252t-73.5 -251.5t-215 -98t-215 98t-73.5 251.5zM262 716.5q0 -104.5 38 -160.5t108 -56q145 0 145 217t-145 217q-70 0 -108 -56.5t-38 -161z" glyph-name="uniE450" horiz-adv-x="811" unicode=""/><glyph d="M72 821v144l178 92h110v-680h-143v520z" glyph-name="uniE451" horiz-adv-x="497" unicode=""/><glyph d="M592 512v-135h-498v110q346 219 346 355q0 43 -27.5 68.5t-72.5 25.5t-74.5 -27.5t-29.5 -85.5v-12h-142v14q0 121 76 181.5t176 60.5t170 -61.5t70 -159.5q0 -166 -226 -334h232z" glyph-name="uniE452" horiz-adv-x="688" unicode=""/><glyph d="M82 432l70 119q90 -49 178 -49q113 0 112 69q0 86 -194 86v121q92 0 135 28t43 66q0 31 -27.5 49.5t-66.5 18.5q-41 0 -70 -20.5t-29 -55.5v-2h-135v12q0 90 70 141.5t164 51.5q96 0 165.5 -52t69.5 -138q0 -102 -98 -156q119 -49 119 -158q0 -88 -71 -142t-185 -54 q-127 -1 -250 65z" glyph-name="uniE453" horiz-adv-x="679" unicode=""/><glyph d="M549 377h-139v131h-334v106l180 443h154l-174 -414h174v168l139 43v-211h100v-135h-100v-131z" glyph-name="uniE454" horiz-adv-x="724" unicode=""/><glyph d="M131 1057h408v-135h-269v-119h17q145 0 220 -62.5t75 -162.5q0 -94 -66.5 -152.5t-187.5 -58.5q-129 0 -254 65l67 119q106 -49 181 -49q59 0 84.5 15t25.5 63q0 92 -178 92h-123v385z" glyph-name="uniE455" horiz-adv-x="665" unicode=""/><glyph d="M524 1057l-168 -205h13q106 0 174.5 -65.5t68.5 -168.5q0 -109 -76.5 -180t-187 -71t-187.5 71.5t-77 175.5q0 96 90 211l182 232h168zM346 735q-55 0 -91 -33.5t-36 -85t36 -85t91 -33.5t92 33.5t37 85t-37 85t-92 33.5z" glyph-name="uniE456" horiz-adv-x="692" unicode=""/><glyph d="M76 920v137h475v-117l-277 -563h-159l274 543h-313z" glyph-name="uniE457" horiz-adv-x="616" unicode=""/><glyph d="M631 578q0 -98 -78 -154.5t-192.5 -56.5t-192.5 56t-78 155q0 111 96 159q-70 47 -69.5 137.5t71 141.5t173 51t173 -51t70.5 -141.5t-69 -137.5q96 -50 96 -159zM487 582q0 43 -34.5 69.5t-92.5 26.5q-59 0 -93 -26.5t-34 -69.5q0 -39 35 -66t92.5 -27t92 27t34.5 66z M469 872q0 33 -28.5 54.5t-80 21.5t-80 -21.5t-28.5 -54.5q0 -35 28.5 -58t80 -23t80 23t28.5 58z" glyph-name="uniE458" horiz-adv-x="720" unicode=""/><glyph d="M168 377l168 205h-12q-106 0 -175 65.5t-69 167.5q0 109 76.5 180.5t187.5 71.5t187.5 -71.5t76.5 -176.5q0 -96 -90 -211l-182 -231h-168zM346 698q55 0 91 34t36 85t-36 85t-91 34t-92 -34t-37 -85t37 -85t92 -34z" glyph-name="uniE459" horiz-adv-x="690" unicode=""/><glyph d="M84 416q0 184 89 305t247 121q160 0 248 -121t88 -305.5t-88 -304t-248 -119.5q-158 0 -247 121t-89 303zM258 416q0 -121 44 -195t118 -74q76 0 120 74t44 195t-44 194.5t-120 73.5t-119 -73.5t-43 -194.5z" glyph-name="uniE500" horiz-adv-x="841" unicode=""/><glyph d="M217 2v623l-151 -82v178l194 106h127v-825h-170z" glyph-name="uniE501" horiz-adv-x="518" unicode=""/><glyph d="M653 158v-156h-567v121q393 303 393 446q0 53 -30.5 84t-77.5 31q-49 0 -85 -33t-36 -100v-14h-166v16q0 143 87 215t204 72q115 0 195.5 -70t80.5 -182q0 -193 -268 -430h270z" glyph-name="uniE502" horiz-adv-x="743" unicode=""/><glyph d="M72 70l71 141q119 -63 207 -64q131 0 131 93q0 111 -219 110v135q106 0 152.5 36t46.5 87q0 41 -29 64.5t-72 23.5q-47 0 -77.5 -23.5t-30.5 -68.5v-6h-166v18q0 102 81 164t193 62q111 0 191 -61.5t80 -168.5q0 -125 -121 -190q145 -55 145 -193q0 -106 -83 -171.5 t-216 -65.5q-149 0 -284 78z" glyph-name="uniE503" horiz-adv-x="739" unicode=""/><glyph d="M606 2h-164v160h-376v119l200 546h180l-194 -510h190v226l164 45v-271h113v-155h-113v-160z" glyph-name="uniE504" horiz-adv-x="778" unicode=""/><glyph d="M127 827h473v-155h-307v-160h18q168 0 255 -75t87 -193q0 -115 -78.5 -184.5t-220.5 -69.5q-150 0 -288 78l77 135q121 -59 205 -60q133 0 133 103q0 123 -211 123h-143v458z" glyph-name="uniE505" horiz-adv-x="727" unicode=""/><glyph d="M575 827l-196 -262q10 2 31 2q119 0 197.5 -77.5t78.5 -200.5q0 -129 -88 -214t-219 -85q-129 0 -218 85t-89 210q0 104 100 245l213 297h190zM379 432q-59 0 -97 -41t-38 -104q0 -61 37.5 -101.5t97 -40.5t97.5 40t38 103.5t-39 103.5t-96 40z" glyph-name="uniE506" horiz-adv-x="753" unicode=""/><glyph d="M66 670v157h534v-127l-309 -698h-185l306 668h-346z" glyph-name="uniE507" horiz-adv-x="655" unicode=""/><glyph d="M711 240q0 -115 -91.5 -181.5t-224.5 -66.5t-223 66.5t-90 181.5q0 135 125 202q-94 57 -94 166t81.5 171.5t200.5 62.5q121 0 203 -62.5t82 -171.5q0 -106 -96 -166q127 -69 127 -202zM539 246q0 53 -40 86t-103.5 33t-102.5 -32t-39 -87q0 -51 38 -82t103.5 -31 t104.5 31t39 82zM512 602q0 45 -29.5 72.5t-87.5 27.5q-53 0 -83.5 -27.5t-30.5 -72.5t31.5 -73.5t82.5 -28.5t84 28.5t33 73.5z" glyph-name="uniE508" horiz-adv-x="792" unicode=""/><glyph d="M178 2l197 262q-10 -2 -31 -2q-119 0 -197.5 78t-78.5 201q0 129 88 214t219 85q129 0 218 -85t89 -210q0 -104 -100 -246l-213 -297h-191zM375 397q59 0 97 41t38 105q0 61 -38 101t-97.5 40t-97 -40t-37.5 -103.5t39 -103.5t96 -40z" glyph-name="uniE509" horiz-adv-x="753" unicode=""/><glyph d="M84 1286q0 184 89 305t247 121q160 0 248 -121t88 -305t-88 -304t-248 -120q-158 0 -247 121t-89 303zM258 1286q0 -121 44 -194.5t118 -73.5q76 0 120 73.5t44 194.5t-44 194.5t-120 73.5t-119 -73.5t-43 -194.5z" glyph-name="uniE520" horiz-adv-x="841" unicode=""/><glyph d="M217 874v623l-151 -82v178l194 107h127v-826h-170z" glyph-name="uniE521" horiz-adv-x="518" unicode=""/><glyph d="M653 1030v-156h-567v121q393 303 393 447q0 53 -30.5 83.5t-77.5 30.5q-49 0 -85 -32.5t-36 -100.5v-14h-166v16q0 143 87 215t204 72q115 0 195.5 -69.5t80.5 -182.5q0 -193 -268 -430h270z" glyph-name="uniE522" horiz-adv-x="743" unicode=""/><glyph d="M72 940l71 141q119 -63 207 -63q131 0 131 92q0 111 -219 111v135q106 0 152.5 35.5t46.5 87.5q0 41 -29 64.5t-72 23.5q-47 0 -77.5 -23.5t-30.5 -68.5v-7h-166v19q0 102 81 163.5t193 61.5q111 0 191 -61.5t80 -167.5q0 -125 -121 -191q145 -55 145 -192 q0 -106 -83 -172t-216 -66q-149 0 -284 78z" glyph-name="uniE523" horiz-adv-x="739" unicode=""/><glyph d="M604 874h-164v160h-377v119l201 547h180l-194 -510h190v225l164 45v-270h113v-156h-113v-160z" glyph-name="uniE524" horiz-adv-x="778" unicode=""/><glyph d="M127 1700h473v-156h-307v-160h18q168 0 255 -74.5t87 -193.5q0 -115 -78.5 -184.5t-220.5 -69.5q-150 0 -288 78l77 135q121 -59 205 -59q133 0 133 102q0 123 -211 123h-143v459z" glyph-name="uniE525" horiz-adv-x="727" unicode=""/><glyph d="M578 1700l-197 -262q10 2 31 2q119 0 197.5 -78t78.5 -201q0 -129 -88 -214t-219 -85q-129 0 -218 85t-89 210q0 104 100 246l213 297h191zM381 1305q-59 0 -97 -41t-38 -105q0 -61 38 -101t97 -40t97 40t38 103.5t-39 103.5t-96 40z" glyph-name="uniE526" horiz-adv-x="753" unicode=""/><glyph d="M66 1542v158h534v-127l-309 -699h-185l306 668h-346z" glyph-name="uniE527" horiz-adv-x="655" unicode=""/><glyph d="M711 1110q0 -115 -91.5 -181.5t-224.5 -66.5t-223 66.5t-90 181.5q0 135 125 203q-94 57 -94 165.5t81.5 171t200.5 62.5q121 0 203 -62.5t82 -170.5q0 -106 -96 -166q127 -70 127 -203zM539 1116q0 55 -40 87t-103.5 32t-102.5 -32t-39 -87q0 -51 38 -81.5t103.5 -30.5 t104.5 30.5t39 81.5zM512 1472.5q0 45.5 -29.5 73t-87.5 27.5q-53 0 -83.5 -27.5t-30.5 -73t31.5 -74t82.5 -28.5t84 28.5t33 74z" glyph-name="uniE528" horiz-adv-x="792" unicode=""/><glyph d="M178 874l197 263q-10 -2 -31 -2q-119 0 -197.5 77.5t-78.5 200.5q0 129 88 214t219 85q129 0 218 -85t89 -210q0 -104 -100 -246l-213 -297h-191zM375 1270q59 0 97 41t38 104q0 61 -38 101t-97.5 40t-97 -39.5t-37.5 -103t39 -103.5t96 -40z" glyph-name="uniE529" horiz-adv-x="753" unicode=""/><glyph d="M109 238l145 149q-57 90 -57 202.5t59 201.5l-147 151l131 129l149 -156q84 47 189 48q96 0 186 -48l151 156l129 -129l-147 -151q59 -92 59 -201t-59 -201l147 -151l-129 -129l-151 155q-84 -47 -186 -47q-104 0 -189 47l-149 -155zM399 590q0 -82 51.5 -137.5 t127 -55.5t127 55.5t51.5 137.5t-51.5 137t-127 55t-127 -55t-51.5 -137z" glyph-name="uniE600" horiz-adv-x="1155" unicode=""/><glyph d="M166 717v182h194l48 283h184l-47 -283h248l47 283h184l-47 -283h164v-182h-195l-41 -252h166v-182h-197l-47 -283h-184l47 283h-248l-47 -283h-184l47 283h-162v182h193l41 252h-164zM514 717l-41 -252h248l41 252h-248z" glyph-name="uniE601" horiz-adv-x="1236" unicode=""/><glyph d="M432 -139v180q-139 18 -228 91t-104 198l197 49q14 -168 235 -168q203 0 203 113q0 16 -4 30.5t-14 26.5t-18.5 22.5t-29 20.5t-31.5 17.5t-38 17.5t-39 15t-44 16.5t-44 15.5q-82 31 -136 56.5t-109.5 66.5t-83 96t-27.5 127q0 121 85 197.5t230 91.5v180h182v-186 q135 -25 217 -106t82 -212v-26h-196v12q0 84 -57.5 125t-155.5 41q-88 0 -135 -32t-47 -83q0 -59 55 -94t168 -74q94 -33 153.5 -58.5t122 -67.5t92 -99.5t29.5 -130.5q0 -123 -88 -199t-240 -92v-178h-182z" glyph-name="uniE602" horiz-adv-x="1040" unicode=""/><glyph d="M84 899q0 127 88 214t219 87q129 0 218 -87t89 -214q0 -129 -89 -216t-218 -87q-131 0 -219 87t-88 216zM256 899q0 -59 38 -98t97.5 -39t97 39t37.5 98t-37.5 97t-97 38t-97.5 -38t-38 -97zM446 0h-200l876 1182h203zM874 285q0 127 88.5 214t217.5 87q131 0 219 -87 t88 -214q0 -129 -88 -216t-219 -87q-129 0 -217.5 87t-88.5 216zM1044 284.5q0 -59.5 38 -98.5t97.5 -39t97.5 39t38 98.5t-39 97.5t-96.5 38t-96.5 -38t-39 -97.5z" glyph-name="uniE603" horiz-adv-x="1572" unicode=""/><glyph d="M424 0v180q-143 31 -231.5 143.5t-88.5 266.5q0 156 88.5 268.5t231.5 140.5v183h182v-183q102 -23 178 -93t113 -171l-190 -63q-23 68 -73 109.5t-118 41.5q-90 0 -147.5 -64.5t-57.5 -168.5q0 -102 57.5 -167t147.5 -65q68 0 118 42t73 110l190 -64 q-37 -100 -112.5 -171.5t-178.5 -94.5v-180h-182z" glyph-name="uniE604" horiz-adv-x="989" unicode=""/><glyph d="M145 0v141q139 125 140 279q0 10 -2 24h-162v177h117q-2 6 -15.5 38.5t-17.5 44t-14.5 40t-14.5 47t-7 45t-3 51.5q0 143 98 229t248 86q152 0 256 -92t104 -254v-22h-192v12q0 80 -45 127t-115 47q-68 0 -113 -44t-45 -118q0 -35 10.5 -69.5t36 -89t33.5 -78.5h281v-177 h-244v-18q0 -133 -76 -233h461v-193h-719z" glyph-name="uniE605" horiz-adv-x="989" unicode=""/><glyph d="M608 647l281 535h241l-339 -592h243v-178h-323v-74h323v-178h-323v-160h-207v160h-324v178h324v74h-324v178h246l-338 592h238z" glyph-name="uniE606" horiz-adv-x="1216" unicode=""/><glyph d="M84 899q0 127 88 214t219 87q129 0 218 -87t89 -214q0 -129 -89 -216t-218 -87q-131 0 -219 87t-88 216zM256 899q0 -59 38 -98t97.5 -39t97 39t37.5 98t-37.5 97t-97 38t-97.5 -38t-38 -97zM446 0h-200l876 1182h203zM874 285q0 127 88.5 214t217.5 87q131 0 219 -87 t88 -214q0 -129 -88 -216t-219 -87q-129 0 -217.5 87t-88.5 216zM1044 284.5q0 -59.5 38 -98.5t97.5 -39t97.5 39t38 98.5t-39 97.5t-96.5 38t-96.5 -38t-39 -97.5zM1556 285q0 127 88.5 214t217.5 87q131 0 219 -87t88 -214q0 -129 -88 -216t-219 -87q-129 0 -217.5 87 t-88.5 216zM1729 284.5q0 -59.5 37.5 -98.5t95.5 -39q59 0 98 39t39 98.5t-39 97.5t-98 38q-57 0 -95 -38t-38 -97.5z" glyph-name="uniE607" horiz-adv-x="2236" unicode=""/><glyph d="M954 524l-43 -166h-419q102 -184 309 -184q141 0 241 100l134 -143q-160 -152 -377 -151q-186 0 -330.5 103t-208.5 275h-162v166h125q-2 20 -2 66q0 43 2 63h-125v166h162q61 174 205.5 278.5t333.5 104.5q217 0 377 -151l-134 -144q-100 100 -241 101 q-100 0 -181 -50.5t-131 -138.5h535l-43 -166h-543q-2 -20 -2 -63q0 -45 2 -66h516z" glyph-name="uniE608" horiz-adv-x="1284" unicode=""/><glyph d="M139 721v172h330q-55 111 -209 111h-121v178h740l-50 -172h-202q39 -45 59 -117h195l-50 -172h-135q-14 -119 -85.5 -202t-192.5 -116l360 -403h-262l-377 424v145h121q182 0 225 152h-346z" glyph-name="uniE609" horiz-adv-x="983" unicode=""/><glyph d="M678 0h-258l-72 373h-235v182h202l-16 80h-186v180h153l-69 367h215l147 -838l131 838h246l131 -844l147 844h216l-70 -367h153v-180h-186l-16 -80h202v-182h-237l-70 -373h-256l-137 854z" glyph-name="uniE610" horiz-adv-x="1626" unicode=""/><glyph d="M121 168v186h100v74h-100v188h100v566h416q188 0 293.5 -107.5t105.5 -269.5t-105.5 -269.5t-293.5 -107.5h-209v-74h301v-186h-301v-168h-207v168h-100zM428 616h184q100 0 155.5 53.5t55.5 135.5t-55 135t-156 53h-184v-377z" glyph-name="uniE611" horiz-adv-x="1120" unicode=""/><glyph d="M121 590v186l143 43v363h207v-301l422 129v-187l-422 -129v-84l422 129v-186l-422 -129v-234h135q219 0 258 232l199 -45q-31 -193 -144.5 -285t-336.5 -92h-318v362l-143 -43v187l143 43v84z" glyph-name="uniE612" horiz-adv-x="1140" unicode=""/><glyph d="M1075 346l314 -346h-281l-178 197q-233 -217 -465 -217q-168 0 -270.5 92t-102.5 237q0 139 87 240.5t251 202.5q-150 186 -149 348q0 152 108.5 253t269.5 101q158 0 260.5 -95t102.5 -237q0 -74 -29.5 -139t-91 -124.5t-118 -100.5t-144.5 -99q-18 -12 -59 -36.5 t-58.5 -37t-51.5 -34t-49 -34.5t-39 -33.5t-35 -36t-23.5 -36t-17.5 -41t-5 -42.5q0 -70 49 -117t133 -47q90 0 180.5 62.5t206.5 183.5q133 141 277 342l158 -117q-101 -148 -230 -289zM827 1114q0 72 -46 115t-117 43q-78 0 -127.5 -49t-49.5 -125q0 -94 121 -236 q113 74 166 129t53 123z" glyph-name="uniE650" horiz-adv-x="1413" unicode=""/><glyph d="M664 915l-58 -186q-113 29 -184 107q-111 -111 -111 -275q0 -166 115 -278.5t280.5 -112.5t281.5 112.5t116 278.5q0 117 -62 207l-81 -59q-96 -68 -97 -152q0 -63 54 -106l-123 -134q-119 94 -119 244q0 172 164 291l311 227q98 74 98 154q0 74 -69 117l125 143 q137 -96 137 -262q0 -174 -166 -293l-68 -49q100 -145 101 -328q0 -250 -175.5 -419t-427 -169t-427 169t-175.5 419q0 139 60.5 259t165.5 198q-6 35 -6 69q0 160 110.5 266.5t272.5 106.5q113 0 206 -57t140 -156l-181 -88q-20 47 -64 77t-99 30q-76 0 -128.5 -51.5 t-52.5 -127.5q0 -66 38.5 -112t97.5 -60z" glyph-name="uniE651" horiz-adv-x="1538" unicode=""/><glyph d="M244 68l123 -29q-211 -186 -211 -303q0 -74 88 -74q20 0 59 8l29 -166q-43 -14 -107 -14q-106 0 -171.5 51t-65.5 148q0 74 44 149.5t91 123t121 106.5z" glyph-name="uniE700" horiz-adv-x="356" unicode=""/><glyph d="M139 -616l-80 71q119 119 115 199q-49 -16 -95 16.5t-46 87.5q0 45 32.5 80t88.5 35q59 0 99 -41t40 -129q0 -169 -154 -319z" glyph-name="uniF6C3" horiz-adv-x="292" unicode=""/><glyph d="M301 608v121q-100 23 -162.5 103.5t-62.5 187t62.5 187.5t162.5 104v123h145v-123q76 -18 129.5 -69.5t77.5 -123.5l-155 -51q-35 98 -123 98q-57 0 -94 -41t-37 -104.5t36.5 -104.5t94.5 -41q88 0 123 99l155 -51q-51 -156 -207 -193v-121h-145z" glyph-name="uniF6E0" horiz-adv-x="720" unicode=""/><glyph d="M305 512v125q-96 14 -157.5 64.5t-73.5 134.5l159 45q16 -106 150 -107q127 0 127 66q0 27 -26.5 49t-55.5 34.5t-88 32.5q-125 45 -190.5 98.5t-65.5 147.5q0 82 59.5 136.5t161.5 66.5v123h144v-127q96 -18 153 -75.5t57 -149.5v-23h-163v12q0 100 -129 101 q-113 0 -113 -66q0 -37 35 -59.5t102 -46.5q74 -27 114 -45.5t87 -48t67.5 -69.5t20.5 -91q0 -88 -62.5 -141.5t-168.5 -65.5v-121h-144z" glyph-name="uniF6E4" horiz-adv-x="751" unicode=""/><glyph d="M1255 674q-12 -4 -17 -11.5t-2 -15.5t13 -14l51 -37q16 -10 14.5 -20.5t-20.5 -12.5l-61 -12q-18 -2 -21.5 -14.5t7.5 -24.5l43 -45q14 -12 11 -22.5t-24 -8.5l-63 2q-18 0 -24.5 -10t3.5 -27l33 -53q8 -16 3 -24.5t-21 -1.5l-62 14q-16 4 -25.5 -5t-2.5 -26l20 -59 q6 -16 -1 -23.5t-24 0.5l-57 27q-35 16 -35 -25l11 -61q2 -18 -6.5 -23.5t-22.5 4.5l-51 41q-14 10 -25.5 5t-13.5 -23l-2 -64q-6 -37 -33 -10l-41 49q-27 29 -41 -8l-18 -61q-4 -18 -14.5 -19.5t-18.5 15.5l-31 55q-20 37 -43 0l-27 -55q-6 -10 -13 -14.5t-13 0.5t-8 18 l-19 61q-12 39 -39 8l-43 -49q-27 -31 -30 10l-5 64q-4 41 -40 18l-50 -41q-14 -10 -22 -5t-4 24l8 61q2 18 -9.5 25.5t-27.5 -0.5l-55 -27q-16 -8 -23.5 -1t-1.5 24l21 59q6 16 -2.5 25.5t-24.5 5.5l-63 -14q-16 -6 -22.5 3t3.5 23l35 53q8 16 2 26.5t-23 10.5l-65 -2 q-18 -2 -22.5 8.5t8.5 22.5l47 45q12 12 7 24.5t-24 14.5l-61 12q-18 2 -20.5 12.5t14.5 20.5l51 37q10 6 12 10q18 10 33 -12l29 -53q6 -12 12 -15.5t11 0.5t9 17l17 57q6 20 18.5 23.5t22.5 -13.5l43 -47q10 -14 19 -10t11 22l5 62q8 43 41 16l49 -37q14 -12 22 -7t4 24 l-6 61q-2 18 7.5 25.5t25.5 -0.5l57 -27q16 -8 23.5 -1t-0.5 24l-19 61q-6 16 2.5 24.5t24.5 6.5l35 -10q51 -66 84 -194t33 -206q-12 -14 -42 -24.5t-56.5 -4t-26.5 32.5q0 35 -23.5 60.5t-64.5 25.5q-35 0 -60.5 -26.5t-25.5 -63.5q0 -51 43 -85t114 -34q139 0 277 115 q98 84 156.5 203t58.5 215q0 70 -32 108.5t-83 38.5q-43 0 -72.5 -30.5t-29.5 -73.5t29.5 -75t70.5 -32q-23 -115 -84 -196q0 119 -40 226.5t-109 152.5q-4 4 -5 8l-45 43q-29 29 13 41l63 10q10 2 15.5 7t3.5 12.5t-13 13.5l-53 37q-35 25 4 41l58 26q18 4 18 14.5 t-18 18.5l-58 25q-23 2 -18 24q12 6 14 15l31 55q4 10 11 14t13.5 -1t8.5 -15l18 -62q14 -41 41 -10l41 51q27 27 33 -12l2 -61q2 -20 13 -24.5t26 5.5l51 39q14 10 22.5 5t6.5 -23l-11 -62q0 -41 35 -24l57 28q16 8 23.5 1t1.5 -25l-20 -60q-6 -16 3 -25.5t25 -4.5l62 14 q16 6 21 -1t-3 -24l-33 -53q-20 -39 21 -39l63 4q20 2 23.5 -9t-10.5 -23l-43 -46q-10 -12 -7.5 -24t21.5 -14l61 -11q18 -4 20.5 -14t-14.5 -18l-51 -37q-10 -6 -13 -15.5t2 -16.5t17 -11l58 -23q31 -16 0 -35z" glyph-name="uniF8FF" horiz-adv-x="1374" unicode=""/></font>
</defs>
</svg>
