<?xml version="1.0" standalone="no"?>
<!DOCTYPE svg PUBLIC "-//W3C//DTD SVG 1.1//EN" "http://www.w3.org/Graphics/SVG/1.1/DTD/svg11.dtd">
<svg xmlns="http://www.w3.org/2000/svg"><metadata>This SVG WebFont was generated by YouWorkForThem.
Copyright (c) 2018 by Ryan Martinson. All rights reserved.</metadata><defs><font horiz-adv-x="1669" id="ywftsvg"><font-face ascent="1638" bbox="-428 -1073 3019 2023" cap-height="1434" descent="-410" font-family="" font-stretch="normal" font-weight="800" panose-1="2 11 9 3 4 0 0 2 0 3" underline-position="0" underline-thickness="0" unicode-range="U+0020-FB04" units-per-em="2048" x-height="1057"/><missing-glyph d="M215 0v1434h961v-1434h-961zM461 244h469v946h-469v-946z" horiz-adv-x="1390"/><glyph d="M51 739v318h180q0 219 110 329.5t296 110.5q115 0 240 -37l-58 -270q-55 12 -98 12q-59 0 -88 -25.5t-29 -97.5v-22h275v-318h-275v-739h-373v739h-180zM1196 1133q-90 0 -153.5 62t-63.5 153q0 88 63.5 150.5t153.5 62.5t154.5 -62.5t64.5 -150.5q0 -90 -64.5 -152.5 t-154.5 -62.5zM838 -395l49 293q35 -10 55 -11q68 0 68 76v1094h374v-1106q0 -176 -99 -272.5t-275 -96.5q-92 0 -172 23z" glyph-name="uniE200" horiz-adv-x="1497" unicode="fj"/><glyph d="M51 739v318h180q0 219 110 329.5t296 110.5q129 0 283 -47l-64 -268q-74 20 -135 20q-59 0 -88 -25.5t-29 -97.5v-22h252v-318h-252v-739h-373v739h-180zM952 739v318h156q0 219 109.5 329.5t298.5 110.5q113 0 237 -37l-57 -270q-55 12 -99 12q-59 0 -87.5 -25.5 t-28.5 -97.5v-22h274v-318h-274v-739h-373v739h-156zM2072.5 1133q-90.5 0 -154 62t-63.5 153q0 88 63.5 150.5t154 62.5t155 -62.5t64.5 -150.5q0 -90 -64.5 -152.5t-155 -62.5zM1714 -395l49 293q35 -10 56 -11q68 0 67 76v1094h375v-1106q0 -176 -99.5 -272.5 t-275.5 -96.5q-92 0 -172 23z" glyph-name="uniE201" horiz-adv-x="2375" unicode="ffj"/><glyph d="M51 739v318h180q0 219 110 329.5t296 110.5q115 0 240 -37l-58 -270q-55 12 -98 12q-59 0 -88 -25.5t-29 -97.5v-22h275v-318h-275v-739h-373v739h-180zM1382 1434v-498q106 145 301 145q209 0 333 -156.5t124 -398.5q0 -238 -124 -394.5t-333 -156.5q-195 0 -301 144 v-119h-374v1434h374zM1372 526q0 -98 55.5 -160.5t143.5 -62.5q90 0 145.5 62.5t55.5 160.5q0 102 -55.5 165t-145.5 63q-88 0 -143.5 -64t-55.5 -164z" glyph-name="uniE202" horiz-adv-x="2215" unicode="fb"/><glyph d="M51 739v318h180q0 219 110 329.5t296 110.5q129 0 283 -47l-64 -268q-74 20 -135 20q-59 0 -88 -25.5t-29 -97.5v-22h252v-318h-252v-739h-373v739h-180zM952 739v318h156q0 219 109.5 329.5t298.5 110.5q113 0 237 -37l-57 -270q-55 12 -99 12q-59 0 -87.5 -25.5 t-28.5 -97.5v-22h274v-318h-274v-739h-373v739h-156zM2261 1434v-498q106 145 301 145q209 0 333 -156.5t124 -398.5q0 -238 -124 -394.5t-333 -156.5q-195 0 -301 144v-119h-375v1434h375zM2251 526q0 -98 55 -160.5t143 -62.5q90 0 145.5 62.5t55.5 160.5q0 102 -55 165 t-146 63q-88 0 -143 -64t-55 -164z" glyph-name="uniE203" horiz-adv-x="3092" unicode="ffb"/><glyph d="M51 739v318h180q0 219 110 329.5t296 110.5q115 0 240 -37l-58 -270q-55 12 -98 12q-59 0 -88 -25.5t-29 -97.5v-22h275v-318h-275v-739h-373v739h-180zM1694 0l-187 377h-125v-377h-374v1434h374v-754h123l183 377h397l-258 -510l289 -547h-422z" glyph-name="uniE204" horiz-adv-x="2140" unicode="fk"/><glyph d="M51 739v318h180q0 219 110 329.5t296 110.5q129 0 283 -47l-64 -268q-74 20 -135 20q-59 0 -88 -25.5t-29 -97.5v-22h252v-318h-252v-739h-373v739h-180zM952 739v318h156q0 219 109.5 329.5t298.5 110.5q113 0 237 -37l-57 -270q-55 12 -99 12q-59 0 -87.5 -25.5 t-28.5 -97.5v-22h274v-318h-274v-739h-373v739h-156zM2572 0l-186 377h-125v-377h-375v1434h375v-754h123l182 377h397l-258 -510l289 -547h-422z" glyph-name="uniE205" horiz-adv-x="3018" unicode="ffk"/><glyph d="M51 739v318h180q0 219 110 329.5t296 110.5q115 0 240 -37l-58 -270q-55 12 -98 12q-59 0 -88 -25.5t-29 -97.5v-22h275v-318h-275v-739h-373v739h-180zM1702 0v592q0 88 -40 124t-95 36q-76 0 -130.5 -59.5t-54.5 -129.5v-563h-374v1434h374v-514q109 162 322 161 q170 0 270.5 -107.5t100.5 -332.5v-641h-373z" glyph-name="uniE206" horiz-adv-x="2179" unicode="fh"/><glyph d="M51 739v318h180q0 219 110 329.5t296 110.5q129 0 283 -47l-64 -268q-74 20 -135 20q-59 0 -88 -25.5t-29 -97.5v-22h252v-318h-252v-739h-373v739h-180zM952 739v318h156q0 219 109.5 329.5t298.5 110.5q113 0 237 -37l-57 -270q-55 12 -99 12q-59 0 -87.5 -25.5 t-28.5 -97.5v-22h274v-318h-274v-739h-373v739h-156zM2580 0v592q0 88 -39.5 124t-95.5 36q-76 0 -130 -59.5t-54 -129.5v-563h-375v1434h375v-514q109 162 322 161q170 0 270 -107.5t100 -332.5v-641h-373z" glyph-name="uniE207" horiz-adv-x="3057" unicode="ffh"/><glyph d="M51 739v318h180q0 219 110 329.5t296 110.5q115 0 240 -37l-58 -270q-55 12 -98 12q-59 0 -88 -25.5t-29 -97.5v-22h252v-318h-252v-739h-373v739h-180zM952 739v318h156v229l373 125v-354h307v-318h-307v-309q0 -117 100 -117q66 0 150 45l124 -286q-164 -96 -339 -97 q-408 0 -408 480v284h-156z" glyph-name="uniE208" horiz-adv-x="1869" unicode="ft"/><glyph d="M51 739v318h180q0 219 110 329.5t296 110.5q129 0 283 -47l-64 -268q-74 20 -135 20q-59 0 -88 -25.5t-29 -97.5v-22h252v-318h-252v-739h-373v739h-180zM1829 739v318h156v229l374 125v-354h307v-318h-307v-309q0 -117 101 -117q63 0 149 45l123 -286q-164 -96 -338 -97 q-410 0 -409 480v284h-156zM952 739v318h156q0 219 109.5 329.5t298.5 110.5q113 0 237 -37l-57 -270q-55 12 -99 12q-59 0 -87.5 -25.5t-28.5 -97.5v-22h254v-318h-254v-739h-373v739h-156z" glyph-name="uniE209" horiz-adv-x="2746" unicode="fft"/><glyph d="M39 739v318h178v229l373 125v-354h291v-318h-291v-309q0 -117 100 -117q66 0 150 45l125 -286q-168 -96 -340 -97q-408 0 -408 480v284h-178zM993 739v318h162v229l373 125v-354h307v-318h-307v-309q0 -117 100 -117q66 0 150 45l125 -286q-168 -96 -340 -97 q-408 0 -408 480v284h-162z" glyph-name="uniE210" horiz-adv-x="1914" unicode="tt"/><glyph d="M51 739v318h180q0 219 110 329.5t296 110.5q129 0 283 -47l-64 -268q-74 20 -135 20q-59 0 -88 -25.5t-29 -97.5v-22h252v-318h-252v-739h-373v739h-180zM952 739v318h156q0 219 109.5 329.5t298.5 110.5q127 0 280 -47l-63 -268q-74 20 -136 20q-59 0 -87.5 -25.5 t-28.5 -97.5v-22h274v-318h-274v-739h-373v739h-156z" glyph-name="uniFB00" horiz-adv-x="1787" unicode="ff"/><glyph d="M51 739v318h180q0 219 110 329.5t296 110.5q115 0 240 -37l-58 -270q-55 12 -98 12q-59 0 -88 -25.5t-29 -97.5v-22h275v-318h-275v-739h-373v739h-180zM1008 0v1057h374v-1057h-374zM1194 1133q-90 0 -153.5 62t-63.5 153q0 88 63.5 150.5t153.5 62.5t154.5 -62.5 t64.5 -150.5q0 -90 -64.5 -152.5t-154.5 -62.5z" glyph-name="uniFB01" horiz-adv-x="1497" unicode="fi"/><glyph d="M51 739v318h180q0 219 110 329.5t296 110.5q115 0 240 -37l-58 -270q-55 12 -98 12q-59 0 -88 -25.5t-29 -97.5v-22h275v-318h-275v-739h-373v739h-180zM1008 0v1434h374v-1434h-374z" glyph-name="uniFB02" horiz-adv-x="1497" unicode="fl"/><glyph d="M51 739v318h180q0 219 110 329.5t296 110.5q129 0 283 -47l-64 -268q-74 20 -135 20q-59 0 -88 -25.5t-29 -97.5v-22h252v-318h-252v-739h-373v739h-180zM950 739v318h158q0 219 109.5 329.5t298.5 110.5q113 0 237 -37l-57 -270q-55 12 -99 12q-59 0 -87.5 -25.5 t-28.5 -97.5v-22h274v-318h-274v-739h-373v739h-158zM1886 0v1057h375v-1057h-375zM2072.5 1133q-90.5 0 -154 62t-63.5 153q0 88 63.5 150.5t154 62.5t155 -62.5t64.5 -150.5q0 -90 -64.5 -152.5t-155 -62.5z" glyph-name="uniFB03" horiz-adv-x="2375" unicode="ffi"/><glyph d="M51 739v318h180q0 219 110 329.5t296 110.5q129 0 283 -47l-64 -268q-74 20 -135 20q-59 0 -88 -25.5t-29 -97.5v-22h252v-318h-252v-739h-373v739h-180zM952 739v318h156q0 219 109.5 329.5t298.5 110.5q113 0 237 -37l-57 -270q-55 12 -99 12q-59 0 -87.5 -25.5 t-28.5 -97.5v-22h274v-318h-274v-739h-373v739h-156zM1886 0v1434h375v-1434h-375z" glyph-name="uniFB04" horiz-adv-x="2375" unicode="ffl"/><glyph d="M215 0v1434h961v-1434h-961zM461 244h469v946h-469v-946z" glyph-name=".notdef" horiz-adv-x="1390"/><glyph glyph-name="glyph1" horiz-adv-x="0"/><glyph glyph-name="glyph2" horiz-adv-x="681"/><glyph glyph-name="space" horiz-adv-x="460" unicode=" "/><glyph d="M98 1434h445l-97 -934h-253zM111 178q0 84 60 142.5t146 58.5t146.5 -58.5t60.5 -142.5t-60.5 -143.5t-146.5 -59.5q-84 0 -145 59.5t-61 143.5z" glyph-name="exclam" horiz-adv-x="638" unicode="!"/><glyph d="M412 766h-277l-33 668h342zM842 766h-277l-33 668h342z" glyph-name="quotedbl" horiz-adv-x="976" unicode="&quot;"/><glyph d="M160 848v276h254l53 310h278l-53 -310h232l53 310h280l-53 -310h207v-276h-252l-45 -262h211v-277h-256l-51 -309h-281l51 309h-231l-51 -309h-279l52 309h-205v277h250l45 262h-209zM647 848l-45 -262h232l45 262h-232z" glyph-name="numbersign" horiz-adv-x="1484" unicode="#"/><glyph d="M455 -154v205q-160 29 -260.5 120t-118.5 245l340 71q14 -172 198 -172q150 0 150 97q0 12 -3 23t-11.5 21.5t-15.5 18.5t-22.5 16.5t-27.5 14.5t-33.5 14t-36 13.5t-43 15.5t-45.5 16q-221 80 -329.5 177.5t-108.5 271.5q0 152 98.5 250t268.5 125v198h282v-209 q158 -35 252 -139t94 -268v-31h-344v12q0 80 -44 123t-120 43q-63 0 -97 -26.5t-34 -69.5q0 -51 47.5 -82t149.5 -70q100 -37 153.5 -58t126 -62t108.5 -82t62.5 -104.5t26.5 -141.5q0 -158 -102.5 -254t-278.5 -121v-201h-282z" glyph-name="dollar" horiz-adv-x="1189" unicode="$"/><glyph d="M57 1089.5q0 153.5 109.5 261t267.5 107.5q160 0 268.5 -107.5t108.5 -261t-108.5 -261t-268.5 -107.5q-158 0 -267.5 107.5t-109.5 261zM313 1090q0 -57 34 -92t87 -35t88 35.5t35 91t-35 91.5t-88 36t-87 -36t-34 -91zM479 0h-284l1056 1434h287zM920 344 q0 154 109.5 261.5t267 107.5t267 -107.5t109.5 -261.5t-109.5 -261.5t-267 -107.5t-267 107.5t-109.5 261.5zM1176 344q0 -57 33.5 -92t87 -35t88 36t34.5 91t-34.5 91t-88 36t-87 -36t-33.5 -91z" glyph-name="percent" horiz-adv-x="1730" unicode="%"/><glyph d="M1513 0h-479l-114 123q-219 -147 -431 -148q-193 0 -308 99.5t-115 263.5q0 135 75.5 229.5t216.5 175.5q-113 168 -112 316q0 170 126 284.5t318 114.5q186 0 306 -109.5t120 -261.5q0 -205 -268 -378l129 -138q80 78 207 211l229 -207q-76 -94 -223 -231zM530 258 q86 0 189 80l-180 194q-139 -84 -140 -161q0 -49 34 -81t97 -32zM582 1069q0 -76 80 -164q80 47 113.5 87t33.5 89q0 51 -30.5 80t-78.5 29q-53 0 -85.5 -36t-32.5 -85z" glyph-name="ampersand" horiz-adv-x="1495" unicode="&amp;"/><glyph d="M412 766h-277l-33 668h342z" glyph-name="quotesingle" horiz-adv-x="546" unicode="'"/><glyph d="M389 1524l291 -176q-205 -356 -205 -816q0 -457 205 -813l-291 -178q-309 430 -309 991q0 566 309 992z" glyph-name="parenleft" horiz-adv-x="731" unicode="("/><glyph d="M51 1348l291 176q309 -426 309 -992q0 -561 -309 -991l-291 178q205 356 205 813q0 460 -205 816z" glyph-name="parenright" horiz-adv-x="731" unicode=")"/><glyph d="M635 1434l-29 -287l258 119l80 -246l-278 -59l190 -211l-209 -152l-141 244l-144 -244l-208 152l190 211l-278 59l79 246l261 -119l-31 287h260z" glyph-name="asterisk" horiz-adv-x="1009" unicode="*"/><glyph d="M84 825h262v277h311v-277h263v-307h-263v-278h-311v278h-262v307z" glyph-name="plus" horiz-adv-x="1003" unicode="+"/><glyph d="M279 -414l-148 138q170 141 180 256q-90 -16 -160.5 39t-70.5 153q0 84 59.5 146.5t159.5 62.5q102 0 174 -75t72 -212q0 -156 -80 -288t-186 -220z" glyph-name="comma" horiz-adv-x="620" unicode=","/><glyph d="M760 762v-326h-643v326h643z" glyph-name="hyphen" horiz-adv-x="878" unicode="-"/><glyph d="M76 193q0 90 65.5 152.5t157.5 62.5t156.5 -62.5t64.5 -152.5q0 -92 -64.5 -155t-156.5 -63t-157.5 63t-65.5 155z" glyph-name="period" horiz-adv-x="595" unicode="."/><glyph d="M682 1434h346l-639 -1434h-348z" glyph-name="slash" horiz-adv-x="1071" unicode="/"/><glyph d="M90 717q0 209 60.5 371.5t198.5 266t337 103.5q201 0 339 -103.5t199.5 -266t61.5 -371.5q0 -322 -151.5 -532t-448.5 -210q-295 0 -445.5 210t-150.5 532zM473 716.5q0 -188.5 57.5 -289.5t155.5 -101t157.5 101t59.5 289.5t-59.5 289t-157.5 100.5t-155.5 -100.5 t-57.5 -289z" glyph-name="zero" horiz-adv-x="1374" unicode="0"/><glyph d="M70 854v385l356 195h305v-1434h-381v1006z" glyph-name="one" horiz-adv-x="878" unicode="1"/><glyph d="M1147 342v-342h-1051v297q657 479 658 692q0 59 -37 95t-96 36q-150 0 -150 -200v-25h-375v33q0 137 47 242.5t126 166t169 91t189 30.5q213 0 362.5 -127t149.5 -332q0 -166 -113 -325.5t-346 -331.5h467z" glyph-name="two" horiz-adv-x="1247" unicode="2"/><glyph d="M39 115l160 297q229 -106 366 -107q80 0 123 30t43 81q0 143 -346 143v299q172 0 244.5 50t72.5 118q0 57 -36.5 87t-87.5 30q-59 0 -100.5 -34t-41.5 -103v-9h-366v37q0 201 151.5 312.5t353.5 111.5q205 0 354.5 -110.5t149.5 -292.5q0 -227 -225 -336 q264 -90 264 -332q0 -190 -148.5 -301t-396.5 -111q-268 1 -534 140z" glyph-name="three" horiz-adv-x="1206" unicode="3"/><glyph d="M1077 0h-366v260h-645v283l331 891h414l-346 -859h246v330l366 117v-447h174v-315h-174v-260z" glyph-name="four" horiz-adv-x="1310" unicode="4"/><glyph d="M55 115l160 297q221 -106 363 -107q82 0 124.5 35t42.5 94q0 166 -342 166h-231v834h870v-342h-497v-183h16q279 0 426.5 -131t147.5 -342q0 -205 -142.5 -333t-404.5 -128q-267 1 -533 140z" glyph-name="five" horiz-adv-x="1212" unicode="5"/><glyph d="M1051 1434l-355 -453q10 2 29 2q186 0 317.5 -133t131.5 -346q0 -231 -157 -380t-390.5 -149t-392 149.5t-158.5 371.5q0 127 51 239.5t147 245.5l328 453h449zM627 696q-82 0 -137.5 -55t-55.5 -141t53.5 -140.5t137.5 -54.5t139 55.5t55 139.5q0 86 -54 141t-138 55z " glyph-name="six" horiz-adv-x="1249" unicode="6"/><glyph d="M66 1071v363h989v-306l-504 -1128h-440l510 1071h-555z" glyph-name="seven" horiz-adv-x="1116" unicode="7"/><glyph d="M1225 412q0 -207 -166 -322t-405.5 -115t-404.5 115t-165 322q0 240 229 344q-174 98 -174 303q0 190 151.5 294.5t364.5 104.5q215 0 365.5 -104.5t150.5 -294.5q0 -205 -178 -303q232 -106 232 -344zM848 449q0 68 -51.5 117.5t-143.5 49.5q-90 0 -141 -50t-51 -117 q0 -70 51 -119t141 -49q92 0 143.5 49t51.5 119zM817 1026q0 57 -41 96t-121 39t-123 -39t-43 -96q0 -55 43 -98t123 -43t121 43t41 98z" glyph-name="eight" horiz-adv-x="1308" unicode="8"/><glyph d="M197 0l354 453q-10 -2 -29 -2q-186 0 -317 133t-131 346q0 231 156.5 379.5t390 148.5t392 -149.5t158.5 -370.5q0 -127 -51 -239.5t-147 -245.5l-328 -453h-448zM621 737q82 0 137 55.5t55 141.5t-53 140t-137 54t-139.5 -55t-55.5 -139q0 -86 54.5 -141.5t138.5 -55.5z " glyph-name="nine" horiz-adv-x="1249" unicode="9"/><glyph d="M96 193q0 90 65.5 152.5t158 62.5t157 -62.5t64.5 -152.5q0 -92 -64.5 -155t-157 -63t-158 63t-65.5 155zM96 840q0 90 65.5 152.5t158 62.5t157 -62.5t64.5 -152.5q0 -92 -64.5 -154.5t-157 -62.5t-158 62.5t-65.5 154.5z" glyph-name="colon" horiz-adv-x="636" unicode=":"/><glyph d="M299 -414l-147 138q170 141 180 256q-90 -16 -161 39t-71 153q0 84 59.5 146.5t159.5 62.5q102 0 174 -75t72 -212q0 -156 -80 -288t-186 -220zM100 840q0 90 65.5 152.5t158 62.5t157 -62.5t64.5 -152.5q0 -92 -64.5 -154.5t-157 -62.5t-158 62.5t-65.5 154.5z" glyph-name="semicolon" horiz-adv-x="661" unicode=";"/><glyph d="M66 518v309l831 406v-379l-434 -182l434 -183v-376z" glyph-name="less" horiz-adv-x="1026" unicode="&lt;"/><glyph d="M125 739v305h836v-305h-836zM125 303v303h836v-303h-836z" glyph-name="equal" horiz-adv-x="1085" unicode="="/><glyph d="M961 825v-309l-832 -405v378l434 183l-434 182v377z" glyph-name="greater" horiz-adv-x="1026" unicode=">"/><glyph d="M295 178q0 86 61.5 144.5t149.5 58.5q86 0 146.5 -58.5t60.5 -144.5q0 -84 -61.5 -143.5t-145.5 -59.5q-88 0 -149.5 59.5t-61.5 143.5zM672 487h-334v60q0 188 186 340q12 10 50 38.5t51.5 42t29 38t15.5 51.5q0 45 -32 68.5t-73 23.5q-70 0 -107.5 -49t-37.5 -131v-8 h-365v36q0 227 151.5 349t366.5 122q199 0 334 -106.5t135 -290.5q0 -121 -56 -198.5t-165 -161.5q-55 -43 -80.5 -65.5t-47 -59.5t-21.5 -78v-21z" glyph-name="question" horiz-adv-x="1107" unicode="?"/><glyph d="M821 958q135 0 230 -88v74h282v-510q0 -82 25.5 -123t66.5 -41q61 0 104.5 85t43.5 208q0 283 -178 467t-463 184q-287 0 -469 -191.5t-182 -487.5q0 -295 183 -487.5t470 -192.5q244 0 407 133l107 -142q-225 -168 -518 -168q-369 0 -611.5 243t-242.5 613.5 t241.5 616.5t608.5 246q365 0 607.5 -241t242.5 -589q0 -242 -111 -369.5t-268 -127.5q-201 0 -291 176q-94 -137 -272 -137q-168 0 -273.5 119.5t-105.5 304t102 305t264 120.5zM1053 532q0 78 -44 128.5t-114 50.5t-113 -50.5t-43 -128.5q0 -76 44 -126t114 -50 q68 0 112 50t44 126z" glyph-name="at" horiz-adv-x="1861" unicode="@"/><glyph d="M563 1434h424l565 -1434h-417l-76 213h-572l-73 -213h-418zM774 1034l-176 -504h350z" glyph-name="A" horiz-adv-x="1548" unicode="A"/><glyph d="M147 0v1434h736q231 0 356 -111t125 -289q0 -211 -180 -297q250 -88 250 -342q0 -184 -127 -289.5t-357 -105.5h-803zM879 590h-351v-285h361q74 0 112.5 40t38.5 101q0 63 -41.5 103.5t-119.5 40.5zM838 1126h-310v-252h314q59 0 95 35t36 92.5t-36 91t-99 33.5z" glyph-name="B" horiz-adv-x="1511" unicode="B"/><glyph d="M1149 614l371 -114q-66 -231 -255.5 -378t-445.5 -147q-317 0 -528 211t-211 530.5t211 530.5t528 211q256 0 445.5 -146.5t255.5 -379.5l-371 -113q-39 125 -124 200t-204 75q-147 0 -243.5 -107.5t-96.5 -269.5t96.5 -269.5t243.5 -107.5q119 0 204 74.5t124 199.5z " glyph-name="C" horiz-adv-x="1574" unicode="C"/><glyph d="M147 0v1434h658q330 0 520.5 -195t190.5 -522q0 -330 -191.5 -523.5t-519.5 -193.5h-658zM788 1094h-260v-754h260q158 0 244 101.5t86 275.5t-86 275.5t-244 101.5z" glyph-name="D" horiz-adv-x="1599" unicode="D"/><glyph d="M147 0v1434h1135v-340h-754v-217h605v-316h-605v-221h754v-340h-1135z" glyph-name="E" horiz-adv-x="1382" unicode="E"/><glyph d="M147 0v1434h1098v-355h-717v-268h646v-340h-646v-471h-381z" glyph-name="F" horiz-adv-x="1327" unicode="F"/><glyph d="M778 543v282h746v-825h-273v217q-145 -242 -463 -242q-315 0 -510.5 211t-195.5 530.5t212 530.5t533 211q199 0 354.5 -87t258.5 -238l-307 -207q-117 176 -304 176q-152 0 -249 -109.5t-97 -275.5q0 -168 93.5 -276.5t240.5 -108.5q90 0 172 51t129 160h-340z" glyph-name="G" horiz-adv-x="1630" unicode="G"/><glyph d="M1135 1434h381v-1434h-381v547h-607v-547h-381v1434h381v-547h607v547z" glyph-name="H" horiz-adv-x="1662" unicode="H"/><glyph d="M147 1434h385v-1434h-385v1434z" glyph-name="I" horiz-adv-x="679" unicode="I"/><glyph d="M283 1079v355h952v-865q0 -260 -156.5 -427t-433 -167t-434.5 167t-158 427v156h383v-117q0 -135 55.5 -204.5t153.5 -69.5t153.5 69.5t55.5 204.5v471h-571z" glyph-name="J" horiz-adv-x="1366" unicode="J"/><glyph d="M1098 0l-350 547h-218v-547h-383v1434h383v-547h213l336 547h428l-438 -709l469 -725h-440z" glyph-name="K" horiz-adv-x="1533" unicode="K"/><glyph d="M147 0v1434h381v-1080h707v-354h-1088z" glyph-name="L" horiz-adv-x="1284" unicode="L"/><glyph d="M528 0h-381v1434h398l416 -840l415 840h400v-1434h-381v786l-312 -632h-245l-310 630v-784z" glyph-name="M" horiz-adv-x="1921" unicode="M"/><glyph d="M528 0h-381v1434h388l604 -846v846h381v-1434h-387l-605 844v-844z" glyph-name="N" horiz-adv-x="1665" unicode="N"/><glyph d="M80 716.5q0 319.5 213 530.5t536 211q322 0 535 -211t213 -530.5t-213 -530.5t-535 -211q-324 0 -536.5 211t-212.5 530.5zM481 717q0 -162 98.5 -270.5t249.5 -108.5q150 0 248.5 107.5t98.5 271.5q0 162 -98.5 269.5t-248.5 107.5q-152 0 -250 -107.5t-98 -269.5z" glyph-name="O" horiz-adv-x="1656" unicode="O"/><glyph d="M147 0v1434h660q283 0 436.5 -158t153.5 -402q0 -242 -153.5 -399.5t-436.5 -157.5h-279v-317h-381zM528 653h217q262 0 263 221q0 223 -263 224h-217v-445z" glyph-name="P" horiz-adv-x="1470" unicode="P"/><glyph d="M80 717q0 319 213 530t536 211q322 0 535 -211t213 -530q0 -211 -98.5 -381t-268.5 -264q145 -131 295 -131q94 0 168 47l158 -297q-127 -98 -311 -99q-117 0 -228.5 36t-204 98.5t-155 115t-127.5 113.5q-14 16 -23 22q-305 16 -503.5 224.5t-198.5 515.5zM481 717 q0 -162 98.5 -270.5t249.5 -108.5q150 0 248.5 107.5t98.5 271.5q0 162 -98.5 269.5t-248.5 107.5q-152 0 -250 -107.5t-98 -269.5z" glyph-name="Q" horiz-adv-x="1656" unicode="Q"/><glyph d="M147 0v1434h697q266 0 409.5 -147.5t143.5 -375.5q0 -145 -62.5 -263t-181.5 -185l322 -463h-447l-258 391h-242v-391h-381zM528 723h263q217 0 217 188q0 190 -217 191h-263v-379z" glyph-name="R" horiz-adv-x="1519" unicode="R"/><glyph d="M80 387l383 82q25 -190 272 -190q199 0 199 104q0 29 -16.5 50.5t-57.5 40t-72.5 28.5t-101.5 28q-35 10 -51 15q-268 76 -402.5 185.5t-134.5 305.5q0 195 158 308.5t420 113.5q266 0 439 -119.5t173 -345.5v-28h-381v8q0 88 -62.5 134t-170.5 46q-90 0 -136 -30.5 t-46 -78.5q0 -39 34.5 -67.5t77.5 -45t115 -38.5q18 -6 29 -8q86 -25 131 -40.5t116.5 -43t110.5 -50t88 -60.5t73.5 -79t42 -96t17.5 -121q0 -201 -163 -310.5t-437 -109.5q-264 0 -442 104.5t-205 307.5z" glyph-name="S" horiz-adv-x="1409" unicode="S"/><glyph d="M51 1079v355h1258v-355h-439v-1079h-381v1079h-438z" glyph-name="T" horiz-adv-x="1359" unicode="T"/><glyph d="M1098 1434h383v-779q0 -299 -179.5 -489.5t-499 -190.5t-497.5 190.5t-178 489.5v779h383v-742q0 -358 293 -358q295 0 295 358v742z" glyph-name="U" horiz-adv-x="1607" unicode="U"/><glyph d="M967 0h-426l-541 1434h420l334 -969l333 969h420z" glyph-name="V" horiz-adv-x="1509" unicode="V"/><glyph d="M860 0h-430l-387 1434h406l223 -883l246 883h395l246 -881l223 881h407l-389 -1434h-430l-256 909z" glyph-name="W" horiz-adv-x="2230" unicode="W"/><glyph d="M1516 1434l-461 -717l485 -717h-477l-295 463l-295 -463h-475l485 717l-460 717h469l276 -482l279 482h469z" glyph-name="X" horiz-adv-x="1538" unicode="X"/><glyph d="M444 1434l312 -566l311 566h457l-578 -934v-500h-383v500l-575 934h456z" glyph-name="Y" horiz-adv-x="1509" unicode="Y"/><glyph d="M109 1079v355h1230v-318l-723 -762h723v-354h-1251v317l723 762h-702z" glyph-name="Z" horiz-adv-x="1437" unicode="Z"/><glyph d="M752 -76v-291h-613v1801h613v-291h-250v-1219h250z" glyph-name="bracketleft" horiz-adv-x="821" unicode="["/><glyph d="M43 1434h346l641 -1434h-348z" glyph-name="backslash" horiz-adv-x="1071" unicode="\"/><glyph d="M70 -367v291h249v1219h-249v291h612v-1801h-612z" glyph-name="bracketright" horiz-adv-x="821" unicode="]"/><glyph d="M422 1434h313l357 -779h-357l-157 404l-158 -404h-354z" glyph-name="asciicircum" horiz-adv-x="1155" unicode="^"/><glyph d="M1075 -141v-275h-1075v275h1075z" glyph-name="underscore" horiz-adv-x="1075" unicode="_"/><glyph d="M506 1593l-240 -96l-282 301l243 201z" glyph-name="grave" horiz-adv-x="673" unicode="`"/><glyph d="M233 715l-124 254q215 113 442 112q522 0 522 -508v-573h-354v98q-125 -123 -291 -123q-162 0 -260 91.5t-98 250.5q0 168 107.5 261.5t285.5 93.5q135 0 256 -58q0 178 -199 179q-123 0 -287 -78zM537 221q100 0 182 92v105q-84 39 -158 39q-63 0 -101 -32t-38 -91 q0 -51 32 -82t83 -31z" glyph-name="a" horiz-adv-x="1173" unicode="a"/><glyph d="M489 1434v-498q106 145 302 145q209 0 332.5 -156.5t123.5 -398.5q0 -238 -124 -394.5t-332 -156.5q-195 0 -302 144v-119h-374v1434h374zM479 526q0 -98 55.5 -160.5t143.5 -62.5q90 0 145.5 62.5t55.5 160.5q0 102 -55.5 165t-145.5 63q-88 0 -143.5 -64t-55.5 -164z " glyph-name="b" horiz-adv-x="1320" unicode="b"/><glyph d="M823 465l326 -105q-53 -172 -193.5 -278.5t-330.5 -106.5q-240 0 -396.5 158t-156.5 393q0 240 156.5 397.5t396.5 157.5q190 0 330.5 -105.5t193.5 -279.5l-326 -106q-53 164 -198 164q-90 0 -143.5 -63.5t-53.5 -164.5q0 -98 53.5 -160.5t143.5 -62.5q147 0 198 162z " glyph-name="c" horiz-adv-x="1196" unicode="c"/><glyph d="M834 934v500h372v-1434h-372v123q-104 -147 -302 -148q-211 0 -334.5 157t-123.5 394q0 242 124 398.5t334 156.5q196 0 302 -147zM842 526q0 102 -55.5 165t-143.5 63q-90 0 -145.5 -63.5t-55.5 -164.5q0 -98 56.5 -160.5t144.5 -62.5t143.5 62.5t55.5 160.5z" glyph-name="d" horiz-adv-x="1320" unicode="d"/><glyph d="M918 352l165 -225q-174 -152 -434 -152q-264 0 -420.5 157t-156.5 396q0 238 154.5 395.5t387.5 157.5q231 0 379 -152.5t148 -359.5q0 -76 -21 -149h-669q51 -156 225 -156q131 0 242 88zM618 799q-150 0 -180 -176h353q-10 80 -53.5 128t-119.5 48z" glyph-name="e" horiz-adv-x="1208" unicode="e"/><glyph d="M51 739v318h180q0 219 110 329.5t296 110.5q129 0 283 -47l-62 -268q-74 20 -137 20q-59 0 -88 -25.5t-29 -97.5v-22h275v-318h-275v-739h-373v739h-180z" glyph-name="f" horiz-adv-x="909" unicode="f"/><glyph d="M74 561q0 227 117.5 373.5t314.5 146.5q190 0 305 -149v125h373v-871q0 -311 -148.5 -456.5t-404.5 -145.5q-303 0 -531 172l164 264q193 -129 334 -129q109 0 161 64.5t52 171.5v63q-111 -147 -305 -147q-197 0 -314.5 145.5t-117.5 372.5zM442 561q0 -88 52.5 -144.5 t136.5 -56.5t135 56.5t51 144.5t-51 144.5t-135 56.5t-136.5 -56.5t-52.5 -144.5z" glyph-name="g" horiz-adv-x="1296" unicode="g"/><glyph d="M809 0v592q0 88 -40 124t-95 36q-76 0 -130.5 -59.5t-54.5 -129.5v-563h-374v1434h374v-514q109 162 322 161q170 0 270.5 -107.5t100.5 -332.5v-641h-373z" glyph-name="h" horiz-adv-x="1286" unicode="h"/><glyph d="M115 0v1057h374v-1057h-374zM301 1133q-90 0 -153.5 62t-63.5 153q0 88 63.5 150.5t153.5 62.5t154.5 -62.5t64.5 -150.5q0 -90 -64.5 -152.5t-154.5 -62.5z" glyph-name="i" horiz-adv-x="604" unicode="i"/><glyph d="M315.5 1133q-90.5 0 -154 62t-63.5 153q0 88 63.5 150.5t154 62.5t155 -62.5t64.5 -150.5q0 -90 -64.5 -152.5t-155 -62.5zM-43 -395l49 293q35 -10 55 -11q68 0 68 76v1094h375v-1106q0 -176 -99.5 -272.5t-275.5 -96.5q-92 0 -172 23z" glyph-name="j" horiz-adv-x="618" unicode="j"/><glyph d="M801 0l-187 377h-125v-377h-374v1434h374v-754h123l183 377h397l-258 -510l289 -547h-422z" glyph-name="k" horiz-adv-x="1245" unicode="k"/><glyph d="M115 0v1434h374v-1434h-374z" glyph-name="l" horiz-adv-x="604" unicode="l"/><glyph d="M1450 0v600q0 82 -38 117t-87 35q-70 0 -120 -54.5t-50 -122.5v-575h-373v600q0 82 -36.5 117t-88.5 35q-70 0 -119 -54.5t-49 -122.5v-575h-374v1057h374v-146q96 170 316 170q213 0 299 -174q117 174 352 174q166 0 266.5 -103.5t100.5 -322.5v-655h-373z" glyph-name="m" horiz-adv-x="1927" unicode="m"/><glyph d="M809 0v592q0 88 -40 124t-95 36q-76 0 -130.5 -59.5t-54.5 -129.5v-563h-374v1057h374v-137q109 162 322 161q170 0 270.5 -107.5t100.5 -332.5v-641h-373z" glyph-name="n" horiz-adv-x="1286" unicode="n"/><glyph d="M72 526q0 240 158.5 397.5t402.5 157.5q242 0 400.5 -157.5t158.5 -397.5q0 -238 -159 -394.5t-400 -156.5q-244 0 -402.5 156.5t-158.5 394.5zM432 526q0 -98 55.5 -160.5t145.5 -62.5q88 0 142 62.5t54 160.5q0 100 -54 164t-142 64q-90 0 -145.5 -64t-55.5 -164z" glyph-name="o" horiz-adv-x="1261" unicode="o"/><glyph d="M489 119v-486h-374v1424h374v-121q106 145 302 145q209 0 332.5 -156.5t123.5 -396t-124 -396.5t-332 -157q-198 1 -302 144zM479 528.5q0 -100.5 55.5 -163t143.5 -62.5q90 0 145.5 62.5t55.5 163t-55.5 163t-145.5 62.5q-88 0 -143.5 -62.5t-55.5 -163z" glyph-name="p" horiz-adv-x="1320" unicode="p"/><glyph d="M834 -367v490q-104 -147 -302 -148q-211 0 -334.5 157t-123.5 396.5t124 396t334 156.5q195 0 302 -147v123h372v-1424h-372zM842 528.5q0 100.5 -55.5 163t-143.5 62.5t-144.5 -62.5t-56.5 -163t56.5 -163t144.5 -62.5t143.5 62.5t55.5 163z" glyph-name="q" horiz-adv-x="1320" unicode="q"/><glyph d="M489 1057v-371q39 158 130.5 273.5t254.5 121.5v-444q-156 -14 -270.5 -106.5t-114.5 -231.5v-299h-374v1057h374z" glyph-name="r" horiz-adv-x="929" unicode="r"/><glyph d="M63 264l336 84q31 -121 183 -121q109 0 108 58q0 10 -4 19t-12 17.5t-17.5 14.5t-25 13t-27.5 11.5t-33.5 9.5t-35 9t-38 9t-38.5 9q-182 45 -283.5 128t-101.5 227q0 156 124 242.5t328 86.5q215 0 355.5 -92t140.5 -258v-12h-340v2q0 45 -36 76.5t-105 31.5 q-53 0 -81 -19t-28 -46q0 -33 44 -53.5t140 -46.5q27 -6 41 -11q96 -27 159 -51t120 -63t85 -96.5t28 -135.5q0 -168 -127 -250t-344 -82q-207 0 -345.5 73t-169.5 216z" glyph-name="s" horiz-adv-x="1114" unicode="s"/><glyph d="M39 739v318h178v229l373 125v-354h307v-318h-307v-309q0 -117 100 -117q61 0 152 45l123 -286q-164 -96 -340 -97q-408 0 -408 480v284h-178z" glyph-name="t" horiz-adv-x="978" unicode="t"/><glyph d="M477 1057v-592q0 -88 40 -124t95 -36q76 0 130.5 59.5t54.5 129.5v563h374v-1057h-374v137q-109 -162 -322 -162q-170 0 -270.5 107.5t-100.5 333.5v641h373z" glyph-name="u" horiz-adv-x="1286" unicode="u"/><glyph d="M807 0h-404l-391 1057h396l196 -660l199 660h395z" glyph-name="v" horiz-adv-x="1210" unicode="v"/><glyph d="M743 0h-424l-278 1057h395l127 -641l160 641h354l158 -639l127 639h397l-280 -1057h-422l-158 627z" glyph-name="w" horiz-adv-x="1798" unicode="w"/><glyph d="M1212 1057l-342 -529l359 -528h-441l-172 299l-170 -299h-440l361 528l-344 529h419l174 -305l179 305h417z" glyph-name="x" horiz-adv-x="1236" unicode="x"/><glyph d="M217 -440l-135 325q205 74 305 152l-375 1020h396l194 -662l201 662h395l-315 -848q-53 -143 -119 -251t-125 -171t-140 -111.5t-137.5 -68.5t-144.5 -47z" glyph-name="y" horiz-adv-x="1208" unicode="y"/><glyph d="M90 733v324h924v-258l-447 -477h447v-322h-924v256l445 477h-445z" glyph-name="z" horiz-adv-x="1105" unicode="z"/><glyph d="M45 391v283h59q74 0 117 38t43 144v252q0 152 94.5 239t280.5 87h199v-291h-90q-68 0 -95.5 -33t-27.5 -98v-109q0 -88 -5.5 -136t-23.5 -102.5t-60 -85t-112 -47.5q70 -16 112 -46.5t60 -85t23.5 -102.5t5.5 -136v-107q0 -68 27.5 -99.5t95.5 -31.5h90v-291h-199 q-186 0 -280.5 87t-94.5 239v250q0 106 -43 144t-117 38h-59z" glyph-name="braceleft" horiz-adv-x="911" unicode="{"/><glyph d="M139 1507h277v-1874h-277v1874z" glyph-name="bar" horiz-adv-x="555" unicode="|"/><glyph d="M866 674v-283h-59q-74 0 -117 -38t-43 -144v-250q0 -152 -94 -239t-281 -87h-198v291h90q68 0 95.5 32t27.5 99v107q0 88 5 136t23.5 102.5t60.5 85t111 46.5q-70 16 -111.5 47t-60 85.5t-23.5 102.5t-5 136v109q0 66 -28 98.5t-95 32.5h-90v291h198q186 0 280.5 -87 t94.5 -239v-252q0 -106 43 -144t117 -38h59z" glyph-name="braceright" horiz-adv-x="911" unicode="}"/><glyph d="M365 397h-250q-12 172 50 275.5t187 103.5q113 0 193 -94q8 -10 19 -25.5t17.5 -24.5t14.5 -15.5t14 -6.5q29 0 21 127h248q12 -172 -51.5 -275.5t-186.5 -103.5q-115 0 -192 97q-6 8 -18.5 23.5t-18.5 23.5t-14.5 15t-14.5 7q-30 0 -18 -127z" glyph-name="asciitilde" horiz-adv-x="991" unicode="~"/><glyph glyph-name="uni00A0" horiz-adv-x="460" unicode=" "/><glyph d="M530 -377h-444l96 934h254zM518 879q0 -84 -60.5 -142.5t-146.5 -58.5t-146.5 58.5t-60.5 142.5t60.5 143t146.5 59q84 0 145.5 -59t61.5 -143z" glyph-name="exclamdown" horiz-adv-x="618" unicode="¡"/><glyph d="M465 0v213q-174 41 -280.5 179t-106.5 324.5t106.5 324t280.5 180.5v213h283v-215q129 -33 220 -124t132 -221l-299 -98q-49 160 -197 160q-88 0 -140 -61.5t-52 -157.5t52 -157.5t140 -61.5q147 0 197 159l299 -98q-41 -131 -132 -221t-220 -123v-215h-283z" glyph-name="cent" horiz-adv-x="1165" unicode="¢"/><glyph d="M125 0v270q127 96 151 242h-182v287h129q-76 164 -76 268q0 176 127 283.5t320 107.5q199 0 340 -119.5t141 -349.5v-41h-344v21q0 164 -113 164q-47 0 -76.5 -32t-29.5 -85q0 -25 7 -53.5t14.5 -48t24.5 -59.5t24 -56h303v-287h-269q-20 -100 -98 -188h539v-324h-932z " glyph-name="sterling" horiz-adv-x="1163" unicode="£"/><glyph d="M88 401l150 154q-33 78 -33 162q0 86 35 162l-152 153l221 219l162 -166q68 23 141 23q72 0 140 -23l161 166l224 -217l-152 -155q35 -76 35 -162t-35 -162l152 -154l-222 -219l-163 166q-68 -23 -140 -22q-74 0 -141 22l-162 -166zM479 716.5q0 -61.5 37 -103.5 t96.5 -42t96 41t36.5 104.5t-36.5 104.5t-96 41t-96.5 -42t-37 -103.5z" glyph-name="currency" horiz-adv-x="1224" unicode="¤"/><glyph d="M653 928l199 506h395l-311 -670h215v-232h-313v-83h313v-234h-313v-215h-369v215h-311v234h311v83h-311v232h213l-312 670h398z" glyph-name="yen" horiz-adv-x="1306" unicode="¥"/><glyph d="M139 1507h277v-811h-277v811zM139 438h277v-805h-277v805z" glyph-name="brokenbar" horiz-adv-x="555" unicode="¦"/><glyph d="M94 715q0 139 119 217q-106 86 -107 219q0 143 117 225t312 82q201 0 331.5 -89t130.5 -251v-14h-315v8q0 51 -36 83t-99 32q-51 0 -80 -19.5t-29 -48.5q0 -41 44 -63.5t141 -46.5q90 -23 151.5 -45.5t124 -60.5t95 -94t32.5 -130q0 -137 -119 -217q106 -86 107 -219 q0 -143 -117 -225.5t-311 -82.5q-182 0 -310.5 76t-148.5 217l311 60q4 -55 39 -88t96 -33q53 0 81 19.5t28 47.5q0 41 -44 63.5t-140 47.5q-90 23 -151.5 45.5t-124 60t-95.5 94t-33 130.5zM406 752q0 -16 7 -29.5t22.5 -25t29.5 -19.5t43 -18.5t45 -14.5t52 -14t52 -15 l7 -2q51 25 51 68q0 16 -7.5 30.5t-22.5 26t-29.5 19.5t-42 17t-46 14.5t-52.5 14.5t-52 13l-6 2q-51 -24 -51 -67z" glyph-name="section" horiz-adv-x="1122" unicode="§"/><glyph d="M31 1687.5q0 73.5 50 124t126 50.5t127 -50.5t51 -124t-51 -124t-127 -50.5t-126 50.5t-50 124zM446 1687.5q0 73.5 50.5 124t126 50.5t126 -50.5t50.5 -124t-50.5 -124t-126 -50.5t-126 50.5t-50.5 124z" glyph-name="dieresis" horiz-adv-x="854" unicode="¨"/><glyph d="M965 674l196 -70q-33 -115 -124 -185.5t-216 -70.5q-156 0 -260 105.5t-104 263t104.5 263t259.5 105.5q125 0 216 -70.5t124 -185.5l-196 -69q-37 119 -144 119q-63 0 -103 -48.5t-40 -113.5q0 -68 40 -115t103 -47q107 0 144 119zM78 717q0 305 215 523t518 218 t518 -218t215 -523t-215 -523.5t-518 -218.5t-518 218.5t-215 523.5zM260 716.5q0 -237.5 160 -403.5t391 -166t394 167t163 402.5t-163 402.5t-394 167t-391 -166t-160 -403.5z" glyph-name="copyright" horiz-adv-x="1624" unicode="©"/><glyph d="M193 1163l-93 185q147 86 330 86q367 0 367 -359v-403h-262v69q-86 -84 -201 -84q-113 0 -183.5 65.5t-70.5 178.5q0 117 78 181.5t209 64.5q80 0 168 -33q-6 111 -134 111q-97 -1 -208 -62zM406 840q70 0 129 65v58q-61 29 -111 28q-45 0 -71.5 -21.5t-26.5 -56.5 q0 -73 80 -73z" glyph-name="ordfeminine" horiz-adv-x="907" unicode="ª"/><glyph d="M424 543l197 -297l-236 -168l-330 465l330 465l236 -168zM934 543l196 -297l-235 -168l-330 465l330 465l235 -168z" glyph-name="guillemotleft" horiz-adv-x="1210" unicode="«"/><glyph d="M827 356v308h-731v311h1032v-619h-301z" glyph-name="logicalnot" horiz-adv-x="1257" unicode="¬"/><glyph d="M88 983q0 197 138.5 336t335 139t335.5 -139t139 -336t-140 -336t-334.5 -139t-334 139t-139.5 336zM223 983q0 -143 99.5 -241.5t238.5 -98.5q143 0 240.5 98.5t97.5 241.5t-97 240.5t-241 97.5q-141 0 -239.5 -97.5t-98.5 -240.5zM383 1202h213q82 0 125 -45t43 -115 q0 -98 -76 -141l94 -133h-125l-77 113h-86v-113h-111v434zM586 1104h-92v-125h92q31 0 50 18.5t19 45t-19 44t-50 17.5z" glyph-name="registered" horiz-adv-x="1122" unicode="®"/><glyph d="M664 1829v-277h-615v277h615z" glyph-name="macron" horiz-adv-x="737" unicode="¯"/><glyph d="M63 1087.5q0 153.5 110 262t269 108.5q158 0 268.5 -108.5t110.5 -262t-110.5 -261t-268.5 -107.5q-160 0 -269.5 107.5t-109.5 261zM317 1087.5q0 -57.5 36 -93.5t89.5 -36t89 36t35.5 93.5t-35.5 93.5t-89 36t-89.5 -36t-36 -93.5z" glyph-name="degree" horiz-adv-x="884" unicode="°"/><glyph d="M117 1026h262v277h311v-277h262v-307h-262v-279h-311v279h-262v307zM952 352v-311h-833v311h833z" glyph-name="plusminus" horiz-adv-x="1069" unicode="±"/><glyph d="M705 803v-234h-637v195q369 270 368 393q0 63 -55 64q-70 0 -70 -105v-18h-248v22q0 164 97.5 245t228.5 81q127 0 217 -76t90 -199q0 -182 -213 -368h222z" glyph-name="uni00B2" horiz-adv-x="774" unicode="²"/><glyph d="M43 639l117 203q119 -59 198.5 -59.5t79.5 51.5q0 72 -184 71v180q174 0 174 93q0 61 -59 61q-66 0 -66 -76v-6h-242v27q0 127 92.5 194.5t217.5 67.5t216 -67.5t91 -186.5q0 -123 -109 -188q129 -57 129 -191q0 -117 -90 -187.5t-243 -70.5q-168 0 -322 84z" glyph-name="uni00B3" horiz-adv-x="757" unicode="³"/><glyph d="M381 1497l-242 96l279 406l248 -201z" glyph-name="acute" horiz-adv-x="673" unicode="´"/><glyph d="M512 1057v-588q0 -88 41 -126t96 -38q74 0 128 59.5t54 129.5v563h373v-1057h-373v137q-106 -162 -319 -162v-342h-375v1424h375z" glyph-name="uni00B5" horiz-adv-x="1341" unicode="µ"/><glyph d="M600 0v424h-27q-240 0 -375 145.5t-135 362.5q0 211 135.5 356.5t372.5 145.5h703v-1434h-273v1169h-131v-1169h-270zM348 932q0 -109 58.5 -177.5t175.5 -68.5h18v483h-18q-115 2 -174.5 -67.5t-59.5 -169.5z" glyph-name="paragraph" horiz-adv-x="1423" unicode="¶"/><glyph d="M84 596q0 90 65.5 152.5t157.5 62.5t156.5 -62.5t64.5 -152.5q0 -92 -64.5 -154.5t-156.5 -62.5t-157.5 62.5t-65.5 154.5z" glyph-name="periodcentered" horiz-adv-x="612" unicode="·"/><glyph d="M223 14h152l-31 -96q82 -20 128 -78.5t46 -140.5q0 -96 -70.5 -163.5t-199.5 -67.5q-111 0 -248 57l90 199q86 -41 141 -41q66 0 66 47q0 31 -27.5 46t-76.5 11l-48 68z" glyph-name="cedilla" horiz-adv-x="538" unicode="¸"/><glyph d="M205 569v553l-154 -82v277l217 117h211v-865h-274z" glyph-name="uni00B9" horiz-adv-x="573" unicode="¹"/><glyph d="M66 1044.5q0 165.5 113.5 277.5t283.5 112q172 0 284.5 -112t112.5 -277.5t-112.5 -276.5t-284.5 -111q-170 0 -283.5 111t-113.5 276.5zM334 1044q0 -63 37 -105t92 -42q57 0 93 41t36 106.5t-36 106.5t-93 41t-93 -41t-36 -107z" glyph-name="ordmasculine" horiz-adv-x="925" unicode="º"/><glyph d="M276 545l-196 297l235 168l330 -465l-330 -465l-235 168zM786 545l-196 297l235 168l330 -465l-330 -465l-235 168z" glyph-name="guillemotright" horiz-adv-x="1210" unicode="»"/><glyph d="M459 0h-236l938 1434h238zM225 569v553l-153 -82v277l217 117h211v-865h-275zM1612 0h-244v145h-387v191l190 528h273l-193 -489h117v172l244 74v-246h94v-230h-94v-145z" glyph-name="onequarter" horiz-adv-x="1761" unicode="¼"/><glyph d="M453 0h-236l938 1434h238zM217 569v553l-154 -82v277l218 117h211v-865h-275zM1655 233v-233h-637v195q369 270 368 393q0 63 -55 63q-70 0 -69 -104v-19h-248v23q0 164 97 245t228 81q127 0 217.5 -76t90.5 -199q0 -182 -213 -369h221z" glyph-name="onehalf" horiz-adv-x="1726" unicode="½"/><glyph d="M586 0h-236l938 1434h238zM1739 0h-244v145h-387v191l190 528h273l-193 -489h117v172l244 74v-246h94v-230h-94v-145zM63 639l117 203q119 -59 199 -59.5t80 51.5q0 72 -185 71v180q174 0 175 93q0 61 -60 61q-66 0 -65 -76v-6h-242v27q0 127 92 194.5t217 67.5 t216 -67.5t91 -186.5q0 -123 -108 -188q129 -57 129 -191q0 -117 -90 -187.5t-244 -70.5q-168 0 -322 84z" glyph-name="threequarters" horiz-adv-x="1888" unicode="¾"/><glyph d="M803 879q0 -86 -61.5 -144.5t-149.5 -58.5q-86 0 -146.5 58.5t-60.5 144.5q0 84 61.5 143t145.5 59q88 0 149.5 -59t61.5 -143zM426 569h334v-59q0 -188 -187 -340q-12 -10 -50 -39t-51 -42t-28.5 -37.5t-15.5 -51.5q0 -45 32 -68.5t72 -23.5q70 0 108 49t38 131v8h364 v-37q0 -227 -151.5 -349t-366.5 -122q-199 0 -334 106.5t-135 291.5q0 121 56.5 198.5t164.5 161.5q55 43 81 65.5t47.5 59.5t21.5 78v20z" glyph-name="questiondown" horiz-adv-x="1093" unicode="¿"/><glyph d="M563 1434h424l565 -1434h-417l-76 213h-572l-73 -213h-418zM774 1034l-176 -504h350zM967 1593l-240 -96l-283 301l244 201z" glyph-name="Agrave" horiz-adv-x="1548" unicode="À"/><glyph d="M563 1434h424l565 -1434h-417l-76 213h-572l-73 -213h-418zM774 1034l-176 -504h350zM825 1497l-241 96l278 406l248 -201z" glyph-name="Aacute" horiz-adv-x="1548" unicode="Á"/><glyph d="M563 1434h424l565 -1434h-417l-76 213h-572l-73 -213h-418zM774 1034l-176 -504h350zM1126 1694l-155 -193l-197 129l-196 -129l-156 193l352 241z" glyph-name="Acircumflex" horiz-adv-x="1548" unicode="Â"/><glyph d="M563 1434h424l565 -1434h-417l-76 213h-572l-73 -213h-418zM774 1034l-176 -504h350zM643 1548h-250q-12 172 50.5 275.5t187.5 103.5q113 0 192 -94q8 -10 19.5 -25.5t17.5 -24.5t14.5 -15.5t14.5 -6.5q29 0 20 127h248q12 -172 -51.5 -275.5t-185.5 -103.5 q-115 0 -193 97q-6 8 -18.5 23.5t-18.5 23.5t-14 15t-14 7q-31 0 -19 -127z" glyph-name="Atilde" horiz-adv-x="1548" unicode="Ã"/><glyph d="M563 1434h424l565 -1434h-417l-76 213h-572l-73 -213h-418zM774 1034l-176 -504h350zM389 1687.5q0 73.5 50 124t126 50.5t127 -50.5t51 -124t-51 -124t-127 -50.5t-126 50.5t-50 124zM805 1687.5q0 73.5 50 124t126 50.5t126 -50.5t50 -124t-50 -124t-126 -50.5 t-126 50.5t-50 124z" glyph-name="Adieresis" horiz-adv-x="1548" unicode="Ä"/><glyph d="M563 1434h424l565 -1434h-417l-76 213h-572l-73 -213h-418zM774 1034l-176 -504h350zM506 1759.5q0 110.5 79 187t189.5 76.5t189 -76.5t78.5 -187t-78.5 -187.5t-189 -77t-189.5 77t-79 187.5zM696 1759q0 -33 22.5 -56.5t53.5 -23.5q35 0 57.5 22.5t22.5 57.5 t-22.5 57.5t-57.5 22.5q-31 0 -53.5 -22.5t-22.5 -57.5z" glyph-name="Aring" horiz-adv-x="1548" unicode="Å"/><glyph d="M829 1434h1172v-340h-678v-217h526v-316h-526v-221h678v-340h-1045v217h-426l-116 -217h-445zM702 535h254v466z" glyph-name="AE" horiz-adv-x="2099" unicode="Æ"/><glyph d="M1149 614l371 -114q-61 -215 -230.5 -357.5t-400.5 -162.5l-19 -62q82 -20 128 -78.5t46 -140.5q0 -96 -70.5 -163.5t-199.5 -67.5q-111 0 -248 57l90 199q86 -41 142 -41q66 0 65 47q0 31 -27.5 46t-76.5 11l-47 68l61 125q-287 29 -470 234.5t-183 502.5q0 319 211 530 t528 211q256 0 445.5 -146.5t255.5 -379.5l-371 -113q-39 125 -124 200t-204 75q-147 0 -243.5 -107.5t-96.5 -269.5t96.5 -269.5t243.5 -107.5q119 0 204 74.5t124 199.5z" glyph-name="Ccedilla" horiz-adv-x="1574" unicode="Ç"/><glyph d="M147 0v1434h1135v-340h-754v-217h605v-316h-605v-221h754v-340h-1135zM903 1593l-239 -96l-283 301l244 201z" glyph-name="Egrave" horiz-adv-x="1382" unicode="È"/><glyph d="M147 0v1434h1135v-340h-754v-217h605v-316h-605v-221h754v-340h-1135zM764 1497l-242 96l279 406l248 -201z" glyph-name="Eacute" horiz-adv-x="1382" unicode="É"/><glyph d="M147 0v1434h1135v-340h-754v-217h605v-316h-605v-221h754v-340h-1135zM1067 1694l-156 -193l-196 129l-197 -129l-156 193l353 241z" glyph-name="Ecircumflex" horiz-adv-x="1382" unicode="Ê"/><glyph d="M147 0v1434h1135v-340h-754v-217h605v-316h-605v-221h754v-340h-1135zM330 1687.5q0 73.5 50 124t126 50.5t127 -50.5t51 -124t-51 -124t-127 -50.5t-126 50.5t-50 124zM745 1687.5q0 73.5 50.5 124t126 50.5t126 -50.5t50.5 -124t-50.5 -124t-126 -50.5t-126 50.5 t-50.5 124z" glyph-name="Edieresis" horiz-adv-x="1382" unicode="Ë"/><glyph d="M147 1434h385v-1434h-385v1434zM565 1593l-239 -96l-283 301l244 201z" glyph-name="Igrave" horiz-adv-x="679" unicode="Ì"/><glyph d="M147 1434h385v-1434h-385v1434zM356 1497l-241 96l278 406l248 -201z" glyph-name="Iacute" horiz-adv-x="679" unicode="Í"/><glyph d="M147 1434h385v-1434h-385v1434zM692 1694l-155 -193l-197 129l-197 -129l-155 193l352 241z" glyph-name="Icircumflex" horiz-adv-x="679" unicode="Î"/><glyph d="M147 1434h385v-1434h-385v1434zM-45 1687.5q0 73.5 50 124t126 50.5t127 -50.5t51 -124t-51 -124t-127 -50.5t-126 50.5t-50 124zM371 1687.5q0 73.5 50 124t126 50.5t126 -50.5t50 -124t-50 -124t-126 -50.5t-126 50.5t-50 124z" glyph-name="Idieresis" horiz-adv-x="679" unicode="Ï"/><glyph d="M63 565v303h146v566h657q330 0 520.5 -195t190.5 -522q0 -330 -190.5 -523.5t-520.5 -193.5h-657v565h-146zM891 565h-299v-225h260q158 0 244 101.5t86 275.5t-86 275.5t-244 101.5h-260v-226h299v-303z" glyph-name="Eth" horiz-adv-x="1660" unicode="Ð"/><glyph d="M528 0h-381v1434h388l604 -846v846h381v-1434h-387l-605 844v-844zM698 1548h-249q-12 172 50 275.5t187 103.5q113 0 193 -94q8 -10 19 -25.5t17.5 -24.5t14.5 -15.5t14 -6.5q29 0 21 127h247q12 -172 -51 -275.5t-186 -103.5q-115 0 -193 97q-6 8 -18 23.5t-18.5 23.5 t-14.5 15t-14 7q-31 0 -19 -127z" glyph-name="Ntilde" horiz-adv-x="1665" unicode="Ñ"/><glyph d="M80 716.5q0 319.5 213 530.5t536 211q322 0 535 -211t213 -530.5t-213 -530.5t-535 -211q-324 0 -536.5 211t-212.5 530.5zM481 717q0 -162 98.5 -270.5t249.5 -108.5q150 0 248.5 107.5t98.5 271.5q0 162 -98.5 269.5t-248.5 107.5q-152 0 -250 -107.5t-98 -269.5z M1018 1593l-240 -96l-282 301l243 201z" glyph-name="Ograve" horiz-adv-x="1656" unicode="Ò"/><glyph d="M80 716.5q0 319.5 213 530.5t536 211q322 0 535 -211t213 -530.5t-213 -530.5t-535 -211q-324 0 -536.5 211t-212.5 530.5zM481 717q0 -162 98.5 -270.5t249.5 -108.5q150 0 248.5 107.5t98.5 271.5q0 162 -98.5 269.5t-248.5 107.5q-152 0 -250 -107.5t-98 -269.5z M877 1497l-242 96l278 406l248 -201z" glyph-name="Oacute" horiz-adv-x="1656" unicode="Ó"/><glyph d="M80 716.5q0 319.5 213 530.5t536 211q322 0 535 -211t213 -530.5t-213 -530.5t-535 -211q-324 0 -536.5 211t-212.5 530.5zM481 717q0 -162 98.5 -270.5t249.5 -108.5q150 0 248.5 107.5t98.5 271.5q0 162 -98.5 269.5t-248.5 107.5q-152 0 -250 -107.5t-98 -269.5z M1182 1694l-156 -193l-197 129l-196 -129l-156 193l352 241z" glyph-name="Ocircumflex" horiz-adv-x="1656" unicode="Ô"/><glyph d="M80 716.5q0 319.5 213 530.5t536 211q322 0 535 -211t213 -530.5t-213 -530.5t-535 -211q-324 0 -536.5 211t-212.5 530.5zM481 717q0 -162 98.5 -270.5t249.5 -108.5q150 0 248.5 107.5t98.5 271.5q0 162 -98.5 269.5t-248.5 107.5q-152 0 -250 -107.5t-98 -269.5z M698 1548h-249q-12 172 50 275.5t187 103.5q113 0 193 -94q8 -10 19 -25.5t17.5 -24.5t14.5 -15.5t14 -6.5q29 0 21 127h247q12 -172 -51 -275.5t-186 -103.5q-115 0 -193 97q-6 8 -18 23.5t-18.5 23.5t-14.5 15t-14 7q-31 0 -19 -127z" glyph-name="Otilde" horiz-adv-x="1656" unicode="Õ"/><glyph d="M80 716.5q0 319.5 213 530.5t536 211q322 0 535 -211t213 -530.5t-213 -530.5t-535 -211q-324 0 -536.5 211t-212.5 530.5zM481 717q0 -162 98.5 -270.5t249.5 -108.5q150 0 248.5 107.5t98.5 271.5q0 162 -98.5 269.5t-248.5 107.5q-152 0 -250 -107.5t-98 -269.5z M444 1687.5q0 73.5 50.5 124t126 50.5t127 -50.5t51.5 -124t-51.5 -124t-127 -50.5t-126 50.5t-50.5 124zM860 1687.5q0 73.5 50.5 124t126 50.5t125.5 -50.5t50 -124t-50 -124t-125.5 -50.5t-126 50.5t-50.5 124z" glyph-name="Odieresis" horiz-adv-x="1656" unicode="Ö"/><glyph d="M299 231l-215 213l227 230l-227 231l215 211l225 -227l226 227l217 -211l-230 -231l230 -230l-217 -213l-226 228z" glyph-name="multiply" horiz-adv-x="1050" unicode="×"/><glyph d="M82 717q0 319 213 530t536 211q195 0 365 -88l51 64h297l-162 -205q195 -207 195 -512q0 -319 -212 -530.5t-534 -211.5q-203 0 -366 88l-49 -63h-297l160 203q-197 207 -197 514zM479 717q0 -111 47 -199l437 553q-66 27 -132 27q-154 0 -253 -108.5t-99 -272.5z M1180 717q0 106 -45 196l-437 -553q61 -25 133 -24q152 0 250.5 107.5t98.5 273.5z" glyph-name="Oslash" horiz-adv-x="1658" unicode="Ø"/><glyph d="M1098 1434h383v-779q0 -299 -179.5 -489.5t-499 -190.5t-497.5 190.5t-178 489.5v779h383v-742q0 -358 293 -358q295 0 295 358v742zM993 1593l-239 -96l-283 301l244 201z" glyph-name="Ugrave" horiz-adv-x="1607" unicode="Ù"/><glyph d="M1098 1434h383v-779q0 -299 -179.5 -489.5t-499 -190.5t-497.5 190.5t-178 489.5v779h383v-742q0 -358 293 -358q295 0 295 358v742zM854 1497l-242 96l279 406l248 -201z" glyph-name="Uacute" horiz-adv-x="1607" unicode="Ú"/><glyph d="M1098 1434h383v-779q0 -299 -179.5 -489.5t-499 -190.5t-497.5 190.5t-178 489.5v779h383v-742q0 -358 293 -358q295 0 295 358v742zM1155 1694l-156 -193l-196 129l-197 -129l-155 193l352 241z" glyph-name="Ucircumflex" horiz-adv-x="1607" unicode="Û"/><glyph d="M1098 1434h383v-779q0 -299 -179.5 -489.5t-499 -190.5t-497.5 190.5t-178 489.5v779h383v-742q0 -358 293 -358q295 0 295 358v742zM418 1687.5q0 73.5 50 124t126 50.5t127 -50.5t51 -124t-51 -124t-127 -50.5t-126 50.5t-50 124zM834 1687.5q0 73.5 50 124t125.5 50.5 t126 -50.5t50.5 -124t-50.5 -124t-126 -50.5t-125.5 50.5t-50 124z" glyph-name="Udieresis" horiz-adv-x="1607" unicode="Ü"/><glyph d="M444 1434l312 -566l311 566h457l-578 -934v-500h-383v500l-575 934h456zM807 1497l-242 96l279 406l248 -201z" glyph-name="Yacute" horiz-adv-x="1509" unicode="Ý"/><glyph d="M147 0v1434h381v-162h279q283 0 436.5 -159t153.5 -400.5t-153.5 -399t-436.5 -157.5h-279v-156h-381zM528 489h217q262 0 262.5 223.5t-262.5 223.5h-217v-447z" glyph-name="Thorn" horiz-adv-x="1480" unicode="Þ"/><glyph d="M553 20l70 310q78 -31 127 -31q68 0 103.5 34t35.5 87q0 68 -64.5 116t-218.5 48v286q117 0 171 50.5t54 117.5q0 63 -44 100.5t-111 37.5q-76 0 -131.5 -56.5t-55.5 -175.5v-944h-374v926q0 143 48 254.5t128 179t177 102.5t204 35q213 0 367.5 -125t154.5 -319 q0 -203 -168 -310q223 -117 223 -368q0 -182 -116.5 -291t-323.5 -109q-141 0 -256 45z" glyph-name="germandbls" horiz-adv-x="1320" unicode="ß"/><glyph d="M233 715l-124 254q215 113 442 112q522 0 522 -508v-573h-354v98q-125 -123 -291 -123q-162 0 -260 91.5t-98 250.5q0 168 107.5 261.5t285.5 93.5q135 0 256 -58q0 178 -199 179q-123 0 -287 -78zM537 221q100 0 182 92v105q-84 39 -158 39q-63 0 -101 -32t-38 -91 q0 -51 32 -82t83 -31zM770 1223l-240 -97l-282 301l244 201z" glyph-name="agrave" horiz-adv-x="1173" unicode="à"/><glyph d="M233 715l-124 254q215 113 442 112q522 0 522 -508v-573h-354v98q-125 -123 -291 -123q-162 0 -260 91.5t-98 250.5q0 168 107.5 261.5t285.5 93.5q135 0 256 -58q0 178 -199 179q-123 0 -287 -78zM537 221q100 0 182 92v105q-84 39 -158 39q-63 0 -101 -32t-38 -91 q0 -51 32 -82t83 -31zM643 1126l-242 97l279 405l248 -201z" glyph-name="aacute" horiz-adv-x="1173" unicode="á"/><glyph d="M233 715l-124 254q215 113 442 112q522 0 522 -508v-573h-354v98q-125 -123 -291 -123q-162 0 -260 91.5t-98 250.5q0 168 107.5 261.5t285.5 93.5q135 0 256 -58q0 178 -199 179q-123 0 -287 -78zM537 221q100 0 182 92v105q-84 39 -158 39q-63 0 -101 -32t-38 -91 q0 -51 32 -82t83 -31zM944 1323l-156 -193l-196 130l-197 -130l-155 193l352 242z" glyph-name="acircumflex" horiz-adv-x="1173" unicode="â"/><glyph d="M233 715l-124 254q215 113 442 112q522 0 522 -508v-573h-354v98q-125 -123 -291 -123q-162 0 -260 91.5t-98 250.5q0 168 107.5 261.5t285.5 93.5q135 0 256 -58q0 178 -199 179q-123 0 -287 -78zM537 221q100 0 182 92v105q-84 39 -158 39q-63 0 -101 -32t-38 -91 q0 -51 32 -82t83 -31zM459 1178h-250q-12 172 50.5 275t186.5 103q113 0 193 -94q8 -10 19.5 -25.5t17.5 -24.5t14 -15t15 -6q29 0 20 127h248q12 -172 -51.5 -275.5t-186.5 -103.5q-115 0 -192 96q-6 8 -18.5 23.5t-18.5 23.5t-14.5 15.5t-14.5 7.5q-30 0 -18 -127z" glyph-name="atilde" horiz-adv-x="1173" unicode="ã"/><glyph d="M233 715l-124 254q215 113 442 112q522 0 522 -508v-573h-354v98q-125 -123 -291 -123q-162 0 -260 91.5t-98 250.5q0 168 107.5 261.5t285.5 93.5q135 0 256 -58q0 178 -199 179q-123 0 -287 -78zM537 221q100 0 182 92v105q-84 39 -158 39q-63 0 -101 -32t-38 -91 q0 -51 32 -82t83 -31zM207 1317q0 74 50 124t126 50t127 -50t51 -124t-51 -124t-127 -50t-126 50t-50 124zM623 1317q0 74 50 124t125.5 50t126 -50t50.5 -124t-50.5 -124t-126 -50t-125.5 50t-50 124z" glyph-name="adieresis" horiz-adv-x="1173" unicode="ä"/><glyph d="M233 715l-124 254q215 113 442 112q522 0 522 -508v-573h-354v98q-125 -123 -291 -123q-162 0 -260 91.5t-98 250.5q0 168 107.5 261.5t285.5 93.5q135 0 256 -58q0 178 -199 179q-123 0 -287 -78zM537 221q100 0 182 92v105q-84 39 -158 39q-63 0 -101 -32t-38 -91 q0 -51 32 -82t83 -31zM324 1388.5q0 110.5 78.5 187.5t189 77t189.5 -77t79 -187.5t-79 -187.5t-189.5 -77t-189 77t-78.5 187.5zM514 1389q0 -33 22.5 -56.5t53.5 -23.5q33 0 56.5 23.5t23.5 56.5q0 35 -22.5 57t-57.5 22q-31 0 -53.5 -22t-22.5 -57z" glyph-name="aring" horiz-adv-x="1173" unicode="å"/><glyph d="M1559 352l165 -225q-174 -152 -432 -152q-260 0 -422 156q-203 -156 -413 -156q-176 0 -281.5 90.5t-105.5 251.5q0 166 107.5 260.5t285.5 94.5q135 0 256 -58q0 178 -199 179q-123 0 -287 -78l-124 254q215 113 442 112q240 0 371 -110q143 111 333 110 q233 0 380 -152.5t147 -359.5q0 -76 -21 -149h-669q51 -156 225 -156q131 0 242 88zM539 221q119 0 209 101q-12 31 -25 96q-84 39 -162 39q-63 0 -101 -32t-38 -91q0 -51 32 -82t85 -31zM1260 799q-150 0 -181 -176h355q-10 80 -54 128t-120 48z" glyph-name="ae" horiz-adv-x="1849" unicode="æ"/><glyph d="M823 465l326 -105q-49 -156 -168 -258t-285 -122l-18 -62q82 -20 128 -78.5t46 -140.5q0 -96 -70.5 -163.5t-199.5 -67.5q-111 0 -248 57l90 199q86 -41 141 -41q66 0 66 47q0 31 -28 46t-77 11l-47 68l62 127q-207 29 -338 179t-131 365q0 240 156.5 397.5t396.5 157.5 q190 0 330.5 -105.5t193.5 -279.5l-326 -106q-53 164 -198 164q-90 0 -143.5 -63.5t-53.5 -164.5q0 -98 53.5 -160.5t143.5 -62.5q147 0 198 162z" glyph-name="ccedilla" horiz-adv-x="1196" unicode="ç"/><glyph d="M918 352l165 -225q-174 -152 -434 -152q-264 0 -420.5 157t-156.5 396q0 238 154.5 395.5t387.5 157.5q231 0 379 -152.5t148 -359.5q0 -76 -21 -149h-669q51 -156 225 -156q131 0 242 88zM618 799q-150 0 -180 -176h353q-10 80 -53.5 128t-119.5 48zM803 1223l-240 -97 l-282 301l243 201z" glyph-name="egrave" horiz-adv-x="1208" unicode="è"/><glyph d="M918 352l165 -225q-174 -152 -434 -152q-264 0 -420.5 157t-156.5 396q0 238 154.5 395.5t387.5 157.5q231 0 379 -152.5t148 -359.5q0 -76 -21 -149h-669q51 -156 225 -156q131 0 242 88zM618 799q-150 0 -180 -176h353q-10 80 -53.5 128t-119.5 48zM666 1126l-242 97 l278 405l248 -201z" glyph-name="eacute" horiz-adv-x="1208" unicode="é"/><glyph d="M918 352l165 -225q-174 -152 -434 -152q-264 0 -420.5 157t-156.5 396q0 238 154.5 395.5t387.5 157.5q231 0 379 -152.5t148 -359.5q0 -76 -21 -149h-669q51 -156 225 -156q131 0 242 88zM618 799q-150 0 -180 -176h353q-10 80 -53.5 128t-119.5 48zM967 1323l-156 -193 l-197 130l-196 -130l-156 193l352 242z" glyph-name="ecircumflex" horiz-adv-x="1208" unicode="ê"/><glyph d="M918 352l165 -225q-174 -152 -434 -152q-264 0 -420.5 157t-156.5 396q0 238 154.5 395.5t387.5 157.5q231 0 379 -152.5t148 -359.5q0 -76 -21 -149h-669q51 -156 225 -156q131 0 242 88zM618 799q-150 0 -180 -176h353q-10 80 -53.5 128t-119.5 48zM229 1317 q0 74 50.5 124t126 50t127 -50t51.5 -124t-51.5 -124t-127 -50t-126 50t-50.5 124zM645 1317q0 74 50 124t126 50t126 -50t50 -124t-50 -124t-126 -50t-126 50t-50 124z" glyph-name="edieresis" horiz-adv-x="1208" unicode="ë"/><glyph d="M115 0v1057h374v-1057h-374zM526 1223l-239 -97l-283 301l244 201z" glyph-name="igrave" horiz-adv-x="604" unicode="ì"/><glyph d="M115 0v1057h374v-1057h-374zM317 1126l-241 97l278 405l248 -201z" glyph-name="iacute" horiz-adv-x="604" unicode="í"/><glyph d="M115 0v1057h374v-1057h-374zM653 1321l-155 -193l-197 129l-197 -129l-155 193l352 242z" glyph-name="icircumflex" horiz-adv-x="604" unicode="î"/><glyph d="M115 0v1057h374v-1057h-374zM-82 1315q0 74 50 124t126 50t127 -50t51 -124t-51 -124t-127 -50t-126 50t-50 124zM334 1315q0 74 50 124t126 50t126 -50t50 -124t-50 -124t-126 -50t-126 50t-50 124z" glyph-name="idieresis" horiz-adv-x="604" unicode="ï"/><glyph d="M348 1235l-155 199h448l53 -74l189 70l73 -185l-141 -51l154 -213q96 -133 147 -245.5t51 -239.5q0 -221 -158.5 -371t-392 -150t-390 148.5t-156.5 380.5q0 213 131 346t317 133q18 0 29 -2l-70 88l-188 -68l-74 185zM616 696q-84 0 -138 -55t-54 -141 q0 -84 55.5 -139.5t139 -55.5t137 54.5t53.5 140.5t-55.5 141t-137.5 55z" glyph-name="eth" horiz-adv-x="1236" unicode="ð"/><glyph d="M809 0v592q0 88 -40 124t-95 36q-76 0 -130.5 -59.5t-54.5 -129.5v-563h-374v1057h374v-137q109 162 322 161q170 0 270.5 -107.5t100.5 -332.5v-641h-373zM516 1178h-250q-12 172 50.5 275t187.5 103q113 0 192 -94q8 -10 19.5 -25.5t17.5 -24.5t14.5 -15t14.5 -6 q29 0 20 127h248q12 -172 -51.5 -275.5t-185.5 -103.5q-115 0 -193 96q-6 8 -18.5 23.5t-18.5 23.5t-14 15.5t-14 7.5q-31 0 -19 -127z" glyph-name="ntilde" horiz-adv-x="1286" unicode="ñ"/><glyph d="M72 526q0 240 158.5 397.5t402.5 157.5q242 0 400.5 -157.5t158.5 -397.5q0 -238 -159 -394.5t-400 -156.5q-244 0 -402.5 156.5t-158.5 394.5zM432 526q0 -98 55.5 -160.5t145.5 -62.5q88 0 142 62.5t54 160.5q0 100 -54 164t-142 64q-90 0 -145.5 -64t-55.5 -164z M821 1223l-239 -97l-283 301l244 201z" glyph-name="ograve" horiz-adv-x="1261" unicode="ò"/><glyph d="M72 526q0 240 158.5 397.5t402.5 157.5q242 0 400.5 -157.5t158.5 -397.5q0 -238 -159 -394.5t-400 -156.5q-244 0 -402.5 156.5t-158.5 394.5zM432 526q0 -98 55.5 -160.5t145.5 -62.5q88 0 142 62.5t54 160.5q0 100 -54 164t-142 64q-90 0 -145.5 -64t-55.5 -164z M682 1126l-242 97l279 405l248 -201z" glyph-name="oacute" horiz-adv-x="1261" unicode="ó"/><glyph d="M72 526q0 240 158.5 397.5t402.5 157.5q242 0 400.5 -157.5t158.5 -397.5q0 -238 -159 -394.5t-400 -156.5q-244 0 -402.5 156.5t-158.5 394.5zM432 526q0 -98 55.5 -160.5t145.5 -62.5q88 0 142 62.5t54 160.5q0 100 -54 164t-142 64q-90 0 -145.5 -64t-55.5 -164z M985 1323l-156 -193l-196 130l-197 -130l-155 193l352 242z" glyph-name="ocircumflex" horiz-adv-x="1261" unicode="ô"/><glyph d="M72 526q0 240 158.5 397.5t402.5 157.5q242 0 400.5 -157.5t158.5 -397.5q0 -238 -159 -394.5t-400 -156.5q-244 0 -402.5 156.5t-158.5 394.5zM432 526q0 -98 55.5 -160.5t145.5 -62.5q88 0 142 62.5t54 160.5q0 100 -54 164t-142 64q-90 0 -145.5 -64t-55.5 -164z M500 1178h-250q-12 172 50 275t187 103q113 0 193 -94q8 -10 19.5 -25.5t17.5 -24.5t14 -15t14 -6q29 0 21 127h248q12 -172 -51.5 -275.5t-186.5 -103.5q-115 0 -192 96q-6 8 -18.5 23.5t-18.5 23.5t-14.5 15.5t-14.5 7.5q-30 0 -18 -127z" glyph-name="otilde" horiz-adv-x="1261" unicode="õ"/><glyph d="M72 526q0 240 158.5 397.5t402.5 157.5q242 0 400.5 -157.5t158.5 -397.5q0 -238 -159 -394.5t-400 -156.5q-244 0 -402.5 156.5t-158.5 394.5zM432 526q0 -98 55.5 -160.5t145.5 -62.5q88 0 142 62.5t54 160.5q0 100 -54 164t-142 64q-90 0 -145.5 -64t-55.5 -164z M248 1317q0 74 50 124t126 50t127 -50t51 -124t-51 -124t-127 -50t-126 50t-50 124zM664 1317q0 74 50 124t125.5 50t126 -50t50.5 -124t-50.5 -124t-126 -50t-125.5 50t-50 124z" glyph-name="odieresis" horiz-adv-x="1261" unicode="ö"/><glyph d="M920 827v-311h-832v311h832zM328 1075q0 74 50 124t126 50t126 -50t50 -124q0 -76 -50 -125t-126 -49t-126 49t-50 125zM328 268q0 74 50 124t126 50t126 -50t50 -124q0 -76 -50 -125t-126 -49t-126 49t-50 125z" glyph-name="divide" horiz-adv-x="1005" unicode="÷"/><glyph d="M72 526q0 240 159.5 397.5t401.5 157.5q147 0 270 -63l31 39h231l-116 -150q143 -154 143 -381q0 -238 -159 -394.5t-400 -156.5q-147 0 -271 62l-30 -37h-230l115 145q-145 156 -145 381zM412 526q0 -63 18 -108l275 346q-33 12 -72 12q-98 0 -159.5 -69.5t-61.5 -180.5 zM852 526q0 59 -18 109l-273 -344q37 -10 72 -10q100 0 159.5 68t59.5 177z" glyph-name="oslash" horiz-adv-x="1263" unicode="ø"/><glyph d="M477 1057v-592q0 -88 40 -124t95 -36q76 0 130.5 59.5t54.5 129.5v563h374v-1057h-374v137q-109 -162 -322 -162q-170 0 -270.5 107.5t-100.5 333.5v641h373zM827 1223l-239 -97l-283 301l244 201z" glyph-name="ugrave" horiz-adv-x="1286" unicode="ù"/><glyph d="M477 1057v-592q0 -88 40 -124t95 -36q76 0 130.5 59.5t54.5 129.5v563h374v-1057h-374v137q-109 -162 -322 -162q-170 0 -270.5 107.5t-100.5 333.5v641h373zM688 1126l-242 97l279 405l248 -201z" glyph-name="uacute" horiz-adv-x="1286" unicode="ú"/><glyph d="M477 1057v-592q0 -88 40 -124t95 -36q76 0 130.5 59.5t54.5 129.5v563h374v-1057h-374v137q-109 -162 -322 -162q-170 0 -270.5 107.5t-100.5 333.5v641h373zM989 1323l-155 -193l-197 130l-197 -130l-155 193l352 242z" glyph-name="ucircumflex" horiz-adv-x="1286" unicode="û"/><glyph d="M477 1057v-592q0 -88 40 -124t95 -36q76 0 130.5 59.5t54.5 129.5v563h374v-1057h-374v137q-109 -162 -322 -162q-170 0 -270.5 107.5t-100.5 333.5v641h373zM252 1317q0 74 50 124t126 50t127 -50t51 -124t-51 -124t-127 -50t-126 50t-50 124zM668 1317q0 74 50 124 t126 50t126 -50t50 -124t-50 -124t-126 -50t-126 50t-50 124z" glyph-name="udieresis" horiz-adv-x="1286" unicode="ü"/><glyph d="M217 -440l-135 325q205 74 305 152l-375 1020h396l194 -662l201 662h395l-315 -848q-53 -143 -119 -251t-125 -171t-140 -111.5t-137.5 -68.5t-144.5 -47zM659 1126l-241 97l278 405l248 -201z" glyph-name="yacute" horiz-adv-x="1208" unicode="ý"/><glyph d="M489 1434v-498q106 145 302 145q209 0 332.5 -156.5t123.5 -396t-124 -396.5t-332 -157q-197 0 -302 144v-486h-374v1801h374zM479 528.5q0 -100.5 55.5 -163t143.5 -62.5q90 0 145.5 62.5t55.5 163t-55.5 163t-145.5 62.5q-88 0 -143.5 -62.5t-55.5 -163z" glyph-name="thorn" horiz-adv-x="1320" unicode="þ"/><glyph d="M217 -440l-135 325q205 74 305 152l-375 1020h396l194 -662l201 662h395l-315 -848q-53 -143 -119 -251t-125 -171t-140 -111.5t-137.5 -68.5t-144.5 -47zM223 1317q0 74 50.5 124t126 50t127 -50t51.5 -124t-51.5 -124t-127 -50t-126 50t-50.5 124zM639 1317 q0 74 50 124t126 50t126 -50t50 -124t-50 -124t-126 -50t-126 50t-50 124z" glyph-name="ydieresis" horiz-adv-x="1208" unicode="ÿ"/><glyph d="M563 1434h424l565 -1434h-417l-76 213h-572l-73 -213h-418zM774 1034l-176 -504h350zM1079 1829v-277h-614v277h614z" glyph-name="Amacron" horiz-adv-x="1548" unicode="Ā"/><glyph d="M233 715l-124 254q215 113 442 112q522 0 522 -508v-573h-354v98q-125 -123 -291 -123q-162 0 -260 91.5t-98 250.5q0 168 107.5 261.5t285.5 93.5q135 0 256 -58q0 178 -199 179q-123 0 -287 -78zM537 221q100 0 182 92v105q-84 39 -158 39q-63 0 -101 -32t-38 -91 q0 -51 32 -82t83 -31zM897 1458v-276h-614v276h614z" glyph-name="amacron" horiz-adv-x="1173" unicode="ā"/><glyph d="M563 1434h424l565 -1434h-417l-76 213h-572l-73 -213h-418zM774 1034l-176 -504h350zM881 1888l235 -71q-35 -135 -124 -217t-218 -82t-218 82.5t-122 216.5l234 71q31 -117 106 -116q80 -1 107 116z" glyph-name="Abreve" horiz-adv-x="1548" unicode="Ă"/><glyph d="M233 715l-124 254q215 113 442 112q522 0 522 -508v-573h-354v98q-125 -123 -291 -123q-162 0 -260 91.5t-98 250.5q0 168 107.5 261.5t285.5 93.5q135 0 256 -58q0 178 -199 179q-123 0 -287 -78zM537 221q100 0 182 92v105q-84 39 -158 39q-63 0 -101 -32t-38 -91 q0 -51 32 -82t83 -31zM698 1518l236 -72q-35 -135 -124 -217t-218 -82t-218 83t-122 216l233 72q31 -117 107 -117q79 0 106 117z" glyph-name="abreve" horiz-adv-x="1173" unicode="ă"/><glyph d="M563 1434h424l565 -1434q-170 -135 -170 -233q0 -59 64 -60q20 0 55 10l47 -235q-53 -18 -123 -19q-119 0 -193.5 59.5t-74.5 164.5q0 170 207 313h-229l-76 213h-572l-73 -213h-418zM774 1034l-176 -504h350z" glyph-name="Aogonek" horiz-adv-x="1548" unicode="Ą"/><glyph d="M233 715l-124 254q215 113 442 112q522 0 522 -508v-573q-170 -135 -170 -233q0 -59 64 -60q20 0 55 10l47 -235q-53 -18 -123 -19q-119 0 -193.5 59.5t-74.5 164.5q0 170 207 313h-166v98q-125 -123 -291 -123q-162 0 -260 91.5t-98 250.5q0 168 107.5 261.5t285.5 93.5 q135 0 256 -58q0 178 -199 179q-123 0 -287 -78zM537 221q100 0 182 92v105q-84 39 -158 39q-63 0 -101 -32t-38 -91q0 -51 32 -82t83 -31z" glyph-name="aogonek" horiz-adv-x="1173" unicode="ą"/><glyph d="M1149 614l371 -114q-66 -231 -255.5 -378t-445.5 -147q-317 0 -528 211t-211 530.5t211 530.5t528 211q256 0 445.5 -146.5t255.5 -379.5l-371 -113q-39 125 -124 200t-204 75q-147 0 -243.5 -107.5t-96.5 -269.5t96.5 -269.5t243.5 -107.5q119 0 204 74.5t124 199.5z M870 1497l-241 96l278 406l248 -201z" glyph-name="Cacute" horiz-adv-x="1574" unicode="Ć"/><glyph d="M823 465l326 -105q-53 -172 -193.5 -278.5t-330.5 -106.5q-240 0 -396.5 158t-156.5 393q0 240 156.5 397.5t396.5 157.5q190 0 330.5 -105.5t193.5 -279.5l-326 -106q-53 164 -198 164q-90 0 -143.5 -63.5t-53.5 -164.5q0 -98 53.5 -160.5t143.5 -62.5q147 0 198 162z M674 1126l-242 97l279 405l247 -201z" glyph-name="cacute" horiz-adv-x="1196" unicode="ć"/><glyph d="M1149 614l371 -114q-66 -231 -255.5 -378t-445.5 -147q-317 0 -528 211t-211 530.5t211 530.5t528 211q256 0 445.5 -146.5t255.5 -379.5l-371 -113q-39 125 -124 200t-204 75q-147 0 -243.5 -107.5t-96.5 -269.5t96.5 -269.5t243.5 -107.5q119 0 204 74.5t124 199.5z M643 1687.5q0 73.5 50 124t126 50.5t127 -50.5t51 -124t-51 -124t-127 -50.5t-126 50.5t-50 124z" glyph-name="Cdotaccent" horiz-adv-x="1574" unicode="Ċ"/><glyph d="M823 465l326 -105q-53 -172 -193.5 -278.5t-330.5 -106.5q-240 0 -396.5 158t-156.5 393q0 240 156.5 397.5t396.5 157.5q190 0 330.5 -105.5t193.5 -279.5l-326 -106q-53 164 -198 164q-90 0 -143.5 -63.5t-53.5 -164.5q0 -98 53.5 -160.5t143.5 -62.5q147 0 198 162z M449 1317q0 74 50 124t125.5 50t127 -50t51.5 -124t-51.5 -124t-127 -50t-125.5 50t-50 124z" glyph-name="cdotaccent" horiz-adv-x="1196" unicode="ċ"/><glyph d="M1149 614l371 -114q-66 -231 -255.5 -378t-445.5 -147q-317 0 -528 211t-211 530.5t211 530.5t528 211q256 0 445.5 -146.5t255.5 -379.5l-371 -113q-39 125 -124 200t-204 75q-147 0 -243.5 -107.5t-96.5 -269.5t96.5 -269.5t243.5 -107.5q119 0 204 74.5t124 199.5z M1016 1931l155 -192l-352 -242l-352 242l156 192l196 -129z" glyph-name="Ccaron" horiz-adv-x="1574" unicode="Č"/><glyph d="M823 465l326 -105q-53 -172 -193.5 -278.5t-330.5 -106.5q-240 0 -396.5 158t-156.5 393q0 240 156.5 397.5t396.5 157.5q190 0 330.5 -105.5t193.5 -279.5l-326 -106q-53 164 -198 164q-90 0 -143.5 -63.5t-53.5 -164.5q0 -98 53.5 -160.5t143.5 -62.5q147 0 198 162z M823 1561l156 -193l-352 -242l-353 242l156 193l197 -129z" glyph-name="ccaron" horiz-adv-x="1196" unicode="č"/><glyph d="M147 0v1434h658q330 0 520.5 -195t190.5 -522q0 -330 -191.5 -523.5t-519.5 -193.5h-658zM788 1094h-260v-754h260q158 0 244 101.5t86 275.5t-86 275.5t-244 101.5zM985 1931l156 -192l-353 -242l-352 242l156 192l196 -129z" glyph-name="Dcaron" horiz-adv-x="1599" unicode="Ď"/><glyph d="M834 1434h372v-1434h-372v123q-104 -147 -302 -148q-211 0 -334.5 157t-123.5 394q0 242 124 398.5t334 156.5q195 0 302 -147v500zM842 526q0 102 -55.5 165t-143.5 63q-90 0 -145.5 -63.5t-55.5 -164.5q0 -98 56.5 -160.5t144.5 -62.5t143.5 62.5t55.5 160.5zM1419 856 l-114 109q137 109 145 184q-66 -10 -122 35t-56 114q0 63 45 111.5t123 48.5q80 0 133 -55t53 -162q0 -119 -62.5 -218t-144.5 -167z" glyph-name="dcaron" horiz-adv-x="1589" unicode="ď"/><glyph d="M63 565v303h146v566h657q330 0 520.5 -195t190.5 -522q0 -330 -190.5 -523.5t-520.5 -193.5h-657v565h-146zM891 565h-299v-225h260q158 0 244 101.5t86 275.5t-86 275.5t-244 101.5h-260v-226h299v-303z" glyph-name="Dcroat" horiz-adv-x="1660" unicode="Đ"/><glyph d="M834 1339v95h372v-95h129v-211h-129v-1128h-372v123q-104 -147 -302 -148q-211 0 -334.5 157t-123.5 394q0 242 124 398.5t334 156.5q195 0 302 -147v194h-244v211h244zM842 526q0 102 -55.5 165t-143.5 63q-90 0 -145.5 -63.5t-55.5 -164.5q0 -98 56.5 -160.5 t144.5 -62.5t143.5 62.5t55.5 160.5z" glyph-name="dcroat" horiz-adv-x="1329" unicode="đ"/><glyph d="M147 0v1434h1135v-340h-754v-217h605v-316h-605v-221h754v-340h-1135zM1022 1829v-277h-614v277h614z" glyph-name="Emacron" horiz-adv-x="1382" unicode="Ē"/><glyph d="M918 352l165 -225q-174 -152 -434 -152q-264 0 -420.5 157t-156.5 396q0 238 154.5 395.5t387.5 157.5q231 0 379 -152.5t148 -359.5q0 -76 -21 -149h-669q51 -156 225 -156q131 0 242 88zM618 799q-150 0 -180 -176h353q-10 80 -53.5 128t-119.5 48zM920 1458v-276h-615 v276h615z" glyph-name="emacron" horiz-adv-x="1208" unicode="ē"/><glyph d="M147 0v1434h1135v-340h-754v-217h605v-316h-605v-221h754v-340h-1135zM537 1687.5q0 73.5 50 124t125.5 50.5t127 -50.5t51.5 -124t-51.5 -124t-127 -50.5t-125.5 50.5t-50 124z" glyph-name="Edotaccent" horiz-adv-x="1382" unicode="Ė"/><glyph d="M918 352l165 -225q-174 -152 -434 -152q-264 0 -420.5 157t-156.5 396q0 238 154.5 395.5t387.5 157.5q231 0 379 -152.5t148 -359.5q0 -76 -21 -149h-669q51 -156 225 -156q131 0 242 88zM618 799q-150 0 -180 -176h353q-10 80 -53.5 128t-119.5 48zM436 1317 q0 74 50.5 124t126 50t127 -50t51.5 -124t-51.5 -124t-127 -50t-126 50t-50.5 124z" glyph-name="edotaccent" horiz-adv-x="1208" unicode="ė"/><glyph d="M147 0v1434h1135v-340h-754v-217h605v-316h-605v-221h754v-340q-170 -135 -170 -233q0 -59 64 -60q20 0 55 10l47 -235q-53 -18 -123 -19q-119 0 -193.5 59.5t-74.5 164.5q0 170 207 313h-947z" glyph-name="Eogonek" horiz-adv-x="1382" unicode="Ę"/><glyph d="M918 350l165 -223q-68 -57 -155 -96q-211 -158 -211 -264q0 -59 61 -60q20 0 56 10l47 -235q-53 -18 -121 -19q-121 0 -196 59.5t-75 164.5q0 152 179 288h-19q-264 0 -420.5 157t-156.5 396q0 238 154.5 395.5t387.5 157.5q231 0 379 -152.5t148 -359.5q0 -76 -21 -149 h-669q51 -156 225 -156q136 0 242 86zM618 799q-150 0 -180 -176h353q-10 80 -53.5 128t-119.5 48z" glyph-name="eogonek" horiz-adv-x="1208" unicode="ę"/><glyph d="M147 0v1434h1135v-340h-754v-217h605v-316h-605v-221h754v-340h-1135zM911 1931l156 -192l-352 -242l-353 242l156 192l197 -129z" glyph-name="Ecaron" horiz-adv-x="1382" unicode="Ě"/><glyph d="M918 352l165 -225q-174 -152 -434 -152q-264 0 -420.5 157t-156.5 396q0 238 154.5 395.5t387.5 157.5q231 0 379 -152.5t148 -359.5q0 -76 -21 -149h-669q51 -156 225 -156q131 0 242 88zM618 799q-150 0 -180 -176h353q-10 80 -53.5 128t-119.5 48zM811 1561l156 -193 l-353 -242l-352 242l156 193l196 -129z" glyph-name="ecaron" horiz-adv-x="1208" unicode="ě"/><glyph d="M778 543v282h746v-825h-273v217q-145 -242 -463 -242q-315 0 -510.5 211t-195.5 530.5t212 530.5t533 211q199 0 354.5 -87t258.5 -238l-307 -207q-117 176 -304 176q-152 0 -249 -109.5t-97 -275.5q0 -168 93.5 -276.5t240.5 -108.5q90 0 172 51t129 160h-340zM934 1888 l235 -71q-35 -135 -124 -217t-218 -82t-218 82.5t-122 216.5l234 71q31 -117 106 -116q80 -1 107 116z" glyph-name="Gbreve" horiz-adv-x="1630" unicode="Ğ"/><glyph d="M74 561q0 227 117.5 373.5t314.5 146.5q190 0 305 -149v125h373v-871q0 -311 -148.5 -456.5t-404.5 -145.5q-303 0 -531 172l164 264q193 -129 334 -129q109 0 161 64.5t52 171.5v63q-111 -147 -305 -147q-197 0 -314.5 145.5t-117.5 372.5zM442 561q0 -88 52.5 -144.5 t136.5 -56.5t135 56.5t51 144.5t-51 144.5t-135 56.5t-136.5 -56.5t-52.5 -144.5zM756 1518l235 -72q-35 -135 -124 -217t-218 -82t-218 83t-122 216l234 72q31 -117 106 -117q80 0 107 117z" glyph-name="gbreve" horiz-adv-x="1296" unicode="ğ"/><glyph d="M778 543v282h746v-825h-273v217q-145 -242 -463 -242q-315 0 -510.5 211t-195.5 530.5t212 530.5t533 211q199 0 354.5 -87t258.5 -238l-307 -207q-117 176 -304 176q-152 0 -249 -109.5t-97 -275.5q0 -168 93.5 -276.5t240.5 -108.5q90 0 172 51t129 160h-340z M651 1687.5q0 73.5 50.5 124t126 50.5t127 -50.5t51.5 -124t-51.5 -124t-127 -50.5t-126 50.5t-50.5 124z" glyph-name="Gdotaccent" horiz-adv-x="1630" unicode="Ġ"/><glyph d="M74 561q0 227 117.5 373.5t314.5 146.5q190 0 305 -149v125h373v-871q0 -311 -148.5 -456.5t-404.5 -145.5q-303 0 -531 172l164 264q193 -129 334 -129q109 0 161 64.5t52 171.5v63q-111 -147 -305 -147q-197 0 -314.5 145.5t-117.5 372.5zM442 561q0 -88 52.5 -144.5 t136.5 -56.5t135 56.5t51 144.5t-51 144.5t-135 56.5t-136.5 -56.5t-52.5 -144.5zM473 1317q0 74 50 124t126 50t127 -50t51 -124t-51 -124t-127 -50t-126 50t-50 124z" glyph-name="gdotaccent" horiz-adv-x="1296" unicode="ġ"/><glyph d="M778 543v282h746v-825h-273v217q-145 -242 -463 -242q-315 0 -510.5 211t-195.5 530.5t212 530.5t533 211q199 0 354.5 -87t258.5 -238l-307 -207q-117 176 -304 176q-152 0 -249 -109.5t-97 -275.5q0 -168 93.5 -276.5t240.5 -108.5q90 0 172 51t129 160h-340zM795 -694 l-115 108q137 109 145 185q-66 -10 -122 34.5t-56 114.5q0 63 45 111.5t123 48.5q80 0 133 -55.5t53 -161.5q0 -119 -62 -218t-144 -167z" glyph-name="Gcommaaccent" horiz-adv-x="1630" unicode="Ģ"/><glyph d="M74 561q0 227 117.5 373.5t314.5 146.5q190 0 305 -149v125h373v-871q0 -311 -148.5 -456.5t-404.5 -145.5q-303 0 -531 172l164 264q193 -129 334 -129q109 0 161 64.5t52 171.5v63q-111 -147 -305 -147q-197 0 -314.5 145.5t-117.5 372.5zM442 561q0 -88 52.5 -144.5 t136.5 -56.5t135 56.5t51 144.5t-51 144.5t-135 56.5t-136.5 -56.5t-52.5 -144.5zM639 -1073l-115 108q137 109 146 185q-66 -10 -122 35t-56 114q0 63 45 111.5t122 48.5q80 0 133.5 -55.5t53.5 -161.5q0 -119 -62.5 -218t-144.5 -167z" glyph-name="gcommaaccent" horiz-adv-x="1296" unicode="ģ"/><glyph d="M1149 1434h381v-156h96v-236h-96v-1042h-381v547h-606v-547h-381v1042h-99v236h99v156h381v-156h606v156zM543 887h606v155h-606v-155z" glyph-name="Hbar" horiz-adv-x="1691" unicode="Ħ"/><glyph d="M-6 1128v211h127v95h375v-95h243v-211h-243v-208q109 162 321 161q170 0 270.5 -107.5t100.5 -332.5v-641h-373v592q0 88 -40 124t-95 36q-76 0 -130 -59.5t-54 -129.5v-563h-375v1128h-127z" glyph-name="hbar" horiz-adv-x="1292" unicode="ħ"/><glyph d="M147 1434h385v-1434h-385v1434zM209 1548h-250q-12 172 50.5 275.5t187.5 103.5q113 0 192 -94q8 -10 19.5 -25.5t17.5 -24.5t14.5 -15.5t14.5 -6.5q29 0 20 127h248q12 -172 -51.5 -275.5t-186.5 -103.5q-115 0 -192 97q-6 8 -18.5 23.5t-18.5 23.5t-14.5 15t-14.5 7 q-30 0 -18 -127z" glyph-name="Itilde" horiz-adv-x="679" unicode="Ĩ"/><glyph d="M115 0v1057h374v-1057h-374zM170 1178h-250q-12 172 50.5 275t187.5 103q113 0 192 -94q8 -10 19.5 -25.5t17.5 -24.5t14.5 -15t14.5 -6q29 0 20 127h248q12 -172 -51.5 -275.5t-186.5 -103.5q-115 0 -192 96q-6 8 -18.5 23.5t-18.5 23.5t-14 15.5t-15 7.5 q-30 0 -18 -127z" glyph-name="itilde" horiz-adv-x="604" unicode="ĩ"/><glyph d="M147 1434h385v-1434h-385v1434zM647 1829v-277h-614v277h614z" glyph-name="Imacron" horiz-adv-x="679" unicode="Ī"/><glyph d="M115 0v1057h374v-1057h-374zM608 1458v-276h-614v276h614z" glyph-name="imacron" horiz-adv-x="604" unicode="ī"/><glyph d="M147 1434h385v-1434h-385v1434zM446 1888l236 -71q-35 -135 -124 -217t-218 -82t-218 82.5t-122 216.5l233 71q31 -117 107 -116q79 -1 106 116z" glyph-name="Ibreve" horiz-adv-x="679" unicode="Ĭ"/><glyph d="M115 0v1057h374v-1057h-374zM408 1518l235 -72q-35 -135 -124 -217t-218 -82t-218 83t-122 216l234 72q31 -117 106 -117q80 0 107 117z" glyph-name="ibreve" horiz-adv-x="604" unicode="ĭ"/><glyph d="M147 1434h385v-1434q-170 -135 -170 -233q0 -59 64 -60q20 0 55 10l47 -235q-53 -18 -122 -19q-119 0 -194 59.5t-75 164.5q0 170 207 313h-197v1434z" glyph-name="Iogonek" horiz-adv-x="679" unicode="Į"/><glyph d="M115 0v1057h374v-1057q-170 -135 -170 -233q0 -59 64 -60q20 0 55 10l47 -235q-53 -18 -123 -19q-119 0 -193.5 59.5t-74.5 164.5q0 170 207 313h-186zM301 1133q-90 0 -153.5 62t-63.5 153q0 88 63.5 150.5t153.5 62.5t154.5 -62.5t64.5 -150.5q0 -90 -64.5 -152.5 t-154.5 -62.5z" glyph-name="iogonek" horiz-adv-x="604" unicode="į"/><glyph d="M147 1434h385v-1434h-385v1434zM162 1687.5q0 73.5 50 124t126 50.5t127 -50.5t51 -124t-51 -124t-127 -50.5t-126 50.5t-50 124z" glyph-name="Idotaccent" horiz-adv-x="679" unicode="İ"/><glyph d="M115 0v1057h374v-1057h-374z" glyph-name="dotlessi" horiz-adv-x="604" unicode="ı"/><glyph d="M147 1434h385v-1434h-385v1434zM936 1079v355h952v-865q0 -260 -156.5 -427t-433 -167t-434 167t-157.5 427v156h383v-117q0 -135 55 -204.5t153.5 -69.5t153.5 69.5t55 204.5v471h-571z" glyph-name="IJ" horiz-adv-x="2019" unicode="Ĳ"/><glyph d="M115 0v1057h374v-1057h-374zM301 1133q-90 0 -153.5 62t-63.5 153q0 88 63.5 150.5t153.5 62.5t154.5 -62.5t64.5 -150.5q0 -90 -64.5 -152.5t-154.5 -62.5zM893 1133q-90 0 -153.5 62t-63.5 153q0 88 63.5 150.5t153.5 62.5t154.5 -62.5t64.5 -150.5q0 -90 -64.5 -152.5 t-154.5 -62.5zM535 -395l49 293q35 -10 55 -11q68 0 68 76v1094h374v-1106q0 -176 -99 -272.5t-275 -96.5q-92 0 -172 23z" glyph-name="ij" horiz-adv-x="1196" unicode="ĳ"/><glyph d="M283 1079v355h952v-865q0 -260 -156.5 -427t-433 -167t-434.5 167t-158 427v156h383v-117q0 -135 55.5 -204.5t153.5 -69.5t153.5 69.5t55.5 204.5v471h-571zM1110 1694l-156 -193l-196 129l-197 -129l-155 193l352 241z" glyph-name="Jcircumflex" horiz-adv-x="1366" unicode="Ĵ"/><glyph d="M-43 -395l49 293q35 -10 55 -11q68 0 68 76v1094h375v-1106q0 -176 -99.5 -272.5t-275.5 -96.5q-92 0 -172 23zM668 1323l-156 -193l-197 130l-196 -130l-156 193l352 242z" glyph-name="jcircumflex" horiz-adv-x="618" unicode="ĵ"/><glyph d="M1098 0l-350 547h-218v-547h-383v1434h383v-547h213l336 547h428l-438 -709l469 -725h-440zM762 -694l-115 108q137 109 146 185q-66 -10 -122.5 34.5t-56.5 114.5q0 63 45.5 111.5t122.5 48.5q80 0 133.5 -55.5t53.5 -161.5q0 -119 -62.5 -218t-144.5 -167z" glyph-name="Kcommaaccent" horiz-adv-x="1533" unicode="Ķ"/><glyph d="M801 0l-187 377h-125v-377h-374v1434h374v-754h123l183 377h397l-258 -510l289 -547h-422zM610 -694l-114 108q137 109 145 185q-66 -10 -122 34.5t-56 114.5q0 63 45 111.5t123 48.5q80 0 133 -55.5t53 -161.5q0 -119 -62.5 -218t-144.5 -167z" glyph-name="kcommaaccent" horiz-adv-x="1245" unicode="ķ"/><glyph d="M147 0v1434h381v-1080h707v-354h-1088zM387 1497l-242 96l279 406l248 -201z" glyph-name="Lacute" horiz-adv-x="1284" unicode="Ĺ"/><glyph d="M115 0v1434h374v-1434h-374zM317 1497l-241 96l278 406l248 -201z" glyph-name="lacute" horiz-adv-x="604" unicode="ĺ"/><glyph d="M147 0v1434h381v-1080h707v-354h-1088zM662 -694l-115 108q137 109 145 185q-66 -10 -122 34.5t-56 114.5q0 63 45 111.5t123 48.5q80 0 133 -55.5t53 -161.5q0 -119 -62 -218t-144 -167z" glyph-name="Lcommaaccent" horiz-adv-x="1284" unicode="Ļ"/><glyph d="M274 -694l-114 108q137 109 145 185q-66 -10 -122 34.5t-56 114.5q0 63 45 111.5t123 48.5q80 0 133 -55.5t53 -161.5q0 -119 -62.5 -218t-144.5 -167zM115 0v1434h374v-1434h-374z" glyph-name="lcommaaccent" horiz-adv-x="604" unicode="ļ"/><glyph d="M147 0v1434h381v-1080h707v-354h-1088zM786 856l-114 109q137 109 145 184q-66 -10 -122 35t-56 114q0 63 45 111.5t123 48.5q80 0 133 -55t53 -162q0 -119 -62.5 -218t-144.5 -167z" glyph-name="Lcaron" horiz-adv-x="1288" unicode="Ľ"/><glyph d="M115 0v1434h374v-1434h-374zM702 856l-114 109q137 109 145 184q-66 -10 -122 35t-56 114q0 63 45 111.5t123 48.5q80 0 133 -55t53 -162q0 -119 -62.5 -218t-144.5 -167z" glyph-name="lcaron" horiz-adv-x="872" unicode="ľ"/><glyph d="M147 0v1434h381v-1080h707v-354h-1088zM674 719q0 74 50 124t126 50t127 -50t51 -124t-51 -124t-127 -50t-126 50t-50 124z" glyph-name="Ldot" horiz-adv-x="1286" unicode="Ŀ"/><glyph d="M115 0v1434h374v-1434h-374zM547 719q0 74 50 124t126 50t127 -50t51 -124t-51 -124t-127 -50t-126 50t-50 124z" glyph-name="ldot" horiz-adv-x="890" unicode="ŀ"/><glyph d="M66 336v364l120 84v650h381v-385l226 157v-364l-226 -158v-330h707v-354h-1088v420z" glyph-name="Lslash" horiz-adv-x="1323" unicode="Ł"/><glyph d="M80 276v363l110 76v719h375v-457l111 78v-365l-111 -78v-612h-375v352z" glyph-name="lslash" horiz-adv-x="753" unicode="ł"/><glyph d="M528 0h-381v1434h388l604 -846v846h381v-1434h-387l-605 844v-844zM883 1497l-242 96l279 406l247 -201z" glyph-name="Nacute" horiz-adv-x="1665" unicode="Ń"/><glyph d="M809 0v592q0 88 -40 124t-95 36q-76 0 -130.5 -59.5t-54.5 -129.5v-563h-374v1057h374v-137q109 162 322 161q170 0 270.5 -107.5t100.5 -332.5v-641h-373zM698 1126l-241 97l278 405l248 -201z" glyph-name="nacute" horiz-adv-x="1286" unicode="ń"/><glyph d="M528 0h-381v1434h388l604 -846v846h381v-1434h-387l-605 844v-844zM803 -694l-115 108q137 109 146 185q-66 -10 -122.5 34.5t-56.5 114.5q0 63 45 111.5t123 48.5q80 0 133.5 -55.5t53.5 -161.5q0 -119 -62.5 -218t-144.5 -167z" glyph-name="Ncommaaccent" horiz-adv-x="1665" unicode="Ņ"/><glyph d="M809 0v592q0 88 -40 124t-95 36q-76 0 -130.5 -59.5t-54.5 -129.5v-563h-374v1057h374v-137q109 162 322 161q170 0 270.5 -107.5t100.5 -332.5v-641h-373zM627 -694l-115 108q137 109 145 185q-66 -10 -122 34.5t-56 114.5q0 63 45 111.5t123 48.5q80 0 133.5 -55.5 t53.5 -161.5q0 -119 -62.5 -218t-144.5 -167z" glyph-name="ncommaaccent" horiz-adv-x="1286" unicode="ņ"/><glyph d="M528 0h-381v1434h388l604 -846v846h381v-1434h-387l-605 844v-844zM1028 1931l156 -192l-353 -242l-352 242l156 192l196 -129z" glyph-name="Ncaron" horiz-adv-x="1665" unicode="Ň"/><glyph d="M809 0v592q0 88 -40 124t-95 36q-76 0 -130.5 -59.5t-54.5 -129.5v-563h-374v1057h374v-137q109 162 322 161q170 0 270.5 -107.5t100.5 -332.5v-641h-373zM844 1561l155 -193l-352 -242l-352 242l156 193l196 -129z" glyph-name="ncaron" horiz-adv-x="1286" unicode="ň"/><glyph d="M1231 0v592q0 88 -40 124t-95 36q-76 0 -130.5 -59.5t-54.5 -129.5v-563h-374v1057h374v-137q109 162 322 161q170 0 270.5 -107.5t100.5 -332.5v-641h-373zM231 692l-147 137q170 141 180 256q-90 -16 -160.5 39.5t-70.5 153.5q0 84 59.5 146.5t159.5 62.5 q102 0 174 -75t72 -212q0 -156 -80.5 -288t-186.5 -220z" glyph-name="napostrophe" horiz-adv-x="1708" unicode="ŉ"/><glyph d="M528 0h-381v1434h388l604 -846v846h381v-1485q0 -180 -104.5 -274.5t-291.5 -94.5q-92 0 -223 29l37 297q74 -18 123 -19q78 0 78 78v25l-611 854v-844z" glyph-name="Eng" horiz-adv-x="1665" unicode="Ŋ"/><glyph d="M635 -395l49 293q35 -10 55 -11q68 0 68 76v629q0 88 -39 124t-94 36q-76 0 -130.5 -59.5t-54.5 -129.5v-563h-374v1057h374v-137q109 162 322 161q170 0 270.5 -107.5t100.5 -332.5v-690q0 -176 -99.5 -272.5t-275.5 -96.5q-92 0 -172 23z" glyph-name="eng" horiz-adv-x="1286" unicode="ŋ"/><glyph d="M80 716.5q0 319.5 213 530.5t536 211q322 0 535 -211t213 -530.5t-213 -530.5t-535 -211q-324 0 -536.5 211t-212.5 530.5zM481 717q0 -162 98.5 -270.5t249.5 -108.5q150 0 248.5 107.5t98.5 271.5q0 162 -98.5 269.5t-248.5 107.5q-152 0 -250 -107.5t-98 -269.5z M1135 1829v-277h-615v277h615z" glyph-name="Omacron" horiz-adv-x="1656" unicode="Ō"/><glyph d="M72 526q0 240 158.5 397.5t402.5 157.5q242 0 400.5 -157.5t158.5 -397.5q0 -238 -159 -394.5t-400 -156.5q-244 0 -402.5 156.5t-158.5 394.5zM432 526q0 -98 55.5 -160.5t145.5 -62.5q88 0 142 62.5t54 160.5q0 100 -54 164t-142 64q-90 0 -145.5 -64t-55.5 -164z M938 1458v-276h-614v276h614z" glyph-name="omacron" horiz-adv-x="1261" unicode="ō"/><glyph d="M80 716.5q0 319.5 213 530.5t536 211q322 0 535 -211t213 -530.5t-213 -530.5t-535 -211q-324 0 -536.5 211t-212.5 530.5zM481 717q0 -162 98.5 -270.5t249.5 -108.5q150 0 248.5 107.5t98.5 271.5q0 162 -98.5 269.5t-248.5 107.5q-152 0 -250 -107.5t-98 -269.5z M936 1888l235 -71q-35 -135 -124 -217t-218 -82t-218 82.5t-122 216.5l234 71q31 -117 106 -116q80 -1 107 116z" glyph-name="Obreve" horiz-adv-x="1656" unicode="Ŏ"/><glyph d="M72 526q0 240 158.5 397.5t402.5 157.5q242 0 400.5 -157.5t158.5 -397.5q0 -238 -159 -394.5t-400 -156.5q-244 0 -402.5 156.5t-158.5 394.5zM432 526q0 -98 55.5 -160.5t145.5 -62.5q88 0 142 62.5t54 160.5q0 100 -54 164t-142 64q-90 0 -145.5 -64t-55.5 -164z M739 1518l236 -72q-35 -135 -124 -217t-218 -82t-218 83t-122 216l233 72q31 -117 107 -117q79 0 106 117z" glyph-name="obreve" horiz-adv-x="1261" unicode="ŏ"/><glyph d="M80 716.5q0 319.5 213 530.5t536 211q322 0 535 -211t213 -530.5t-213 -530.5t-535 -211q-324 0 -536.5 211t-212.5 530.5zM481 717q0 -162 98.5 -270.5t249.5 -108.5q150 0 248.5 107.5t98.5 271.5q0 162 -98.5 269.5t-248.5 107.5q-152 0 -250 -107.5t-98 -269.5z M1135 1497l-240 96l279 406l245 -201zM670 1497l-240 96l277 406l245 -201z" glyph-name="Ohungarumlaut" horiz-adv-x="1656" unicode="Ő"/><glyph d="M72 526q0 240 158.5 397.5t402.5 157.5q242 0 400.5 -157.5t158.5 -397.5q0 -238 -159 -394.5t-400 -156.5q-244 0 -402.5 156.5t-158.5 394.5zM432 526q0 -98 55.5 -160.5t145.5 -62.5q88 0 142 62.5t54 160.5q0 100 -54 164t-142 64q-90 0 -145.5 -64t-55.5 -164z M938 1126l-240 97l279 405l246 -201zM473 1126l-240 97l277 405l246 -201z" glyph-name="ohungarumlaut" horiz-adv-x="1261" unicode="ő"/><glyph d="M1976 0h-1091q-385 0 -595 196.5t-210 520.5q0 322 211 519.5t594 197.5h1091v-340h-688v-217h539v-316h-539v-221h688v-340zM848 340h59v754h-59q-170 0 -272.5 -102.5t-102.5 -274.5t102.5 -274.5t272.5 -102.5z" glyph-name="OE" horiz-adv-x="2076" unicode="Œ"/><glyph d="M72 526q0 240 158.5 397.5t402.5 157.5q221 0 379 -137q150 137 366 137q231 0 379 -152.5t148 -359.5q0 -76 -21 -149h-670q51 -156 226 -156q133 0 241 86l166 -223q-174 -152 -434 -152q-244 0 -401 138q-154 -137 -379 -138q-244 0 -402.5 156.5t-158.5 394.5z M432 526q0 -98 55.5 -160.5t145.5 -62.5q88 0 142 62.5t54 160.5q0 100 -54 164t-142 64q-90 0 -145.5 -64t-55.5 -164zM1382 799q-150 0 -180 -176h352q-10 80 -53 128t-119 48z" glyph-name="oe" horiz-adv-x="1972" unicode="œ"/><glyph d="M147 1434h697q266 0 409.5 -147.5t143.5 -375.5q0 -145 -62.5 -263t-181.5 -185l322 -463h-447l-258 391h-242v-391h-381v1434zM791 723q217 0 217 188q0 190 -217 191h-263v-379h263zM813 1497l-242 96l279 406l248 -201z" glyph-name="Racute" horiz-adv-x="1519" unicode="Ŕ"/><glyph d="M489 1057v-371q39 158 130.5 273.5t254.5 121.5v-444q-156 -14 -270.5 -106.5t-114.5 -231.5v-299h-374v1057h374zM545 1126l-242 97l279 405l247 -201z" glyph-name="racute" horiz-adv-x="929" unicode="ŕ"/><glyph d="M147 0v1434h697q266 0 409.5 -147.5t143.5 -375.5q0 -145 -62.5 -263t-181.5 -185l322 -463h-447l-258 391h-242v-391h-381zM528 723h263q217 0 217 188q0 190 -217 191h-263v-379zM731 -694l-115 108q137 109 146 185q-66 -10 -122 34.5t-56 114.5q0 63 45 111.5 t123 48.5q80 0 133 -55.5t53 -161.5q0 -119 -62.5 -218t-144.5 -167z" glyph-name="Rcommaaccent" horiz-adv-x="1519" unicode="Ŗ"/><glyph d="M489 1057v-371q39 158 130.5 273.5t254.5 121.5v-444q-156 -14 -270.5 -106.5t-114.5 -231.5v-299h-374v1057h374zM272 -694l-114 108q137 109 145 185q-66 -10 -122 34.5t-56 114.5q0 63 45 111.5t123 48.5q80 0 133 -55.5t53 -161.5q0 -119 -62.5 -218t-144.5 -167z " glyph-name="rcommaaccent" horiz-adv-x="929" unicode="ŗ"/><glyph d="M147 1434h697q266 0 409.5 -147.5t143.5 -375.5q0 -145 -62.5 -263t-181.5 -185l322 -463h-447l-258 391h-242v-391h-381v1434zM791 723q217 0 217 188q0 190 -217 191h-263v-379h263zM963 1931l155 -192l-352 -242l-352 242l155 192l197 -129z" glyph-name="Rcaron" horiz-adv-x="1519" unicode="Ř"/><glyph d="M489 1057v-371q39 158 130.5 273.5t254.5 121.5v-444q-156 -14 -270.5 -106.5t-114.5 -231.5v-299h-374v1057h374zM690 1561l156 -193l-352 -242l-353 242l156 193l197 -129z" glyph-name="rcaron" horiz-adv-x="929" unicode="ř"/><glyph d="M80 387l383 82q25 -190 272 -190q199 0 199 104q0 29 -16.5 50.5t-57.5 40t-72.5 28.5t-101.5 28q-35 10 -51 15q-268 76 -402.5 185.5t-134.5 305.5q0 195 158 308.5t420 113.5q266 0 439 -119.5t173 -345.5v-28h-381v8q0 88 -62.5 134t-170.5 46q-90 0 -136 -30.5 t-46 -78.5q0 -39 34.5 -67.5t77.5 -45t115 -38.5q18 -6 29 -8q86 -25 131 -40.5t116.5 -43t110.5 -50t88 -60.5t73.5 -79t42 -96t17.5 -121q0 -201 -163 -310.5t-437 -109.5q-264 0 -442 104.5t-205 307.5zM725 1497l-242 96l279 406l248 -201z" glyph-name="Sacute" horiz-adv-x="1409" unicode="Ś"/><glyph d="M63 264l336 84q31 -121 183 -121q109 0 108 58q0 10 -4 19t-12 17.5t-17.5 14.5t-25 13t-27.5 11.5t-33.5 9.5t-35 9t-38 9t-38.5 9q-182 45 -283.5 128t-101.5 227q0 156 124 242.5t328 86.5q215 0 355.5 -92t140.5 -258v-12h-340v2q0 45 -36 76.5t-105 31.5 q-53 0 -81 -19t-28 -46q0 -33 44 -53.5t140 -46.5q27 -6 41 -11q96 -27 159 -51t120 -63t85 -96.5t28 -135.5q0 -168 -127 -250t-344 -82q-207 0 -345.5 73t-169.5 216zM580 1126l-242 97l278 405l248 -201z" glyph-name="sacute" horiz-adv-x="1114" unicode="ś"/><glyph d="M80 387l383 82q25 -190 272 -190q199 0 199 104q0 29 -16.5 50.5t-57.5 40t-72.5 28.5t-101.5 28q-35 10 -51 15q-268 76 -402.5 185.5t-134.5 305.5q0 195 158 308.5t420 113.5q266 0 439 -119.5t173 -345.5v-28h-381v8q0 88 -62.5 134t-170.5 46q-90 0 -136 -30.5 t-46 -78.5q0 -39 34.5 -67.5t77.5 -45t115 -38.5q18 -6 29 -8q86 -25 131 -40.5t116.5 -43t110.5 -50t88 -60.5t73.5 -79t42 -96t17.5 -121q0 -201 -163 -310.5t-437 -109.5q-264 0 -442 104.5t-205 307.5zM1028 1694l-156 -193l-196 129l-197 -129l-155 193l352 241z" glyph-name="Scircumflex" horiz-adv-x="1409" unicode="Ŝ"/><glyph d="M63 264l336 84q31 -121 183 -121q109 0 108 58q0 10 -4 19t-12 17.5t-17.5 14.5t-25 13t-27.5 11.5t-33.5 9.5t-35 9t-38 9t-38.5 9q-182 45 -283.5 128t-101.5 227q0 156 124 242.5t328 86.5q215 0 355.5 -92t140.5 -258v-12h-340v2q0 45 -36 76.5t-105 31.5 q-53 0 -81 -19t-28 -46q0 -33 44 -53.5t140 -46.5q27 -6 41 -11q96 -27 159 -51t120 -63t85 -96.5t28 -135.5q0 -168 -127 -250t-344 -82q-207 0 -345.5 73t-169.5 216zM881 1323l-156 -193l-197 130l-196 -130l-156 193l352 242z" glyph-name="scircumflex" horiz-adv-x="1114" unicode="ŝ"/><glyph d="M80 387l383 82q25 -190 272 -190q199 0 199 104q0 29 -16.5 50.5t-57.5 40t-72.5 28.5t-101.5 28q-35 10 -51 15q-268 76 -402.5 185.5t-134.5 305.5q0 195 158 308.5t420 113.5q266 0 439 -119.5t173 -345.5v-28h-381v8q0 88 -62.5 134t-170.5 46q-90 0 -136 -30.5 t-46 -78.5q0 -39 34.5 -67.5t77.5 -45t115 -38.5q18 -6 29 -8q86 -25 131 -40.5t116.5 -43t110.5 -50t88 -60.5t73.5 -79t42 -96t17.5 -121q0 -188 -142.5 -295.5t-385.5 -122.5l-19 -59q82 -20 128 -78.5t46 -140.5q0 -96 -70.5 -163.5t-199.5 -67.5q-111 0 -248 57l90 199 q86 -41 142 -41q66 0 65 47q0 31 -27.5 46t-76.5 11l-47 68l59 125q-233 16 -384.5 118.5t-176.5 288.5z" glyph-name="Scedilla" horiz-adv-x="1409" unicode="Ş"/><glyph d="M63 264l336 84q31 -121 183 -121q109 0 108 58q0 10 -4 19t-12 17.5t-17.5 14.5t-25 13t-27.5 11.5t-33.5 9.5t-35 9t-38 9t-38.5 9q-182 45 -283.5 128t-101.5 227q0 158 124 243.5t330 85.5q213 0 353.5 -92t140.5 -258v-12h-340v2q0 45 -36 76.5t-105 31.5 q-53 0 -81 -19t-28 -46q0 -33 44 -53.5t140 -46.5q27 -6 41 -11q96 -27 159 -51t120 -63t85 -96.5t28 -135.5q0 -154 -106.5 -235.5t-293.5 -94.5l-18 -59q82 -20 128 -78.5t46 -140.5q0 -96 -70.5 -163.5t-199.5 -67.5q-111 0 -248 57l90 199q86 -41 141 -41q66 0 66 47 q0 31 -28 46t-77 11l-47 68l60 125q-176 14 -289 85.5t-140 198.5z" glyph-name="scedilla" horiz-adv-x="1114" unicode="ş"/><glyph d="M80 387l383 82q25 -190 272 -190q199 0 199 104q0 29 -16.5 50.5t-57.5 40t-72.5 28.5t-101.5 28q-35 10 -51 15q-268 76 -402.5 185.5t-134.5 305.5q0 195 158 308.5t420 113.5q266 0 439 -119.5t173 -345.5v-28h-381v8q0 88 -62.5 134t-170.5 46q-90 0 -136 -30.5 t-46 -78.5q0 -39 34.5 -67.5t77.5 -45t115 -38.5q18 -6 29 -8q86 -25 131 -40.5t116.5 -43t110.5 -50t88 -60.5t73.5 -79t42 -96t17.5 -121q0 -201 -163 -310.5t-437 -109.5q-264 0 -442 104.5t-205 307.5zM872 1931l156 -192l-352 -242l-352 242l155 192l197 -129z" glyph-name="Scaron" horiz-adv-x="1409" unicode="Š"/><glyph d="M63 264l336 84q31 -121 183 -121q109 0 108 58q0 10 -4 19t-12 17.5t-17.5 14.5t-25 13t-27.5 11.5t-33.5 9.5t-35 9t-38 9t-38.5 9q-182 45 -283.5 128t-101.5 227q0 156 124 242.5t328 86.5q215 0 355.5 -92t140.5 -258v-12h-340v2q0 45 -36 76.5t-105 31.5 q-53 0 -81 -19t-28 -46q0 -33 44 -53.5t140 -46.5q27 -6 41 -11q96 -27 159 -51t120 -63t85 -96.5t28 -135.5q0 -168 -127 -250t-344 -82q-207 0 -345.5 73t-169.5 216zM725 1561l156 -193l-353 -242l-352 242l156 193l196 -129z" glyph-name="scaron" horiz-adv-x="1114" unicode="š"/><glyph d="M51 1079v355h1258v-355h-439v-1079h-106l-12 -82q84 -20 130 -78.5t46 -140.5q0 -96 -71 -163.5t-200 -67.5q-111 0 -247 57l90 199q86 -41 141 -41q66 0 66 47q0 31 -28 46t-77 11l-47 68l53 145h-119v1079h-438z" glyph-name="Tcommaaccent" horiz-adv-x="1359" unicode="Ţ"/><glyph d="M39 739v318h178v229l373 125v-354h307v-318h-307v-309q0 -117 100 -117q66 0 150 45l125 -286q-168 -96 -340 -97h-11l-18 -57q82 -20 128 -78.5t46 -140.5q0 -96 -70.5 -163.5t-199.5 -67.5q-111 0 -248 57l90 199q86 -41 141 -41q66 0 66 47q0 31 -27.5 46t-77.5 11 l-47 68l70 143q-250 80 -250 457v284h-178z" glyph-name="tcommaaccent" horiz-adv-x="978" unicode="ţ"/><glyph d="M51 1079v355h1258v-355h-439v-1079h-381v1079h-438zM877 1931l155 -192l-352 -242l-352 242l155 192l197 -129z" glyph-name="Tcaron" horiz-adv-x="1359" unicode="Ť"/><glyph d="M39 739v318h178v229l373 125v-354h307v-318h-307v-309q0 -117 100 -117q61 0 152 45l123 -286q-164 -96 -340 -97q-408 0 -408 480v284h-178zM784 1128l-114 109q137 109 145 184q-66 -10 -122 35t-56 115q0 63 45 111.5t123 48.5q80 0 133 -55.5t53 -162.5 q0 -119 -62.5 -218t-144.5 -167z" glyph-name="tcaron" horiz-adv-x="978" unicode="ť"/><glyph d="M57 1079v355h1258v-355h-438v-252h210v-311h-210v-516h-381v516h-213v311h213v252h-439z" glyph-name="Tbar" horiz-adv-x="1374" unicode="Ŧ"/><glyph d="M43 739v318h178v229l373 125v-354h307v-318h-307v-86h225v-194h-225v-29q0 -117 100 -117q66 0 150 45l125 -286q-168 -96 -340 -97q-408 0 -408 480v4h-141v194h141v86h-178z" glyph-name="tbar" horiz-adv-x="983" unicode="ŧ"/><glyph d="M1098 1434h383v-779q0 -299 -179.5 -489.5t-499 -190.5t-497.5 190.5t-178 489.5v779h383v-742q0 -358 293 -358q295 0 295 358v742zM672 1548h-250q-12 172 50.5 275.5t186.5 103.5q113 0 193 -94q8 -10 19.5 -25.5t17.5 -24.5t14 -15.5t15 -6.5q29 0 20 127h248 q12 -172 -51.5 -275.5t-186.5 -103.5q-115 0 -192 97q-6 8 -18.5 23.5t-18.5 23.5t-14.5 15t-14.5 7q-30 0 -18 -127z" glyph-name="Utilde" horiz-adv-x="1607" unicode="Ũ"/><glyph d="M477 1057v-592q0 -88 40 -124t95 -36q76 0 130.5 59.5t54.5 129.5v563h374v-1057h-374v137q-109 -162 -322 -162q-170 0 -270.5 107.5t-100.5 333.5v641h373zM506 1178h-250q-12 172 50.5 275t187.5 103q113 0 192 -94q8 -10 19.5 -25.5t17.5 -24.5t14 -15t15 -6 q29 0 20 127h248q12 -172 -51.5 -275.5t-186.5 -103.5q-115 0 -192 96q-6 8 -18.5 23.5t-18.5 23.5t-14.5 15.5t-14.5 7.5q-30 0 -18 -127z" glyph-name="utilde" horiz-adv-x="1286" unicode="ũ"/><glyph d="M1098 1434h383v-779q0 -299 -179.5 -489.5t-499 -190.5t-497.5 190.5t-178 489.5v779h383v-742q0 -358 293 -358q295 0 295 358v742zM1110 1829v-277h-614v277h614z" glyph-name="Umacron" horiz-adv-x="1607" unicode="Ū"/><glyph d="M477 1057v-592q0 -88 40 -124t95 -36q76 0 130.5 59.5t54.5 129.5v563h374v-1057h-374v137q-109 -162 -322 -162q-170 0 -270.5 107.5t-100.5 333.5v641h373zM944 1458v-276h-614v276h614z" glyph-name="umacron" horiz-adv-x="1286" unicode="ū"/><glyph d="M1098 1434h383v-779q0 -299 -179.5 -489.5t-499 -190.5t-497.5 190.5t-178 489.5v779h383v-742q0 -358 293 -358q295 0 295 358v742zM909 1888l236 -71q-35 -135 -124 -217t-218 -82t-218 82.5t-122 216.5l233 71q31 -117 107 -116q79 -1 106 116z" glyph-name="Ubreve" horiz-adv-x="1607" unicode="Ŭ"/><glyph d="M477 1057v-592q0 -88 40 -124t95 -36q76 0 130.5 59.5t54.5 129.5v563h374v-1057h-374v137q-109 -162 -322 -162q-170 0 -270.5 107.5t-100.5 333.5v641h373zM743 1518l236 -72q-35 -135 -124 -217t-218 -82t-218 83t-122 216l233 72q31 -117 107 -117q79 0 106 117z" glyph-name="ubreve" horiz-adv-x="1286" unicode="ŭ"/><glyph d="M1098 1434h383v-779q0 -299 -179.5 -489.5t-499 -190.5t-497.5 190.5t-178 489.5v779h383v-742q0 -358 293 -358q295 0 295 358v742zM535 1759.5q0 110.5 78.5 187t189 76.5t189.5 -76.5t79 -187t-79 -187.5t-189.5 -77t-189 77t-78.5 187.5zM725 1759q0 -33 22.5 -56.5 t53.5 -23.5q35 0 57.5 22.5t22.5 57.5t-22.5 57.5t-57.5 22.5q-31 0 -53.5 -22.5t-22.5 -57.5z" glyph-name="Uring" horiz-adv-x="1607" unicode="Ů"/><glyph d="M477 1057v-592q0 -88 40 -124t95 -36q76 0 130.5 59.5t54.5 129.5v563h374v-1057h-374v137q-109 -162 -322 -162q-170 0 -270.5 107.5t-100.5 333.5v641h373zM369 1388.5q0 110.5 78.5 187.5t189.5 77t189.5 -77t78.5 -187.5t-78.5 -187.5t-189.5 -77t-189.5 77 t-78.5 187.5zM559 1389q0 -33 22.5 -56.5t53.5 -23.5q33 0 56.5 23.5t23.5 56.5q0 35 -22.5 57t-57.5 22q-31 0 -53.5 -22t-22.5 -57z" glyph-name="uring" horiz-adv-x="1286" unicode="ů"/><glyph d="M1098 1434h383v-779q0 -299 -179.5 -489.5t-499 -190.5t-497.5 190.5t-178 489.5v779h383v-742q0 -358 293 -358q295 0 295 358v742zM1108 1497l-240 96l279 406l246 -201zM643 1497l-240 96l277 406l246 -201z" glyph-name="Uhungarumlaut" horiz-adv-x="1607" unicode="Ű"/><glyph d="M477 1057v-592q0 -88 40 -124t95 -36q76 0 130.5 59.5t54.5 129.5v563h374v-1057h-374v137q-109 -162 -322 -162q-170 0 -270.5 107.5t-100.5 333.5v641h373zM942 1126l-240 97l279 405l246 -201zM477 1126l-239 97l276 405l246 -201z" glyph-name="uhungarumlaut" horiz-adv-x="1286" unicode="ű"/><glyph d="M1098 1434h383v-779q0 -221 -99.5 -387t-283.5 -239q-209 -156 -209 -262q0 -59 61 -60q20 0 56 10l47 -235q-53 -18 -121 -19q-121 0 -195.5 59.5t-74.5 164.5q0 152 178 288h-37q-319 0 -497.5 190.5t-178.5 489.5v779h383v-742q0 -358 293 -358q295 0 295 358v742z " glyph-name="Uogonek" horiz-adv-x="1607" unicode="Ų"/><glyph d="M477 1057v-592q0 -88 40 -124t95 -36q76 0 130.5 59.5t54.5 129.5v563h374v-1057q-170 -135 -170 -233q0 -59 64 -60q20 0 55 10l47 -235q-53 -18 -123 -19q-119 0 -193.5 59.5t-74.5 164.5q0 170 207 313h-186v137q-106 -162 -324 -162q-168 0 -268.5 107.5 t-100.5 333.5v641h373z" glyph-name="uogonek" horiz-adv-x="1286" unicode="ų"/><glyph d="M860 0h-430l-387 1434h406l223 -883l246 883h395l246 -881l223 881h407l-389 -1434h-430l-256 909zM1466 1694l-155 -193l-197 129l-196 -129l-156 193l352 241z" glyph-name="Wcircumflex" horiz-adv-x="2230" unicode="Ŵ"/><glyph d="M743 0h-424l-278 1057h395l127 -641l160 641h354l158 -639l127 639h397l-280 -1057h-422l-158 627zM1253 1323l-155 -193l-197 130l-196 -130l-156 193l352 242z" glyph-name="wcircumflex" horiz-adv-x="1798" unicode="ŵ"/><glyph d="M444 1434l312 -566l311 566h457l-578 -934v-500h-383v500l-575 934h456zM1108 1694l-156 -193l-196 129l-197 -129l-156 193l353 241z" glyph-name="Ycircumflex" horiz-adv-x="1509" unicode="Ŷ"/><glyph d="M217 -440l-135 325q205 74 305 152l-375 1020h396l194 -662l201 662h395l-315 -848q-53 -143 -119 -251t-125 -171t-140 -111.5t-137.5 -68.5t-144.5 -47zM961 1323l-156 -193l-197 130l-196 -130l-156 193l352 242z" glyph-name="ycircumflex" horiz-adv-x="1208" unicode="ŷ"/><glyph d="M444 1434l312 -566l311 566h457l-578 -934v-500h-383v500l-575 934h456zM371 1687.5q0 73.5 50 124t126 50.5t127 -50.5t51 -124t-51 -124t-127 -50.5t-126 50.5t-50 124zM786 1687.5q0 73.5 50.5 124t126 50.5t126 -50.5t50.5 -124t-50.5 -124t-126 -50.5t-126 50.5 t-50.5 124z" glyph-name="Ydieresis" horiz-adv-x="1509" unicode="Ÿ"/><glyph d="M109 1079v355h1230v-318l-723 -762h723v-354h-1251v317l723 762h-702zM776 1497l-241 96l278 406l248 -201z" glyph-name="Zacute" horiz-adv-x="1437" unicode="Ź"/><glyph d="M90 733v324h924v-258l-447 -477h447v-322h-924v256l445 477h-445zM604 1126l-242 97l279 405l248 -201z" glyph-name="zacute" horiz-adv-x="1105" unicode="ź"/><glyph d="M109 1079v355h1230v-318l-723 -762h723v-354h-1251v317l723 762h-702zM547 1687.5q0 73.5 50 124t126 50.5t127 -50.5t51 -124t-51 -124t-127 -50.5t-126 50.5t-50 124z" glyph-name="Zdotaccent" horiz-adv-x="1437" unicode="Ż"/><glyph d="M90 733v324h924v-258l-447 -477h447v-322h-924v256l445 477h-445zM375 1317q0 74 50 124t126 50t127 -50t51 -124t-51 -124t-127 -50t-126 50t-50 124z" glyph-name="zdotaccent" horiz-adv-x="1105" unicode="ż"/><glyph d="M109 1079v355h1230v-318l-723 -762h723v-354h-1251v317l723 762h-702zM922 1931l155 -192l-352 -242l-352 242l155 192l197 -129z" glyph-name="Zcaron" horiz-adv-x="1437" unicode="Ž"/><glyph d="M90 733v324h924v-258l-447 -477h447v-322h-924v256l445 477h-445zM750 1561l155 -193l-352 -242l-352 242l155 193l197 -129z" glyph-name="zcaron" horiz-adv-x="1105" unicode="ž"/><glyph d="M121 588l26 315h177l10 113q18 217 137 328.5t309 111.5q154 0 299 -55l-96 -301q-74 25 -147 24q-117 0 -127 -118l-11 -103h275l-27 -315h-274l-49 -572q-18 -221 -136 -331.5t-307 -110.5q-131 0 -278 49l96 303q68 -18 123 -18q123 0 131 117l45 563h-176z" glyph-name="florin" horiz-adv-x="1105" unicode="ƒ"/><glyph d="M1464 1497l-241 96l278 406l248 -201zM829 1434h1172v-340h-678v-217h526v-316h-526v-221h678v-340h-1045v217h-426l-116 -217h-445zM702 535h254v466z" glyph-name="AEacute" horiz-adv-x="2099" unicode="Ǽ"/><glyph d="M1559 352l165 -225q-174 -152 -432 -152q-260 0 -422 156q-203 -156 -413 -156q-176 0 -281.5 90.5t-105.5 251.5q0 166 107.5 260.5t285.5 94.5q135 0 256 -58q0 178 -199 179q-123 0 -287 -78l-124 254q215 113 442 112q240 0 371 -110q143 111 333 110 q233 0 380 -152.5t147 -359.5q0 -76 -21 -149h-669q51 -156 225 -156q131 0 242 88zM539 221q119 0 209 101q-12 31 -25 96q-84 39 -162 39q-63 0 -101 -32t-38 -91q0 -51 32 -82t85 -31zM1260 799q-150 0 -181 -176h355q-10 80 -54 128t-120 48zM977 1126l-242 97l279 405 l248 -201z" glyph-name="aeacute" horiz-adv-x="1849" unicode="ǽ"/><glyph d="M883 1497l-242 96l279 406l247 -201zM82 717q0 319 213 530t536 211q195 0 365 -88l51 64h297l-162 -205q195 -207 195 -512q0 -319 -212 -530.5t-534 -211.5q-203 0 -366 88l-49 -63h-297l160 203q-197 207 -197 514zM479 717q0 -111 47 -199l437 553q-66 27 -132 27 q-154 0 -253 -108.5t-99 -272.5zM1180 717q0 106 -45 196l-437 -553q61 -25 133 -24q152 0 250.5 107.5t98.5 273.5z" glyph-name="Oslashacute" horiz-adv-x="1658" unicode="Ǿ"/><glyph d="M72 526q0 240 159.5 397.5t401.5 157.5q147 0 270 -63l31 39h231l-116 -150q143 -154 143 -381q0 -238 -159 -394.5t-400 -156.5q-147 0 -271 62l-30 -37h-230l115 145q-145 156 -145 381zM412 526q0 -63 18 -108l275 346q-33 12 -72 12q-98 0 -159.5 -69.5t-61.5 -180.5 zM852 526q0 59 -18 109l-273 -344q37 -10 72 -10q100 0 159.5 68t59.5 177zM684 1126l-242 97l279 405l248 -201z" glyph-name="oslashacute" horiz-adv-x="1263" unicode="ǿ"/><glyph d="M80 387l383 82q25 -190 272 -190q199 0 199 104q0 29 -16.5 50.5t-57.5 40t-72.5 28.5t-101.5 28q-35 10 -51 15q-268 76 -402.5 185.5t-134.5 305.5q0 195 158 308.5t420 113.5q266 0 439 -119.5t173 -345.5v-28h-381v8q0 88 -62.5 134t-170.5 46q-90 0 -136 -30.5 t-46 -78.5q0 -39 34.5 -67.5t77.5 -45t115 -38.5q18 -6 29 -8q86 -25 131 -40.5t116.5 -43t110.5 -50t88 -60.5t73.5 -79t42 -96t17.5 -121q0 -201 -163 -310.5t-437 -109.5q-264 0 -442 104.5t-205 307.5zM698 -694l-114 108q137 109 145 185q-66 -10 -122 34.5t-56 114.5 q0 63 45 111.5t123 48.5q80 0 133 -55.5t53 -161.5q0 -119 -62.5 -218t-144.5 -167z" glyph-name="Scommaaccent" horiz-adv-x="1409" unicode="Ș"/><glyph d="M63 264l336 84q31 -121 183 -121q109 0 108 58q0 10 -4 19t-12 17.5t-17.5 14.5t-25 13t-27.5 11.5t-33.5 9.5t-35 9t-38 9t-38.5 9q-182 45 -283.5 128t-101.5 227q0 156 124 242.5t328 86.5q215 0 355.5 -92t140.5 -258v-12h-340v2q0 45 -36 76.5t-105 31.5 q-53 0 -81 -19t-28 -46q0 -33 44 -53.5t140 -46.5q27 -6 41 -11q96 -27 159 -51t120 -63t85 -96.5t28 -135.5q0 -168 -127 -250t-344 -82q-207 0 -345.5 73t-169.5 216zM547 -694l-115 108q137 109 146 185q-66 -10 -122.5 34.5t-56.5 114.5q0 63 45 111.5t123 48.5 q80 0 133.5 -55.5t53.5 -161.5q0 -119 -62.5 -218t-144.5 -167z" glyph-name="scommaaccent" horiz-adv-x="1114" unicode="ș"/><glyph d="M51 1079v355h1258v-355h-439v-1079h-381v1079h-438zM651 -694l-114 108q137 109 145 185q-66 -10 -122 34.5t-56 114.5q0 63 45 111.5t123 48.5q80 0 133 -55.5t53 -161.5q0 -119 -62.5 -218t-144.5 -167z" glyph-name="uni021A" horiz-adv-x="1359" unicode="Ț"/><glyph d="M39 739v318h178v229l373 125v-354h307v-318h-307v-309q0 -117 100 -117q61 0 152 45l123 -286q-164 -96 -340 -97q-408 0 -408 480v284h-178zM559 -694l-115 108q137 109 146 185q-66 -10 -122 34.5t-56 114.5q0 63 45 111.5t123 48.5q80 0 133 -55.5t53 -161.5 q0 -119 -62.5 -218t-144.5 -167z" glyph-name="uni021B" horiz-adv-x="978" unicode="ț"/><glyph d="M754 1694l-156 -193l-197 129l-196 -129l-156 193l352 241z" glyph-name="circumflex" horiz-adv-x="808" unicode="ˆ"/><glyph d="M598 1931l156 -192l-353 -242l-352 242l156 192l196 -129z" glyph-name="caron" horiz-adv-x="808" unicode="ˇ"/><glyph d="M494 1888l235 -71q-35 -135 -124 -217t-218 -82t-218 82.5t-122 216.5l234 71q31 -117 106 -116q80 -1 107 116z" glyph-name="breve" horiz-adv-x="811" unicode="˘"/><glyph d="M2 1687.5q0 73.5 50 124t126 50.5t127 -50.5t51 -124t-51 -124t-127 -50.5t-126 50.5t-50 124z" glyph-name="dotaccent" horiz-adv-x="372" unicode="˙"/><glyph d="M-8 1759.5q0 110.5 79 187t189.5 76.5t189 -76.5t78.5 -187t-78.5 -187.5t-189 -77t-189.5 77t-79 187.5zM182 1759q0 -33 22.5 -56.5t53.5 -23.5q33 0 56.5 22.5t23.5 57.5t-22.5 57.5t-57.5 22.5q-31 0 -53.5 -22.5t-22.5 -57.5z" glyph-name="ring" horiz-adv-x="475" unicode="˚"/><glyph d="M270 43l121 -43q-170 -135 -170 -233q0 -59 64 -60q20 0 55 10l47 -235q-53 -18 -123 -19q-119 0 -193.5 59.5t-74.5 164.5q0 196 274 356z" glyph-name="ogonek" horiz-adv-x="440" unicode="˛"/><glyph d="M258 1548h-250q-12 172 50.5 275.5t187.5 103.5q113 0 192 -94q8 -10 19.5 -25.5t17.5 -24.5t14.5 -15.5t14.5 -6.5q29 0 20 127h248q12 -172 -51.5 -275.5t-185.5 -103.5q-115 0 -193 97q-6 8 -18.5 23.5t-18.5 23.5t-14 15t-15 7q-30 0 -18 -127z" glyph-name="tilde" horiz-adv-x="796" unicode="˜"/><glyph d="M645 1497l-239 96l278 406l246 -201zM180 1497l-239 96l276 406l246 -201z" glyph-name="hungarumlaut" horiz-adv-x="911" unicode="˝"/><glyph d="M1526 338v-338h-594v338q104 41 169.5 143.5t65.5 233.5q0 164 -96 271.5t-240 107.5q-145 0 -241 -107.5t-96 -271.5q0 -131 65.5 -233.5t169.5 -143.5v-338h-592v338h121q-166 188 -166 442q0 297 211 487.5t528.5 190.5t527.5 -190.5t210 -487.5q0 -252 -168 -442h125 z" glyph-name="Omega" horiz-adv-x="1660" unicode="Ω"/><glyph d="M1348 1057v-336h-162v-721h-363v721h-231v-721h-361v721h-163v336h1280z" glyph-name="pi" horiz-adv-x="1415" unicode="π"/><glyph d="M860 0h-430l-387 1434h406l223 -883l246 883h395l246 -881l223 881h407l-389 -1434h-430l-256 909zM1305 1593l-240 -96l-283 301l244 201z" glyph-name="Wgrave" horiz-adv-x="2230" unicode="Ẁ"/><glyph d="M743 0h-424l-278 1057h395l127 -641l160 641h354l158 -639l127 639h397l-280 -1057h-422l-158 627zM1090 1223l-240 -97l-283 301l244 201z" glyph-name="wgrave" horiz-adv-x="1798" unicode="ẁ"/><glyph d="M860 0h-430l-387 1434h406l223 -883l246 883h395l246 -881l223 881h407l-389 -1434h-430l-256 909zM1167 1497l-241 96l278 406l248 -201z" glyph-name="Wacute" horiz-adv-x="2230" unicode="Ẃ"/><glyph d="M743 0h-424l-278 1057h395l127 -641l160 641h354l158 -639l127 639h397l-280 -1057h-422l-158 627zM950 1126l-241 97l278 405l248 -201z" glyph-name="wacute" horiz-adv-x="1798" unicode="ẃ"/><glyph d="M860 0h-430l-387 1434h406l223 -883l246 883h395l246 -881l223 881h407l-389 -1434h-430l-256 909zM731 1687.5q0 73.5 50 124t126 50.5t127 -50.5t51 -124t-51 -124t-127 -50.5t-126 50.5t-50 124zM1147 1687.5q0 73.5 50 124t126 50.5t126 -50.5t50 -124t-50 -124 t-126 -50.5t-126 50.5t-50 124z" glyph-name="Wdieresis" horiz-adv-x="2230" unicode="Ẅ"/><glyph d="M743 0h-424l-278 1057h395l127 -641l160 641h354l158 -639l127 639h397l-280 -1057h-422l-158 627zM516 1317q0 74 50 124t126 50t127 -50t51 -124t-51 -124t-127 -50t-126 50t-50 124zM932 1317q0 74 50 124t126 50t126 -50t50 -124t-50 -124t-126 -50t-126 50t-50 124z " glyph-name="wdieresis" horiz-adv-x="1798" unicode="ẅ"/><glyph d="M596 143l180 281q137 -109 283 -109q80 0 131 40t51 110q0 74 -57.5 115t-153.5 41q-68 0 -166 -33l-125 209l361 299q-160 39 -287 39q-152 0 -226.5 -76t-74.5 -215v-844h-381v895q0 244 168 411t504 167q313 0 696 -136v-288l-215 -187q127 -31 222.5 -132t95.5 -284 q0 -217 -142.5 -344t-369.5 -127q-273 0 -494 168z" glyph-name="uni1E9E" horiz-adv-x="1677" unicode="ẞ"/><glyph d="M444 1434l312 -566l311 566h457l-578 -934v-500h-383v500l-575 934h456zM944 1593l-239 -96l-283 301l244 201z" glyph-name="Ygrave" horiz-adv-x="1509" unicode="Ỳ"/><glyph d="M217 -440l-135 325q205 74 305 152l-375 1020h396l194 -662l201 662h395l-315 -848q-53 -143 -119 -251t-125 -171t-140 -111.5t-137.5 -68.5t-144.5 -47zM799 1223l-240 -97l-283 301l244 201z" glyph-name="ygrave" horiz-adv-x="1208" unicode="ỳ"/><glyph d="M1053 762v-326h-936v326h936z" glyph-name="endash" horiz-adv-x="1169" unicode="–"/><glyph d="M1333 762v-326h-1216v326h1216z" glyph-name="emdash" horiz-adv-x="1449" unicode="—"/><glyph d="M336 1522l147 -138q-170 -141 -180 -256q90 16 161 -39t71 -153q0 -84 -59.5 -146.5t-160.5 -62.5q-102 0 -173.5 75t-71.5 212q0 156 80 288t186 220z" glyph-name="quoteleft" horiz-adv-x="602" unicode="‘"/><glyph d="M264 692l-147 137q170 141 180 256q-90 -16 -160.5 39.5t-70.5 153.5q0 84 59 146.5t160 62.5q102 0 173.5 -75t71.5 -212q0 -156 -80 -288t-186 -220z" glyph-name="quoteright" horiz-adv-x="595" unicode="’"/><glyph d="M272 -414l-147 138q170 141 180 256q-90 -16 -160.5 39t-70.5 153q0 84 59.5 146.5t159.5 62.5q102 0 174 -75t72 -212q0 -156 -80.5 -288t-186.5 -220z" glyph-name="quotesinglbase" horiz-adv-x="614" unicode="‚"/><glyph d="M336 1522l147 -138q-170 -141 -180 -256q90 16 161 -39t71 -153q0 -84 -59.5 -146.5t-160.5 -62.5q-102 0 -173.5 75t-71.5 212q0 156 80 288t186 220zM874 1522l148 -138q-170 -141 -180 -256q90 16 160.5 -39t70.5 -153q0 -84 -59.5 -146.5t-159.5 -62.5 q-102 0 -174 75t-72 212q0 156 80 288t186 220z" glyph-name="quotedblleft" horiz-adv-x="1140" unicode="“"/><glyph d="M264 692l-147 137q170 141 180 256q-90 -16 -160.5 39.5t-70.5 153.5q0 84 59 146.5t160 62.5q102 0 173.5 -75t71.5 -212q0 -156 -80 -288t-186 -220zM801 692l-148 137q170 141 181 256q-90 -16 -161 39.5t-71 153.5q0 84 59.5 146.5t159.5 62.5q102 0 174 -75t72 -212 q0 -156 -80 -288t-186 -220z" glyph-name="quotedblright" horiz-adv-x="1132" unicode="”"/><glyph d="M272 -414l-147 138q170 141 180 256q-90 -16 -160.5 39t-70.5 153q0 84 59.5 146.5t159.5 62.5q102 0 174 -75t72 -212q0 -156 -80.5 -288t-186.5 -220zM809 -414l-147 138q170 141 180 256q-90 -16 -161 39t-71 153q0 84 59.5 146.5t159.5 62.5q102 0 174 -75t72 -212 q0 -156 -80 -288t-186 -220z" glyph-name="quotedblbase" horiz-adv-x="1150" unicode="„"/><glyph d="M961 1116v-280h-269v-836h-327v836h-267v280h267v318h327v-318h269z" glyph-name="dagger" horiz-adv-x="1058" unicode="†"/><glyph d="M961 1116v-280h-269v-240h269v-279h-269v-317h-325v317h-269v279h269v240h-269v280h269v318h325v-318h269z" glyph-name="daggerdbl" horiz-adv-x="1058" unicode="‡"/><glyph d="M125 598q0 106 78 181t186.5 75t186 -74.5t77.5 -181.5q0 -111 -77.5 -187.5t-186 -76.5t-186.5 76.5t-78 187.5z" glyph-name="bullet" horiz-adv-x="778" unicode="•"/><glyph d="M76 176q0 86 60.5 145.5t146.5 59.5t146 -59.5t60 -145.5q0 -84 -60 -142.5t-146 -58.5t-146.5 58.5t-60.5 142.5zM592 176q0 86 59.5 145.5t143.5 59.5q86 0 146 -59.5t60 -145.5q0 -84 -60 -142.5t-146 -58.5q-84 0 -143.5 58.5t-59.5 142.5zM1096 176q0 86 59 145.5 t148 59.5q86 0 145 -59.5t59 -145.5q0 -84 -59 -142.5t-145 -58.5q-88 0 -147.5 58.5t-59.5 142.5z" glyph-name="ellipsis" horiz-adv-x="1585" unicode="…"/><glyph d="M57 1089.5q0 153.5 109.5 261t267.5 107.5q160 0 268.5 -107.5t108.5 -261t-108.5 -261t-268.5 -107.5q-158 0 -267.5 107.5t-109.5 261zM313 1090q0 -57 34 -92t87 -35t88 35.5t35 91t-35 91.5t-88 36t-87 -36t-34 -91zM479 0h-284l1056 1434h287zM920 344 q0 154 109.5 261.5t267 107.5t267 -107.5t109.5 -261.5t-109.5 -261.5t-267 -107.5t-267 107.5t-109.5 261.5zM1176 344q0 -57 33.5 -92t87 -35t88 36t34.5 91t-34.5 91t-88 36t-87 -36t-33.5 -91zM1726 344q0 154 109 261.5t266 107.5q160 0 269.5 -107.5t109.5 -261.5 t-109.5 -261.5t-269.5 -107.5q-158 0 -266.5 107.5t-108.5 261.5zM1980 344q0 -57 34 -92t87 -35t88 35t35 92q0 55 -35 91t-88 36t-87 -36t-34 -91z" glyph-name="perthousand" horiz-adv-x="2531" unicode="‰"/><glyph d="M424 543l197 -297l-236 -168l-330 465l330 465l236 -168z" glyph-name="guilsinglleft" horiz-adv-x="700" unicode="‹"/><glyph d="M276 545l-196 297l235 168l330 -465l-330 -465l-235 168z" glyph-name="guilsinglright" horiz-adv-x="700" unicode="›"/><glyph d="M-193 0h-235l938 1434h238z" glyph-name="fraction" horiz-adv-x="325" unicode="⁄"/><glyph d="M61 999q0 197 94.5 322t276.5 125t277.5 -125t95.5 -322q0 -195 -94.5 -319.5t-278.5 -124.5q-182 0 -276.5 124.5t-94.5 319.5zM326 999q0 -100 28.5 -153t77.5 -53q106 0 107 206q0 209 -106.5 209t-106.5 -209z" glyph-name="uni2070" horiz-adv-x="866" unicode="⁰"/><glyph d="M676 569h-244v146h-387v190l191 529h272l-193 -490h117v172l244 74v-246h94v-229h-94v-146z" glyph-name="uni2074" horiz-adv-x="817" unicode="⁴"/><glyph d="M109 1434h538v-232h-295v-80q168 -2 259 -83t91 -208q0 -123 -88 -199.5t-247 -76.5q-166 0 -328 84l115 190q137 -59 202 -59q90 0 90 64q0 82 -176 81h-161v519z" glyph-name="uni2075" horiz-adv-x="757" unicode="⁵"/><glyph d="M655 1434l-209 -275h7q117 0 195.5 -75.5t78.5 -202.5q0 -143 -96 -234.5t-240 -91.5q-141 0 -240.5 93t-99.5 224q0 80 30 141.5t95 153.5l193 267h286zM389 983q-41 0 -67.5 -29.5t-26.5 -72.5t26.5 -72t67.5 -29t67.5 29t26.5 72t-26.5 72.5t-67.5 29.5z" glyph-name="uni2076" horiz-adv-x="772" unicode="⁶"/><glyph d="M51 1192v242h594v-203l-283 -662h-284l282 623h-309z" glyph-name="uni2077" horiz-adv-x="686" unicode="⁷"/><glyph d="M764 811q0 -123 -102.5 -189.5t-251.5 -66.5q-145 0 -249 66.5t-104 189.5q0 141 140 209q-109 57 -109 176q0 117 96.5 183.5t227.5 66.5t225 -65.5t94 -184.5q0 -117 -108 -174q141 -70 141 -211zM508 840q0 37 -24.5 63.5t-73.5 26.5q-45 0 -71 -28t-26 -62 q0 -37 24.5 -61.5t72.5 -24.5q49 0 73.5 24.5t24.5 61.5zM492 1184q0 29 -20.5 49t-61.5 20q-37 0 -58.5 -20.5t-21.5 -48.5q0 -31 21.5 -52.5t58.5 -21.5q39 0 60.5 21.5t21.5 52.5z" glyph-name="uni2078" horiz-adv-x="821" unicode="⁸"/><glyph d="M117 567l209 275h-7q-117 0 -195.5 75.5t-78.5 202.5q0 143 96.5 234.5t239.5 91.5q141 0 240.5 -93t99.5 -225q0 -80 -29.5 -141t-95.5 -153l-193 -267h-286zM383 1018q41 0 67.5 29.5t26.5 72.5t-26.5 72t-67.5 29t-67.5 -29t-26.5 -72t26.5 -72.5t67.5 -29.5z" glyph-name="uni2079" horiz-adv-x="774" unicode="⁹"/><glyph d="M61 35q0 197 94.5 321.5t276.5 124.5t277.5 -125t95.5 -321q0 -195 -94.5 -320t-278.5 -125q-182 0 -276.5 125t-94.5 320zM326 35q0 -100 28.5 -153.5t77.5 -53.5q106 0 107 207q0 209 -106.5 209t-106.5 -209z" glyph-name="uni2080" horiz-adv-x="866" unicode="₀"/><glyph d="M203 -395v553l-154 -82v276l217 117h211v-864h-274z" glyph-name="uni2081" horiz-adv-x="573" unicode="₁"/><glyph d="M705 -162v-233h-637v194q369 270 368 394q0 63 -55 63q-70 0 -70 -104v-19h-248v23q0 164 97.5 244.5t228.5 80.5q127 0 217 -75.5t90 -198.5q0 -182 -213 -369h222z" glyph-name="uni2082" horiz-adv-x="774" unicode="₂"/><glyph d="M43 -326l117 203q119 -59 198.5 -59t79.5 51q0 72 -184 72v180q174 0 174 92q0 61 -59 61q-66 0 -66 -75v-6h-242v26q0 127 92.5 194.5t217.5 67.5t216 -67.5t91 -186.5q0 -123 -109 -188q129 -57 129 -191q0 -117 -90 -187.5t-243 -70.5q-168 0 -322 84z" glyph-name="uni2083" horiz-adv-x="757" unicode="₃"/><glyph d="M676 -395h-244v145h-387v191l191 528h272l-193 -489h117v172l244 73v-245h94v-230h-94v-145z" glyph-name="uni2084" horiz-adv-x="817" unicode="₄"/><glyph d="M109 469h538v-231h-295v-80q168 -2 259 -83t91 -208q0 -123 -88 -200t-247 -77q-166 0 -328 84l115 191q137 -59 202 -60q90 0 90 64q0 82 -176 82h-161v518z" glyph-name="uni2085" horiz-adv-x="757" unicode="₅"/><glyph d="M655 469l-209 -274h7q117 0 195.5 -76t78.5 -203q0 -143 -96 -234.5t-240 -91.5q-141 0 -240.5 93.5t-99.5 224.5q0 80 30 141.5t95 153.5l193 266h286zM389 18q-41 0 -67.5 -29.5t-26.5 -72.5t26.5 -71.5t67.5 -28.5t67.5 28.5t26.5 71.5t-26.5 72.5t-67.5 29.5z" glyph-name="uni2086" horiz-adv-x="772" unicode="₆"/><glyph d="M49 227v242h594v-203l-283 -661h-284l282 622h-309z" glyph-name="uni2087" horiz-adv-x="686" unicode="₇"/><glyph d="M764 -154q0 -123 -102.5 -189.5t-251.5 -66.5q-145 0 -249 67t-104 189q0 141 140 209q-109 57 -109 176q0 117 96.5 183.5t227.5 66.5t225 -65.5t94 -184.5q0 -117 -108 -174q141 -70 141 -211zM508 -125q0 37 -24.5 63.5t-73.5 26.5q-45 0 -71 -27.5t-26 -62.5 q0 -37 24.5 -61.5t72.5 -24.5q49 0 73.5 24.5t24.5 61.5zM492 219q0 29 -20.5 49.5t-61.5 20.5q-37 0 -58.5 -20.5t-21.5 -49.5q0 -31 21.5 -52.5t58.5 -21.5q39 0 60.5 21.5t21.5 52.5z" glyph-name="uni2088" horiz-adv-x="821" unicode="₈"/><glyph d="M117 -397l209 274h-7q-117 0 -195.5 76t-78.5 203q0 143 96.5 234t239.5 91q141 0 240.5 -93t99.5 -224q0 -80 -29.5 -141.5t-95.5 -153.5l-193 -266h-286zM383 53q41 0 67.5 30t26.5 73t-26.5 71.5t-67.5 28.5t-67.5 -28.5t-26.5 -71.5t26.5 -73t67.5 -30z" glyph-name="uni2089" horiz-adv-x="774" unicode="₉"/><glyph d="M102 737v248l170 51v398h381v-281l412 125v-246l-412 -127v-71l412 127v-246l-412 -127v-258h72q106 0 148 62.5t61 191.5l373 -68q-43 -285 -180.5 -400.5t-452.5 -115.5h-402v471l-170 -51v246l170 51v71z" glyph-name="lira" horiz-adv-x="1363" unicode="₤"/><glyph d="M834 0h-400l-69 393h-269v271h221l-16 86h-205v270h158l-74 414h371l121 -877l127 877h342l125 -881l123 881h368l-74 -414h160v-270h-207l-14 -86h221v-271h-268l-70 -393h-399l-137 854z" glyph-name="uni20A9" horiz-adv-x="1937" unicode="₩"/><glyph d="M1098 664l-58 -203h-391q98 -152 277 -152q152 0 254 97l219 -244q-199 -186 -477 -187q-236 0 -419.5 133.5t-256.5 352.5h-172v203h133q-2 16 -2 53v39h-131v205h168q72 223 257 360t423 137q287 0 479 -180l-219 -246q-102 92 -256 92q-182 0 -283 -163h535l-60 -205 h-538v-39q0 -37 2 -53h516z" glyph-name="Euro" horiz-adv-x="1464" unicode="€"/><glyph d="M137 854v201h348q-49 117 -198 116h-150v263h955l-58 -201h-248q57 -72 84 -178h222l-58 -201h-149q-27 -283 -262 -399l376 -455h-458l-404 492v229h150q162 0 205 133h-355z" glyph-name="uni20B9" horiz-adv-x="1153" unicode="₹"/><glyph d="M106 186v244h109v70h-109v305h109v629h545q244 0 372 -131.5t128 -337.5q0 -203 -132.5 -334t-373.5 -131h-179v-70h316v-244h-316v-186h-360v186h-109zM575 805h144q84 0 127 43t43 117q0 76 -43 119.5t-127 43.5h-144v-323z" glyph-name="uni20BD" horiz-adv-x="1320" unicode="₽"/><glyph d="M184 268l-135 217q137 82 187 113v498q0 227 112.5 348t292.5 121q162 0 269.5 -96.5t107.5 -280.5q0 -317 -420 -647v-140q0 -51 21.5 -78.5t56.5 -27.5q66 0 145 129l234 -172q-156 -276 -414 -277q-158 0 -258 92.5t-133 239.5zM598 1174v-291q166 172 166 313 q0 106 -84 107q-82 0 -82 -129z" glyph-name="afii61289" horiz-adv-x="1075" unicode="ℓ"/><glyph d="M1661 342v238h692v-238h-692zM528 0h-381v1434h388l604 -846v846h381v-1434h-387l-605 844v-844zM1608 1044.5q0 165.5 113.5 277.5t283.5 112q172 0 284.5 -112t112.5 -277.5t-112.5 -276.5t-284.5 -111q-170 0 -283.5 111t-113.5 276.5zM1876 1044q0 -63 37 -105 t92 -42q57 0 93 41t36 106.5t-36 106.5t-93 41t-93 -41t-36 -107z" glyph-name="afii61352" horiz-adv-x="2473" unicode="№"/><glyph d="M1399 858h-199v291l-115 -225h-90l-114 227v-293h-199v576h215l141 -285l146 285h215v-576zM63 1239v195h558v-195h-179v-381h-200v381h-179z" glyph-name="trademark" horiz-adv-x="1527" unicode="™"/><glyph d="M1475 694h-1125v-446q184 -190 447 -191q174 0 323.5 93.5t233.5 246.5l63 -41q-94 -170 -259 -272t-361 -102q-293 0 -503 216t-210 519q0 305 204 520t492 215q287 0 491 -215t204 -518v-25zM780 1376q-250 0 -430 -184v-422h858v424q-182 182 -428 182z" glyph-name="estimated" horiz-adv-x="1540" unicode="℮"/><glyph d="M457 0h-236l938 1434h238zM221 569v553l-153 -82v277l217 117h211v-865h-275zM1720 242q0 -123 -102 -189.5t-252 -66.5q-145 0 -248.5 66.5t-103.5 189.5q0 141 139 209q-109 57 -109 176q0 117 96.5 183.5t227.5 66.5t225.5 -66t94.5 -184q0 -117 -109 -174 q141 -70 141 -211zM1464 270q0 37 -24.5 63.5t-73.5 26.5q-45 0 -70.5 -27.5t-25.5 -62.5q0 -37 24.5 -61.5t71.5 -24.5q49 0 73.5 24.5t24.5 61.5zM1448 614q0 29 -20.5 49.5t-61.5 20.5q-37 0 -58.5 -20.5t-21.5 -49.5q0 -31 21.5 -52t58.5 -21q39 0 60.5 21t21.5 52z" glyph-name="oneeighth" horiz-adv-x="1781" unicode="⅛"/><glyph d="M604 0h-235l938 1434h237zM1868 242q0 -123 -102.5 -189.5t-252.5 -66.5q-145 0 -248.5 66.5t-103.5 189.5q0 141 139 209q-109 57 -108 176q0 117 96 183.5t227.5 66.5t225.5 -66t94 -184q0 -117 -109 -174q142 -70 142 -211zM1612 270q0 37 -24.5 63.5t-74.5 26.5 q-45 0 -70.5 -27.5t-25.5 -62.5q0 -37 24.5 -61.5t71.5 -24.5q49 0 74 24.5t25 61.5zM1595 614q0 29 -20.5 49.5t-61.5 20.5q-37 0 -58 -20.5t-21 -49.5q0 -31 21.5 -52t57.5 -21q39 0 60.5 21t21.5 52zM61 639l117 203q119 -59 199 -59.5t80 51.5q0 72 -185 71v180 q174 0 174 93q0 61 -59 61q-66 0 -65 -76v-6h-242v27q0 127 92 194.5t217 67.5t216 -67.5t91 -186.5q0 -123 -108 -188q129 -57 129 -191q0 -117 -90 -187.5t-244 -70.5q-168 0 -322 84z" glyph-name="threeeighths" horiz-adv-x="1929" unicode="⅜"/><glyph d="M606 0h-235l938 1434h237zM129 1434h539v-232h-295v-80q168 -2 259 -83t91 -208q0 -123 -88 -199.5t-248 -76.5q-166 0 -328 84l115 190q137 -59 203 -59q90 0 90 64q0 82 -176 81h-162v519zM1870 242q0 -123 -102.5 -189.5t-251.5 -66.5q-145 0 -249 66.5t-104 189.5 q0 141 140 209q-109 57 -109 176q0 117 96 183.5t227.5 66.5t225.5 -66t94 -184q0 -117 -108 -174q141 -70 141 -211zM1614 270q0 37 -24.5 63.5t-73.5 26.5q-45 0 -71 -27.5t-26 -62.5q0 -37 24.5 -61.5t72.5 -24.5q49 0 73.5 24.5t24.5 61.5zM1597 614q0 29 -20.5 49.5 t-60.5 20.5q-37 0 -58.5 -20.5t-21.5 -49.5q0 -31 21.5 -52t58.5 -21q39 0 60 21t21 52z" glyph-name="fiveeighths" horiz-adv-x="1935" unicode="⅝"/><glyph d="M428 0h-235l937 1434h238zM1694 242q0 -123 -102.5 -189.5t-252.5 -66.5q-145 0 -248.5 66.5t-103.5 189.5q0 141 139 209q-109 57 -108 176q0 117 96 183.5t227.5 66.5t225.5 -66t94 -184q0 -117 -109 -174q142 -70 142 -211zM1438 270q0 37 -24.5 63.5t-74.5 26.5 q-45 0 -70.5 -27.5t-25.5 -62.5q0 -37 24.5 -61.5t71.5 -24.5q49 0 74 24.5t25 61.5zM1421 614q0 29 -20.5 49.5t-61.5 20.5q-37 0 -58 -20.5t-21 -49.5q0 -31 21.5 -52t57.5 -21q39 0 60.5 21t21.5 52zM76 1192v242h594v-203l-283 -662h-285l283 623h-309z" glyph-name="seveneighths" horiz-adv-x="1753" unicode="⅞"/><glyph d="M928 150l-213 -209l-660 659l660 660l213 -209l-297 -295h708v-314h-706z" glyph-name="arrowleft" horiz-adv-x="1417" unicode="←"/><glyph d="M252 412l-209 213l657 659l662 -659l-209 -213l-295 295v-707h-313v707z" glyph-name="arrowup" horiz-adv-x="1404" unicode="↑"/><glyph d="M489 1051l213 209l660 -660l-660 -659l-213 209l293 292h-706v314h708z" glyph-name="arrowright" horiz-adv-x="1417" unicode="→"/><glyph d="M1151 848l209 -213l-660 -660l-659 660l209 213l293 -295v709h313v-709z" glyph-name="arrowdown" horiz-adv-x="1400" unicode="↓"/><glyph d="M420 70h-301v987h979v-303h-465l547 -547l-222 -217l-538 538v-458z" glyph-name="uni2196" horiz-adv-x="1259" unicode="↖"/><glyph d="M162 754v303h981v-987h-303v460l-541 -540l-219 217l545 547h-463z" glyph-name="uni2197" horiz-adv-x="1259" unicode="↗"/><glyph d="M842 987h303v-987h-981v301h463l-545 549l219 217l541 -543v463z" glyph-name="uni2198" horiz-adv-x="1263" unicode="↘"/><glyph d="M963 1067l219 -217l-545 -547h463v-303h-981v987h303v-461z" glyph-name="uni2199" horiz-adv-x="1263" unicode="↙"/><glyph d="M311 1278l246 240q295 -240 443.5 -491t148.5 -488q0 -260 -153.5 -412t-383.5 -152q-231 0 -386.5 147.5t-155.5 373.5q0 207 130 340t314 133q80 0 145 -25q-94 123 -348 334zM791 502v2q0 82 -53.5 134t-131.5 52t-128 -54t-50 -138t51 -139.5t129 -55.5 q80 0 131.5 55.5t51.5 143.5z" glyph-name="partialdiff" horiz-adv-x="1224" unicode="∂"/><glyph d="M913 1434l492 -1434h-1362l492 1434h378zM723 993l-209 -671h418z" glyph-name="uni2206" horiz-adv-x="1447" unicode="∆"/><glyph d="M1481 1434v-351h-164v-1083h-371v1083h-336v-1083h-368v1083h-164v351h1403z" glyph-name="product" horiz-adv-x="1558" unicode="∏"/><glyph d="M90 -238v293l494 545l-494 541v293h1143v-336h-639l455 -498l-455 -504h639v-334h-1143z" glyph-name="summation" horiz-adv-x="1318" unicode="∑"/><glyph d="M920 827v-311h-797v311h797z" glyph-name="minus" horiz-adv-x="1042" unicode="−"/><glyph d="M489 694l142 -499l467 1239h385l-672 -1672h-385l-190 600h-203v332h456z" glyph-name="radical" horiz-adv-x="1449" unicode="√"/><glyph d="M1270 1061q180 0 288.5 -111.5t108.5 -277.5q0 -164 -109.5 -275.5t-287.5 -111.5q-190 0 -393 204q-201 -205 -394 -204q-180 0 -289.5 111.5t-109.5 275.5q0 166 109.5 277.5t289.5 111.5q96 0 186.5 -45t207.5 -162q111 115 203 161t190 46zM1270 551q57 0 93 35 t36 86q0 49 -36 85t-93 36q-98 0 -219 -121q119 -121 219 -121zM481 793q-57 0 -93 -36t-36 -85q0 -51 36 -86t93 -35q98 0 217 121q-121 121 -217 121z" glyph-name="infinity" horiz-adv-x="1753" unicode="∞"/><glyph d="M-18 -391l71 301q82 -27 150 -27q117 0 116 127v1006q0 219 110 330.5t296 111.5q154 0 307 -57l-69 -301q-86 27 -150 26q-119 0 -119 -127v-1005q0 -221 -109.5 -332t-295.5 -111q-153 1 -307 58z" glyph-name="integral" horiz-adv-x="1015" unicode="∫"/><glyph d="M313 688l-217 109q47 133 110.5 205.5t166.5 72.5q68 0 159 -42t113 -42q53 0 88 90l217 -104q-47 -133 -110.5 -207t-163.5 -74q-68 0 -160 42t-115 42q-53 0 -88 -92zM313 264l-217 105q47 135 110.5 207.5t166.5 72.5q68 0 159 -42t113 -42q53 0 88 90l217 -106 q-47 -133 -110.5 -206t-163.5 -73q-68 0 -160 42t-115 42q-53 0 -88 -90z" glyph-name="approxequal" horiz-adv-x="1044" unicode="≈"/><glyph d="M125 739v305h469l102 220l201 -90l-61 -130h125v-305h-267l-61 -133h328v-305h-469l-103 -219l-201 90l60 129h-123v305h266l62 133h-328z" glyph-name="notequal" horiz-adv-x="1085" unicode="≠"/><glyph d="M113 709v346l833 323v-344l-444 -147l444 -156v-346zM946 336v-307h-833v307h833z" glyph-name="lessequal" horiz-adv-x="1079" unicode="≤"/><glyph d="M967 1055v-346l-834 -324v346l445 156l-445 147v344zM133 29v307h834v-307h-834z" glyph-name="greaterequal" horiz-adv-x="1079" unicode="≥"/><glyph d="M94 717q0 307 216 523t526 216q307 0 524 -216t217 -523t-217 -523.5t-524 -216.5q-309 0 -525.5 216.5t-216.5 523.5zM317 717q0 -219 150.5 -373t368.5 -154q215 0 366.5 153t151.5 374q0 219 -150.5 372.5t-368 153.5t-368 -153.5t-150.5 -372.5zM633 770v191l186 92 h148v-672h-191v463z" glyph-name="uni2460" unicode="①"/><glyph d="M94 717q0 307 216 523t526 216q307 0 524 -216t217 -523t-217 -523.5t-524 -216.5q-309 0 -525.5 216.5t-216.5 523.5zM317 717q0 -219 150.5 -373t368.5 -154q215 0 366.5 153t151.5 374q0 219 -150.5 372.5t-368 153.5t-368 -153.5t-150.5 -372.5zM1106 588v-180h-528 v149q326 203 325 305q0 25 -17.5 42.5t-45.5 17.5q-74 0 -74 -88v-11h-188v15q0 127 79.5 190.5t186 63.5t180.5 -61.5t74 -160.5q0 -158 -189 -282h197z" glyph-name="uni2461" unicode="②"/><glyph d="M94 717q0 307 216 523t526 216q307 0 524 -216t217 -523t-217 -523.5t-524 -216.5q-309 0 -525.5 216.5t-216.5 523.5zM317 717q0 -219 150.5 -373t368.5 -154q215 0 366.5 153t151.5 374q0 219 -150.5 372.5t-368 153.5t-368 -153.5t-150.5 -372.5zM565 455l92 155 q102 -47 168 -47q76 0 76 41q0 57 -162 58v139q147 0 148 71q0 20 -17.5 34t-40.5 14q-66 0 -65 -60v-2h-184v19q0 98 74.5 152t176.5 54q100 0 176 -53t76 -143q0 -96 -92 -150q113 -49 113 -153q0 -90 -75 -143.5t-200 -53.5q-137 0 -264 68z" glyph-name="uni2462" unicode="③"/><glyph d="M94 717q0 307 216 523t526 216q307 0 524 -216t217 -523t-217 -523.5t-524 -216.5q-309 0 -525.5 216.5t-216.5 523.5zM317 717q0 -219 150.5 -373t368.5 -154q215 0 366.5 153t151.5 374q0 219 -150.5 372.5t-368 153.5t-368 -153.5t-150.5 -372.5zM1047 399h-191v119 h-324v141l170 412h209l-170 -383h115v125l191 57v-182h90v-170h-90v-119z" glyph-name="uni2463" unicode="④"/><glyph d="M94 717q0 307 216 523t526 216q307 0 524 -216t217 -523t-217 -523.5t-524 -216.5q-309 0 -525.5 216.5t-216.5 523.5zM317 717q0 -219 150.5 -373t368.5 -154q215 0 366.5 153t151.5 374q0 219 -150.5 372.5t-368 153.5t-368 -153.5t-150.5 -372.5zM565 438l92 156 q106 -47 168 -47q76 0 76 47q0 63 -141 63h-133v398h438v-174h-254v-68h2q141 0 216 -62.5t75 -164.5q0 -96 -69.5 -155.5t-198.5 -59.5q-142 -1 -271 67z" glyph-name="uni2464" unicode="⑤"/><glyph d="M94 717q0 307 216 523t526 216q307 0 524 -216t217 -523t-217 -523.5t-524 -216.5q-309 0 -525.5 216.5t-216.5 523.5zM317 717q0 -219 150.5 -373t368.5 -154q215 0 366.5 153t151.5 374q0 219 -150.5 372.5t-368 153.5t-368 -153.5t-150.5 -372.5zM1034 1065l-164 -199 q102 -6 165 -68.5t63 -158.5q0 -111 -79 -184.5t-193.5 -73.5t-194.5 72.5t-80 175.5q0 66 24.5 115t77.5 116l160 205h221zM823 725q-41 0 -66.5 -24.5t-25.5 -63.5t25.5 -62.5t66.5 -23.5t68 23.5t27 62.5t-27 63.5t-68 24.5z" glyph-name="uni2465" unicode="⑥"/><glyph d="M94 717q0 307 216 523t526 216q307 0 524 -216t217 -523t-217 -523.5t-524 -216.5q-309 0 -525.5 216.5t-216.5 523.5zM317 717q0 -219 150.5 -373t368.5 -154q215 0 366.5 153t151.5 374q0 219 -150.5 372.5t-368 153.5t-368 -153.5t-150.5 -372.5zM614 862v182h498 v-155l-258 -516h-213l254 489h-281z" glyph-name="uni2466" unicode="⑦"/><glyph d="M94 717q0 307 216 523t526 216q307 0 524 -216t217 -523t-217 -523.5t-524 -216.5q-309 0 -525.5 216.5t-216.5 523.5zM317 717q0 -219 150.5 -373t368.5 -154q215 0 366.5 153t151.5 374q0 219 -150.5 372.5t-368 153.5t-368 -153.5t-150.5 -372.5zM1122 584 q0 -94 -83 -150.5t-201 -56.5q-117 0 -200 56t-83 151q0 111 98 161q-72 47 -71 140q0 86 75.5 137t182 51t181.5 -51t75 -137q0 -92 -72 -140q98 -50 98 -161zM930 602q0 29 -24.5 50.5t-67.5 21.5q-41 0 -65.5 -21.5t-24.5 -50.5t24.5 -50.5t65.5 -21.5q43 0 67.5 21.5 t24.5 50.5zM915 868q0 25 -19 42.5t-56 17.5t-57.5 -17.5t-20.5 -42.5q0 -20 20.5 -39.5t55.5 -19.5q37 0 57 19.5t20 39.5z" glyph-name="uni2467" unicode="⑧"/><glyph d="M94 717q0 307 216 523t526 216q307 0 524 -216t217 -523t-217 -523.5t-524 -216.5q-309 0 -525.5 216.5t-216.5 523.5zM317 717q0 -219 150.5 -373t368.5 -154q215 0 366.5 153t151.5 374q0 219 -150.5 372.5t-368 153.5t-368 -153.5t-150.5 -372.5zM637 381l164 199 q-102 6 -165 68.5t-63 158.5q0 111 79 184.5t194 73.5t194.5 -72.5t79.5 -175.5q0 -66 -24.5 -115t-77.5 -116l-160 -205h-221zM848 721q41 0 66.5 24.5t25.5 63.5t-25.5 62.5t-66.5 23.5t-67.5 -23.5t-26.5 -62.5t26.5 -63.5t67.5 -24.5z" glyph-name="uni2468" unicode="⑨"/><glyph d="M94 717q0 307 216 523t526 216q307 0 524 -216t217 -523t-217 -523.5t-524 -216.5q-309 0 -525.5 216.5t-216.5 523.5zM317 717q0 -219 150.5 -373t368.5 -154q215 0 366.5 153t151.5 374q0 219 -150.5 372.5t-368 153.5t-368 -153.5t-150.5 -372.5zM526 716.5 q0 151.5 79 250t230.5 98.5t229.5 -98.5t78 -250t-78 -249.5t-229.5 -98t-230.5 98t-79 249.5zM723 717q0 -174 113 -174q111 0 110.5 174t-110.5 174q-113 0 -113 -174z" glyph-name="uni24EA" unicode="⓪"/><glyph d="M94 717q0 307 216 523t526 216q307 0 524 -216t217 -523t-217 -523.5t-524 -216.5q-309 0 -525.5 216.5t-216.5 523.5zM526 716.5q0 -151.5 79 -249.5t230.5 -98t229.5 98t78 249.5t-78 250t-229.5 98.5t-230.5 -98.5t-79 -250zM723 717q0 174 113 174q111 0 110.5 -174 t-110.5 -174q-113 0 -113 174z" glyph-name="uni24FF" unicode="⓿"/><glyph d="M1065 717l-506 -742l-506 742l506 741zM561 453l184 264l-184 264l-188 -264z" glyph-name="lozenge" horiz-adv-x="1118" unicode="◊"/><glyph d="M94 717q0 307 216 523t526 216q307 0 524 -216t217 -523t-217 -523.5t-524 -216.5q-309 0 -525.5 216.5t-216.5 523.5zM317 717q0 -219 150.5 -373t368.5 -154q215 0 366.5 153t151.5 374q0 219 -150.5 372.5t-368 153.5t-368 -153.5t-150.5 -372.5z" glyph-name="circle" unicode="○"/><glyph d="M94 717q0 307 216 523t526 216q307 0 524 -216t217 -523t-217 -523.5t-524 -216.5q-309 0 -525.5 216.5t-216.5 523.5z" glyph-name="H18533" unicode="●"/><glyph d="M94 717q0 307 216 523t526 216q307 0 524 -216t217 -523t-217 -523.5t-524 -216.5q-309 0 -525.5 216.5t-216.5 523.5zM633 961v-191l143 74v-463h191v672h-148z" glyph-name="uni2776" unicode="❶"/><glyph d="M94 717q0 307 216 523t526 216q307 0 524 -216t217 -523t-217 -523.5t-524 -216.5q-309 0 -525.5 216.5t-216.5 523.5zM1106 408v180h-197q188 125 189 282q0 98 -74 160t-180.5 62t-186 -63.5t-79.5 -190.5v-15h188v11q0 88 74 88q29 0 46 -17.5t17 -42.5 q0 -102 -325 -305v-149h528z" glyph-name="uni2777" unicode="❷"/><glyph d="M94 717q0 307 216 523t526 216q307 0 524 -216t217 -523t-217 -523.5t-524 -216.5q-309 0 -525.5 216.5t-216.5 523.5zM856 399h191v119h90v170h-90v182l-191 -57v-125h-115l170 383h-209l-170 -412v-141h324v-119z" glyph-name="uni2779" unicode="❹"/><glyph d="M94 717q0 307 216 523t526 216q307 0 524 -216t217 -523t-217 -523.5t-524 -216.5q-309 0 -525.5 216.5t-216.5 523.5zM657 594l-92 -156q129 -68 271 -67q129 0 198.5 59t69.5 156q0 102 -75 164.5t-216 62.5h-2v68h254v174h-438v-398h133q141 0 141 -63q0 -47 -76 -47 q-62 0 -168 47z" glyph-name="uni2780" unicode="➀"/><glyph d="M94 717q0 307 216 523t526 216q307 0 524 -216t217 -523t-217 -523.5t-524 -216.5q-309 0 -525.5 216.5t-216.5 523.5zM870 866l164 199h-221l-160 -205q-53 -68 -77.5 -117t-24.5 -114q0 -102 80 -175t194.5 -73t193.5 73.5t79 184.5q0 96 -63 158.5t-165 68.5zM823 725 q41 0 68 -24.5t27 -63.5t-27 -62.5t-68 -23.5t-66.5 23.5t-25.5 62.5t25.5 63.5t66.5 24.5z" glyph-name="uni2781" unicode="➁"/><glyph d="M94 717q0 307 216 523t526 216q307 0 524 -216t217 -523t-217 -523.5t-524 -216.5q-309 0 -525.5 216.5t-216.5 523.5zM614 1044v-182h281l-254 -489h213l258 516v155h-498z" glyph-name="uni2782" unicode="➂"/><glyph d="M94 717q0 307 216 523t526 216q307 0 524 -216t217 -523t-217 -523.5t-524 -216.5q-309 0 -525.5 216.5t-216.5 523.5zM1122 584q0 111 -98 161q72 47 72 140q0 86 -75 137t-181.5 51t-182 -51t-75.5 -137q0 -92 71 -140q-98 -51 -98 -161q0 -94 83 -150.5t200 -56.5 q119 0 201.5 56.5t82.5 150.5zM930 602q0 -29 -24.5 -50.5t-67.5 -21.5q-41 0 -65.5 21.5t-24.5 50.5t24.5 50.5t65.5 21.5q43 0 67.5 -21.5t24.5 -50.5zM915 868q0 -20 -20.5 -39.5t-56.5 -19.5q-35 0 -55.5 19.5t-20.5 39.5q0 25 20.5 42.5t57.5 17.5t56 -17.5t19 -42.5z " glyph-name="uni2783" unicode="➃"/><glyph d="M94 717q0 307 216 523t526 216q307 0 524 -216t217 -523t-217 -523.5t-524 -216.5q-309 0 -525.5 216.5t-216.5 523.5zM801 580l-164 -199h221l160 205q53 68 77.5 117t24.5 114q0 102 -79.5 175t-194.5 73t-194 -73.5t-79 -184.5q0 -96 63 -158.5t165 -68.5zM848 721 q-41 0 -67.5 24.5t-26.5 63.5t26.5 62.5t67.5 23.5t66.5 -23.5t25.5 -62.5t-25.5 -63.5t-66.5 -24.5z" glyph-name="uni2784" unicode="➄"/><glyph d="M94 717q0 307 216 523t526 216q307 0 524 -216t217 -523t-217 -523.5t-524 -216.5q-309 0 -525.5 216.5t-216.5 523.5zM657 610l-92 -155q127 -68 264 -68q125 0 200 53.5t75 143.5q0 104 -113 153q92 53 92 150q0 90 -75.5 143t-176.5 53q-102 0 -176.5 -54t-74.5 -152 v-19h184v2q0 59 65 60q23 0 40.5 -13.5t17.5 -34.5q0 -72 -148 -71v-139q162 0 162 -58q0 -41 -76 -41q-66 0 -168 47z" glyph-name="uni2786" unicode="➆"/><glyph d="M410 1434q129 0 206 -84v67h261v-745h-261v67q-78 -82 -206 -82q-156 0 -247 110t-91 277.5t92 278.5t246 111zM618 1044.5q0 69.5 -38.5 115.5t-100 46t-101.5 -46t-40 -116q0 -68 40 -113.5t101.5 -45.5t100 45t38.5 114.5z" glyph-name="uniE001" horiz-adv-x="1001" unicode=""/><glyph d="M532 1081q195 0 302 -147v123h372v-1057h-372v123q-104 -147 -302 -148q-211 0 -334.5 157t-123.5 394q0 242 123.5 398.5t334.5 156.5zM842 526q0 102 -55.5 165t-143.5 63q-90 0 -145.5 -63.5t-55.5 -164.5q0 -98 56.5 -160.5t144.5 -62.5t143.5 62.5t55.5 160.5z" glyph-name="uniE020" horiz-adv-x="1320" unicode=""/><glyph d="M727 358l123 -286q-164 -96 -338 -97q-410 0 -410 480v831l375 125v-354h307v-318h-307v-309q0 -117 101 -117q63 0 149 45z" glyph-name="uniE021" horiz-adv-x="864" unicode=""/><glyph d="M80 716.5q0 319.5 213 530.5t536 211q322 0 535 -211t213 -530q0 -174 -68.5 -322.5t-191.5 -251.5l328 -170l-166 -319l-572 326q-49 -4 -78 -5q-324 0 -536.5 211t-212.5 530.5zM481 717q0 -162 98.5 -270.5t249.5 -108.5q150 0 248.5 107.5t98.5 271.5 q0 162 -98.5 269.5t-248.5 107.5q-152 0 -250 -107.5t-98 -269.5z" glyph-name="uniE022" horiz-adv-x="1656" unicode=""/><glyph d="M532 1081q195 0 302 -147v123h372v-1057h-372v123q-104 -147 -302 -148q-211 0 -334.5 157t-123.5 394q0 242 123.5 398.5t334.5 156.5zM842 526q0 102 -55.5 165t-143.5 63q-90 0 -145.5 -63.5t-55.5 -164.5q0 -98 56.5 -160.5t144.5 -62.5t143.5 62.5t55.5 160.5z M848 1223l-240 -97l-282 301l243 201z" glyph-name="uniE030" horiz-adv-x="1320" unicode=""/><glyph d="M532 1081q195 0 302 -147v123h372v-1057h-372v123q-104 -147 -302 -148q-211 0 -334.5 157t-123.5 394q0 242 123.5 398.5t334.5 156.5zM842 526q0 102 -55.5 165t-143.5 63q-90 0 -145.5 -63.5t-55.5 -164.5q0 -98 56.5 -160.5t144.5 -62.5t143.5 62.5t55.5 160.5z M705 1126l-242 97l278 405l248 -201z" glyph-name="uniE031" horiz-adv-x="1320" unicode=""/><glyph d="M532 1081q195 0 302 -147v123h372v-1057h-372v123q-104 -147 -302 -148q-211 0 -334.5 157t-123.5 394q0 242 123.5 398.5t334.5 156.5zM842 526q0 102 -55.5 165t-143.5 63q-90 0 -145.5 -63.5t-55.5 -164.5q0 -98 56.5 -160.5t144.5 -62.5t143.5 62.5t55.5 160.5z M1012 1323l-156 -193l-197 130l-196 -130l-156 193l352 242z" glyph-name="uniE032" horiz-adv-x="1320" unicode=""/><glyph d="M532 1081q195 0 302 -147v123h372v-1057h-372v123q-104 -147 -302 -148q-211 0 -334.5 157t-123.5 394q0 242 123.5 398.5t334.5 156.5zM842 526q0 102 -55.5 165t-143.5 63q-90 0 -145.5 -63.5t-55.5 -164.5q0 -98 56.5 -160.5t144.5 -62.5t143.5 62.5t55.5 160.5z M528 1178h-249q-12 172 50 275t187 103q113 0 193 -94q8 -10 19 -25.5t17.5 -24.5t14.5 -15t14 -6q29 0 21 127h247q12 -172 -51 -275.5t-186 -103.5q-115 0 -193 96q-6 8 -18 23.5t-18.5 23.5t-14.5 15.5t-14 7.5q-31 0 -19 -127z" glyph-name="uniE033" horiz-adv-x="1320" unicode=""/><glyph d="M532 1081q195 0 302 -147v123h372v-1057h-372v123q-104 -147 -302 -148q-211 0 -334.5 157t-123.5 394q0 242 123.5 398.5t334.5 156.5zM842 526q0 102 -55.5 165t-143.5 63q-90 0 -145.5 -63.5t-55.5 -164.5q0 -98 56.5 -160.5t144.5 -62.5t143.5 62.5t55.5 160.5z M276 1317q0 74 50.5 124t126 50t127 -50t51.5 -124t-51.5 -124t-127 -50t-126 50t-50.5 124zM692 1317q0 74 50.5 124t126 50t125.5 -50t50 -124t-50 -124t-125.5 -50t-126 50t-50.5 124z" glyph-name="uniE034" horiz-adv-x="1320" unicode=""/><glyph d="M532 1081q195 0 302 -147v123h372v-1057h-372v123q-104 -147 -302 -148q-211 0 -334.5 157t-123.5 394q0 242 123.5 398.5t334.5 156.5zM842 526q0 102 -55.5 165t-143.5 63q-90 0 -145.5 -63.5t-55.5 -164.5q0 -98 56.5 -160.5t144.5 -62.5t143.5 62.5t55.5 160.5z M391 1388.5q0 110.5 79 187.5t189.5 77t189.5 -77t79 -187.5t-79 -187.5t-189.5 -77t-189.5 77t-79 187.5zM582 1389q0 -33 22.5 -56.5t52.5 -23.5q35 0 57.5 23.5t22.5 56.5q0 35 -22.5 57t-57.5 22q-31 0 -53 -22t-22 -57z" glyph-name="uniE035" horiz-adv-x="1320" unicode=""/><glyph d="M532 1081q195 0 302 -147v123h372v-1057h-372v123q-104 -147 -302 -148q-211 0 -334.5 157t-123.5 394q0 242 123.5 398.5t334.5 156.5zM842 526q0 102 -55.5 165t-143.5 63q-90 0 -145.5 -63.5t-55.5 -164.5q0 -98 56.5 -160.5t144.5 -62.5t143.5 62.5t55.5 160.5z M967 1458v-276h-615v276h615z" glyph-name="uniE036" horiz-adv-x="1320" unicode=""/><glyph d="M532 1081q195 0 302 -147v123h372v-1057h-372v123q-104 -147 -302 -148q-211 0 -334.5 157t-123.5 394q0 242 123.5 398.5t334.5 156.5zM842 526q0 102 -55.5 165t-143.5 63q-90 0 -145.5 -63.5t-55.5 -164.5q0 -98 56.5 -160.5t144.5 -62.5t143.5 62.5t55.5 160.5z M766 1518l235 -72q-35 -135 -124 -217t-218 -82t-218 83t-122 216l234 72q31 -117 106 -117q80 0 107 117z" glyph-name="uniE037" horiz-adv-x="1320" unicode=""/><glyph d="M532 1081q195 0 302 -147v123h372v-1057q-170 -135 -170 -233q0 -59 64 -60q23 0 53 8l49 -233q-53 -18 -123 -19q-119 0 -193.5 59.5t-74.5 164.5q0 166 207 313h-184v123q-104 -147 -302 -148q-211 0 -334.5 157t-123.5 394q0 242 123.5 398.5t334.5 156.5zM842 526 q0 102 -55.5 165t-143.5 63q-90 0 -145.5 -63.5t-55.5 -164.5q0 -98 56.5 -160.5t144.5 -62.5t143.5 62.5t55.5 160.5z" glyph-name="uniE038" horiz-adv-x="1320" unicode=""/><glyph d="M1876 352l166 -225q-178 -152 -434 -152q-287 0 -434 195v-170h-306v143q-104 -168 -331 -168q-211 0 -337 157t-126 394q0 242 126 398.5t343 156.5q223 0 325 -170v146h306v-176q145 201 409 200q229 0 371.5 -152.5t142.5 -361.5q0 -72 -18 -147h-672 q51 -156 227 -156q129 0 242 88zM842 526q0 100 -55.5 164t-143.5 64t-144.5 -63.5t-56.5 -164.5q0 -96 56.5 -159.5t144.5 -63.5t143.5 62.5t55.5 160.5zM1577 799q-152 0 -182 -176h354q-10 80 -54 128t-118 48z" glyph-name="uniE039" horiz-adv-x="2166" unicode=""/><glyph d="M1876 352l166 -225q-178 -152 -434 -152q-287 0 -434 195v-170h-306v143q-104 -168 -331 -168q-211 0 -337 157t-126 394q0 242 126 398.5t343 156.5q223 0 325 -170v146h306v-176q145 201 409 200q229 0 371.5 -152.5t142.5 -361.5q0 -72 -18 -147h-672 q51 -156 227 -156q129 0 242 88zM842 526q0 100 -55.5 164t-143.5 64t-144.5 -63.5t-56.5 -164.5q0 -96 56.5 -159.5t144.5 -63.5t143.5 62.5t55.5 160.5zM1577 799q-152 0 -182 -176h354q-10 80 -54 128t-118 48zM1135 1126l-242 97l278 405l248 -201z" glyph-name="uniE040" horiz-adv-x="2166" unicode=""/><glyph d="M1081 1268l162 -226q-117 -74 -168 -122q74 -92 74 -215q0 -174 -136 -275.5t-374 -101.5q-119 0 -213 24q-35 -16 -35 -47q0 -45 70 -45h323q250 0 354.5 -90t104.5 -227q0 -184 -166 -274.5t-448 -90.5q-258 0 -387 67.5t-129 190.5q0 102 90 172q-137 70 -137 217 q0 156 157 238q-94 98 -94 242q0 174 136 274t374 100q139 0 244 -37q83 185 198 226zM492 704.5q0 -55.5 38.5 -86t108.5 -30.5t108.5 30.5t38.5 86t-39.5 87t-107.5 31.5t-107.5 -31.5t-39.5 -87zM758 -35h-283q-33 -25 -33 -63q0 -72 201 -72q233 0 234 78q0 57 -119 57z " glyph-name="uniE044" horiz-adv-x="1275" unicode=""/><glyph d="M1081 1268l162 -226q-117 -74 -168 -122q74 -92 74 -215q0 -174 -136 -275.5t-374 -101.5q-119 0 -213 24q-35 -16 -35 -47q0 -45 70 -45h323q250 0 354.5 -90t104.5 -227q0 -184 -166 -274.5t-448 -90.5q-258 0 -387 67.5t-129 190.5q0 102 90 172q-137 70 -137 217 q0 156 157 238q-94 98 -94 242q0 174 136 274t374 100q139 0 244 -37q83 185 198 226zM492 704.5q0 -55.5 38.5 -86t108.5 -30.5t108.5 30.5t38.5 86t-39.5 87t-107.5 31.5t-107.5 -31.5t-39.5 -87zM758 -35h-283q-33 -25 -33 -63q0 -72 201 -72q233 0 234 78q0 57 -119 57z M745 1518l236 -72q-35 -135 -124 -217t-218 -82t-218 83t-122 216l233 72q31 -117 107 -117q79 0 106 117z" glyph-name="uniE045" horiz-adv-x="1275" unicode=""/><glyph d="M1081 1268l162 -226q-117 -74 -168 -122q74 -92 74 -215q0 -174 -136 -275.5t-374 -101.5q-119 0 -213 24q-35 -16 -35 -47q0 -45 70 -45h323q250 0 354.5 -90t104.5 -227q0 -184 -166 -274.5t-448 -90.5q-258 0 -387 67.5t-129 190.5q0 102 90 172q-137 70 -137 217 q0 156 157 238q-94 98 -94 242q0 174 136 274t374 100q139 0 244 -37q83 185 198 226zM492 704.5q0 -55.5 38.5 -86t108.5 -30.5t108.5 30.5t38.5 86t-39.5 87t-107.5 31.5t-107.5 -31.5t-39.5 -87zM758 -35h-283q-33 -25 -33 -63q0 -72 201 -72q233 0 234 78q0 57 -119 57z M463 1317q0 74 50 124t126 50t127 -50t51 -124t-51 -124t-127 -50t-126 50t-50 124z" glyph-name="uniE046" horiz-adv-x="1275" unicode=""/><glyph d="M1081 1268l162 -226q-117 -74 -168 -122q74 -92 74 -215q0 -174 -136 -275.5t-374 -101.5q-119 0 -213 24q-35 -16 -35 -47q0 -45 70 -45h323q250 0 354.5 -90t104.5 -227q0 -184 -166 -274.5t-448 -90.5q-258 0 -387 67.5t-129 190.5q0 102 90 172q-137 70 -137 217 q0 156 157 238q-94 98 -94 242q0 174 136 274t374 100q139 0 244 -37q83 185 198 226zM492 704.5q0 -55.5 38.5 -86t108.5 -30.5t108.5 30.5t38.5 86t-39.5 87t-107.5 31.5t-107.5 -31.5t-39.5 -87zM758 -35h-283q-33 -25 -33 -63q0 -72 201 -72q233 0 234 78q0 57 -119 57z M590 -1065l-115 109q137 109 146 184q-66 -10 -122.5 35t-56.5 114q0 63 45 111.5t123 48.5q80 0 133.5 -55t53.5 -162q0 -119 -62.5 -218t-144.5 -167z" glyph-name="uniE047" horiz-adv-x="1275" unicode=""/><glyph d="M727 358l123 -286q-164 -96 -338 -97q-410 0 -410 480v831l375 125v-354h307v-318h-307v-309q0 -117 101 -117q63 0 149 45zM446 -694l-114 108q137 109 145 185q-66 -10 -122 34.5t-56 114.5q0 63 45 111.5t123 48.5q80 0 133 -55.5t53 -161.5q0 -119 -62.5 -218 t-144.5 -167z" glyph-name="uniE050" horiz-adv-x="864" unicode=""/><glyph d="M727 358l123 -286q-164 -96 -338 -97q-410 0 -410 480v831l375 125v-354h307v-318h-307v-309q0 -117 101 -117q63 0 149 45zM674 1128l-115 109q137 109 146 184q-66 -10 -122.5 35t-56.5 115q0 63 45 111.5t123 48.5q80 0 133.5 -55.5t53.5 -162.5q0 -119 -62.5 -218 t-144.5 -167z" glyph-name="uniE051" horiz-adv-x="864" unicode=""/><glyph d="M727 358l123 -286q-164 -96 -338 -97h-12l-19 -57q82 -20 128 -78.5t46 -140.5q0 -96 -70.5 -163.5t-199.5 -67.5q-111 0 -248 57l90 199q86 -41 142 -41q66 0 65 47q0 31 -27.5 46t-76.5 11l-47 68l69 143q-250 80 -250 457v831l375 125v-354h307v-318h-307v-309 q0 -117 101 -117q63 0 149 45z" glyph-name="uniE052" horiz-adv-x="864" unicode=""/><glyph d="M727 358l123 -286q-164 -96 -338 -97q-410 0 -410 480v831l375 125v-354h307v-318h-307v-86h223v-194h-223v-29q0 -117 101 -117q63 0 149 45z" glyph-name="uniE053" horiz-adv-x="866" unicode=""/><glyph d="M449 590q0 -123 54 -197t146 -74t146.5 74t54.5 197q0 125 -54.5 198.5t-146.5 73.5t-146 -73.5t-54 -198.5zM84 590q0 272 156.5 444t408.5 172t408.5 -172t156.5 -444q0 -270 -156.5 -442.5t-408.5 -172.5t-408.5 172.5t-156.5 442.5z" glyph-name="uniE100" horiz-adv-x="1298" unicode=""/><glyph d="M70 604v385l356 193h299v-1182h-381v752z" glyph-name="uniE101" horiz-adv-x="854" unicode=""/><glyph d="M1124 326v-326h-1026v274q266 125 411.5 222.5t180.5 148.5t35 107q0 47 -30.5 76.5t-84.5 29.5q-137 0 -137 -188v-13h-381v21q0 135 47 240.5t125 166t168 91t186 30.5q207 0 352.5 -119.5t145.5 -310.5q0 -272 -338 -450h346z" glyph-name="uniE102" horiz-adv-x="1224" unicode=""/><glyph d="M31 -137l159 297q229 -106 367 -107q80 0 123 30t43 81q0 143 -346 143v299q172 0 244.5 50.5t72.5 117.5q0 57 -36.5 87t-88.5 30q-59 0 -100 -34t-41 -103v-9h-367v37q0 201 152 312.5t354 111.5q205 0 354.5 -110.5t149.5 -292.5q0 -227 -225 -336q264 -90 264 -332 q0 -190 -148.5 -300.5t-396.5 -110.5q-268 0 -534 139z" glyph-name="uniE103" horiz-adv-x="1189" unicode=""/><glyph d="M1085 -252h-366v260h-645v283l332 891h413l-346 -858h246v329l366 117v-446h175v-316h-175v-260z" glyph-name="uniE104" horiz-adv-x="1306" unicode=""/><glyph d="M45 -137l160 297q221 -106 362 -107q82 0 125 35t43 94q0 166 -342 166h-231v834h870v-342h-497v-183h16q279 0 426 -131t147 -342q0 -205 -142 -332.5t-404 -127.5q-267 0 -533 139z" glyph-name="uniE105" horiz-adv-x="1193" unicode=""/><glyph d="M1044 1434l-354 -453q10 2 29 2q186 0 317 -133t131 -346q0 -231 -156.5 -380t-390 -149t-392 149.5t-158.5 371.5q0 127 51 239.5t147 245.5l328 453h448zM621 696q-82 0 -137.5 -55t-55.5 -141t53.5 -140.5t137 -54.5t139 55.5t55.5 139.5q0 86 -54 141t-138 55z" glyph-name="uniE106" horiz-adv-x="1234" unicode=""/><glyph d="M59 819v363h990v-305l-504 -1129h-441l510 1071h-555z" glyph-name="uniE107" horiz-adv-x="1095" unicode=""/><glyph d="M1219 412q0 -207 -166 -322t-405.5 -115t-404.5 115t-165 322q0 240 229 344q-174 98 -174 303q0 190 151.5 294.5t364.5 104.5q215 0 365.5 -104.5t150.5 -294.5q0 -205 -178 -303q232 -106 232 -344zM842 449q0 68 -51.5 117.5t-143.5 49.5q-90 0 -141 -50t-51 -117 q0 -70 51 -119t141 -49q92 0 143.5 49t51.5 119zM811 1026q0 57 -41 96t-121 39t-123 -39t-43 -96q0 -55 43 -98t123 -43t121 43t41 98z" glyph-name="uniE108" horiz-adv-x="1298" unicode=""/><glyph d="M188 -252l355 453q-10 -2 -29 -2q-186 0 -317 133t-131 346q0 231 156.5 379.5t390 148.5t392 -149.5t158.5 -370.5q0 -127 -51 -239.5t-147 -245.5l-328 -453h-449zM612 485q82 0 137.5 55.5t55.5 141.5t-53.5 140.5t-137.5 54.5t-139 -55.5t-55 -139.5q0 -86 54 -141.5 t138 -55.5z" glyph-name="uniE109" horiz-adv-x="1234" unicode=""/><glyph d="M53 717q0 322 142.5 531.5t417 209.5t416.5 -210t142 -531.5t-142 -531.5t-417 -210q-186 0 -315 103.5t-186.5 266.5t-57.5 372zM434 716.5q0 -188.5 48 -289.5t130 -101t128 101t46 289.5t-46 289t-128 100.5t-130 -100.5t-48 -289z" glyph-name="uniE120" horiz-adv-x="1224" unicode=""/><glyph d="M154 856v385l387 193h295v-1082h303v-352h-985v352h301v658z" glyph-name="uniE121" horiz-adv-x="1224" unicode=""/><glyph d="M1135 342v-342h-1051v297q657 479 657 692q0 59 -36.5 95t-96.5 36q-150 0 -149 -200v-25h-375v33q0 137 47 242.5t126 166t169 91t188 30.5q213 0 362.5 -127t149.5 -332q0 -166 -112.5 -325.5t-345.5 -331.5h467z" glyph-name="uniE122" horiz-adv-x="1224" unicode=""/><glyph d="M49 115l160 297q229 -106 366 -107q80 0 123 30t43 81q0 143 -346 143v299q172 0 245 50t73 118q0 57 -37 87t-88 30q-59 0 -100.5 -34t-41.5 -103v-9h-366v37q0 201 151.5 312.5t354.5 111.5q205 0 354.5 -110.5t149.5 -292.5q0 -227 -226 -336q264 -90 264 -332 q0 -190 -148.5 -301t-395.5 -111q-269 1 -535 140z" glyph-name="uniE123" horiz-adv-x="1224" unicode=""/><glyph d="M1022 0h-363v260h-606v283l293 891h412l-314 -859h215v330l363 115v-445h156v-315h-156v-260z" glyph-name="uniE124" horiz-adv-x="1224" unicode=""/><glyph d="M61 115l160 297q221 -106 363 -107q82 0 125 35t43 94q0 166 -342 166h-232v834h871v-342h-498v-183h16q279 0 426.5 -131t147.5 -342q0 -205 -142.5 -333t-404.5 -128q-267 1 -533 140z" glyph-name="uniE125" horiz-adv-x="1224" unicode=""/><glyph d="M1038 1434l-354 -453q10 2 29 2q186 0 317 -133t131 -346q0 -231 -156.5 -380t-390 -149t-392.5 149.5t-159 371.5q0 127 51.5 239.5t147.5 245.5l328 453h448zM614 696q-82 0 -137 -55t-55 -141t53 -140.5t137 -54.5t139.5 55.5t55.5 139.5q0 86 -54.5 141t-138.5 55z " glyph-name="uniE126" horiz-adv-x="1224" unicode=""/><glyph d="M115 1071v363h999v-306l-508 -1128h-440l514 1071h-565z" glyph-name="uniE127" horiz-adv-x="1224" unicode=""/><glyph d="M1184 412q0 -207 -166 -322t-405.5 -115t-404.5 115t-165 322q0 240 229 344q-174 98 -174 303q0 190 151.5 294.5t364.5 104.5q215 0 365.5 -104.5t150.5 -294.5q0 -205 -178 -303q232 -106 232 -344zM807 449q0 68 -51 117.5t-144 49.5q-90 0 -141 -50t-51 -117 q0 -70 51 -119t141 -49q92 0 143.5 49t51.5 119zM776 1026q0 57 -41 96t-120.5 39t-122.5 -39t-43 -96q0 -55 43 -98t122.5 -43t120.5 43t41 98z" glyph-name="uniE128" horiz-adv-x="1224" unicode=""/><glyph d="M184 0l355 453q-10 -2 -29 -2q-186 0 -317.5 133t-131.5 346q0 231 157 379.5t390.5 148.5t392 -149.5t158.5 -370.5q0 -127 -51 -239.5t-147 -245.5l-328 -453h-449zM608 737q82 0 137.5 55.5t55.5 141.5t-53.5 140t-137.5 54t-139 -55t-55 -139q0 -86 54 -141.5 t138 -55.5z" glyph-name="uniE129" horiz-adv-x="1224" unicode=""/><glyph d="M901 664l-57 -203h-293q72 -152 246 -152q113 0 194 82l234 -231q-184 -184 -441 -185q-240 0 -402.5 129t-221.5 357h-146v203h115v92h-115v205h142q57 231 221 364t407 133q256 0 441 -184l-234 -232q-82 82 -194 82q-178 0 -252 -163h434l-55 -205h-420v-39 q0 -37 2 -53h395z" glyph-name="uniE140" horiz-adv-x="1224" unicode=""/><glyph d="M156 0v270q127 96 151 242h-182v287h129q-76 164 -76 268q0 176 127 283.5t320 107.5q199 0 340 -119.5t141 -349.5v-41h-344v21q0 164 -113 164q-47 0 -76.5 -32t-29.5 -85q0 -25 7 -53.5t14 -48t24.5 -59.5t23.5 -56h303v-287h-268q-20 -100 -98 -188h538v-324h-931z " glyph-name="uniE141" horiz-adv-x="1224" unicode=""/><glyph d="M612 944l174 490h400l-299 -662h200v-231h-290v-86h290v-232h-290v-223h-369v223h-293v232h293v86h-293v231h199l-295 662h397z" glyph-name="uniE142" horiz-adv-x="1224" unicode=""/><glyph d="M471 -154v205q-160 29 -260 120t-119 245l340 71q14 -172 199 -172q150 0 149 97q0 12 -3 23t-11 21.5t-15.5 18.5t-22.5 16.5t-27.5 14.5t-34 14t-36 13.5t-43 15.5t-44.5 16q-221 80 -330 177.5t-109 271.5q0 152 98.5 250t268.5 125v198h283v-209q158 -35 252 -139 t94 -268v-31h-344v12q0 80 -44 123t-120 43q-63 0 -97 -26.5t-34 -69.5q0 -51 47 -82t149 -70q100 -37 153.5 -58t126.5 -62t108.5 -82t62.5 -104.5t27 -141.5q0 -158 -102.5 -254t-278.5 -121v-201h-283z" glyph-name="uniE143" horiz-adv-x="1224" unicode=""/><glyph d="M172 854v201h348q-49 117 -198 116h-150v263h954l-57 -201h-248q57 -72 84 -178h221l-57 -201h-149q-27 -283 -263 -399l377 -455h-459l-403 492v229h150q162 0 204 133h-354z" glyph-name="uniE144" horiz-adv-x="1224" unicode=""/><glyph d="M49 739v246l168 51v398h381v-279l379 119v-246l-379 -119v-71l379 116v-245l-379 -117v-248h41q98 0 139 59.5t60 180.5l368 -68q-43 -289 -168 -402.5t-436 -113.5h-385v473l-168 -51v246l168 51v72z" glyph-name="uniE145" horiz-adv-x="1224" unicode=""/><glyph d="M543 0h-307l-52 397h-170v267h136l-11 81h-125v267h92l-53 422h295l68 -822l65 822h264l66 -816l68 816h292l-53 -422h92v-267h-125l-10 -81h135v-267h-170l-49 -397h-307l-72 782z" glyph-name="uniE146" horiz-adv-x="1224" unicode=""/><glyph d="M90 186v244h109v70h-109v305h109v629h479q242 0 370 -132.5t128 -337t-131.5 -334.5t-374.5 -130h-125v-70h289v-244h-289v-186h-346v186h-109zM545 805h104q82 0 126 44t44 116q0 74 -44 118.5t-126 44.5h-104v-323z" glyph-name="uniE147" horiz-adv-x="1224" unicode=""/><glyph d="M393 1708l291 -176q-205 -356 -205 -815q0 -457 205 -813l-291 -178q-309 430 -309 991q0 565 309 991z" glyph-name="uniE300" horiz-adv-x="743" unicode=""/><glyph d="M59 1532l291 176q309 -426 309 -991q0 -561 -309 -991l-291 178q205 356 205 813q0 459 -205 815z" glyph-name="uniE301" horiz-adv-x="743" unicode=""/><glyph d="M766 879v-326h-643v326h643z" glyph-name="uniE302" horiz-adv-x="890" unicode=""/><glyph d="M1059 879v-326h-936v326h936z" glyph-name="uniE303" horiz-adv-x="1181" unicode=""/><glyph d="M1339 879v-326h-1216v326h1216z" glyph-name="uniE304" horiz-adv-x="1462" unicode=""/><glyph d="M760 109v-291h-613v1800h613v-291h-250v-1218h250z" glyph-name="uniE305" horiz-adv-x="839" unicode=""/><glyph d="M78 -182v291h250v1218h-250v291h612v-1800h-612z" glyph-name="uniE306" horiz-adv-x="839" unicode=""/><glyph d="M55 575v283h60q74 0 116.5 38t42.5 144v252q0 152 94.5 239t280.5 87h199v-291h-90q-68 0 -95.5 -32.5t-27.5 -98.5v-109q0 -88 -5 -136t-23.5 -102t-60.5 -85t-112 -47q70 -16 112 -47t60.5 -85.5t23.5 -102.5t5 -136v-106q0 -68 27.5 -99.5t95.5 -31.5h90v-291h-199 q-186 0 -280.5 87t-94.5 238v250q0 106 -43 144t-116 38h-60z" glyph-name="uniE307" horiz-adv-x="929" unicode=""/><glyph d="M874 858v-283h-59q-74 0 -117 -37.5t-43 -144.5v-250q0 -152 -94 -238.5t-280 -86.5h-199v291h90q68 0 95.5 31.5t27.5 99.5v106q0 88 5 136t23.5 102.5t60.5 85t112 47.5q-70 16 -112 47t-60.5 85t-23.5 102t-5 136v109q0 66 -27.5 98.5t-95.5 32.5h-90v291h199 q186 0 280 -87t94 -239v-252q0 -106 43 -144t117 -38h59z" glyph-name="uniE308" horiz-adv-x="929" unicode=""/><glyph d="M147 1655h277v-1874h-277v1874z" glyph-name="uniE309" horiz-adv-x="571" unicode=""/><glyph d="M147 1655h277v-811h-277v811zM147 586h277v-805h-277v805z" glyph-name="uniE310" horiz-adv-x="571" unicode=""/><glyph d="M434 717l197 -297l-236 -168l-329 465l329 465l236 -168z" glyph-name="uniE311" horiz-adv-x="720" unicode=""/><glyph d="M291 717l-197 297l236 168l329 -465l-329 -465l-236 168z" glyph-name="uniE312" horiz-adv-x="722" unicode=""/><glyph d="M434 717l197 -297l-236 -168l-329 465l329 465l236 -168zM946 717l197 -297l-236 -168l-329 465l329 465l236 -168z" glyph-name="uniE313" horiz-adv-x="1232" unicode=""/><glyph d="M291 717l-197 297l236 168l329 -465l-329 -465l-236 168zM803 717l-197 297l236 168l329 -465l-329 -465l-236 168z" glyph-name="uniE314" horiz-adv-x="1234" unicode=""/><glyph d="M123 719q0 106 78 181t186.5 75t186 -75t77.5 -181q0 -111 -77.5 -187.5t-186 -76.5t-186.5 76.5t-78 187.5z" glyph-name="uniE315" horiz-adv-x="774" unicode=""/><glyph d="M92 715q0 90 65.5 152.5t158 62.5t157 -62.5t64.5 -152.5q0 -92 -64.5 -154.5t-157 -62.5t-158 62.5t-65.5 154.5z" glyph-name="uniE316" horiz-adv-x="626" unicode=""/><glyph d="M926 266l-213 -209l-660 660l660 659l213 -209l-297 -295h708v-313h-706z" glyph-name="uniE330" horiz-adv-x="1415" unicode=""/><glyph d="M1153 946l209 -213l-660 -659l-659 659l209 213l293 -295v709h313v-709z" glyph-name="uniE331" horiz-adv-x="1404" unicode=""/><glyph d="M252 485l-209 213l657 660l662 -660l-209 -213l-295 295v-706h-313v706z" glyph-name="uniE332" horiz-adv-x="1402" unicode=""/><glyph d="M489 1167l213 209l660 -659l-660 -660l-213 209l293 293h-706v313h708z" glyph-name="uniE333" horiz-adv-x="1415" unicode=""/><glyph d="M424 446h-301v988h979v-304h-465l547 -546l-221 -217l-539 538v-459z" glyph-name="uniE334" horiz-adv-x="1271" unicode=""/><glyph d="M170 1130v304h981v-988h-303v461l-541 -540l-219 217l545 546h-463z" glyph-name="uniE335" horiz-adv-x="1271" unicode=""/><glyph d="M459 1147l127 287h295l-205 -373h137v-162h-217v-53h217v-162h-217v-115h-272v115h-218v162h218v53h-218v162h136l-203 373h297z" glyph-name="uniE400" horiz-adv-x="919" unicode=""/><glyph d="M106 1063v203h146l29 168h202l-28 -168h114l29 168h205l-29 -168h107v-203h-140l-20 -125h110v-203h-145l-27 -166h-206l26 166h-114l-27 -166h-203l27 166h-107v203h142l20 125h-111zM420 1063l-21 -125h115l21 125h-115z" glyph-name="uniE401" horiz-adv-x="937" unicode=""/><glyph d="M39 1214q0 96 69.5 165t170 69t170 -68.5t69.5 -165.5q0 -98 -68.5 -164.5t-171 -66.5t-171 66.5t-68.5 164.5zM213 1214.5q0 -30.5 18.5 -50t47 -19.5t47 19.5t18.5 50t-18.5 50t-47 19.5t-47 -19.5t-18.5 -50zM365 567h-205l631 867h206zM639 788q0 96 69.5 164t170 68 t170 -67.5t69.5 -164.5q0 -98 -69.5 -165.5t-170 -67.5t-170 67.5t-69.5 165.5zM813 788.5q0 -30.5 18.5 -50t47 -19.5t47 19.5t18.5 50t-18.5 50t-47 19.5t-47 -19.5t-18.5 -50z" glyph-name="uniE402" horiz-adv-x="1157" unicode=""/><glyph d="M84 569v181q63 41 86 116h-104v193h77q-45 86 -45 149q0 109 80 173.5t203 64.5q127 0 217 -71.5t90 -215.5v-26h-231v10q0 88 -64 88q-51 0 -51 -57q0 -16 5 -33t18.5 -43.5t17.5 -38.5h184v-193h-170q-14 -45 -47 -84h324v-213h-590z" glyph-name="uniE403" horiz-adv-x="747" unicode=""/><glyph d="M653 973l-35 -123h-182q47 -66 135 -66q80 0 129 56l162 -162q-119 -123 -295 -123q-143 0 -253.5 80t-155.5 215h-109v123h86v41h-86v123h105q41 139 153.5 225t259.5 86q176 0 295 -123l-162 -164q-45 55 -129 56q-96 0 -145 -80h274l-34 -123h-273v-41h260z" glyph-name="uniE404" horiz-adv-x="907" unicode=""/><glyph d="M74 1081v125h219q-27 57 -103 58h-116v170h594l-35 -125h-139q33 -43 45 -103h129l-35 -125h-86q-20 -170 -168 -235l237 -277h-294l-248 295v152h116q80 0 107 65h-223z" glyph-name="uniE405" horiz-adv-x="712" unicode=""/><glyph d="M72 1036v168l108 33v197h238v-125l244 73v-170l-244 -73v-45l244 73v-170l-244 -73v-133h37q63 0 88.5 33.5t34.5 107.5l231 -41q-27 -176 -111 -249t-276 -73h-242v285l-108 -33v170l108 33v45z" glyph-name="uniE406" horiz-adv-x="845" unicode=""/><glyph d="M541 569h-279l-37 219h-157v183h127l-9 45h-118v180h90l-39 238h241l72 -508l72 508h241l70 -502l72 502h241l-38 -238h90v-180h-121l-6 -45h127v-183h-158l-35 -219h-299l-72 478z" glyph-name="uniE407" horiz-adv-x="1247" unicode=""/><glyph d="M72 674v176h96v47h-96v201h96v336h342q147 0 225 -76t78 -193q0 -119 -78 -193.5t-225 -74.5h-100v-47h184v-176h-184v-103h-242v103h-96zM410 1098h77q82 0 82 67q0 63 -82 64h-77v-131z" glyph-name="uniE408" horiz-adv-x="854" unicode=""/><glyph d="M92 1044.5q0 165.5 112.5 277.5t285 112t285 -112t112.5 -277.5t-112.5 -276.5t-285 -111t-285 111t-112.5 276.5zM360 1044q0 -63 37 -105t92 -42q57 0 93 41t36 106.5t-35.5 106.5t-93 41t-93.5 -41t-36 -107zM145 342v238h691v-238h-691z" glyph-name="uniE409" horiz-adv-x="978" unicode=""/><glyph d="M135 342v238h684v-238h-684zM215 1163l-92 185q147 86 330 86q367 0 366 -359v-403h-262v69q-86 -84 -201 -84q-113 0 -183.5 65.5t-70.5 178.5q0 117 78 181.5t209 64.5q80 0 168 -33q-6 111 -133 111q-98 -1 -209 -62zM428 840q70 0 129 65v58q-61 29 -111 28 q-45 0 -71.5 -21.5t-26.5 -56.5q0 -73 80 -73z" glyph-name="uniE410" horiz-adv-x="942" unicode=""/><glyph d="M154 342v238h743v-238h-743zM430 1434q129 0 207 -84v67h260v-745h-260v67q-78 -82 -207 -82q-156 0 -247 110t-91 277.5t92 278.5t246 111zM639 1044.5q0 69.5 -39 115.5t-100.5 46t-101.5 -46t-40 -116q0 -68 40 -113.5t101.5 -45.5t100.5 45t39 114.5z" glyph-name="uniE411" horiz-adv-x="1030" unicode=""/><glyph d="M78 716.5q0 151.5 79 250t230.5 98.5t229 -98.5t77.5 -250t-77.5 -249.5t-229 -98t-230.5 98t-79 249.5zM274 717q0 -174 113 -174q111 0 111 174t-111 174q-113 0 -113 -174z" glyph-name="uniE450" horiz-adv-x="772" unicode=""/><glyph d="M53 770v191l187 92h147v-672h-190v463z" glyph-name="uniE451" horiz-adv-x="483" unicode=""/><glyph d="M598 561v-180h-528v149q326 203 325 306q0 25 -17.5 42t-45.5 17q-74 0 -74 -88v-10h-188v14q0 127 79.5 190.5t186 63.5t180.5 -61.5t74 -159.5q0 -158 -189 -283h197z" glyph-name="uniE452" horiz-adv-x="669" unicode=""/><glyph d="M53 436l92 156q102 -47 168 -47q76 0 76 41q0 57 -162 57v139q147 0 148 72q0 20 -17.5 33.5t-40.5 13.5q-66 0 -65 -59v-2h-184v18q0 98 74.5 152.5t176.5 54.5q100 0 176 -53.5t76 -143.5q0 -96 -92 -149q113 -49 113 -154q0 -90 -75 -143t-200 -53q-137 -1 -264 67z " glyph-name="uniE453" horiz-adv-x="657" unicode=""/><glyph d="M567 381h-190v119h-324v141l170 412h209l-170 -383h115v125l190 57v-182h90v-170h-90v-119z" glyph-name="uniE454" horiz-adv-x="708" unicode=""/><glyph d="M47 436l92 156q106 -47 168 -47q76 0 76 47q0 63 -141 63h-133v398h438v-174h-254v-68h2q141 0 216 -62.5t75 -164.5q0 -96 -70 -155.5t-199 -59.5q-141 -1 -270 67z" glyph-name="uniE455" horiz-adv-x="649" unicode=""/><glyph d="M543 1053l-164 -199q102 -6 164.5 -68.5t62.5 -158.5q0 -111 -78.5 -184.5t-193.5 -73.5t-195 72.5t-80 174.5q0 66 25 115t78 117l160 205h221zM332 713q-41 0 -66.5 -24.5t-25.5 -63.5t25.5 -62.5t66.5 -23.5t67.5 23.5t26.5 62.5t-26.5 63.5t-67.5 24.5z" glyph-name="uniE456" horiz-adv-x="663" unicode=""/><glyph d="M57 870v183h498v-156l-258 -516h-213l254 489h-281z" glyph-name="uniE457" horiz-adv-x="602" unicode=""/><glyph d="M633 575q0 -94 -83 -150t-202 -56q-117 0 -199.5 56t-82.5 150q0 111 98 162q-72 47 -72 140q0 86 76 137t182.5 51t181 -51t74.5 -137q0 -92 -71 -140q98 -51 98 -162zM440 594q0 29 -24.5 50.5t-67.5 21.5q-41 0 -65.5 -21.5t-24.5 -50.5t24.5 -50.5t65.5 -21.5 q43 0 67.5 21.5t24.5 50.5zM426 860q0 25 -19.5 42.5t-56.5 17.5t-57.5 -17.5t-20.5 -42.5q0 -20 20.5 -39.5t55.5 -19.5q37 0 57.5 19.5t20.5 39.5z" glyph-name="uniE458" horiz-adv-x="694" unicode=""/><glyph d="M121 381l164 199q-102 6 -165 68.5t-63 158.5q0 111 79 184.5t193.5 73.5t194.5 -72.5t80 -175.5q0 -66 -24.5 -115t-77.5 -116l-160 -205h-221zM332 721q41 0 66.5 24.5t25.5 63.5t-25.5 62.5t-66.5 23.5t-67.5 -23.5t-26.5 -62.5t26.5 -63.5t67.5 -24.5z" glyph-name="uniE459" horiz-adv-x="661" unicode=""/><glyph d="M61 432q0 197 94.5 322t276.5 125t277.5 -125t95.5 -322q0 -195 -94.5 -319.5t-278.5 -124.5q-182 0 -276.5 124.5t-94.5 319.5zM326 432q0 -100 28.5 -153.5t77.5 -53.5q106 0 107 207q0 209 -106.5 209t-106.5 -209z" glyph-name="uniE500" horiz-adv-x="866" unicode=""/><glyph d="M205 0v553l-154 -82v277l217 116h211v-864h-274z" glyph-name="uniE501" horiz-adv-x="573" unicode=""/><glyph d="M705 233v-233h-637v195q369 270 368 393q0 63 -55 63q-70 0 -70 -104v-19h-248v23q0 164 97.5 245t228.5 81q127 0 217 -76t90 -199q0 -182 -213 -369h222z" glyph-name="uniE502" horiz-adv-x="774" unicode=""/><glyph d="M43 72l117 202q119 -59 198.5 -59t79.5 51q0 72 -184 72v180q174 0 174 92q0 61 -59 62q-66 0 -66 -76v-6h-242v26q0 127 92.5 195t217.5 68t216 -68t91 -186q0 -123 -109 -189q129 -57 129 -190q0 -117 -90 -187.5t-243 -70.5q-168 0 -322 84z" glyph-name="uniE503" horiz-adv-x="757" unicode=""/><glyph d="M676 0h-244v145h-387v191l191 528h272l-193 -489h117v172l244 74v-246h94v-230h-94v-145z" glyph-name="uniE504" horiz-adv-x="817" unicode=""/><glyph d="M109 864h538v-231h-295v-80q168 -2 259 -83t91 -208q0 -123 -88 -199.5t-247 -76.5q-166 0 -328 84l115 190q137 -59 202 -59q90 0 90 63q0 82 -176 82h-161v518z" glyph-name="uniE505" horiz-adv-x="757" unicode=""/><glyph d="M655 864l-209 -274h7q117 0 195.5 -76t78.5 -203q0 -143 -96 -234t-240 -91q-141 0 -240.5 93t-99.5 224q0 80 30 141.5t95 153.5l193 266h286zM389 414q-41 0 -67.5 -30t-26.5 -73t26.5 -71.5t67.5 -28.5t67.5 28.5t26.5 71.5t-26.5 73t-67.5 30z" glyph-name="uniE506" horiz-adv-x="772" unicode=""/><glyph d="M51 623v241h594v-202l-283 -662h-284l282 623h-309z" glyph-name="uniE507" horiz-adv-x="686" unicode=""/><glyph d="M764 244q0 -123 -102.5 -189.5t-251.5 -66.5q-145 0 -249 66.5t-104 189.5q0 141 140 209q-109 57 -109 176q0 117 96.5 183.5t227.5 66.5t225 -65.5t94 -184.5q0 -117 -108 -174q141 -70 141 -211zM508 272.5q0 36.5 -24.5 63t-73.5 26.5q-45 0 -71 -27.5t-26 -62.5 q0 -37 24.5 -61.5t72.5 -24.5q49 0 73.5 25t24.5 61.5zM492 616q0 29 -20.5 49.5t-61.5 20.5q-37 0 -58.5 -20.5t-21.5 -49.5q0 -31 21.5 -52t58.5 -21q39 0 60.5 21t21.5 52z" glyph-name="uniE508" horiz-adv-x="821" unicode=""/><glyph d="M117 -2l209 274h-7q-117 0 -195.5 76t-78.5 203q0 143 96.5 234.5t239.5 91.5q141 0 240.5 -93.5t99.5 -224.5q0 -80 -29.5 -141.5t-95.5 -153.5l-193 -266h-286zM383 449q41 0 67.5 29.5t26.5 72.5t-26.5 71.5t-67.5 28.5t-67.5 -28.5t-26.5 -71.5t26.5 -72.5 t67.5 -29.5z" glyph-name="uniE509" horiz-adv-x="774" unicode=""/><glyph d="M61 1284q0 197 94.5 322t276.5 125t277.5 -125t95.5 -322q0 -195 -94.5 -319.5t-278.5 -124.5q-182 0 -276.5 124.5t-94.5 319.5zM326 1284q0 -100 28.5 -153.5t77.5 -53.5q106 0 107 207q0 209 -106.5 209t-106.5 -209z" glyph-name="uniE520" horiz-adv-x="866" unicode=""/><glyph d="M205 856v553l-154 -82v277l217 116h211v-864h-274z" glyph-name="uniE521" horiz-adv-x="573" unicode=""/><glyph d="M705 1090v-234h-637v195q369 270 368 393q0 63 -55 63q-70 0 -70 -104v-19h-248v23q0 164 97.5 245t228.5 81q127 0 217 -76t90 -199q0 -182 -213 -368h222z" glyph-name="uniE522" horiz-adv-x="774" unicode=""/><glyph d="M43 924l117 202q119 -59 198.5 -59t79.5 51q0 72 -184 72v180q174 0 174 92q0 61 -59 62q-66 0 -66 -76v-6h-242v26q0 127 92.5 195t217.5 68t216 -68t91 -186q0 -123 -109 -189q129 -57 129 -190q0 -117 -90 -187.5t-243 -70.5q-168 0 -322 84z" glyph-name="uniE523" horiz-adv-x="757" unicode=""/><glyph d="M676 856h-244v145h-387v191l191 528h272l-193 -489h117v172l244 74v-246h94v-230h-94v-145z" glyph-name="uniE524" horiz-adv-x="817" unicode=""/><glyph d="M111 1718h538v-231h-295v-80q168 -2 259.5 -83t91.5 -208q0 -123 -88.5 -199.5t-247.5 -76.5q-166 0 -328 84l115 190q137 -59 202 -59q90 0 91 63q0 82 -177 82h-161v518z" glyph-name="uniE525" horiz-adv-x="757" unicode=""/><glyph d="M655 1720l-209 -274h7q117 0 195.5 -76t78.5 -203q0 -143 -96 -234t-240 -91q-141 0 -240.5 93t-99.5 224q0 80 30 141.5t95 153.5l193 266h286zM389 1270q-41 0 -67.5 -30t-26.5 -73t26.5 -71.5t67.5 -28.5t67.5 28.5t26.5 71.5t-26.5 73t-67.5 30z" glyph-name="uniE526" horiz-adv-x="772" unicode=""/><glyph d="M51 1479v241h594v-202l-283 -662h-284l282 623h-309z" glyph-name="uniE527" horiz-adv-x="686" unicode=""/><glyph d="M764 1098q0 -123 -102.5 -189.5t-251.5 -66.5q-145 0 -249 66.5t-104 189.5q0 141 140 209q-109 57 -109 176q0 117 96.5 183.5t227.5 66.5t225 -65.5t94 -184.5q0 -117 -108 -174q141 -70 141 -211zM508 1126.5q0 36.5 -24.5 63.5t-73.5 27q-45 0 -71 -28t-26 -63 q0 -37 24.5 -61.5t72.5 -24.5q49 0 73.5 25t24.5 61.5zM492 1470q0 29 -20.5 49.5t-61.5 20.5q-37 0 -58.5 -20.5t-21.5 -49.5q0 -31 21.5 -52t58.5 -21q39 0 60.5 21t21.5 52z" glyph-name="uniE528" horiz-adv-x="821" unicode=""/><glyph d="M117 854l209 274h-7q-117 0 -195.5 76t-78.5 203q0 143 96.5 234.5t239.5 91.5q141 0 240.5 -93.5t99.5 -224.5q0 -80 -29.5 -141.5t-95.5 -153.5l-193 -266h-286zM383 1305q41 0 67.5 29.5t26.5 72.5t-26.5 71.5t-67.5 28.5t-67.5 -28.5t-26.5 -71.5t26.5 -72.5 t67.5 -29.5z" glyph-name="uniE529" horiz-adv-x="774" unicode=""/><glyph d="M72 274l149 154q-33 78 -33 162q0 86 35 162l-151 153l221 219l162 -166q68 23 141 23q72 0 139 -23l162 166l223 -217l-151 -155q35 -76 35 -162t-35 -162l151 -154l-221 -219l-164 166q-68 -23 -139 -22q-74 0 -141 22l-162 -166zM463 589.5q0 -61.5 37 -103.5t96 -42 t96 41t37 104.5t-37 104.5t-96 41t-96 -42t-37 -103.5z" glyph-name="uniE600" horiz-adv-x="1191" unicode=""/><glyph d="M150 686v258h198l41 238h260l-39 -238h176l39 238h260l-41 -238h154v-258h-197l-32 -190h159v-258h-202l-39 -238h-258l39 238h-176l-39 -238h-263l39 238h-151v258h194l33 190h-155zM567 686l-32 -190h176l32 190h-176z" glyph-name="uniE601" horiz-adv-x="1271" unicode=""/><glyph d="M399 -121v166q-135 25 -223 99.5t-102 195.5l301 63q14 -129 172 -129q113 0 112 60q0 18 -10 33.5t-35.5 29t-43 19.5t-60.5 20.5t-59 20.5q-178 61 -270.5 150t-92.5 224q0 125 83 205t228 103v164h263v-175q133 -31 210.5 -114.5t77.5 -214.5v-27h-303v8 q0 125 -139 125q-104 0 -105 -61q0 -37 35 -59.5t127 -55.5q90 -33 135 -51.5t108.5 -53t93.5 -68.5t53.5 -88t23.5 -122q0 -127 -85 -205t-232 -100v-162h-263z" glyph-name="uniE602" horiz-adv-x="1050" unicode=""/><glyph d="M57 889q0 133 94.5 225t231.5 92q135 0 228.5 -92t93.5 -225t-93.5 -225.5t-228.5 -92.5q-137 0 -231.5 92.5t-94.5 225.5zM291 889q0 -43 25.5 -68.5t64.5 -25.5q37 0 63.5 26.5t26.5 67.5t-26.5 67.5t-63.5 26.5q-39 0 -64.5 -26.5t-25.5 -67.5zM469 0h-270l876 1182 h271zM840 293q0 133 93 225t230 92t230.5 -92t93.5 -225t-93.5 -224.5t-230.5 -91.5t-230 91.5t-93 224.5zM1071 293q0 -43 26.5 -68.5t65.5 -25.5q37 0 63.5 25.5t26.5 68.5t-26.5 69.5t-63.5 26.5q-39 0 -65.5 -26.5t-26.5 -69.5z" glyph-name="uniE603" horiz-adv-x="1544" unicode=""/><glyph d="M401 0v154q-147 41 -238 159.5t-91 278.5q0 156 91 274.5t238 159.5v156h263v-156q109 -31 186.5 -108.5t112.5 -182.5l-285 -96q-37 119 -148 119q-63 0 -103 -46t-40 -120q0 -76 40 -122t103 -46q111 0 148 119l285 -97q-35 -104 -113 -183t-186 -109v-154h-263z" glyph-name="uniE604" horiz-adv-x="1021" unicode=""/><glyph d="M119 0v238q94 72 121 174h-148v239h115q-4 8 -18.5 39t-19.5 44.5t-15.5 41t-13.5 52t-3 53.5q0 147 107.5 236t271.5 89q170 0 290 -99t120 -294v-37h-301v19q0 123 -93 123q-31 0 -54 -25t-23 -62q0 -25 8 -50t28.5 -69t26.5 -61h246v-239h-227q-18 -68 -62 -123h434 v-289h-790z" glyph-name="uniE605" horiz-adv-x="1013" unicode=""/><glyph d="M623 762l196 420h371l-285 -523h191v-217h-299v-61h299v-217h-299v-164h-351v164h-301v217h301v61h-301v217h195l-285 523h369z" glyph-name="uniE606" horiz-adv-x="1245" unicode=""/><glyph d="M57 889q0 133 94.5 225t231.5 92q135 0 228.5 -92t93.5 -225t-93.5 -225.5t-228.5 -92.5q-137 0 -231.5 92.5t-94.5 225.5zM291 889q0 -43 25.5 -68.5t64.5 -25.5q37 0 63.5 26.5t26.5 67.5t-26.5 67.5t-63.5 26.5q-39 0 -64.5 -26.5t-25.5 -67.5zM469 0h-270l876 1182 h271zM840 293q0 133 93 225t230 92t230.5 -92t93.5 -225t-93.5 -224.5t-230.5 -91.5t-230 91.5t-93 224.5zM1071 293q0 -43 26.5 -68.5t65.5 -25.5q37 0 63.5 25.5t26.5 68.5t-26.5 69.5t-63.5 26.5q-39 0 -65.5 -26.5t-26.5 -69.5zM1534 293q0 133 93 225t231 92 q135 0 229 -92t94 -225q0 -131 -94 -223.5t-229 -92.5q-137 0 -230.5 91.5t-93.5 224.5zM1765 293q0 -43 27 -68.5t63 -25.5q39 0 66 25.5t27 68.5t-27 69.5t-66 26.5q-37 0 -63.5 -26.5t-26.5 -69.5z" glyph-name="uniE607" horiz-adv-x="2230" unicode=""/><glyph d="M897 553l-45 -168h-270q72 -106 198 -106q104 0 176 77l213 -213q-158 -166 -395 -166q-193 0 -346.5 113t-214.5 295h-147v168h114v61h-114v168h143q57 188 211.5 305t353.5 117q236 0 395 -164l-213 -217q-74 80 -176 80q-131 0 -205 -121h386l-48 -168h-389v-24 q0 -25 2 -37h371z" glyph-name="uniE608" horiz-adv-x="1234" unicode=""/><glyph d="M102 696v178h293q-39 76 -137 76h-156v232h799l-57 -176h-180q43 -63 57 -132h180l-57 -178h-113q-27 -225 -221 -309l319 -387h-401l-326 406v202h156q104 0 141 88h-297z" glyph-name="uniE609" horiz-adv-x="962" unicode=""/><glyph d="M758 0h-377l-57 305h-234v252h184l-10 61h-174v250h127l-59 314h344l96 -690l86 690h320l86 -693l98 693h344l-59 -314h126v-250h-174l-12 -61h186v-252h-233l-57 -305h-377l-88 696z" glyph-name="uniE610" horiz-adv-x="1689" unicode=""/><glyph d="M100 152v215h88v59h-88v272h88v484h461q203 0 311.5 -106.5t108.5 -272.5q0 -170 -108.5 -273.5t-311.5 -103.5h-137v-59h236v-215h-236v-152h-324v152h-88zM512 698h98q129 0 129 105q0 45 -32.5 74.5t-96.5 29.5h-98v-209z" glyph-name="uniE611" horiz-adv-x="1124" unicode=""/><glyph d="M96 635v229l144 43v275h342v-168l321 98v-231l-321 -99v-57l321 98v-231l-321 -100v-181h43q84 0 113.5 46t41.5 145l336 -64q-39 -244 -153.5 -341t-384.5 -97h-338v385l-144 -43v233l144 43v60z" glyph-name="uniE612" horiz-adv-x="1167" unicode=""/><glyph d="M1190 344l323 -344h-479l-116 123q-217 -147 -429 -148q-193 0 -308 99.5t-115 263.5q0 133 75.5 227t216.5 178q-113 162 -112 316q0 170 126 284.5t318 114.5q186 0 306 -109.5t120 -261.5q0 -80 -36 -150.5t-106.5 -131t-126.5 -96t-147 -86.5q-199 -113 -237 -144 q-63 -53 -64 -108q0 -49 34 -81t97 -32q68 0 135.5 43t172.5 139q190 172 346 342l229 -207q-88 -106 -223 -231zM809 1081q0 51 -30.5 80t-78.5 29q-53 0 -85.5 -36t-32.5 -85q0 -72 80 -164q80 49 113.5 88t33.5 88z" glyph-name="uniE650" horiz-adv-x="1495" unicode=""/><glyph d="M674 924l-123 -262q-59 18 -109 55q-45 -72 -45 -156q0 -119 86 -199.5t213 -80.5q123 0 210 80.5t87 199.5q0 59 -26 119l-41 -29q-55 -39 -56 -88q0 -37 25 -67l-201 -123q-80 94 -80 217q0 164 168 289l326 239q66 49 66 107q0 51 -50 100l209 184q147 -131 148 -295 q0 -182 -183 -309l-63 -43q84 -135 84 -301q0 -254 -181.5 -425t-441.5 -171q-262 0 -443 171t-181 425q0 264 198 438q-2 16 -2 52q0 176 124 294.5t304 118.5q129 0 235.5 -67.5t155.5 -179.5l-251 -134q-31 86 -123 86q-55 0 -92 -34.5t-37 -87.5q0 -92 90 -123z" glyph-name="uniE651" horiz-adv-x="1544" unicode=""/><glyph d="M330 76l106 -41q-217 -160 -217 -268q0 -59 62 -60q20 0 55 10l47 -235q-53 -18 -121 -19q-121 0 -195.5 59.5t-74.5 164.5q0 215 338 389z" glyph-name="uniE700" horiz-adv-x="440" unicode=""/><glyph d="M174 -694l-115 108q137 109 146 185q-66 -10 -122 34.5t-56 114.5q0 63 45 111.5t123 48.5q80 0 133 -55.5t53 -161.5q0 -119 -62.5 -218t-144.5 -167z" glyph-name="uniF6C3" horiz-adv-x="397" unicode=""/><glyph d="M295 569v115q-109 29 -175.5 115t-66.5 200q0 117 66.5 204t175.5 116v115h190v-115q166 -45 226 -221l-211 -70q-29 90 -107 90q-47 0 -76.5 -32.5t-29.5 -84t29.5 -84t76.5 -32.5q78 0 107 90l211 -70q-57 -176 -226 -221v-115h-190z" glyph-name="uniF6E0" horiz-adv-x="753" unicode=""/><glyph d="M289 481v121q-219 41 -242 223l227 49q12 -94 121 -94q80 0 80 41q0 8 -3 16.5t-10 14.5t-15.5 11t-22.5 11.5t-25.5 11.5t-33 12t-35.5 13q-135 51 -204 110.5t-69 160.5q0 88 61.5 145t170.5 74v123h190v-129q98 -23 157.5 -85.5t59.5 -160.5v-21h-231v11q0 84 -94 84 q-70 0 -70 -39q0 -18 17.5 -33.5t36 -23t55.5 -21.5q152 -55 230.5 -115.5t78.5 -165.5q0 -94 -64.5 -151.5t-175.5 -73.5v-119h-190z" glyph-name="uniF6E4" horiz-adv-x="765" unicode=""/><glyph d="M1255 674q-12 -4 -17 -11.5t-2 -15.5t13 -14l51 -37q16 -10 14.5 -20.5t-20.5 -12.5l-61 -12q-18 -2 -21.5 -14.5t7.5 -24.5l43 -45q14 -12 11 -22.5t-24 -8.5l-63 2q-18 0 -24.5 -10t3.5 -27l33 -53q8 -16 3 -24.5t-21 -1.5l-62 14q-16 4 -25.5 -5t-2.5 -26l20 -59 q6 -16 -1 -23.5t-24 0.5l-57 27q-35 16 -35 -25l11 -61q2 -18 -6.5 -23.5t-22.5 4.5l-51 41q-14 10 -25.5 5t-13.5 -23l-2 -64q-6 -37 -33 -10l-41 49q-27 29 -41 -8l-18 -61q-4 -18 -14.5 -19.5t-18.5 15.5l-31 55q-20 37 -43 0l-27 -55q-6 -10 -13 -14.5t-13 0.5t-8 18 l-19 61q-12 39 -39 8l-43 -49q-27 -31 -30 10l-5 64q-4 41 -40 18l-50 -41q-14 -10 -22 -5t-4 24l8 61q2 18 -9.5 25.5t-27.5 -0.5l-55 -27q-16 -8 -23.5 -1t-1.5 24l21 59q6 16 -2.5 25.5t-24.5 5.5l-63 -14q-16 -6 -22.5 3t3.5 23l35 53q8 16 2 26.5t-23 10.5l-65 -2 q-18 -2 -22.5 8.5t8.5 22.5l47 45q12 12 7 24.5t-24 14.5l-61 12q-18 2 -20.5 12.5t14.5 20.5l51 37q10 6 12 10q18 10 33 -12l29 -53q6 -12 12 -15.5t11 0.5t9 17l17 57q6 20 18.5 23.5t22.5 -13.5l43 -47q10 -14 19 -10t11 22l5 62q8 43 41 16l49 -37q14 -12 22 -7t4 24 l-6 61q-2 18 7.5 25.5t25.5 -0.5l57 -27q16 -8 23.5 -1t-0.5 24l-19 61q-6 16 2.5 24.5t24.5 6.5l35 -10q51 -66 84 -194t33 -206q-12 -14 -42 -24.5t-56.5 -4t-26.5 32.5q0 35 -23.5 60.5t-64.5 25.5q-35 0 -60.5 -26.5t-25.5 -63.5q0 -51 43 -85t114 -34q139 0 277 115 q98 84 156.5 203t58.5 215q0 70 -32 108.5t-83 38.5q-43 0 -72.5 -30.5t-29.5 -73.5t29.5 -75t70.5 -32q-23 -115 -84 -196q0 119 -40 226.5t-109 152.5q-4 4 -5 8l-45 43q-29 29 13 41l63 10q10 2 15.5 7t3.5 12.5t-13 13.5l-53 37q-35 25 4 41l58 26q18 4 18 14.5 t-18 18.5l-58 25q-23 2 -18 24q12 6 14 15l31 55q4 10 11 14t13.5 -1t8.5 -15l18 -62q14 -41 41 -10l41 51q27 27 33 -12l2 -61q2 -20 13 -24.5t26 5.5l51 39q14 10 22.5 5t6.5 -23l-11 -62q0 -41 35 -24l57 28q16 8 23.5 1t1.5 -25l-20 -60q-6 -16 3 -25.5t25 -4.5l62 14 q16 6 21 -1t-3 -24l-33 -53q-20 -39 21 -39l63 4q20 2 23.5 -9t-10.5 -23l-43 -46q-10 -12 -7.5 -24t21.5 -14l61 -11q18 -4 20.5 -14t-14.5 -18l-51 -37q-10 -6 -13 -15.5t2 -16.5t17 -11l58 -23q31 -16 0 -35z" glyph-name="uniF8FF" horiz-adv-x="1335" unicode=""/><glyph glyph-name="glyph580" horiz-adv-x="0"/></font>
</defs>
</svg>
